<svg xmlns="http://www.w3.org/2000/svg" width="61.899" height="61.899" viewBox="0 0 61.899 61.899">
  <g id="Grupo_1177511" data-name="Grupo 1177511" transform="translate(0 0)">
    <g id="Grupo_1072053" data-name="Grupo 1072053" transform="translate(0 0)">
      <ellipse id="Elipse_4742" data-name="Elipse 4742" cx="30.949" cy="30.949" rx="30.949" ry="30.949" transform="translate(0)" fill="#fcc510"/>
    </g>
    <g id="Grupo_1177521" data-name="Grupo 1177521" transform="translate(11.852 11.852)">
      <path id="Trazado_993792" data-name="Trazado 993792" d="M19.1,2A17.1,17.1,0,1,0,36.2,19.1,17.1,17.1,0,0,0,19.1,2ZM9,25.464l-1.943-.712a.455.455,0,1,1,.313-.855l.843.308a13.111,13.111,0,0,1-.559-1.476A12.176,12.176,0,0,1,16.983,7.255a.458.458,0,1,1,.171.9A11.23,11.23,0,0,0,9.084,23.9l.353-.963a.456.456,0,0,1,.587-.274.461.461,0,0,1,.274.587L9.591,25.19A.463.463,0,0,1,9,25.464ZM19.092,11.2a7.779,7.779,0,1,1-7.774,7.785A7.779,7.779,0,0,1,19.092,11.2ZM29.316,27.145l-.16-.9a12.086,12.086,0,0,1-9.848,5.106,12.272,12.272,0,0,1-9.2-4.212.455.455,0,1,1,.69-.593,11.234,11.234,0,0,0,17.65-.883l-.992.177a.457.457,0,1,1-.16-.9l2.035-.359a.452.452,0,0,1,.342.074.464.464,0,0,1,.188.3l.359,2.035a.457.457,0,1,1-.9.16Zm1.448-3.984a.456.456,0,0,1-.581.285.463.463,0,0,1-.285-.581A11.269,11.269,0,0,0,20.306,8l.655.781a.459.459,0,0,1-.348.752.476.476,0,0,1-.353-.16L18.932,7.79a.459.459,0,0,1,.057-.644l1.584-1.328a.457.457,0,1,1,.587.7l-.7.581a12.149,12.149,0,0,1,10.3,16.06Z" fill="#12263f"/>
      <path id="Trazado_993793" data-name="Trazado 993793" d="M26.583,32.659a.435.435,0,0,0,.644,0l5.87-5.87a.458.458,0,0,0,0-.644l-1.374-1.374a.461.461,0,0,0-.644,0L26.9,28.943l-1.579-1.579a.464.464,0,0,0-.65,0L23.3,28.738a.458.458,0,0,0,0,.644ZM25,28.333l1.584,1.579a.447.447,0,0,0,.644,0L31.4,25.74l.729.729L26.9,31.7l-2.627-2.633Z" transform="translate(-9.104 -9.737)" fill="#12263f"/>
    </g>
  </g>
</svg>
