<svg xmlns="http://www.w3.org/2000/svg" width="128" height="128" viewBox="0 0 128 128">
  <g id="Grupo_1178336" data-name="Grupo 1178336" transform="translate(-72.746 -7992)">
    <g id="Elipse_13628" data-name="Elipse 13628" transform="translate(72.746 7992)" fill="#fff7e2" stroke="#cff878" stroke-width="6">
      <circle cx="64" cy="64" r="64" stroke="none"/>
      <circle cx="64" cy="64" r="61" fill="none"/>
    </g>
    <g id="Grupo_1178338" data-name="Grupo 1178338" transform="translate(72.823 8018.59)">
      <path id="Trazado_998162" data-name="Trazado 998162" d="M299.371,7.5a2.27,2.27,0,0,0-2.27,2.27v2.27l4.539,0V9.771A2.27,2.27,0,0,0,299.371,7.5Z" transform="translate(-227.17 -6.405)" fill="#c9f0fe"/>
      <path id="Trazado_998163" data-name="Trazado 998163" d="M299.293,9.771a2.269,2.269,0,0,1,1.174-1.988A2.27,2.27,0,0,0,297.1,9.771v2.27h2.192Z" transform="translate(-227.17 -6.405)" fill="#9be8fd"/>
      <path id="Trazado_998164" data-name="Trazado 998164" d="M194.755,262.182l-13.013-4.451V247.05H168.926v10.681l-13.013,4.451a6.028,6.028,0,0,0-4.077,5.7V284.67h47V267.885A6.028,6.028,0,0,0,194.755,262.182Z" transform="translate(-103.134 -210.946)" fill="#fed2a4"/>
      <path id="Trazado_998165" data-name="Trazado 998165" d="M160.3,262.183l11.53-3.944a2.192,2.192,0,0,0,1.483-2.074v-9.114h-4.384v10.681l-13.013,4.451a6.028,6.028,0,0,0-4.077,5.7v16.784h4.384V267.886A6.028,6.028,0,0,1,160.3,262.183Z" transform="translate(-103.133 -210.947)" fill="#ffbd86"/>
      <path id="Trazado_998166" data-name="Trazado 998166" d="M194.755,324.589l-13.013-4.451-6.373,4.242-6.444-4.242-13.013,4.451a6.028,6.028,0,0,0-4.077,5.7v16.785h37.825v-6.809h9.172v-9.975a6.027,6.027,0,0,0-4.077-5.7Z" transform="translate(-103.134 -273.353)" fill="#f24141"/>
      <path id="Trazado_998167" data-name="Trazado 998167" d="M334.448,321.527l-3.66,4.372-4.867-2.788,4.466-2.973Z" transform="translate(-251.779 -273.353)" fill="#c9f0fe"/>
      <path id="Trazado_998168" data-name="Trazado 998168" d="M241.23,321.515l3.663,4.376,4.867-2.788-4.5-2.965Z" transform="translate(-179.464 -273.353)" fill="#c9f0fe"/>
      <path id="Trazado_998169" data-name="Trazado 998169" d="M387.878,150.149h2.2a3.054,3.054,0,0,1,3.054,3.054v2.288a3.054,3.054,0,0,1-3.054,3.054h-2.2Z" transform="translate(-304.681 -128.206)" fill="#fed2a4"/>
      <path id="Trazado_998170" data-name="Trazado 998170" d="M206.679,150.149h-2.2a3.054,3.054,0,0,0-3.054,3.054v2.288a3.054,3.054,0,0,0,3.054,3.054h2.2Z" transform="translate(-145.475 -128.206)" fill="#fed2a4"/>
      <path id="Trazado_998171" data-name="Trazado 998171" d="M237.382,113.348v13.344a10.157,10.157,0,0,0,10.157,10.157h1.679a10.157,10.157,0,0,0,10.157-10.157V113.348a3.111,3.111,0,0,0-3.111-3.111H240.493A3.111,3.111,0,0,0,237.382,113.348Z" transform="translate(-176.178 -94.127)" fill="#fff3de"/>
      <path id="Trazado_998172" data-name="Trazado 998172" d="M241.766,126.692V113.348a3.111,3.111,0,0,1,3.111-3.111h-4.384a3.111,3.111,0,0,0-3.111,3.111v13.344a10.157,10.157,0,0,0,10.157,10.157h1.679a10.249,10.249,0,0,0,1.353-.089,10.159,10.159,0,0,1-8.8-10.068Z" transform="translate(-176.178 -94.127)" fill="#ffe5c2"/>
      <path id="Trazado_998173" data-name="Trazado 998173" d="M247.1,52.709v-3.2a10.976,10.976,0,0,0-10.975-10.975h-5.216A10.975,10.975,0,0,0,219.93,49.513v3.148Z" transform="translate(-161.276 -32.906)" fill="#f24141"/>
      <path id="Trazado_998174" data-name="Trazado 998174" d="M227.237,52.661V49.513a10.977,10.977,0,0,1,9.929-10.926q-.516-.049-1.045-.049h-5.216A10.975,10.975,0,0,0,219.93,49.513v3.148l27.166.048V52.7Z" transform="translate(-161.276 -32.906)" fill="#d83939"/>
      <path id="Trazado_998175" data-name="Trazado 998175" d="M236.122,117.621a2.183,2.183,0,0,1-1.352-.468c-2.88-2.26-7.18-3.556-11.8-3.556s-8.92,1.3-11.8,3.556a2.192,2.192,0,0,1-2.707-3.449c3.637-2.854,8.924-4.491,14.506-4.491s10.869,1.637,14.506,4.491a2.192,2.192,0,0,1-1.355,3.917Z" transform="translate(-150.77 -93.253)" fill="#c9f0fe"/>
      <path id="Trazado_998176" data-name="Trazado 998176" d="M215.773,113.7a22.4,22.4,0,0,1,10.853-4.254,28.177,28.177,0,0,0-3.653-.237c-5.582,0-10.869,1.637-14.506,4.491a2.192,2.192,0,0,0,2.707,3.449,15.035,15.035,0,0,1,3.8-2.125A2.184,2.184,0,0,1,215.773,113.7Z" transform="translate(-150.771 -93.253)" fill="#9be8fd"/>
      <path id="Trazado_998177" data-name="Trazado 998177" d="M73.4,424.917H40.012a1.461,1.461,0,0,1-1.461-1.461V412.761a1.461,1.461,0,0,1,1.461-1.461H73.4a1.461,1.461,0,0,1,1.461,1.461v10.694A1.461,1.461,0,0,1,73.4,424.917Z" transform="translate(-6.404 -351.193)" fill="#33518e"/>
      <path id="Trazado_998178" data-name="Trazado 998178" d="M43.09,420.379v-4.539h2.768v-3.078a1.461,1.461,0,0,1,1.461-1.461H40.012a1.461,1.461,0,0,0-1.461,1.461v10.694a1.461,1.461,0,0,0,1.461,1.461h7.307a1.461,1.461,0,0,1-1.461-1.461v-3.077H43.09Z" transform="translate(-6.404 -351.193)" fill="#26476d"/>
      <path id="Trazado_998179" data-name="Trazado 998179" d="M147.269,349.165h4.539V353.7h-4.539Z" transform="translate(-99.234 -298.138)" fill="#33518e"/>
      <path id="Trazado_998180" data-name="Trazado 998180" d="M117.372,296.127H102.137a1.461,1.461,0,0,1-1.461-1.461v-6.155a1.461,1.461,0,0,1,1.461-1.461h15.235a1.461,1.461,0,0,1,1.461,1.461v6.155A1.461,1.461,0,0,1,117.372,296.127Z" transform="translate(-59.45 -245.101)" fill="#425f99"/>
      <path id="Trazado_998181" data-name="Trazado 998181" d="M106.522,294.666v-6.155a1.461,1.461,0,0,1,1.461-1.461h-5.846a1.461,1.461,0,0,0-1.461,1.461v6.155a1.461,1.461,0,0,0,1.461,1.461h5.846A1.461,1.461,0,0,1,106.522,294.666Z" transform="translate(-59.45 -245.101)" fill="#33518e"/>
      <path id="Trazado_998182" data-name="Trazado 998182" d="M131.738,380.227h9.079v4.541h-9.079Z" transform="translate(-85.973 -324.661)" fill="#425f99"/>
      <path id="Trazado_998183" data-name="Trazado 998183" d="M131.738,380.227h4.384v4.541h-4.384Z" transform="translate(-85.973 -324.661)" fill="#33518e"/>
      <path id="Trazado_998184" data-name="Trazado 998184" d="M69.613,442.362H87.771V446.9H69.613Z" transform="translate(-32.927 -377.716)" fill="#c9f0fe"/>
      <path id="Trazado_998185" data-name="Trazado 998185" d="M69.613,442.362h2.768V446.9H69.613Z" transform="translate(-32.927 -377.716)" fill="#9be8fd"/>
      <circle id="Elipse_13710" data-name="Elipse 13710" cx="2.27" cy="2.27" r="2.27" transform="translate(59.384 64.646)" fill="#ffe02f"/>
      <g id="Grupo_1178337" data-name="Grupo 1178337" transform="translate(31.051 0)">
        <path id="Trazado_998186" data-name="Trazado 998186" d="M91.977,50.2,79.706,46V41.626a11.888,11.888,0,0,0,4.587-10.192h1.1a4.154,4.154,0,0,0,4.15-4.149V25a4.163,4.163,0,0,0-.915-2.6,3.718,3.718,0,0,0-1.718-3.164V16.607A12.087,12.087,0,0,0,75.566,4.557V3.366a3.366,3.366,0,1,0-6.731,0v1.2A12.087,12.087,0,0,0,57.558,16.607v2.576A3.758,3.758,0,0,0,55.769,22.4a4.164,4.164,0,0,0-.915,2.6v2.289A4.154,4.154,0,0,0,59,31.434h1.1A11.738,11.738,0,0,0,64.7,41.627V46L60.48,47.443V43.41a2.56,2.56,0,0,0-2.557-2.557H52.7a1.1,1.1,0,1,0,0,2.192h5.223a.366.366,0,0,1,.365.365v6.155a.366.366,0,0,1-.365.365H42.688a.366.366,0,0,1-.365-.365V43.41a.366.366,0,0,1,.365-.365h5.235a1.1,1.1,0,1,0,0-2.192H42.688A2.56,2.56,0,0,0,40.13,43.41v6.155a2.56,2.56,0,0,0,2.557,2.557h4.251V54.47H45.765a1.1,1.1,0,0,0-1.1,1.1v3.445H33.608a2.56,2.56,0,0,0-2.557,2.557V72.262a2.56,2.56,0,0,0,2.557,2.557H76.121a1.1,1.1,0,1,0,0-2.192H69.532a2.557,2.557,0,0,0,.026-.366V61.568A2.56,2.56,0,0,0,67,59.011H55.94V55.566a1.1,1.1,0,0,0-1.1-1.1H53.67V52.123h4.252a2.561,2.561,0,0,0,2.55-2.36l.937-.32,3.18,3.8a1.1,1.1,0,0,0,1.385.247l4.282-2.454,1.378.907a1.1,1.1,0,0,0,1.21,0l1.343-.894L78.465,53.5a1.1,1.1,0,0,0,1.385-.247l3.177-3.8,8.24,2.819A4.933,4.933,0,0,1,94.6,56.938v8.88h-6.98V60.107a1.1,1.1,0,0,0-2.192,0V72.628H80.9a1.1,1.1,0,0,0,0,2.192H95.7a1.1,1.1,0,0,0,1.1-1.1V56.938A7.124,7.124,0,0,0,91.977,50.2ZM49.131,52.123h2.347V54.47H49.131ZM67,61.2a.366.366,0,0,1,.365.365V72.262a.366.366,0,0,1-.365.365H33.608a.366.366,0,0,1-.365-.365V61.568a.366.366,0,0,1,.365-.365ZM53.748,56.662v2.349H46.861V56.662Zm33.6-31.868c.007.067.01,2.492.01,2.492A1.96,1.96,0,0,1,85.4,29.242h-1.1V25.288A3.306,3.306,0,0,0,87.346,24.794ZM71.027,3.366a1.174,1.174,0,0,1,2.347,0v1.17H71.027V3.366Zm-1.4,3.362q2.607,0,5.216,0c6.02,0,10.291,5.315,9.879,11.123a27.749,27.749,0,0,0-24.974-.039c-.31-5.523,3.491-11.086,9.879-11.085ZM60.107,29.242H59a1.959,1.959,0,0,1-1.957-1.957s0-2.426.01-2.493a3.305,3.305,0,0,0,3.051.5v3.953ZM62.3,32.565V23.922A18.362,18.362,0,0,1,70,21.545a1.1,1.1,0,1,0-.208-2.182,19.429,19.429,0,0,0-10.064,3.676,1.1,1.1,0,1,1-1.353-1.724c3.832-3.007,9.047-4.258,13.829-4.258s10,1.253,13.831,4.258a1.1,1.1,0,0,1-1.354,1.725,19.369,19.369,0,0,0-9.895-3.66,1.1,1.1,0,1,0-.224,2.181A18.32,18.32,0,0,1,82.1,23.922v8.644c0,12.043-19.8,12.028-19.8,0ZM65.681,51.13l-2.049-2.448L65.638,48,68.2,49.685Zm6.552-1.418-5.345-3.518v-3.3a14.656,14.656,0,0,0,10.626,0V46.2Zm6.525,1.426-2.532-1.451L78.766,48l2.038.7ZM94.6,72.628h-6.98V68.011H94.6Z" transform="translate(-31.051 0)"/>
        <path id="Trazado_998187" data-name="Trazado 998187" d="M273.844,174.758a1.1,1.1,0,0,0,1.1-1.1v-1.439a1.1,1.1,0,1,0-2.192,0v1.439A1.1,1.1,0,0,0,273.844,174.758Z" transform="translate(-237.427 -146.119)"/>
        <path id="Trazado_998188" data-name="Trazado 998188" d="M338.461,174.758a1.1,1.1,0,0,0,1.1-1.1v-1.439a1.1,1.1,0,0,0-2.192,0v1.439A1.1,1.1,0,0,0,338.461,174.758Z" transform="translate(-292.601 -146.119)"/>
        <path id="Trazado_998189" data-name="Trazado 998189" d="M290.165,226.694a3.849,3.849,0,0,0,3.845-3.845,1.1,1.1,0,1,0-2.192,0,1.653,1.653,0,1,1-3.305,0,1.1,1.1,0,1,0-2.192,0A3.849,3.849,0,0,0,290.165,226.694Z" transform="translate(-249.015 -189.346)"/>
        <path id="Trazado_998190" data-name="Trazado 998190" d="M124.238,311.7a1.1,1.1,0,0,0,1.1,1.1h9.079a1.1,1.1,0,0,0,0-2.192h-9.079a1.1,1.1,0,0,0-1.1,1.1Z" transform="translate(-110.62 -265.216)"/>
        <path id="Trazado_998191" data-name="Trazado 998191" d="M63.21,441.593H81.368a1.1,1.1,0,0,0,1.1-1.1v-4.539a1.1,1.1,0,0,0-1.1-1.1H63.21a1.1,1.1,0,0,0-1.1,1.1V440.5A1.1,1.1,0,0,0,63.21,441.593Zm1.1-4.539H80.272V439.4H64.306Z" transform="translate(-57.574 -371.312)"/>
        <path id="Trazado_998192" data-name="Trazado 998192" d="M220.791,441.593a3.366,3.366,0,1,0-3.366-3.366A3.37,3.37,0,0,0,220.791,441.593Zm0-4.539a1.174,1.174,0,1,1-1.174,1.174A1.175,1.175,0,0,1,220.791,437.054Z" transform="translate(-190.188 -371.312)"/>
      </g>
    </g>
  </g>
</svg>
