<svg xmlns="http://www.w3.org/2000/svg" width="128" height="128" viewBox="0 0 128 128">
  <g id="Grupo_1177246" data-name="Grupo 1177246" transform="translate(-72.746 -7992)">
    <g id="Elipse_13628" data-name="Elipse 13628" transform="translate(72.746 7992)" fill="#fff7e2" stroke="#cff878" stroke-width="6">
      <circle cx="64" cy="64" r="64" stroke="none"/>
      <circle cx="64" cy="64" r="61" fill="none"/>
    </g>
    <g id="Grupo_1178179" data-name="Grupo 1178179" transform="translate(105.254 8011.859)">
      <g id="Grupo_1178177" data-name="Grupo 1178177" transform="translate(0.923 15.346)">
        <g id="Grupo_1178172" data-name="Grupo 1178172" transform="translate(0 0)">
          <g id="Grupo_1178171" data-name="Grupo 1178171">
            <g id="Grupo_1178168" data-name="Grupo 1178168" transform="translate(0 6.714)">
              <path id="Trazado_997368" data-name="Trazado 997368" d="M59.17,114.87H10.852A3.352,3.352,0,0,1,7.5,111.518V76.494H62.522v35.024A3.352,3.352,0,0,1,59.17,114.87Z" transform="translate(-7.5 -76.494)" fill="#f9f7f8"/>
              <path id="Trazado_997369" data-name="Trazado 997369" d="M390.86,76.494v35.024a3.352,3.352,0,0,1-3.352,3.352h4.921a3.352,3.352,0,0,0,3.352-3.352V76.494Z" transform="translate(-340.758 -76.494)" fill="#e5eef9"/>
              <g id="Grupo_1178167" data-name="Grupo 1178167" transform="translate(5.207 7.76)">
                <path id="Trazado_997370" data-name="Trazado 997370" d="M52.667,221.608h-.005a2.833,2.833,0,0,1-2.833-2.833h0a2.833,2.833,0,0,1,2.833-2.833h.005a2.833,2.833,0,0,1,2.833,2.833h0A2.833,2.833,0,0,1,52.667,221.608Z" transform="translate(-49.828 -206.545)" fill="#6fd7a3"/>
                <path id="Trazado_997371" data-name="Trazado 997371" d="M52.667,297.98h-.005a2.833,2.833,0,0,1-2.833-2.833h0a2.833,2.833,0,0,1,2.833-2.833h.005a2.833,2.833,0,0,1,2.833,2.833h0A2.833,2.833,0,0,1,52.667,297.98Z" transform="translate(-49.828 -273.521)" fill="#6fd7a3"/>
                <path id="Trazado_997372" data-name="Trazado 997372" d="M131.79,145.237h-.005a2.833,2.833,0,0,1-2.833-2.833h0a2.833,2.833,0,0,1,2.833-2.833h.005a2.833,2.833,0,0,1,2.833,2.833h0A2.833,2.833,0,0,1,131.79,145.237Z" transform="translate(-119.217 -139.569)" fill="#6fd7a3"/>
                <path id="Trazado_997373" data-name="Trazado 997373" d="M52.667,145.237h-.005a2.833,2.833,0,0,1-2.833-2.833h0a2.833,2.833,0,0,1,2.833-2.833h.005A2.833,2.833,0,0,1,55.5,142.4h0A2.833,2.833,0,0,1,52.667,145.237Z" transform="translate(-49.828 -139.569)" fill="#6fd7a3"/>
                <path id="Trazado_997374" data-name="Trazado 997374" d="M131.79,221.608h-.005a2.833,2.833,0,0,1-2.833-2.833h0a2.833,2.833,0,0,1,2.833-2.833h.005a2.833,2.833,0,0,1,2.833,2.833h0A2.833,2.833,0,0,1,131.79,221.608Z" transform="translate(-119.217 -206.545)" fill="#6fd7a3"/>
                <path id="Trazado_997375" data-name="Trazado 997375" d="M131.79,297.98h-.005a2.833,2.833,0,0,1-2.833-2.833h0a2.833,2.833,0,0,1,2.833-2.833h.005a2.833,2.833,0,0,1,2.833,2.833h0A2.833,2.833,0,0,1,131.79,297.98Z" transform="translate(-119.217 -273.521)" fill="#6fd7a3"/>
                <path id="Trazado_997376" data-name="Trazado 997376" d="M210.913,145.237h-.005a2.833,2.833,0,0,1-2.833-2.833h0a2.833,2.833,0,0,1,2.833-2.833h.005a2.833,2.833,0,0,1,2.833,2.833h0A2.833,2.833,0,0,1,210.913,145.237Z" transform="translate(-188.606 -139.569)" fill="#6fd7a3"/>
                <path id="Trazado_997377" data-name="Trazado 997377" d="M210.913,221.608h-.005a2.833,2.833,0,0,1-2.833-2.833h0a2.833,2.833,0,0,1,2.833-2.833h.005a2.833,2.833,0,0,1,2.833,2.833h0A2.833,2.833,0,0,1,210.913,221.608Z" transform="translate(-188.606 -206.545)" fill="#6fd7a3"/>
                <path id="Trazado_997378" data-name="Trazado 997378" d="M290.036,145.237h-.005A2.833,2.833,0,0,1,287.2,142.4h0a2.833,2.833,0,0,1,2.833-2.833h.005a2.833,2.833,0,0,1,2.833,2.833h0A2.833,2.833,0,0,1,290.036,145.237Z" transform="translate(-257.995 -139.569)" fill="#6fd7a3"/>
                <path id="Trazado_997379" data-name="Trazado 997379" d="M369.159,145.237h-.005a2.833,2.833,0,0,1-2.833-2.833h0a2.833,2.833,0,0,1,2.833-2.833h.005a2.833,2.833,0,0,1,2.833,2.833h0A2.833,2.833,0,0,1,369.159,145.237Z" transform="translate(-327.384 -139.569)" fill="#6fd7a3"/>
              </g>
            </g>
            <g id="Grupo_1178169" data-name="Grupo 1178169" transform="translate(0)">
              <path id="Trazado_997380" data-name="Trazado 997380" d="M59.552,21.922H56.359A1.259,1.259,0,0,0,55.1,23.18v.177a1.24,1.24,0,0,0,.355.875,2.324,2.324,0,1,1-3.307.008,1.259,1.259,0,0,0,.363-.883V23.18a1.259,1.259,0,0,0-1.259-1.258H48.317a1.259,1.259,0,0,0-1.259,1.258v.177a1.24,1.24,0,0,0,.355.875,2.324,2.324,0,1,1-3.307.008,1.259,1.259,0,0,0,.363-.883V23.18a1.259,1.259,0,0,0-1.259-1.258h-16.4a1.259,1.259,0,0,0-1.259,1.258v.177a1.24,1.24,0,0,0,.355.875,2.324,2.324,0,1,1-3.307.008,1.259,1.259,0,0,0,.363-.883V23.18a1.259,1.259,0,0,0-1.259-1.258H18.771a1.259,1.259,0,0,0-1.259,1.258v.177a1.24,1.24,0,0,0,.355.875,2.324,2.324,0,1,1-3.307.008,1.259,1.259,0,0,0,.363-.883V23.18a1.259,1.259,0,0,0-1.259-1.258H10.47A2.961,2.961,0,0,0,7.5,24.874v6.083H62.522V24.874A2.961,2.961,0,0,0,59.552,21.922Z" transform="translate(-7.5 -21.922)" fill="#fd8087"/>
            </g>
            <g id="Grupo_1178170" data-name="Grupo 1178170" transform="translate(48.19)">
              <path id="Trazado_997381" data-name="Trazado 997381" d="M403.076,21.922h-3.193a1.252,1.252,0,0,0-.669.194,2.953,2.953,0,0,1,1.912,2.758v6.083h4.921V24.874A2.961,2.961,0,0,0,403.076,21.922Z" transform="translate(-399.214 -21.922)" fill="#fd8087"/>
            </g>
          </g>
        </g>
        <g id="Grupo_1178176" data-name="Grupo 1178176" transform="translate(29.146 24.181)">
          <g id="Grupo_1178175" data-name="Grupo 1178175" transform="translate(2.736)">
            <g id="Grupo_1178174" data-name="Grupo 1178174">
              <path id="Trazado_997382" data-name="Trazado 997382" d="M267.259,229.123a7.125,7.125,0,0,1,8.407,2.34.87.87,0,0,0,1.057.276c1.52-.684,4.438-3.758,5.968-3.36s1.671,4.269,2.66,5.605a.87.87,0,0,0,1.057.277,7.2,7.2,0,0,1,8.484,2.076.435.435,0,0,0,.768-.192,14.957,14.957,0,0,0-10.985-17.181,15.114,15.114,0,0,0-17.994,9.617A.435.435,0,0,0,267.259,229.123Z" transform="translate(-266.655 -218.483)" fill="#ffe177"/>
              <g id="Grupo_1178173" data-name="Grupo 1178173" transform="translate(17.779 0.421)">
                <path id="Trazado_997383" data-name="Trazado 997383" d="M411.412,221.966c-.08-.021-.16-.04-.24-.06,4.943,2.807,7.059,8.992,6.6,14.969a7.265,7.265,0,0,1,3.854,2.463.435.435,0,0,0,.768-.192A14.956,14.956,0,0,0,411.412,221.966Z" transform="translate(-411.172 -221.906)" fill="#ffd15b"/>
              </g>
              <path id="Trazado_997384" data-name="Trazado 997384" d="M353.01,221.882c3.536.925,2.424,10.056,1.251,14.955a.3.3,0,0,1-.541.109,7.124,7.124,0,0,0-8.712-2.266.3.3,0,0,1-.419-.36C346.012,229.285,349.467,220.955,353.01,221.882Z" transform="translate(-334.991 -221.402)" fill="#fd8087"/>
            </g>
          </g>
          <path id="Trazado_997385" data-name="Trazado 997385" d="M248.157,428.748a1.312,1.312,0,0,0,.909-.771,3.569,3.569,0,0,1,3.278-2.157h14.191a3.57,3.57,0,0,1,3.49,2.82,5.122,5.122,0,0,1,4.355,3.353,1.283,1.283,0,0,1-1.2,1.73H245.7a1.283,1.283,0,0,1-1.2-1.73,5.15,5.15,0,0,1,3.658-3.245Z" transform="translate(-244.419 -400.314)" fill="#ffdfcf"/>
          <path id="Trazado_997386" data-name="Trazado 997386" d="M396.957,431.994a5.122,5.122,0,0,0-4.355-3.353,3.57,3.57,0,0,0-3.49-2.82h-4.921a3.57,3.57,0,0,1,3.49,2.82,5.122,5.122,0,0,1,4.355,3.353,1.283,1.283,0,0,1-1.2,1.73h4.921A1.283,1.283,0,0,0,396.957,431.994Z" transform="translate(-366.996 -400.314)" fill="#ffcebf"/>
        </g>
      </g>
      <g id="Grupo_1178178" data-name="Grupo 1178178" transform="translate(0 14.423)">
        <path id="Trazado_997387" data-name="Trazado 997387" d="M46.084,215.955h.005a3.759,3.759,0,1,0-.005,0Zm.005-5.668a1.911,1.911,0,0,1,0,3.823h-.005a1.911,1.911,0,1,1,.005-3.823Z" transform="translate(-37.121 -184.573)"/>
        <path id="Trazado_997388" data-name="Trazado 997388" d="M46.084,292.327h.005a3.759,3.759,0,1,0-.005,0Zm.005-5.668a1.911,1.911,0,0,1,0,3.823h-.005a1.911,1.911,0,1,1,.005-3.823Z" transform="translate(-37.121 -251.55)"/>
        <path id="Trazado_997389" data-name="Trazado 997389" d="M125.207,139.583h.005a3.759,3.759,0,1,0-.005,0Zm.005-5.668a1.911,1.911,0,0,1,0,3.823h-.005a1.911,1.911,0,1,1,.005-3.823Z" transform="translate(-106.51 -117.597)"/>
        <path id="Trazado_997390" data-name="Trazado 997390" d="M46.084,139.583h.005a3.759,3.759,0,1,0-.005,0Zm.005-5.668a1.911,1.911,0,0,1,0,3.823h-.005a1.911,1.911,0,1,1,.005-3.823Z" transform="translate(-37.121 -117.597)"/>
        <path id="Trazado_997391" data-name="Trazado 997391" d="M125.207,215.955h.005a3.759,3.759,0,1,0-.005,0Zm.005-5.668a1.911,1.911,0,0,1,0,3.823h-.005a1.911,1.911,0,1,1,.005-3.823Z" transform="translate(-106.51 -184.573)"/>
        <path id="Trazado_997392" data-name="Trazado 997392" d="M125.207,292.327h.005a3.759,3.759,0,1,0-.005,0Zm.005-5.668a1.911,1.911,0,0,1,0,3.823h-.005a1.911,1.911,0,1,1,.005-3.823Z" transform="translate(-106.51 -251.55)"/>
        <path id="Trazado_997393" data-name="Trazado 997393" d="M204.33,139.583h.006a3.759,3.759,0,1,0-.006,0Zm.006-5.668a1.911,1.911,0,0,1,0,3.823h-.006a1.911,1.911,0,1,1,.006-3.823Z" transform="translate(-175.899 -117.597)"/>
        <path id="Trazado_997394" data-name="Trazado 997394" d="M204.33,215.955h.006a3.759,3.759,0,1,0-.006,0Zm.006-5.668a1.911,1.911,0,0,1,0,3.823h-.006a1.911,1.911,0,1,1,.006-3.823Z" transform="translate(-175.899 -184.573)"/>
        <path id="Trazado_997395" data-name="Trazado 997395" d="M283.458,139.583a3.759,3.759,0,1,0-.006,0Zm-1.916-3.757a1.913,1.913,0,1,1,1.916,1.912h-.006A1.913,1.913,0,0,1,281.542,135.826Z" transform="translate(-245.288 -117.597)"/>
        <path id="Trazado_997396" data-name="Trazado 997396" d="M362.582,139.583a3.759,3.759,0,1,0-.006,0Zm-1.916-3.757a1.913,1.913,0,1,1,1.916,1.912h-.006A1.913,1.913,0,0,1,360.666,135.826Z" transform="translate(-314.678 -117.597)"/>
        <path id="Trazado_997397" data-name="Trazado 997397" d="M62.3,49.871a.923.923,0,1,0-1.764.541,13.866,13.866,0,0,1,.517,5.619,8.082,8.082,0,0,0-7.834-1.949,40.679,40.679,0,0,0,.921-8.092,14.174,14.174,0,0,0-.479-3.9,14.047,14.047,0,0,1,5.485,5.2.923.923,0,1,0,1.581-.951,15.93,15.93,0,0,0-3.858-4.363V18.3a3.888,3.888,0,0,0-3.893-3.874H49.781a2.307,2.307,0,0,0-1.559,3.882,1.39,1.39,0,0,1,.406.985,1.4,1.4,0,1,1-2.4-.98,2.307,2.307,0,0,0-1.554-3.887H41.74a2.307,2.307,0,0,0-1.558,3.882,1.389,1.389,0,0,1,.406.985,1.4,1.4,0,1,1-2.4-.98,2.307,2.307,0,0,0-1.554-3.887h-16.4a2.307,2.307,0,0,0-1.559,3.882,1.39,1.39,0,0,1,.406.985,1.4,1.4,0,1,1-2.4-.98,2.307,2.307,0,0,0-1.554-3.887H12.193a2.259,2.259,0,0,0-2.182,2.357,2.149,2.149,0,0,0,.623,1.525,1.389,1.389,0,0,1,.406.985,1.4,1.4,0,1,1-2.4-.98,2.307,2.307,0,0,0-1.554-3.887H3.893A3.887,3.887,0,0,0,0,18.3V29.819a.923.923,0,1,0,1.845,0V25.3H55.022V40.737a16.129,16.129,0,0,0-3.964-1.621h0a16.037,16.037,0,0,0-19.1,10.212,1.368,1.368,0,0,0,1.8,1.694,6.176,6.176,0,0,1,7.316,2.035,1.8,1.8,0,0,0,2.177.569,6.158,6.158,0,0,1,3.187-.5l-1.673,6.391H4.274a2.432,2.432,0,0,1-2.429-2.429V33.347a.923.923,0,0,0-1.845,0V57.084a4.279,4.279,0,0,0,4.275,4.275H44.282l-.721,2.753H37.994a4.489,4.489,0,0,0-4.125,2.714.391.391,0,0,1-.266.236,6.1,6.1,0,0,0-4.319,3.827,2.244,2.244,0,0,0,2.067,2.97H58.829a2.248,2.248,0,0,0,2.067-2.97,6.064,6.064,0,0,0-4.507-3.866,4.518,4.518,0,0,0-4.2-2.911H45.469l.721-2.753h6.4a4.279,4.279,0,0,0,4.275-4.275V55.8a6.324,6.324,0,0,1,3.455,2.161,1.375,1.375,0,0,0,2.392-.6,15.706,15.706,0,0,0-.416-7.49ZM1.845,18.3a2.041,2.041,0,0,1,2.048-2.029H7.086c.371,0,.423.559.238.748a3.244,3.244,0,0,0,1.944,5.5,3.3,3.3,0,0,0,3.618-3.224,3.223,3.223,0,0,0-.942-2.285c-.19-.192-.088-.737.249-.737h2.935c.371,0,.423.559.238.748a3.244,3.244,0,0,0,1.943,5.5,3.3,3.3,0,0,0,3.619-3.224,3.224,3.224,0,0,0-.942-2.285c-.19-.192-.088-.737.249-.737h16.4c.371,0,.423.559.238.748a3.244,3.244,0,0,0,1.944,5.5,3.3,3.3,0,0,0,3.618-3.224,3.223,3.223,0,0,0-.942-2.285c-.19-.192-.088-.737.249-.737h2.935c.371,0,.423.559.238.748a3.244,3.244,0,0,0,1.944,5.5,3.3,3.3,0,0,0,3.618-3.224,3.224,3.224,0,0,0-.942-2.285c-.19-.192-.088-.737.249-.737h3.193A2.041,2.041,0,0,1,55.022,18.3v5.16H1.845Zm52.927,49.75a.922.922,0,0,0,.827.727,4.2,4.2,0,0,1,3.564,2.751.361.361,0,0,1-.334.489H31.35a.361.361,0,0,1-.335-.489,4.24,4.24,0,0,1,3-2.664h0a2.246,2.246,0,0,0,1.551-1.3,2.645,2.645,0,0,1,2.431-1.6H52.185a2.658,2.658,0,0,1,2.588,2.09ZM34.065,48.976a13.984,13.984,0,0,1,6.3-6.825,14.189,14.189,0,0,1,6.921-1.7,14.009,14.009,0,0,0-2.27,3.082,39.933,39.933,0,0,0-3.181,7.582A8.018,8.018,0,0,0,34.065,48.976Zm9.574,2.555a37.808,37.808,0,0,1,2.98-7.082c1.45-2.536,2.9-3.83,3.971-3.548,2.124.556,2.086,6.781.853,12.66a8.151,8.151,0,0,0-7.8-2.03Zm8.954,7.982H46.673l1.551-5.927a6.121,6.121,0,0,1,2.535,1.991,1.8,1.8,0,0,0,2.177.569,5.949,5.949,0,0,1,2.087-.508v1.446a2.432,2.432,0,0,1-2.429,2.429Z" transform="translate(0 -14.423)"/>
      </g>
    </g>
  </g>
</svg>
