<svg xmlns="http://www.w3.org/2000/svg" width="128" height="128" viewBox="0 0 128 128">
  <g id="Grupo_1177431" data-name="Grupo 1177431" transform="translate(-72.746 -7992)">
    <g id="Elipse_13628" data-name="Elipse 13628" transform="translate(72.746 7992)" fill="#fff7e2" stroke="#cff878" stroke-width="6">
      <circle cx="64" cy="64" r="64" stroke="none"/>
      <circle cx="64" cy="64" r="61" fill="none"/>
    </g>
    <g id="Grupo_1178182" data-name="Grupo 1178182" transform="translate(104.674 8022.032)">
      <path id="Trazado_997421" data-name="Trazado 997421" d="M49.461,42.811a10.85,10.85,0,0,0,1.6-4.78c0-4.478-4.478-5.6-4.478-10.075,0-3.358,2.239-3.358,0-8.956H17.478c-2.239,5.6,0,5.6,0,8.956,0,4.478-4.478,5.6-4.478,10.075a10.85,10.85,0,0,0,1.6,4.78Z" transform="translate(0.358 2.27)" fill="#774c44"/>
      <path id="Trazado_997422" data-name="Trazado 997422" d="M23.829,36.343h-.011l-1.276.257A14.348,14.348,0,0,0,11,50.672v8.956a2.246,2.246,0,0,0,2.239,2.239H51.3a2.246,2.246,0,0,0,2.239-2.239V50.672A14.348,14.348,0,0,0,42,36.6l-1.276-.257h-.011L37.867,35H26.672Z" transform="translate(0.119 4.181)" fill="#778030"/>
      <path id="Trazado_997423" data-name="Trazado 997423" d="M35.926,32.11l.246,2.731q.022.254.022.5a5.6,5.6,0,1,1-11.195,0c0-.179.011-.325.022-.5l.246-2.731Z" transform="translate(1.792 3.836)" fill="#d7af98"/>
      <path id="Trazado_997424" data-name="Trazado 997424" d="M45.423,17.635a3.358,3.358,0,0,1-2.676,5.385s1.019,9.359-9.639,13.165a4.64,4.64,0,0,1-3.112,0C19.339,32.378,20.358,23.02,20.358,23.02a3.358,3.358,0,0,1-2.676-5.385,25.151,25.151,0,0,1,27.74,0Z" transform="translate(0.837 1.609)" fill="#e7c1a7"/>
      <path id="Trazado_997425" data-name="Trazado 997425" d="M18.13,14.825l.795-10.433a2.976,2.976,0,0,1,2.508-2.709A67.5,67.5,0,0,1,31.418,1a67.5,67.5,0,0,1,9.986.683,2.976,2.976,0,0,1,2.508,2.709l.795,10.433Z" transform="translate(0.971 0.119)" fill="#778030"/>
      <path id="Trazado_997426" data-name="Trazado 997426" d="M43.32,14.784H29.73l.884-4.444a3.332,3.332,0,0,1,3.258-2.664,3.3,3.3,0,0,0,3.28-2.843l.5-3.482c.918.09,1.713.19,2.362.291A2.976,2.976,0,0,1,42.525,4.35Z" transform="translate(2.357 0.161)" fill="#646825"/>
      <path id="Trazado_997427" data-name="Trazado 997427" d="M28.844,1.03l-.425,1.713a3,3,0,0,1-1.981,2.138l-.593.2A2.987,2.987,0,0,0,24.1,6.594a2.987,2.987,0,0,1-1.746,1.511L18.5,9.392l.381-5a2.976,2.976,0,0,1,2.508-2.709,66.787,66.787,0,0,1,7.456-.649Z" transform="translate(1.015 0.123)" fill="#646825"/>
      <path id="Trazado_997428" data-name="Trazado 997428" d="M47.345,15.753a2.092,2.092,0,0,0-1.524-2.009A52.093,52.093,0,0,0,31.672,12a52.093,52.093,0,0,0-14.149,1.743,2.086,2.086,0,0,0,1.1,4.024,52.5,52.5,0,0,1,13.048-1.29,52.5,52.5,0,0,1,13.048,1.29,2.086,2.086,0,0,0,2.624-2.015Z" transform="translate(0.717 1.433)" fill="#58591e"/>
      <path id="Trazado_997429" data-name="Trazado 997429" d="M30.663,46.195C21.707,40.6,25.066,35,25.066,35A5.6,5.6,0,1,0,36.26,35S39.619,40.6,30.663,46.195Z" transform="translate(1.726 4.181)" fill="#d6d697"/>
      <g id="Grupo_1178181" data-name="Grupo 1178181" transform="translate(11.119 40.525)">
        <path id="Trazado_997430" data-name="Trazado 997430" d="M23.314,58v2.731H13.239A2.246,2.246,0,0,1,11,58.49V49.534a14.359,14.359,0,0,1,.9-5l4.332,2.888a4.651,4.651,0,0,1,1.925,2.743l.168.66a4.611,4.611,0,0,0,2.429,3.023,4.683,4.683,0,0,1,1.87,1.713A4.62,4.62,0,0,1,23.314,58Z" transform="translate(-11 -35.205)" fill="#646825"/>
        <path id="Trazado_997431" data-name="Trazado 997431" d="M50.369,50.529v3.358H48.69a2.716,2.716,0,0,1-2.429-1.5l-.739-1.478a2.716,2.716,0,0,0-2.429-1.5,2.716,2.716,0,0,1-2.429-1.5l-1.7-3.414L37.54,36.2h.011l1.276.257A14.348,14.348,0,0,1,50.369,50.529Z" transform="translate(-7.829 -36.2)" fill="#646825"/>
        <path id="Trazado_997432" data-name="Trazado 997432" d="M44.911,59.813H27l1.2-3.593a3.57,3.57,0,0,1,4.243-2.328A3.316,3.316,0,0,0,33.3,54a3.573,3.573,0,0,0,1.59-.381l2.127-1.052a3.507,3.507,0,0,1,2.452-.269l1.31.325a3.527,3.527,0,0,1,2.508,2.328Z" transform="translate(-9.089 -34.289)" fill="#646825"/>
      </g>
      <path id="Trazado_997433" data-name="Trazado 997433" d="M31.124,46.195l-3.271,3.271a1.974,1.974,0,0,1-2.421.32,9.874,9.874,0,0,1-4.383-5.83C18.81,36.119,25.527,35,25.527,35S22.168,40.6,31.124,46.195Z" transform="translate(1.265 4.181)" fill="#a3aa48"/>
      <path id="Trazado_997434" data-name="Trazado 997434" d="M30,46.195l3.271,3.271a1.974,1.974,0,0,0,2.421.32,9.874,9.874,0,0,0,4.383-5.83C42.314,36.119,35.6,35,35.6,35S38.956,40.6,30,46.195Z" transform="translate(2.389 4.181)" fill="#a3aa48"/>
      <path id="Trazado_997435" data-name="Trazado 997435" d="M13.358,67.168H51.42a3.358,3.358,0,0,0,3.358-3.358V54.854a15.44,15.44,0,0,0-3.6-9.895A11.59,11.59,0,0,0,52.54,40.3a8.732,8.732,0,0,0-2.484-5.737c-1.07-1.337-1.994-2.492-1.994-4.338a6.083,6.083,0,0,1,.463-2.281c.62-1.754.941-3.3-.485-6.931a4.478,4.478,0,0,0-.233-1.213c.041-.029.088-.046.129-.077a3.179,3.179,0,0,0,1.245-2.536,3.23,3.23,0,0,0-2.334-3.082l-.112-.031L46,4.424A4.093,4.093,0,0,0,42.542.7,68.685,68.685,0,0,0,32.389,0,68.645,68.645,0,0,0,22.231.7a4.091,4.091,0,0,0-3.451,3.73l-.734,9.644-.112.03A3.23,3.23,0,0,0,15.6,17.187a3.179,3.179,0,0,0,1.245,2.536c.04.031.085.053.128.082a4.489,4.489,0,0,0-.232,1.209c-1.426,3.635-1.1,5.176-.485,6.931a6.083,6.083,0,0,1,.463,2.281c0,1.846-.924,3-1.994,4.338A8.732,8.732,0,0,0,12.239,40.3,11.59,11.59,0,0,0,13.6,44.959,15.44,15.44,0,0,0,10,54.854v2.239a1.119,1.119,0,0,0,2.239,0V54.854a13.134,13.134,0,0,1,.411-3.235l3.074,2.05a3.527,3.527,0,0,1,1.464,2.089l.166.654a5.719,5.719,0,0,0,3.016,3.754A3.568,3.568,0,0,1,21.79,61.47a3.477,3.477,0,0,1,.524,1.847v1.612H13.358a1.119,1.119,0,0,1-1.119-1.119V61.571a1.119,1.119,0,0,0-2.239,0v2.239a3.358,3.358,0,0,0,3.358,3.358Zm17.225-2.239.706-2.115a2.443,2.443,0,0,1,2.911-1.6,4.7,4.7,0,0,0,3.229-.356l2.127-1.06a2.463,2.463,0,0,1,1.679-.186l1.3.326a2.435,2.435,0,0,1,1.717,1.6l1.134,3.387ZM52.54,57.093h-.56a1.586,1.586,0,0,1-1.427-.881l-.74-1.478a3.814,3.814,0,0,0-3.43-2.119,1.587,1.587,0,0,1-1.427-.88l-1.5-3.023c.028-.092.064-.179.091-.273a9.326,9.326,0,0,0-.034-6.122A13.268,13.268,0,0,1,52.54,54.854Zm-20.15-8.067a11.786,11.786,0,0,1-4.618-4.979,6.693,6.693,0,0,0,9.23.012A11.806,11.806,0,0,1,32.389,49.026Zm-8.712-6.543a4.59,4.59,0,0,1,1.446-1.428c-.236,2.3.461,5.925,5.508,9.5l-2.306,2.306a.852.852,0,0,1-1.038.159,8.761,8.761,0,0,1-3.9-5.185,6.54,6.54,0,0,1,.287-5.348Zm-1.65-18.6a1.119,1.119,0,0,0-.833-.372,2.239,2.239,0,0,1-2.239-2.239,2.187,2.187,0,0,1,.232-.929,3.08,3.08,0,0,0,.438-.056,51.383,51.383,0,0,1,12.764-1.254,51.384,51.384,0,0,1,12.762,1.254,3.313,3.313,0,0,0,.442.064,2.2,2.2,0,0,1,.229.921,2.239,2.239,0,0,1-2.239,2.239,1.119,1.119,0,0,0-1.113,1.24c.009.085.81,8.52-8.905,11.991a3.532,3.532,0,0,1-2.351,0c-9.656-3.448-8.937-11.642-8.9-11.989a1.119,1.119,0,0,0-.285-.87Zm8.426,14.965a5.709,5.709,0,0,0,3.868,0,19.516,19.516,0,0,0,2.437-1.072l.091,1.008c.012.135.019.27.019.406a4.478,4.478,0,0,1-8.956,0c0-.129.008-.237.018-.4l.091-1.008a19.463,19.463,0,0,0,2.433,1.069Zm9.2,2.209A4.59,4.59,0,0,1,41.1,42.483a6.541,6.541,0,0,1,.288,5.347,8.772,8.772,0,0,1-3.9,5.188.859.859,0,0,1-1.038-.16l-2.306-2.306c5.047-3.571,5.743-7.193,5.508-9.5Zm8.652-5.091C49.377,37.3,50.3,38.455,50.3,40.3a8.655,8.655,0,0,1-.784,2.945,15.4,15.4,0,0,0-7.172-3.562l-1.038-.208a8.125,8.125,0,0,0-2.246-1.164L38.9,36.477A13.984,13.984,0,0,0,44.717,25.6a4.478,4.478,0,0,0,2.015-1.17,4.851,4.851,0,0,1-.321,2.763,8.258,8.258,0,0,0-.588,3.029,8.732,8.732,0,0,0,2.484,5.737ZM43.766,4.6l.678,8.91a56.687,56.687,0,0,0-10.7-1.166l.321-1.616a2.212,2.212,0,0,1,2.161-1.768A4.5,4.5,0,0,0,39.14,7.868,4.451,4.451,0,0,0,40.617,5.15l.348-2.412c.448.056.872.112,1.231.168A1.855,1.855,0,0,1,43.766,4.6ZM22.57,2.911c1.364-.206,3.34-.437,5.84-.566l-.064.256a1.881,1.881,0,0,1-1.254,1.343l-.58.2a4.135,4.135,0,0,0-2.4,2.075,1.882,1.882,0,0,1-1.1.95l-2.252.752L21.012,4.6A1.853,1.853,0,0,1,22.57,2.911Zm-2,7.431,3.134-1.049A4.135,4.135,0,0,0,26.12,7.217a1.883,1.883,0,0,1,1.1-.952l.575-.2a4.105,4.105,0,0,0,2.721-2.933l.224-.88c.525-.009,1.076-.016,1.644-.016,2.476,0,4.59.112,6.348.266L38.4,4.84a2.2,2.2,0,0,1-.724,1.338,2.246,2.246,0,0,1-1.449.54,4.46,4.46,0,0,0-4.356,3.567l-.406,2.049a57.05,57.05,0,0,0-11.133,1.174Zm-2.026,5.912a50.978,50.978,0,0,1,13.841-1.7,51.021,51.021,0,0,1,13.84,1.7.968.968,0,0,1,.713.935.943.943,0,0,1-.374.762.98.98,0,0,1-.846.169,53.622,53.622,0,0,0-13.333-1.327,53.622,53.622,0,0,0-13.333,1.327.972.972,0,0,1-.846-.169.944.944,0,0,1-.374-.763A.966.966,0,0,1,18.548,16.254ZM16.472,35.963a8.732,8.732,0,0,0,2.484-5.737,8.258,8.258,0,0,0-.591-3.029,4.851,4.851,0,0,1-.321-2.763,4.478,4.478,0,0,0,2.015,1.17A13.98,13.98,0,0,0,25.88,36.478l-.165,1.833a8.125,8.125,0,0,0-2.248,1.165l-1.037.208a15.4,15.4,0,0,0-7.174,3.562,8.655,8.655,0,0,1-.779-2.945c0-1.846.924-3,1.994-4.338ZM23.69,60.284a5.811,5.811,0,0,0-2.323-2.127,3.482,3.482,0,0,1-1.842-2.295l-.167-.654a5.756,5.756,0,0,0-2.39-3.4l-3.557-2.37a13.287,13.287,0,0,1,7.859-7.115,9.323,9.323,0,0,0-.032,6.123,10.937,10.937,0,0,0,4.867,6.473,2.969,2.969,0,0,0,1.575.448,3.158,3.158,0,0,0,2.228-.921l2.481-2.483L34.87,54.44a3.158,3.158,0,0,0,2.228.921,2.978,2.978,0,0,0,1.575-.448,10.951,10.951,0,0,0,3.592-3.562l.687,1.378a3.814,3.814,0,0,0,3.43,2.125,1.586,1.586,0,0,1,1.427.881l.74,1.478a3.814,3.814,0,0,0,3.43,2.119h.56v4.478a1.119,1.119,0,0,1-1.119,1.119H47.748l-1.366-4.1a4.663,4.663,0,0,0-3.306-3.062l-1.3-.327a4.683,4.683,0,0,0-3.229.356l-2.127,1.06a2.446,2.446,0,0,1-1.679.186,4.7,4.7,0,0,0-5.576,3.061l-.938,2.822H24.553V63.317a5.718,5.718,0,0,0-.863-3.033Z" transform="translate(0 0)"/>
    </g>
  </g>
</svg>
