<svg xmlns="http://www.w3.org/2000/svg" xmlns:xlink="http://www.w3.org/1999/xlink" width="605.413" height="320" viewBox="0 0 605.413 320">
  <defs>
    <clipPath id="clip-path">
      <rect id="Rectángulo_455091" data-name="Rectángulo 455091" width="436" height="122.675" fill="none"/>
    </clipPath>
    <clipPath id="clip-path-2">
      <rect id="Rectángulo_455087" data-name="Rectángulo 455087" width="435.999" height="122.675" fill="none"/>
    </clipPath>
    <clipPath id="clip-path-3">
      <rect id="Rectángulo_455079" data-name="Rectángulo 455079" width="39.282" height="30.717" fill="none"/>
    </clipPath>
    <clipPath id="clip-path-4">
      <rect id="Rectángulo_455080" data-name="Rectángulo 455080" width="9.3" height="9.134" fill="none"/>
    </clipPath>
    <clipPath id="clip-path-5">
      <rect id="Rectángulo_455083" data-name="Rectángulo 455083" width="12.191" height="7.655" fill="none"/>
    </clipPath>
    <clipPath id="clip-path-7">
      <path id="Trazado_995518" data-name="Trazado 995518" d="M0,0C3.77,16.849,34.952,30,72.862,30s69.093-13.146,72.862-30Z" fill="none"/>
    </clipPath>
    <linearGradient id="linear-gradient" x1="0.001" y1="3.904" x2="0.002" y2="3.904" gradientUnits="objectBoundingBox">
      <stop offset="0" stop-color="#fe9c98"/>
      <stop offset="0.279" stop-color="#fe9591"/>
      <stop offset="0.657" stop-color="#fe8480"/>
      <stop offset="0.996" stop-color="#ff6f6b"/>
      <stop offset="1" stop-color="#ff6f6b"/>
    </linearGradient>
    <clipPath id="clip-path-8">
      <path id="Trazado_995519" data-name="Trazado 995519" d="M1632.481,0c3.77,16.849,34.953,30,72.862,30s69.093-13.146,72.862-30Z" transform="translate(-1632.481)" fill="none"/>
    </clipPath>
    <linearGradient id="linear-gradient-2" x1="-1.992" y1="4.09" x2="-1.991" y2="4.09" gradientUnits="objectBoundingBox">
      <stop offset="0" stop-color="#79f6ba"/>
      <stop offset="0.249" stop-color="#72f0b3"/>
      <stop offset="0.59" stop-color="#62dfa2"/>
      <stop offset="0.982" stop-color="#46c585"/>
      <stop offset="1" stop-color="#45c484"/>
    </linearGradient>
  </defs>
  <g id="Grupo_1177979" data-name="Grupo 1177979" transform="translate(-498 -2152.711)">
    <rect id="Rectángulo_455070" data-name="Rectángulo 455070" width="605.413" height="320" rx="10" transform="translate(498 2152.711)" fill="#fff"/>
    <g id="Grupo_1178000" data-name="Grupo 1178000" transform="translate(582 2310.567)">
      <g id="Grupo_1177999" data-name="Grupo 1177999" clip-path="url(#clip-path)">
        <g id="Grupo_1177992" data-name="Grupo 1177992">
          <g id="Grupo_1177991" data-name="Grupo 1177991" clip-path="url(#clip-path-2)">
            <path id="Trazado_995509" data-name="Trazado 995509" d="M383.179,244.456l145.705,19.293,145.705-19.293a5.732,5.732,0,0,0-.78-11.424H383.959a5.732,5.732,0,0,0-.78,11.424" transform="translate(-310.884 -191.596)" fill="#1f4766"/>
            <g id="Grupo_1177981" data-name="Grupo 1177981" transform="translate(198.358 41.436)" opacity="0.7">
              <g id="Grupo_1177980" data-name="Grupo 1177980">
                <g id="Grupo_1177979-2" data-name="Grupo 1177979" clip-path="url(#clip-path-3)">
                  <path id="Trazado_995510" data-name="Trazado 995510" d="M1147.676,233.032l7.159,28.116-19.641,2.6-19.641-2.6,7.159-28.116Z" transform="translate(-1115.552 -233.032)" fill="#193952"/>
                </g>
              </g>
            </g>
            <g id="Grupo_1177984" data-name="Grupo 1177984" transform="translate(212.791 52.776)" opacity="0.3">
              <g id="Grupo_1177983" data-name="Grupo 1177983">
                <g id="Grupo_1177982" data-name="Grupo 1177982" clip-path="url(#clip-path-4)">
                  <path id="Trazado_995511" data-name="Trazado 995511" d="M1196.725,301.373a4.65,4.65,0,1,0,4.649-4.567,4.609,4.609,0,0,0-4.649,4.567" transform="translate(-1196.724 -296.806)" fill="#1f4766"/>
                </g>
              </g>
            </g>
            <rect id="Rectángulo_455081" data-name="Rectángulo 455081" width="12.191" height="21.641" transform="translate(66.767 23.878)" fill="#1f4766"/>
            <g id="Grupo_1177987" data-name="Grupo 1177987" transform="translate(66.767 23.878)" opacity="0.7">
              <g id="Grupo_1177986" data-name="Grupo 1177986">
                <g id="Grupo_1177985" data-name="Grupo 1177985" clip-path="url(#clip-path-5)">
                  <rect id="Rectángulo_455082" data-name="Rectángulo 455082" width="12.191" height="7.655" transform="translate(0 0)" fill="#193952"/>
                </g>
              </g>
            </g>
            <rect id="Rectángulo_455084" data-name="Rectángulo 455084" width="12.191" height="21.641" transform="translate(357.042 23.878)" fill="#1f4766"/>
            <g id="Grupo_1177990" data-name="Grupo 1177990" transform="translate(357.041 23.878)" opacity="0.7">
              <g id="Grupo_1177989" data-name="Grupo 1177989">
                <g id="Grupo_1177988" data-name="Grupo 1177988" clip-path="url(#clip-path-5)">
                  <rect id="Rectángulo_455085" data-name="Rectángulo 455085" width="12.191" height="7.655" transform="translate(0.001 0)" fill="#193952"/>
                </g>
              </g>
            </g>
            <path id="Trazado_995512" data-name="Trazado 995512" d="M360.857,226.93a8.7,8.7,0,1,0,8.7-8.544,8.622,8.622,0,0,0-8.7,8.544" transform="translate(-296.692 -179.554)" fill="#246b96"/>
            <path id="Trazado_995513" data-name="Trazado 995513" d="M1993.339,226.93a8.7,8.7,0,1,0,8.7-8.544,8.622,8.622,0,0,0-8.7,8.544" transform="translate(-1638.9 -179.554)" fill="#246b96"/>
            <path id="Trazado_995514" data-name="Trazado 995514" d="M383.625,245.318a4.65,4.65,0,1,0,4.649-4.567,4.609,4.609,0,0,0-4.649,4.567" transform="translate(-315.412 -197.943)" fill="#f2f2f2"/>
            <path id="Trazado_995515" data-name="Trazado 995515" d="M394.792,254.338a2.664,2.664,0,1,0,2.664-2.617,2.641,2.641,0,0,0-2.664,2.617" transform="translate(-324.593 -206.962)" fill="#ccc"/>
            <path id="Trazado_995516" data-name="Trazado 995516" d="M2016.106,245.318a4.65,4.65,0,1,0,4.649-4.567,4.609,4.609,0,0,0-4.649,4.567" transform="translate(-1657.618 -197.943)" fill="#f2f2f2"/>
            <path id="Trazado_995517" data-name="Trazado 995517" d="M2027.273,254.338a2.664,2.664,0,1,0,2.664-2.617,2.641,2.641,0,0,0-2.664,2.617" transform="translate(-1666.8 -206.962)" fill="#ccc"/>
          </g>
        </g>
        <g id="Grupo_1177994" data-name="Grupo 1177994">
          <g id="Grupo_1177993" data-name="Grupo 1177993" clip-path="url(#clip-path-7)">
            <rect id="Rectángulo_455088" data-name="Rectángulo 455088" width="146.053" height="31.63" transform="translate(-0.337 0.004) rotate(-0.644)" fill="url(#linear-gradient)"/>
          </g>
        </g>
        <g id="Grupo_1177996" data-name="Grupo 1177996" transform="translate(290.274)">
          <g id="Grupo_1177995" data-name="Grupo 1177995" clip-path="url(#clip-path-8)">
            <rect id="Rectángulo_455089" data-name="Rectángulo 455089" width="145.725" height="29.995" fill="url(#linear-gradient-2)"/>
          </g>
        </g>
        <g id="Grupo_1177998" data-name="Grupo 1177998">
          <g id="Grupo_1177997" data-name="Grupo 1177997" clip-path="url(#clip-path-2)">
            <path id="Trazado_995520" data-name="Trazado 995520" d="M1213.817,82.512h2.833a.844.844,0,0,0,.915-.791l-1.417-35.467a.935.935,0,0,0-1.829,0L1212.9,81.721a.844.844,0,0,0,.915.791" transform="translate(-997.234 -37.421)" fill="#1f4766"/>
            <path id="Trazado_995521" data-name="Trazado 995521" d="M1130.5,285.366l-17.593-68.976a1.066,1.066,0,0,0-1.038-.8h-17.719a1.066,1.066,0,0,0-1.037.8l-16.7,67.406Z" transform="translate(-885.012 -177.259)" fill="#246b96"/>
            <path id="Trazado_995522" data-name="Trazado 995522" d="M1209.164,297.913a4.65,4.65,0,1,1-4.649-4.567,4.609,4.609,0,0,1,4.649,4.567" transform="translate(-986.515 -241.186)" fill="#f2f2f2"/>
            <path id="Trazado_995523" data-name="Trazado 995523" d="M1216.36,306.933a2.664,2.664,0,1,1-2.664-2.617,2.641,2.641,0,0,1,2.664,2.617" transform="translate(-995.696 -250.205)" fill="#ccc"/>
            <path id="Trazado_995524" data-name="Trazado 995524" d="M1181.2,78.257c0-4.934,2.917-9.035,6.72-9.782l.234-4.011c.018-.313.467-.562,1.014-.562s1,.249,1.014.562l.234,4.011c3.8.747,6.721,4.848,6.721,9.782,0,4.436-2.358,8.2-5.6,9.457l.215,3.7c.019.329-.441.6-1.014.6H1187.6c-.574,0-1.033-.272-1.014-.6l.216-3.7c-3.24-1.257-5.6-5.021-5.6-9.457m7.968,8.131c3.4,0,6.164-3.648,6.164-8.131s-2.765-8.131-6.164-8.131S1183,73.773,1183,78.257s2.765,8.131,6.164,8.131" transform="translate(-971.168 -52.539)" fill="#246b96"/>
            <path id="Trazado_995525" data-name="Trazado 995525" d="M899.5,597.9h-180.2V590.64a8.967,8.967,0,0,1,8.967-8.967H890.537a8.967,8.967,0,0,1,8.967,8.967Z" transform="translate(-591.406 -478.245)" fill="#1f4766"/>
            <path id="Trazado_995526" data-name="Trazado 995526" d="M886.023,673.878H702.811a1.734,1.734,0,0,1,0-3.468H886.023a1.734,1.734,0,0,1,0,3.468" transform="translate(-576.417 -551.203)" fill="#246b96"/>
          </g>
        </g>
      </g>
    </g>
    <path id="Trazado_1005599" data-name="Trazado 1005599" d="M15.884,17H9.166V5.8h6.461V7.852H11.689v2.492h3.664v2.047H11.689v2.563h4.2Zm1.071-.211v-2a5.256,5.256,0,0,0,1.215.547,4.028,4.028,0,0,0,1.145.18,2.455,2.455,0,0,0,1.035-.18.581.581,0,0,0,.379-.547.506.506,0,0,0-.172-.391,1.6,1.6,0,0,0-.441-.273,5.009,5.009,0,0,0-.59-.211q-.32-.094-.617-.211a5.913,5.913,0,0,1-.84-.387,2.427,2.427,0,0,1-.609-.48,1.889,1.889,0,0,1-.375-.633,2.525,2.525,0,0,1-.129-.852,2.192,2.192,0,0,1,.293-1.156A2.393,2.393,0,0,1,18.03,9.4a3.57,3.57,0,0,1,1.117-.453A5.825,5.825,0,0,1,20.456,8.8a7.261,7.261,0,0,1,1.078.082,8.047,8.047,0,0,1,1.078.238v1.906a3.9,3.9,0,0,0-1-.41,4.235,4.235,0,0,0-1.051-.137,2.328,2.328,0,0,0-.457.043,1.505,1.505,0,0,0-.379.125.7.7,0,0,0-.258.211.486.486,0,0,0-.094.293.541.541,0,0,0,.141.375,1.221,1.221,0,0,0,.367.27,3.625,3.625,0,0,0,.5.2q.277.09.551.184a7.161,7.161,0,0,1,.891.375,2.848,2.848,0,0,1,.684.477,1.871,1.871,0,0,1,.438.641,2.563,2.563,0,0,1-.156,2.09,2.471,2.471,0,0,1-.82.82,3.72,3.72,0,0,1-1.18.461A6.54,6.54,0,0,1,19.4,17.2,7.149,7.149,0,0,1,16.956,16.789ZM36.739,17H34.278V12.555q0-1.859-1.328-1.859a1.318,1.318,0,0,0-1.055.492,1.875,1.875,0,0,0-.414,1.25V17H29.012V9h2.469v1.266h.031A2.829,2.829,0,0,1,34.083,8.8q2.656,0,2.656,3.3Zm9.181-3.3H40.7q.125,1.742,2.2,1.742a4.286,4.286,0,0,0,2.32-.625V16.6a6.1,6.1,0,0,1-2.883.594,4.058,4.058,0,0,1-3.008-1.074,4.058,4.058,0,0,1-1.07-3,4.281,4.281,0,0,1,1.156-3.156A3.852,3.852,0,0,1,42.255,8.8a3.5,3.5,0,0,1,2.707,1.039,4,4,0,0,1,.957,2.82ZM43.63,12.188q0-1.719-1.391-1.719a1.328,1.328,0,0,0-1.027.492,2.234,2.234,0,0,0-.527,1.227Zm9.86,4.523a4.881,4.881,0,0,1-2.414.484,4.083,4.083,0,0,1-2.984-1.117A3.859,3.859,0,0,1,46.952,13.2,4.251,4.251,0,0,1,48.174,9.98,4.518,4.518,0,0,1,51.444,8.8a4.2,4.2,0,0,1,2.047.375v2.094a2.814,2.814,0,0,0-1.727-.578,2.275,2.275,0,0,0-1.684.621,2.317,2.317,0,0,0-.621,1.715,2.28,2.28,0,0,0,.594,1.668,2.182,2.182,0,0,0,1.633.605,3.258,3.258,0,0,0,1.8-.578ZM62.335,13.7H57.117q.125,1.742,2.2,1.742a4.286,4.286,0,0,0,2.32-.625V16.6a6.1,6.1,0,0,1-2.883.594,4.058,4.058,0,0,1-3.008-1.074,4.058,4.058,0,0,1-1.07-3,4.281,4.281,0,0,1,1.156-3.156A3.852,3.852,0,0,1,58.671,8.8a3.5,3.5,0,0,1,2.707,1.039,4,4,0,0,1,.957,2.82Zm-2.289-1.516q0-1.719-1.391-1.719a1.328,1.328,0,0,0-1.027.492,2.234,2.234,0,0,0-.527,1.227Zm3.274,4.6v-2a5.256,5.256,0,0,0,1.215.547,4.028,4.028,0,0,0,1.145.18,2.455,2.455,0,0,0,1.035-.18.581.581,0,0,0,.379-.547.506.506,0,0,0-.172-.391,1.6,1.6,0,0,0-.441-.273,5.009,5.009,0,0,0-.59-.211q-.32-.094-.617-.211a5.913,5.913,0,0,1-.84-.387,2.427,2.427,0,0,1-.609-.48,1.889,1.889,0,0,1-.375-.633,2.525,2.525,0,0,1-.129-.852,2.192,2.192,0,0,1,.293-1.156,2.393,2.393,0,0,1,.781-.793,3.57,3.57,0,0,1,1.117-.453A5.825,5.825,0,0,1,66.821,8.8a7.261,7.261,0,0,1,1.078.082,8.047,8.047,0,0,1,1.078.238v1.906a3.9,3.9,0,0,0-1-.41,4.235,4.235,0,0,0-1.051-.137,2.328,2.328,0,0,0-.457.043,1.505,1.505,0,0,0-.379.125.7.7,0,0,0-.258.211.486.486,0,0,0-.094.293.541.541,0,0,0,.141.375,1.221,1.221,0,0,0,.367.27,3.625,3.625,0,0,0,.5.2q.277.09.551.184a7.161,7.161,0,0,1,.891.375,2.848,2.848,0,0,1,.684.477,1.872,1.872,0,0,1,.438.641,2.563,2.563,0,0,1-.156,2.09,2.471,2.471,0,0,1-.82.82,3.72,3.72,0,0,1-1.18.461,6.54,6.54,0,0,1-1.387.145A7.149,7.149,0,0,1,63.321,16.789ZM77.579,17H75.243V15.852h-.031A2.607,2.607,0,0,1,72.829,17.2,2.492,2.492,0,0,1,71,16.535a2.366,2.366,0,0,1-.668-1.762q0-2.328,2.758-2.687l2.172-.289q0-1.312-1.422-1.312a4.853,4.853,0,0,0-2.719.852V9.477a6.116,6.116,0,0,1,1.41-.469,7.413,7.413,0,0,1,1.629-.2q3.422,0,3.422,3.414Zm-2.32-3.25v-.539l-1.453.188q-1.2.156-1.2,1.086a.9.9,0,0,0,.293.691,1.126,1.126,0,0,0,.793.27,1.462,1.462,0,0,0,1.133-.48A1.735,1.735,0,0,0,75.259,13.75Zm9.532-2.523a2.141,2.141,0,0,0-1.039-.242,1.5,1.5,0,0,0-1.258.59,2.573,2.573,0,0,0-.453,1.605V17H79.573V9h2.469v1.484h.031a2.136,2.136,0,0,1,2.109-1.625,1.59,1.59,0,0,1,.609.094Zm2.5-3.492a1.442,1.442,0,0,1-1.023-.371,1.2,1.2,0,0,1-.4-.91,1.153,1.153,0,0,1,.4-.906,1.671,1.671,0,0,1,2.051,0,1.158,1.158,0,0,1,.395.906,1.191,1.191,0,0,1-.395.922A1.466,1.466,0,0,1,87.292,7.734ZM88.511,17H86.042V9h2.469Zm5.931.2A4.3,4.3,0,0,1,91.3,16.074a4.064,4.064,0,0,1-1.145-3.043A4.065,4.065,0,0,1,91.34,9.926,4.487,4.487,0,0,1,94.551,8.8a4.249,4.249,0,0,1,3.125,1.121,3.985,3.985,0,0,1,1.133,2.965,4.23,4.23,0,0,1-1.168,3.148A4.348,4.348,0,0,1,94.442,17.2Zm.063-6.5a1.647,1.647,0,0,0-1.359.6A2.653,2.653,0,0,0,92.66,13q0,2.3,1.859,2.3,1.773,0,1.773-2.367Q96.293,10.7,94.5,10.7ZM111.561,17h-2.336V15.852h-.031a2.607,2.607,0,0,1-2.383,1.344,2.492,2.492,0,0,1-1.832-.66,2.366,2.366,0,0,1-.668-1.762q0-2.328,2.758-2.687l2.172-.289q0-1.312-1.422-1.312a4.853,4.853,0,0,0-2.719.852V9.477a6.116,6.116,0,0,1,1.41-.469,7.413,7.413,0,0,1,1.629-.2q3.422,0,3.422,3.414Zm-2.32-3.25v-.539l-1.453.188q-1.2.156-1.2,1.086a.9.9,0,0,0,.293.691,1.126,1.126,0,0,0,.793.27,1.462,1.462,0,0,0,1.133-.48A1.735,1.735,0,0,0,109.24,13.75Zm9.532-2.523a2.141,2.141,0,0,0-1.039-.242,1.5,1.5,0,0,0-1.258.59,2.573,2.573,0,0,0-.453,1.605V17h-2.469V9h2.469v1.484h.031a2.136,2.136,0,0,1,2.109-1.625,1.59,1.59,0,0,1,.609.094Zm6.407,0a2.141,2.141,0,0,0-1.039-.242,1.5,1.5,0,0,0-1.258.59,2.573,2.573,0,0,0-.453,1.605V17h-2.469V9h2.469v1.484h.031a2.136,2.136,0,0,1,2.109-1.625,1.59,1.59,0,0,1,.609.094Zm8.313,2.477h-5.219q.125,1.742,2.2,1.742a4.286,4.286,0,0,0,2.32-.625V16.6a6.1,6.1,0,0,1-2.883.594,4.058,4.058,0,0,1-3.008-1.074,4.058,4.058,0,0,1-1.07-3,4.281,4.281,0,0,1,1.156-3.156A3.852,3.852,0,0,1,129.829,8.8a3.5,3.5,0,0,1,2.707,1.039,4,4,0,0,1,.957,2.82ZM131.2,12.188q0-1.719-1.391-1.719a1.328,1.328,0,0,0-1.027.492,2.234,2.234,0,0,0-.527,1.227Zm11.642,3.9a4.526,4.526,0,0,1-1.289,3.449,5.224,5.224,0,0,1-3.734,1.223,5.919,5.919,0,0,1-2.562-.461V18.219a4.907,4.907,0,0,0,2.492.719,2.684,2.684,0,0,0,1.938-.66,2.369,2.369,0,0,0,.688-1.793v-.633h-.031a2.757,2.757,0,0,1-2.492,1.344,3,3,0,0,1-2.43-1.078,4.372,4.372,0,0,1-.9-2.891,4.87,4.87,0,0,1,1-3.227,3.265,3.265,0,0,1,2.633-1.2,2.429,2.429,0,0,1,2.188,1.125h.031V9h2.469Zm-2.437-2.93v-.633a1.945,1.945,0,0,0-.449-1.293,1.453,1.453,0,0,0-1.168-.535,1.51,1.51,0,0,0-1.289.641,3.012,3.012,0,0,0-.469,1.8,2.543,2.543,0,0,0,.445,1.582,1.451,1.451,0,0,0,1.219.582,1.511,1.511,0,0,0,1.238-.59A2.418,2.418,0,0,0,140.408,13.156ZM147.417,17h-2.469V5.156h2.469Zm8.774,0h-2.336V15.852h-.031a2.607,2.607,0,0,1-2.383,1.344,2.492,2.492,0,0,1-1.832-.66,2.366,2.366,0,0,1-.668-1.762q0-2.328,2.758-2.687l2.172-.289q0-1.312-1.422-1.312a4.853,4.853,0,0,0-2.719.852V9.477a6.116,6.116,0,0,1,1.41-.469,7.413,7.413,0,0,1,1.629-.2q3.422,0,3.422,3.414Zm-2.32-3.25v-.539l-1.453.188q-1.2.156-1.2,1.086a.9.9,0,0,0,.293.691,1.126,1.126,0,0,0,.793.27,1.462,1.462,0,0,0,1.133-.48A1.735,1.735,0,0,0,153.871,13.75Zm9.532-2.523a2.142,2.142,0,0,0-1.039-.242,1.5,1.5,0,0,0-1.258.59,2.573,2.573,0,0,0-.453,1.605V17h-2.469V9h2.469v1.484h.031a2.136,2.136,0,0,1,2.109-1.625,1.59,1.59,0,0,1,.609.094ZM24.062,37H21.593V25.156h2.469Zm8.774,0H30.5V35.852h-.031A2.607,2.607,0,0,1,28.086,37.2a2.492,2.492,0,0,1-1.832-.66,2.366,2.366,0,0,1-.668-1.762q0-2.328,2.758-2.687l2.172-.289q0-1.312-1.422-1.312a4.853,4.853,0,0,0-2.719.852V29.477a6.116,6.116,0,0,1,1.41-.469,7.413,7.413,0,0,1,1.629-.2q3.422,0,3.422,3.414Zm-2.32-3.25v-.539l-1.453.188q-1.2.156-1.2,1.086a.9.9,0,0,0,.293.691,1.126,1.126,0,0,0,.793.27,1.462,1.462,0,0,0,1.133-.48A1.735,1.735,0,0,0,30.516,33.75Zm14.83,2.961a4.881,4.881,0,0,1-2.414.484,4.083,4.083,0,0,1-2.984-1.117A3.859,3.859,0,0,1,38.807,33.2a4.251,4.251,0,0,1,1.223-3.215A4.518,4.518,0,0,1,43.3,28.8a4.2,4.2,0,0,1,2.047.375v2.094a2.814,2.814,0,0,0-1.727-.578,2.275,2.275,0,0,0-1.684.621,2.317,2.317,0,0,0-.621,1.715,2.28,2.28,0,0,0,.594,1.668,2.182,2.182,0,0,0,1.633.605,3.258,3.258,0,0,0,1.8-.578ZM54.6,37H52.143V35.781H52.1A2.792,2.792,0,0,1,49.659,37.2q-2.781,0-2.781-3.367V29h2.461v4.609q0,1.7,1.344,1.7a1.329,1.329,0,0,0,1.063-.465,1.874,1.874,0,0,0,.4-1.262V29H54.6Zm9.306-3.3H58.691q.125,1.742,2.2,1.742a4.286,4.286,0,0,0,2.32-.625V36.6a6.1,6.1,0,0,1-2.883.594,3.724,3.724,0,0,1-4.078-4.07A4.281,4.281,0,0,1,57.4,29.969,3.852,3.852,0,0,1,60.246,28.8a3.5,3.5,0,0,1,2.707,1.039,4,4,0,0,1,.957,2.82Zm-2.289-1.516q0-1.719-1.391-1.719a1.328,1.328,0,0,0-1.027.492,2.234,2.234,0,0,0-.527,1.227Zm3.274,4.6v-2a5.256,5.256,0,0,0,1.215.547,4.028,4.028,0,0,0,1.145.18,2.455,2.455,0,0,0,1.035-.18.581.581,0,0,0,.379-.547A.506.506,0,0,0,68.5,34.4a1.6,1.6,0,0,0-.441-.273,5.009,5.009,0,0,0-.59-.211q-.32-.094-.617-.211a5.914,5.914,0,0,1-.84-.387,2.427,2.427,0,0,1-.609-.48,1.889,1.889,0,0,1-.375-.633,2.525,2.525,0,0,1-.129-.852,2.192,2.192,0,0,1,.293-1.156,2.393,2.393,0,0,1,.781-.793,3.57,3.57,0,0,1,1.117-.453A5.825,5.825,0,0,1,68.4,28.8a7.261,7.261,0,0,1,1.078.082,8.047,8.047,0,0,1,1.078.238v1.906a3.9,3.9,0,0,0-1-.41,4.235,4.235,0,0,0-1.051-.137,2.328,2.328,0,0,0-.457.043,1.505,1.505,0,0,0-.379.125.7.7,0,0,0-.258.211.486.486,0,0,0-.094.293.541.541,0,0,0,.141.375,1.221,1.221,0,0,0,.367.27,3.625,3.625,0,0,0,.5.2q.277.09.551.184a7.161,7.161,0,0,1,.891.375,2.848,2.848,0,0,1,.684.477,1.872,1.872,0,0,1,.438.641,2.563,2.563,0,0,1-.156,2.09,2.471,2.471,0,0,1-.82.82,3.72,3.72,0,0,1-1.18.461,6.54,6.54,0,0,1-1.387.145A7.149,7.149,0,0,1,64.9,36.789Zm12.438.117a3.649,3.649,0,0,1-1.648.289q-2.609,0-2.609-2.711V30.82h-1.3V29h1.3V27.273l2.461-.7V29h1.8v1.82h-1.8v3.234q0,1.25.992,1.25a1.673,1.673,0,0,0,.8-.227Zm2.681-9.172a1.442,1.442,0,0,1-1.023-.371,1.2,1.2,0,0,1-.4-.91,1.153,1.153,0,0,1,.4-.906,1.671,1.671,0,0,1,2.051,0,1.158,1.158,0,0,1,.395.906,1.191,1.191,0,0,1-.395.922A1.466,1.466,0,0,1,80.014,27.734ZM81.233,37H78.764V29h2.469Zm5.931.2a4.3,4.3,0,0,1-3.145-1.121,4.064,4.064,0,0,1-1.145-3.043,4.065,4.065,0,0,1,1.188-3.105A4.487,4.487,0,0,1,87.273,28.8,4.249,4.249,0,0,1,90.4,29.926a3.985,3.985,0,0,1,1.133,2.965,4.23,4.23,0,0,1-1.168,3.148A4.348,4.348,0,0,1,87.164,37.2Zm.063-6.5a1.647,1.647,0,0,0-1.359.6,2.653,2.653,0,0,0-.484,1.7q0,2.3,1.859,2.3,1.773,0,1.773-2.367Q89.015,30.7,87.226,30.7Zm2.648-5.484-2.445,2.523H85.648l2.031-2.523ZM100.891,37H98.43V32.555q0-1.859-1.328-1.859a1.318,1.318,0,0,0-1.055.492,1.875,1.875,0,0,0-.414,1.25V37H93.165V29h2.469v1.266h.031a2.829,2.829,0,0,1,2.57-1.461q2.656,0,2.656,3.3Zm14.275,0H112.7V35.9h-.031a2.768,2.768,0,0,1-2.477,1.3,3.033,3.033,0,0,1-2.414-1.059,4.382,4.382,0,0,1-.914-2.957A4.77,4.77,0,0,1,107.87,30a3.287,3.287,0,0,1,2.641-1.2,2.246,2.246,0,0,1,2.156,1.109h.031V25.156h2.469Zm-2.422-3.891v-.6a1.893,1.893,0,0,0-.453-1.3,1.6,1.6,0,0,0-2.461.129,2.993,2.993,0,0,0-.461,1.77,2.59,2.59,0,0,0,.445,1.625,1.581,1.581,0,0,0,2.457-.031A2.507,2.507,0,0,0,112.745,33.109Zm11.728.594h-5.219q.125,1.742,2.2,1.742a4.286,4.286,0,0,0,2.32-.625V36.6a6.1,6.1,0,0,1-2.883.594,3.724,3.724,0,0,1-4.078-4.07,4.281,4.281,0,0,1,1.156-3.156,3.852,3.852,0,0,1,2.844-1.164,3.5,3.5,0,0,1,2.707,1.039,4,4,0,0,1,.957,2.82Zm-2.289-1.516q0-1.719-1.391-1.719a1.328,1.328,0,0,0-1.027.492,2.234,2.234,0,0,0-.527,1.227ZM132.9,37h-2.469V25.156H132.9Zm5.931.2a4.3,4.3,0,0,1-3.145-1.121,4.064,4.064,0,0,1-1.145-3.043,4.065,4.065,0,0,1,1.188-3.105,4.487,4.487,0,0,1,3.211-1.121,4.249,4.249,0,0,1,3.125,1.121,3.985,3.985,0,0,1,1.133,2.965,4.23,4.23,0,0,1-1.168,3.148A4.348,4.348,0,0,1,138.834,37.2Zm.063-6.5a1.647,1.647,0,0,0-1.359.6,2.653,2.653,0,0,0-.484,1.7q0,2.3,1.859,2.3,1.773,0,1.773-2.367Q140.686,30.7,138.9,30.7Zm5.423,6.094v-2a5.256,5.256,0,0,0,1.215.547,4.028,4.028,0,0,0,1.145.18,2.455,2.455,0,0,0,1.035-.18.581.581,0,0,0,.379-.547.506.506,0,0,0-.172-.391,1.6,1.6,0,0,0-.441-.273,5.009,5.009,0,0,0-.59-.211q-.32-.094-.617-.211a5.914,5.914,0,0,1-.84-.387,2.427,2.427,0,0,1-.609-.48,1.889,1.889,0,0,1-.375-.633,2.525,2.525,0,0,1-.129-.852,2.192,2.192,0,0,1,.293-1.156,2.393,2.393,0,0,1,.781-.793,3.57,3.57,0,0,1,1.117-.453,5.825,5.825,0,0,1,1.309-.145,7.261,7.261,0,0,1,1.078.082,8.047,8.047,0,0,1,1.078.238v1.906a3.9,3.9,0,0,0-1-.41,4.235,4.235,0,0,0-1.051-.137,2.328,2.328,0,0,0-.457.043,1.505,1.505,0,0,0-.379.125.7.7,0,0,0-.258.211.486.486,0,0,0-.094.293.541.541,0,0,0,.141.375,1.221,1.221,0,0,0,.367.27,3.625,3.625,0,0,0,.5.2q.277.09.551.184a7.161,7.161,0,0,1,.891.375,2.848,2.848,0,0,1,.684.477,1.871,1.871,0,0,1,.438.641,2.563,2.563,0,0,1-.156,2.09,2.471,2.471,0,0,1-.82.82,3.72,3.72,0,0,1-1.18.461,6.54,6.54,0,0,1-1.387.145A7.149,7.149,0,0,1,144.32,36.789ZM64.039,53.7H58.821q.125,1.742,2.2,1.742a4.286,4.286,0,0,0,2.32-.625V56.6a6.1,6.1,0,0,1-2.883.594,3.724,3.724,0,0,1-4.078-4.07,4.281,4.281,0,0,1,1.156-3.156A3.852,3.852,0,0,1,60.375,48.8a3.5,3.5,0,0,1,2.707,1.039,4,4,0,0,1,.957,2.82ZM61.75,52.188q0-1.719-1.391-1.719a1.328,1.328,0,0,0-1.027.492,2.234,2.234,0,0,0-.527,1.227ZM73.376,60.68H70.908V55.9h-.031a2.742,2.742,0,0,1-2.461,1.3,3.064,3.064,0,0,1-2.426-1.051,4.339,4.339,0,0,1-.918-2.949A4.794,4.794,0,0,1,66.079,50,3.271,3.271,0,0,1,68.7,48.8a2.381,2.381,0,0,1,2.172,1.125h.031V49h2.469Zm-2.422-7.5v-.641a1.952,1.952,0,0,0-.453-1.312,1.46,1.46,0,0,0-1.164-.531,1.507,1.507,0,0,0-1.289.645,2.986,2.986,0,0,0-.469,1.785,2.52,2.52,0,0,0,.457,1.6,1.448,1.448,0,0,0,1.191.578,1.53,1.53,0,0,0,1.254-.586A2.376,2.376,0,0,0,70.954,53.18ZM83.1,57H80.635V55.781H80.6A2.792,2.792,0,0,1,78.151,57.2q-2.781,0-2.781-3.367V49H77.83v4.609q0,1.7,1.344,1.7a1.329,1.329,0,0,0,1.063-.465,1.874,1.874,0,0,0,.4-1.262V49H83.1Zm3.368-9.266a1.442,1.442,0,0,1-1.023-.371,1.2,1.2,0,0,1-.4-.91,1.153,1.153,0,0,1,.4-.906,1.671,1.671,0,0,1,2.051,0,1.158,1.158,0,0,1,.395.906,1.191,1.191,0,0,1-.395.922A1.466,1.466,0,0,1,86.464,47.734ZM87.683,57H85.214V49h2.469Zm4.618-.93H92.27V60.68H89.8V49H92.27v1.2H92.3a3.142,3.142,0,0,1,4.973-.332,4.54,4.54,0,0,1,.848,2.9,4.922,4.922,0,0,1-.988,3.211A3.222,3.222,0,0,1,94.5,57.2,2.491,2.491,0,0,1,92.3,56.07Zm-.07-3.281v.641a2.037,2.037,0,0,0,.438,1.352,1.424,1.424,0,0,0,1.148.523,1.514,1.514,0,0,0,1.309-.652A3.15,3.15,0,0,0,95.59,52.8q0-2.109-1.641-2.109a1.541,1.541,0,0,0-1.238.574A2.29,2.29,0,0,0,92.231,52.789ZM103.575,57.2a4.3,4.3,0,0,1-3.145-1.121,4.636,4.636,0,0,1,.043-6.148,4.487,4.487,0,0,1,3.211-1.121,4.249,4.249,0,0,1,3.125,1.121,3.985,3.985,0,0,1,1.133,2.965,4.23,4.23,0,0,1-1.168,3.148A4.348,4.348,0,0,1,103.575,57.2Zm.063-6.5a1.647,1.647,0,0,0-1.359.6,2.653,2.653,0,0,0-.484,1.7q0,2.3,1.859,2.3,1.773,0,1.773-2.367Q105.427,50.7,103.638,50.7Zm5.423,6.094v-2a5.256,5.256,0,0,0,1.215.547,4.028,4.028,0,0,0,1.145.18,2.455,2.455,0,0,0,1.035-.18.581.581,0,0,0,.379-.547.506.506,0,0,0-.172-.391,1.6,1.6,0,0,0-.441-.273,5.009,5.009,0,0,0-.59-.211q-.32-.094-.617-.211a5.914,5.914,0,0,1-.84-.387,2.427,2.427,0,0,1-.609-.48,1.889,1.889,0,0,1-.375-.633,2.525,2.525,0,0,1-.129-.852,2.192,2.192,0,0,1,.293-1.156,2.393,2.393,0,0,1,.781-.793,3.57,3.57,0,0,1,1.117-.453,5.825,5.825,0,0,1,1.309-.145,7.261,7.261,0,0,1,1.078.082,8.046,8.046,0,0,1,1.078.238v1.906a3.9,3.9,0,0,0-1-.41,4.235,4.235,0,0,0-1.051-.137,2.328,2.328,0,0,0-.457.043,1.505,1.505,0,0,0-.379.125.7.7,0,0,0-.258.211.486.486,0,0,0-.094.293.541.541,0,0,0,.141.375,1.221,1.221,0,0,0,.367.27,3.625,3.625,0,0,0,.5.2q.277.09.551.184a7.161,7.161,0,0,1,.891.375,2.848,2.848,0,0,1,.684.477,1.872,1.872,0,0,1,.438.641,2.563,2.563,0,0,1-.156,2.09,2.471,2.471,0,0,1-.82.82,3.72,3.72,0,0,1-1.18.461,6.54,6.54,0,0,1-1.387.145A7.149,7.149,0,0,1,109.061,56.789Z" transform="translate(567.954 2242.711)" fill="#12263f"/>
    <path id="Trazado_1005600" data-name="Trazado 1005600" d="M15.884,17H9.166V5.8h6.461V7.852H11.689v2.492h3.664v2.047H11.689v2.563h4.2Zm1.071-.211v-2a5.256,5.256,0,0,0,1.215.547,4.028,4.028,0,0,0,1.145.18,2.455,2.455,0,0,0,1.035-.18.581.581,0,0,0,.379-.547.506.506,0,0,0-.172-.391,1.6,1.6,0,0,0-.441-.273,5.009,5.009,0,0,0-.59-.211q-.32-.094-.617-.211a5.913,5.913,0,0,1-.84-.387,2.427,2.427,0,0,1-.609-.48,1.889,1.889,0,0,1-.375-.633,2.525,2.525,0,0,1-.129-.852,2.192,2.192,0,0,1,.293-1.156A2.393,2.393,0,0,1,18.03,9.4a3.57,3.57,0,0,1,1.117-.453A5.825,5.825,0,0,1,20.456,8.8a7.261,7.261,0,0,1,1.078.082,8.047,8.047,0,0,1,1.078.238v1.906a3.9,3.9,0,0,0-1-.41,4.235,4.235,0,0,0-1.051-.137,2.328,2.328,0,0,0-.457.043,1.505,1.505,0,0,0-.379.125.7.7,0,0,0-.258.211.486.486,0,0,0-.094.293.541.541,0,0,0,.141.375,1.221,1.221,0,0,0,.367.27,3.625,3.625,0,0,0,.5.2q.277.09.551.184a7.161,7.161,0,0,1,.891.375,2.848,2.848,0,0,1,.684.477,1.871,1.871,0,0,1,.438.641,2.563,2.563,0,0,1-.156,2.09,2.471,2.471,0,0,1-.82.82,3.72,3.72,0,0,1-1.18.461A6.54,6.54,0,0,1,19.4,17.2,7.149,7.149,0,0,1,16.956,16.789ZM36.739,17H34.278V12.555q0-1.859-1.328-1.859a1.318,1.318,0,0,0-1.055.492,1.875,1.875,0,0,0-.414,1.25V17H29.012V9h2.469v1.266h.031A2.829,2.829,0,0,1,34.083,8.8q2.656,0,2.656,3.3Zm9.181-3.3H40.7q.125,1.742,2.2,1.742a4.286,4.286,0,0,0,2.32-.625V16.6a6.1,6.1,0,0,1-2.883.594,4.058,4.058,0,0,1-3.008-1.074,4.058,4.058,0,0,1-1.07-3,4.281,4.281,0,0,1,1.156-3.156A3.852,3.852,0,0,1,42.255,8.8a3.5,3.5,0,0,1,2.707,1.039,4,4,0,0,1,.957,2.82ZM43.63,12.188q0-1.719-1.391-1.719a1.328,1.328,0,0,0-1.027.492,2.234,2.234,0,0,0-.527,1.227Zm9.86,4.523a4.881,4.881,0,0,1-2.414.484,4.083,4.083,0,0,1-2.984-1.117A3.859,3.859,0,0,1,46.952,13.2,4.251,4.251,0,0,1,48.174,9.98,4.518,4.518,0,0,1,51.444,8.8a4.2,4.2,0,0,1,2.047.375v2.094a2.814,2.814,0,0,0-1.727-.578,2.275,2.275,0,0,0-1.684.621,2.317,2.317,0,0,0-.621,1.715,2.28,2.28,0,0,0,.594,1.668,2.182,2.182,0,0,0,1.633.605,3.258,3.258,0,0,0,1.8-.578ZM62.335,13.7H57.117q.125,1.742,2.2,1.742a4.286,4.286,0,0,0,2.32-.625V16.6a6.1,6.1,0,0,1-2.883.594,4.058,4.058,0,0,1-3.008-1.074,4.058,4.058,0,0,1-1.07-3,4.281,4.281,0,0,1,1.156-3.156A3.852,3.852,0,0,1,58.671,8.8a3.5,3.5,0,0,1,2.707,1.039,4,4,0,0,1,.957,2.82Zm-2.289-1.516q0-1.719-1.391-1.719a1.328,1.328,0,0,0-1.027.492,2.234,2.234,0,0,0-.527,1.227Zm3.274,4.6v-2a5.256,5.256,0,0,0,1.215.547,4.028,4.028,0,0,0,1.145.18,2.455,2.455,0,0,0,1.035-.18.581.581,0,0,0,.379-.547.506.506,0,0,0-.172-.391,1.6,1.6,0,0,0-.441-.273,5.009,5.009,0,0,0-.59-.211q-.32-.094-.617-.211a5.913,5.913,0,0,1-.84-.387,2.427,2.427,0,0,1-.609-.48,1.889,1.889,0,0,1-.375-.633,2.525,2.525,0,0,1-.129-.852,2.192,2.192,0,0,1,.293-1.156,2.393,2.393,0,0,1,.781-.793,3.57,3.57,0,0,1,1.117-.453A5.825,5.825,0,0,1,66.821,8.8a7.261,7.261,0,0,1,1.078.082,8.047,8.047,0,0,1,1.078.238v1.906a3.9,3.9,0,0,0-1-.41,4.235,4.235,0,0,0-1.051-.137,2.328,2.328,0,0,0-.457.043,1.505,1.505,0,0,0-.379.125.7.7,0,0,0-.258.211.486.486,0,0,0-.094.293.541.541,0,0,0,.141.375,1.221,1.221,0,0,0,.367.27,3.625,3.625,0,0,0,.5.2q.277.09.551.184a7.161,7.161,0,0,1,.891.375,2.848,2.848,0,0,1,.684.477,1.872,1.872,0,0,1,.438.641,2.563,2.563,0,0,1-.156,2.09,2.471,2.471,0,0,1-.82.82,3.72,3.72,0,0,1-1.18.461,6.54,6.54,0,0,1-1.387.145A7.149,7.149,0,0,1,63.321,16.789ZM77.579,17H75.243V15.852h-.031A2.607,2.607,0,0,1,72.829,17.2,2.492,2.492,0,0,1,71,16.535a2.366,2.366,0,0,1-.668-1.762q0-2.328,2.758-2.687l2.172-.289q0-1.312-1.422-1.312a4.853,4.853,0,0,0-2.719.852V9.477a6.116,6.116,0,0,1,1.41-.469,7.413,7.413,0,0,1,1.629-.2q3.422,0,3.422,3.414Zm-2.32-3.25v-.539l-1.453.188q-1.2.156-1.2,1.086a.9.9,0,0,0,.293.691,1.126,1.126,0,0,0,.793.27,1.462,1.462,0,0,0,1.133-.48A1.735,1.735,0,0,0,75.259,13.75Zm9.532-2.523a2.141,2.141,0,0,0-1.039-.242,1.5,1.5,0,0,0-1.258.59,2.573,2.573,0,0,0-.453,1.605V17H79.573V9h2.469v1.484h.031a2.136,2.136,0,0,1,2.109-1.625,1.59,1.59,0,0,1,.609.094Zm2.5-3.492a1.442,1.442,0,0,1-1.023-.371,1.2,1.2,0,0,1-.4-.91,1.153,1.153,0,0,1,.4-.906,1.671,1.671,0,0,1,2.051,0,1.158,1.158,0,0,1,.395.906,1.191,1.191,0,0,1-.395.922A1.466,1.466,0,0,1,87.292,7.734ZM88.511,17H86.042V9h2.469Zm5.931.2A4.3,4.3,0,0,1,91.3,16.074a4.064,4.064,0,0,1-1.145-3.043A4.065,4.065,0,0,1,91.34,9.926,4.487,4.487,0,0,1,94.551,8.8a4.249,4.249,0,0,1,3.125,1.121,3.985,3.985,0,0,1,1.133,2.965,4.23,4.23,0,0,1-1.168,3.148A4.348,4.348,0,0,1,94.442,17.2Zm.063-6.5a1.647,1.647,0,0,0-1.359.6A2.653,2.653,0,0,0,92.66,13q0,2.3,1.859,2.3,1.773,0,1.773-2.367Q96.293,10.7,94.5,10.7ZM111.561,17h-2.336V15.852h-.031a2.607,2.607,0,0,1-2.383,1.344,2.492,2.492,0,0,1-1.832-.66,2.366,2.366,0,0,1-.668-1.762q0-2.328,2.758-2.687l2.172-.289q0-1.312-1.422-1.312a4.853,4.853,0,0,0-2.719.852V9.477a6.116,6.116,0,0,1,1.41-.469,7.413,7.413,0,0,1,1.629-.2q3.422,0,3.422,3.414Zm-2.32-3.25v-.539l-1.453.188q-1.2.156-1.2,1.086a.9.9,0,0,0,.293.691,1.126,1.126,0,0,0,.793.27,1.462,1.462,0,0,0,1.133-.48A1.735,1.735,0,0,0,109.24,13.75Zm9.532-2.523a2.141,2.141,0,0,0-1.039-.242,1.5,1.5,0,0,0-1.258.59,2.573,2.573,0,0,0-.453,1.605V17h-2.469V9h2.469v1.484h.031a2.136,2.136,0,0,1,2.109-1.625,1.59,1.59,0,0,1,.609.094Zm6.407,0a2.141,2.141,0,0,0-1.039-.242,1.5,1.5,0,0,0-1.258.59,2.573,2.573,0,0,0-.453,1.605V17h-2.469V9h2.469v1.484h.031a2.136,2.136,0,0,1,2.109-1.625,1.59,1.59,0,0,1,.609.094Zm8.313,2.477h-5.219q.125,1.742,2.2,1.742a4.286,4.286,0,0,0,2.32-.625V16.6a6.1,6.1,0,0,1-2.883.594,4.058,4.058,0,0,1-3.008-1.074,4.058,4.058,0,0,1-1.07-3,4.281,4.281,0,0,1,1.156-3.156A3.852,3.852,0,0,1,129.829,8.8a3.5,3.5,0,0,1,2.707,1.039,4,4,0,0,1,.957,2.82ZM131.2,12.188q0-1.719-1.391-1.719a1.328,1.328,0,0,0-1.027.492,2.234,2.234,0,0,0-.527,1.227Zm11.642,3.9a4.526,4.526,0,0,1-1.289,3.449,5.224,5.224,0,0,1-3.734,1.223,5.919,5.919,0,0,1-2.562-.461V18.219a4.907,4.907,0,0,0,2.492.719,2.684,2.684,0,0,0,1.938-.66,2.369,2.369,0,0,0,.688-1.793v-.633h-.031a2.757,2.757,0,0,1-2.492,1.344,3,3,0,0,1-2.43-1.078,4.372,4.372,0,0,1-.9-2.891,4.87,4.87,0,0,1,1-3.227,3.265,3.265,0,0,1,2.633-1.2,2.429,2.429,0,0,1,2.188,1.125h.031V9h2.469Zm-2.437-2.93v-.633a1.945,1.945,0,0,0-.449-1.293,1.453,1.453,0,0,0-1.168-.535,1.51,1.51,0,0,0-1.289.641,3.012,3.012,0,0,0-.469,1.8,2.543,2.543,0,0,0,.445,1.582,1.451,1.451,0,0,0,1.219.582,1.511,1.511,0,0,0,1.238-.59A2.418,2.418,0,0,0,140.408,13.156ZM147.417,17h-2.469V5.156h2.469Zm8.774,0h-2.336V15.852h-.031a2.607,2.607,0,0,1-2.383,1.344,2.492,2.492,0,0,1-1.832-.66,2.366,2.366,0,0,1-.668-1.762q0-2.328,2.758-2.687l2.172-.289q0-1.312-1.422-1.312a4.853,4.853,0,0,0-2.719.852V9.477a6.116,6.116,0,0,1,1.41-.469,7.413,7.413,0,0,1,1.629-.2q3.422,0,3.422,3.414Zm-2.32-3.25v-.539l-1.453.188q-1.2.156-1.2,1.086a.9.9,0,0,0,.293.691,1.126,1.126,0,0,0,.793.27,1.462,1.462,0,0,0,1.133-.48A1.735,1.735,0,0,0,153.871,13.75Zm9.532-2.523a2.142,2.142,0,0,0-1.039-.242,1.5,1.5,0,0,0-1.258.59,2.573,2.573,0,0,0-.453,1.605V17h-2.469V9h2.469v1.484h.031a2.136,2.136,0,0,1,2.109-1.625,1.59,1.59,0,0,1,.609.094ZM10.029,37H7.561V25.156h2.469Zm5.931.2a4.3,4.3,0,0,1-3.145-1.121,4.064,4.064,0,0,1-1.145-3.043,4.065,4.065,0,0,1,1.188-3.105A4.487,4.487,0,0,1,16.069,28.8a4.249,4.249,0,0,1,3.125,1.121,3.985,3.985,0,0,1,1.133,2.965,4.23,4.23,0,0,1-1.168,3.148A4.348,4.348,0,0,1,15.96,37.2Zm.063-6.5a1.647,1.647,0,0,0-1.359.6,2.653,2.653,0,0,0-.484,1.7q0,2.3,1.859,2.3,1.773,0,1.773-2.367Q17.812,30.7,16.023,30.7Zm5.423,6.094v-2a5.256,5.256,0,0,0,1.215.547,4.028,4.028,0,0,0,1.145.18,2.455,2.455,0,0,0,1.035-.18.581.581,0,0,0,.379-.547.506.506,0,0,0-.172-.391,1.6,1.6,0,0,0-.441-.273,5.009,5.009,0,0,0-.59-.211q-.32-.094-.617-.211a5.914,5.914,0,0,1-.84-.387,2.427,2.427,0,0,1-.609-.48,1.889,1.889,0,0,1-.375-.633,2.525,2.525,0,0,1-.129-.852,2.192,2.192,0,0,1,.293-1.156,2.393,2.393,0,0,1,.781-.793,3.57,3.57,0,0,1,1.117-.453,5.825,5.825,0,0,1,1.309-.145,7.261,7.261,0,0,1,1.078.082,8.047,8.047,0,0,1,1.078.238v1.906a3.9,3.9,0,0,0-1-.41,4.235,4.235,0,0,0-1.051-.137,2.328,2.328,0,0,0-.457.043,1.505,1.505,0,0,0-.379.125.7.7,0,0,0-.258.211.486.486,0,0,0-.094.293.541.541,0,0,0,.141.375,1.221,1.221,0,0,0,.367.27,3.625,3.625,0,0,0,.5.2q.277.09.551.184a7.161,7.161,0,0,1,.891.375,2.848,2.848,0,0,1,.684.477,1.872,1.872,0,0,1,.438.641,2.563,2.563,0,0,1-.156,2.09,2.471,2.471,0,0,1-.82.82,3.72,3.72,0,0,1-1.18.461,6.54,6.54,0,0,1-1.387.145A7.149,7.149,0,0,1,21.445,36.789ZM40.689,33.7H35.471q.125,1.742,2.2,1.742a4.286,4.286,0,0,0,2.32-.625V36.6A6.1,6.1,0,0,1,37.1,37.2a3.724,3.724,0,0,1-4.078-4.07,4.281,4.281,0,0,1,1.156-3.156A3.852,3.852,0,0,1,37.025,28.8a3.5,3.5,0,0,1,2.707,1.039,4,4,0,0,1,.957,2.82ZM38.4,32.188q0-1.719-1.391-1.719a1.328,1.328,0,0,0-1.027.492,2.234,2.234,0,0,0-.527,1.227ZM50.026,40.68H47.558V35.9h-.031a2.742,2.742,0,0,1-2.461,1.3,3.064,3.064,0,0,1-2.426-1.051,4.339,4.339,0,0,1-.918-2.949A4.794,4.794,0,0,1,42.729,30a3.271,3.271,0,0,1,2.625-1.2,2.381,2.381,0,0,1,2.172,1.125h.031V29h2.469ZM47.6,33.18v-.641a1.952,1.952,0,0,0-.453-1.312,1.46,1.46,0,0,0-1.164-.531,1.507,1.507,0,0,0-1.289.645,2.986,2.986,0,0,0-.469,1.785,2.52,2.52,0,0,0,.457,1.6,1.448,1.448,0,0,0,1.191.578,1.53,1.53,0,0,0,1.254-.586A2.376,2.376,0,0,0,47.6,33.18ZM59.746,37H57.285V35.781h-.039A2.792,2.792,0,0,1,54.8,37.2q-2.781,0-2.781-3.367V29H54.48v4.609q0,1.7,1.344,1.7a1.329,1.329,0,0,0,1.063-.465,1.874,1.874,0,0,0,.4-1.262V29h2.461Zm3.368-9.266a1.442,1.442,0,0,1-1.023-.371,1.2,1.2,0,0,1-.4-.91,1.153,1.153,0,0,1,.4-.906,1.671,1.671,0,0,1,2.051,0,1.158,1.158,0,0,1,.395.906,1.191,1.191,0,0,1-.395.922A1.466,1.466,0,0,1,63.114,27.734ZM64.333,37H61.864V29h2.469Zm4.618-.93H68.92V40.68H66.451V29H68.92v1.2h.031a3.142,3.142,0,0,1,4.973-.332,4.54,4.54,0,0,1,.848,2.9,4.922,4.922,0,0,1-.988,3.211A3.222,3.222,0,0,1,71.154,37.2,2.491,2.491,0,0,1,68.951,36.07Zm-.07-3.281v.641a2.037,2.037,0,0,0,.438,1.352,1.424,1.424,0,0,0,1.148.523,1.514,1.514,0,0,0,1.309-.652A3.15,3.15,0,0,0,72.24,32.8q0-2.109-1.641-2.109a1.541,1.541,0,0,0-1.238.574A2.29,2.29,0,0,0,68.881,32.789ZM80.225,37.2a4.3,4.3,0,0,1-3.145-1.121,4.064,4.064,0,0,1-1.145-3.043,4.065,4.065,0,0,1,1.188-3.105A4.487,4.487,0,0,1,80.335,28.8a4.249,4.249,0,0,1,3.125,1.121,3.985,3.985,0,0,1,1.133,2.965,4.23,4.23,0,0,1-1.168,3.148A4.348,4.348,0,0,1,80.225,37.2Zm.063-6.5a1.647,1.647,0,0,0-1.359.6,2.653,2.653,0,0,0-.484,1.7q0,2.3,1.859,2.3,1.773,0,1.773-2.367Q82.077,30.7,80.288,30.7Zm5.423,6.094v-2a5.256,5.256,0,0,0,1.215.547,4.028,4.028,0,0,0,1.145.18,2.455,2.455,0,0,0,1.035-.18.581.581,0,0,0,.379-.547.506.506,0,0,0-.172-.391,1.6,1.6,0,0,0-.441-.273,5.009,5.009,0,0,0-.59-.211q-.32-.094-.617-.211a5.914,5.914,0,0,1-.84-.387,2.427,2.427,0,0,1-.609-.48,1.889,1.889,0,0,1-.375-.633,2.525,2.525,0,0,1-.129-.852A2.192,2.192,0,0,1,86,30.2a2.393,2.393,0,0,1,.781-.793,3.57,3.57,0,0,1,1.117-.453,5.825,5.825,0,0,1,1.309-.145,7.261,7.261,0,0,1,1.078.082,8.047,8.047,0,0,1,1.078.238v1.906a3.9,3.9,0,0,0-1-.41,4.235,4.235,0,0,0-1.051-.137,2.328,2.328,0,0,0-.457.043,1.505,1.505,0,0,0-.379.125.7.7,0,0,0-.258.211.486.486,0,0,0-.094.293.541.541,0,0,0,.141.375,1.221,1.221,0,0,0,.367.27,3.625,3.625,0,0,0,.5.2q.277.09.551.184a7.161,7.161,0,0,1,.891.375,2.848,2.848,0,0,1,.684.477,1.872,1.872,0,0,1,.438.641,2.563,2.563,0,0,1-.156,2.09,2.471,2.471,0,0,1-.82.82,3.72,3.72,0,0,1-1.18.461,6.54,6.54,0,0,1-1.387.145A7.149,7.149,0,0,1,85.711,36.789ZM105.6,37h-2.469V35.9H103.1a2.768,2.768,0,0,1-2.477,1.3A3.033,3.033,0,0,1,98.2,36.137a4.382,4.382,0,0,1-.914-2.957A4.77,4.77,0,0,1,98.3,30a3.287,3.287,0,0,1,2.641-1.2,2.246,2.246,0,0,1,2.156,1.109h.031V25.156H105.6Zm-2.422-3.891v-.6a1.893,1.893,0,0,0-.453-1.3,1.6,1.6,0,0,0-2.461.129,2.993,2.993,0,0,0-.461,1.77,2.59,2.59,0,0,0,.445,1.625A1.581,1.581,0,0,0,102.7,34.7,2.507,2.507,0,0,0,103.173,33.109ZM114.37,37h-2.336V35.852H112A2.607,2.607,0,0,1,109.62,37.2a2.492,2.492,0,0,1-1.832-.66,2.366,2.366,0,0,1-.668-1.762q0-2.328,2.758-2.687l2.172-.289q0-1.312-1.422-1.312a4.853,4.853,0,0,0-2.719.852V29.477a6.116,6.116,0,0,1,1.41-.469,7.413,7.413,0,0,1,1.629-.2q3.422,0,3.422,3.414Zm-2.32-3.25v-.539L110.6,33.4q-1.2.156-1.2,1.086a.9.9,0,0,0,.293.691,1.126,1.126,0,0,0,.793.27,1.462,1.462,0,0,0,1.133-.48A1.735,1.735,0,0,0,112.049,33.75ZM124.089,37h-2.461V32.555q0-1.859-1.328-1.859a1.318,1.318,0,0,0-1.055.492,1.875,1.875,0,0,0-.414,1.25V37h-2.469V29h2.469v1.266h.031a2.829,2.829,0,0,1,2.57-1.461q2.656,0,2.656,3.3ZM123,25.3A2.844,2.844,0,0,1,122.562,27a1.385,1.385,0,0,1-1.184.6,2.8,2.8,0,0,1-1.312-.336,2.63,2.63,0,0,0-.961-.367q-.625,0-.625.844h-1.1a2.867,2.867,0,0,1,.43-1.687,1.394,1.394,0,0,1,1.2-.6,2.674,2.674,0,0,1,1.313.383,2.2,2.2,0,0,0,.938.344q.609,0,.609-.867ZM132.739,37H130.4V35.852h-.031a2.607,2.607,0,0,1-2.383,1.344,2.492,2.492,0,0,1-1.832-.66,2.366,2.366,0,0,1-.668-1.762q0-2.328,2.758-2.687l2.172-.289q0-1.312-1.422-1.312a4.853,4.853,0,0,0-2.719.852V29.477a6.116,6.116,0,0,1,1.41-.469,7.413,7.413,0,0,1,1.629-.2q3.422,0,3.422,3.414Zm-2.32-3.25v-.539l-1.453.188q-1.2.156-1.2,1.086a.9.9,0,0,0,.293.691,1.126,1.126,0,0,0,.793.27,1.462,1.462,0,0,0,1.133-.48A1.735,1.735,0,0,0,130.418,33.75ZM142.56,37h-2.469V35.9h-.031a2.768,2.768,0,0,1-2.477,1.3,3.033,3.033,0,0,1-2.414-1.059,4.382,4.382,0,0,1-.914-2.957A4.77,4.77,0,0,1,135.263,30a3.287,3.287,0,0,1,2.641-1.2,2.246,2.246,0,0,1,2.156,1.109h.031V25.156h2.469Zm-2.422-3.891v-.6a1.893,1.893,0,0,0-.453-1.3,1.6,1.6,0,0,0-2.461.129,2.993,2.993,0,0,0-.461,1.77,2.59,2.59,0,0,0,.445,1.625,1.581,1.581,0,0,0,2.457-.031A2.507,2.507,0,0,0,140.138,33.109Zm8.353,4.086a4.3,4.3,0,0,1-3.145-1.121,4.064,4.064,0,0,1-1.145-3.043,4.065,4.065,0,0,1,1.188-3.105A4.487,4.487,0,0,1,148.6,28.8a4.249,4.249,0,0,1,3.125,1.121,3.985,3.985,0,0,1,1.133,2.965,4.23,4.23,0,0,1-1.168,3.148A4.348,4.348,0,0,1,148.491,37.2Zm.063-6.5a1.647,1.647,0,0,0-1.359.6,2.653,2.653,0,0,0-.484,1.7q0,2.3,1.859,2.3,1.773,0,1.773-2.367Q150.342,30.7,148.553,30.7Zm5.423,6.094v-2a5.256,5.256,0,0,0,1.215.547,4.028,4.028,0,0,0,1.145.18,2.455,2.455,0,0,0,1.035-.18.581.581,0,0,0,.379-.547.506.506,0,0,0-.172-.391,1.6,1.6,0,0,0-.441-.273,5.009,5.009,0,0,0-.59-.211q-.32-.094-.617-.211a5.914,5.914,0,0,1-.84-.387,2.427,2.427,0,0,1-.609-.48,1.889,1.889,0,0,1-.375-.633,2.525,2.525,0,0,1-.129-.852,2.192,2.192,0,0,1,.293-1.156,2.393,2.393,0,0,1,.781-.793,3.57,3.57,0,0,1,1.117-.453,5.825,5.825,0,0,1,1.309-.145,7.261,7.261,0,0,1,1.078.082,8.047,8.047,0,0,1,1.078.238v1.906a3.9,3.9,0,0,0-1-.41,4.235,4.235,0,0,0-1.051-.137,2.328,2.328,0,0,0-.457.043,1.505,1.505,0,0,0-.379.125.7.7,0,0,0-.258.211.486.486,0,0,0-.094.293.541.541,0,0,0,.141.375,1.221,1.221,0,0,0,.367.27,3.625,3.625,0,0,0,.5.2q.277.09.551.184a7.161,7.161,0,0,1,.891.375,2.848,2.848,0,0,1,.684.477,1.871,1.871,0,0,1,.438.641,2.563,2.563,0,0,1-.156,2.09,2.471,2.471,0,0,1-.82.82,3.72,3.72,0,0,1-1.18.461,6.54,6.54,0,0,1-1.387.145A7.149,7.149,0,0,1,153.976,36.789Zm8.7.406a1.44,1.44,0,0,1-1.016-.375,1.206,1.206,0,0,1-.406-.922,1.161,1.161,0,0,1,.418-.922,1.543,1.543,0,0,1,1.043-.359,1.486,1.486,0,0,1,1.035.363,1.258,1.258,0,0,1-.008,1.852A1.549,1.549,0,0,1,162.68,37.2Z" transform="translate(861 2260.711)" fill="#12263f"/>
    <path id="Trazado_1005601" data-name="Trazado 1005601" d="M18.38,21.619a11.837,11.837,0,0,1-4.014.625,8.168,8.168,0,0,1-3.857-.854,5.85,5.85,0,0,1-2.476-2.432,7.516,7.516,0,0,1-.854-3.638,8.008,8.008,0,0,1,.957-3.945A6.619,6.619,0,0,1,10.841,8.7a8.346,8.346,0,0,1,4.023-.942A13.984,13.984,0,0,1,18.38,8.2v3.9a4.962,4.962,0,0,0-1.4-.547,6.979,6.979,0,0,0-1.641-.2,3.672,3.672,0,0,0-2.71.986,3.606,3.606,0,0,0-.991,2.676,3.543,3.543,0,0,0,.991,2.651,3.624,3.624,0,0,0,2.651.972,6.879,6.879,0,0,0,3.1-.781ZM31.3,16.824A5.207,5.207,0,0,1,29.771,20.8,5.972,5.972,0,0,1,25.5,22.244a6,6,0,0,1-4.243-1.411,5.051,5.051,0,0,1-1.519-3.892,5.214,5.214,0,0,1,.713-2.764,4.636,4.636,0,0,1,2.031-1.8,7.012,7.012,0,0,1,3.037-.625,6.792,6.792,0,0,1,3.081.654,4.763,4.763,0,0,1,2,1.816A4.946,4.946,0,0,1,31.3,16.824Zm-4.219.02q0-2.041-1.562-2.041t-1.562,2.139q0,2.256,1.582,2.256Q27.081,19.2,27.081,16.844Zm13.291-1.279a4,4,0,0,0-1.3-.283q-2.061,0-2.061,2.383V22h-4.16V12h4.16v1.758h.039a3.123,3.123,0,0,1,1.084-1.44,2.785,2.785,0,0,1,1.641-.493,1.409,1.409,0,0,1,.6.117Zm8.721,0a4,4,0,0,0-1.3-.283q-2.061,0-2.061,2.383V22h-4.16V12h4.16v1.758h.039a3.123,3.123,0,0,1,1.084-1.44,2.785,2.785,0,0,1,1.641-.493,1.409,1.409,0,0,1,.6.117Zm4.785,2.617a1.405,1.405,0,0,0,.742,1.011,3.347,3.347,0,0,0,1.68.366A6.917,6.917,0,0,0,59.054,19v2.637a9.9,9.9,0,0,1-3.672.605,5.794,5.794,0,0,1-4.072-1.338,4.753,4.753,0,0,1-1.455-3.682,6.074,6.074,0,0,1,.64-2.842,4.6,4.6,0,0,1,1.895-1.929,5.6,5.6,0,0,1,2.769-.7,5.447,5.447,0,0,1,2.656.605,4.033,4.033,0,0,1,1.675,1.7,5.452,5.452,0,0,1,.571,2.559v1.563ZM56.378,16q0-1.729-1.24-1.729a1.049,1.049,0,0,0-.869.474A2.364,2.364,0,0,0,53.858,16Zm13.359,5.713a3.922,3.922,0,0,1-1.26.381,11.91,11.91,0,0,1-1.982.146,6.1,6.1,0,0,1-2.827-.64,4.667,4.667,0,0,1-1.929-1.792,4.975,4.975,0,0,1-.684-2.588,5.667,5.667,0,0,1,.728-2.944,4.743,4.743,0,0,1,2.075-1.875,7.119,7.119,0,0,1,3.125-.649,10.933,10.933,0,0,1,1.753.127,2.678,2.678,0,0,1,1,.293v3.242a2.889,2.889,0,0,0-.9-.43,3.609,3.609,0,0,0-1.084-.186,2.639,2.639,0,0,0-1.851.581,2.114,2.114,0,0,0-.63,1.636,2.075,2.075,0,0,0,.62,1.606,2.419,2.419,0,0,0,1.7.571,4.244,4.244,0,0,0,2.139-.557Zm8.7.146a4.053,4.053,0,0,1-.928.259,8.482,8.482,0,0,1-1.553.122,3.73,3.73,0,0,1-2.72-.957,3.632,3.632,0,0,1-.981-2.725V14.881H70.685V12h1.572V10.037l4.1-1.133V12h2.08v2.881h-2.08v3q0,1.318,1.045,1.318a2.835,2.835,0,0,0,1.035-.215ZM90.86,16.824A5.207,5.207,0,0,1,89.332,20.8a7.061,7.061,0,0,1-8.516.034A5.051,5.051,0,0,1,79.3,16.941a5.214,5.214,0,0,1,.713-2.764,4.636,4.636,0,0,1,2.031-1.8,7.012,7.012,0,0,1,3.037-.625,6.792,6.792,0,0,1,3.081.654,4.763,4.763,0,0,1,2,1.816A4.946,4.946,0,0,1,90.86,16.824Zm-4.219.02q0-2.041-1.562-2.041t-1.562,2.139q0,2.256,1.582,2.256Q86.642,19.2,86.642,16.844Z" transform="translate(906.698 2377.711)" fill="#12263f"/>
    <path id="Trazado_1005602" data-name="Trazado 1005602" d="M2.863,22V8H7.082V22Zm13.076,0V16.541a2.427,2.427,0,0,0-.278-1.333,1.017,1.017,0,0,0-.9-.405.978.978,0,0,0-.84.42,1.792,1.792,0,0,0-.3,1.074V22H9.455V12h4.16v1.563h.039a3.53,3.53,0,0,1,1.338-1.333,3.655,3.655,0,0,1,1.826-.474q3.281,0,3.281,4.141V22Zm14.277-.283a3.922,3.922,0,0,1-1.26.381,11.91,11.91,0,0,1-1.982.146,6.1,6.1,0,0,1-2.827-.64,4.667,4.667,0,0,1-1.929-1.792,4.975,4.975,0,0,1-.684-2.588,5.667,5.667,0,0,1,.728-2.944,4.743,4.743,0,0,1,2.075-1.875,7.119,7.119,0,0,1,3.125-.649,10.933,10.933,0,0,1,1.753.127,2.678,2.678,0,0,1,1,.293v3.242a2.889,2.889,0,0,0-.9-.43,3.609,3.609,0,0,0-1.084-.186,2.639,2.639,0,0,0-1.851.581,2.114,2.114,0,0,0-.63,1.636,2.075,2.075,0,0,0,.62,1.606,2.419,2.419,0,0,0,1.7.571,4.244,4.244,0,0,0,2.139-.557ZM43,16.824A5.207,5.207,0,0,1,41.472,20.8,5.972,5.972,0,0,1,37.2,22.244a6,6,0,0,1-4.243-1.411,5.051,5.051,0,0,1-1.519-3.892,5.214,5.214,0,0,1,.713-2.764,4.636,4.636,0,0,1,2.031-1.8,7.012,7.012,0,0,1,3.037-.625,6.792,6.792,0,0,1,3.081.654,4.763,4.763,0,0,1,2,1.816A4.946,4.946,0,0,1,43,16.824Zm-4.219.02q0-2.041-1.562-2.041t-1.562,2.139q0,2.256,1.582,2.256Q38.781,19.2,38.781,16.844Zm13.291-1.279a4,4,0,0,0-1.3-.283q-2.061,0-2.061,2.383V22h-4.16V12h4.16v1.758h.039a3.123,3.123,0,0,1,1.084-1.44,2.785,2.785,0,0,1,1.641-.493,1.409,1.409,0,0,1,.6.117Zm8.721,0a4,4,0,0,0-1.3-.283q-2.061,0-2.061,2.383V22h-4.16V12h4.16v1.758h.039a3.123,3.123,0,0,1,1.084-1.44,2.785,2.785,0,0,1,1.641-.493,1.409,1.409,0,0,1,.6.117Zm4.785,2.617a1.405,1.405,0,0,0,.742,1.011,3.347,3.347,0,0,0,1.68.366A6.917,6.917,0,0,0,70.754,19v2.637a9.9,9.9,0,0,1-3.672.605,5.794,5.794,0,0,1-4.072-1.338,4.753,4.753,0,0,1-1.455-3.682,6.074,6.074,0,0,1,.64-2.842,4.6,4.6,0,0,1,1.895-1.929,5.6,5.6,0,0,1,2.769-.7,5.447,5.447,0,0,1,2.656.605,4.033,4.033,0,0,1,1.675,1.7,5.452,5.452,0,0,1,.571,2.559v1.563ZM68.078,16q0-1.729-1.24-1.729a1.049,1.049,0,0,0-.869.474A2.364,2.364,0,0,0,65.559,16Zm13.359,5.713a3.922,3.922,0,0,1-1.26.381,11.91,11.91,0,0,1-1.982.146,6.1,6.1,0,0,1-2.827-.64,4.667,4.667,0,0,1-1.929-1.792,4.975,4.975,0,0,1-.684-2.588,5.667,5.667,0,0,1,.728-2.944,4.743,4.743,0,0,1,2.075-1.875,7.119,7.119,0,0,1,3.125-.649,10.933,10.933,0,0,1,1.753.127,2.678,2.678,0,0,1,1,.293v3.242a2.889,2.889,0,0,0-.9-.43,3.609,3.609,0,0,0-1.084-.186,2.639,2.639,0,0,0-1.851.581,2.114,2.114,0,0,0-.63,1.636,2.075,2.075,0,0,0,.62,1.606,2.419,2.419,0,0,0,1.7.571,4.244,4.244,0,0,0,2.139-.557Zm8.7.146a4.053,4.053,0,0,1-.928.259,8.482,8.482,0,0,1-1.553.122,3.73,3.73,0,0,1-2.72-.957,3.632,3.632,0,0,1-.981-2.725V14.881H82.385V12h1.572V10.037l4.1-1.133V12h2.08v2.881h-2.08v3q0,1.318,1.045,1.318a2.835,2.835,0,0,0,1.035-.215Zm12.422-5.039a5.207,5.207,0,0,1-1.528,3.975,7.061,7.061,0,0,1-8.516.034A5.051,5.051,0,0,1,91,16.941a5.214,5.214,0,0,1,.713-2.764,4.636,4.636,0,0,1,2.031-1.8,7.012,7.012,0,0,1,3.037-.625,6.792,6.792,0,0,1,3.081.654,4.763,4.763,0,0,1,2,1.816A4.946,4.946,0,0,1,102.561,16.824Zm-4.219.02q0-2.041-1.562-2.041t-1.562,2.139q0,2.256,1.582,2.256Q98.342,19.2,98.342,16.844Z" transform="translate(600.954 2377.711)" fill="#12263f"/>
    <g id="Grupo_1178001" data-name="Grupo 1178001" transform="translate(612.574 2201.149)">
      <path id="Trazado_995527" data-name="Trazado 995527" d="M202.257,36.758a2.091,2.091,0,1,0-2.091-2.091A2.094,2.094,0,0,0,202.257,36.758Zm0-3.133a1.042,1.042,0,1,1-1.042,1.042A1.043,1.043,0,0,1,202.257,33.624Z" transform="translate(-162.557 -30.296)" fill="#12263f"/>
      <path id="Trazado_995528" data-name="Trazado 995528" d="M113.7,162.1a2.252,2.252,0,1,0,2.252,2.252A2.254,2.254,0,0,0,113.7,162.1Zm0,3.454a1.2,1.2,0,1,1,1.2-1.2A1.2,1.2,0,0,1,113.7,165.555Z" transform="translate(-80.047 -150.76)" fill="#12263f"/>
      <path id="Trazado_995529" data-name="Trazado 995529" d="M195.617,175.341H200.4a.525.525,0,1,0,0-1.049h-4.783a.525.525,0,0,0,0,1.049Z" transform="translate(-157.838 -162.098)" fill="#12263f"/>
      <path id="Trazado_995530" data-name="Trazado 995530" d="M195.617,200.326h9.7a.525.525,0,1,0,0-1.049h-9.7a.525.525,0,0,0,0,1.049Z" transform="translate(-157.838 -185.335)" fill="#12263f"/>
      <path id="Trazado_995531" data-name="Trazado 995531" d="M113.7,240.589a2.252,2.252,0,1,0,2.252,2.252A2.254,2.254,0,0,0,113.7,240.589Zm0,3.454a1.2,1.2,0,1,1,1.2-1.2A1.2,1.2,0,0,1,113.7,244.043Z" transform="translate(-80.047 -223.756)" fill="#12263f"/>
      <path id="Trazado_995532" data-name="Trazado 995532" d="M195.617,253.83H200.4a.525.525,0,1,0,0-1.049h-4.783a.525.525,0,0,0,0,1.049Z" transform="translate(-157.838 -235.095)" fill="#12263f"/>
      <path id="Trazado_995533" data-name="Trazado 995533" d="M195.617,278.814h9.7a.525.525,0,1,0,0-1.049h-9.7a.525.525,0,0,0,0,1.049Z" transform="translate(-157.838 -258.331)" fill="#12263f"/>
      <path id="Trazado_995534" data-name="Trazado 995534" d="M113.7,319.077a2.252,2.252,0,1,0,2.252,2.252A2.254,2.254,0,0,0,113.7,319.077Zm0,3.454a1.2,1.2,0,1,1,1.2-1.2A1.2,1.2,0,0,1,113.7,322.531Z" transform="translate(-80.047 -296.753)" fill="#12263f"/>
      <path id="Trazado_995535" data-name="Trazado 995535" d="M195.617,332.318H200.4a.525.525,0,1,0,0-1.049h-4.783a.525.525,0,0,0,0,1.049Z" transform="translate(-157.838 -308.092)" fill="#12263f"/>
      <path id="Trazado_995536" data-name="Trazado 995536" d="M205.837,356.778a.525.525,0,0,0-.525-.525h-9.7a.525.525,0,0,0,0,1.049h9.7A.525.525,0,0,0,205.837,356.778Z" transform="translate(-157.838 -331.328)" fill="#12263f"/>
      <path id="Trazado_995537" data-name="Trazado 995537" d="M56.933,31.715l-.922-.922.18-.18a.525.525,0,0,0-.742-.742l-.551.551a.525.525,0,0,0,0,.742l1.293,1.293a1.348,1.348,0,0,1-1.906,1.907L52.992,33.07a.525.525,0,0,0-.742,0l-1.293,1.293a1.348,1.348,0,1,1-1.907-1.906l1.293-1.293a.525.525,0,0,0,0-.742l-1.293-1.293a1.348,1.348,0,1,1,1.907-1.906l1.293,1.292a.525.525,0,0,0,.742,0l1.293-1.293a1.348,1.348,0,0,1,2.269,1.244.525.525,0,1,0,1.025.226,2.4,2.4,0,0,0-3.559-2.583V8.8A6.284,6.284,0,0,0,47.744,2.52H43.658a4.369,4.369,0,0,0-7.916,0H32.706a.525.525,0,1,0,0,1.049h2.7a4.374,4.374,0,0,0-.075.8v.048H35.2a2.563,2.563,0,0,0-2.489,1.965h-.83a3.2,3.2,0,0,0-3.2,3.2V26.67a3.2,3.2,0,0,0,3.2,3.2H47.515a3.212,3.212,0,0,0,.717-.081c.025.027.05.054.077.08l.922.922-.922.922a2.394,2.394,0,0,0-.308.377c-.086,0-.172.006-.257.006H31.657a5.233,5.233,0,0,1-5.227-5.228V8.8a5.224,5.224,0,0,1,4.277-5.141.525.525,0,1,0-.19-1.032A6.273,6.273,0,0,0,25.38,8.8V26.87a6.284,6.284,0,0,0,6.276,6.277H47.622A2.4,2.4,0,0,0,51.7,35.105l.922-.922.922.922a2.4,2.4,0,1,0,3.39-3.391ZM47.744,3.57A5.233,5.233,0,0,1,52.971,8.8s0,18.2,0,18.259l-.347.346-.922-.921a2.382,2.382,0,0,0-.984-.593V9.584a3.2,3.2,0,0,0-3.2-3.2h-.829A2.563,2.563,0,0,0,44.2,4.419h-.126V4.371A4.374,4.374,0,0,0,44,3.57ZM35.2,5.469h.651a.525.525,0,0,0,.525-.525V4.371a3.321,3.321,0,0,1,6.642,0v.573a.525.525,0,0,0,.525.525H44.2a1.51,1.51,0,1,1,0,3.019H35.2a1.51,1.51,0,1,1,0-3.019ZM47.515,28.822H31.885a2.153,2.153,0,0,1-2.151-2.151V9.584a2.153,2.153,0,0,1,2.151-2.151h.8a2.563,2.563,0,0,0,2.518,2.1H44.2a2.563,2.563,0,0,0,2.518-2.1h.8a2.153,2.153,0,0,1,2.151,2.151V25.8a2.4,2.4,0,0,0-1.973,3.011C47.634,28.819,47.574,28.822,47.515,28.822Z" fill="#12263f"/>
    </g>
    <g id="Office_desk" data-name="Office desk" transform="translate(928.698 2213.554)">
      <path id="Trazado_995538" data-name="Trazado 995538" d="M9.533,40.066H10.6A.533.533,0,1,0,10.6,39H9.533a.533.533,0,1,0,0,1.066Z" transform="translate(-3.268 -12.137)" fill="#12263f"/>
      <path id="Trazado_995539" data-name="Trazado 995539" d="M9.533,48.066H10.6A.533.533,0,1,0,10.6,47H9.533a.533.533,0,1,0,0,1.066Z" transform="translate(-3.268 -15.872)" fill="#12263f"/>
      <path id="Trazado_995540" data-name="Trazado 995540" d="M9.533,56.066H10.6A.533.533,0,1,0,10.6,55H9.533a.533.533,0,1,0,0,1.066Z" transform="translate(-3.268 -19.606)" fill="#12263f"/>
      <path id="Trazado_995541" data-name="Trazado 995541" d="M33.458,22.064a.533.533,0,0,0,.533-.533V19.4a.533.533,0,0,0-.533-.533h-.533v-1.6a.533.533,0,0,0-.533-.533h-6.4a.533.533,0,0,0-.533.533V19.4a.533.533,0,0,0,.533.533h.533V21h-.533a.533.533,0,0,0-.533.533v1.6H19.6V22.064h2.666a1.6,1.6,0,0,0,1.6-1.6V15.133a1.6,1.6,0,0,0-1.6-1.6H13.73a1.6,1.6,0,0,0-1.6,1.6v5.332a1.6,1.6,0,0,0,1.6,1.6H16.4v1.066H8.931V22.6a1.6,1.6,0,0,0-1.6-1.6V17.8h1.6a.533.533,0,0,0,.513-.68L8.378,13.387A.533.533,0,0,0,7.865,13H5.732a.533.533,0,0,0-.513.387L4.153,17.119a.533.533,0,0,0,.513.68h1.6V21a1.6,1.6,0,0,0-1.6,1.6v.533H2.533A.533.533,0,0,0,2,23.664V38.593a.533.533,0,0,0,.533.533h8.531a.533.533,0,0,0,.533-.533V26.33H28.66v2.133a.533.533,0,0,0,.533.533h.339l-2.98,9.437a.533.533,0,0,0,.348.669.541.541,0,0,0,.16.024.533.533,0,0,0,.508-.373l2.666-8.443,2.716,8.446a.533.533,0,1,0,1.013-.326L30.932,29h.393a.533.533,0,0,0,.533-.533V26.33h1.6a.533.533,0,0,0,.533-.533V23.664a.533.533,0,0,0-.533-.533h-.533V22.064Zm-27.324-8H7.463l.761,2.666H5.373ZM26.527,17.8h5.332v1.066H26.527Zm1.066,2.133h5.332V21H27.593ZM13.73,14.6h8.531a.533.533,0,0,1,.533.533v3.732H13.2V15.133A.533.533,0,0,1,13.73,14.6ZM13.2,20.465v-.533h9.6v.533a.533.533,0,0,1-.533.533H13.73A.533.533,0,0,1,13.2,20.465Zm4.266,1.6h1.066v1.066H17.463ZM5.732,22.6a.533.533,0,0,1,.533-.533H7.332a.533.533,0,0,1,.533.533v.533H5.732Zm4.8,11.2H3.066V30.6h7.465Zm0,4.266H3.066v-3.2h7.465Zm0-8.531H3.066v-3.2h7.465Zm20.261-1.6H29.726v-1.6h1.066Zm2.133-2.666H3.066V24.2H32.925Zm-1.066-2.133H26.527V22.064h5.332Z" fill="#12263f"/>
    </g>
  </g>
</svg>
