<svg xmlns="http://www.w3.org/2000/svg" width="680.136" height="79" viewBox="0 0 680.136 79">
  <g id="Grupo_1192383" data-name="Grupo 1192383" transform="translate(-459.479 -2331)">
    <g id="Grupo_1192378" data-name="Grupo 1192378" transform="translate(0 22)">
      <g id="Grupo_1192377" data-name="Grupo 1192377" transform="translate(65 -357)">
        <path id="Trazado_1004811" data-name="Trazado 1004811" d="M0,0H204.168l27.968,40.354L204.168,79H0L27.968,37.266Z" transform="translate(394.479 2666)" fill="#a4c2ff"/>
        <path id="Trazado_1004812" data-name="Trazado 1004812" d="M0,0H204.168l27.968,40.354L204.168,79H0L27.968,37.266Z" transform="translate(618.479 2666)" fill="#e795ff"/>
        <path id="Trazado_1004813" data-name="Trazado 1004813" d="M0,0H204.168l27.968,40.354L204.168,79H0L27.968,37.266Z" transform="translate(842.479 2666)" fill="#cff878"/>
      </g>
      <path id="Trazado_1005619" data-name="Trazado 1005619" d="M10.156,0,9.541-2.578H5.361L4.7,0H.137L4.961-14H10.2L14.736,0ZM7.5-10.957H7.4a6.8,6.8,0,0,1-.137.771q-.117.537-1.182,4.609H8.76L7.783-9.385A12.044,12.044,0,0,1,7.5-10.957ZM22.48,0V-5.459A2.427,2.427,0,0,0,22.2-6.792a1.017,1.017,0,0,0-.9-.405.978.978,0,0,0-.84.42,1.792,1.792,0,0,0-.3,1.074V0H16V-10h4.16v1.563H20.2a3.53,3.53,0,0,1,1.338-1.333,3.655,3.655,0,0,1,1.826-.474q3.281,0,3.281,4.141V0ZM32.92-12.7a1.787,1.787,0,0,1-.64,1.426,2.5,2.5,0,0,1-1.685.547,2.441,2.441,0,0,1-1.665-.566,1.791,1.791,0,0,1-.649-1.406,1.734,1.734,0,0,1,.63-1.392,2.524,2.524,0,0,1,1.685-.532,2.548,2.548,0,0,1,1.685.532A1.723,1.723,0,0,1,32.92-12.7ZM28.516,0V-10h4.16V0ZM47.646,0V-5.762a1.838,1.838,0,0,0-.259-1.079.973.973,0,0,0-.845-.356,1.055,1.055,0,0,0-.9.435,1.989,1.989,0,0,0-.322,1.206V0h-4.16V-5.664q0-1.533-1.045-1.533a1.106,1.106,0,0,0-.957.444,2.148,2.148,0,0,0-.322,1.274V0h-4.16V-10h4.16v1.582h.039a3.224,3.224,0,0,1,.747-.854,4.385,4.385,0,0,1,1.157-.7,3.594,3.594,0,0,1,1.4-.269,3.535,3.535,0,0,1,1.792.42A3.256,3.256,0,0,1,45.186-8.5,3.564,3.564,0,0,1,46.592-9.79a4.191,4.191,0,0,1,1.953-.454,2.939,2.939,0,0,1,2.412,1.025A4.566,4.566,0,0,1,51.8-6.26V0ZM59.229,0V-1.523h-.039A3.272,3.272,0,0,1,56.143.244,2.917,2.917,0,0,1,53.926-.6a3.12,3.12,0,0,1-.8-2.246q0-2.949,3.623-3.418l2.48-.322a.946.946,0,0,0-.439-.8A2,2,0,0,0,57.607-7.7a7.783,7.783,0,0,0-3.545.957V-9.443a9.484,9.484,0,0,1,2.031-.576,11.822,11.822,0,0,1,2.09-.225,5.247,5.247,0,0,1,3.7,1.089,4.853,4.853,0,0,1,1.147,3.638V0ZM56.768-3.4a.922.922,0,0,0,.259.674.987.987,0,0,0,.737.264,1.311,1.311,0,0,0,1.06-.488,1.892,1.892,0,0,0,.405-1.25V-4.58l-1.406.2Q56.768-4.209,56.768-3.4ZM64.9,0V-14.8h4.16V0Zm9.746-3.818a1.405,1.405,0,0,0,.742,1.011,3.347,3.347,0,0,0,1.68.366A6.917,6.917,0,0,0,79.824-3V-.361a9.9,9.9,0,0,1-3.672.605A5.794,5.794,0,0,1,72.08-1.094a4.753,4.753,0,0,1-1.455-3.682,6.074,6.074,0,0,1,.64-2.842,4.6,4.6,0,0,1,1.895-1.929,5.6,5.6,0,0,1,2.769-.7,5.447,5.447,0,0,1,2.656.605,4.033,4.033,0,0,1,1.675,1.7,5.452,5.452,0,0,1,.571,2.559v1.563ZM77.148-6q0-1.729-1.24-1.729a1.049,1.049,0,0,0-.869.474A2.364,2.364,0,0,0,74.629-6ZM90.391-3.32A3.054,3.054,0,0,1,89.1-.688a6.082,6.082,0,0,1-3.608.933A12.546,12.546,0,0,1,83.823.107a10.286,10.286,0,0,1-1.616-.332v-2.92a7.958,7.958,0,0,0,3.086.82q1.221,0,1.221-.635a.5.5,0,0,0-.283-.435,10.01,10.01,0,0,0-1.484-.571,4.192,4.192,0,0,1-1.934-1.113,2.647,2.647,0,0,1-.605-1.807,2.883,2.883,0,0,1,1.235-2.456,5.8,5.8,0,0,1,3.472-.9,11.035,11.035,0,0,1,2.773.381v2.8A8.387,8.387,0,0,0,88.34-7.5a5.443,5.443,0,0,0-1.23-.176,1.339,1.339,0,0,0-.654.137.421.421,0,0,0-.244.381.531.531,0,0,0,.264.459,4.664,4.664,0,0,0,1.055.42,4.894,4.894,0,0,1,2.2,1.152A2.525,2.525,0,0,1,90.391-3.32ZM8.7,10.223A3.665,3.665,0,0,0,7.5,10a1.338,1.338,0,0,0-1.025.356,1.355,1.355,0,0,0-.332.962V12H8.457v2.881H6.143V22H1.982V14.881H.3V12h1.68v-.918a4.065,4.065,0,0,1,.566-2.153,3.778,3.778,0,0,1,1.646-1.45,6.025,6.025,0,0,1,2.622-.518A7.118,7.118,0,0,1,8.7,7.176Zm4.5,7.959a1.405,1.405,0,0,0,.742,1.011,3.347,3.347,0,0,0,1.68.366A6.917,6.917,0,0,0,18.379,19v2.637a9.9,9.9,0,0,1-3.672.605,5.794,5.794,0,0,1-4.072-1.338A4.753,4.753,0,0,1,9.18,17.225a6.074,6.074,0,0,1,.64-2.842,4.6,4.6,0,0,1,1.895-1.929,5.6,5.6,0,0,1,2.769-.7,5.447,5.447,0,0,1,2.656.605,4.033,4.033,0,0,1,1.675,1.7,5.452,5.452,0,0,1,.571,2.559v1.563ZM15.7,16q0-1.729-1.24-1.729a1.049,1.049,0,0,0-.869.474A2.364,2.364,0,0,0,13.184,16Zm12.637-.439a4,4,0,0,0-1.3-.283q-2.061,0-2.061,2.383V22H20.82V12h4.16v1.758h.039a3.123,3.123,0,0,1,1.084-1.44,2.785,2.785,0,0,1,1.641-.493,1.409,1.409,0,0,1,.6.117Zm12.324,1.26A5.207,5.207,0,0,1,39.136,20.8a5.972,5.972,0,0,1-4.272,1.445,6,6,0,0,1-4.243-1.411A5.051,5.051,0,0,1,29.1,16.941a5.214,5.214,0,0,1,.713-2.764,4.636,4.636,0,0,1,2.031-1.8,7.012,7.012,0,0,1,3.037-.625,6.792,6.792,0,0,1,3.081.654,4.763,4.763,0,0,1,2,1.816A4.946,4.946,0,0,1,40.664,16.824Zm-4.219.02q0-2.041-1.562-2.041T33.32,16.941q0,2.256,1.582,2.256Q36.445,19.2,36.445,16.844Zm14.014,4.873a3.922,3.922,0,0,1-1.26.381,11.91,11.91,0,0,1-1.982.146,6.1,6.1,0,0,1-2.827-.64,4.667,4.667,0,0,1-1.929-1.792,4.975,4.975,0,0,1-.684-2.588A5.667,5.667,0,0,1,42.5,14.28a4.743,4.743,0,0,1,2.075-1.875,7.119,7.119,0,0,1,3.125-.649,10.933,10.933,0,0,1,1.753.127,2.678,2.678,0,0,1,1,.293v3.242a2.889,2.889,0,0,0-.9-.43,3.609,3.609,0,0,0-1.084-.186,2.639,2.639,0,0,0-1.851.581A2.114,2.114,0,0,0,46,17.02a2.075,2.075,0,0,0,.62,1.606,2.419,2.419,0,0,0,1.7.571,4.244,4.244,0,0,0,2.139-.557ZM55.7,18.182a1.405,1.405,0,0,0,.742,1.011,3.347,3.347,0,0,0,1.68.366A6.917,6.917,0,0,0,60.879,19v2.637a9.9,9.9,0,0,1-3.672.605,5.794,5.794,0,0,1-4.072-1.338,4.753,4.753,0,0,1-1.455-3.682,6.074,6.074,0,0,1,.64-2.842,4.6,4.6,0,0,1,1.895-1.929,5.6,5.6,0,0,1,2.769-.7,5.447,5.447,0,0,1,2.656.605,4.033,4.033,0,0,1,1.675,1.7,5.452,5.452,0,0,1,.571,2.559v1.563ZM58.2,16q0-1.729-1.24-1.729a1.049,1.049,0,0,0-.869.474A2.364,2.364,0,0,0,55.684,16ZM71.445,18.68a3.054,3.054,0,0,1-1.294,2.632,6.082,6.082,0,0,1-3.608.933,12.546,12.546,0,0,1-1.665-.137,10.286,10.286,0,0,1-1.616-.332v-2.92a7.958,7.958,0,0,0,3.086.82q1.221,0,1.221-.635a.5.5,0,0,0-.283-.435,10.01,10.01,0,0,0-1.484-.571,4.192,4.192,0,0,1-1.934-1.113,2.647,2.647,0,0,1-.605-1.807A2.883,2.883,0,0,1,64.5,12.659a5.8,5.8,0,0,1,3.472-.9,11.035,11.035,0,0,1,2.773.381v2.8a8.387,8.387,0,0,0-1.348-.439,5.443,5.443,0,0,0-1.23-.176,1.339,1.339,0,0,0-.654.137.421.421,0,0,0-.244.381.531.531,0,0,0,.264.459,4.664,4.664,0,0,0,1.055.42,4.894,4.894,0,0,1,2.2,1.152A2.525,2.525,0,0,1,71.445,18.68Z" transform="translate(566 2344.5)" fill="#12263f"/>
      <path id="Trazado_1005620" data-name="Trazado 1005620" d="M1.377,0V-14H5.6V0ZM14.453,0V-5.459a2.427,2.427,0,0,0-.278-1.333,1.017,1.017,0,0,0-.9-.405.978.978,0,0,0-.84.42,1.792,1.792,0,0,0-.3,1.074V0H7.969V-10h4.16v1.563h.039a3.53,3.53,0,0,1,1.338-1.333,3.655,3.655,0,0,1,1.826-.474q3.281,0,3.281,4.141V0Zm14.16-3.32A3.054,3.054,0,0,1,27.319-.688a6.082,6.082,0,0,1-3.608.933A12.546,12.546,0,0,1,22.046.107,10.286,10.286,0,0,1,20.43-.225v-2.92a7.958,7.958,0,0,0,3.086.82q1.221,0,1.221-.635a.5.5,0,0,0-.283-.435,10.01,10.01,0,0,0-1.484-.571,4.192,4.192,0,0,1-1.934-1.113,2.647,2.647,0,0,1-.605-1.807,2.883,2.883,0,0,1,1.235-2.456,5.8,5.8,0,0,1,3.472-.9,11.035,11.035,0,0,1,2.773.381v2.8A8.387,8.387,0,0,0,26.563-7.5a5.443,5.443,0,0,0-1.23-.176,1.339,1.339,0,0,0-.654.137.421.421,0,0,0-.244.381A.531.531,0,0,0,24.7-6.7a4.664,4.664,0,0,0,1.055.42,4.894,4.894,0,0,1,2.2,1.152A2.525,2.525,0,0,1,28.613-3.32Zm5.117-.5a1.405,1.405,0,0,0,.742,1.011,3.347,3.347,0,0,0,1.68.366A6.917,6.917,0,0,0,38.906-3V-.361a9.9,9.9,0,0,1-3.672.605,5.794,5.794,0,0,1-4.072-1.338,4.753,4.753,0,0,1-1.455-3.682,6.074,6.074,0,0,1,.64-2.842,4.6,4.6,0,0,1,1.895-1.929,5.6,5.6,0,0,1,2.769-.7,5.447,5.447,0,0,1,2.656.605,4.033,4.033,0,0,1,1.675,1.7,5.452,5.452,0,0,1,.571,2.559v1.563ZM36.23-6q0-1.729-1.24-1.729a1.049,1.049,0,0,0-.869.474A2.364,2.364,0,0,0,33.711-6ZM49.59-.283A3.922,3.922,0,0,1,48.33.1a11.91,11.91,0,0,1-1.982.146A6.1,6.1,0,0,1,43.521-.4a4.667,4.667,0,0,1-1.929-1.792,4.975,4.975,0,0,1-.684-2.588,5.667,5.667,0,0,1,.728-2.944,4.743,4.743,0,0,1,2.075-1.875,7.119,7.119,0,0,1,3.125-.649,10.933,10.933,0,0,1,1.753.127,2.678,2.678,0,0,1,1,.293v3.242a2.889,2.889,0,0,0-.9-.43A3.609,3.609,0,0,0,47.607-7.2a2.639,2.639,0,0,0-1.851.581,2.114,2.114,0,0,0-.63,1.636,2.075,2.075,0,0,0,.62,1.606,2.419,2.419,0,0,0,1.7.571,4.244,4.244,0,0,0,2.139-.557Zm8.7.146a4.053,4.053,0,0,1-.928.259,8.482,8.482,0,0,1-1.553.122,3.73,3.73,0,0,1-2.72-.957,3.632,3.632,0,0,1-.981-2.725V-7.119H50.537V-10h1.572v-1.963l4.1-1.133V-10h2.08v2.881h-2.08v3q0,1.318,1.045,1.318a2.835,2.835,0,0,0,1.035-.215ZM70.713-5.176A5.207,5.207,0,0,1,69.185-1.2,5.972,5.972,0,0,1,64.912.244a6,6,0,0,1-4.243-1.411A5.051,5.051,0,0,1,59.15-5.059a5.214,5.214,0,0,1,.713-2.764,4.636,4.636,0,0,1,2.031-1.8,7.012,7.012,0,0,1,3.037-.625,6.792,6.792,0,0,1,3.081.654,4.763,4.763,0,0,1,2,1.816A4.946,4.946,0,0,1,70.713-5.176Zm-4.219.02q0-2.041-1.562-2.041T63.369-5.059q0,2.256,1.582,2.256Q66.494-2.8,66.494-5.156Zm13.9,1.836A3.054,3.054,0,0,1,79.1-.688a6.082,6.082,0,0,1-3.608.933A12.546,12.546,0,0,1,73.823.107a10.286,10.286,0,0,1-1.616-.332v-2.92a7.958,7.958,0,0,0,3.086.82q1.221,0,1.221-.635a.5.5,0,0,0-.283-.435,10.01,10.01,0,0,0-1.484-.571,4.192,4.192,0,0,1-1.934-1.113,2.647,2.647,0,0,1-.605-1.807,2.883,2.883,0,0,1,1.235-2.456,5.8,5.8,0,0,1,3.472-.9,11.035,11.035,0,0,1,2.773.381v2.8A8.387,8.387,0,0,0,78.34-7.5a5.443,5.443,0,0,0-1.23-.176,1.339,1.339,0,0,0-.654.137.421.421,0,0,0-.244.381.531.531,0,0,0,.264.459,4.664,4.664,0,0,0,1.055.42,4.894,4.894,0,0,1,2.2,1.152A2.525,2.525,0,0,1,80.391-3.32ZM11.836,20.6a5.685,5.685,0,0,1-1.812,4.487A7.736,7.736,0,0,1,4.736,26.7a11.033,11.033,0,0,1-1.816-.146,5.006,5.006,0,0,1-1.26-.332V22.957a5.58,5.58,0,0,0,1.465.625,5.636,5.636,0,0,0,1.494.234,3.469,3.469,0,0,0,2.236-.674,2.177,2.177,0,0,0,.84-1.787V20.74H7.656a3.232,3.232,0,0,1-1.235,1.094,3.589,3.589,0,0,1-1.685.41A3.775,3.775,0,0,1,1.68,20.9,5.605,5.605,0,0,1,.557,17.2a6.627,6.627,0,0,1,.586-2.861,4.465,4.465,0,0,1,1.631-1.909,4.188,4.188,0,0,1,2.3-.669,2.884,2.884,0,0,1,2.578,1.279H7.7V12h4.141ZM7.764,16.717a2.245,2.245,0,0,0-.4-1.4,1.256,1.256,0,0,0-1.05-.518,1.293,1.293,0,0,0-1.123.625,2.951,2.951,0,0,0-.42,1.67,2.89,2.89,0,0,0,.352,1.533A1.214,1.214,0,0,0,6.24,19.2a1.29,1.29,0,0,0,1.118-.581,2.676,2.676,0,0,0,.405-1.558Zm13.594-1.152a4,4,0,0,0-1.3-.283Q18,15.281,18,17.664V22h-4.16V12H18v1.758h.039a3.123,3.123,0,0,1,1.084-1.44,2.785,2.785,0,0,1,1.641-.493,1.409,1.409,0,0,1,.6.117ZM28.105,22V20.477h-.039a3.272,3.272,0,0,1-3.047,1.768A2.917,2.917,0,0,1,22.8,21.4a3.12,3.12,0,0,1-.8-2.246q0-2.949,3.623-3.418l2.48-.322a.946.946,0,0,0-.439-.8,2,2,0,0,0-1.182-.312,7.783,7.783,0,0,0-3.545.957V12.557a9.484,9.484,0,0,1,2.031-.576,11.822,11.822,0,0,1,2.09-.225,5.247,5.247,0,0,1,3.7,1.089A4.853,4.853,0,0,1,31.9,16.482V22Zm-2.461-3.4a.922.922,0,0,0,.259.674.987.987,0,0,0,.737.264,1.311,1.311,0,0,0,1.06-.488,1.892,1.892,0,0,0,.405-1.25V17.42l-1.406.2Q25.645,17.791,25.645,18.6ZM40.264,22V16.541a2.427,2.427,0,0,0-.278-1.333,1.017,1.017,0,0,0-.9-.405.978.978,0,0,0-.84.42,1.792,1.792,0,0,0-.3,1.074V22h-4.16V12h4.16v1.563h.039a3.53,3.53,0,0,1,1.338-1.333,3.655,3.655,0,0,1,1.826-.474q3.281,0,3.281,4.141V22Zm12.715,0V20.838h-.039a3.433,3.433,0,0,1-1.3,1.03,3.7,3.7,0,0,1-1.582.376,4.07,4.07,0,0,1-2.256-.63,3.825,3.825,0,0,1-1.46-1.763,6.784,6.784,0,0,1-.483-2.676,6.583,6.583,0,0,1,.576-2.822,4.51,4.51,0,0,1,1.621-1.914,4.188,4.188,0,0,1,2.344-.684,3.547,3.547,0,0,1,1.138.176,3.078,3.078,0,0,1,.908.474,1.414,1.414,0,0,1,.493.591h.039V7.2h4.16V22Zm.088-5.3a2.194,2.194,0,0,0-.4-1.4,1.335,1.335,0,0,0-2.168.122,2.881,2.881,0,0,0-.425,1.655q0,2.119,1.465,2.119a1.3,1.3,0,0,0,1.108-.571,2.812,2.812,0,0,0,.415-1.665Zm9.658,1.484a1.405,1.405,0,0,0,.742,1.011,3.347,3.347,0,0,0,1.68.366A6.917,6.917,0,0,0,67.9,19v2.637a9.9,9.9,0,0,1-3.672.605,5.794,5.794,0,0,1-4.072-1.338A4.753,4.753,0,0,1,58.7,17.225a6.074,6.074,0,0,1,.64-2.842,4.6,4.6,0,0,1,1.895-1.929,5.6,5.6,0,0,1,2.769-.7,5.447,5.447,0,0,1,2.656.605,4.033,4.033,0,0,1,1.675,1.7,5.452,5.452,0,0,1,.571,2.559v1.563ZM65.225,16q0-1.729-1.24-1.729a1.049,1.049,0,0,0-.869.474A2.364,2.364,0,0,0,62.705,16ZM78.467,18.68a3.054,3.054,0,0,1-1.294,2.632,6.082,6.082,0,0,1-3.608.933,12.546,12.546,0,0,1-1.665-.137,10.286,10.286,0,0,1-1.616-.332v-2.92a7.958,7.958,0,0,0,3.086.82q1.221,0,1.221-.635a.5.5,0,0,0-.283-.435,10.01,10.01,0,0,0-1.484-.571,4.192,4.192,0,0,1-1.934-1.113,2.647,2.647,0,0,1-.605-1.807,2.883,2.883,0,0,1,1.235-2.456,5.8,5.8,0,0,1,3.472-.9,11.035,11.035,0,0,1,2.773.381v2.8a8.387,8.387,0,0,0-1.348-.439,5.443,5.443,0,0,0-1.23-.176,1.339,1.339,0,0,0-.654.137.421.421,0,0,0-.244.381.531.531,0,0,0,.264.459,4.664,4.664,0,0,0,1.055.42,4.894,4.894,0,0,1,2.2,1.152A2.525,2.525,0,0,1,78.467,18.68Z" transform="translate(781.692 2344.5)" fill="#12263f"/>
      <path id="Trazado_1005621" data-name="Trazado 1005621" d="M1.377,0V-14H5.6V0ZM14.453,0V-5.459a2.427,2.427,0,0,0-.278-1.333,1.017,1.017,0,0,0-.9-.405.978.978,0,0,0-.84.42,1.792,1.792,0,0,0-.3,1.074V0H7.969V-10h4.16v1.563h.039a3.53,3.53,0,0,1,1.338-1.333,3.655,3.655,0,0,1,1.826-.474q3.281,0,3.281,4.141V0Zm14.16-3.32A3.054,3.054,0,0,1,27.319-.688a6.082,6.082,0,0,1-3.608.933A12.546,12.546,0,0,1,22.046.107,10.286,10.286,0,0,1,20.43-.225v-2.92a7.958,7.958,0,0,0,3.086.82q1.221,0,1.221-.635a.5.5,0,0,0-.283-.435,10.01,10.01,0,0,0-1.484-.571,4.192,4.192,0,0,1-1.934-1.113,2.647,2.647,0,0,1-.605-1.807,2.883,2.883,0,0,1,1.235-2.456,5.8,5.8,0,0,1,3.472-.9,11.035,11.035,0,0,1,2.773.381v2.8A8.387,8.387,0,0,0,26.563-7.5a5.443,5.443,0,0,0-1.23-.176,1.339,1.339,0,0,0-.654.137.421.421,0,0,0-.244.381A.531.531,0,0,0,24.7-6.7a4.664,4.664,0,0,0,1.055.42,4.894,4.894,0,0,1,2.2,1.152A2.525,2.525,0,0,1,28.613-3.32Zm5.117-.5a1.405,1.405,0,0,0,.742,1.011,3.347,3.347,0,0,0,1.68.366A6.917,6.917,0,0,0,38.906-3V-.361a9.9,9.9,0,0,1-3.672.605,5.794,5.794,0,0,1-4.072-1.338,4.753,4.753,0,0,1-1.455-3.682,6.074,6.074,0,0,1,.64-2.842,4.6,4.6,0,0,1,1.895-1.929,5.6,5.6,0,0,1,2.769-.7,5.447,5.447,0,0,1,2.656.605,4.033,4.033,0,0,1,1.675,1.7,5.452,5.452,0,0,1,.571,2.559v1.563ZM36.23-6q0-1.729-1.24-1.729a1.049,1.049,0,0,0-.869.474A2.364,2.364,0,0,0,33.711-6ZM49.59-.283A3.922,3.922,0,0,1,48.33.1a11.91,11.91,0,0,1-1.982.146A6.1,6.1,0,0,1,43.521-.4a4.667,4.667,0,0,1-1.929-1.792,4.975,4.975,0,0,1-.684-2.588,5.667,5.667,0,0,1,.728-2.944,4.743,4.743,0,0,1,2.075-1.875,7.119,7.119,0,0,1,3.125-.649,10.933,10.933,0,0,1,1.753.127,2.678,2.678,0,0,1,1,.293v3.242a2.889,2.889,0,0,0-.9-.43A3.609,3.609,0,0,0,47.607-7.2a2.639,2.639,0,0,0-1.851.581,2.114,2.114,0,0,0-.63,1.636,2.075,2.075,0,0,0,.62,1.606,2.419,2.419,0,0,0,1.7.571,4.244,4.244,0,0,0,2.139-.557Zm8.7.146a4.053,4.053,0,0,1-.928.259,8.482,8.482,0,0,1-1.553.122,3.73,3.73,0,0,1-2.72-.957,3.632,3.632,0,0,1-.981-2.725V-7.119H50.537V-10h1.572v-1.963l4.1-1.133V-10h2.08v2.881h-2.08v3q0,1.318,1.045,1.318a2.835,2.835,0,0,0,1.035-.215ZM70.713-5.176A5.207,5.207,0,0,1,69.185-1.2,5.972,5.972,0,0,1,64.912.244a6,6,0,0,1-4.243-1.411A5.051,5.051,0,0,1,59.15-5.059a5.214,5.214,0,0,1,.713-2.764,4.636,4.636,0,0,1,2.031-1.8,7.012,7.012,0,0,1,3.037-.625,6.792,6.792,0,0,1,3.081.654,4.763,4.763,0,0,1,2,1.816A4.946,4.946,0,0,1,70.713-5.176Zm-4.219.02q0-2.041-1.562-2.041T63.369-5.059q0,2.256,1.582,2.256Q66.494-2.8,66.494-5.156Zm13.9,1.836A3.054,3.054,0,0,1,79.1-.688a6.082,6.082,0,0,1-3.608.933A12.546,12.546,0,0,1,73.823.107a10.286,10.286,0,0,1-1.616-.332v-2.92a7.958,7.958,0,0,0,3.086.82q1.221,0,1.221-.635a.5.5,0,0,0-.283-.435,10.01,10.01,0,0,0-1.484-.571,4.192,4.192,0,0,1-1.934-1.113,2.647,2.647,0,0,1-.605-1.807,2.883,2.883,0,0,1,1.235-2.456,5.8,5.8,0,0,1,3.472-.9,11.035,11.035,0,0,1,2.773.381v2.8A8.387,8.387,0,0,0,78.34-7.5a5.443,5.443,0,0,0-1.23-.176,1.339,1.339,0,0,0-.654.137.421.421,0,0,0-.244.381.531.531,0,0,0,.264.459,4.664,4.664,0,0,0,1.055.42,4.894,4.894,0,0,1,2.2,1.152A2.525,2.525,0,0,1,80.391-3.32ZM12.275,16.7a7.115,7.115,0,0,1-.557,2.9,4.5,4.5,0,0,1-1.572,1.953,3.96,3.96,0,0,1-2.285.693A3.061,3.061,0,0,1,5.2,20.965H5.156V26.6H1V12h4.16v1.357H5.2a3.524,3.524,0,0,1,1.289-1.177,3.738,3.738,0,0,1,1.8-.425,3.572,3.572,0,0,1,2.964,1.289A5.719,5.719,0,0,1,12.275,16.7Zm-4.219.127A2.607,2.607,0,0,0,7.69,15.34,1.271,1.271,0,0,0,6.563,14.8a1.268,1.268,0,0,0-1.074.566,2.6,2.6,0,0,0-.41,1.553v.2a2.847,2.847,0,0,0,.352,1.514,1.16,1.16,0,0,0,1.055.566,1.314,1.314,0,0,0,1.162-.62A3.166,3.166,0,0,0,8.057,16.824Zm9.365,1.357a1.405,1.405,0,0,0,.742,1.011,3.347,3.347,0,0,0,1.68.366A6.917,6.917,0,0,0,22.6,19v2.637a9.9,9.9,0,0,1-3.672.605,5.794,5.794,0,0,1-4.072-1.338A4.753,4.753,0,0,1,13.4,17.225a6.074,6.074,0,0,1,.64-2.842,4.6,4.6,0,0,1,1.895-1.929,5.6,5.6,0,0,1,2.769-.7,5.447,5.447,0,0,1,2.656.605,4.033,4.033,0,0,1,1.675,1.7,5.452,5.452,0,0,1,.571,2.559v1.563ZM19.922,16q0-1.729-1.24-1.729a1.049,1.049,0,0,0-.869.474A2.364,2.364,0,0,0,17.4,16Zm11.8,10.6V20.857H31.68a3.354,3.354,0,0,1-1.265,1.006,3.75,3.75,0,0,1-1.636.381,4.048,4.048,0,0,1-2.183-.586,3.9,3.9,0,0,1-1.47-1.7A6.446,6.446,0,0,1,24.6,17.2a6.627,6.627,0,0,1,.586-2.861,4.465,4.465,0,0,1,1.631-1.909,4.188,4.188,0,0,1,2.3-.669,2.865,2.865,0,0,1,2.559,1.279h.039V12h4.16V26.6Zm.088-9.863a2.276,2.276,0,0,0-.4-1.421,1.26,1.26,0,0,0-1.05-.513,1.3,1.3,0,0,0-1.113.625,2.9,2.9,0,0,0-.43,1.67,2.827,2.827,0,0,0,.361,1.533,1.2,1.2,0,0,0,1.084.566,1.322,1.322,0,0,0,1.133-.566,2.639,2.639,0,0,0,.41-1.572ZM44.248,22V20.457h-.039a5.473,5.473,0,0,1-.933,1.045,3.589,3.589,0,0,1-.937.537,3.315,3.315,0,0,1-1.216.205,3.025,3.025,0,0,1-2.5-1.064,4.921,4.921,0,0,1-.859-3.145V12h4.16v5.723q0,1.475,1.1,1.475a1.08,1.08,0,0,0,.913-.4,1.825,1.825,0,0,0,.308-1.133V12h4.16V22Zm9.736-3.818a1.405,1.405,0,0,0,.742,1.011,3.347,3.347,0,0,0,1.68.366A6.917,6.917,0,0,0,59.16,19v2.637a9.9,9.9,0,0,1-3.672.605,5.794,5.794,0,0,1-4.072-1.338,4.753,4.753,0,0,1-1.455-3.682,6.074,6.074,0,0,1,.64-2.842A4.6,4.6,0,0,1,52.5,12.454a5.6,5.6,0,0,1,2.769-.7,5.447,5.447,0,0,1,2.656.605,4.033,4.033,0,0,1,1.675,1.7,5.452,5.452,0,0,1,.571,2.559v1.563ZM56.484,16q0-1.729-1.24-1.729a1.049,1.049,0,0,0-.869.474A2.364,2.364,0,0,0,53.965,16Zm11.6,6V16.541a2.427,2.427,0,0,0-.278-1.333,1.017,1.017,0,0,0-.9-.405.978.978,0,0,0-.84.42,1.792,1.792,0,0,0-.3,1.074V22H61.6V12h4.16v1.563H65.8a3.53,3.53,0,0,1,1.338-1.333,3.655,3.655,0,0,1,1.826-.474q3.281,0,3.281,4.141V22Zm2.6-15.039A4.346,4.346,0,0,1,70.1,9.427a1.923,1.923,0,0,1-1.689.854,3.193,3.193,0,0,1-1.66-.479q-.332-.2-.61-.371a1.088,1.088,0,0,0-.591-.176.681.681,0,0,0-.586.3,1.47,1.47,0,0,0-.215.859h-1.7a4.244,4.244,0,0,1,.6-2.49,1.913,1.913,0,0,1,1.636-.83,3.262,3.262,0,0,1,1.846.566q.283.176.537.317a1.124,1.124,0,0,0,.557.142.631.631,0,0,0,.537-.288,1.512,1.512,0,0,0,.205-.874Zm14.561,9.863A5.207,5.207,0,0,1,83.716,20.8a7.061,7.061,0,0,1-8.516.034,5.051,5.051,0,0,1-1.519-3.892,5.214,5.214,0,0,1,.713-2.764,4.636,4.636,0,0,1,2.031-1.8,7.012,7.012,0,0,1,3.037-.625,6.792,6.792,0,0,1,3.081.654,4.763,4.763,0,0,1,2,1.816A4.946,4.946,0,0,1,85.244,16.824Zm-4.219.02q0-2.041-1.562-2.041T77.9,16.941q0,2.256,1.582,2.256Q81.025,19.2,81.025,16.844Zm13.9,1.836a3.054,3.054,0,0,1-1.294,2.632,6.082,6.082,0,0,1-3.608.933,12.546,12.546,0,0,1-1.665-.137,10.286,10.286,0,0,1-1.616-.332v-2.92a7.958,7.958,0,0,0,3.086.82q1.221,0,1.221-.635a.5.5,0,0,0-.283-.435,10.01,10.01,0,0,0-1.484-.571,4.192,4.192,0,0,1-1.934-1.113,2.647,2.647,0,0,1-.605-1.807,2.883,2.883,0,0,1,1.235-2.456,5.8,5.8,0,0,1,3.472-.9,11.035,11.035,0,0,1,2.773.381v2.8a8.387,8.387,0,0,0-1.348-.439,5.443,5.443,0,0,0-1.23-.176,1.339,1.339,0,0,0-.654.137.421.421,0,0,0-.244.381.531.531,0,0,0,.264.459,4.664,4.664,0,0,0,1.055.42,4.894,4.894,0,0,1,2.2,1.152A2.525,2.525,0,0,1,94.922,18.68Z" transform="translate(1006 2344.5)" fill="#12263f"/>
    </g>
    <g id="Grupo_1192381" data-name="Grupo 1192381" transform="translate(498 2343.388)">
      <g id="Grupo_1192379" data-name="Grupo 1192379" transform="translate(0 0.004)">
        <path id="Trazado_1004814" data-name="Trazado 1004814" d="M50.038,17.236q.667.216,1.315.5a1.165,1.165,0,0,0,1.6-1.347,16.293,16.293,0,0,0-6.176-9.213,16.482,16.482,0,0,0-8.052-3.1l.158-.017a1.165,1.165,0,0,0,.543-2.12A11.09,11.09,0,0,0,27.109,1.8a11.09,11.09,0,0,0-12.315.138,1.165,1.165,0,0,0,.543,2.12l.158.017a16.485,16.485,0,0,0-8.052,3.1,16.293,16.293,0,0,0-6.176,9.213,1.165,1.165,0,0,0,1.6,1.347,14.05,14.05,0,0,1,1.315-.5A19.63,19.63,0,0,0,4.542,41.9a1.165,1.165,0,0,0,2.06-.74q0-.353.017-.7a18.31,18.31,0,0,0,.779,1.87,17.994,17.994,0,0,0,8.766,8.557A1.165,1.165,0,0,0,17.7,49.322q-.157-.329-.3-.663a15.755,15.755,0,0,0,4.826,2.58c1.9.619,3.087,1.193,3.911,2.455a1.165,1.165,0,0,0,1.95,0c.825-1.262,2.011-1.836,3.911-2.455a15.76,15.76,0,0,0,4.826-2.58q-.142.334-.3.663a1.165,1.165,0,0,0,1.531,1.564,17.992,17.992,0,0,0,8.766-8.557,18.311,18.311,0,0,0,.779-1.87q.016.351.017.7a1.165,1.165,0,0,0,2.06.74,19.63,19.63,0,0,0,.363-24.667Zm-.385,20.613a19.49,19.49,0,0,0-1.131-3.955,1.165,1.165,0,0,0-2.245.45,15.484,15.484,0,0,1-1.557,6.973,15.668,15.668,0,0,1-4.941,5.89,17.842,17.842,0,0,0,.482-2.5,1.165,1.165,0,0,0-2.113-.8,13.535,13.535,0,0,1-6.875,5.119,10.288,10.288,0,0,0-4.165,2.213,10.285,10.285,0,0,0-4.165-2.213A13.536,13.536,0,0,1,16.068,43.9a1.165,1.165,0,0,0-2.113.8,17.86,17.86,0,0,0,.482,2.5A15.668,15.668,0,0,1,9.5,41.317,15.485,15.485,0,0,1,7.94,34.344a1.165,1.165,0,0,0-2.245-.45,19.489,19.489,0,0,0-1.131,3.955A17.3,17.3,0,0,1,8.256,16.306a1.165,1.165,0,0,0-.841-2.04,16.187,16.187,0,0,0-3.158.518A14.029,14.029,0,0,1,21.2,6.93,1.165,1.165,0,0,0,22.378,5a11.079,11.079,0,0,0-3.49-2.395A8.756,8.756,0,0,1,26.4,4.153a1.165,1.165,0,0,0,1.424,0,8.756,8.756,0,0,1,7.509-1.547A11.08,11.08,0,0,0,31.84,5,1.165,1.165,0,0,0,33.015,6.93a14.029,14.029,0,0,1,16.946,7.855,16.193,16.193,0,0,0-3.158-.518,1.165,1.165,0,0,0-.841,2.04,17.3,17.3,0,0,1,3.691,21.542Z" transform="translate(0 -0.004)" fill="#12263f"/>
        <path id="Trazado_1004815" data-name="Trazado 1004815" d="M194.923,229.378l-2.34-1.67a1.165,1.165,0,1,0-1.354,1.9l2.34,1.67a1.165,1.165,0,0,0,1.354-1.9Z" transform="translate(-170.543 -203.401)" fill="#12263f"/>
        <path id="Trazado_1004816" data-name="Trazado 1004816" d="M279.991,227.708l-2.34,1.67a1.165,1.165,0,1,0,1.354,1.9l2.34-1.67a1.165,1.165,0,1,0-1.354-1.9Z" transform="translate(-247.813 -203.402)" fill="#12263f"/>
      </g>
      <g id="Grupo_1192380" data-name="Grupo 1192380" transform="translate(12.146 8.789)">
        <path id="Trazado_1004817" data-name="Trazado 1004817" d="M116.811,91.8a1.165,1.165,0,0,0,1.459-.116,10.837,10.837,0,0,1,5.132-2.729,1.165,1.165,0,0,0,.974-1.109c0-.014,0-.027,0-.041a4.838,4.838,0,1,0-7.566,4Zm2.728-6.5a2.513,2.513,0,0,1,2.349,1.629,13.737,13.737,0,0,0-4.385,2.344,2.508,2.508,0,0,1,2.036-3.973Z" transform="translate(-114.701 -82.965)" fill="#12263f"/>
        <path id="Trazado_1004818" data-name="Trazado 1004818" d="M306.9,88.954a10.837,10.837,0,0,1,5.132,2.729,1.165,1.165,0,0,0,1.459.116,4.838,4.838,0,1,0-7.566-4c0,.014,0,.027,0,.041A1.165,1.165,0,0,0,306.9,88.954Zm3.863-3.659a2.508,2.508,0,0,1,2.036,3.973,13.733,13.733,0,0,0-4.385-2.344A2.513,2.513,0,0,1,310.759,85.295Z" transform="translate(-285.672 -82.965)" fill="#12263f"/>
        <path id="Trazado_1004819" data-name="Trazado 1004819" d="M150.814,164.163l-1.96-1.858a7.067,7.067,0,0,0-7.627-1.376l-2.363,1-2.363-1a7.066,7.066,0,0,0-7.627,1.376l-1.96,1.858a6.2,6.2,0,0,0-.988,7.761l3.2,5.119-.033.077a6,6,0,0,0,4.036,8.19,5.83,5.83,0,0,0,11.5-.008,6,6,0,0,0,4.005-8.182l-.033-.077,3.2-5.119A6.2,6.2,0,0,0,150.814,164.163Zm-11.935,23.673a3.507,3.507,0,0,1-3.325-2.406,5.953,5.953,0,0,0,1.9-.629l1.409-.749,1.409.749a5.951,5.951,0,0,0,1.931.631A3.507,3.507,0,0,1,138.879,187.836Zm-1.692-8.629a.726.726,0,0,1,.672-.422h2.012a.746.746,0,0,1,.583,1.21l-1.006,1.264a.746.746,0,0,1-1.167,0L137.275,180a.726.726,0,0,1-.088-.788Zm12.641-8.518-2.386,3.815a1.164,1.164,0,0,0-1.925,1.249l.975,2.282a3.69,3.69,0,0,1-5.124,4.71l-.088-.047,1-1.252a3.075,3.075,0,0,0-2.406-4.991h-2.012a3.075,3.075,0,0,0-2.406,4.991l1,1.252-.088.047a3.69,3.69,0,0,1-5.124-4.711l.975-2.282a1.164,1.164,0,0,0-1.925-1.248l-2.386-3.815a3.862,3.862,0,0,1,.616-4.835l1.96-1.858a4.737,4.737,0,0,1,5.113-.922l2.818,1.2a1.165,1.165,0,0,0,.911,0l2.818-1.2a4.737,4.737,0,0,1,5.113.922l1.96,1.858A3.862,3.862,0,0,1,149.827,170.689Z" transform="translate(-123.901 -152.17)" fill="#12263f"/>
      </g>
    </g>
    <g id="Grupo_1192382" data-name="Grupo 1192382" transform="translate(919.542 2343.5)">
      <path id="Trazado_1004820" data-name="Trazado 1004820" d="M77.186,27.453l-4.8-.961-3.88-3.88a1.583,1.583,0,0,0-1.231-.459l-5.825.416a9.892,9.892,0,0,0-.41-1.629L65.9,18.857a1.582,1.582,0,0,0,.733-.64l2.863-4.772,5.773-1.924a1.582,1.582,0,0,0-1-3l-6.328,2.109a1.582,1.582,0,0,0-.856.687l-2.9,4.835-4.7,2.014q-.247-.293-.514-.551a8.784,8.784,0,0,0,1.387-1.2,7.99,7.99,0,0,0,2.283-5.34,5.169,5.169,0,0,0-2.612-4.552,5.824,5.824,0,0,1,5.248-3.358,1.582,1.582,0,0,0,0-3.164,8.937,8.937,0,0,0-8.239,5.464,14.075,14.075,0,0,0-4.617,0A8.936,8.936,0,0,0,44.181,0a1.582,1.582,0,0,0,0,3.164,5.824,5.824,0,0,1,5.248,3.358,5.169,5.169,0,0,0-2.612,4.552,7.99,7.99,0,0,0,2.283,5.34,8.789,8.789,0,0,0,1.387,1.2q-.266.258-.514.551l-4.7-2.014-2.9-4.835a1.582,1.582,0,0,0-.856-.687L35.189,8.519a1.582,1.582,0,0,0-1,3l5.773,1.924,2.863,4.772a1.581,1.581,0,0,0,.733.64l4.861,2.083a9.891,9.891,0,0,0-.41,1.629l-5.825-.416a1.581,1.581,0,0,0-1.231.459l-3.88,3.88-4.8.961a1.582,1.582,0,1,0,.62,3.1L38.163,29.5a1.582,1.582,0,0,0,.808-.433l3.708-3.708,5.3.379a10.07,10.07,0,0,0,.249,1.217l-5.536,1.582a1.582,1.582,0,0,0-1.019.9l-2.906,6.781L34.1,38.082a1.582,1.582,0,1,0,1.175,2.938L40.55,38.91a1.582,1.582,0,0,0,.867-.846l2.868-6.691,5.3-1.516c.051.071.1.143.156.213.1.133.208.26.316.383A8.845,8.845,0,0,0,47.7,31.974a9.864,9.864,0,0,0-2.992,7.577A18.854,18.854,0,0,0,47.413,49c1.98,3.227,4.578,5,7.315,5s5.335-1.777,7.315-5a18.854,18.854,0,0,0,2.7-9.445,9.864,9.864,0,0,0-2.992-7.576,8.84,8.84,0,0,0-2.361-1.521c.108-.124.214-.25.316-.383.053-.07.1-.141.156-.213l5.305,1.516,2.868,6.691a1.582,1.582,0,0,0,.867.846l5.273,2.109a1.582,1.582,0,0,0,1.175-2.938l-4.665-1.866-2.906-6.78a1.582,1.582,0,0,0-1.019-.9l-5.536-1.582a10.071,10.071,0,0,0,.249-1.217l5.3-.379,3.708,3.708a1.582,1.582,0,0,0,.808.433l5.273,1.055a1.582,1.582,0,1,0,.62-3.1ZM54.728,8.437c1.113,0,4.746.19,4.746,2.637a5.144,5.144,0,0,1-4.746,4.746,5.144,5.144,0,0,1-4.746-4.746C49.982,8.628,53.614,8.437,54.728,8.437ZM47.873,39.656H61.582a14.856,14.856,0,0,1-.676,4.219H48.549A14.853,14.853,0,0,1,47.873,39.656Zm6.854,11.18c-1.72,0-3.491-1.546-4.8-3.8h9.6C58.219,49.29,56.448,50.836,54.728,50.836Zm6.351-14.344h-12.7c1.285-3.366,4.7-3.8,6.351-3.8S59.794,33.126,61.079,36.492ZM51.036,24.258c0-2.859,1.69-5.273,3.691-5.273s3.691,2.415,3.691,5.273-1.69,5.273-3.691,5.273S51.036,27.116,51.036,24.258Z" transform="translate(0)" fill="#12263f"/>
    </g>
    <path id="Trazado_1004821" data-name="Trazado 1004821" d="M76.156,39.731l-1.142-4.079a.791.791,0,0,0-.3-.429l-5.54-3.984a1.4,1.4,0,0,0-.342-1.837L59.94,22.565a9.688,9.688,0,0,0-1.613-1.956,5.933,5.933,0,0,0,1.351-1.425l8.371-5.079,3.28,1.034A.791.791,0,1,0,71.8,13.63l-3.622-1.142a.792.792,0,0,0-.648.078l-6.921,4.2A5.886,5.886,0,0,0,58.185,11.1a3.064,3.064,0,0,0-.56-4.509V4.7A4.807,4.807,0,0,0,53.951.024a.829.829,0,0,0-1.025.805V2.312a.791.791,0,0,0,1.582,0V1.95A3.228,3.228,0,0,1,56.042,4.7V6.034c-.059,0-.118-.005-.178-.005H54.509V5.684a.791.791,0,0,0-1.582,0v.345H51.484V.829A.829.829,0,0,0,50.458.024,4.807,4.807,0,0,0,46.785,4.7V6.516a3.064,3.064,0,0,0-.665,4.58,5.892,5.892,0,0,0-2.429,5.669l-6.92-4.2a.791.791,0,0,0-.648-.078L32.5,13.63a.791.791,0,0,0,.476,1.509l3.28-1.034,8.372,5.08a5.937,5.937,0,0,0,1.35,1.424,9.691,9.691,0,0,0-1.614,1.957L35.471,29.4a1.4,1.4,0,0,0-.342,1.837l-5.54,3.984a.791.791,0,0,0-.3.429L28.148,39.73a.791.791,0,1,0,1.524.427l1.067-3.812,5.426-3.9.4.448a1.421,1.421,0,0,0,1.964.16l1.2-.977a.791.791,0,0,0-1-1.228l-1.084.881-.77-.869h0l-.284-.32,6.566-5.048a9.58,9.58,0,0,0-.24,1.955l-1.568,1.274a.791.791,0,1,0,1,1.228l.723-.588c.037.206.08.411.131.616l.268,1.082L40.2,33.441a.791.791,0,0,0-.319.545l-1.063,8.889a1.57,1.57,0,0,0,1.559,1.757h.091v2.785L38.1,49.785a.791.791,0,0,0-.232.559v2.863a.791.791,0,0,0,1.582,0V50.673L41.816,48.3a.791.791,0,0,0,.232-.559V44.622a1.567,1.567,0,0,0,1.393-1.39l.731-6.714.532-.466.958,3.869a6.686,6.686,0,0,0,12.98,0l.958-3.869.532.466.731,6.714a1.567,1.567,0,0,0,1.393,1.39v3.122a.791.791,0,0,0,.232.559l2.369,2.369v2.536a.791.791,0,1,0,1.582,0V50.345a.791.791,0,0,0-.232-.559l-2.369-2.369V44.632h.091a1.57,1.57,0,0,0,1.559-1.757l-1.063-8.889a.791.791,0,0,0-.319-.545l-3.27-2.384.268-1.082c.051-.2.094-.41.131-.616l4.543,3.692a1.421,1.421,0,0,0,1.964-.16l.4-.448,5.426,3.9,1.067,3.812a.791.791,0,0,0,1.524-.426Zm-24-13.8-3.629-4.224a5.845,5.845,0,0,0,.991.086H54.79a5.9,5.9,0,0,0,.99-.085ZM48.367,4.7A3.228,3.228,0,0,1,49.9,1.95V6.029H48.439l-.072,0V4.7Zm-.627,7.282h1.888a.791.791,0,1,0,0-1.582H47.751a1.481,1.481,0,0,1,.688-2.792h7.425a1.481,1.481,0,0,1,.688,2.792H52.779a.791.791,0,1,0,0,1.582h3.785a4.3,4.3,0,0,1-1.774,8.226H49.514a4.3,4.3,0,0,1-1.774-8.226ZM42.9,35.531a.791.791,0,0,0-.265.509l-.763,7.009h-1.48l1.02-8.532,2.469-1.8.4,1.607Zm14.208,4.01a5.075,5.075,0,0,1-3.836,3.753c-.108.024-.217.044-.327.061V38.544a.791.791,0,1,0-1.582,0v4.812c-.11-.017-.219-.037-.327-.061A5.076,5.076,0,0,1,47.2,39.541L44.736,29.6a8.017,8.017,0,0,1,2.012-7.526l4.613,5.369v7.733a.791.791,0,1,0,1.582,0V27.439l4.613-5.369A8.017,8.017,0,0,1,59.569,29.6ZM62.9,34.517l1.02,8.532h-1.48l-.763-7.009a.792.792,0,0,0-.265-.509l-1.379-1.208.4-1.607Zm3.763-2.789-5.27-4.283a9.58,9.58,0,0,0-.24-1.955l6.566,5.048-.283.32,0,0Z" transform="translate(696.361 2341)" fill="#12263f" stroke="#12263f" stroke-width="1"/>
  </g>
</svg>
