<svg xmlns="http://www.w3.org/2000/svg" width="61.899" height="61.899" viewBox="0 0 61.899 61.899">
  <g id="Grupo_1072055" data-name="Grupo 1072055" transform="translate(0.001 0)">
    <g id="Grupo_1072053" data-name="Grupo 1072053" transform="translate(-0.001 0)">
      <ellipse id="Elipse_4742" data-name="Elipse 4742" cx="30.949" cy="30.949" rx="30.949" ry="30.949" transform="translate(0)" fill="#fcc510"/>
    </g>
    <g id="Layer_2" data-name="Layer 2" transform="translate(16.045 15.643)">
      <path id="Trazado_993774" data-name="Trazado 993774" d="M1.927,16.327a1.546,1.546,0,0,0,2.034-.8l.948-2.164H11l.948,2.164a1.546,1.546,0,1,0,2.832-1.237L9.372,1.927a1.546,1.546,0,0,0-2.832,0L1.13,14.293a1.546,1.546,0,0,0,.8,2.034ZM7.956,6.41l1.7,3.864h-3.4Z" transform="translate(0 0.001)" fill="#12263f"/>
      <path id="Trazado_993775" data-name="Trazado 993775" d="M27.278,13H2.546a1.546,1.546,0,1,0,0,3.092H27.278a1.546,1.546,0,1,0,0-3.092Z" transform="translate(0 6.549)" fill="#12263f"/>
      <path id="Trazado_993776" data-name="Trazado 993776" d="M27.278,17H2.546a1.546,1.546,0,1,0,0,3.092H27.278a1.546,1.546,0,0,0,0-3.092Z" transform="translate(0 8.733)" fill="#12263f"/>
      <path id="Trazado_993777" data-name="Trazado 993777" d="M21.275,9H13.546a1.546,1.546,0,0,0,0,3.092h7.729a1.546,1.546,0,0,0,0-3.092Z" transform="translate(6.004 4.366)" fill="#12263f"/>
      <path id="Trazado_993778" data-name="Trazado 993778" d="M21.275,5H13.546a1.546,1.546,0,0,0,0,3.092h7.729a1.546,1.546,0,0,0,0-3.092Z" transform="translate(6.004 2.183)" fill="#12263f"/>
      <path id="Trazado_993779" data-name="Trazado 993779" d="M13.546,4.092h7.729a1.546,1.546,0,0,0,0-3.092H13.546a1.546,1.546,0,0,0,0,3.092Z" transform="translate(6.004)" fill="#12263f"/>
    </g>
  </g>
</svg>
