<svg xmlns="http://www.w3.org/2000/svg" width="85" height="85" viewBox="0 0 85 85">
  <g id="Grupo_1192461" data-name="Grupo 1192461" transform="translate(-184.601 -674.002)">
    <rect id="Image_Place_Holder" data-name="Image Place Holder" width="85" height="85" rx="10" transform="translate(184.601 674.002)" fill="#e795ff"/>
    <g id="Grupo_1192464" data-name="Grupo 1192464" transform="translate(196.04 690.785)">
      <g id="Grupo_1192462" data-name="Grupo 1192462" transform="translate(6.695 0.753)">
        <path id="Trazado_1005006" data-name="Trazado 1005006" d="M87.546,7.5H60.829l-.568.236L59.458,9V52.128l3.842,3.8.7,1.5h23.55a2.048,2.048,0,0,0,2.048-2.048V9.548A2.048,2.048,0,0,0,87.546,7.5Z" transform="translate(-54.835 -7.5)" fill="#c9f0fe"/>
        <path id="Trazado_1005007" data-name="Trazado 1005007" d="M18.254,9.448A2.048,2.048,0,0,1,19.67,7.5H15.491a2.048,2.048,0,0,0-2.048,2.048V48.266L14.7,48.8l3.553,3.516V9.448Z" transform="translate(-13.443 -7.5)" fill="#9be8fd"/>
        <path id="Trazado_1005008" data-name="Trazado 1005008" d="M306.111,249.015a9.669,9.669,0,0,0-3.349-2.184h-1.1l-3.742,2.705-.8,1.893-1.406,3.742a22.589,22.589,0,0,1,.445,2.545c-.076.134,1.966,4.654,1.966,4.654l3.265,2.382,1.38.174a9.706,9.706,0,0,0,3.349-15.911Z" transform="translate(-267.352 -222.789)" fill="#6b7ed9"/>
        <path id="Trazado_1005009" data-name="Trazado 1005009" d="M244.2,256.861a9.706,9.706,0,0,1,3.349-15.911,9.707,9.707,0,1,0,0,18.1A9.667,9.667,0,0,1,244.2,256.861Z" transform="translate(-212.142 -216.907)" fill="#4d66d2"/>
        <path id="Trazado_1005010" data-name="Trazado 1005010" d="M297.748,276.092l-.633,1.492-1.406,3.742a22.588,22.588,0,0,1,.445,2.545c-.06.106,1.2,2.946,1.733,4.136a6.128,6.128,0,1,0-.139-11.915Z" transform="translate(-267.353 -248.943)" fill="#a2e82d"/>
        <path id="Trazado_1005011" data-name="Trazado 1005011" d="M275.566,276.128a6.127,6.127,0,0,0,0,12.21A9.709,9.709,0,0,1,275.566,276.128Z" transform="translate(-244.187 -249.142)" fill="#98d829"/>
        <path id="Trazado_1005012" data-name="Trazado 1005012" d="M417.922,424.737l.872-.872a1.464,1.464,0,0,1,2.071,0l4.343,4.343a1.464,1.464,0,0,1,0,2.071l-.872.872a1.464,1.464,0,0,1-2.071,0l-4.343-4.343A1.465,1.465,0,0,1,417.922,424.737Z" transform="translate(-376.903 -381.653)" fill="#ff4fb9"/>
        <path id="Trazado_1005013" data-name="Trazado 1005013" d="M22.6,422.47v-7.112a2.048,2.048,0,0,0-2.048-2.048H13.443Z" transform="translate(-13.443 -372.544)" fill="#62ddfc"/>
      </g>
      <g id="Grupo_1192463" data-name="Grupo 1192463" transform="translate(5.941 0)">
        <path id="Trazado_1005014" data-name="Trazado 1005014" d="M227.4,68.783a3.2,3.2,0,0,1,1.786.543.753.753,0,1,0,.837-1.253,4.735,4.735,0,1,0,0,7.875.753.753,0,0,0-.838-1.253,3.226,3.226,0,1,1-1.786-5.913Z" transform="translate(-200.89 -60.518)"/>
        <path id="Trazado_1005015" data-name="Trazado 1005015" d="M157.605,67.275H155.38a.753.753,0,0,0-.753.753v7.962a.753.753,0,0,0,.753.753h2.81a2.844,2.844,0,0,0,1.53-5.241,2.642,2.642,0,0,0-2.115-4.228Zm0,1.507a1.137,1.137,0,1,1,0,2.274h-1.471V68.782Zm.585,6.456h-2.057V72.562h2.057a1.338,1.338,0,0,1,0,2.675Z" transform="translate(-139.69 -60.517)"/>
        <path id="Trazado_1005016" data-name="Trazado 1005016" d="M75.66,74.774h3.5l.562,1.483a.753.753,0,0,0,1.409-.534L78.115,67.76a.754.754,0,0,0-1.409,0l-3.018,7.962a.753.753,0,0,0,1.409.534Zm1.751-4.62,1.18,3.114h-2.36Z" transform="translate(-66.838 -60.516)"/>
        <path id="Trazado_1005017" data-name="Trazado 1005017" d="M89.729,186.209a.753.753,0,0,0,1.1,0l2.547-2.729,2.547,2.729a.753.753,0,0,0,1.1,0l2.547-2.729,2.547,2.729a.753.753,0,0,0,1.1,0l3.1-3.319a.753.753,0,1,0-1.1-1.028l-2.547,2.729-2.547-2.729a.753.753,0,0,0-1.1,0l-2.547,2.729-2.547-2.729a.753.753,0,0,0-1.1,0l-2.547,2.729-2.547-2.729a.753.753,0,1,0-1.1,1.028Z" transform="translate(-78.343 -163.377)"/>
        <path id="Trazado_1005018" data-name="Trazado 1005018" d="M6.162,42.053l9.16,9.16a.758.758,0,0,0,.533.221h8.919a.753.753,0,0,0,0-1.507H16.608V43.568a2.8,2.8,0,0,0-2.8-2.8H7.448V2.8A1.3,1.3,0,0,1,8.743,1.507H39.4A1.3,1.3,0,0,1,40.7,2.8V23.6a10.46,10.46,0,1,0,0,20.49v4.543A1.3,1.3,0,0,1,39.4,49.927H28.29a.753.753,0,1,0,0,1.507H39.4a2.8,2.8,0,0,0,2.8-2.8V43.658a10.381,10.381,0,0,0,3.224-1.9l1.654,1.654a2.212,2.212,0,0,0,.1,3.03l4.343,4.343a2.22,2.22,0,0,0,3.136,0l.872-.872a2.216,2.216,0,0,0,0-3.136l-4.343-4.343a2.219,2.219,0,0,0-3.039-.088L46.5,40.693a10.457,10.457,0,0,0-4.29-16.663V2.8A2.8,2.8,0,0,0,39.4,0H8.743a2.8,2.8,0,0,0-2.8,2.8V41.52a.76.76,0,0,0,.221.533ZM50.122,43.5l4.343,4.343a.71.71,0,0,1,0,1.005l-.872.872a.712.712,0,0,1-1.005,0l-4.343-4.343a.71.71,0,0,1,0-1.005h0l.872-.872A.712.712,0,0,1,50.122,43.5Zm-5.2-3.324a8.953,8.953,0,1,1,0-12.662A8.964,8.964,0,0,1,44.922,40.175Zm-31.115,2.1A1.3,1.3,0,0,1,15.1,43.568v5.293L8.513,42.273Z" transform="translate(-5.941 0)"/>
        <path id="Trazado_1005019" data-name="Trazado 1005019" d="M308.57,320.261l-2,2-.983-.983a.753.753,0,0,0-1.066,1.065l1.515,1.515a.754.754,0,0,0,1.066,0l2.534-2.534a.753.753,0,0,0-1.066-1.065Z" transform="translate(-274.328 -287.89)"/>
        <path id="Trazado_1005020" data-name="Trazado 1005020" d="M264.468,270.4a6.881,6.881,0,1,0,11.337,7.206.753.753,0,0,0-1.417-.512,5.325,5.325,0,0,1-1.254,1.971,5.374,5.374,0,1,1,1.426-5.056.753.753,0,1,0,1.465-.35,6.882,6.882,0,0,0-11.557-3.259Z" transform="translate(-236.685 -241.422)"/>
      </g>
    </g>
  </g>
</svg>
