<svg xmlns="http://www.w3.org/2000/svg" xmlns:xlink="http://www.w3.org/1999/xlink" width="80" height="88.2" viewBox="0 0 80 88.2">
  <defs>
    <clipPath id="clip-path">
      <path id="Trazado_997360" data-name="Trazado 997360" d="M35.828,44.1A4.406,4.406,0,0,1,40,39.5a4.621,4.621,0,0,1,0,9.2,4.406,4.406,0,0,1-4.172-4.6M62.086,0a16.613,16.613,0,0,0-8.768,2.541A36.457,36.457,0,0,0,40,0C17.944,0,0,19.784,0,44.1S17.944,88.2,40,88.2a36.457,36.457,0,0,0,13.318-2.542A16.608,16.608,0,0,0,62.086,88.2C71.963,88.2,80,79.34,80,68.45v-48.7C80,8.86,71.963,0,62.086,0Z" transform="translate(0 -0.001)" fill="none"/>
    </clipPath>
    <linearGradient id="linear-gradient" y1="1" x2="0.008" y2="1" gradientUnits="objectBoundingBox">
      <stop offset="0" stop-color="#d1d3d4"/>
      <stop offset="1" stop-color="#f1f2f2"/>
    </linearGradient>
    <clipPath id="clip-path-2">
      <path id="Trazado_997361" data-name="Trazado 997361" d="M30.024,47.408C30.024,39.52,35.845,33.1,43,33.1S55.976,39.52,55.976,47.408,50.155,61.713,43,61.713,30.024,55.3,30.024,47.408M56.977,20.7A25.851,25.851,0,0,0,43,16.538c-15.44,0-28,13.848-28,30.87S27.56,78.278,43,78.278a25.841,25.841,0,0,0,13.977-4.162,7.416,7.416,0,0,0,6.511,4.162C67.637,78.278,71,74.57,71,70V24.82c0-4.574-3.363-8.282-7.512-8.282A7.415,7.415,0,0,0,56.977,20.7" transform="translate(-15 -16.538)" fill="none"/>
    </clipPath>
    <linearGradient id="linear-gradient-2" x1="-0.163" y1="1.163" x2="-0.152" y2="1.163" gradientUnits="objectBoundingBox">
      <stop offset="0" stop-color="#e24263"/>
      <stop offset="0.109" stop-color="#e0375a"/>
      <stop offset="0.32" stop-color="#de284f"/>
      <stop offset="0.576" stop-color="#dd2048"/>
      <stop offset="1" stop-color="#dd1e47"/>
    </linearGradient>
  </defs>
  <g id="Grupo_1178132" data-name="Grupo 1178132" transform="translate(0 -0.001)">
    <g id="Grupo_1178129" data-name="Grupo 1178129" transform="translate(0 0.001)">
      <g id="Grupo_1178128" data-name="Grupo 1178128" clip-path="url(#clip-path)">
        <rect id="Rect치ngulo_455110" data-name="Rect치ngulo 455110" width="80" height="88.2" transform="translate(0 0)" fill="url(#linear-gradient)"/>
      </g>
    </g>
    <g id="Grupo_1178131" data-name="Grupo 1178131" transform="translate(12 13.231)">
      <g id="Grupo_1178130" data-name="Grupo 1178130" clip-path="url(#clip-path-2)">
        <rect id="Rect치ngulo_455111" data-name="Rect치ngulo 455111" width="56" height="61.74" transform="translate(0 0)" fill="url(#linear-gradient-2)"/>
      </g>
    </g>
  </g>
</svg>
