<svg xmlns="http://www.w3.org/2000/svg" width="130" height="130" viewBox="0 0 130 130">
  <g id="Grupo_1177374" data-name="Grupo 1177374" transform="translate(-72.746 -7992)">
    <g id="Elipse_13628" data-name="Elipse 13628" transform="translate(72.746 7992)" fill="#fff7e2" stroke="#cff878" stroke-width="6">
      <circle cx="65" cy="65" r="65" stroke="none"/>
      <circle cx="65" cy="65" r="62" fill="none"/>
    </g>
    <g id="Layer_x0020_1" transform="translate(104.27 8023.599)">
      <g id="_294865408" transform="translate(0 0.137)">
        <path id="_294873712" d="M34.828,39.351h0Zm-6.48,0v.731a.731.731,0,0,1-.73.731h7.21a.731.731,0,0,0,.018-1.462h6.537V32.68H28.348Z" transform="translate(15.037 17.581)" fill="#836e67" fill-rule="evenodd"/>
        <path id="_294873496" d="M25.454,39.351h0Zm-6.48,0v.731a.731.731,0,0,1-.73.731h7.21a.731.731,0,0,0,.018-1.462h6.537V32.68H18.973Z" transform="translate(9.933 17.581)" fill="#a1887f" fill-rule="evenodd"/>
        <path id="_294873784" d="M18.155,33.664h-6.49a.731.731,0,0,0,.73-.731v-7.4H25.43V32.2H18.9a.731.731,0,0,1-.016,1.462Zm-6.491,6.671h0ZM4.378,25.53h6.555v7.4a.731.731,0,0,0,.731.731H5.109v6.672H19.616V33.663H33.359a.731.731,0,0,0,.008-1.462H26.892V25.53H39.927v7.4a.73.73,0,0,0,.731.731h0a.731.731,0,0,0,.73-.731V24.8a.731.731,0,0,0-.731-.731H19.616V17.4h6.545a.731.731,0,0,1-.731-.731v-.731H18.885a.731.731,0,1,1,0,1.462h-.731v6.671H3.647" transform="translate(1.986 8.464)" fill="#836e67" fill-rule="evenodd"/>
        <path id="_294873928" d="M16.056,7.755h0ZM8.844,9.217h7.211a.731.731,0,0,0,.02-1.462h6.535V1.084H9.575v7.4A.731.731,0,0,1,8.844,9.217Z" transform="translate(4.815 0.378)" fill="#a1887f" fill-rule="evenodd"/>
        <path id="_294873808" d="M23.338,9.732A.731.731,0,0,0,24.069,9V.868a.731.731,0,0,0-.719-.731H8.852a.731.731,0,0,1,.719.731V1.6H22.607V9a.731.731,0,0,0,.731.731Zm-6.555,0V16.4H29.829V9.732H16.783Z" transform="translate(4.819 -0.137)" fill="#a1887f" fill-rule="evenodd"/>
        <path id="_294873952" d="M39.926,7.806h0Zm-7.2,1.462H26.184v6.671H39.195V9.268Zm0,0H26.184v6.671H39.195V9.268Zm6.467,16.266h.731a.731.731,0,0,0,0-1.462H33.459V24.8a.731.731,0,0,1-.73.731Zm7.3-1.462H33.459V17.4H46.495ZM33.459,1.134v7.4a.731.731,0,0,1-1.462,0V7.806H25.473a.731.731,0,0,1-.02,1.462h-.731v6.671H18.231a.731.731,0,0,1,.731.731V17.4H32v7.4a.731.731,0,0,0,.731.731H26.184v6.672H40.657V25.534h6.57a.731.731,0,0,0,.73-.731V16.67a.731.731,0,0,0-.731-.731H40.657V9.268h6.569a.73.73,0,0,1-.731-.731v-7.4Z" transform="translate(9.926 0.405)" fill="#a1887f" fill-rule="evenodd"/>
        <path id="_294873736" d="M32.724,9.732A.731.731,0,0,0,33.455,9V.868a.731.731,0,0,0-.719-.731h-14.5a.731.731,0,0,1,.719.731V1.6H31.993V9A.731.731,0,0,0,32.724,9.732Zm0,6.671h6.467V9.732H26.18V16.4Z" transform="translate(9.93 -0.137)" fill="#836e67" fill-rule="evenodd"/>
        <path id="_294873184" d="M34.815,29.335h0Zm0-6.671h0Zm6.569,0h0Zm-13.036,0v6.672H41.384v.731a.73.73,0,0,0,.731.731h0a.731.731,0,0,0,.73-.731V21.932a.731.731,0,0,0-.731-.731h-14.5a.731.731,0,0,1,.731.731Z" transform="translate(15.037 11.331)" fill="#836e67" fill-rule="evenodd"/>
        <path id="_294872992" d="M25.452,28.819h0Zm-6.491-6.672v7.4a.731.731,0,0,1-.73.731h7.221a.731.731,0,0,0,.016-1.462H32V22.148H18.961Z" transform="translate(9.926 11.847)" fill="#a1887f" fill-rule="evenodd"/>
        <path id="_294872920" d="M16.056,28.819h0ZM8.844,30.281h7.211a.731.731,0,0,0,.016-1.462h6.539V22.148H9.575v7.4a.731.731,0,0,1-.73.731Z" transform="translate(4.815 11.847)" fill="#836e67" fill-rule="evenodd"/>
        <path id="_294872896" d="M7.2,28.819h0ZM1.462,30.281H7.2a.731.731,0,0,0,.016-1.462h5.709V22.148H1.462v7.4A.731.731,0,0,1,0,29.558v8.125a.731.731,0,0,1,.731-.731h.731V30.281Z" transform="translate(0 11.847)" fill="#a1887f" fill-rule="evenodd"/>
        <path id="_294872824" d="M29.833,33.664h-6.49a.731.731,0,0,0,.73-.731v-7.4H37.108V32.2H30.58a.731.731,0,0,1-.016,1.462Zm-6.491,6.671h0Zm7.953,0V33.663H45.037a.731.731,0,0,0,.008-1.462H38.57V25.53H51.605v7.4a.73.73,0,0,0,.731.731h0a.731.731,0,0,0,.73-.731V24.8a.731.731,0,0,0-.731-.731H31.295V17.4h6.545a.731.731,0,0,1-.731-.731v-.731H30.564a.731.731,0,1,1,0,1.462h-.731v6.671H8.844a.731.731,0,0,1,.731.731v.731H22.611v7.4a.731.731,0,0,0,.731.731H16.787v6.672H31.294Z" transform="translate(4.815 8.464)" fill="#a1887f" fill-rule="evenodd"/>
        <path id="_294873256" d="M32.728,30.8h0a.731.731,0,0,0,.73-.731V21.932a.731.731,0,0,0-.731-.731h-14.5a.731.731,0,0,1,.731.731v.731H32v7.4a.731.731,0,0,0,.731.731Zm0,6.672h0Zm6.467,0V30.8H26.184v6.672H39.195Z" transform="translate(9.926 11.331)" fill="#836e67" fill-rule="evenodd"/>
        <path id="_294873112" d="M16.055,39.351h0Zm-6.48,0v.731a.731.731,0,0,1-.73.731h7.21a.731.731,0,0,0,.018-1.462H22.61V32.68H9.575Z" transform="translate(4.816 17.581)" fill="#836e67" fill-rule="evenodd"/>
        <path id="_294872872" d="M7.2,39.351h0ZM1.462,40.813H7.2a.731.731,0,0,0,.018-1.462h5.707V32.68H1.462v7.4A.731.731,0,0,1,0,40.09v8.125a.731.731,0,0,0,.731.731H7.2a.731.731,0,0,0,0-1.462H1.462V40.813Z" transform="translate(0 17.581)" fill="#a1887f" fill-rule="evenodd"/>
        <path id="_294872368" d="M23.339,41.328h0a.731.731,0,0,0,.73-.731V32.464a.731.731,0,0,0-.723-.731H8.85a.731.731,0,0,1,.723.731V33.2H22.608v7.4a.731.731,0,0,0,.731.731ZM29.83,48V41.328H16.784V48Z" transform="translate(4.818 17.066)" fill="#a1887f" fill-rule="evenodd"/>
        <path id="_294872056" d="M32.725,41.328h0a.731.731,0,0,0,.73-.731V32.464a.731.731,0,0,0-.723-.731h-14.5a.731.731,0,0,1,.723.731V33.2H31.994v7.4a.731.731,0,0,0,.731.731ZM39.192,48V41.328H26.181V48Z" transform="translate(9.929 17.066)" fill="#836e67" fill-rule="evenodd"/>
        <path id="_294872200" d="M48.9,15a.731.731,0,0,1-.731-.731v-7.4H33.266v7.4a.731.731,0,1,1-1.462,0V6.134a.731.731,0,0,1,.731-.731H48.9a.73.73,0,0,1,.731.731v8.133A.73.73,0,0,1,48.9,15Z" transform="translate(17.316 2.73)" fill-rule="evenodd"/>
        <path id="_294871792" d="M23.165,15a.731.731,0,0,1-.731-.73V6.134a.731.731,0,0,1,.731-.731H37.637a.731.731,0,0,1,0,1.462H23.9v7.4a.731.731,0,0,1-.731.731Z" transform="translate(12.214 2.73)" fill-rule="evenodd"/>
        <path id="_294871744" d="M23.165,15a.731.731,0,0,1-.731-.73V6.134a.731.731,0,0,1,.731-.731H37.637a.731.731,0,0,1,0,1.462H23.9v7.4a.731.731,0,0,1-.731.731Z" transform="translate(12.214 2.73)" fill-rule="evenodd"/>
        <path id="_294872128" d="M13.771,15a.731.731,0,0,1-.731-.73V6.134a.731.731,0,0,1,.731-.731H28.279a.731.731,0,0,1,0,1.462H14.5v7.4A.73.73,0,0,1,13.771,15Z" transform="translate(7.1 2.73)" fill-rule="evenodd"/>
        <path id="_294871984" d="M13.771,15a.731.731,0,0,1-.731-.73V6.134a.731.731,0,0,1,.731-.731H28.279a.731.731,0,0,1,0,1.462H14.5v7.4A.73.73,0,0,1,13.771,15Z" transform="translate(7.1 2.73)" fill-rule="evenodd"/>
        <path id="_294872488" d="M4.922,15a.731.731,0,0,1-.731-.73V6.134A.731.731,0,0,1,4.922,5.4H18.589a.731.731,0,0,1,0,1.462H5.653v7.4A.73.73,0,0,1,4.922,15Z" transform="translate(2.282 2.73)" fill-rule="evenodd"/>
        <path id="_294871936" d="M4.922,15a.731.731,0,0,1-.731-.73V6.134A.731.731,0,0,1,4.922,5.4H18.589a.731.731,0,0,1,0,1.462H5.653v7.4A.73.73,0,0,1,4.922,15Z" transform="translate(2.282 2.73)" fill-rule="evenodd"/>
        <path id="_294872272" d="M.731,15A.731.731,0,0,1,0,14.268V6.134A.731.731,0,0,1,.731,5.4H7.2a.731.731,0,0,1,0,1.462H1.462v7.4A.73.73,0,0,1,.731,15Z" transform="translate(0 2.73)" fill-rule="evenodd"/>
        <path id="_294871432" d="M.731,15A.731.731,0,0,1,0,14.268V6.134A.731.731,0,0,1,.731,5.4H7.2a.731.731,0,0,1,0,1.462H1.462v7.4A.73.73,0,0,1,.731,15Z" transform="translate(0 2.73)" fill-rule="evenodd"/>
        <path id="_294871384" d="M46.331,9.732A.731.731,0,0,1,45.6,9V1.6H37.262a.731.731,0,1,1,0-1.462h9.069a.73.73,0,0,1,.731.731V9a.73.73,0,0,1-.731.731Z" transform="translate(19.89 -0.137)" fill-rule="evenodd"/>
        <path id="_294871504" d="M46.331,9.732A.731.731,0,0,1,45.6,9V1.6H37.262a.731.731,0,1,1,0-1.462h9.069a.73.73,0,0,1,.731.731V9a.73.73,0,0,1-.731.731Z" transform="translate(19.89 -0.137)" fill-rule="evenodd"/>
        <path id="_294871192" d="M42.408,9.783a.73.73,0,0,1-.731-.731V1.65H27.911a.731.731,0,1,1,0-1.462h14.5a.731.731,0,0,1,.731.731V9.052a.731.731,0,0,1-.731.731Z" transform="translate(14.799 -0.11)" fill-rule="evenodd"/>
        <path id="_294871288" d="M32.986,9.732A.731.731,0,0,1,32.255,9V1.6H18.489a.731.731,0,1,1,0-1.462h14.5a.731.731,0,0,1,.731.731V9a.731.731,0,0,1-.731.731Z" transform="translate(9.668 -0.137)" fill-rule="evenodd"/>
        <path id="_294871552" d="M32.986,9.732A.731.731,0,0,1,32.255,9V1.6H18.489a.731.731,0,1,1,0-1.462h14.5a.731.731,0,0,1,.731.731V9a.731.731,0,0,1-.731.731Z" transform="translate(9.668 -0.137)" fill-rule="evenodd"/>
        <path id="_294871720" d="M23.6,9.732A.731.731,0,0,1,22.868,9V1.6H9.1A.731.731,0,1,1,9.1.137H23.6a.731.731,0,0,1,.731.731V9a.731.731,0,0,1-.731.731Z" transform="translate(4.558 -0.137)" fill-rule="evenodd"/>
        <path id="_294871672" d="M23.6,9.732A.731.731,0,0,1,22.868,9V1.6H9.1A.731.731,0,1,1,9.1.137H23.6a.731.731,0,0,1,.731.731V9a.731.731,0,0,1-.731.731Z" transform="translate(4.558 -0.137)" fill-rule="evenodd"/>
        <path id="_294871072" d="M13.66,9.732A.731.731,0,0,1,12.929,9V1.6H1.462V9A.731.731,0,0,1,0,9V.868A.731.731,0,0,1,.731.137H13.66a.731.731,0,0,1,.731.731V9a.731.731,0,0,1-.731.731Z" transform="translate(0 -0.137)" fill-rule="evenodd"/>
        <path id="_294871648" d="M48.9,25.53a.731.731,0,0,1-.731-.731V17.4H33.266v7.4a.731.731,0,1,1-1.462,0V16.666a.731.731,0,0,1,.731-.731H48.9a.73.73,0,0,1,.731.731V24.8A.73.73,0,0,1,48.9,25.53Z" transform="translate(17.316 8.464)" fill-rule="evenodd"/>
        <path id="_294871624" d="M23.165,25.53a.731.731,0,0,1-.731-.731V16.666a.731.731,0,0,1,.731-.731H37.637a.731.731,0,1,1,0,1.462H23.9v7.4a.731.731,0,0,1-.731.731Z" transform="translate(12.214 8.464)" fill-rule="evenodd"/>
        <path id="_294870256" d="M23.165,25.53a.731.731,0,0,1-.731-.731V16.666a.731.731,0,0,1,.731-.731H37.637a.731.731,0,1,1,0,1.462H23.9v7.4a.731.731,0,0,1-.731.731Z" transform="translate(12.214 8.464)" fill-rule="evenodd"/>
        <path id="_294870952" d="M13.771,25.53a.731.731,0,0,1-.731-.731V16.666a.731.731,0,0,1,.731-.731H28.279a.731.731,0,1,1,0,1.462H14.5v7.4A.731.731,0,0,1,13.771,25.53Z" transform="translate(7.1 8.464)" fill-rule="evenodd"/>
        <path id="_294870592" d="M13.771,25.53a.731.731,0,0,1-.731-.731V16.666a.731.731,0,0,1,.731-.731H28.279a.731.731,0,1,1,0,1.462H14.5v7.4A.731.731,0,0,1,13.771,25.53Z" transform="translate(7.1 8.464)" fill-rule="evenodd"/>
        <path id="_294870760" d="M4.922,25.53a.731.731,0,0,1-.731-.731V16.666a.731.731,0,0,1,.731-.731H18.589a.731.731,0,0,1,0,1.462H5.653v7.4A.731.731,0,0,1,4.922,25.53Z" transform="translate(2.282 8.464)" fill-rule="evenodd"/>
        <path id="_294870208" d="M4.922,25.53a.731.731,0,0,1-.731-.731V16.666a.731.731,0,0,1,.731-.731H18.589a.731.731,0,0,1,0,1.462H5.653v7.4A.731.731,0,0,1,4.922,25.53Z" transform="translate(2.282 8.464)" fill-rule="evenodd"/>
        <path id="_294870712" d="M.731,25.53A.731.731,0,0,1,0,24.8V16.666a.731.731,0,0,1,.731-.731H7.2a.731.731,0,0,1,0,1.462H1.462v7.4a.731.731,0,0,1-.731.731Z" transform="translate(0 8.464)" fill-rule="evenodd"/>
        <path id="_294870280" d="M.731,25.53A.731.731,0,0,1,0,24.8V16.666a.731.731,0,0,1,.731-.731H7.2a.731.731,0,0,1,0,1.462H1.462v7.4a.731.731,0,0,1-.731.731Z" transform="translate(0 8.464)" fill-rule="evenodd"/>
        <path id="_294870448" d="M46.331,20.264a.731.731,0,0,1-.731-.731v-7.4H37.262a.731.731,0,1,1,0-1.462h9.069a.73.73,0,0,1,.731.731v8.133a.73.73,0,0,1-.731.731Z" transform="translate(19.89 5.597)" fill-rule="evenodd"/>
        <path id="_294870520" d="M46.331,20.264a.731.731,0,0,1-.731-.731v-7.4H37.262a.731.731,0,1,1,0-1.462h9.069a.73.73,0,0,1,.731.731v8.133a.73.73,0,0,1-.731.731Z" transform="translate(19.89 5.597)" fill-rule="evenodd"/>
        <path id="_294870400" d="M42.372,20.264a.73.73,0,0,1-.731-.731v-7.4H27.875a.731.731,0,1,1,0-1.462h14.5a.731.731,0,0,1,.731.731v8.133a.731.731,0,0,1-.731.731Z" transform="translate(14.779 5.597)" fill-rule="evenodd"/>
        <path id="_294870088" d="M42.372,20.264a.73.73,0,0,1-.731-.731v-7.4H27.875a.731.731,0,1,1,0-1.462h14.5a.731.731,0,0,1,.731.731v8.133a.731.731,0,0,1-.731.731Z" transform="translate(14.779 5.597)" fill-rule="evenodd"/>
        <path id="_294869944" d="M32.986,20.264a.731.731,0,0,1-.731-.731v-7.4H18.489a.731.731,0,0,1,0-1.462h14.5a.731.731,0,0,1,.731.731v8.133a.731.731,0,0,1-.731.731Z" transform="translate(9.668 5.597)" fill-rule="evenodd"/>
        <path id="_294869488" d="M32.986,20.264a.731.731,0,0,1-.731-.731v-7.4H18.489a.731.731,0,0,1,0-1.462h14.5a.731.731,0,0,1,.731.731v8.133a.731.731,0,0,1-.731.731Z" transform="translate(9.668 5.597)" fill-rule="evenodd"/>
        <path id="_294869512" d="M23.6,20.264a.731.731,0,0,1-.731-.731v-7.4H9.1a.731.731,0,0,1,0-1.462H23.6a.731.731,0,0,1,.731.731v8.133a.731.731,0,0,1-.731.731Z" transform="translate(4.558 5.597)" fill-rule="evenodd"/>
        <path id="_294869464" d="M23.6,20.264a.731.731,0,0,1-.731-.731v-7.4H9.1a.731.731,0,0,1,0-1.462H23.6a.731.731,0,0,1,.731.731v8.133a.731.731,0,0,1-.731.731Z" transform="translate(4.558 5.597)" fill-rule="evenodd"/>
        <path id="_294869680" d="M13.66,20.264a.731.731,0,0,1-.731-.731v-7.4H1.462v7.4a.731.731,0,1,1-1.462,0V11.4a.731.731,0,0,1,.731-.731H13.66a.731.731,0,0,1,.731.731v8.133a.731.731,0,0,1-.731.731Z" transform="translate(0 5.597)" fill-rule="evenodd"/>
        <path id="_294870040" d="M48.9,36.062a.731.731,0,0,1-.731-.731v-7.4H33.266v7.4a.731.731,0,1,1-1.462,0V27.2a.731.731,0,0,1,.731-.731H48.9a.73.73,0,0,1,.731.731v8.133A.73.73,0,0,1,48.9,36.062Z" transform="translate(17.316 14.198)" fill-rule="evenodd"/>
        <path id="_294869608" d="M23.165,36.062a.731.731,0,0,1-.731-.731V27.2a.731.731,0,0,1,.731-.731H37.637a.731.731,0,1,1,0,1.462H23.9v7.4a.731.731,0,0,1-.731.731Z" transform="translate(12.214 14.198)" fill-rule="evenodd"/>
        <path id="_294869704" d="M23.165,36.062a.731.731,0,0,1-.731-.731V27.2a.731.731,0,0,1,.731-.731H37.637a.731.731,0,1,1,0,1.462H23.9v7.4a.731.731,0,0,1-.731.731Z" transform="translate(12.214 14.198)" fill-rule="evenodd"/>
        <path id="_294870160" d="M13.771,36.062a.731.731,0,0,1-.731-.731V27.2a.731.731,0,0,1,.731-.731H28.279a.731.731,0,1,1,0,1.462H14.5v7.4A.731.731,0,0,1,13.771,36.062Z" transform="translate(7.1 14.198)" fill-rule="evenodd"/>
        <path id="_294869632" d="M4.922,36.062a.731.731,0,0,1-.731-.731V27.2a.731.731,0,0,1,.731-.731H18.589a.731.731,0,0,1,0,1.462H5.653v7.4A.731.731,0,0,1,4.922,36.062Z" transform="translate(2.282 14.198)" fill-rule="evenodd"/>
        <path id="_294869176" d="M.731,36.062A.731.731,0,0,1,0,35.331V27.2a.731.731,0,0,1,.731-.731H7.2a.731.731,0,0,1,0,1.462H1.462v7.4a.731.731,0,0,1-.731.731Z" transform="translate(0 14.198)" fill-rule="evenodd"/>
        <path id="_294869080" d="M.731,36.062A.731.731,0,0,1,0,35.331V27.2a.731.731,0,0,1,.731-.731H7.2a.731.731,0,0,1,0,1.462H1.462v7.4a.731.731,0,0,1-.731.731Z" transform="translate(0 14.198)" fill-rule="evenodd"/>
        <path id="_294869056" d="M46.331,30.8a.731.731,0,0,1-.731-.731v-7.4H37.262a.731.731,0,1,1,0-1.462h9.069a.73.73,0,0,1,.731.731v8.133A.73.73,0,0,1,46.331,30.8Z" transform="translate(19.89 11.331)" fill-rule="evenodd"/>
        <path id="_294869008" d="M46.331,30.8a.731.731,0,0,1-.731-.731v-7.4H37.262a.731.731,0,1,1,0-1.462h9.069a.73.73,0,0,1,.731.731v8.133A.73.73,0,0,1,46.331,30.8Z" transform="translate(19.89 11.331)" fill-rule="evenodd"/>
        <path id="_294868984" d="M42.372,30.8a.73.73,0,0,1-.731-.731v-7.4H27.875a.731.731,0,1,1,0-1.462h14.5a.731.731,0,0,1,.731.731v8.133A.731.731,0,0,1,42.372,30.8Z" transform="translate(14.779 11.331)" fill-rule="evenodd"/>
        <path id="_294868912" d="M42.372,30.8a.73.73,0,0,1-.731-.731v-7.4H27.875a.731.731,0,1,1,0-1.462h14.5a.731.731,0,0,1,.731.731v8.133A.731.731,0,0,1,42.372,30.8Z" transform="translate(14.779 11.331)" fill-rule="evenodd"/>
        <path id="_294869224" d="M32.986,30.8a.731.731,0,0,1-.731-.731v-7.4H18.489a.731.731,0,1,1,0-1.462h14.5a.731.731,0,0,1,.731.731v8.133a.731.731,0,0,1-.731.731Z" transform="translate(9.668 11.331)" fill-rule="evenodd"/>
        <path id="_294868720" d="M32.986,30.8a.731.731,0,0,1-.731-.731v-7.4H18.489a.731.731,0,1,1,0-1.462h14.5a.731.731,0,0,1,.731.731v8.133a.731.731,0,0,1-.731.731Z" transform="translate(9.668 11.331)" fill-rule="evenodd"/>
        <path id="_294869368" d="M23.6,30.8a.731.731,0,0,1-.731-.731v-7.4H9.1a.731.731,0,1,1,0-1.462H23.6a.731.731,0,0,1,.731.731v8.133a.731.731,0,0,1-.731.731Z" transform="translate(4.558 11.331)" fill-rule="evenodd"/>
        <path id="_294869344" d="M23.6,30.8a.731.731,0,0,1-.731-.731v-7.4H9.1a.731.731,0,1,1,0-1.462H23.6a.731.731,0,0,1,.731.731v8.133a.731.731,0,0,1-.731.731Z" transform="translate(4.558 11.331)" fill-rule="evenodd"/>
        <path id="_294868552" d="M13.66,30.8a.731.731,0,0,1-.731-.731v-7.4H1.462v7.4a.731.731,0,1,1-1.462,0V21.932A.731.731,0,0,1,.731,21.2H13.66a.731.731,0,0,1,.731.731v8.133a.731.731,0,0,1-.731.731Z" transform="translate(0 11.331)" fill-rule="evenodd"/>
        <path id="_294868312" d="M33.266,45.133H48.173V38.461H33.266ZM48.9,46.594H32.535a.731.731,0,0,1-.731-.731V37.73A.731.731,0,0,1,32.535,37H48.9a.73.73,0,0,1,.731.731v8.133A.73.73,0,0,1,48.9,46.594Z" transform="translate(17.316 19.933)" fill-rule="evenodd"/>
        <path id="_294868216" d="M37.637,46.594H23.165a.731.731,0,0,1-.731-.731V37.73A.731.731,0,0,1,23.165,37H37.637a.731.731,0,1,1,0,1.462H23.9v6.672H37.637a.731.731,0,1,1,0,1.462Z" transform="translate(12.214 19.933)" fill-rule="evenodd"/>
        <path id="_294867928" d="M37.637,46.594H23.165a.731.731,0,0,1-.731-.731V37.73A.731.731,0,0,1,23.165,37H37.637a.731.731,0,1,1,0,1.462H23.9v6.672H37.637a.731.731,0,1,1,0,1.462Z" transform="translate(12.214 19.933)" fill-rule="evenodd"/>
        <path id="_294868648" d="M28.279,46.594H13.771a.731.731,0,0,1-.731-.731V37.73A.731.731,0,0,1,13.771,37H28.279a.731.731,0,1,1,0,1.462H14.5v6.672H28.279a.731.731,0,1,1,0,1.462Z" transform="translate(7.1 19.933)" fill-rule="evenodd"/>
        <path id="_294868360" d="M28.279,46.594H13.771a.731.731,0,0,1-.731-.731V37.73A.731.731,0,0,1,13.771,37H28.279a.731.731,0,1,1,0,1.462H14.5v6.672H28.279a.731.731,0,1,1,0,1.462Z" transform="translate(7.1 19.933)" fill-rule="evenodd"/>
        <path id="_294868048" d="M18.589,46.594H4.922a.731.731,0,0,1-.731-.731V37.73A.731.731,0,0,1,4.922,37H18.589a.731.731,0,1,1,0,1.462H5.653v6.672H18.589a.731.731,0,1,1,0,1.462Z" transform="translate(2.282 19.933)" fill-rule="evenodd"/>
        <path id="_294868600" d="M18.589,46.594H4.922a.731.731,0,0,1-.731-.731V37.73A.731.731,0,0,1,4.922,37H18.589a.731.731,0,1,1,0,1.462H5.653v6.672H18.589a.731.731,0,1,1,0,1.462Z" transform="translate(2.282 19.933)" fill-rule="evenodd"/>
        <path id="_294868528" d="M7.2,46.594H.731A.731.731,0,0,1,0,45.864V37.73A.731.731,0,0,1,.731,37H7.2a.731.731,0,0,1,0,1.462H1.462v6.671H7.2a.731.731,0,0,1,0,1.462Z" transform="translate(0 19.933)" fill-rule="evenodd"/>
        <path id="_294868096" d="M7.2,46.594H.731A.731.731,0,0,1,0,45.864V37.73A.731.731,0,0,1,.731,37H7.2a.731.731,0,0,1,0,1.462H1.462v6.671H7.2a.731.731,0,0,1,0,1.462Z" transform="translate(0 19.933)" fill-rule="evenodd"/>
        <path id="_294867976" d="M46.331,41.328A.731.731,0,0,1,45.6,40.6V33.2H37.262a.731.731,0,1,1,0-1.462h9.069a.73.73,0,0,1,.731.731V40.6a.73.73,0,0,1-.731.731Z" transform="translate(19.89 17.066)" fill-rule="evenodd"/>
        <path id="_294867496" d="M46.331,41.328A.731.731,0,0,1,45.6,40.6V33.2H37.262a.731.731,0,1,1,0-1.462h9.069a.73.73,0,0,1,.731.731V40.6a.73.73,0,0,1-.731.731Z" transform="translate(19.89 17.066)" fill-rule="evenodd"/>
        <path id="_294867568" d="M42.372,41.328a.73.73,0,0,1-.731-.731V33.2H27.875a.731.731,0,1,1,0-1.462h14.5a.731.731,0,0,1,.731.731V40.6a.731.731,0,0,1-.731.731Z" transform="translate(14.779 17.066)" fill-rule="evenodd"/>
        <path id="_294867664" d="M42.372,41.328a.73.73,0,0,1-.731-.731V33.2H27.875a.731.731,0,1,1,0-1.462h14.5a.731.731,0,0,1,.731.731V40.6a.731.731,0,0,1-.731.731Z" transform="translate(14.779 17.066)" fill-rule="evenodd"/>
        <path id="_294867280" d="M32.986,41.328a.731.731,0,0,1-.731-.731V33.2H18.489a.731.731,0,1,1,0-1.462h14.5a.731.731,0,0,1,.731.731V40.6a.731.731,0,0,1-.731.731Z" transform="translate(9.668 17.066)" fill-rule="evenodd"/>
        <path id="_294867352" d="M23.6,41.328a.731.731,0,0,1-.731-.731V33.2H9.1a.731.731,0,1,1,0-1.462H23.6a.731.731,0,0,1,.731.731V40.6a.731.731,0,0,1-.731.731Z" transform="translate(4.558 17.066)" fill-rule="evenodd"/>
        <path id="_294867784" d="M23.6,41.328a.731.731,0,0,1-.731-.731V33.2H9.1a.731.731,0,1,1,0-1.462H23.6a.731.731,0,0,1,.731.731V40.6a.731.731,0,0,1-.731.731Z" transform="translate(4.558 17.066)" fill-rule="evenodd"/>
        <path id="_294867760" d="M13.66,41.328a.731.731,0,0,1-.731-.731V33.2H1.462v7.4A.731.731,0,1,1,0,40.6V32.464a.731.731,0,0,1,.731-.731H13.66a.731.731,0,0,1,.731.731V40.6a.731.731,0,0,1-.731.731Z" transform="translate(0 17.066)" fill-rule="evenodd"/>
        <path id="_294867736" d="M32.751,6.35v6.671H47.658V6.35H32.751Z" transform="translate(17.832 3.245)" fill="#a1887f" fill-rule="evenodd"/>
        <path id="_294867184" d="M47.658,37.946H32.751v6.672H47.658Z" transform="translate(17.832 20.448)" fill="#a1887f" fill-rule="evenodd"/>
        <path id="_294866440" d="M0,32.207v.008ZM20.14,47.742V41.071H7.935v6.672Z" transform="translate(0 17.323)" fill="#836e67" fill-rule="evenodd"/>
        <g id="Grupo_1178196" data-name="Grupo 1178196" transform="translate(1.462 33.994)">
          <path id="_294866776" d="M5.958,37.946H.946v6.671H5.958Z" transform="translate(-0.946 -13.546)" fill="#a1887f" fill-rule="evenodd"/>
          <path id="_294866944" d="M37.477,32.68v6.671h7.607V32.68Z" transform="translate(18.943 -16.413)" fill="#a1887f" fill-rule="evenodd"/>
          <path id="_294867064" d="M39.328,34.085h8.33V27.414H32.751v6.672H39.32Z" transform="translate(16.37 -19.281)" fill="#a1887f" fill-rule="evenodd"/>
          <path id="_294866416" d="M5.958,34.085V27.414H.946v6.671Z" transform="translate(-0.946 -19.281)" fill="#a1887f" fill-rule="evenodd"/>
          <path id="_294866368" d="M37.477,22.148v6.671h7.607V22.148Z" transform="translate(18.943 -22.148)" fill="#a1887f" fill-rule="evenodd"/>
        </g>
        <path id="_294866968" d="M39.32,23.553h8.338V16.882H32.751v6.672Z" transform="translate(17.832 8.979)" fill="#836e67" fill-rule="evenodd"/>
        <path id="_294866872" d="M20.542,16.882H13.987v6.672H27.033V16.882Zm20.964,6.672V16.882H28.494v6.672H41.506Z" transform="translate(7.615 8.979)" fill="#a1887f" fill-rule="evenodd"/>
        <path id="_294866080" d="M0,11.143v.008ZM20.14,26.678V20.007H7.935v6.672H20.14Z" transform="translate(0 5.855)" fill="#836e67" fill-rule="evenodd"/>
        <path id="_294865720" d="M5.958,16.882H.946v6.671H5.958Z" transform="translate(0.515 8.979)" fill="#a1887f" fill-rule="evenodd"/>
        <path id="_294866176" d="M.946,18.287H12.414V11.616H.946Z" transform="translate(0.515 6.112)" fill="#836e67" fill-rule="evenodd"/>
        <path id="_294866296" d="M9.318,11.616v6.671H22.353V11.616H9.318Z" transform="translate(5.073 6.112)" fill="#a1887f" fill-rule="evenodd"/>
        <path id="_294865864" d="M18.7,11.616v6.671H31.74V11.616H18.7Z" transform="translate(10.184 6.112)" fill="#836e67" fill-rule="evenodd"/>
        <path id="_294865912" d="M28.091,11.616v6.671H41.126V11.616H28.091Z" transform="translate(15.294 6.112)" fill="#a1887f" fill-rule="evenodd"/>
        <path id="_294865648" d="M37.477,11.616v6.671h7.607V11.616Z" transform="translate(20.405 6.112)" fill="#836e67" fill-rule="evenodd"/>
        <path id="_294866200" d="M25.215,7.755H31.74V1.084H18.7V7.755H25.2Z" transform="translate(10.184 0.378)" fill="#836e67" fill-rule="evenodd"/>
        <path id="_294865480" d="M37.477,1.084V7.755h7.607V1.084Z" transform="translate(20.405 0.378)" fill="#836e67" fill-rule="evenodd"/>
        <path id="_294865432" d="M5.958,13.021V6.35H.946v6.671Z" transform="translate(0.515 3.245)" fill="#a1887f" fill-rule="evenodd"/>
        <path id="_294865264" d="M5.137,6.35v6.671H17.343V6.35H5.137Z" transform="translate(2.797 3.245)" fill="#836e67" fill-rule="evenodd"/>
        <path id="_294864856" d="M6.688,7.755h0Zm-5.742,0H12.414V1.084H.946Z" transform="translate(0.515 0.378)" fill="#836e67" fill-rule="evenodd"/>
      </g>
    </g>
  </g>
</svg>
