<svg xmlns="http://www.w3.org/2000/svg" width="400" height="1166" viewBox="0 0 400 1166">
  <g id="Grupo_1192432" data-name="Grupo 1192432" transform="translate(-7242.506 8765.786)">
    <rect id="Rectángulo_455465" data-name="Rectángulo 455465" width="400" height="1166" rx="10" transform="translate(7242.506 -8765.786)" fill="#fff7e2"/>
    <rect id="Rectángulo_455460" data-name="Rectángulo 455460" width="169.502" height="40.848" transform="translate(7261.605 -8544.627)" fill="#d5628e"/>
    <rect id="Rectángulo_455468" data-name="Rectángulo 455468" width="358.865" height="40.848" transform="translate(7261.605 -8214.945)" fill="#ffd897"/>
    <rect id="Rectángulo_455470" data-name="Rectángulo 455470" width="207.865" height="40.848" transform="translate(7261.605 -7909.264)" fill="#54c5c4"/>
    <rect id="Rectángulo_455466" data-name="Rectángulo 455466" width="161.502" height="40.848" transform="translate(7261.605 -8391.786)" fill="#ffa6a6"/>
    <rect id="Rectángulo_455467" data-name="Rectángulo 455467" width="161.502" height="40.848" transform="translate(7261.605 -8062.104)" fill="#7ee29f"/>
    <rect id="Rectángulo_455469" data-name="Rectángulo 455469" width="161.502" height="40.848" transform="translate(7261.605 -7756.423)" fill="#a8baff"/>
    <path id="Trazado_1005636" data-name="Trazado 1005636" d="M-65.186-7.119a9.228,9.228,0,0,1-1.372,5.483A4.652,4.652,0,0,1-70.566.244a4.769,4.769,0,0,1-4.028-1.729q-1.333-1.729-1.333-5.352a8.975,8.975,0,0,1,1.44-5.518,4.925,4.925,0,0,1,4.165-1.885Q-65.186-14.238-65.186-7.119Zm-4.1,0a11.858,11.858,0,0,0-.293-3.086q-.293-1-.947-1-1.279,0-1.279,4.277a11.9,11.9,0,0,0,.3,3.11q.3,1.011.942,1.011Q-69.287-2.8-69.287-7.119ZM-60.7,0V-10.078a6.145,6.145,0,0,1-1.416.61,9.755,9.755,0,0,1-1.66.308v-3.125a10.969,10.969,0,0,0,2.456-.708,12.674,12.674,0,0,0,2.329-1.323h2.451V0Zm12.764-3.838v-2.8H-42.6v2.8ZM-34.258,0V-14h4.219V0Zm13.076,0V-5.459a2.427,2.427,0,0,0-.278-1.333,1.017,1.017,0,0,0-.9-.405.978.978,0,0,0-.84.42,1.792,1.792,0,0,0-.3,1.074V0h-4.16V-10h4.16v1.563h.039a3.53,3.53,0,0,1,1.338-1.333,3.655,3.655,0,0,1,1.826-.474q3.281,0,3.281,4.141V0ZM-8.467,0V-1.162h-.039A3.433,3.433,0,0,1-9.8-.132a3.7,3.7,0,0,1-1.582.376,4.07,4.07,0,0,1-2.256-.63A3.825,3.825,0,0,1-15.1-2.148a6.784,6.784,0,0,1-.483-2.676,6.583,6.583,0,0,1,.576-2.822,4.51,4.51,0,0,1,1.621-1.914,4.188,4.188,0,0,1,2.344-.684,3.547,3.547,0,0,1,1.138.176A3.078,3.078,0,0,1-9-9.595,1.414,1.414,0,0,1-8.506-9h.039v-5.8h4.16V0Zm.088-5.3a2.194,2.194,0,0,0-.4-1.4,1.294,1.294,0,0,0-1.069-.5,1.283,1.283,0,0,0-1.1.62,2.881,2.881,0,0,0-.425,1.655Q-11.367-2.8-9.9-2.8a1.3,1.3,0,0,0,1.108-.571,2.812,2.812,0,0,0,.415-1.665ZM1.279-3.818a1.405,1.405,0,0,0,.742,1.011,3.347,3.347,0,0,0,1.68.366A6.917,6.917,0,0,0,6.455-3V-.361A9.9,9.9,0,0,1,2.783.244,5.794,5.794,0,0,1-1.289-1.094,4.753,4.753,0,0,1-2.744-4.775,6.074,6.074,0,0,1-2.1-7.617,4.6,4.6,0,0,1-.21-9.546a5.6,5.6,0,0,1,2.769-.7,5.447,5.447,0,0,1,2.656.605,4.033,4.033,0,0,1,1.675,1.7,5.452,5.452,0,0,1,.571,2.559v1.563ZM3.779-6q0-1.729-1.24-1.729a1.049,1.049,0,0,0-.869.474A2.364,2.364,0,0,0,1.26-6ZM16.6-11.777A3.665,3.665,0,0,0,15.4-12a1.338,1.338,0,0,0-1.025.356,1.355,1.355,0,0,0-.332.962V-10h2.314v2.881H14.043V0H9.883V-7.119H8.2V-10h1.68v-.918a4.065,4.065,0,0,1,.566-2.153,3.778,3.778,0,0,1,1.646-1.45,6.025,6.025,0,0,1,2.622-.518,7.118,7.118,0,0,1,1.885.215Zm5.322-.918a1.787,1.787,0,0,1-.64,1.426,2.5,2.5,0,0,1-1.685.547,2.441,2.441,0,0,1-1.665-.566,1.791,1.791,0,0,1-.649-1.406,1.734,1.734,0,0,1,.63-1.392,2.524,2.524,0,0,1,1.685-.532,2.548,2.548,0,0,1,1.685.532A1.723,1.723,0,0,1,21.924-12.7ZM17.52,0V-10h4.16V0ZM30.166,0V-5.459a2.427,2.427,0,0,0-.278-1.333,1.017,1.017,0,0,0-.9-.405.978.978,0,0,0-.84.42,1.792,1.792,0,0,0-.3,1.074V0h-4.16V-10h4.16v1.563h.039a3.53,3.53,0,0,1,1.338-1.333,3.655,3.655,0,0,1,1.826-.474q3.281,0,3.281,4.141V0ZM40.605-12.7a1.787,1.787,0,0,1-.64,1.426,2.5,2.5,0,0,1-1.685.547,2.441,2.441,0,0,1-1.665-.566,1.791,1.791,0,0,1-.649-1.406,1.734,1.734,0,0,1,.63-1.392,2.524,2.524,0,0,1,1.685-.532,2.548,2.548,0,0,1,1.685.532A1.723,1.723,0,0,1,40.605-12.7ZM36.2,0V-10h4.16V0ZM49.043,0V-1.162H49a3.433,3.433,0,0,1-1.3,1.03,3.7,3.7,0,0,1-1.582.376,4.07,4.07,0,0,1-2.256-.63,3.825,3.825,0,0,1-1.46-1.763,6.784,6.784,0,0,1-.483-2.676A6.583,6.583,0,0,1,42.5-7.646a4.51,4.51,0,0,1,1.621-1.914,4.188,4.188,0,0,1,2.344-.684,3.547,3.547,0,0,1,1.138.176,3.078,3.078,0,0,1,.908.474A1.414,1.414,0,0,1,49-9h.039v-5.8H53.2V0Zm.088-5.3a2.194,2.194,0,0,0-.4-1.4,1.294,1.294,0,0,0-1.069-.5,1.283,1.283,0,0,0-1.1.62,2.881,2.881,0,0,0-.425,1.655q0,2.119,1.465,2.119a1.3,1.3,0,0,0,1.108-.571,2.812,2.812,0,0,0,.415-1.665Zm17.2.127A5.207,5.207,0,0,1,64.8-1.2,5.972,5.972,0,0,1,60.527.244a6,6,0,0,1-4.243-1.411,5.051,5.051,0,0,1-1.519-3.892,5.214,5.214,0,0,1,.713-2.764,4.636,4.636,0,0,1,2.031-1.8,7.012,7.012,0,0,1,3.037-.625,6.792,6.792,0,0,1,3.081.654,4.763,4.763,0,0,1,2,1.816A4.946,4.946,0,0,1,66.328-5.176Zm-4.219.02q0-2.041-1.562-2.041T58.984-5.059q0,2.256,1.582,2.256Q62.109-2.8,62.109-5.156Zm13.9,1.836A3.054,3.054,0,0,1,74.712-.688,6.082,6.082,0,0,1,71.1.244,12.546,12.546,0,0,1,69.438.107a10.286,10.286,0,0,1-1.616-.332v-2.92a7.958,7.958,0,0,0,3.086.82q1.221,0,1.221-.635a.5.5,0,0,0-.283-.435,10.01,10.01,0,0,0-1.484-.571,4.192,4.192,0,0,1-1.934-1.113,2.647,2.647,0,0,1-.605-1.807,2.883,2.883,0,0,1,1.235-2.456,5.8,5.8,0,0,1,3.472-.9,11.035,11.035,0,0,1,2.773.381v2.8A8.387,8.387,0,0,0,73.955-7.5a5.443,5.443,0,0,0-1.23-.176,1.339,1.339,0,0,0-.654.137.421.421,0,0,0-.244.381.531.531,0,0,0,.264.459,4.664,4.664,0,0,0,1.055.42,4.894,4.894,0,0,1,2.2,1.152A2.525,2.525,0,0,1,76.006-3.32Z" transform="translate(7342.605 -8517.627)" fill="#12263f"/>
    <path id="Trazado_1005638" data-name="Trazado 1005638" d="M-157.319-7.119a9.228,9.228,0,0,1-1.372,5.483A4.652,4.652,0,0,1-162.7.244a4.769,4.769,0,0,1-4.028-1.729q-1.333-1.729-1.333-5.352a8.975,8.975,0,0,1,1.44-5.518,4.925,4.925,0,0,1,4.165-1.885Q-157.319-14.238-157.319-7.119Zm-4.1,0a11.858,11.858,0,0,0-.293-3.086q-.293-1-.947-1-1.279,0-1.279,4.277a11.9,11.9,0,0,0,.3,3.11q.3,1.011.942,1.011Q-161.421-2.8-161.421-7.119ZM-146.147-4a3.709,3.709,0,0,1-1.465,3.135A6.815,6.815,0,0,1-151.8.244a11.875,11.875,0,0,1-2.012-.171,8.607,8.607,0,0,1-1.709-.454V-3.643a5.846,5.846,0,0,0,1.494.615,6.55,6.55,0,0,0,1.7.225,2.742,2.742,0,0,0,1.528-.356,1.155,1.155,0,0,0,.532-1.021,1.172,1.172,0,0,0-.654-1.055,3.65,3.65,0,0,0-1.826-.381H-154.1V-8.682h1.191a3.256,3.256,0,0,0,1.743-.366A1.1,1.1,0,0,0-150.6-10a1.044,1.044,0,0,0-.425-.879,2.153,2.153,0,0,0-1.3-.322,5.4,5.4,0,0,0-2.715.781v-3.115a9.256,9.256,0,0,1,3.574-.7,6.145,6.145,0,0,1,3.643.947,3.055,3.055,0,0,1,1.318,2.627,3.415,3.415,0,0,1-.708,2.2A3.331,3.331,0,0,1-149.2-7.3v.049a3.61,3.61,0,0,1,2.236,1.079A3.075,3.075,0,0,1-146.147-4Zm8.389.166v-2.8h5.342v2.8ZM-124.077,0V-14h4.219V0ZM-111,0V-5.459a2.427,2.427,0,0,0-.278-1.333,1.017,1.017,0,0,0-.9-.405.978.978,0,0,0-.84.42,1.792,1.792,0,0,0-.3,1.074V0h-4.16V-10h4.16v1.563h.039a3.53,3.53,0,0,1,1.338-1.333,3.655,3.655,0,0,1,1.826-.474q3.281,0,3.281,4.141V0Zm13.076-.137a4.053,4.053,0,0,1-.928.259,8.482,8.482,0,0,1-1.553.122,3.73,3.73,0,0,1-2.72-.957,3.632,3.632,0,0,1-.981-2.725V-7.119h-1.572V-10h1.572v-1.963L-100-13.1V-10h2.08v2.881H-100v3Q-100-2.8-98.96-2.8a2.835,2.835,0,0,0,1.035-.215Zm4.883-3.682A1.405,1.405,0,0,0-92.3-2.808a3.347,3.347,0,0,0,1.68.366A6.917,6.917,0,0,0-87.866-3V-.361a9.9,9.9,0,0,1-3.672.605A5.794,5.794,0,0,1-95.61-1.094a4.753,4.753,0,0,1-1.455-3.682,6.074,6.074,0,0,1,.64-2.842,4.6,4.6,0,0,1,1.895-1.929,5.6,5.6,0,0,1,2.769-.7,5.447,5.447,0,0,1,2.656.605,4.033,4.033,0,0,1,1.675,1.7,5.452,5.452,0,0,1,.571,2.559v1.563ZM-90.542-6q0-1.729-1.24-1.729a1.049,1.049,0,0,0-.869.474A2.364,2.364,0,0,0-93.062-6Zm12.637-.439a3.233,3.233,0,0,0-.635-.2,3.212,3.212,0,0,0-.664-.088q-2.061,0-2.061,2.383V0h-4.16V-10h4.16v1.758h.039a3.123,3.123,0,0,1,1.084-1.44,2.785,2.785,0,0,1,1.641-.493,1.409,1.409,0,0,1,.6.117Zm8.721,0a3.233,3.233,0,0,0-.635-.2,3.212,3.212,0,0,0-.664-.088q-2.061,0-2.061,2.383V0H-76.7V-10h4.16v1.758h.039a3.123,3.123,0,0,1,1.084-1.44,2.785,2.785,0,0,1,1.641-.493,1.409,1.409,0,0,1,.6.117Zm12.324,1.26A5.207,5.207,0,0,1-58.389-1.2,5.972,5.972,0,0,1-62.661.244,6,6,0,0,1-66.9-1.167a5.051,5.051,0,0,1-1.519-3.892,5.214,5.214,0,0,1,.713-2.764,4.636,4.636,0,0,1,2.031-1.8,7.012,7.012,0,0,1,3.037-.625,6.792,6.792,0,0,1,3.081.654,4.763,4.763,0,0,1,2,1.816A4.946,4.946,0,0,1-56.86-5.176Zm-4.219.02q0-2.041-1.562-2.041T-64.2-5.059q0,2.256,1.582,2.256Q-61.079-2.8-61.079-5.156ZM-44.468-1.4a5.685,5.685,0,0,1-1.812,4.487A7.736,7.736,0,0,1-51.567,4.7a11.033,11.033,0,0,1-1.816-.146,5.006,5.006,0,0,1-1.26-.332V.957a5.58,5.58,0,0,0,1.465.625,5.636,5.636,0,0,0,1.494.234,3.469,3.469,0,0,0,2.236-.674,2.177,2.177,0,0,0,.84-1.787V-1.26h-.039A3.232,3.232,0,0,1-49.883-.166a3.589,3.589,0,0,1-1.685.41A3.775,3.775,0,0,1-54.624-1.1,5.605,5.605,0,0,1-55.747-4.8a6.627,6.627,0,0,1,.586-2.861A4.465,4.465,0,0,1-53.53-9.575a4.188,4.188,0,0,1,2.3-.669,2.884,2.884,0,0,1,2.578,1.279h.039V-10h4.141ZM-48.54-5.283a2.245,2.245,0,0,0-.4-1.4,1.256,1.256,0,0,0-1.05-.518,1.293,1.293,0,0,0-1.123.625,2.951,2.951,0,0,0-.42,1.67,2.89,2.89,0,0,0,.352,1.533,1.214,1.214,0,0,0,1.113.566,1.29,1.29,0,0,0,1.118-.581,2.676,2.676,0,0,0,.405-1.558ZM-36.919,0V-1.523h-.039A3.272,3.272,0,0,1-40,.244,2.917,2.917,0,0,1-42.222-.6a3.12,3.12,0,0,1-.8-2.246q0-2.949,3.623-3.418l2.48-.322a.946.946,0,0,0-.439-.8A2,2,0,0,0-38.54-7.7a7.783,7.783,0,0,0-3.545.957V-9.443a9.484,9.484,0,0,1,2.031-.576,11.822,11.822,0,0,1,2.09-.225,5.247,5.247,0,0,1,3.7,1.089A4.853,4.853,0,0,1-33.12-5.518V0ZM-39.38-3.4a.922.922,0,0,0,.259.674.987.987,0,0,0,.737.264,1.311,1.311,0,0,0,1.06-.488,1.892,1.892,0,0,0,.405-1.25V-4.58l-1.406.2Q-39.38-4.209-39.38-3.4ZM-24.2-.137a4.053,4.053,0,0,1-.928.259,8.482,8.482,0,0,1-1.553.122A3.73,3.73,0,0,1-29.4-.713a3.632,3.632,0,0,1-.981-2.725V-7.119h-1.572V-10h1.572v-1.963l4.1-1.133V-10h2.08v2.881h-2.08v3q0,1.318,1.045,1.318A2.835,2.835,0,0,0-24.2-3.018ZM-18.5-12.7a1.787,1.787,0,0,1-.64,1.426,2.5,2.5,0,0,1-1.685.547,2.441,2.441,0,0,1-1.665-.566A1.791,1.791,0,0,1-23.14-12.7a1.734,1.734,0,0,1,.63-1.392,2.524,2.524,0,0,1,1.685-.532,2.548,2.548,0,0,1,1.685.532A1.723,1.723,0,0,1-18.5-12.7ZM-22.905,0V-10h4.16V0ZM-9.458,0H-14.4l-3.34-10H-13.4l1.221,5.459a12.629,12.629,0,0,1,.322,1.982h.059q.02-.2.054-.4T-10.3-10h4.316Zm15.6-5.176A5.207,5.207,0,0,1,4.609-1.2,5.972,5.972,0,0,1,.337.244,6,6,0,0,1-3.906-1.167,5.051,5.051,0,0,1-5.425-5.059a5.214,5.214,0,0,1,.713-2.764,4.636,4.636,0,0,1,2.031-1.8,7.012,7.012,0,0,1,3.037-.625,6.792,6.792,0,0,1,3.081.654,4.763,4.763,0,0,1,2,1.816A4.946,4.946,0,0,1,6.138-5.176Zm-4.219.02Q1.919-7.2.356-7.2T-1.206-5.059Q-1.206-2.8.376-2.8,1.919-2.8,1.919-5.156Zm13.9,1.836A3.054,3.054,0,0,1,14.521-.688a6.082,6.082,0,0,1-3.608.933A12.546,12.546,0,0,1,9.248.107,10.286,10.286,0,0,1,7.632-.225v-2.92a7.958,7.958,0,0,0,3.086.82q1.221,0,1.221-.635a.5.5,0,0,0-.283-.435,10.01,10.01,0,0,0-1.484-.571A4.192,4.192,0,0,1,8.237-5.078a2.647,2.647,0,0,1-.605-1.807A2.883,2.883,0,0,1,8.867-9.341a5.8,5.8,0,0,1,3.472-.9,11.035,11.035,0,0,1,2.773.381v2.8A8.387,8.387,0,0,0,13.765-7.5a5.443,5.443,0,0,0-1.23-.176,1.339,1.339,0,0,0-.654.137.421.421,0,0,0-.244.381A.531.531,0,0,0,11.9-6.7a4.664,4.664,0,0,0,1.055.42,4.894,4.894,0,0,1,2.2,1.152A2.525,2.525,0,0,1,15.815-3.32ZM24.849,4.7a8.4,8.4,0,0,1-1.26-.1,6.113,6.113,0,0,1-1.2-.3V1.162a2.5,2.5,0,0,0,.728.342,2.973,2.973,0,0,0,.913.156A1.5,1.5,0,0,0,25.571.742l.322-.781L21.714-10h4.6l1.211,4.824a11.978,11.978,0,0,1,.381,1.816h.039q.029-.215.083-.479T29.546-10h4.043L29.907.283a7.636,7.636,0,0,1-2.056,3.389A4.523,4.523,0,0,1,24.849,4.7ZM43.53-3.818a1.405,1.405,0,0,0,.742,1.011,3.347,3.347,0,0,0,1.68.366A6.917,6.917,0,0,0,48.706-3V-.361a9.9,9.9,0,0,1-3.672.605,5.794,5.794,0,0,1-4.072-1.338,4.753,4.753,0,0,1-1.455-3.682,6.074,6.074,0,0,1,.64-2.842,4.6,4.6,0,0,1,1.895-1.929,5.6,5.6,0,0,1,2.769-.7,5.447,5.447,0,0,1,2.656.605,4.033,4.033,0,0,1,1.675,1.7,5.452,5.452,0,0,1,.571,2.559v1.563ZM46.03-6q0-1.729-1.24-1.729a1.049,1.049,0,0,0-.869.474A2.364,2.364,0,0,0,43.511-6Zm13.34.674L62.593,0H57.808L56.733-2.275a10.36,10.36,0,0,1-.42-1.045h-.039q-.205.664-.264.815T54.868,0H50.112l3.32-5.039L50.308-10h4.8l1.074,2.324a6.372,6.372,0,0,1,.43,1.094h.039q.283-.85.4-1.113L58.071-10h4.541ZM71.812-.283A3.922,3.922,0,0,1,70.552.1a11.91,11.91,0,0,1-1.982.146A6.1,6.1,0,0,1,65.742-.4a4.667,4.667,0,0,1-1.929-1.792,4.975,4.975,0,0,1-.684-2.588,5.667,5.667,0,0,1,.728-2.944,4.743,4.743,0,0,1,2.075-1.875,7.119,7.119,0,0,1,3.125-.649,10.933,10.933,0,0,1,1.753.127,2.678,2.678,0,0,1,1,.293v3.242a2.889,2.889,0,0,0-.9-.43A3.609,3.609,0,0,0,69.829-7.2a2.639,2.639,0,0,0-1.851.581,2.114,2.114,0,0,0-.63,1.636,2.075,2.075,0,0,0,.62,1.606,2.419,2.419,0,0,0,1.7.571,4.244,4.244,0,0,0,2.139-.557ZM73.472,0V-14.8h4.16V0ZM85.181,0V-1.523h-.039A3.272,3.272,0,0,1,82.095.244,2.917,2.917,0,0,1,79.878-.6a3.12,3.12,0,0,1-.8-2.246q0-2.949,3.623-3.418l2.48-.322a.946.946,0,0,0-.439-.8A2,2,0,0,0,83.56-7.7a7.783,7.783,0,0,0-3.545.957V-9.443a9.484,9.484,0,0,1,2.031-.576,11.822,11.822,0,0,1,2.09-.225,5.247,5.247,0,0,1,3.7,1.089,4.853,4.853,0,0,1,1.147,3.638V0ZM82.72-3.4a.922.922,0,0,0,.259.674.987.987,0,0,0,.737.264,1.311,1.311,0,0,0,1.06-.488,1.892,1.892,0,0,0,.405-1.25V-4.58l-1.406.2Q82.72-4.209,82.72-3.4Zm21.1,3.4V-5.762a1.838,1.838,0,0,0-.259-1.079.973.973,0,0,0-.845-.356,1.055,1.055,0,0,0-.9.435,1.989,1.989,0,0,0-.322,1.206V0h-4.16V-5.664q0-1.533-1.045-1.533a1.106,1.106,0,0,0-.957.444,2.148,2.148,0,0,0-.322,1.274V0h-4.16V-10h4.16v1.582h.039a3.224,3.224,0,0,1,.747-.854,4.385,4.385,0,0,1,1.157-.7,3.594,3.594,0,0,1,1.4-.269,3.535,3.535,0,0,1,1.792.42A3.256,3.256,0,0,1,101.362-8.5a3.564,3.564,0,0,1,1.406-1.294,4.191,4.191,0,0,1,1.953-.454,2.939,2.939,0,0,1,2.412,1.025,4.566,4.566,0,0,1,.84,2.959V0Zm11.582,0V-1.523h-.039A3.272,3.272,0,0,1,112.319.244,2.917,2.917,0,0,1,110.1-.6a3.12,3.12,0,0,1-.8-2.246q0-2.949,3.623-3.418l2.48-.322a.946.946,0,0,0-.439-.8,2,2,0,0,0-1.182-.312,7.783,7.783,0,0,0-3.545.957V-9.443a9.484,9.484,0,0,1,2.031-.576,11.822,11.822,0,0,1,2.09-.225,5.247,5.247,0,0,1,3.7,1.089A4.853,4.853,0,0,1,119.2-5.518V0Zm-2.461-3.4a.922.922,0,0,0,.259.674.987.987,0,0,0,.737.264A1.311,1.311,0,0,0,115-2.949a1.892,1.892,0,0,0,.405-1.25V-4.58l-1.406.2Q112.944-4.209,112.944-3.4ZM128.12-.137a4.053,4.053,0,0,1-.928.259,8.482,8.482,0,0,1-1.553.122,3.73,3.73,0,0,1-2.72-.957,3.632,3.632,0,0,1-.981-2.725V-7.119h-1.572V-10h1.572v-1.963l4.1-1.133V-10h2.08v2.881h-2.08v3q0,1.318,1.045,1.318a2.835,2.835,0,0,0,1.035-.215Zm5.7-12.559a1.787,1.787,0,0,1-.64,1.426,2.5,2.5,0,0,1-1.685.547,2.441,2.441,0,0,1-1.665-.566,1.791,1.791,0,0,1-.649-1.406,1.734,1.734,0,0,1,.63-1.392,2.524,2.524,0,0,1,1.685-.532,2.548,2.548,0,0,1,1.685.532A1.723,1.723,0,0,1,133.823-12.7ZM129.419,0V-10h4.16V0Zm13.447,0h-4.941l-3.34-10h4.336l1.221,5.459a12.629,12.629,0,0,1,.322,1.982h.059q.02-.2.054-.4T142.026-10h4.316Zm15.6-5.176A5.207,5.207,0,0,1,156.934-1.2,5.972,5.972,0,0,1,152.661.244a6,6,0,0,1-4.243-1.411A5.051,5.051,0,0,1,146.9-5.059a5.214,5.214,0,0,1,.713-2.764,4.636,4.636,0,0,1,2.031-1.8,7.012,7.012,0,0,1,3.037-.625,6.792,6.792,0,0,1,3.081.654,4.763,4.763,0,0,1,2,1.816A4.946,4.946,0,0,1,158.462-5.176Zm-4.219.02q0-2.041-1.562-2.041t-1.562,2.139q0,2.256,1.582,2.256Q154.243-2.8,154.243-5.156Zm13.9,1.836a3.054,3.054,0,0,1-1.294,2.632,6.082,6.082,0,0,1-3.608.933,12.546,12.546,0,0,1-1.665-.137,10.286,10.286,0,0,1-1.616-.332v-2.92a7.958,7.958,0,0,0,3.086.82q1.221,0,1.221-.635a.5.5,0,0,0-.283-.435,10.01,10.01,0,0,0-1.484-.571,4.192,4.192,0,0,1-1.934-1.113,2.647,2.647,0,0,1-.605-1.807,2.883,2.883,0,0,1,1.235-2.456,5.8,5.8,0,0,1,3.472-.9,11.035,11.035,0,0,1,2.773.381v2.8a8.387,8.387,0,0,0-1.348-.439,5.443,5.443,0,0,0-1.23-.176,1.339,1.339,0,0,0-.654.137.421.421,0,0,0-.244.381.531.531,0,0,0,.264.459,4.664,4.664,0,0,0,1.055.42,4.894,4.894,0,0,1,2.2,1.152A2.525,2.525,0,0,1,168.14-3.32Z" transform="translate(7440.605 -8187.945)" fill="#12263f"/>
    <path id="Trazado_1005640" data-name="Trazado 1005640" d="M-82.549-7.119a9.228,9.228,0,0,1-1.372,5.483A4.652,4.652,0,0,1-87.93.244a4.769,4.769,0,0,1-4.028-1.729q-1.333-1.729-1.333-5.352a8.975,8.975,0,0,1,1.44-5.518,4.925,4.925,0,0,1,4.165-1.885Q-82.549-14.238-82.549-7.119Zm-4.1,0a11.858,11.858,0,0,0-.293-3.086q-.293-1-.947-1-1.279,0-1.279,4.277a11.9,11.9,0,0,0,.3,3.11q.3,1.011.942,1.011Q-86.65-2.8-86.65-7.119Zm15.371,2.383a4.925,4.925,0,0,1-.679,2.573A4.59,4.59,0,0,1-73.916-.391a6.716,6.716,0,0,1-3.018.635A12.916,12.916,0,0,1-78.95.078a8.961,8.961,0,0,1-1.724-.42V-3.584a6.486,6.486,0,0,0,3.1.781,2.807,2.807,0,0,0,1.626-.391A1.273,1.273,0,0,0-75.4-4.3q0-1.543-2.559-1.543a10.888,10.888,0,0,0-2.373.244L-79.8-14h7.91v3.242h-4.687L-76.719-8.8a10.374,10.374,0,0,1,1.064-.059,4.465,4.465,0,0,1,3.213,1.108A3.966,3.966,0,0,1-71.279-4.736Zm8.291.9v-2.8h5.342v2.8ZM-36.1-7.178A7.726,7.726,0,0,1-37-3.413,6.158,6.158,0,0,1-39.551-.889,7.988,7.988,0,0,1-43.379,0h-5.928V-14h5.8Q-36.1-14-36.1-7.178Zm-4.482.039A4.03,4.03,0,0,0-41-8.984a3,3,0,0,0-1.187-1.27A3.546,3.546,0,0,0-44-10.7h-1.084v7.4h1.182a3.04,3.04,0,0,0,2.417-1.04A4.118,4.118,0,0,0-40.586-7.139Zm9.658,3.32a1.405,1.405,0,0,0,.742,1.011,3.347,3.347,0,0,0,1.68.366A6.917,6.917,0,0,0-25.752-3V-.361a9.9,9.9,0,0,1-3.672.605A5.794,5.794,0,0,1-33.5-1.094a4.753,4.753,0,0,1-1.455-3.682,6.074,6.074,0,0,1,.64-2.842,4.6,4.6,0,0,1,1.895-1.929,5.6,5.6,0,0,1,2.769-.7,5.447,5.447,0,0,1,2.656.605,4.033,4.033,0,0,1,1.675,1.7,5.452,5.452,0,0,1,.571,2.559v1.563ZM-28.428-6q0-1.729-1.24-1.729a1.049,1.049,0,0,0-.869.474A2.364,2.364,0,0,0-30.947-6Zm18.086,6V-5.762A1.838,1.838,0,0,0-10.6-6.841a.973.973,0,0,0-.845-.356,1.055,1.055,0,0,0-.9.435,1.989,1.989,0,0,0-.322,1.206V0h-4.16V-5.664q0-1.533-1.045-1.533a1.106,1.106,0,0,0-.957.444,2.148,2.148,0,0,0-.322,1.274V0h-4.16V-10h4.16v1.582h.039a3.224,3.224,0,0,1,.747-.854,4.385,4.385,0,0,1,1.157-.7,3.594,3.594,0,0,1,1.4-.269,3.535,3.535,0,0,1,1.792.42A3.256,3.256,0,0,1-12.8-8.5,3.564,3.564,0,0,1-11.4-9.79a4.191,4.191,0,0,1,1.953-.454A2.939,2.939,0,0,1-7.031-9.219a4.566,4.566,0,0,1,.84,2.959V0ZM6.816-5.176A5.207,5.207,0,0,1,5.288-1.2,5.972,5.972,0,0,1,1.016.244,6,6,0,0,1-3.228-1.167,5.051,5.051,0,0,1-4.746-5.059a5.214,5.214,0,0,1,.713-2.764A4.636,4.636,0,0,1-2-9.619a7.012,7.012,0,0,1,3.037-.625,6.792,6.792,0,0,1,3.081.654,4.763,4.763,0,0,1,2,1.816A4.946,4.946,0,0,1,6.816-5.176ZM2.6-5.156Q2.6-7.2,1.035-7.2T-.527-5.059Q-.527-2.8,1.055-2.8,2.6-2.8,2.6-5.156Zm13.9,1.836A3.054,3.054,0,0,1,15.2-.688a6.082,6.082,0,0,1-3.608.933A12.546,12.546,0,0,1,9.927.107,10.286,10.286,0,0,1,8.311-.225v-2.92a7.958,7.958,0,0,0,3.086.82q1.221,0,1.221-.635a.5.5,0,0,0-.283-.435,10.01,10.01,0,0,0-1.484-.571A4.192,4.192,0,0,1,8.916-5.078a2.647,2.647,0,0,1-.605-1.807A2.883,2.883,0,0,1,9.546-9.341a5.8,5.8,0,0,1,3.472-.9,11.035,11.035,0,0,1,2.773.381v2.8A8.387,8.387,0,0,0,14.443-7.5a5.443,5.443,0,0,0-1.23-.176,1.339,1.339,0,0,0-.654.137.421.421,0,0,0-.244.381.531.531,0,0,0,.264.459,4.664,4.664,0,0,0,1.055.42,4.894,4.894,0,0,1,2.2,1.152A2.525,2.525,0,0,1,16.494-3.32ZM25.068-.137a4.053,4.053,0,0,1-.928.259,8.482,8.482,0,0,1-1.553.122,3.73,3.73,0,0,1-2.72-.957,3.632,3.632,0,0,1-.981-2.725V-7.119H17.314V-10h1.572v-1.963l4.1-1.133V-10h2.08v2.881h-2.08v3q0,1.318,1.045,1.318a2.835,2.835,0,0,0,1.035-.215Zm8.818-6.3a3.233,3.233,0,0,0-.635-.2,3.212,3.212,0,0,0-.664-.088q-2.061,0-2.061,2.383V0h-4.16V-10h4.16v1.758h.039a3.123,3.123,0,0,1,1.084-1.44,2.785,2.785,0,0,1,1.641-.493,1.409,1.409,0,0,1,.6.117ZM40.635,0V-1.523H40.6A3.272,3.272,0,0,1,37.549.244,2.917,2.917,0,0,1,35.332-.6a3.12,3.12,0,0,1-.8-2.246q0-2.949,3.623-3.418l2.48-.322a.946.946,0,0,0-.439-.8A2,2,0,0,0,39.014-7.7a7.783,7.783,0,0,0-3.545.957V-9.443A9.484,9.484,0,0,1,37.5-10.02a11.822,11.822,0,0,1,2.09-.225,5.247,5.247,0,0,1,3.7,1.089,4.853,4.853,0,0,1,1.147,3.638V0ZM38.174-3.4a.922.922,0,0,0,.259.674.987.987,0,0,0,.737.264,1.311,1.311,0,0,0,1.06-.488,1.892,1.892,0,0,0,.405-1.25V-4.58l-1.406.2Q38.174-4.209,38.174-3.4ZM53.35-.137a4.053,4.053,0,0,1-.928.259,8.482,8.482,0,0,1-1.553.122,3.73,3.73,0,0,1-2.72-.957,3.632,3.632,0,0,1-.981-2.725V-7.119H45.6V-10h1.572v-1.963l4.1-1.133V-10h2.08v2.881H51.27v3q0,1.318,1.045,1.318a2.835,2.835,0,0,0,1.035-.215Zm5.7-12.559a1.787,1.787,0,0,1-.64,1.426,2.5,2.5,0,0,1-1.685.547,2.441,2.441,0,0,1-1.665-.566,1.791,1.791,0,0,1-.649-1.406,1.734,1.734,0,0,1,.63-1.392,2.524,2.524,0,0,1,1.685-.532,2.548,2.548,0,0,1,1.685.532A1.723,1.723,0,0,1,59.053-12.7ZM54.648,0V-10h4.16V0ZM68.1,0H63.154l-3.34-10H64.15l1.221,5.459a12.629,12.629,0,0,1,.322,1.982h.059q.02-.2.054-.4T67.256-10h4.316Zm15.6-5.176A5.207,5.207,0,0,1,82.163-1.2,5.972,5.972,0,0,1,77.891.244a6,6,0,0,1-4.243-1.411,5.051,5.051,0,0,1-1.519-3.892,5.214,5.214,0,0,1,.713-2.764,4.636,4.636,0,0,1,2.031-1.8,7.012,7.012,0,0,1,3.037-.625,6.792,6.792,0,0,1,3.081.654,4.763,4.763,0,0,1,2,1.816A4.946,4.946,0,0,1,83.691-5.176Zm-4.219.02q0-2.041-1.562-2.041T76.348-5.059q0,2.256,1.582,2.256Q79.473-2.8,79.473-5.156Zm13.9,1.836A3.054,3.054,0,0,1,92.075-.688a6.082,6.082,0,0,1-3.608.933A12.546,12.546,0,0,1,86.8.107a10.286,10.286,0,0,1-1.616-.332v-2.92a7.958,7.958,0,0,0,3.086.82q1.221,0,1.221-.635a.5.5,0,0,0-.283-.435,10.01,10.01,0,0,0-1.484-.571,4.192,4.192,0,0,1-1.934-1.113,2.647,2.647,0,0,1-.605-1.807,2.883,2.883,0,0,1,1.235-2.456,5.8,5.8,0,0,1,3.472-.9,11.035,11.035,0,0,1,2.773.381v2.8A8.387,8.387,0,0,0,91.318-7.5a5.443,5.443,0,0,0-1.23-.176,1.339,1.339,0,0,0-.654.137.421.421,0,0,0-.244.381.531.531,0,0,0,.264.459,4.664,4.664,0,0,0,1.055.42,4.894,4.894,0,0,1,2.2,1.152A2.525,2.525,0,0,1,93.369-3.32Z" transform="translate(7362.605 -7882.264)" fill="#12263f"/>
    <path id="Trazado_1005637" data-name="Trazado 1005637" d="M-55.664-7.119a9.228,9.228,0,0,1-1.372,5.483A4.652,4.652,0,0,1-61.045.244a4.769,4.769,0,0,1-4.028-1.729q-1.333-1.729-1.333-5.352a8.975,8.975,0,0,1,1.44-5.518A4.925,4.925,0,0,1-60.8-14.238Q-55.664-14.238-55.664-7.119Zm-4.1,0a11.858,11.858,0,0,0-.293-3.086q-.293-1-.947-1-1.279,0-1.279,4.277a11.9,11.9,0,0,0,.3,3.11q.3,1.011.942,1.011Q-59.766-2.8-59.766-7.119ZM-54.16,0V-1.123a6.563,6.563,0,0,1,.293-2.07,5.2,5.2,0,0,1,.923-1.65,14.216,14.216,0,0,1,2.192-1.982,16.258,16.258,0,0,0,1.479-1.265,3.169,3.169,0,0,0,.547-.747,1.723,1.723,0,0,0,.181-.781q0-1.4-1.68-1.4a5.041,5.041,0,0,0-3.232,1.24v-3.408A9.794,9.794,0,0,1-51.284-14a9.157,9.157,0,0,1,2.075-.234,5.2,5.2,0,0,1,3.535,1.094,3.859,3.859,0,0,1,1.25,3.066,4.78,4.78,0,0,1-.654,2.568,7.753,7.753,0,0,1-2.432,2.2,16.088,16.088,0,0,0-1.8,1.284,1.142,1.142,0,0,0-.454.688H-44.3V0ZM-36.1-3.838v-2.8h5.342v2.8ZM-15.156,0-16.2-3.018a3.752,3.752,0,0,0-.786-1.4,1.435,1.435,0,0,0-1.05-.508H-18.2V0h-4.219V-14h5.605a7.772,7.772,0,0,1,4.341.962,3.267,3.267,0,0,1,1.4,2.886,3.651,3.651,0,0,1-.815,2.422,4.647,4.647,0,0,1-2.427,1.416v.039a3.391,3.391,0,0,1,1.479.889,5.5,5.5,0,0,1,1.06,1.826L-10.4,0Zm-.4-9.561a1.466,1.466,0,0,0-.43-1.113,1.9,1.9,0,0,0-1.348-.41H-18.2v3.2h.762a1.934,1.934,0,0,0,1.367-.479A1.567,1.567,0,0,0-15.557-9.561Zm9.98,5.742a1.405,1.405,0,0,0,.742,1.011,3.347,3.347,0,0,0,1.68.366A6.917,6.917,0,0,0-.4-3V-.361A9.9,9.9,0,0,1-4.072.244,5.794,5.794,0,0,1-8.145-1.094,4.753,4.753,0,0,1-9.6-4.775a6.074,6.074,0,0,1,.64-2.842A4.6,4.6,0,0,1-7.065-9.546a5.6,5.6,0,0,1,2.769-.7,5.447,5.447,0,0,1,2.656.605,4.033,4.033,0,0,1,1.675,1.7A5.452,5.452,0,0,1,.605-5.381v1.563ZM-3.076-6q0-1.729-1.24-1.729a1.049,1.049,0,0,0-.869.474A2.364,2.364,0,0,0-5.6-6ZM2.041,0V-14.8H6.2V0ZM13.75,0V-1.523h-.039A3.272,3.272,0,0,1,10.664.244,2.917,2.917,0,0,1,8.447-.6a3.12,3.12,0,0,1-.8-2.246q0-2.949,3.623-3.418l2.48-.322a.946.946,0,0,0-.439-.8A2,2,0,0,0,12.129-7.7a7.783,7.783,0,0,0-3.545.957V-9.443a9.484,9.484,0,0,1,2.031-.576,11.822,11.822,0,0,1,2.09-.225,5.247,5.247,0,0,1,3.7,1.089,4.853,4.853,0,0,1,1.147,3.638V0ZM11.289-3.4a.922.922,0,0,0,.259.674.987.987,0,0,0,.737.264,1.311,1.311,0,0,0,1.06-.488A1.892,1.892,0,0,0,13.75-4.2V-4.58l-1.406.2Q11.289-4.209,11.289-3.4ZM26.465-.137a4.053,4.053,0,0,1-.928.259,8.482,8.482,0,0,1-1.553.122,3.73,3.73,0,0,1-2.72-.957,3.632,3.632,0,0,1-.981-2.725V-7.119H18.711V-10h1.572v-1.963l4.1-1.133V-10h2.08v2.881h-2.08v3q0,1.318,1.045,1.318a2.835,2.835,0,0,0,1.035-.215Zm5.7-12.559a1.787,1.787,0,0,1-.64,1.426,2.5,2.5,0,0,1-1.685.547,2.441,2.441,0,0,1-1.665-.566,1.791,1.791,0,0,1-.649-1.406,1.734,1.734,0,0,1,.63-1.392,2.524,2.524,0,0,1,1.685-.532,2.548,2.548,0,0,1,1.685.532A1.723,1.723,0,0,1,32.168-12.7ZM27.764,0V-10h4.16V0ZM41.211,0H36.27L32.93-10h4.336l1.221,5.459a12.629,12.629,0,0,1,.322,1.982h.059q.02-.2.054-.4T40.371-10h4.316Zm15.6-5.176A5.207,5.207,0,0,1,55.278-1.2,5.972,5.972,0,0,1,51.006.244a6,6,0,0,1-4.243-1.411,5.051,5.051,0,0,1-1.519-3.892,5.214,5.214,0,0,1,.713-2.764,4.636,4.636,0,0,1,2.031-1.8,7.012,7.012,0,0,1,3.037-.625,6.792,6.792,0,0,1,3.081.654,4.763,4.763,0,0,1,2,1.816A4.946,4.946,0,0,1,56.807-5.176Zm-4.219.02q0-2.041-1.562-2.041T49.463-5.059q0,2.256,1.582,2.256Q52.588-2.8,52.588-5.156Zm13.9,1.836A3.054,3.054,0,0,1,65.19-.688a6.082,6.082,0,0,1-3.608.933A12.546,12.546,0,0,1,59.917.107,10.286,10.286,0,0,1,58.3-.225v-2.92a7.958,7.958,0,0,0,3.086.82q1.221,0,1.221-.635a.5.5,0,0,0-.283-.435,10.01,10.01,0,0,0-1.484-.571,4.192,4.192,0,0,1-1.934-1.113A2.647,2.647,0,0,1,58.3-6.885a2.883,2.883,0,0,1,1.235-2.456,5.8,5.8,0,0,1,3.472-.9,11.035,11.035,0,0,1,2.773.381v2.8A8.387,8.387,0,0,0,64.434-7.5a5.443,5.443,0,0,0-1.23-.176,1.339,1.339,0,0,0-.654.137.421.421,0,0,0-.244.381.531.531,0,0,0,.264.459,4.664,4.664,0,0,0,1.055.42,4.894,4.894,0,0,1,2.2,1.152A2.525,2.525,0,0,1,66.484-3.32Z" transform="translate(7342.605 -8364.786)" fill="#12263f"/>
    <path id="Trazado_1005639" data-name="Trazado 1005639" d="M-58.75-7.119a9.228,9.228,0,0,1-1.372,5.483A4.652,4.652,0,0,1-64.131.244a4.769,4.769,0,0,1-4.028-1.729q-1.333-1.729-1.333-5.352a8.975,8.975,0,0,1,1.44-5.518,4.925,4.925,0,0,1,4.165-1.885Q-58.75-14.238-58.75-7.119Zm-4.1,0a11.858,11.858,0,0,0-.293-3.086q-.293-1-.947-1-1.279,0-1.279,4.277a11.9,11.9,0,0,0,.3,3.11q.3,1.011.942,1.011Q-62.852-2.8-62.852-7.119ZM-48.086-14v8.828H-46.1V-2.4H-48.1V0h-3.662V-2.4h-5.928V-5.283a37.957,37.957,0,0,0,3.11-4.17A32.63,32.63,0,0,0-52.061-14Zm-3.682,8.828v-4.1a22.637,22.637,0,0,1-2.471,4.1ZM-38.76-3.838v-2.8h5.342v2.8Zm25.127-5.547a4.554,4.554,0,0,1-.728,2.549,4.741,4.741,0,0,1-2.075,1.724,7.533,7.533,0,0,1-3.135.61h-1.289V0h-4.219V-14h5.742A6.8,6.8,0,0,1-15-12.881,4.256,4.256,0,0,1-13.633-9.385Zm-4.463.146a1.641,1.641,0,0,0-.5-1.3,2.152,2.152,0,0,0-1.465-.439h-.8V-7.52h.947Q-18.1-7.52-18.1-9.238ZM-1.221-5.176A5.207,5.207,0,0,1-2.749-1.2,5.972,5.972,0,0,1-7.021.244a6,6,0,0,1-4.243-1.411,5.051,5.051,0,0,1-1.519-3.892,5.214,5.214,0,0,1,.713-2.764,4.636,4.636,0,0,1,2.031-1.8A7.012,7.012,0,0,1-7-10.244a6.792,6.792,0,0,1,3.081.654,4.763,4.763,0,0,1,2,1.816A4.946,4.946,0,0,1-1.221-5.176Zm-4.219.02Q-5.439-7.2-7-7.2T-8.564-5.059q0,2.256,1.582,2.256Q-5.439-2.8-5.439-5.156ZM8.457-3.32A3.054,3.054,0,0,1,7.163-.688,6.082,6.082,0,0,1,3.555.244,12.546,12.546,0,0,1,1.89.107,10.286,10.286,0,0,1,.273-.225v-2.92a7.958,7.958,0,0,0,3.086.82q1.221,0,1.221-.635A.5.5,0,0,0,4.3-3.394a10.01,10.01,0,0,0-1.484-.571A4.192,4.192,0,0,1,.879-5.078,2.647,2.647,0,0,1,.273-6.885,2.883,2.883,0,0,1,1.509-9.341a5.8,5.8,0,0,1,3.472-.9,11.035,11.035,0,0,1,2.773.381v2.8A8.387,8.387,0,0,0,6.406-7.5a5.443,5.443,0,0,0-1.23-.176,1.339,1.339,0,0,0-.654.137.421.421,0,0,0-.244.381.531.531,0,0,0,.264.459,4.664,4.664,0,0,0,1.055.42,4.894,4.894,0,0,1,2.2,1.152A2.525,2.525,0,0,1,8.457-3.32Zm5.117-.5a1.405,1.405,0,0,0,.742,1.011A3.347,3.347,0,0,0,16-2.441,6.917,6.917,0,0,0,18.75-3V-.361a9.9,9.9,0,0,1-3.672.605,5.794,5.794,0,0,1-4.072-1.338A4.753,4.753,0,0,1,9.551-4.775a6.074,6.074,0,0,1,.64-2.842,4.6,4.6,0,0,1,1.895-1.929,5.6,5.6,0,0,1,2.769-.7,5.447,5.447,0,0,1,2.656.605,4.033,4.033,0,0,1,1.675,1.7,5.452,5.452,0,0,1,.571,2.559v1.563ZM16.074-6q0-1.729-1.24-1.729a1.049,1.049,0,0,0-.869.474A2.364,2.364,0,0,0,13.555-6ZM29.316-3.32A3.054,3.054,0,0,1,28.022-.688a6.082,6.082,0,0,1-3.608.933A12.546,12.546,0,0,1,22.749.107a10.286,10.286,0,0,1-1.616-.332v-2.92a7.958,7.958,0,0,0,3.086.82q1.221,0,1.221-.635a.5.5,0,0,0-.283-.435,10.01,10.01,0,0,0-1.484-.571,4.192,4.192,0,0,1-1.934-1.113,2.647,2.647,0,0,1-.605-1.807,2.883,2.883,0,0,1,1.235-2.456,5.8,5.8,0,0,1,3.472-.9,11.035,11.035,0,0,1,2.773.381v2.8A8.387,8.387,0,0,0,27.266-7.5a5.443,5.443,0,0,0-1.23-.176,1.339,1.339,0,0,0-.654.137.421.421,0,0,0-.244.381A.531.531,0,0,0,25.4-6.7a4.664,4.664,0,0,0,1.055.42,4.894,4.894,0,0,1,2.2,1.152A2.525,2.525,0,0,1,29.316-3.32ZM35.254-12.7a1.787,1.787,0,0,1-.64,1.426,2.5,2.5,0,0,1-1.685.547,2.441,2.441,0,0,1-1.665-.566,1.791,1.791,0,0,1-.649-1.406,1.734,1.734,0,0,1,.63-1.392,2.524,2.524,0,0,1,1.685-.532,2.548,2.548,0,0,1,1.685.532A1.723,1.723,0,0,1,35.254-12.7ZM30.85,0V-10h4.16V0ZM44.3,0H39.355l-3.34-10h4.336l1.221,5.459a12.629,12.629,0,0,1,.322,1.982h.059q.02-.2.054-.4T43.457-10h4.316Zm15.6-5.176A5.207,5.207,0,0,1,58.364-1.2,5.972,5.972,0,0,1,54.092.244a6,6,0,0,1-4.243-1.411A5.051,5.051,0,0,1,48.33-5.059a5.214,5.214,0,0,1,.713-2.764,4.636,4.636,0,0,1,2.031-1.8,7.012,7.012,0,0,1,3.037-.625,6.792,6.792,0,0,1,3.081.654,4.763,4.763,0,0,1,2,1.816A4.946,4.946,0,0,1,59.893-5.176Zm-4.219.02q0-2.041-1.562-2.041T52.549-5.059q0,2.256,1.582,2.256Q55.674-2.8,55.674-5.156ZM69.57-3.32A3.054,3.054,0,0,1,68.276-.688a6.082,6.082,0,0,1-3.608.933A12.546,12.546,0,0,1,63,.107a10.286,10.286,0,0,1-1.616-.332v-2.92a7.958,7.958,0,0,0,3.086.82q1.221,0,1.221-.635a.5.5,0,0,0-.283-.435,10.01,10.01,0,0,0-1.484-.571,4.192,4.192,0,0,1-1.934-1.113,2.647,2.647,0,0,1-.605-1.807,2.883,2.883,0,0,1,1.235-2.456,5.8,5.8,0,0,1,3.472-.9,11.035,11.035,0,0,1,2.773.381v2.8A8.387,8.387,0,0,0,67.52-7.5a5.443,5.443,0,0,0-1.23-.176,1.339,1.339,0,0,0-.654.137.421.421,0,0,0-.244.381.531.531,0,0,0,.264.459,4.664,4.664,0,0,0,1.055.42,4.894,4.894,0,0,1,2.2,1.152A2.525,2.525,0,0,1,69.57-3.32Z" transform="translate(7342.605 -8035.104)" fill="#12263f"/>
    <path id="Trazado_1005641" data-name="Trazado 1005641" d="M-63.218-7.119A9.228,9.228,0,0,1-64.59-1.636,4.652,4.652,0,0,1-68.6.244a4.769,4.769,0,0,1-4.028-1.729Q-73.96-3.213-73.96-6.836a8.975,8.975,0,0,1,1.44-5.518,4.925,4.925,0,0,1,4.165-1.885Q-63.218-14.238-63.218-7.119Zm-4.1,0a11.858,11.858,0,0,0-.293-3.086q-.293-1-.947-1-1.279,0-1.279,4.277a11.9,11.9,0,0,0,.3,3.11q.3,1.011.942,1.011Q-67.319-2.8-67.319-7.119ZM-51.2-4.844a5.2,5.2,0,0,1-.649,2.573A4.663,4.663,0,0,1-53.682-.439a5.3,5.3,0,0,1-2.632.664,4.8,4.8,0,0,1-3.955-1.709,7.487,7.487,0,0,1-1.387-4.834,9.958,9.958,0,0,1,.84-4.194,6.226,6.226,0,0,1,2.358-2.778,6.679,6.679,0,0,1,3.608-.947,7.588,7.588,0,0,1,2.578.361v3.262a4.324,4.324,0,0,0-2.285-.586,2.869,2.869,0,0,0-2.173.874,3.534,3.534,0,0,0-.923,2.31h.059a3.444,3.444,0,0,1,2.822-1.2,3.159,3.159,0,0,1,2.612,1.211A4.936,4.936,0,0,1-51.2-4.844Zm-3.955.186a2.16,2.16,0,0,0-.3-1.216,1.014,1.014,0,0,0-.9-.444,1.009,1.009,0,0,0-.889.464A2.217,2.217,0,0,0-57.554-4.6a2.072,2.072,0,0,0,.337,1.221,1.018,1.018,0,0,0,.864.479,1.01,1.01,0,0,0,.879-.474A2.252,2.252,0,0,0-55.151-4.658Zm11.494.82v-2.8h5.342v2.8ZM-20.19,0l-4.941-6.758A16.107,16.107,0,0,1-26.089-8.2h-.039q.059,1.035.059,2.324V0h-3.906V-14h3.984l4.736,6.426q.088.127.215.3t.254.361q.127.186.239.361a2.223,2.223,0,0,1,.171.313h.039A12.692,12.692,0,0,1-20.4-7.725V-14h3.906V0ZM-7.749,0V-1.543h-.039A5.473,5.473,0,0,1-8.721-.5a3.589,3.589,0,0,1-.937.537,3.315,3.315,0,0,1-1.216.205,3.025,3.025,0,0,1-2.5-1.064,4.921,4.921,0,0,1-.859-3.145V-10h4.16v5.723q0,1.475,1.1,1.475a1.08,1.08,0,0,0,.913-.4,1.825,1.825,0,0,0,.308-1.133V-10h4.16V0ZM11.372,0V-5.762a1.838,1.838,0,0,0-.259-1.079.973.973,0,0,0-.845-.356,1.055,1.055,0,0,0-.9.435,1.989,1.989,0,0,0-.322,1.206V0H4.888V-5.664Q4.888-7.2,3.843-7.2a1.106,1.106,0,0,0-.957.444,2.148,2.148,0,0,0-.322,1.274V0H-1.6V-10h4.16v1.582H2.6a3.224,3.224,0,0,1,.747-.854,4.385,4.385,0,0,1,1.157-.7,3.594,3.594,0,0,1,1.4-.269,3.535,3.535,0,0,1,1.792.42A3.256,3.256,0,0,1,8.911-8.5,3.564,3.564,0,0,1,10.317-9.79a4.191,4.191,0,0,1,1.953-.454,2.939,2.939,0,0,1,2.412,1.025,4.566,4.566,0,0,1,.84,2.959V0Zm9.619-3.818a1.405,1.405,0,0,0,.742,1.011,3.347,3.347,0,0,0,1.68.366A6.917,6.917,0,0,0,26.167-3V-.361A9.9,9.9,0,0,1,22.5.244a5.794,5.794,0,0,1-4.072-1.338,4.753,4.753,0,0,1-1.455-3.682,6.074,6.074,0,0,1,.64-2.842A4.6,4.6,0,0,1,19.5-9.546a5.6,5.6,0,0,1,2.769-.7,5.447,5.447,0,0,1,2.656.605,4.033,4.033,0,0,1,1.675,1.7,5.452,5.452,0,0,1,.571,2.559v1.563ZM23.491-6q0-1.729-1.24-1.729a1.049,1.049,0,0,0-.869.474A2.364,2.364,0,0,0,20.972-6Zm12.637-.439a3.233,3.233,0,0,0-.635-.2,3.212,3.212,0,0,0-.664-.088q-2.061,0-2.061,2.383V0h-4.16V-10h4.16v1.758h.039a3.123,3.123,0,0,1,1.084-1.44,2.785,2.785,0,0,1,1.641-.493,1.409,1.409,0,0,1,.6.117ZM42.876,0V-1.523h-.039A3.272,3.272,0,0,1,39.79.244,2.917,2.917,0,0,1,37.573-.6a3.12,3.12,0,0,1-.8-2.246q0-2.949,3.623-3.418l2.48-.322a.946.946,0,0,0-.439-.8A2,2,0,0,0,41.255-7.7a7.783,7.783,0,0,0-3.545.957V-9.443a9.484,9.484,0,0,1,2.031-.576,11.822,11.822,0,0,1,2.09-.225,5.247,5.247,0,0,1,3.7,1.089,4.853,4.853,0,0,1,1.147,3.638V0ZM40.415-3.4a.922.922,0,0,0,.259.674.987.987,0,0,0,.737.264,1.311,1.311,0,0,0,1.06-.488,1.892,1.892,0,0,0,.405-1.25V-4.58l-1.406.2Q40.415-4.209,40.415-3.4ZM48.55,0V-14.8h4.16V0ZM58.3-3.818a1.405,1.405,0,0,0,.742,1.011,3.347,3.347,0,0,0,1.68.366A6.917,6.917,0,0,0,63.472-3V-.361A9.9,9.9,0,0,1,59.8.244a5.794,5.794,0,0,1-4.072-1.338,4.753,4.753,0,0,1-1.455-3.682,6.074,6.074,0,0,1,.64-2.842,4.6,4.6,0,0,1,1.895-1.929,5.6,5.6,0,0,1,2.769-.7,5.447,5.447,0,0,1,2.656.605,4.033,4.033,0,0,1,1.675,1.7,5.452,5.452,0,0,1,.571,2.559v1.563ZM60.8-6q0-1.729-1.24-1.729a1.049,1.049,0,0,0-.869.474A2.364,2.364,0,0,0,58.276-6ZM74.038-3.32A3.054,3.054,0,0,1,72.744-.688a6.082,6.082,0,0,1-3.608.933A12.546,12.546,0,0,1,67.471.107a10.286,10.286,0,0,1-1.616-.332v-2.92a7.958,7.958,0,0,0,3.086.82q1.221,0,1.221-.635a.5.5,0,0,0-.283-.435,10.01,10.01,0,0,0-1.484-.571A4.192,4.192,0,0,1,66.46-5.078a2.647,2.647,0,0,1-.605-1.807A2.883,2.883,0,0,1,67.09-9.341a5.8,5.8,0,0,1,3.472-.9,11.035,11.035,0,0,1,2.773.381v2.8A8.387,8.387,0,0,0,71.987-7.5a5.443,5.443,0,0,0-1.23-.176,1.339,1.339,0,0,0-.654.137.421.421,0,0,0-.244.381.531.531,0,0,0,.264.459,4.664,4.664,0,0,0,1.055.42,4.894,4.894,0,0,1,2.2,1.152A2.525,2.525,0,0,1,74.038-3.32Z" transform="translate(7342.605 -7729.423)" fill="#12263f"/>
    <g id="Grupo_1192431" data-name="Grupo 1192431" transform="translate(-535.311 359.142)">
      <g id="Grupo_1192394" data-name="Grupo 1192394" transform="translate(7796.916 -9109.5)">
        <g id="Grupo_1192393" data-name="Grupo 1192393" transform="translate(0 0)">
          <path id="Trazado_1004836" data-name="Trazado 1004836" d="M464.527,135.9,433.9,188.965l-17.377,30.1a83.2,83.2,0,0,0-37.729-10.96c-1.262-.057-2.536-.089-3.811-.089V112.034q1.912,0,3.811.045A178.53,178.53,0,0,1,464.527,135.9Z" transform="translate(-195.56 -112.034)" fill="#7ee29f"/>
          <path id="Trazado_1004837" data-name="Trazado 1004837" d="M378.791,112.079v96.028c-1.262-.057-2.536-.089-3.811-.089V112.034Q376.892,112.034,378.791,112.079Z" transform="translate(-195.56 -112.034)" fill="#76d392"/>
          <path id="Trazado_1004838" data-name="Trazado 1004838" d="M553.855,214.955,500.52,245.738l-29.834,17.23a83.665,83.665,0,0,0-27.241-28.33q-1.615-1.023-3.275-1.982l17.377-30.1,30.631-53.061q1.654.956,3.288,1.95A180.363,180.363,0,0,1,553.855,214.955Z" transform="translate(-219.21 -125.624)" fill="#54c5c4"/>
          <path id="Trazado_1004839" data-name="Trazado 1004839" d="M491.466,151.444l-48.02,83.194q-1.615-1.023-3.275-1.982l17.377-30.1,30.631-53.061Q489.831,150.45,491.466,151.444Z" transform="translate(-219.21 -125.624)" fill="#4fb7b4"/>
          <path id="Trazado_1004840" data-name="Trazado 1004840" d="M245.082,232.693a83.664,83.664,0,0,0-28.534,27.069q-1.032,1.587-1.988,3.218l-30.675-17.7L131.41,214.991c.637-1.09,1.281-2.179,1.944-3.256a180.286,180.286,0,0,1,63.715-62.211l30.344,52.564Z" transform="translate(-107.196 -125.635)" fill="#ffa6a6"/>
          <path id="Trazado_1004841" data-name="Trazado 1004841" d="M323.985,112.034v95.983a82.927,82.927,0,0,0-38.163,9.246c-1.134.586-2.256,1.192-3.358,1.829l-17.67-30.605L234.45,135.923c1.109-.637,2.217-1.262,3.339-1.873A178.767,178.767,0,0,1,323.985,112.034Z" transform="translate(-144.578 -112.034)" fill="#ffd897"/>
          <path id="Trazado_1004842" data-name="Trazado 1004842" d="M299.737,253.765a83.086,83.086,0,0,1,41.521-11.073V207.612h-.542a117.67,117.67,0,0,0-58.648,15.551Z" transform="translate(-161.853 -146.709)" fill="#ffc599"/>
          <path id="Trazado_1004843" data-name="Trazado 1004843" d="M285.822,229.8c-1.134.586-2.256,1.192-3.358,1.829l-17.67-30.605L234.45,148.457c1.109-.637,2.217-1.262,3.339-1.873Z" transform="translate(-144.578 -124.568)" fill="#ffc599"/>
          <path id="Trazado_1004844" data-name="Trazado 1004844" d="M216.548,295.181q-1.032,1.587-1.988,3.218l-30.675-17.7L131.41,250.41c.637-1.09,1.281-2.179,1.944-3.256l52.43,30.261Z" transform="translate(-107.196 -161.054)" fill="#e89292"/>
          <path id="Trazado_1004845" data-name="Trazado 1004845" d="M200.757,300.307A83.122,83.122,0,0,0,189.393,341.9H93.41a178.377,178.377,0,0,1,24.2-89.589L170.083,282.6Z" transform="translate(-93.41 -162.925)" fill="#d5628e"/>
          <path id="Trazado_1004846" data-name="Trazado 1004846" d="M595.46,341.843H499.452a82.939,82.939,0,0,0-9.52-38.252c-.586-1.121-1.2-2.23-1.842-3.32l29.834-17.224,53.335-30.784c.637,1.1,1.262,2.192,1.867,3.3A178.413,178.413,0,0,1,595.46,341.843Z" transform="translate(-236.595 -162.908)" fill="#a8baff"/>
          <path id="Trazado_1004847" data-name="Trazado 1004847" d="M573.126,255.565l-53.309,30.771-29.885,17.256c-.586-1.121-1.2-2.23-1.842-3.32l29.834-17.224,53.335-30.784C571.9,253.36,572.521,254.456,573.126,255.565Z" transform="translate(-236.595 -162.908)" fill="#a0b3ef"/>
        </g>
      </g>
      <g id="Grupo_1192398" data-name="Grupo 1192398" transform="translate(7857.593 -9048.598)">
        <path id="Trazado_1004848" data-name="Trazado 1004848" d="M188.633,359.144h35.305A83.117,83.117,0,0,1,235.3,317.55l-30.674-17.709A117.69,117.69,0,0,0,188.633,359.144Z" transform="translate(-188.633 -241.071)" fill="#c45783"/>
        <path id="Trazado_1004849" data-name="Trazado 1004849" d="M257.287,232.017A118.759,118.759,0,0,0,213.762,275.2l30.674,17.7a83.837,83.837,0,0,1,30.521-30.286Z" transform="translate(-197.749 -216.465)" fill="#e89292"/>
        <path id="Trazado_1004850" data-name="Trazado 1004850" d="M433.9,223.639a117.622,117.622,0,0,0-58.915-16.028V242.69a83.28,83.28,0,0,1,41.537,11.049Z" transform="translate(-256.238 -207.611)" fill="#76d392"/>
        <line id="Línea_3585" data-name="Línea 3585" x2="34.19" transform="translate(202.182 118.033)" fill="#fff" opacity="0.2"/>
        <path id="Trazado_1004851" data-name="Trazado 1004851" d="M440.168,262.866a83.718,83.718,0,0,1,30.521,30.31l29.834-17.224a118.758,118.758,0,0,0-42.976-43.186Z" transform="translate(-279.887 -216.737)" fill="#4fb7b4"/>
        <path id="Trazado_1004852" data-name="Trazado 1004852" d="M533.645,359.371a117.678,117.678,0,0,0-15.721-58.794L488.091,317.8a82.963,82.963,0,0,1,11.365,41.57" transform="translate(-297.273 -241.338)" fill="#a0b3ef"/>
      </g>
      <path id="Trazado_1005630" data-name="Trazado 1005630" d="M10.222-6.407A8.305,8.305,0,0,1,8.987-1.472,4.187,4.187,0,0,1,5.379.22,4.292,4.292,0,0,1,1.753-1.336a7.872,7.872,0,0,1-1.2-4.816,8.077,8.077,0,0,1,1.3-4.966,4.432,4.432,0,0,1,3.749-1.7Q10.222-12.814,10.222-6.407Zm-3.691,0a10.672,10.672,0,0,0-.264-2.777q-.264-.9-.853-.9-1.151,0-1.151,3.85a10.71,10.71,0,0,0,.268,2.8q.268.91.848.91Q6.53-2.522,6.53-6.407ZM14.256,0V-9.07a5.531,5.531,0,0,1-1.274.549,8.78,8.78,0,0,1-1.494.277v-2.812a9.872,9.872,0,0,0,2.21-.637,11.407,11.407,0,0,0,2.1-1.191H18V0Z" transform="translate(7869.7 -8951.508)" fill="#12263f"/>
      <path id="Trazado_1005631" data-name="Trazado 1005631" d="M10.222-6.407A8.305,8.305,0,0,1,8.987-1.472,4.187,4.187,0,0,1,5.379.22,4.292,4.292,0,0,1,1.753-1.336a7.872,7.872,0,0,1-1.2-4.816,8.077,8.077,0,0,1,1.3-4.966,4.432,4.432,0,0,1,3.749-1.7Q10.222-12.814,10.222-6.407Zm-3.691,0a10.672,10.672,0,0,0-.264-2.777q-.264-.9-.853-.9-1.151,0-1.151,3.85a10.71,10.71,0,0,0,.268,2.8q.268.91.848.91Q6.53-2.522,6.53-6.407ZM11.575,0V-1.011a5.906,5.906,0,0,1,.264-1.863,4.681,4.681,0,0,1,.831-1.485,12.8,12.8,0,0,1,1.973-1.784,14.632,14.632,0,0,0,1.332-1.138,2.852,2.852,0,0,0,.492-.672,1.55,1.55,0,0,0,.163-.7q0-1.257-1.512-1.257A4.537,4.537,0,0,0,12.208-8.8v-3.067a8.815,8.815,0,0,1,1.956-.738,8.241,8.241,0,0,1,1.868-.211,4.679,4.679,0,0,1,3.182.984,3.473,3.473,0,0,1,1.125,2.76,4.3,4.3,0,0,1-.589,2.312,6.978,6.978,0,0,1-2.188,1.978,14.479,14.479,0,0,0-1.622,1.156,1.027,1.027,0,0,0-.409.62h4.922V0Z" transform="translate(7891.737 -8995.532)" fill="#12263f"/>
      <path id="Trazado_1005632" data-name="Trazado 1005632" d="M10.222-6.407A8.305,8.305,0,0,1,8.987-1.472,4.187,4.187,0,0,1,5.379.22,4.292,4.292,0,0,1,1.753-1.336a7.872,7.872,0,0,1-1.2-4.816,8.077,8.077,0,0,1,1.3-4.966,4.432,4.432,0,0,1,3.749-1.7Q10.222-12.814,10.222-6.407Zm-3.691,0a10.672,10.672,0,0,0-.264-2.777q-.264-.9-.853-.9-1.151,0-1.151,3.85a10.71,10.71,0,0,0,.268,2.8q.268.91.848.91Q6.53-2.522,6.53-6.407ZM20.276-3.6A3.338,3.338,0,0,1,18.958-.782a6.133,6.133,0,0,1-3.771,1A10.688,10.688,0,0,1,13.377.066a7.746,7.746,0,0,1-1.538-.409V-3.278a5.261,5.261,0,0,0,1.345.554,5.9,5.9,0,0,0,1.529.2,2.467,2.467,0,0,0,1.375-.321,1.04,1.04,0,0,0,.479-.918,1.054,1.054,0,0,0-.589-.949,3.285,3.285,0,0,0-1.644-.343H13.122v-2.76h1.072a2.93,2.93,0,0,0,1.569-.33A.989.989,0,0,0,16.269-9a.94.94,0,0,0-.382-.791,1.938,1.938,0,0,0-1.173-.29,4.861,4.861,0,0,0-2.443.7v-2.8a8.331,8.331,0,0,1,3.217-.633,5.531,5.531,0,0,1,3.278.853A2.749,2.749,0,0,1,19.951-9.6a3.074,3.074,0,0,1-.637,1.978,3,3,0,0,1-1.789,1.046v.044a3.249,3.249,0,0,1,2.013.971A2.767,2.767,0,0,1,20.276-3.6Z" transform="translate(7938.794 -9023.037)" fill="#12263f"/>
      <path id="Trazado_1005635" data-name="Trazado 1005635" d="M10.222-6.407A8.305,8.305,0,0,1,8.987-1.472,4.187,4.187,0,0,1,5.379.22,4.292,4.292,0,0,1,1.753-1.336a7.872,7.872,0,0,1-1.2-4.816,8.077,8.077,0,0,1,1.3-4.966,4.432,4.432,0,0,1,3.749-1.7Q10.222-12.814,10.222-6.407Zm-3.691,0a10.672,10.672,0,0,0-.264-2.777q-.264-.9-.853-.9-1.151,0-1.151,3.85a10.71,10.71,0,0,0,.268,2.8q.268.91.848.91Q6.53-2.522,6.53-6.407ZM21.041-4.359a4.682,4.682,0,0,1-.584,2.316A4.2,4.2,0,0,1,18.8-.4a4.766,4.766,0,0,1-2.369.6,4.321,4.321,0,0,1-3.56-1.538,6.739,6.739,0,0,1-1.248-4.351,8.962,8.962,0,0,1,.756-3.775,5.6,5.6,0,0,1,2.123-2.5,6.011,6.011,0,0,1,3.248-.853,6.829,6.829,0,0,1,2.32.325v2.936a3.891,3.891,0,0,0-2.057-.527,2.582,2.582,0,0,0-1.956.787,3.18,3.18,0,0,0-.831,2.079h.053A3.1,3.1,0,0,1,17.824-8.3a2.843,2.843,0,0,1,2.351,1.09A4.442,4.442,0,0,1,21.041-4.359Zm-3.56.167a1.944,1.944,0,0,0-.268-1.094.912.912,0,0,0-.813-.4.908.908,0,0,0-.8.417,2,2,0,0,0-.281,1.129,1.864,1.864,0,0,0,.3,1.1.916.916,0,0,0,.778.431.909.909,0,0,0,.791-.426A2.027,2.027,0,0,0,17.481-4.192Z" transform="translate(8061.228 -8951.508)" fill="#12263f"/>
      <path id="Trazado_1005634" data-name="Trazado 1005634" d="M10.222-6.407A8.305,8.305,0,0,1,8.987-1.472,4.187,4.187,0,0,1,5.379.22,4.292,4.292,0,0,1,1.753-1.336a7.872,7.872,0,0,1-1.2-4.816,8.077,8.077,0,0,1,1.3-4.966,4.432,4.432,0,0,1,3.749-1.7Q10.222-12.814,10.222-6.407Zm-3.691,0a10.672,10.672,0,0,0-.264-2.777q-.264-.9-.853-.9-1.151,0-1.151,3.85a10.71,10.71,0,0,0,.268,2.8q.268.91.848.91Q6.53-2.522,6.53-6.407ZM20.364-4.263a4.433,4.433,0,0,1-.611,2.316,4.131,4.131,0,0,1-1.762,1.6A6.044,6.044,0,0,1,15.275.22,11.625,11.625,0,0,1,13.46.07a8.065,8.065,0,0,1-1.551-.378V-3.226a5.837,5.837,0,0,0,2.786.7,2.527,2.527,0,0,0,1.463-.352,1.146,1.146,0,0,0,.5-.993q0-1.389-2.3-1.389a9.8,9.8,0,0,0-2.136.22l.475-7.567h7.119v2.918H15.592l-.123,1.767a9.337,9.337,0,0,1,.958-.053,4.019,4.019,0,0,1,2.892,1A3.569,3.569,0,0,1,20.364-4.263Z" transform="translate(8036.355 -8994.824)" fill="#12263f"/>
      <path id="Trazado_1005633" data-name="Trazado 1005633" d="M10.222-6.407A8.305,8.305,0,0,1,8.987-1.472,4.187,4.187,0,0,1,5.379.22,4.292,4.292,0,0,1,1.753-1.336a7.872,7.872,0,0,1-1.2-4.816,8.077,8.077,0,0,1,1.3-4.966,4.432,4.432,0,0,1,3.749-1.7Q10.222-12.814,10.222-6.407Zm-3.691,0a10.672,10.672,0,0,0-.264-2.777q-.264-.9-.853-.9-1.151,0-1.151,3.85a10.71,10.71,0,0,0,.268,2.8q.268.91.848.91Q6.53-2.522,6.53-6.407Zm13.289-6.2v7.945H21.6v2.5H19.811V0h-3.3V-2.162H11.18V-4.755a34.161,34.161,0,0,0,2.8-3.753,29.367,29.367,0,0,0,2.263-4.1ZM16.506-4.658V-8.35a20.373,20.373,0,0,1-2.224,3.691Z" transform="translate(7989.843 -9023.037)" fill="#12263f"/>
      <rect id="Rectángulo_455454" data-name="Rectángulo 455454" width="55.12" height="26.029" transform="translate(7810.928 -8973.752)" fill="none"/>
      <rect id="Rectángulo_455456" data-name="Rectángulo 455456" width="55.12" height="26.029" transform="translate(7843.871 -9041.673)" fill="none"/>
      <rect id="Rectángulo_455459" data-name="Rectángulo 455459" width="55.12" height="26.029" transform="translate(8053.68 -9041.673)" fill="none"/>
      <g id="Grupo_1192418" data-name="Grupo 1192418" transform="translate(7812.585 -8985.903)">
        <circle id="Elipse_13786" data-name="Elipse 13786" cx="19.116" cy="19.116" r="19.116" fill="#fff"/>
        <g id="Grupo_1192417" data-name="Grupo 1192417" transform="translate(8.921 8.921)">
          <g id="Grupo_1192414" data-name="Grupo 1192414" transform="translate(11.148 11.148)">
            <path id="Trazado_1004859" data-name="Trazado 1004859" d="M32.856,32.186a1.436,1.436,0,0,1-.175-.723v-.021a1.453,1.453,0,1,1,2.907,0v.046a1.444,1.444,0,0,1-.426,1.028l-.5.5a1.3,1.3,0,0,0-.469,1.094" transform="translate(-29.349 -27.89)" fill="none" stroke="#5c3b66" stroke-linecap="round" stroke-linejoin="round" stroke-width="1.5"/>
            <circle id="Elipse_13787" data-name="Elipse 13787" cx="4.779" cy="4.779" r="4.779" transform="translate(0 0)" fill="none" stroke="#5c3b66" stroke-linecap="round" stroke-linejoin="round" stroke-width="1.5"/>
            <circle id="Elipse_13788" data-name="Elipse 13788" cx="0.637" cy="0.637" r="0.637" transform="translate(4.46 7.009)" fill="#5c3b66"/>
          </g>
          <g id="Grupo_1192416" data-name="Grupo 1192416" transform="translate(0 0)">
            <g id="Grupo_1192415" data-name="Grupo 1192415" transform="translate(7.577)">
              <path id="Trazado_1004860" data-name="Trazado 1004860" d="M17.579,2.359A3.905,3.905,0,0,1,20.516,1a4.048,4.048,0,0,1,3.713,2.623c.109-.01.219-.018.331-.018a4.116,4.116,0,0,1,3.934,3.333" transform="translate(-17.579 -1)" fill="none" stroke="#5c3b66" stroke-linecap="round" stroke-miterlimit="10" stroke-width="1.5"/>
              <path id="Trazado_1004861" data-name="Trazado 1004861" d="M40.511,17.471a3.391,3.391,0,0,0-5.461-2.685" transform="translate(-27.066 -8.103)" fill="none" stroke="#5c3b66" stroke-linecap="round" stroke-miterlimit="10" stroke-width="1.5"/>
            </g>
            <path id="Trazado_1004862" data-name="Trazado 1004862" d="M44.09,17.632a3.39,3.39,0,0,0-2.449-3.255" transform="translate(-23.067 -8.264)" fill="none" stroke="#5c3b66" stroke-linecap="round" stroke-miterlimit="10" stroke-width="1.5"/>
            <path id="Trazado_1004863" data-name="Trazado 1004863" d="M10.565,5.9A4.069,4.069,0,0,0,3.372,8.5c0,.1.008.195.015.292A3.438,3.438,0,0,0,1,12.143a3.438,3.438,0,0,0,2.972,3.515l6.168,0" transform="translate(-0.998 -2.865)" fill="none" stroke="#5c3b66" stroke-linecap="round" stroke-miterlimit="10" stroke-width="1.5"/>
          </g>
        </g>
      </g>
      <g id="Grupo_1192419" data-name="Grupo 1192419" transform="translate(7852.092 -9052.811)">
        <circle id="Elipse_13786-2" data-name="Elipse 13786" cx="19.116" cy="19.116" r="19.116" transform="translate(0)" fill="#fff"/>
        <g id="Translation" transform="translate(8.318 8.49)">
          <g id="Grupo_1192420" data-name="Grupo 1192420" transform="translate(0 0)">
            <path id="Trazado_1004864" data-name="Trazado 1004864" d="M16.636,11.572V6.8A2.241,2.241,0,0,0,14.4,4.562H6.287A2.243,2.243,0,0,0,4.045,6.8v4.772a2.245,2.245,0,0,0,2.242,2.242h.087v1.149a.813.813,0,0,0,1.328.625l2.17-1.773H14.4a2.243,2.243,0,0,0,2.238-2.242ZM9.418,13.311,7.276,15.077a.146.146,0,0,1-.236-.114V13.62a.472.472,0,0,0-.471-.471H6.287A1.579,1.579,0,0,1,4.71,11.572V6.8A1.577,1.577,0,0,1,6.287,5.227H14.4A1.574,1.574,0,0,1,15.97,6.8v4.772A1.577,1.577,0,0,1,14.4,13.149H9.873a.7.7,0,0,0-.454.163Z" transform="translate(-4.045 -4.562)" fill="#5c3b66"/>
            <path id="Trazado_1004865" data-name="Trazado 1004865" d="M33.349,44l4.556.011,2.135,1.759a.813.813,0,0,0,1.332-.622V44h.087A2.245,2.245,0,0,0,43.7,41.755V36.983a2.243,2.243,0,0,0-2.242-2.238H33.349a2.241,2.241,0,0,0-2.238,2.238v4.772A2.243,2.243,0,0,0,33.349,44Zm-1.573-7.014a1.575,1.575,0,0,1,1.573-1.573h8.111a1.577,1.577,0,0,1,1.577,1.573v4.772a1.579,1.579,0,0,1-1.577,1.577h-.282a.472.472,0,0,0-.471.471v1.342a.146.146,0,0,1-.239.111L38.334,43.5a.7.7,0,0,0-.46-.168H33.349a1.577,1.577,0,0,1-1.573-1.577Z" transform="translate(-22.106 -24.703)" fill="#5c3b66"/>
            <path id="Trazado_1004866" data-name="Trazado 1004866" d="M11.232,13.923v1H9.852v-1a.249.249,0,0,0-.252-.249.245.245,0,0,0-.244.249v2.463a.242.242,0,0,0,.246.245.246.246,0,0,0,.251-.245v-1h1.38v1a.243.243,0,0,0,.246.246.247.247,0,0,0,.251-.246V13.923a.249.249,0,0,0-.248-.249A.245.245,0,0,0,11.232,13.923Z" transform="translate(-7.589 -10.642)" fill="#5c3b66"/>
            <path id="Trazado_1004867" data-name="Trazado 1004867" d="M19.7,16.939a1,1,0,0,0-1.017-1.073,1.015,1.015,0,0,0-1.021,1.125,1.022,1.022,0,0,0,1.1,1.125,1.317,1.317,0,0,0,.732-.185.234.234,0,0,0,.137-.205.227.227,0,0,0-.328-.2,1.057,1.057,0,0,1-.509.117.558.558,0,0,1-.621-.458h1.276a.24.24,0,0,0,.25-.246Zm-1.53-.182a.5.5,0,0,1,.511-.45.511.511,0,0,1,.519.45Z" transform="translate(-13.13 -12.105)" fill="#5c3b66"/>
            <path id="Trazado_1004868" data-name="Trazado 1004868" d="M24.823,13.538V16.13a.243.243,0,0,0,.246.246.247.247,0,0,0,.25-.246V13.538a.243.243,0,0,0-.248-.249A.245.245,0,0,0,24.823,13.538Z" transform="translate(-17.91 -10.385)" fill="#5c3b66"/>
            <path id="Trazado_1004869" data-name="Trazado 1004869" d="M27.812,13.541v2.591a.243.243,0,0,0,.246.246.247.247,0,0,0,.25-.246V13.541A.248.248,0,1,0,27.812,13.541Z" transform="translate(-19.904 -10.388)" fill="#5c3b66"/>
            <path id="Trazado_1004870" data-name="Trazado 1004870" d="M32.605,16.991a1.089,1.089,0,1,0-1.088,1.125A1.05,1.05,0,0,0,32.605,16.991Zm-1.089.66a.591.591,0,0,1-.592-.664.6.6,0,1,1,1.184,0A.594.594,0,0,1,31.517,17.651Z" transform="translate(-21.65 -12.105)" fill="#5c3b66"/>
            <path id="Trazado_1004871" data-name="Trazado 1004871" d="M38.055,46.578a.253.253,0,0,0,.273-.251V45.3h1.431v1.031a.249.249,0,0,0,.252.252.252.252,0,0,0,.256-.252V43.781a.256.256,0,0,0-.251-.256.252.252,0,0,0-.257.256v1.031H38.328V43.781a.256.256,0,0,0-.273-.255.252.252,0,0,0-.236.255v2.546a.248.248,0,0,0,.236.251Z" transform="translate(-26.582 -30.562)" fill="#5c3b66"/>
            <path id="Trazado_1004872" data-name="Trazado 1004872" d="M47.526,48.114a1.161,1.161,0,1,0-1.123-1.16A1.083,1.083,0,0,0,47.526,48.114Zm-.614-1.164a.617.617,0,1,1,1.228,0,.618.618,0,1,1-1.228,0Z" transform="translate(-32.31 -32.076)" fill="#5c3b66"/>
            <path id="Trazado_1004873" data-name="Trazado 1004873" d="M54.58,46.315a.252.252,0,0,0,.256-.252V43.385a.249.249,0,0,0-.254-.256.252.252,0,0,0-.255.256v2.678A.249.249,0,0,0,54.58,46.315Z" transform="translate(-37.598 -30.297)" fill="#5c3b66"/>
            <path id="Trazado_1004874" data-name="Trazado 1004874" d="M57.007,47.428a.689.689,0,0,0,.739.685,1.12,1.12,0,0,0,.712-.233.25.25,0,0,0,.255.212.252.252,0,0,0,.251-.252V46.673a.856.856,0,0,0-.929-.88,1.891,1.891,0,0,0-.74.154.224.224,0,0,0-.148.218.221.221,0,0,0,.294.212,1.473,1.473,0,0,1,.528-.1c.35,0,.476.13.486.412h-.432c-.534,0-1.016.2-1.016.735Zm.88.222c-.207,0-.371-.054-.371-.264,0-.172.187-.259.557-.259h.383v.254a.813.813,0,0,1-.569.269Z" transform="translate(-39.386 -32.076)" fill="#5c3b66"/>
            <path id="Trazado_1004875" data-name="Trazado 1004875" d="M9.9,49.407l1.73-1.73a.4.4,0,0,0,0-.555L9.9,45.392a.393.393,0,0,0-.67.279V46.2C7.066,46.012,5.7,44.889,4.812,42.57a.13.13,0,0,0-.25.031A5.31,5.31,0,0,0,5.6,46.882a5.5,5.5,0,0,0,3.63,1.7v.545a.393.393,0,0,0,.67.279Z" transform="translate(-4.349 -29.869)" fill="#5c3b66"/>
            <path id="Trazado_1004876" data-name="Trazado 1004876" d="M48.568,9.482l-1.73,1.73a.4.4,0,0,0,0,.555l1.73,1.73a.393.393,0,0,0,.67-.279v-.526c2.165.185,3.533,1.308,4.419,3.627a.13.13,0,0,0,.25-.031,5.31,5.31,0,0,0-1.04-4.281,5.5,5.5,0,0,0-3.63-1.7V9.76a.393.393,0,0,0-.67-.279Z" transform="translate(-32.525 -7.768)" fill="#5c3b66"/>
          </g>
        </g>
      </g>
      <g id="Grupo_1192421" data-name="Grupo 1192421" transform="translate(7920.911 -9092.954)">
        <circle id="Elipse_13786-3" data-name="Elipse 13786" cx="19.116" cy="19.116" r="19.116" transform="translate(0)" fill="#fff"/>
        <g id="Grupo_1192422" data-name="Grupo 1192422" transform="translate(6.117 9.181)">
          <path id="Trazado_1004877" data-name="Trazado 1004877" d="M149.605,384.163a1.733,1.733,0,0,0-3.177,1.385l0,.011a1.733,1.733,0,0,0,3.177-1.385Zm-.68,1.058a.985.985,0,1,1-.018-.754A.965.965,0,0,1,148.925,385.221Z" transform="translate(-138.854 -366.731)" fill="#5c3b66"/>
          <path id="Trazado_1004878" data-name="Trazado 1004878" d="M24.976,66.036a.381.381,0,0,0-.616.449,4.539,4.539,0,0,1-3.313,7.208.825.825,0,0,0-.726.613l-.148.554a.971.971,0,1,1-1.876-.5l.148-.554A2.77,2.77,0,0,1,20.9,71.756a2.6,2.6,0,1,0-1.412-4.889,5.9,5.9,0,0,0,.016-1.036,5.841,5.841,0,0,0-.16-1,4.547,4.547,0,0,1,2.822.028,4.486,4.486,0,0,1,1.014.494.381.381,0,1,0,.417-.637,5.246,5.246,0,0,0-1.187-.578,5.309,5.309,0,0,0-3.3-.032,5.909,5.909,0,0,0-11.268.873,5.3,5.3,0,0,0-7.4,6.777,1.733,1.733,0,0,0,3.2-.06,1.721,1.721,0,0,0-.025-1.326,1.91,1.91,0,0,1-.087-.244,1.839,1.839,0,1,1,3.027.854,3.532,3.532,0,0,0-.818,3.99l.229.526a1.733,1.733,0,1,0,3.177-1.385l-.229-.526a.066.066,0,0,1,.007-.071,5.285,5.285,0,0,0,.446-.472.381.381,0,1,0-.585-.488,4.5,4.5,0,0,1-.381.4.824.824,0,0,0-.186.932l.229.526a.971.971,0,1,1-1.78.776l-.229-.526a2.769,2.769,0,0,1,.64-3.129,2.6,2.6,0,1,0-4.28-1.2,2.686,2.686,0,0,0,.122.343.971.971,0,0,1-1.78.777,4.54,4.54,0,0,1,6.577-5.662c-.013.159-.02.318-.02.477a1.9,1.9,0,0,0,1.9,1.9H9.6a4.564,4.564,0,0,1-.009,2.961.381.381,0,1,0,.72.249,5.325,5.325,0,0,0,.039-3.367,1.9,1.9,0,0,0,1.143-1.742,2.164,2.164,0,0,1,.02-.3,2.112,2.112,0,1,1,2.794,2.289,3.92,3.92,0,0,0-2.6,3.695V72.6a1.9,1.9,0,1,0,3.8,0v-.644a.118.118,0,0,1,.07-.114,5.925,5.925,0,0,0,3.666-3.807,1.861,1.861,0,0,1,2.05-.612A1.839,1.839,0,0,1,20.836,71a3.533,3.533,0,0,0-3.127,2.609l-.148.554a1.733,1.733,0,1,0,3.348.9l.148-.553a.066.066,0,0,1,.049-.052,5.3,5.3,0,0,0,3.869-8.416Zm-9.654,5.088a.879.879,0,0,0-.578.832V72.6a1.137,1.137,0,1,1-2.275,0v-.644a3.157,3.157,0,0,1,2.094-2.976A2.874,2.874,0,0,0,13.8,63.4q-.1-.006-.19-.006a2.886,2.886,0,0,0-2.851,2.471,2.916,2.916,0,0,0-.028.4,1.137,1.137,0,0,1-2.275,0,5.148,5.148,0,1,1,6.863,4.855Z" transform="translate(0 -60.36)" fill="#5c3b66"/>
          <path id="Trazado_1004879" data-name="Trazado 1004879" d="M326.322,383.174A1.733,1.733,0,0,0,324.2,384.4l0,.012a1.733,1.733,0,1,0,3.348.9l0-.01a1.733,1.733,0,0,0-1.225-2.123Zm.489,1.926,0,.01a1,1,0,1,1,0-.01Z" transform="translate(-307.677 -366.724)" fill="#5c3b66"/>
          <path id="Trazado_1004880" data-name="Trazado 1004880" d="M232.443,352.694a1.9,1.9,0,0,0-1.9,1.9v.013a1.9,1.9,0,1,0,3.8,0v-.013A1.9,1.9,0,0,0,232.443,352.694Zm1.137,1.912a1.137,1.137,0,1,1-2.275,0v-.013a1.137,1.137,0,1,1,2.275,0Z" transform="translate(-218.836 -337.849)" fill="#5c3b66"/>
        </g>
      </g>
      <g id="Grupo_1192423" data-name="Grupo 1192423" transform="translate(7994.19 -9092.954)">
        <circle id="Elipse_13786-4" data-name="Elipse 13786" cx="19.116" cy="19.116" r="19.116" transform="translate(0)" fill="#fff"/>
        <g id="Grupo_1192424" data-name="Grupo 1192424" transform="translate(9.451 7.597)">
          <path id="Trazado_1004881" data-name="Trazado 1004881" d="M13.568,5.727A1.111,1.111,0,1,0,12,7.3L13.89,9.191a1.111,1.111,0,0,0,1.571,0L19.5,5.147a1.111,1.111,0,1,0-1.571-1.571l-.446.446a4.294,4.294,0,0,0-1.077-.6V2.916A1.112,1.112,0,0,0,15.3,1.806H11.816V1.42A1.421,1.421,0,0,0,10.4,0H6.512a1.421,1.421,0,0,0-1.42,1.42v1.6a.79.79,0,0,0,.789.789h5.146a.79.79,0,0,0,.789-.789V2.482H15.3a.435.435,0,0,1,.435.435v.311a4.293,4.293,0,1,0,0,8.417V21.929a.435.435,0,0,1-.435.435H1.609a.435.435,0,0,1-.435-.435V2.916a.435.435,0,0,1,.435-.435H3.856a.338.338,0,1,0,0-.676H1.609A1.112,1.112,0,0,0,.5,2.916V21.929A1.112,1.112,0,0,0,1.609,23.04H15.3a1.112,1.112,0,0,0,1.111-1.111V11.449a4.3,4.3,0,0,0,2.764-3.864.338.338,0,0,0-.676-.023,3.6,3.6,0,0,1-2.5,3.318.321.321,0,0,0-.056.018,3.619,3.619,0,1,1-1.055-7.081A3.611,3.611,0,0,1,17,4.505L14.675,6.834Zm-2.428-2.7a.113.113,0,0,1-.113.113H5.881a.113.113,0,0,1-.113-.113V1.42A.744.744,0,0,1,6.512.676H10.4a.744.744,0,0,1,.744.744Zm7.271,1.031a.435.435,0,0,1,.615.615L14.982,8.713a.435.435,0,0,1-.615,0L12.475,6.82a.435.435,0,1,1,.615-.615l1.346,1.346a.338.338,0,0,0,.478,0Zm0,0" transform="translate(-0.499 0)" fill="#5c3b66"/>
          <path id="Trazado_1004882" data-name="Trazado 1004882" d="M110.359,188.547h-4.119a.338.338,0,0,0,0,.676h4.119a.338.338,0,1,0,0-.676Zm0,0" transform="translate(-101.16 -180.063)" fill="#5c3b66"/>
          <path id="Trazado_1004883" data-name="Trazado 1004883" d="M43.632,111.012H41.358a.338.338,0,0,0,0,.676h2.274a.338.338,0,0,0,0-.676Zm0,0" transform="translate(-39.196 -106.017)" fill="#5c3b66"/>
          <path id="Trazado_1004884" data-name="Trazado 1004884" d="M106.24,224.07h4.119a.338.338,0,1,0,0-.676H106.24a.338.338,0,0,0,0,.676Zm0,0" transform="translate(-101.159 -213.342)" fill="#5c3b66"/>
          <path id="Trazado_1004885" data-name="Trazado 1004885" d="M111.781,279.648H106.24a.338.338,0,0,0,0,.676h5.541a.338.338,0,1,0,0-.676Zm0,0" transform="translate(-101.159 -267.064)" fill="#5c3b66"/>
          <path id="Trazado_1004886" data-name="Trazado 1004886" d="M106.24,315.173h2.771a.338.338,0,0,0,0-.676H106.24a.338.338,0,0,0,0,.676Zm0,0" transform="translate(-101.159 -300.345)" fill="#5c3b66"/>
          <path id="Trazado_1004887" data-name="Trazado 1004887" d="M106.24,371.524h4.119a.338.338,0,1,0,0-.676H106.24a.338.338,0,0,0,0,.676Zm0,0" transform="translate(-101.159 -354.16)" fill="#5c3b66"/>
          <path id="Trazado_1004888" data-name="Trazado 1004888" d="M106.24,406.371h5.541a.338.338,0,1,0,0-.676H106.24a.338.338,0,0,0,0,.676Zm0,0" transform="translate(-101.159 -387.44)" fill="#5c3b66"/>
          <path id="Trazado_1004889" data-name="Trazado 1004889" d="M35.5,182.035a1.365,1.365,0,1,0,1.365,1.365A1.367,1.367,0,0,0,35.5,182.035Zm0,2.054a.689.689,0,1,1,.689-.689A.69.69,0,0,1,35.5,184.089Zm0,0" transform="translate(-32.619 -173.844)" fill="#5c3b66"/>
          <path id="Trazado_1004890" data-name="Trazado 1004890" d="M35.5,274.242a1.365,1.365,0,1,0,1.365,1.365A1.367,1.367,0,0,0,35.5,274.242Zm0,2.055a.689.689,0,1,1,.689-.689A.69.69,0,0,1,35.5,276.3Zm0,0" transform="translate(-32.619 -261.901)" fill="#5c3b66"/>
          <path id="Trazado_1004891" data-name="Trazado 1004891" d="M35.5,365.441a1.365,1.365,0,1,0,1.365,1.365A1.367,1.367,0,0,0,35.5,365.441Zm0,2.054a.689.689,0,1,1,.689-.689A.69.69,0,0,1,35.5,367.5Zm0,0" transform="translate(-32.619 -348.997)" fill="#5c3b66"/>
        </g>
      </g>
      <g id="Grupo_1192425" data-name="Grupo 1192425" transform="translate(8063.009 -9054.722)">
        <circle id="Elipse_13786-5" data-name="Elipse 13786" cx="19.116" cy="19.116" r="19.116" transform="translate(0 0)" fill="#fff"/>
        <g id="Grupo_1192427" data-name="Grupo 1192427" transform="translate(10.48 8.666)">
          <g id="Grupo_1192426" data-name="Grupo 1192426" transform="translate(0 0)">
            <path id="Trazado_1004892" data-name="Trazado 1004892" d="M61.413,16.181a.306.306,0,0,0,.306-.306V2.987a.306.306,0,0,0-.306-.306H60.4V1.626a.306.306,0,0,0-.306-.306H59.08V.306A.306.306,0,0,0,58.774,0H44.753a.306.306,0,0,0-.306.306V17.915a.306.306,0,0,0,.306.306h1.013v1.013a.306.306,0,0,0,.306.306h1.013V20.6a.306.306,0,0,0,.306.306H61.413a.306.306,0,0,0,.306-.306V17.3a.306.306,0,0,0-.612,0v2.986H47.7v-.748h12.4a.306.306,0,0,0,.306-.306V14.023a.306.306,0,1,0-.612,0v4.9H46.379v-.707h12.4a.306.306,0,0,0,.306-.306V11.456a.306.306,0,0,0-.612,0v6.153H45.059v-17H58.468v9.411a.306.306,0,0,0,.612,0V1.932h.707V12.593a.306.306,0,1,0,.612,0v-9.3h.707V15.875A.306.306,0,0,0,61.413,16.181Z" transform="translate(-44.447 0)" fill="#5c3b66"/>
            <path id="Trazado_1004893" data-name="Trazado 1004893" d="M87.569,44.383V38.692a.306.306,0,0,0-.306-.306H83.139a.306.306,0,0,0-.306.306v5.691a.306.306,0,0,0,.306.306h4.124A.306.306,0,0,0,87.569,44.383Zm-.612-.306H83.445V39h3.511v5.079Z" transform="translate(-81.266 -36.819)" fill="#5c3b66"/>
            <path id="Trazado_1004894" data-name="Trazado 1004894" d="M226.106,38.692a.306.306,0,0,0-.306-.306h-5.278a.306.306,0,0,0-.306.306v1.4a.306.306,0,0,0,.306.306H225.8a.306.306,0,0,0,.306-.306Zm-.612,1.1h-4.666V39h4.666Z" transform="translate(-213.04 -36.819)" fill="#5c3b66"/>
            <path id="Trazado_1004895" data-name="Trazado 1004895" d="M225.8,109.1h-5.278a.306.306,0,1,0,0,.612H225.8a.306.306,0,1,0,0-.612Z" transform="translate(-213.04 -104.644)" fill="#5c3b66"/>
            <path id="Trazado_1004896" data-name="Trazado 1004896" d="M225.8,141.423h-5.278a.306.306,0,1,0,0,.612H225.8a.306.306,0,1,0,0-.612Z" transform="translate(-213.04 -135.65)" fill="#5c3b66"/>
            <path id="Trazado_1004897" data-name="Trazado 1004897" d="M225.8,177.789h-5.278a.306.306,0,1,0,0,.612H225.8a.306.306,0,1,0,0-.612Z" transform="translate(-213.04 -170.531)" fill="#5c3b66"/>
            <path id="Trazado_1004898" data-name="Trazado 1004898" d="M167.664,214.154h-7.753a.306.306,0,1,0,0,.612h7.753a.306.306,0,1,0,0-.612Z" transform="translate(-154.904 -205.412)" fill="#5c3b66"/>
            <path id="Trazado_1004899" data-name="Trazado 1004899" d="M84.789,214.154h-1.65a.306.306,0,1,0,0,.612h1.649a.306.306,0,0,0,0-.612Z" transform="translate(-81.266 -205.412)" fill="#5c3b66"/>
            <path id="Trazado_1004900" data-name="Trazado 1004900" d="M167.664,250.521h-7.753a.306.306,0,1,0,0,.612h7.753a.306.306,0,1,0,0-.612Z" transform="translate(-154.904 -240.294)" fill="#5c3b66"/>
            <path id="Trazado_1004901" data-name="Trazado 1004901" d="M84.789,250.521h-1.65a.306.306,0,1,0,0,.612h1.649a.306.306,0,0,0,0-.612Z" transform="translate(-81.266 -240.294)" fill="#5c3b66"/>
            <path id="Trazado_1004902" data-name="Trazado 1004902" d="M167.664,286.886h-7.753a.306.306,0,1,0,0,.612h7.753a.306.306,0,1,0,0-.612Z" transform="translate(-154.904 -275.174)" fill="#5c3b66"/>
            <path id="Trazado_1004903" data-name="Trazado 1004903" d="M84.789,286.886h-1.65a.306.306,0,0,0,0,.612h1.649a.306.306,0,0,0,0-.612Z" transform="translate(-81.266 -275.174)" fill="#5c3b66"/>
            <path id="Trazado_1004904" data-name="Trazado 1004904" d="M167.664,323.252h-7.753a.306.306,0,1,0,0,.612h7.753a.306.306,0,1,0,0-.612Z" transform="translate(-154.904 -310.056)" fill="#5c3b66"/>
            <path id="Trazado_1004905" data-name="Trazado 1004905" d="M84.789,323.252h-1.65a.306.306,0,1,0,0,.612h1.649a.306.306,0,0,0,0-.612Z" transform="translate(-81.266 -310.056)" fill="#5c3b66"/>
            <path id="Trazado_1004906" data-name="Trazado 1004906" d="M167.664,359.618h-7.753a.306.306,0,1,0,0,.612h7.753a.306.306,0,1,0,0-.612Z" transform="translate(-154.904 -344.937)" fill="#5c3b66"/>
            <path id="Trazado_1004907" data-name="Trazado 1004907" d="M84.789,359.618h-1.65a.306.306,0,1,0,0,.612h1.649a.306.306,0,0,0,0-.612Z" transform="translate(-81.266 -344.937)" fill="#5c3b66"/>
          </g>
        </g>
      </g>
      <g id="Grupo_1192428" data-name="Grupo 1192428" transform="translate(8101.242 -8988.451)">
        <circle id="Elipse_13786-6" data-name="Elipse 13786" cx="19.116" cy="19.116" r="19.116" transform="translate(0)" fill="#fff"/>
        <g id="Grupo_1192429" data-name="Grupo 1192429" transform="translate(11.77 8.338)">
          <path id="Trazado_1004908" data-name="Trazado 1004908" d="M121.742,191.822a.822.822,0,0,0-.821-.821h-.842a.822.822,0,0,0-.821.821v.842a.822.822,0,0,0,.821.821h.842a.822.822,0,0,0,.821-.821Zm-.632.842a.192.192,0,0,1-.189.189h-.842a.192.192,0,0,1-.189-.189v-.842a.192.192,0,0,1,.189-.189h.842a.192.192,0,0,1,.189.189Z" transform="translate(-117.668 -182.96)" fill="#5c3b66"/>
          <path id="Trazado_1004909" data-name="Trazado 1004909" d="M193.237,191.822a.822.822,0,0,0-.821-.821h-.842a.822.822,0,0,0-.821.821v.842a.822.822,0,0,0,.821.821h.842a.822.822,0,0,0,.821-.821Zm-.632.842a.192.192,0,0,1-.189.189h-.842a.192.192,0,0,1-.189-.189v-.842a.192.192,0,0,1,.189-.189h.842a.192.192,0,0,1,.189.189Z" transform="translate(-186.153 -182.96)" fill="#5c3b66"/>
          <path id="Trazado_1004910" data-name="Trazado 1004910" d="M263.07,193.485h.842a.822.822,0,0,0,.821-.821v-.842a.822.822,0,0,0-.821-.821h-.842a.822.822,0,0,0-.821.821v.842A.822.822,0,0,0,263.07,193.485Zm-.189-1.663a.192.192,0,0,1,.189-.189h.842a.192.192,0,0,1,.189.189v.842a.192.192,0,0,1-.189.189h-.842a.192.192,0,0,1-.189-.189Z" transform="translate(-254.639 -182.96)" fill="#5c3b66"/>
          <path id="Trazado_1004911" data-name="Trazado 1004911" d="M336.228,191.822a.822.822,0,0,0-.821-.821h-.842a.822.822,0,0,0-.821.821v.842a.822.822,0,0,0,.821.821h.842a.822.822,0,0,0,.821-.821Zm-.632.842a.192.192,0,0,1-.189.189h-.842a.192.192,0,0,1-.189-.189v-.842a.192.192,0,0,1,.189-.189h.842a.192.192,0,0,1,.189.189Z" transform="translate(-323.124 -182.96)" fill="#5c3b66"/>
          <path id="Trazado_1004912" data-name="Trazado 1004912" d="M121.742,264.322a.822.822,0,0,0-.821-.821h-.842a.822.822,0,0,0-.821.821v.842a.822.822,0,0,0,.821.821h.842a.822.822,0,0,0,.821-.821Zm-.632.842a.192.192,0,0,1-.189.189h-.842a.192.192,0,0,1-.189-.189v-.842a.192.192,0,0,1,.189-.189h.842a.192.192,0,0,1,.189.189Z" transform="translate(-117.668 -252.407)" fill="#5c3b66"/>
          <path id="Trazado_1004913" data-name="Trazado 1004913" d="M193.237,264.322a.822.822,0,0,0-.821-.821h-.842a.822.822,0,0,0-.821.821v.842a.822.822,0,0,0,.821.821h.842a.822.822,0,0,0,.821-.821Zm-.632.842a.192.192,0,0,1-.189.189h-.842a.192.192,0,0,1-.189-.189v-.842a.192.192,0,0,1,.189-.189h.842a.192.192,0,0,1,.189.189Z" transform="translate(-186.153 -252.407)" fill="#5c3b66"/>
          <path id="Trazado_1004914" data-name="Trazado 1004914" d="M262.249,265.164a.822.822,0,0,0,.821.821h.842a.822.822,0,0,0,.821-.821v-.842a.822.822,0,0,0-.821-.821h-.842a.822.822,0,0,0-.821.821Zm.632-.842a.192.192,0,0,1,.189-.189h.842a.192.192,0,0,1,.189.189v.842a.192.192,0,0,1-.189.189h-.842a.192.192,0,0,1-.189-.189Z" transform="translate(-254.639 -252.407)" fill="#5c3b66"/>
          <path id="Trazado_1004915" data-name="Trazado 1004915" d="M336.228,264.322a.822.822,0,0,0-.821-.821h-.842a.822.822,0,0,0-.821.821v.842a.822.822,0,0,0,.821.821h.842a.822.822,0,0,0,.821-.821Zm-.632.842a.192.192,0,0,1-.189.189h-.842a.192.192,0,0,1-.189-.189v-.842a.192.192,0,0,1,.189-.189h.842a.192.192,0,0,1,.189.189Z" transform="translate(-323.124 -252.407)" fill="#5c3b66"/>
          <path id="Trazado_1004916" data-name="Trazado 1004916" d="M121.742,336.822a.822.822,0,0,0-.821-.821h-.842a.822.822,0,0,0-.821.821v.842a.822.822,0,0,0,.821.821h.842a.822.822,0,0,0,.821-.821Zm-.632.842a.192.192,0,0,1-.189.189h-.842a.192.192,0,0,1-.189-.189v-.842a.192.192,0,0,1,.189-.189h.842a.192.192,0,0,1,.189.189Z" transform="translate(-117.668 -321.855)" fill="#5c3b66"/>
          <path id="Trazado_1004917" data-name="Trazado 1004917" d="M193.237,336.822a.822.822,0,0,0-.821-.821h-.842a.822.822,0,0,0-.821.821v.842a.822.822,0,0,0,.821.821h.842a.822.822,0,0,0,.821-.821Zm-.632.842a.192.192,0,0,1-.189.189h-.842a.192.192,0,0,1-.189-.189v-.842a.192.192,0,0,1,.189-.189h.842a.192.192,0,0,1,.189.189Z" transform="translate(-186.153 -321.855)" fill="#5c3b66"/>
          <path id="Trazado_1004918" data-name="Trazado 1004918" d="M262.249,337.664a.822.822,0,0,0,.821.821h.842a.822.822,0,0,0,.821-.821v-.842a.822.822,0,0,0-.821-.821h-.842a.822.822,0,0,0-.821.821Zm.632-.842a.192.192,0,0,1,.189-.189h.842a.192.192,0,0,1,.189.189v.842a.192.192,0,0,1-.189.189h-.842a.192.192,0,0,1-.189-.189Z" transform="translate(-254.639 -321.855)" fill="#5c3b66"/>
          <path id="Trazado_1004919" data-name="Trazado 1004919" d="M336.228,336.822a.822.822,0,0,0-.821-.821h-.842a.822.822,0,0,0-.821.821v.842a.822.822,0,0,0,.821.821h.842a.822.822,0,0,0,.821-.821Zm-.632.842a.192.192,0,0,1-.189.189h-.842a.192.192,0,0,1-.189-.189v-.842a.192.192,0,0,1,.189-.189h.842a.192.192,0,0,1,.189.189Z" transform="translate(-323.124 -321.855)" fill="#5c3b66"/>
          <path id="Trazado_1004920" data-name="Trazado 1004920" d="M120.921,408.5h-.842a.822.822,0,0,0-.821.821v.842a.822.822,0,0,0,.821.821h.842a.822.822,0,0,0,.821-.821v-.842A.822.822,0,0,0,120.921,408.5Zm.189,1.663a.192.192,0,0,1-.189.189h-.842a.192.192,0,0,1-.189-.189v-.842a.192.192,0,0,1,.189-.189h.842a.192.192,0,0,1,.189.189Z" transform="translate(-117.668 -391.303)" fill="#5c3b66"/>
          <path id="Trazado_1004921" data-name="Trazado 1004921" d="M192.416,408.5h-.842a.822.822,0,0,0-.821.821v.842a.822.822,0,0,0,.821.821h.842a.822.822,0,0,0,.821-.821v-.842A.822.822,0,0,0,192.416,408.5Zm.189,1.663a.192.192,0,0,1-.189.189h-.842a.192.192,0,0,1-.189-.189v-.842a.192.192,0,0,1,.189-.189h.842a.192.192,0,0,1,.189.189Z" transform="translate(-186.153 -391.303)" fill="#5c3b66"/>
          <path id="Trazado_1004922" data-name="Trazado 1004922" d="M262.249,410.164a.822.822,0,0,0,.821.821h3.852a.822.822,0,0,0,.821-.821v-.842a.822.822,0,0,0-.821-.821H263.07a.822.822,0,0,0-.821.821Zm.632-.842a.192.192,0,0,1,.189-.189h3.852a.192.192,0,0,1,.189.189v.842a.192.192,0,0,1-.189.189H263.07a.192.192,0,0,1-.189-.189Z" transform="translate(-254.639 -391.303)" fill="#5c3b66"/>
          <path id="Trazado_1004923" data-name="Trazado 1004923" d="M216.079,35.633a.316.316,0,0,0,0-.632h-3.01a.316.316,0,0,0,0,.632Z" transform="translate(-207.227 -33.527)" fill="#5c3b66"/>
          <path id="Trazado_1004924" data-name="Trazado 1004924" d="M130.772,70.049a.711.711,0,0,0-.71-.71H119.968a.711.711,0,0,0-.71.71v2.958a.711.711,0,0,0,.71.71h4.31a.316.316,0,1,0,0-.632h-4.31a.079.079,0,0,1-.079-.079V70.049a.079.079,0,0,1,.079-.079h10.093a.079.079,0,0,1,.079.079v2.958a.079.079,0,0,1-.079.079h-4.31a.316.316,0,1,0,0,.632h4.31a.711.711,0,0,0,.71-.71Z" transform="translate(-117.668 -66.42)" fill="#5c3b66"/>
          <path id="Trazado_1004925" data-name="Trazado 1004925" d="M81.5,1.7V19.858a1.7,1.7,0,0,0,1.7,1.7H94.5a1.7,1.7,0,0,0,1.7-1.7V11.515a.316.316,0,0,0-.632,0v8.344A1.067,1.067,0,0,1,94.5,20.924H83.2a1.067,1.067,0,0,1-1.066-1.066V1.7A1.067,1.067,0,0,1,83.2.631H94.5A1.067,1.067,0,0,1,95.563,1.7v8.344a.316.316,0,1,0,.632,0V1.7A1.7,1.7,0,0,0,94.5,0H83.2a1.7,1.7,0,0,0-1.7,1.7Z" transform="translate(-81.501 0)" fill="#5c3b66"/>
        </g>
      </g>
    </g>
    <text id="Nombran_al_sustantivo_de_manera_vaga_o_imprecisa._Ejemplo:_algún_día_se_resolverá_el_inconveniente." data-name="Nombran al sustantivo de manera vaga o imprecisa. Ejemplo: algún día se resolverá el inconveniente." transform="translate(7261.605 -8489.286)" fill="#12263f" font-size="16" font-family="SegoeUI, Segoe UI" letter-spacing="0.003em"><tspan x="0" y="17">Nombran al sustantivo de manera vaga o </tspan><tspan x="0" y="41">imprecisa. Ejemplo: algún día se resolverá el </tspan><tspan x="0" y="65">inconveniente.</tspan></text>
    <text id="Indican_la_actitud_del_hablante_en_enunciados_interrogativos_o_exclamativos._Ejemplo:_Qué_horario_prefiere_._Cuánta_lluvia_ha_caído_." data-name="Indican la actitud del hablante en enunciados interrogativos o exclamativos. Ejemplo: ¿Qué horario prefiere?. ¡Cuánta lluvia ha caído!." transform="translate(7261.605 -8159.604)" fill="#12263f" font-size="16" font-family="SegoeUI, Segoe UI" letter-spacing="0.003em"><tspan x="0" y="17">Indican la actitud del hablante en enunciados </tspan><tspan x="0" y="41">interrogativos o exclamativos. Ejemplo: ¿Qué </tspan><tspan x="0" y="65">horario prefiere?. ¡Cuánta lluvia ha caído!.</tspan></text>
    <text id="Indican_la_posición_del_sustantivo_con_respecto_a_la_persona_que_habla_o_escucha._Ejemplo:_este_informe_debe_ser_revisado_hoy." data-name="Indican la posición del sustantivo con respecto a la persona que habla o escucha. Ejemplo: este informe debe ser revisado hoy." transform="translate(7261.605 -7853.923)" fill="#12263f" font-size="16" font-family="SegoeUI, Segoe UI" letter-spacing="0.003em"><tspan x="0" y="17">Indican la posición del sustantivo con respecto a </tspan><tspan x="0" y="41">la persona que habla o escucha. Ejemplo: este </tspan><tspan x="0" y="65">informe debe ser revisado hoy.</tspan></text>
    <text id="Remiten_a_un_elemento_mencionado_anteriormente_en_el_discurso._Ejemplo:_el_aprendiz_cuya_asistencia_fue_completa_recibió_el_certificado." data-name="Remiten a un elemento mencionado anteriormente en el discurso. Ejemplo: el aprendiz cuya asistencia fue completa recibió el certificado." transform="translate(7261.605 -8336.445)" fill="#12263f" font-size="16" font-family="SegoeUI, Segoe UI" letter-spacing="0.003em"><tspan x="0" y="17">Remiten a un elemento mencionado </tspan><tspan x="0" y="41">anteriormente en el discurso. Ejemplo: el aprendiz </tspan><tspan x="0" y="65">cuya asistencia fue completa recibió el certificado.</tspan></text>
    <text id="Indican_pertenencia_en_relación_con_la_primera_segunda_o_tercera_persona._Ejemplo:_el_aprendiz_entregó_su_proyecto_a_tiempo." data-name="Indican pertenencia en relación con la primera, segunda o tercera persona. Ejemplo: el aprendiz entregó su proyecto a tiempo." transform="translate(7261.605 -8006.764)" fill="#12263f" font-size="16" font-family="SegoeUI, Segoe UI" letter-spacing="0.003em"><tspan x="0" y="17">Indican pertenencia en relación con la primera, </tspan><tspan x="0" y="41">segunda o tercera persona. Ejemplo: el aprendiz </tspan><tspan x="0" y="65">entregó su proyecto a tiempo.</tspan></text>
    <text id="Indican_un_número_determinado_y_se_subdividen_en_cardinales_ordinales_partitivos_múltiplos_y_colectivos._Ejemplo:_el_primer_estudiante." data-name="Indican un número determinado y se subdividen en cardinales, ordinales, partitivos, múltiplos y colectivos. Ejemplo: el primer estudiante." transform="translate(7261.605 -7701.082)" fill="#12263f" font-size="16" font-family="SegoeUI, Segoe UI" letter-spacing="0.003em"><tspan x="0" y="17">Indican un número determinado y se subdividen </tspan><tspan x="0" y="41">en cardinales, ordinales, partitivos, múltiplos y </tspan><tspan x="0" y="65">colectivos. Ejemplo: el primer estudiante.</tspan></text>
  </g>
</svg>
