<svg xmlns="http://www.w3.org/2000/svg" width="130" height="130" viewBox="0 0 130 130">
  <g id="Grupo_1177375" data-name="Grupo 1177375" transform="translate(-72.746 -7992)">
    <g id="Elipse_13628" data-name="Elipse 13628" transform="translate(72.746 7992)" fill="#fff7e2" stroke="#cff878" stroke-width="6">
      <circle cx="65" cy="65" r="65" stroke="none"/>
      <circle cx="65" cy="65" r="62" fill="none"/>
    </g>
    <g id="Page-1" transform="translate(102.275 8021.528)">
      <g id="_022---Radiators" data-name="022---Radiators" transform="translate(0 0)">
        <path id="Shape" d="M61.391,30.77V67.082a1.182,1.182,0,0,1-1.182,1.182H8.182A1.182,1.182,0,0,1,7,67.082V30.77L34.2,8.21Z" transform="translate(1.277 1.497)" fill="#ffe0b2"/>
        <path id="Shape-2" data-name="Shape" d="M30.274,8.21,28.5,9.681,53.922,30.77V67.082a1.182,1.182,0,0,1-1.182,1.182h3.547a1.182,1.182,0,0,0,1.182-1.182V30.77Z" transform="translate(5.199 1.497)" fill="#dfc49c"/>
        <path id="Shape-3" data-name="Shape" d="M54.277,8.182V22.111L46,15.241V8.182A1.182,1.182,0,0,1,47.182,7h5.912a1.182,1.182,0,0,1,1.182,1.182Z" transform="translate(8.391 1.276)" fill="#c81e1e"/>
        <path id="Shape-4" data-name="Shape" d="M69.272,30.442l-2.944,3.334a1.182,1.182,0,0,1-1.655.118l-2.187-1.809L35.29,9.526l-27.2,22.56L5.907,33.895a1.182,1.182,0,0,1-1.655-.118L1.308,30.442a1.182,1.182,0,0,1,.13-1.714L34.521,1.272a1.212,1.212,0,0,1,1.537,0l18.15,15.064,8.277,6.87,6.657,5.522a1.182,1.182,0,0,1,.13,1.714Z" transform="translate(0.182 0.181)" fill="#f44335"/>
        <path id="Shape-5" data-name="Shape" d="M64.126,28.728l-6.657-5.522-8.277-6.87L31.042,1.272a1.212,1.212,0,0,0-1.537,0L28.5,2.106l17.145,14.23,8.277,6.87,6.657,5.522a1.182,1.182,0,0,1,.13,1.714l-2.206,2.5,1.154.954a1.182,1.182,0,0,0,1.655-.118l2.944-3.334a1.182,1.182,0,0,0-.13-1.714Z" transform="translate(5.199 0.181)" fill="#c81e1e"/>
        <rect id="Rectangle-path" width="35.472" height="22.466" rx="4" transform="translate(17.736 37.836)" fill="#f5f5f5"/>
        <path id="Shape-6" data-name="Shape" d="M41.547,32H38a4.73,4.73,0,0,1,4.73,4.73V49.736A4.73,4.73,0,0,1,38,54.466h3.547a4.73,4.73,0,0,0,4.73-4.73V36.73A4.73,4.73,0,0,0,41.547,32Z" transform="translate(6.931 5.836)" fill="#cfd8dc"/>
        <path id="Shape-7" data-name="Shape" d="M19,51h7.094v2.365A2.365,2.365,0,0,1,23.73,55.73H21.365A2.365,2.365,0,0,1,19,53.365Z" transform="translate(3.466 9.302)" fill="#9e9e9e"/>
        <path id="Shape-8" data-name="Shape" d="M35,51h7.094v2.365A2.365,2.365,0,0,1,39.73,55.73H37.365A2.365,2.365,0,0,1,35,53.365Z" transform="translate(6.384 9.302)" fill="#9e9e9e"/>
        <g id="Grupo_1178197" data-name="Grupo 1178197">
          <path id="Shape-9" data-name="Shape" d="M63.85,22.829V9.459a2.365,2.365,0,0,0-2.365-2.365H55.573a2.365,2.365,0,0,0-2.365,2.365V14L36.994.55a2.383,2.383,0,0,0-3.044,0L.862,28A2.381,2.381,0,0,0,.6,31.413l2.948,3.326a2.372,2.372,0,0,0,3.311.253l.236-.2V68.579a2.365,2.365,0,0,0,2.365,2.365H61.485a2.365,2.365,0,0,0,2.365-2.365V34.789l.245.2a2.372,2.372,0,0,0,3.3-.253l2.945-3.327A2.38,2.38,0,0,0,70.08,28ZM55.573,9.459h5.912V20.867l-5.912-4.9Zm5.912,59.12H9.459V32.827L35.472,11.248,61.485,32.827Zm4.144-35.408a.018.018,0,0,1-.025,0L36.228,8.8a1.182,1.182,0,0,0-1.511,0L5.321,33.171,2.372,29.819,35.483,2.365l33.1,27.48Z" transform="translate(0 0)"/>
          <path id="Shape-10" data-name="Shape" d="M14,36.912V49.918a5.923,5.923,0,0,0,4.73,5.794v1.3a3.547,3.547,0,0,0,3.547,3.547h2.365a3.547,3.547,0,0,0,3.547-3.547V55.83h9.459v1.182A3.547,3.547,0,0,0,41.2,60.56H43.56a3.547,3.547,0,0,0,3.547-3.547v-1.3a5.923,5.923,0,0,0,4.73-5.794V36.912A5.919,5.919,0,0,0,45.925,31H19.912A5.919,5.919,0,0,0,14,36.912Zm11.824,20.1A1.182,1.182,0,0,1,24.642,58.2H22.277a1.182,1.182,0,0,1-1.182-1.182V55.83h4.73Zm18.918,0A1.182,1.182,0,0,1,43.56,58.2H41.2a1.182,1.182,0,0,1-1.182-1.182V55.83h4.73Zm4.73-20.1V49.918a3.547,3.547,0,0,1-3.547,3.547H19.912a3.547,3.547,0,0,1-3.547-3.547V36.912a3.547,3.547,0,0,1,3.547-3.547H45.925A3.547,3.547,0,0,1,49.472,36.912Z" transform="translate(2.554 5.654)"/>
          <path id="Shape-11" data-name="Shape" d="M19,47.824a1.182,1.182,0,1,0,2.365,0V37.182a1.182,1.182,0,1,0-2.365,0Z" transform="translate(3.466 6.566)"/>
          <path id="Shape-12" data-name="Shape" d="M25.182,49.006a1.182,1.182,0,0,0,1.182-1.182V37.182a1.182,1.182,0,0,0-2.365,0V47.824A1.182,1.182,0,0,0,25.182,49.006Z" transform="translate(4.378 6.566)"/>
          <path id="Shape-13" data-name="Shape" d="M30.182,49.006a1.182,1.182,0,0,0,1.182-1.182V37.182a1.182,1.182,0,1,0-2.365,0V47.824A1.182,1.182,0,0,0,30.182,49.006Z" transform="translate(5.29 6.566)"/>
          <path id="Shape-14" data-name="Shape" d="M35.182,49.006a1.182,1.182,0,0,0,1.182-1.182V37.182a1.182,1.182,0,1,0-2.365,0V47.824A1.182,1.182,0,0,0,35.182,49.006Z" transform="translate(6.202 6.566)"/>
          <path id="Shape-15" data-name="Shape" d="M40.182,49.006a1.182,1.182,0,0,0,1.182-1.182V37.182a1.182,1.182,0,1,0-2.365,0V47.824A1.182,1.182,0,0,0,40.182,49.006Z" transform="translate(7.114 6.566)"/>
          <path id="Shape-16" data-name="Shape" d="M29.365,18.182a3.054,3.054,0,0,1-.923,2.217,5.457,5.457,0,0,0,0,7.39,3.054,3.054,0,0,1,.923,2.217,1.182,1.182,0,0,0,2.365,0,5.353,5.353,0,0,0-1.441-3.7,3.123,3.123,0,0,1,0-4.434,5.353,5.353,0,0,0,1.441-3.7,1.182,1.182,0,1,0-2.365,0Z" transform="translate(4.925 3.1)"/>
          <path id="Shape-17" data-name="Shape" d="M24.365,30.006a1.182,1.182,0,0,0,2.365,0,5.353,5.353,0,0,0-1.441-3.7,3.123,3.123,0,0,1,0-4.434,5.353,5.353,0,0,0,1.441-3.7,1.182,1.182,0,1,0-2.365,0,3.054,3.054,0,0,1-.923,2.217,5.457,5.457,0,0,0,0,7.39A3.054,3.054,0,0,1,24.365,30.006Z" transform="translate(4.013 3.1)"/>
          <path id="Shape-18" data-name="Shape" d="M34.365,30.006a1.182,1.182,0,1,0,2.365,0,5.353,5.353,0,0,0-1.441-3.7,3.123,3.123,0,0,1,0-4.434,5.353,5.353,0,0,0,1.441-3.7,1.182,1.182,0,1,0-2.365,0,3.054,3.054,0,0,1-.923,2.217,5.457,5.457,0,0,0,0,7.39A3.054,3.054,0,0,1,34.365,30.006Z" transform="translate(5.837 3.1)"/>
        </g>
      </g>
    </g>
  </g>
</svg>
