<svg id="Grupo_1178137" data-name="Grupo 1178137" xmlns="http://www.w3.org/2000/svg" xmlns:xlink="http://www.w3.org/1999/xlink" width="80" height="120.666" viewBox="0 0 80 120.666">
  <defs>
    <clipPath id="clip-path">
      <path id="Trazado_997362" data-name="Trazado 997362" d="M35.828,76.566A4.406,4.406,0,0,1,40,71.967a4.621,4.621,0,0,1,0,9.2,4.406,4.406,0,0,1-4.172-4.6M17.914,0C8.037,0,0,8.86,0,19.75v81.165c0,10.89,8.037,19.75,17.914,19.75a16.606,16.606,0,0,0,8.768-2.542A36.455,36.455,0,0,0,40,120.666c22.056,0,40-19.783,40-44.1s-17.944-44.1-40-44.1a36,36,0,0,0-4.172.244V19.75C35.828,8.86,27.792,0,17.914,0Z" fill="none"/>
    </clipPath>
    <linearGradient id="linear-gradient" y1="1" x2="0.008" y2="1" gradientUnits="objectBoundingBox">
      <stop offset="0" stop-color="#d1d3d4"/>
      <stop offset="1" stop-color="#f1f2f2"/>
    </linearGradient>
    <clipPath id="clip-path-2">
      <path id="Trazado_997363" data-name="Trazado 997363" d="M30.024,79.084c0-8.09,5.821-14.671,12.976-14.671s12.976,6.582,12.976,14.671S50.155,93.755,43,93.755,30.024,87.174,30.024,79.084M15,25.032V102.25c0,4.691,3.364,8.494,7.512,8.494a7.4,7.4,0,0,0,6.511-4.268A25.381,25.381,0,0,0,43,110.743c15.439,0,28-14.2,28-31.659s-12.561-31.66-28-31.66a25.284,25.284,0,0,0-12.976,3.63V25.032c0-4.691-3.363-8.494-7.512-8.494S15,20.341,15,25.032" transform="translate(-15 -16.538)" fill="none"/>
    </clipPath>
    <linearGradient id="linear-gradient-2" x1="-0.163" y1="1.109" x2="-0.152" y2="1.109" gradientUnits="objectBoundingBox">
      <stop offset="0" stop-color="#fbbd46"/>
      <stop offset="0.003" stop-color="#fabc45"/>
      <stop offset="0.177" stop-color="#fab531"/>
      <stop offset="0.373" stop-color="#fab022"/>
      <stop offset="0.61" stop-color="#faac1a"/>
      <stop offset="1" stop-color="#faac18"/>
    </linearGradient>
  </defs>
  <g id="Grupo_1178134" data-name="Grupo 1178134">
    <g id="Grupo_1178133" data-name="Grupo 1178133" clip-path="url(#clip-path)">
      <rect id="Rect치ngulo_455112" data-name="Rect치ngulo 455112" width="80" height="120.666" transform="translate(0 0)" fill="url(#linear-gradient)"/>
    </g>
  </g>
  <g id="Grupo_1178136" data-name="Grupo 1178136" transform="translate(12 13.23)">
    <g id="Grupo_1178135" data-name="Grupo 1178135" clip-path="url(#clip-path-2)">
      <rect id="Rect치ngulo_455113" data-name="Rect치ngulo 455113" width="56" height="94.205" transform="translate(0 0)" fill="url(#linear-gradient-2)"/>
    </g>
  </g>
</svg>
