<svg xmlns="http://www.w3.org/2000/svg" width="380" height="141" viewBox="0 0 380 141">
  <g id="Grupo_1195826" data-name="Grupo 1195826" transform="translate(-809.954 -3621)">
    <rect id="Rectángulo_455487" data-name="Rectángulo 455487" width="380" height="141" rx="10" transform="translate(809.954 3621)" fill="#e795ff"/>
    <g id="_419672529_37903d2d-f3b2-4844-a89b-98c34a255da6" data-name="419672529_37903d2d-f3b2-4844-a89b-98c34a255da6" transform="translate(121.998 3211.93)">
      <path id="Trazado_1005479" data-name="Trazado 1005479" d="M1222.908,430.582a16.962,16.962,0,0,0-2.963.973c-3.4,1.638-4.878,5.727-4.1,9.311-.267-.057-.43.147-.6.211-.554.205-.9.13-1.482.637-3.471,3.032.271,9.312,4.51,8.647.632-.071.4.163.246.548-.175.43-.675,1.511-1.053,1.672-.1.043-.4.029-.617.09s-.367.311-.392.313a4.27,4.27,0,0,0-1.211,0c-3.005.541-7.151,1.6-9.687,3.431-1.223-.462-2.744-.079-4.037-.2.127,1.7-.26,3.6.2,5.248-.527,1-1.168,2.384-1.615,3.431h-5.651l.2-6.457H1188.6v-5.247h-7.468l.2-6.862H1166.2v4.036h-3.633v5.449a22.793,22.793,0,0,0-3.935.22c-.327.011-1.716-.49-1.716.083v4.339a5.985,5.985,0,0,0-4.843-.2,14.494,14.494,0,0,0-19.776-15.839,14.279,14.279,0,0,0-8.885,14.831c-3.842-1.148-7.647,2.2-5.962,6.064l1.118,1.4c-2.174-.445-4.434-.679-6.457.3v5.954c-1.448.084-3.008-.114-4.44,0a33.36,33.36,0,0,0,1.993-7.392c.3-2.394.188-4.841.43-7.239a44.964,44.964,0,0,1,17.174-30.456c26.057-20.448,66.923-13.7,93.963,1.458A4.53,4.53,0,0,1,1222.908,430.582Z" transform="translate(-337.846)" fill="#e2e2e7"/>
      <path id="Trazado_1005480" data-name="Trazado 1005480" d="M5121.993,1732.708c-.026.078.017.166-.112.184-.668.058-1.34-.007-2.009.017-.244.009-.751-.152-.7.2,5.9,1.892,11.978,3.383,17.694,5.82,12.764,5.441,26.112,15.316,30.893,28.847,4.07,11.519,1.123,23.3-7.012,32.14-1.946-.048-3.907.035-5.853,0a2.957,2.957,0,0,0-3.429-.2c.772-2.906-.213-6-3.634-5.854.128-1.1,1.018-1.492,2.017-1.614a7.7,7.7,0,0,0,1.413,0c.905-.2.976.994,1.553,1.175a1.16,1.16,0,1,0,0-2.148c-.44.14-.429.619-.59.729-.185.127-.424,0-.558.043a3.842,3.842,0,0,0-2.122-.2c-.325.029-.282.193-.3.2-.351.067-.683.418-.6-.1a12.607,12.607,0,0,1,1.1-2.943,10.732,10.732,0,0,1,1.523-1.118c.609-.172,1.291.379,2.024.021,1.124-.547.527-2.809-1.269-2.281-1.073.316-.565,1.535-.792,1.94a12.429,12.429,0,0,0-1.572,1.048c.213-.788.016-2.482.187-3.105.033-.119,1.271-.289,1.422-1.454a1.623,1.623,0,1,0-3.224-.365c-.143,1.451,1.39,1.7,1.423,1.82.431,1.552-1.1,7.01-2.181,8.3-.8.953-2.56,1.568-2.879,3.075-.349.054-.166-.238-.143-.444.277-2.463.628-4.044,0-6.575-.622-2.51-3.81-8.716-7.028-6.107-3.045,2.469-1.37,10.251-.3,13.53-1.5-1.544-3.208-3.819-5.651-2.726-2.156.964-1.771,3.653-.806,5.35h-4.44q.008-12.71,0-25.431l3.835,0a4.348,4.348,0,0,0,.1-2.62c-.143-.315-2.986-2.72-3.528-3.233-.264-.25-.5-.525-.808-.807-.42-.39-2.535-2.624-2.725-2.624h-5.752v-4.642h4.844v-5.449h-4.541c-.061,0-.154.256-.3.2v-4.238h4.844v-5.651h-4.844v-5.046h4.844v-5.449h-4.844v-2.221Z" transform="translate(-4167.504 -1258.532)" fill="#e2e2e7"/>
      <path id="Trazado_1005481" data-name="Trazado 1005481" d="M768,1791.23c.012.671-.01,1.348,0,2.019a24.394,24.394,0,0,1,7.914.662c5.672,1.536,8.02,5.679,14.934,4.526,2.925-.488,5.029-2.293,7.933-2.562a24.3,24.3,0,0,1,2.923,0c.02.013-.051.273.039.353a51.883,51.883,0,0,0,5.208.051v5.046c-1.746.006-3.5,0-5.247,0v5.651c1.746,0,3.5-.006,5.247,0v4.036a29.636,29.636,0,0,0-5.247.2v5.247c1.746,0,3.5-.006,5.247,0v4.44a5.38,5.38,0,0,1-.894.21c-1.247.011-4.476-.248-5.422.033a25.883,25.883,0,0,0-2.766,2.582c-.394.35-.8.634-1.211,1.009-.742.686-2.872,2.293-3.229,3.027a6.974,6.974,0,0,0-.2,2.624h4.036c.047,8.473-.063,16.957,0,25.43-1.274-.027-2.561.038-3.835,0-.889-.026-1.813-.473-2.825,0,1.929-2.215,3.876-7.279.337-8.913-3.014-1.391-5.26,1.74-7,3.667,1.5-4.8,2.937-9.905,1.956-14.976-1.026-5.3-4.654-5.807-7.914-1.778-2.287,2.826-2.671,5.491-3.465,8.85-.049.208.022.495-.265.435-.475-1.662-1.258-3.219-1.645-4.916-.286-1.254-.894-5.192-.546-6.252.16-.488,1.508-.423,1.34-1.8a1.4,1.4,0,0,0-2.8.156c0,1.068.971,1.239,1.024,1.454.161.654-.075,1.978,0,2.783a22.338,22.338,0,0,1,.4,3.332c-.434-.521-1.868-.988-2.213-1.317-.54-.515-.021-1.924-1.7-1.7-1.98.258-.949,3.014.49,2.538.266-.088.5-.425.755-.492.755-.194,2.519,1.37,2.916,2.043.241.407,2.054,4.754,2.133,5.133.167.813-.038,1.747.048,2.576a27.827,27.827,0,0,1,.4,3.331l-1.647-2.891c-1.6-2.285-4.6-2.858-6.31-.324-1.425,2.115-.484,4.471.087,6.646-.454.031-.521-.312-.735-.576-9.926-12.205-15.717-28.552-10.112-44.077C758.643,1801.825,763.871,1797.109,768,1791.23Z" transform="translate(0 -1314.43)" fill="#e2e2e7"/>
      <path id="Trazado_1005482" data-name="Trazado 1005482" d="M1068.856,1074.713c1.432-.114,2.993.083,4.44,0v-5.954c2.023-.983,4.283-.749,6.457-.3l-1.118-1.4c-1.684-3.864,2.12-7.211,5.962-6.064a14.279,14.279,0,0,1,8.885-14.831A14.494,14.494,0,0,1,1113.259,1062a5.985,5.985,0,0,1,4.843.2v-4.339c0-.573,1.39-.072,1.716-.083a22.784,22.784,0,0,1,3.935-.22v-5.449h3.633v-4.036h15.137l-.2,6.862h7.468v5.247h6.055l-.2,6.457h5.651c-.714,1.675-1.453,3.714-2.018,5.449l-47.429,0a1.838,1.838,0,0,0-.2-1.213c-.923-2.756-6.19-2.08-5.651,1.211-1.746.006-3.5,0-5.247,0v3.835c1.746,0,3.5-.006,5.247,0v2.22c-1.747.006-3.5,0-5.248,0v5.047a24.276,24.276,0,0,0-2.923,0c-2.9.269-5.008,2.074-7.933,2.562-6.913,1.153-9.262-2.99-14.934-4.526a24.4,24.4,0,0,0-7.914-.662c-.01-.671.011-1.348,0-2.019-.021-1.208.016-2.426,0-3.634C1067.672,1075.1,1068.358,1074.753,1068.856,1074.713Z" transform="translate(-299.036 -601.748)" fill="#d4d3da"/>
      <path id="Trazado_1005483" data-name="Trazado 1005483" d="M845.04,2664.114v.2h-5.449v25.228h5.449c.012.536-.01,1.079,0,1.615h4.239c.36-.335.2-1.109.2-1.615H907.4c.07,1.844.745,6.791,3.326,6.674,2.669-.12,3.853-5.023,4.141-7.078-.113.609.309.391.7.4,6.878.229,13.866-.152,20.7-.2-.035,1.619-.427,3.166,0,4.843,3.635.063,7.562.7,11.174.379,5.305-.465,8.745-3.456,1.338-4.818v-.2c10.626.027,21.262-.02,31.888,0,.013.536-.01,1.079,0,1.615l4.325,0c.217-.032.109-1.3.116-1.618h4.845l.2-24.422q0,14.83,0,29.669H995.2c.334-.209.2-.766.205-1.107.015-1.379,0-2.763,0-4.14h4.44c.051.089.94.9.807,1.007-1.805-.594-4.157-.031-2.893,2.23,4.209.243,8.826-.354,12.984-.008.334.028,1.1.49.2-.2a1.6,1.6,0,0,0,.906-.405c1.758-1.271,3.556-2.977,5.373-4.114.251-.157.444-.392.786-.323-1.963,1.817-4.431,3.1-6.257,5.043h11c1.314,0,2.612-2,1.514-3.229,1.946.035,3.907-.048,5.853,0,2.218.054,4-.352,5.532,1.633a4.343,4.343,0,0,1-3.4,7.054H796.493a4.364,4.364,0,0,1-3-7.054c1.348-1.77,3.3-1.711,5.331-1.632.064,1.725,1.8,2.949,3.383,3.177,3.36.484,7.781.039,11.149-.149.067,0,.135,0,.2,0,.452-.011.67.692,1.009-.4.043.076.187.15.2.2.034.118-.114.362.126.413l15.512-.013c1.427-.594,1.135-2.55-.1-3.225,1.274.038,2.56-.027,3.835,0a48.777,48.777,0,0,0-.005,4.955c.026.205,0,.226.207.292,1.01.33,3.816-.246,5.047,0v-30.678C841.269,2664.107,843.159,2664.1,845.04,2664.114Z" transform="translate(-36.873 -2148.16)" fill="#b3b1c2"/>
      <path id="Trazado_1005484" data-name="Trazado 1005484" d="M3993.792,1633.73c-.025.706-.125.557.495.606,1.617.127,3.5-.006,5.156,0,1.68.006,3.367,0,5.047,0-.191.945.256,3.07,0,3.836h-4.845v2.221h4.844v5.449h-4.844v5.046h4.844v5.651h-4.844v4.238c.148.054.241-.2.3-.2h4.541v5.449h-4.844v4.642h5.752c.189,0,2.3,2.234,2.725,2.624h-54.089c-.045-.88-.126-1.747-.2-2.624,13.019-.055,26.045.07,39.067.008a5.233,5.233,0,0,0,.895-.21,1.55,1.55,0,0,0,.683.216c1.656-.005,3.315-.026,4.968-.014v-4.642c-1.88,0-3.771.005-5.651,0-13.287-.038-26.581.029-39.87,0l-.495.606a11.217,11.217,0,0,0-2.624-6.055l42.787.2v-4.238h-44.2c-.408-1.577-1.751-2.986-2.018-3.835-.108-.343-.037-1.188-.2-1.816,2.263,1.267,4.141,2.007,6.257,0h40.163v-5.046l-37.627.006-.316-1.015a26.4,26.4,0,0,0-.4-3.835l.495-.606,37.853,0v-2.222h-38.751c-.21-1.189-.546-2.623-.807-3.835,11.433-.057,22.878.076,34.31,0,1.7-.011,3.414,0,5.119.01A2.18,2.18,0,0,0,3993.792,1633.73Zm0,4.44v2.22h5.651v-2.22Zm5.651,7.669h-5.651v5.046h5.651Zm-5.651,10.7v4.238h5.651v-4.238Z" transform="translate(-3049.999 -1163.994)" fill="#5e74a3"/>
      <path id="Trazado_1005485" data-name="Trazado 1005485" d="M3910.975,950.925c-11.432.076-22.878-.057-34.31,0-.733-3.4-2.225-10.076-4.95-12.306-1.577-1.291-3.732-1.945-5.545-2.831,1.132-1.483,2.411-1.84,2.622-3.938.1-1.037-.031-4.63-.58-5.431-.226-.33-1.012.043-1.221-.141-.09-.078.032-.534-.012-.582,1.764-1.3,1.85-2.457.4-4.036v-.2a4.964,4.964,0,0,0,1.009-3.229,168.528,168.528,0,0,1,14.534,11.8c9.5,8.546,15.274,14.827,27.3,20.335C3910.522,950.508,3910.846,950.555,3910.975,950.925Z" transform="translate(-2972.632 -480.584)" fill="#e2e2e7"/>
      <path id="Trazado_1005486" data-name="Trazado 1005486" d="M937.165,2656.014c-.571-2.176-1.512-4.532-.088-6.647,1.707-2.534,4.708-1.961,6.31.324l1.647,2.891a27.821,27.821,0,0,0-.4-3.331c-.085-.829.119-1.764-.048-2.576-.078-.379-1.892-4.726-2.132-5.133-.4-.673-2.161-2.238-2.916-2.043-.259.067-.489.4-.755.491-1.439.477-2.47-2.28-.49-2.537,1.681-.219,1.162,1.19,1.7,1.7.345.329,1.779.8,2.213,1.317a22.35,22.35,0,0,0-.4-3.332c-.073-.8.163-2.129,0-2.783-.053-.215-1.026-.385-1.025-1.454a1.4,1.4,0,0,1,2.8-.156c.168,1.379-1.179,1.314-1.34,1.8-.349,1.061.26,5,.546,6.252.387,1.7,1.169,3.253,1.645,4.916.287.059.215-.227.265-.435.794-3.359,1.178-6.024,3.464-8.85,3.261-4.03,6.888-3.525,7.914,1.778.981,5.071-.458,10.178-1.956,14.976,1.735-1.927,3.981-5.059,7-3.667,3.539,1.634,1.592,6.7-.337,8.913,1.013-.471,1.936-.024,2.825,0,1.232.675,1.523,2.631.1,3.225l-15.512.013c-.24-.051-.092-.295-.126-.413l4.64-21.8-.469.841-4.372,20.755c-.339,1.1-.557.392-1.009.4-1.647-2.719-3.105-5.937-4.877-8.544-.14-.206-.313-.481-.57-.538l5.245,9.082c-3.368.188-7.788.633-11.149.149-1.583-.228-3.319-1.452-3.383-3.177-.109-2.935,3.539-2.959,5.245-1.413C937.463,2656.628,937.249,2656.335,937.165,2656.014Z" transform="translate(-170.17 -2117.052)" fill="#33294f"/>
      <path id="Trazado_1005487" data-name="Trazado 1005487" d="M3524.538,765.983a4.965,4.965,0,0,1-1.009,3.229,13.174,13.174,0,0,0-3.545-6.042c-.166-.167-.18-.288-.489-.214a13.028,13.028,0,0,1-6.056,7.268c.265.463,1.344.081,1.815.2-.822.518-1.859-.127-2.624.4-.312.068-.963.764-1.678.619-.31-.063-.459-1.718-2-1.38-.9.2-1.23,1.363-1.164,2.174a5.36,5.36,0,0,1-.668-1.249c-.2-.6,0-1.8-.946-1.576.171-.064.334-.268.6-.211-.774-3.585.706-7.673,4.1-9.311a16.979,16.979,0,0,1,2.963-.973C3518.366,758.344,3524.44,760.685,3524.538,765.983Zm-8.678-2.22c-.753.713-1.727,1.232-2.422,2.016a4.063,4.063,0,0,0,2.422-2.016c.544-.515,1.146-.939,1.209-1.816A6.187,6.187,0,0,0,3515.859,763.763Zm-1.009,2.823c.378.088.48-.21.707-.4a5.259,5.259,0,0,0,1.713-2.22Zm-2.02-.4a13.239,13.239,0,0,1-4.842.3,4.482,4.482,0,0,0,3.633.2C3511.916,766.618,3512.729,766.475,3512.831,766.187ZM3511.722,768a25.5,25.5,0,0,1-3.229,0c-.177,0-.6-.583-.505.2a9.424,9.424,0,0,0,4.687-.258c.091-.027,1.149-.3.861-.552C3512.936,767.337,3512.188,767.926,3511.722,768Z" transform="translate(-2628.779 -328.337)" fill="#585374"/>
      <path id="Trazado_1005488" data-name="Trazado 1005488" d="M4991.871,1585.4c-1.654-.006-3.539.128-5.156,0-.62-.049-.519.1-.495-.606a4.375,4.375,0,0,1,.152-.952C4987.36,1581.591,4992.659,1582.2,4991.871,1585.4Z" transform="translate(-4042.428 -1115.06)" fill="#31284d"/>
      <path id="Trazado_1005489" data-name="Trazado 1005489" d="M3077.325,1260.23l2.221,10.091c.355.321,2.219-1.821,2.622-2.018.468,1.311,1.4,3.76,2.013,4.95.1.189.115.479.407.5a44.36,44.36,0,0,1,2.626-5.651,5.575,5.575,0,0,1,1.613,1.921l.607-.508c.357,1.605.587,3.252,1.012,4.844l5.761-3.021-3.3-7.014c-.231-1.093.025-1.169.561-1.872,1.813.886,3.968,1.54,5.545,2.831,2.724,2.23,4.217,8.905,4.95,12.306.261,1.212.6,2.646.807,3.835.16.907.28,1.955.4,2.826a26.433,26.433,0,0,1,.4,3.835c.026,2.541-.31,4.242-2.22,6.055-2.115,2.007-3.993,1.267-6.257,0a7.582,7.582,0,0,0-3.431-4.238c-1.821-4.786-2.57-9.935-3.635-14.934-.372.14-.219,1.181-.2,1.511.181,2.854.852,5.716,1.008,8.579l-2.274-.048-2.57-1.063a6,6,0,0,0,4.814,1.543c.254.159.41,3.414.433,4.008-2.825.082-5.3.664-8.275.605l2.008-15.268-.391-.676-2.02,16.146c-.19-.01-.738-.278-.806-.2.086.633-.229,1.538.2,2.017-.015,1.161.164,2.161.2,3.229.051,1.422-1.146,1.112-2.22,1.413a15.146,15.146,0,0,1-.4-4.642c0-.632.167-1.554-.2-2.018v-.2c.6.1,1.383.064,2.017.2.05-.276-.36-.305-.556-.348-2.128-.462-4.507-.616-6.709-1.063-2.7-.549-3.76-.238-3.63-3.531a54.264,54.264,0,0,1,2.007-11.313c.076-.291.451-.562-.089-.494l-4.127,14.391c-.27.405-3.2.591-3.948.751-.345.074-.6-.226-.5.4,1.434-.069,3.144-.622,4.54-.623a45.711,45.711,0,0,1,5.146.624c1.442.2,2.918.549,4.366.782.276.044,1.046-.014,1.085.024.091.091-.2,1.043.2,1.212a30.816,30.816,0,0,0,.4,6.055,56.586,56.586,0,0,1-13.926,2.018c-.716-.4-1.644-.14-2.471-.254a6.49,6.49,0,0,1-5.6-4.59,12.67,12.67,0,0,1-.2-5.046c.008-.066-.009-.136,0-.2a49.334,49.334,0,0,1,1.009-4.844c.2-.831.392-1.84.605-2.624.344-1.262.8-2.584,1.211-3.835.566-1.735,1.3-3.774,2.018-5.449.446-1.047,1.087-2.427,1.615-3.431a13.967,13.967,0,0,1,3.835-5.046C3070.174,1261.831,3074.319,1260.772,3077.325,1260.23Zm20.563,12.94c-.191-.112-.391.012-.572.085a65.529,65.529,0,0,0-5.868,3.224c-.132.077-.74.16-.4.5.251.25,5.578-3.023,6.247-3.353l.412.01,7.466,12.626C3103.588,1281.525,3100.239,1277.54,3097.887,1273.17Zm-14.089,2.9a.521.521,0,1,0-.521.521A.521.521,0,0,0,3083.8,1276.071Zm-.605,3.835a.521.521,0,1,0-.521.521A.521.521,0,0,0,3083.193,1279.906Zm-2.64,2.931c-.541.034-.871.535-1.366.751a6.9,6.9,0,0,1-3.728.405l-2.574-.857C3074.888,1284.918,3078.819,1285.049,3080.554,1282.837Zm2.034,1.711a.521.521,0,1,0-.521.521A.521.521,0,0,0,3082.588,1284.548Zm-.623,3.535c-.251-.248-1.313.156-1.007.8C3081.711,1289.487,3082.3,1288.418,3081.965,1288.083Z" transform="translate(-2199.932 -807.246)" fill="#fefefe"/>
      <path id="Trazado_1005490" data-name="Trazado 1005490" d="M3541.993,1010.47c-.066-.811.26-1.976,1.164-2.174,1.542-.338,1.692,1.317,2,1.38.716.145,1.366-.55,1.678-.619.654-.144,1.707.1,2.423,0-.37,3.174,3.314,4.391,4.35,1.02.281-.916-.348-1.163,1.1-1.019.2.572-.525.4-.594.718-.094.43,1.009,2.215.8,2.914-.1.1-1.444-.115-1.21.605,2.307.076,2.034-.513,1.614-2.219.355.775,1.943.525,2.018.605.045.048-.077.5.013.582.21.184,1-.189,1.222.141.549.8.684,4.393.58,5.431-.211,2.1-1.489,2.454-2.622,3.938-.536.7-.792.779-.561,1.872l3.3,7.014-5.761,3.022c-.425-1.592-.654-3.238-1.011-4.844-.193-.867-.945-2.918-1.009-3.431-.021-.174.517-.759-.2-1.113-1.178-.579-1.572,1.355-.2,1.314-.3.487-.542,1.272-.808,1.816a44.41,44.41,0,0,0-2.626,5.651c-.292-.02-.31-.31-.407-.5-.61-1.19-1.545-3.639-2.013-4.95a20.758,20.758,0,0,1-.605-2.22.831.831,0,0,0,.3-1.215c-.3-.519-.828-.178-1.111-.2-.067,0-.135.005-.2,0,.921-.59.53-1.31-.4-1.615.525-.794.5-1.425-.605-1.413v-.2a1.017,1.017,0,0,0,0-1.615c.378-.161.878-1.243,1.053-1.672.157-.385.386-.619-.246-.548.861-.135,1.015-1.705,1.413-2.422a44.123,44.123,0,0,0,6.054,8.983c.313.278.2-.2.2-.4a16.341,16.341,0,0,1,.2-2.324l.2.2a2.428,2.428,0,0,0-.21.9c-.017.209-.135.959.208.92-.583-1.31,1.276-2.642,1.415-3.228a3.936,3.936,0,0,0,0-.4c-.091-.081-1.107.062-1.414,0-1.8-.366-5.9-3.1-6.458-4.844-.267-.825.559-.861-.605-1.009.858-.382.142-.878,0-1.413-.194-.732.059-1.132-.093-1.82-.233-1.059-1.454-1.5-1.722-.2.6-.5.906-.577,1.409.1.146.394-.445.273-.4.4a5.993,5.993,0,0,1,.406,1.518c-.023.19-.554.6-.4,1.009A3.675,3.675,0,0,1,3541.993,1010.47Zm11.1,8.88c2.748-1.492,4.695-1.88,4.032-5.65l-.5,2.629c-.32,1.364-2.054,1.7-3.073,2.376C3553.3,1018.88,3553.006,1018.932,3553.1,1019.35Zm2.014-3.431c.093-1.338-1.989-1.358-2.871-.954-.309.141-.99.664-.66.954A2.294,2.294,0,0,1,3555.11,1015.919Zm-8.533,9.747a.7.7,0,1,0-.7.7A.7.7,0,0,0,3546.577,1025.666Zm3.619.265a.732.732,0,1,0-.732.732A.732.732,0,0,0,3550.2,1025.931Zm-1.786.28a.765.765,0,1,0-.765.764A.765.765,0,0,0,3548.41,1026.212Z" transform="translate(-2662.986 -566.568)" fill="#f2ada1"/>
      <path id="Trazado_1005491" data-name="Trazado 1005491" d="M3445.5,994.156c.949-.223.746.977.946,1.576a5.354,5.354,0,0,0,.668,1.249,3.681,3.681,0,0,0,1.615,2.422c.343.238.077.311.807.4,1.164.148.339.184.605,1.009a.867.867,0,0,0-.2.2c-.4.716-.552,2.287-1.413,2.422-4.238.665-7.98-5.615-4.51-8.647C3444.6,994.286,3444.944,994.361,3445.5,994.156Z" transform="translate(-2568.105 -553.079)" fill="#3b3358"/>
      <path id="Trazado_1005492" data-name="Trazado 1005492" d="M3507.381,1259.092a1.131,1.131,0,0,0,1.009,1.211v.2c-.728.008-.785,1-.194,1.312.312.163.619.042.8.1-.272.411-.789.308-.576,1.071.134.479.573.512.979.543.067.005.135,0,.2,0-.322.815-.092,1.351.807,1.413a20.749,20.749,0,0,0,.605,2.22c-.4.2-2.268,2.339-2.622,2.018l-2.221-10.091A4.291,4.291,0,0,1,3507.381,1259.092Z" transform="translate(-2628.777 -806.108)" fill="#c6cce3"/>
      <path id="Trazado_1005493" data-name="Trazado 1005493" d="M3203.5,1331.726a13.966,13.966,0,0,0-3.835,5.046c-.463-1.643-.076-3.544-.2-5.248C3200.754,1331.647,3202.275,1331.264,3203.5,1331.726Z" transform="translate(-2335.793 -875.311)" fill="#d4d3da"/>
      <path id="Trazado_1005494" data-name="Trazado 1005494" d="M3534.07,1251.23a1.017,1.017,0,0,1,0,1.615,1.131,1.131,0,0,1-1.009-1.211c.025,0,.188-.255.392-.313S3533.969,1251.273,3534.07,1251.23Z" transform="translate(-2654.458 -798.649)" fill="#2c2942"/>
      <path id="Trazado_1005495" data-name="Trazado 1005495" d="M5362.13,2854.047c-.965-1.7-1.35-4.386.806-5.35,2.442-1.093,4.15,1.182,5.65,2.726-1.073-3.28-2.749-11.061.3-13.53,3.218-2.609,6.406,3.6,7.028,6.107.627,2.531.276,4.112,0,6.575-.023.206-.206.5.143.444.319-1.508,2.08-2.122,2.88-3.075,1.083-1.292,2.612-6.75,2.181-8.3-.033-.121-1.566-.369-1.423-1.82a1.623,1.623,0,1,1,3.223.365c-.151,1.165-1.389,1.335-1.422,1.454-.171.623.026,2.317-.187,3.1a12.527,12.527,0,0,1,1.572-1.048c.226-.4-.282-1.624.792-1.94,1.8-.528,2.392,1.734,1.268,2.281-.733.357-1.415-.193-2.023-.021a10.7,10.7,0,0,0-1.523,1.118,12.63,12.63,0,0,0-1.1,2.943c-.078.516.254.165.6.1.244-.11.525.192.605.2-1,.121-1.889.514-2.017,1.614,3.421-.148,4.407,2.948,3.634,5.854a2.957,2.957,0,0,1,3.429.2c1.1,1.234-.2,3.229-1.514,3.229h-11c1.825-1.947,4.293-3.227,6.257-5.043-.342-.069-.535.165-.786.323-1.816,1.137-3.615,2.844-5.372,4.115a1.6,1.6,0,0,1-.906.405c-.768-4.525-1.538-9.073-2.481-13.564-.121-.574-.252-1.265-.406-1.816-.058-.208-.05-.61-.34-.563l3.025,16.145c-4.158-.346-8.775.251-12.984.008-1.264-2.261,1.088-2.824,2.893-2.23C5363.07,2854.946,5362.181,2854.136,5362.13,2854.047Z" transform="translate(-4399.165 -2312.663)" fill="#32284f"/>
      <path id="Trazado_1005496" data-name="Trazado 1005496" d="M4162.684,2536.605v-2.423l-57.635.018-.491-.622c.008-.537-.011-1.078,0-1.615.006-.268-.016-.538,0-.8a11.315,11.315,0,0,0,1.706-.213c13.839-1.014,29.066.646,43,.219.733-.305,1.352,0,2,0,2.656-.01,5.387.191,7.98-.412.542.513,3.386,2.918,3.528,3.233A4.359,4.359,0,0,1,4162.684,2536.605Z" transform="translate(-3200.323 -2020.651)" fill="#5e74a5"/>
      <path id="Trazado_1005497" data-name="Trazado 1005497" d="M4104.67,2596.74l.491.622,57.635-.018v2.423h-3.835q0,12.71,0,25.431c0,1.377.018,2.761,0,4.14,0,.342.129.9-.205,1.107v-30.678c-1.68,0-3.367,0-5.047,0s-3.458.2-5.045.2c-1.429,0-3.026,0-4.44,0a1.576,1.576,0,0,0-.683-.216c-12.824-.014-25.651.041-38.472.013v1.212Z" transform="translate(-3200.435 -2083.813)" fill="#405277"/>
      <path id="Trazado_1005498" data-name="Trazado 1005498" d="M4153.543,2515.739c.3.282.544.558.808.807-2.593.6-5.324.4-7.98.412-.65,0-1.269-.305-2,0-13.938.427-29.166-1.233-43-.219a11.353,11.353,0,0,1-1.706.213c-.018.267,0,.537,0,.8-.392-.476-.169-1.374-.2-2.018Z" transform="translate(-3195.421 -2006.445)" fill="#3f5176"/>
      <path id="Trazado_1005499" data-name="Trazado 1005499" d="M5877.67,3037.653a2.844,2.844,0,0,1,.4-.2c.134-.039.373.084.558-.043.162-.111.15-.589.59-.729a1.16,1.16,0,1,1,0,2.148C5878.646,3038.647,5878.574,3037.455,5877.67,3037.653Z" transform="translate(-4893.916 -2503.938)" fill="#342a4e"/>
      <path id="Trazado_1005500" data-name="Trazado 1005500" d="M5835.092,3050.451a2.914,2.914,0,0,0-.4.2,7.691,7.691,0,0,1-1.413,0c-.08-.01-.361-.312-.605-.2.018,0-.025-.167.3-.2A3.845,3.845,0,0,1,5835.092,3050.451Z" transform="translate(-4850.935 -2516.938)" fill="#544a6d"/>
      <path id="Trazado_1005501" data-name="Trazado 1005501" d="M1829.4,1620.23a1.839,1.839,0,0,1,.2,1.213l47.43,0c-.408,1.25-.866,2.572-1.211,3.835H1829.6v2.222h44.916l.7.4a49.336,49.336,0,0,0-1.009,4.844l-13.723,0,2.233-.287c.753-.191,1.4-.7.438-1.071a30.661,30.661,0,0,0-4.589-1.084c-.127.009-1.68.229-1.77.251-.51.126-.927,1.206-1.962.579.3,1.019,2.429.79,3.026,1.614h-12.513l3.242-.491.793-.42c.156-.314-.734-.528-1.018-.795-.374-.352-1.684-2.227-1.94-2.312-.525-.176-.816.376-1.347.377-.988,0-2.579-.487-3.667-.595a45.95,45.95,0,0,0-8.544-.314c-2.554.233-1.328.353-2.91,1.368-.422.271-2.43.785-2.562.971-.117.6.453.948.688,1.42a3.8,3.8,0,0,1,.12.78c.126.124,1.023-.195,1.2.212-1.881-.008-3.77.01-5.651,0a51.959,51.959,0,0,1-5.208-.051c-.091-.079-.02-.34-.039-.353v-5.047c1.747,0,3.5.007,5.248,0,1.881-.006,3.771,0,5.652,0l0-2.1c-.042-.28-5.09-.115-5.654-.116-1.746-.006-3.5,0-5.247,0v-3.835c1.746,0,3.5.006,5.247,0,1.881-.006,3.771,0,5.652,0Z" transform="translate(-1016.79 -1151.1)" fill="#5c73a2"/>
      <path id="Trazado_1005502" data-name="Trazado 1005502" d="M1829.568,1800.457c-.178-.407-1.076-.088-1.2-.212a3.792,3.792,0,0,0-.12-.78c-.235-.471-.805-.817-.688-1.42.131-.187,2.14-.7,2.562-.971,1.581-1.015.356-1.135,2.91-1.368a45.929,45.929,0,0,1,8.544.314c1.088.108,2.679.6,3.667.595.531,0,.822-.553,1.347-.377.256.086,1.566,1.959,1.94,2.312.283.267,1.174.48,1.018.795l-.793.42-3.242.491h12.513c-.6-.824-2.725-.594-3.026-1.614,1.035.627,1.452-.452,1.961-.579.09-.022,1.644-.242,1.77-.251a30.642,30.642,0,0,1,4.589,1.084c.967.37.316.879-.438,1.07l-2.233.287,13.723,0c-.009.066.008.135,0,.2-9.953.014-19.917-.019-29.87,0-4.84.009-9.691-.007-14.531,0-.2-.01-.187.131-.207.292-.186,1.452.148,3.259,0,4.754h24.624c-.862,1.858-.605,3.648-.605,5.651h-24.018v4.239h-.2v-4.239c-1.881,0-3.771.007-5.652,0-1.746-.006-3.5,0-5.247,0V1805.5c1.746,0,3.5.006,5.247,0,1.881-.006,3.771,0,5.652,0Zm8.677-2.016a8.2,8.2,0,0,0-2.622-.2C1835.531,1799.735,1838.733,1799.111,1838.246,1798.441Zm-5.65,1.814h9.688c-.127-.259-1.087-.564-1.324-.594a27.788,27.788,0,0,0-6.954.086C1833.639,1799.828,1832.767,1799.92,1832.6,1800.255Z" transform="translate(-1016.961 -1318.611)" fill="#5e74a3"/>
      <path id="Trazado_1005503" data-name="Trazado 1005503" d="M1637.4,2537.657c9.036.041,18.105-.05,27.154-.008,16.262.074,32.959.606,49.239.01.861-.031,1.771-.036,2.631,0,.389.015.81-.208.7.4-.172.926-.245,1.9-.4,2.825l-82.546-.2C1634.526,2539.949,1636.656,2538.343,1637.4,2537.657Z" transform="translate(-840.735 -2027.354)" fill="#5d74a4"/>
      <path id="Trazado_1005504" data-name="Trazado 1005504" d="M1711.917,2605.942c-.184,1.075-.417,2.157-.605,3.229l-.3-.809h-62.472c-.051,8.473.073,16.958,0,25.431,0,.505.158,1.28-.2,1.615v-27.045c-1.41,0-2.829.008-4.239,0-1.88-.009-3.771-.007-5.651,0-1.679.006-3.367,0-5.047,0v30.678c-.2-.067-.181-.087-.207-.292a48.817,48.817,0,0,1,.005-4.955c-.063-8.472.047-16.957,0-25.43h-4.036a6.972,6.972,0,0,1,.2-2.624Z" transform="translate(-835.937 -2092.41)" fill="#405276"/>
      <path id="Trazado_1005505" data-name="Trazado 1005505" d="M1745.683,2236.7c-.31.48.567,1.7.943,1.792.27.064.556-.162.792-.156a6.214,6.214,0,0,0,2.552-.477c.382-.134.562-.456,1.07-.542a6.221,6.221,0,0,1,2.716.394l-.906.4c-.46.558.388.3.6.6.194.266.035.888.5,1.13.389.2,1.1-.24,1.208-.116.037.042-.045.47.034.674.119.308.906.37.572.738-.353.389-3.033.115-3.743.194-.457.05-.7.069-.7.616h-.4c-.032-.8-1.268-1.27-1.921-1.218-.561.044-.6.794-.7,1.218a22.8,22.8,0,0,0-.2,4.643h19.982c.792,2.089,4.794,1.49,6.568,1.606,3.357.22,8.021.927,11.193.412,1.336-.217,2.39-.345,2.624-2.018l13.119-.2a14.61,14.61,0,0,0,6.458,2.22c.878.139,1.6.119,2.422.2.293.029.9.4,1.413.2l-78.711.2a25.918,25.918,0,0,1,2.766-2.583c.946-.281,4.175-.022,5.422-.033a5.367,5.367,0,0,0,.894-.21,1.549,1.549,0,0,0,.683.216c1.657-.005,3.316-.026,4.969-.013v-4.643c-.617-.507-4.646,0-4.845-.2.052-.323-.111-.945.034-1.18s2.177-.814,2.472-1.02c.414-.287.031-.984-.475-1.143a17,17,0,0,1-2.645-.59c-.308-.171.122-.815.01-1.114C1743.526,2236.722,1744.609,2236.695,1745.683,2236.7Z" transform="translate(-935.296 -1739.923)" fill="#5e74a4"/>
      <path id="Trazado_1005506" data-name="Trazado 1005506" d="M1785.891,2512.855c.112-.611-.308-.389-.7-.4-.86-.033-1.77-.029-2.631,0-16.28.6-32.977.064-49.239-.01-9.049-.042-18.117.049-27.154.008.406-.376.817-.659,1.211-1.009l78.711-.2.2.1A14.927,14.927,0,0,1,1785.891,2512.855Z" transform="translate(-909.508 -2002.149)" fill="#405277"/>
      <path id="Trazado_1005507" data-name="Trazado 1005507" d="M1823.918,2231.735c.014,0-.013.2.2.2.112.3-.317.943-.01,1.114a17,17,0,0,0,2.645.59c.507.159.889.855.475,1.143-.3.205-2.332.792-2.472,1.02s.018.857-.034,1.18c.2.205,4.228-.306,4.844.2-1.881,0-3.771.006-5.651,0-1.746-.006-3.5,0-5.247,0v-5.247A29.587,29.587,0,0,1,1823.918,2231.735Z" transform="translate(-1016.963 -1735.156)" fill="#5e74a3"/>
      <path id="Trazado_1005508" data-name="Trazado 1005508" d="M1941.321,1903.688v5.047c-1.881,0-3.771-.007-5.652,0v-5.046C1937.551,1903.7,1939.44,1903.681,1941.321,1903.688Z" transform="translate(-1128.714 -1421.843)" fill="#31274e"/>
      <path id="Trazado_1005509" data-name="Trazado 1005509" d="M1941.321,2353.712v4.643c-1.654-.013-3.313.008-4.969.013a1.554,1.554,0,0,1-.683-.216v-4.44C1937.551,2353.719,1939.44,2353.708,1941.321,2353.712Z" transform="translate(-1128.714 -1851.684)" fill="#31284d"/>
      <path id="Trazado_1005510" data-name="Trazado 1005510" d="M1935.67,2142.207c1.881.006,3.771,0,5.652,0v4.239c-.738,0-1.482.006-2.22,0-1.073-.008-2.156.018-3.229,0-.215,0-.187-.2-.2-.2Z" transform="translate(-1128.714 -1649.665)" fill="#30274d"/>
      <path id="Trazado_1005511" data-name="Trazado 1005511" d="M1940.5,1583.667v1.212c-1.881,0-3.771-.007-5.652,0C1934.307,1581.587,1939.574,1580.911,1940.5,1583.667Z" transform="translate(-1127.89 -1114.536)" fill="#30264c"/>
      <path id="Trazado_1005512" data-name="Trazado 1005512" d="M1935.67,1731.732c.564,0,5.613-.163,5.655.116l0,2.1c-1.881,0-3.771-.007-5.652,0Z" transform="translate(-1128.714 -1257.556)" fill="#32284c"/>
      <path id="Trazado_1005513" data-name="Trazado 1005513" d="M2061.374,2689.635c.072-8.472-.052-16.958,0-25.431h62.472l.3.809c-.585,3.328-1.1,6.674-1.822,9.977.285.149.547.354.813.518-.465,1.4-.985,2.82-1.576,4.175-.177.4-.5.738-.644,1.073a19.6,19.6,0,0,0-1.615,8.88Z" transform="translate(-1248.767 -2148.252)" fill="#e2e2e7"/>
      <path id="Trazado_1005514" data-name="Trazado 1005514" d="M4152.8,2664.086c.146,8.4-.2,16.831,0,25.228-10.626-.02-21.262.027-31.888,0a6.7,6.7,0,0,1-2.355-.974,22.953,22.953,0,0,1-3.5-2.151c-.73-.872-.448-3.05-1.006-4.141.178-.075.454-.417.773-.435l-1.177-16.518v-1.212c12.821.028,25.648-.027,38.472-.013A1.579,1.579,0,0,1,4152.8,2664.086Z" transform="translate(-3209.01 -2147.931)" fill="#e2e2e7"/>
      <path id="Trazado_1005515" data-name="Trazado 1005515" d="M3532.192,2664.24c.151.518.455,1.115.605,1.615,1.8,5.973,3.742,11.9,5.629,17.842.166.24.586.11.83.12.784.031.6.09.807,1.009a21.053,21.053,0,0,1,.605,4.642c-6.83.05-13.818.432-20.7.2-.389-.013-.81.206-.7-.4.11-.782.094-1.76.2-2.624a33.61,33.61,0,0,1,.334-3.6c.387-1.712,1.349-3.223,1.886-4.875.531.122,1.761.429,2.12,0,1.852-4.669,3.8-9.3,5.751-13.926Z" transform="translate(-2641.277 -2148.286)" fill="#e2e2e7"/>
      <path id="Trazado_1005516" data-name="Trazado 1005516" d="M1729.195,2664.209v30.678c-1.231-.247-4.036.329-5.047,0v-30.678C1725.827,2664.205,1727.515,2664.215,1729.195,2664.209Z" transform="translate(-926.679 -2148.255)" fill="#33284f"/>
      <path id="Trazado_1005517" data-name="Trazado 1005517" d="M5198.149,2664.218c1.679,0,3.367,0,5.046,0V2694.9h-5.046q0-14.83,0-29.669Z" transform="translate(-4244.871 -2148.264)" fill="#332950"/>
      <path id="Trazado_1005518" data-name="Trazado 1005518" d="M1846.619,2668.74c.146,8.4-.2,16.831,0,25.228h-5.449V2668.74Z" transform="translate(-1038.453 -2152.584)" fill="#e2e2e7"/>
      <path id="Trazado_1005519" data-name="Trazado 1005519" d="M5089.952,2664.24v1.009l-.2,24.422h-4.845c.187-8.4-.14-16.828,0-25.228C5086.494,2664.444,5088.286,2664.238,5089.952,2664.24Z" transform="translate(-4136.674 -2148.286)" fill="#e4e4e9"/>
      <path id="Trazado_1005520" data-name="Trazado 1005520" d="M4989.788,2668.72c-.14,8.4.187,16.83,0,25.228-.007.315.1,1.586-.116,1.618l-4.325,0c-.009-.536.014-1.079,0-1.616-.2-8.4.146-16.829,0-25.228C4986.762,2668.721,4988.359,2668.717,4989.788,2668.72Z" transform="translate(-4041.555 -2152.564)" fill="#1d1636"/>
      <path id="Trazado_1005521" data-name="Trazado 1005521" d="M1961.349,2664.205c1.41.007,2.829,0,4.239,0v27.045h-4.239c-.009-.536.014-1.079,0-1.616-.2-8.4.146-16.829,0-25.228Z" transform="translate(-1153.183 -2148.251)" fill="#1d1535"/>
      <path id="Trazado_1005522" data-name="Trazado 1005522" d="M3989.421,3069.24c.557,1.092.276,3.268,1.006,4.141a22.953,22.953,0,0,0,3.5,2.15,6.693,6.693,0,0,0,2.356.974v.2c.485.634.911,1.2.076,1.792-1.465,1.047-6.326.173-8.1-.327-.894-.252-4.245-1.871-4.488-1.869a21.053,21.053,0,0,0-.605-4.642,9,9,0,0,0,4.239-1.816A18.168,18.168,0,0,1,3989.421,3069.24Z" transform="translate(-3084.379 -2535.122)" fill="#f3b1a3"/>
      <path id="Trazado_1005523" data-name="Trazado 1005523" d="M4004.977,3227.143c7.408,1.362,3.967,4.353-1.338,4.818-3.612.316-7.539-.316-11.174-.379-.429-1.677-.036-3.224,0-4.843.243,0,3.594,1.617,4.488,1.869,1.774.5,6.636,1.373,8.1.327C4005.887,3228.338,4005.461,3227.777,4004.977,3227.143Z" transform="translate(-3093.072 -2685.557)" fill="#281f43"/>
      <path id="Trazado_1005524" data-name="Trazado 1005524" d="M3360.448,3039.093c-.107.864-.092,1.841-.2,2.624-.288,2.055-1.472,6.957-4.142,7.078-2.581.116-3.256-4.83-3.326-6.674a19.6,19.6,0,0,1,1.615-8.88c.334.21.2.766.205,1.107.024,2.3-.581,7.638,1.1,9.194C3358.325,3045.974,3359.894,3040.9,3360.448,3039.093Z" transform="translate(-2482.248 -2500.737)" fill="#2c2248"/>
      <path id="Trazado_1005525" data-name="Trazado 1005525" d="M1283.372,2830.037c-.015-.052-.159-.126-.2-.2l4.373-20.754.469-.841Z" transform="translate(-505.479 -2285.828)" fill="#c2c5ce"/>
      <path id="Trazado_1005526" data-name="Trazado 1005526" d="M5592.942,2959.123c.9.692.132.23-.2.2l-3.025-16.145c.29-.047.282.355.34.563.155.55.286,1.241.406,1.816C5591.4,2950.05,5592.174,2954.6,5592.942,2959.123Z" transform="translate(-4618.876 -2414.712)" fill="#c6c7d0"/>
      <path id="Trazado_1005527" data-name="Trazado 1005527" d="M1144.662,3105.322c-.067,0-.135,0-.2,0l-5.245-9.082c.257.057.43.332.57.538C1141.557,3099.384,1143.015,3102.6,1144.662,3105.322Z" transform="translate(-367.98 -2560.911)" fill="#c9cad3"/>
      <path id="Trazado_1005528" data-name="Trazado 1005528" d="M3432.256,1969.7c2.107-1.463,5.387-2.966,7.673-1.114,1.288,1.043,2.622,5.147,4.436,3.132.267.848,1.61,2.258,2.018,3.835.239.923.2,2.315.443,3.089.1.3.674.608.97.948a11.218,11.218,0,0,1,2.624,6.055c.224,1.311.289,2.706.4,4.036.076.876.156,1.744.2,2.624.033.645-.189,1.542.2,2.018-.011.537.008,1.078,0,1.615l.4,4.238,1.177,16.518c-.319.018-.595.36-.773.435a18.287,18.287,0,0,0-2.018.606l-5.046.807c-.243-.01-.664.12-.83-.12-1.887-5.944-3.831-11.869-5.629-17.842l5.046-22.4a6.467,6.467,0,0,1,1.314.2c.221.018.753.147.7-.2l-2.217-.407c-1.462,6.164-4.4,11.834-6.46,17.762a13.681,13.681,0,0,0-1.615,3.431c-1.95,4.625-3.9,9.257-5.751,13.926-.359.429-1.589.121-2.12,0a27.1,27.1,0,0,1-6.055-2.624c-.267-.164-.528-.369-.813-.518.72-3.3,1.237-6.65,1.822-9.977.188-1.072.422-2.154.605-3.229.159-.929.231-1.9.4-2.825a14.756,14.756,0,0,0,.4-1.511l-.2-.1c-.509.2-1.119-.172-1.413-.2.319-.06,1.5.094,1.605-.01.253-.24,1.091-5.894,1.318-6.855a54.7,54.7,0,0,1,3.833-11.1l1.921-3.023C3431.448,1970.7,3431.922,1969.935,3432.256,1969.7Z" transform="translate(-2546.992 -1483.014)" fill="#33284f"/>
      <path id="Trazado_1005529" data-name="Trazado 1005529" d="M4088.89,1881.23l.316,1.015,37.627-.006v5.046H4086.67C4088.581,1885.472,4088.916,1883.772,4088.89,1881.23Z" transform="translate(-3183.242 -1400.394)" fill="#e2e2e6"/>
      <path id="Trazado_1005530" data-name="Trazado 1005530" d="M4127.035,2353.482v4.44a5.237,5.237,0,0,1-.894.21c-13.021.062-26.048-.063-39.067-.008-.115-1.33-.18-2.725-.4-4.036l.495-.606C4100.454,2353.511,4113.748,2353.444,4127.035,2353.482Z" transform="translate(-3183.242 -1851.454)" fill="#e2e2e6"/>
      <path id="Trazado_1005531" data-name="Trazado 1005531" d="M3996.67,2142.24h44.2v4.238l-42.787-.2c-.3-.339-.875-.643-.97-.948C3996.87,2144.555,3996.908,2143.162,3996.67,2142.24Z" transform="translate(-3097.279 -1649.698)" fill="#e2e2e6"/>
      <path id="Trazado_1005532" data-name="Trazado 1005532" d="M4118.17,1732.709h38.751v2.222l-37.853,0-.495.606C4118.449,1734.664,4118.33,1733.616,4118.17,1732.709Z" transform="translate(-3213.329 -1258.533)" fill="#e3e3e5"/>
      <path id="Trazado_1005533" data-name="Trazado 1005533" d="M3614,1912.365a3.973,3.973,0,0,1,2.422.4,7.582,7.582,0,0,1,3.431,4.238c.165.628.094,1.473.2,1.816-1.814,2.014-3.148-2.089-4.436-3.132-2.287-1.852-5.566-.349-7.673,1.114-1.568-.225-2.568-2.063-3.03-3.43-.379.164-.194,1.21-.2,1.613-.43-.48-.115-1.385-.2-2.017.068-.077.616.191.806.2.087,0,.3-.2.4-.2C3608.7,1913.03,3611.178,1912.447,3614,1912.365Z" transform="translate(-2722.684 -1430.117)" fill="#f2aea0"/>
      <rect id="Rectángulo_455505" data-name="Rectángulo 455505" width="5.651" height="5.046" transform="translate(943.793 481.845)" fill="#31274d"/>
      <path id="Trazado_1005534" data-name="Trazado 1005534" d="M4986.67,2353.718c1.88.006,3.771,0,5.651,0v4.642c-1.654-.011-3.312.009-4.969.014a1.552,1.552,0,0,1-.683-.216Z" transform="translate(-4042.877 -1851.69)" fill="#31274d"/>
      <rect id="Rectángulo_455506" data-name="Rectángulo 455506" width="5.651" height="4.238" transform="translate(943.793 492.542)" fill="#31274e"/>
      <rect id="Rectángulo_455507" data-name="Rectángulo 455507" width="5.651" height="2.22" transform="translate(943.793 474.176)" fill="#32294e"/>
      <path id="Trazado_1005535" data-name="Trazado 1005535" d="M3678.3,856.534v.2c-.81-.884-1.287-1.53-2.623-1.007.314.785,1.525.021,1.816.8a2.255,2.255,0,0,0-2.22,1.213c-1.474.547-1.746-1.018-3.129-1.012-1.019,0-1.469.6-2.119,1.012-.47-.119-1.549.264-1.814-.2a13.028,13.028,0,0,0,6.056-7.268c.309-.074.323.047.489.214A13.182,13.182,0,0,1,3678.3,856.534Zm-8.071.4c.345-.142.651-.382,1.012-.5.293-.094,1.612-.2,1.605-.41C3672.817,855.282,3670.052,855.975,3670.224,856.937Z" transform="translate(-2783.546 -415.659)" fill="#f2b0a2"/>
      <path id="Trazado_1005536" data-name="Trazado 1005536" d="M3828.41,969.3c1.447,1.58,1.361,2.734-.4,4.036-.076-.08-1.663.17-2.018-.605a18.08,18.08,0,0,1-.605-2.018,1.566,1.566,0,0,1,0-.4,2.255,2.255,0,0,1,2.22-1.213c-.292-.782-1.5-.018-1.816-.8C3827.122,967.766,3827.6,968.412,3828.41,969.3Zm-1.967,3.378a1.81,1.81,0,0,0,1.242.25c1.96-.241,1.76-4.177-.948-3.383C3825.662,969.857,3825.819,972.09,3826.442,972.674Z" transform="translate(-2933.66 -528.219)" fill="#232538"/>
      <path id="Trazado_1005537" data-name="Trazado 1005537" d="M3658.041,995.675a1.577,1.577,0,0,0,0,.4c-1.447-.144-.817.1-1.1,1.019-1.035,3.371-4.72,2.154-4.35-1.02-.716.1-1.769-.142-2.423,0,.764-.53,1.8.114,2.624-.4.65-.409,1.1-1.008,2.119-1.012C3656.295,994.657,3656.567,996.222,3658.041,995.675Zm-3.687-.558c-2.41.5-1.416,4.062.917,3.546C3656.87,998.309,3657.107,994.545,3654.354,995.116Z" transform="translate(-2766.319 -553.589)" fill="#25223c"/>
      <path id="Trazado_1005538" data-name="Trazado 1005538" d="M3550.1,950.192c.466-.075,1.214-.665,1.813-.609.287.248-.77.525-.861.552a9.425,9.425,0,0,1-4.687.258c-.094-.784.328-.2.505-.2A25.48,25.48,0,0,0,3550.1,950.192Z" transform="translate(-2667.16 -510.528)" fill="#7f809d"/>
      <path id="Trazado_1005539" data-name="Trazado 1005539" d="M3551.527,922.781c-.1.288-.915.431-1.209.5a4.481,4.481,0,0,1-3.633-.2A13.24,13.24,0,0,0,3551.527,922.781Z" transform="translate(-2667.476 -484.931)" fill="#787898"/>
      <path id="Trazado_1005540" data-name="Trazado 1005540" d="M3699.67,875.857l2.42-2.622a5.262,5.262,0,0,1-1.713,2.22C3700.15,875.646,3700.048,875.945,3699.67,875.857Z" transform="translate(-2813.599 -437.607)" fill="#898ba8"/>
      <path id="Trazado_1005541" data-name="Trazado 1005541" d="M3670.592,868.735a4.061,4.061,0,0,1-2.422,2.016C3668.864,869.967,3669.839,869.448,3670.592,868.735Z" transform="translate(-2783.512 -433.309)" fill="#7e82a0"/>
      <path id="Trazado_1005542" data-name="Trazado 1005542" d="M3722.17,830.051a6.2,6.2,0,0,1,1.209-1.816C3723.316,829.112,3722.714,829.536,3722.17,830.051Z" transform="translate(-2835.09 -394.626)" fill="#80839f"/>
      <path id="Trazado_1005543" data-name="Trazado 1005543" d="M2079.559,1903.6c9.953-.019,19.917.014,29.87,0a12.67,12.67,0,0,0,.2,5.046h-9.082c-2.195-5.221-8.787-4.986-11.1,0h-24.624c.144-1.495-.19-3.3,0-4.754.021-.161.009-.3.207-.292-.015.485.267.529.605.707,5.91,3.1,7.5,2.907,13.19-.131C2079.107,1904.025,2079.429,1903.944,2079.559,1903.6Z" transform="translate(-1252.017 -1421.755)" fill="#e2e2e6"/>
      <path id="Trazado_1005544" data-name="Trazado 1005544" d="M2112.362,1732.709c-.214.783-.41,1.793-.605,2.624l-.7-.4h-44.916v-2.222Z" transform="translate(-1253.335 -1258.533)" fill="#d5d5d9"/>
      <path id="Trazado_1005545" data-name="Trazado 1005545" d="M3211.755,2038.73l-1.921,3.023a54.706,54.706,0,0,0-3.833,11.1c-.228.961-1.065,6.614-1.318,6.855-.109.1-1.287-.05-1.605.01-.826-.083-1.544-.063-2.422-.2a35.443,35.443,0,0,0,2.191-3.762c1.7-3.617,2.761-7.662,4.433-11.309l2.052-3.7c-5.794,2.182-11.885,4.138-18.162,4.036.089-.3.081-.674.2-1.009s.47-.7.423-1.192c.6-.052,1.2-.01,1.8-.019a56.591,56.591,0,0,0,13.926-2.018,2.974,2.974,0,0,0,.4-.2c1.074-.3,2.271.01,2.22-1.413C3210.567,2038.851,3211.4,2038.855,3211.755,2038.73Z" transform="translate(-2327.904 -1550.83)" fill="#1b1632"/>
      <path id="Trazado_1005546" data-name="Trazado 1005546" d="M2871.752,2016.23a6.489,6.489,0,0,0,5.6,4.59c.827.114,1.755-.146,2.471.254-.6.009-1.2-.033-1.8.019.048.5-.3.846-.423,1.192.113-.611-.308-.388-.7-.4-4-.158-8.524-.129-12.532-.008a1.919,1.919,0,0,0-1.1.21c-.218-2.271.369-3.535-.605-5.853Z" transform="translate(-2014.138 -1529.339)" fill="#5e74a3"/>
      <path id="Trazado_1005547" data-name="Trazado 1005547" d="M3213.935,1568.084a45.691,45.691,0,0,0-5.146-.625c-1.4,0-3.106.554-4.54.624-.1-.621.16-.322.5-.4.745-.16,3.678-.346,3.948-.751l4.127-14.391c.54-.068.165.2.089.494a54.245,54.245,0,0,0-2.007,11.313c-.129,3.292.93,2.982,3.63,3.531Z" transform="translate(-2340.377 -1086.44)" fill="#919cb9"/>
      <path id="Trazado_1005548" data-name="Trazado 1005548" d="M3707.36,1603.692a3.974,3.974,0,0,0-2.422-.4c-.022-.594-.179-3.849-.433-4.008a6,6,0,0,1-4.814-1.543l2.57,1.063,2.274.048c-.156-2.863-.826-5.724-1.008-8.579-.021-.33-.174-1.371.2-1.511C3704.79,1593.757,3705.539,1598.907,3707.36,1603.692Z" transform="translate(-2813.62 -1121.039)" fill="#909bbb"/>
      <path id="Trazado_1005549" data-name="Trazado 1005549" d="M3816.839,1547.792c2.352,4.37,5.7,8.355,7.288,13.094l-7.466-12.626-.412-.01c-.669.331-6,3.6-6.247,3.354-.343-.341.265-.425.4-.5a65.561,65.561,0,0,1,5.868-3.224C3816.448,1547.8,3816.648,1547.679,3816.839,1547.792Z" transform="translate(-2918.884 -1081.867)" fill="#8a9ab4"/>
      <path id="Trazado_1005550" data-name="Trazado 1005550" d="M3612.034,1938.691c-.333.232-.808,1-1.413,1.211-.354.125-1.188.121-1.615.2-.038-1.068-.217-2.068-.2-3.229.005-.4-.18-1.45.2-1.613C3609.466,1936.627,3610.466,1938.466,3612.034,1938.691Z" transform="translate(-2726.771 -1452.002)" fill="#d7685b"/>
      <path id="Trazado_1005551" data-name="Trazado 1005551" d="M3623.574,1586.674c-.1,0-.317.207-.4.2l2.02-16.146.391.676Z" transform="translate(-2740.53 -1103.82)" fill="#8d99b4"/>
      <path id="Trazado_1005552" data-name="Trazado 1005552" d="M3727.881,1390.692c.063.513.816,2.564,1.009,3.431l-.606.508a5.578,5.578,0,0,0-1.613-1.921c.266-.544.508-1.33.807-1.816A.372.372,0,0,1,3727.881,1390.692Z" transform="translate(-2839.388 -931.855)" fill="#c6c8dd"/>
      <path id="Trazado_1005553" data-name="Trazado 1005553" d="M3414.861,1764.28c-1.734,2.212-5.666,2.081-7.668.3l2.574.857a6.9,6.9,0,0,0,3.728-.405C3413.99,1764.815,3414.32,1764.314,3414.861,1764.28Z" transform="translate(-2534.24 -1288.689)" fill="#909db6"/>
      <path id="Trazado_1005554" data-name="Trazado 1005554" d="M3421.273,1894.73c2.2.447,4.581.6,6.709,1.063.2.042.6.072.556.348-.634-.135-1.417-.1-2.017-.2-.018,0-.038-.253-.2-.2-.009.4,0,.808,0,1.211-.4-.169-.11-1.121-.2-1.212-.038-.038-.809.02-1.085-.025-1.447-.232-2.924-.577-4.365-.782Z" transform="translate(-2547.11 -1413.288)" fill="#c5ccd6"/>
      <path id="Trazado_1005555" data-name="Trazado 1005555" d="M3546.74,1917.285v.2c.087.634-.228,1.539.2,2.018a15.162,15.162,0,0,0,.4,4.642,2.973,2.973,0,0,1-.4.2,30.814,30.814,0,0,1-.4-6.055c.006-.4-.007-.808,0-1.211C3546.7,1917.032,3546.721,1917.282,3546.74,1917.285Z" transform="translate(-2667.329 -1434.633)" fill="#8d9db9"/>
      <path id="Trazado_1005556" data-name="Trazado 1005556" d="M3587.028,1879.684c.339.335-.254,1.4-1.007.8C3585.716,1879.84,3586.777,1879.435,3587.028,1879.684Z" transform="translate(-2704.995 -1398.846)" fill="#6d7ea7"/>
      <ellipse id="Elipse_13790" data-name="Elipse 13790" cx="0.521" cy="0.521" rx="0.521" ry="0.521" transform="translate(881.458 477.019) rotate(-22.5)" fill="#7283a8"/>
      <ellipse id="Elipse_13791" data-name="Elipse 13791" cx="0.521" cy="0.521" rx="0.521" ry="0.521" transform="translate(882.669 468.543) rotate(-22.5)" fill="#63789f"/>
      <ellipse id="Elipse_13792" data-name="Elipse 13792" cx="0.521" cy="0.521" rx="0.521" ry="0.521" transform="translate(882.063 472.377) rotate(-22.5)" fill="#6c81a8"/>
      <path id="Trazado_1005557" data-name="Trazado 1005557" d="M3550.716,1928.248c-.43-.479-.115-1.384-.2-2.018C3550.883,1926.694,3550.714,1927.616,3550.716,1928.248Z" transform="translate(-2671.104 -1443.376)" fill="#c5ccd6"/>
      <path id="Trazado_1005558" data-name="Trazado 1005558" d="M3611.83,1148.073c-.043.537-.121,1.083-.2,1.615a16.237,16.237,0,0,0-.2,2.324c-.006.2.11.681-.2.4a44.13,44.13,0,0,1-6.053-8.983.868.868,0,0,1,.2-.2C3605.934,1144.968,3610.033,1147.707,3611.83,1148.073Z" transform="translate(-2723.337 -695.492)" fill="#d3635a"/>
      <path id="Trazado_1005559" data-name="Trazado 1005559" d="M3804.228,1028.249c.42,1.706.693,2.294-1.614,2.219-.233-.721,1.11-.507,1.21-.605.212-.7-.89-2.483-.8-2.914.07-.322.792-.146.594-.718A18.106,18.106,0,0,0,3804.228,1028.249Z" transform="translate(-2911.901 -583.742)" fill="#ce5f59"/>
      <path id="Trazado_1005560" data-name="Trazado 1005560" d="M3789.359,1135.4c-.089-.418.2-.47.463-.645,1.019-.68,2.753-1.012,3.073-2.376l.5-2.629C3794.054,1133.523,3792.107,1133.911,3789.359,1135.4Z" transform="translate(-2899.25 -682.62)" fill="#d36458"/>
      <path id="Trazado_1005561" data-name="Trazado 1005561" d="M3542.97,1291.726c1.11-.012,1.131.619.605,1.413.933.3,1.324,1.025.4,1.615-.407-.032-.846-.065-.979-.544-.213-.763.3-.66.576-1.071-.18-.059-.487.062-.8-.1C3542.185,1292.731,3542.242,1291.734,3542.97,1291.726Z" transform="translate(-2663.358 -837.329)" fill="#312c41"/>
      <circle id="Elipse_13793" data-name="Elipse 13793" cx="0.765" cy="0.765" r="0.765" transform="translate(883.894 458.88)" fill="#332b47"/>
      <path id="Trazado_1005562" data-name="Trazado 1005562" d="M3557.125,1029.138a5.991,5.991,0,0,0-.405-1.518c-.042-.123.55,0,.4-.4-.5-.681-.809-.6-1.409-.1.268-1.3,1.489-.861,1.722.2.151.689-.1,1.088.093,1.82Z" transform="translate(-2676.1 -583.823)" fill="#e17e6e"/>
      <circle id="Elipse_13794" data-name="Elipse 13794" cx="0.732" cy="0.732" r="0.732" transform="translate(885.746 458.632)" fill="#2a2643"/>
      <path id="Trazado_1005563" data-name="Trazado 1005563" d="M3579.729,1357.281c.283.02.806-.321,1.111.2a.831.831,0,0,1-.3,1.215C3579.637,1358.633,3579.407,1358.1,3579.729,1357.281Z" transform="translate(-2698.906 -899.857)" fill="#312d4c"/>
      <path id="Trazado_1005564" data-name="Trazado 1005564" d="M3726.6,1364.73a.371.371,0,0,0-.4.2c-1.37.041-.976-1.893.2-1.314C3727.119,1363.971,3726.58,1364.556,3726.6,1364.73Z" transform="translate(-2838.109 -905.893)" fill="#28253b"/>
      <path id="Trazado_1005565" data-name="Trazado 1005565" d="M3757.544,1154.014a2.293,2.293,0,0,0-3.531,0c-.33-.289.351-.813.66-.954C3755.555,1152.657,3757.637,1152.677,3757.544,1154.014Z" transform="translate(-2865.421 -704.663)" fill="#d06056"/>
      <circle id="Elipse_13795" data-name="Elipse 13795" cx="0.695" cy="0.695" r="0.695" transform="matrix(0.993, -0.122, 0.122, 0.993, 882.119, 458.49)" fill="#312941"/>
      <path id="Trazado_1005566" data-name="Trazado 1005566" d="M3749.372,1250.706c.306.063,1.322-.08,1.414,0a3.8,3.8,0,0,1,0,.4c-.573.043-1.216.926-1.413,1.413l-.2-.2C3749.251,1251.789,3749.328,1251.243,3749.372,1250.706Z" transform="translate(-2860.879 -798.125)" fill="#eaddda"/>
      <path id="Trazado_1005567" data-name="Trazado 1005567" d="M3578.408,1089.23c.142.535.858,1.031,0,1.413-.731-.093-.465-.166-.808-.4-.15-.406.381-.819.4-1.009Z" transform="translate(-2696.979 -643.915)" fill="#f8f4f5"/>
      <path id="Trazado_1005568" data-name="Trazado 1005568" d="M3749.891,1260.23c-.139.586-2,1.918-1.415,3.228-.344.04-.226-.711-.208-.92a2.428,2.428,0,0,1,.21-.9C3748.675,1261.156,3749.318,1260.273,3749.891,1260.23Z" transform="translate(-2859.985 -807.246)" fill="#d3635a"/>
      <path id="Trazado_1005569" data-name="Trazado 1005569" d="M2090.166,2142.217v.4c-.027,0-.157.176-.327.181-.786.025-1.248-.319-2.007.411a7.176,7.176,0,0,0-1.1,3.242c-5.819-.027-11.645.033-17.466.008-1.039,0-2.081,0-3.12-.008v-4.239Z" transform="translate(-1253.34 -1649.675)" fill="#e2e2e6"/>
      <path id="Trazado_1005570" data-name="Trazado 1005570" d="M2033.8,2236.581c0,.633.423,1.592.41,2.311-.016.836-.484,2.047-.611,2.937H2016.44c0-.547.239-.566.7-.616.71-.079,3.39.2,3.743-.194.333-.368-.453-.43-.572-.738-.079-.2,0-.632-.034-.674-.111-.125-.819.317-1.208.116-.47-.242-.311-.864-.5-1.13-.217-.3-1.065-.043-.6-.6l.906-.4a6.232,6.232,0,0,0-2.715-.394c-.508.086-.688.409-1.07.543a6.217,6.217,0,0,1-2.552.476c-.236-.006-.523.22-.792.156-.376-.089-1.253-1.312-.943-1.792.738.006,1.482,0,2.22,0h.2c1.039.006,2.081,0,3.12.008C2022.152,2236.614,2027.977,2236.553,2033.8,2236.581Z" transform="translate(-1200.402 -1739.8)" fill="#5e74a3"/>
      <path id="Trazado_1005571" data-name="Trazado 1005571" d="M2612.615,1934.711c.975,2.318.387,3.581.605,5.853a2.623,2.623,0,0,0,0,.4c-.321.015-.932.384-1.414.2a23.594,23.594,0,0,0-.2-4.643,5.424,5.424,0,0,0-.807-2.018c-1.905-2.864-5.6-2.587-7.468.2a4.96,4.96,0,0,0-.807,2.422,1.3,1.3,0,0,0-.21.488c-.1,1.062.09,2.267.009,3.347-.474.18-1.1-.192-1.414-.2v-.4c0-2-.257-3.793.605-5.651C2603.828,1929.726,2610.42,1929.491,2612.615,1934.711Z" transform="translate(-1764.083 -1447.82)" fill="#1e1637"/>
      <path id="Trazado_1005572" data-name="Trazado 1005572" d="M2085.188,1903.694c-.129.343-.451.424-.735.576-5.689,3.039-7.28,3.232-13.19.131-.338-.177-.621-.222-.605-.707C2075.5,1903.687,2080.348,1903.7,2085.188,1903.694Z" transform="translate(-1257.647 -1421.849)" fill="#d5d5db"/>
      <path id="Trazado_1005573" data-name="Trazado 1005573" d="M2129.17,1882.858c.171-.335,1.043-.427,1.41-.507a27.771,27.771,0,0,1,6.954-.086c.237.029,1.2.335,1.324.594Z" transform="translate(-1313.536 -1401.214)" fill="#5c73a2"/>
      <path id="Trazado_1005574" data-name="Trazado 1005574" d="M2199.264,1853.755c.488.671-2.715,1.295-2.622-.2A8.2,8.2,0,0,1,2199.264,1853.755Z" transform="translate(-1377.98 -1373.926)" fill="#5c73a2"/>
      <path id="Trazado_1005575" data-name="Trazado 1005575" d="M2524.368,2056.74a23.611,23.611,0,0,1,.2,4.643c.481.182,1.093-.188,1.413-.2.138.293.673.12.6.3-1.332,1.02-1.284,2.877-1.981,4.275a10.885,10.885,0,0,1-1.853,2.285,7.933,7.933,0,0,1-3.833,1.213l.806.2c-.411.122-.8.135-1.009.2-.1-1.616-.905-.864-2.221-1.01v1.617c.521-.1,1.468.14,1.895.012.21-.063.086-.542.326-.619.012.2-.013.405,0,.605,2.418-.144,4.972-1,6.029-3.357.115-.257.438-.694.026-.881.618-1.162.663-2.565,1.413-3.633.334.21.2.766.205,1.107.022,2.084.037,4.185.006,6.269-.034,2.318-1.025,5.176,1,6.953-3.171.515-7.836-.192-11.193-.412-1.774-.116-5.776.482-6.568-1.606-.32-.843.255-3.6.4-4.642.127-.889.6-2.1.611-2.937.013-.719-.414-1.677-.41-2.311a7.181,7.181,0,0,1,1.1-3.242c.759-.729,1.222-.386,2.007-.411.169-.005.3-.183.327-.181.315.01.939.383,1.413.2.081-1.08-.11-2.285-.009-3.347a1.3,1.3,0,0,1,.21-.488c.022,1.073-.031,2.157,0,3.229.006.2-.009.405,0,.606l8.964,0c.229-.032.1-.423.119-.609C2524.471,2059.341,2524.294,2057.989,2524.368,2056.74Zm-12.646,11.636c-.2-.164-.3-.579-.575-.737-.3.378.315,1.1.6,1.415,1.236,1.356,2.857,1.265,4.545,1.207l0-.806A5.488,5.488,0,0,1,2511.722,2068.376Z" transform="translate(-1676.846 -1568.032)" fill="#31274e"/>
      <path id="Trazado_1005576" data-name="Trazado 1005576" d="M3182.036,2102.51a14.612,14.612,0,0,1-6.458-2.22,9.463,9.463,0,0,1-3.431-4.44,15.136,15.136,0,0,1-.4-5.247,17.91,17.91,0,0,1,.807-2.826c6.277.1,12.368-1.854,18.162-4.036l-2.052,3.7c-1.672,3.647-2.732,7.692-4.433,11.309A35.5,35.5,0,0,1,3182.036,2102.51Z" transform="translate(-2309.285 -1593.821)" fill="#32284e"/>
      <path id="Trazado_1005577" data-name="Trazado 1005577" d="M2068.624,2353.74h17.559c-.148,1.039-.724,3.8-.4,4.642H2065.8a22.815,22.815,0,0,1,.2-4.643Z" transform="translate(-1252.99 -1851.712)" fill="#e2e2e6"/>
      <path id="Trazado_1005578" data-name="Trazado 1005578" d="M2967.261,2353.74a9.464,9.464,0,0,0,3.431,4.44l-13.119.2a22.937,22.937,0,0,0-.4-4.642Z" transform="translate(-2104.4 -1851.712)" fill="#e3e3e7"/>
      <path id="Trazado_1005579" data-name="Trazado 1005579" d="M2880.99,2164.061c1,.8.82,1.93,1.009,3.027.309,1.79.594,3.646.807,5.449a22.953,22.953,0,0,1,.4,4.642c-.233,1.673-1.288,1.8-2.624,2.018-2.025-1.778-1.034-4.636-1-6.953.031-2.084.016-4.185-.006-6.269,0-.341.129-.9-.205-1.107C2879.837,2164.209,2880.092,2163.928,2880.99,2164.061Z" transform="translate(-2030.036 -1670.509)" fill="#1c1533"/>
      <path id="Trazado_1005580" data-name="Trazado 1005580" d="M2073.294,2327.725h-2.624c.106-.424.142-1.173.7-1.218C2072.026,2326.456,2073.262,2326.92,2073.294,2327.725Z" transform="translate(-1257.659 -1825.697)" fill="#5e74a3"/>
      <path id="Trazado_1005581" data-name="Trazado 1005581" d="M3397.445,2918.863c-.537,1.652-1.5,3.164-1.886,4.875a33.547,33.547,0,0,0-.334,3.6c-.553,1.812-2.122,6.881-4.75,4.448-1.679-1.555-1.075-6.892-1.1-9.194,0-.341.129-.9-.206-1.107.142-.335.467-.668.644-1.073.592-1.355,1.112-2.771,1.577-4.174A27.093,27.093,0,0,0,3397.445,2918.863Z" transform="translate(-2517.025 -2388.984)" fill="#f3afa2"/>
      <path id="Trazado_1005582" data-name="Trazado 1005582" d="M3785.17,2209.475c2.059-5.927,5-11.6,6.46-17.762l2.217.407c.052.344-.481.216-.7.2a6.473,6.473,0,0,0-1.314-.2l-5.046,22.4c-.15-.5-.454-1.1-.605-1.615C3785.844,2211.763,3785.547,2210.6,3785.17,2209.475Z" transform="translate(-2895.264 -1696.952)" fill="#1c1633"/>
      <path id="Trazado_1005583" data-name="Trazado 1005583" d="M3751.794,2591.171h-2.624a13.692,13.692,0,0,1,1.615-3.431C3751.162,2588.87,3751.459,2590.028,3751.794,2591.171Z" transform="translate(-2860.879 -2075.217)" fill="#415579"/>
      <path id="Trazado_1005584" data-name="Trazado 1005584" d="M3970.216,3082.74a9,9,0,0,1-4.238,1.816c-.2-.919-.024-.978-.807-1.009Z" transform="translate(-3067.191 -2548.016)" fill="#cc635b"/>
      <path id="Trazado_1005585" data-name="Trazado 1005585" d="M3713.045,973.179c-.172-.962,2.593-1.656,2.618-.908.007.207-1.312.315-1.605.41C3713.7,972.8,3713.391,973.037,3713.045,973.179Z" transform="translate(-2826.367 -531.9)" fill="#362f44"/>
      <path id="Trazado_1005586" data-name="Trazado 1005586" d="M3838.855,1001.094c-.624-.584-.78-2.817.293-3.132,2.708-.795,2.908,3.142.948,3.383A1.811,1.811,0,0,1,3838.855,1001.094Zm1.239-1.969a.585.585,0,1,0-.585.585A.585.585,0,0,0,3840.094,999.125Z" transform="translate(-2946.073 -556.64)" fill="#f4b5af"/>
      <path id="Trazado_1005587" data-name="Trazado 1005587" d="M3713.839,1003.523c2.754-.572,2.517,3.192.917,3.546C3712.423,1007.585,3711.429,1004.023,3713.839,1003.523Zm1.063.76c-1.374-.179-1.4,1.181,0,1.011Z" transform="translate(-2825.804 -561.995)" fill="#f0a79c"/>
      <path id="Trazado_1005588" data-name="Trazado 1005588" d="M2875.906,2140.124a1.922,1.922,0,0,1,1.1-.21c4.009-.121,8.533-.15,12.532.008.389.015.81-.208.7.4-.12.335-.112.713-.2,1.009a17.935,17.935,0,0,0-.807,2.826c-.581-.519-1.353,0-1.716,0h-4.844c-.076,0-.333-.2-.6-.209a23.55,23.55,0,0,1-3.337.008c-.19-1.1-.009-2.224-1.009-3.027-.643-.516-1.01-.441-1.817-.4A2.594,2.594,0,0,1,2875.906,2140.124Z" transform="translate(-2026.769 -1647.38)" fill="#e2e2e6"/>
      <path id="Trazado_1005589" data-name="Trazado 1005589" d="M2646.539,2013.758c-.074,1.249.1,2.6,0,3.835h-9.082c-.031-1.072.022-2.157,0-3.229a4.96,4.96,0,0,1,.807-2.422l7.468-.2A5.432,5.432,0,0,1,2646.539,2013.758Z" transform="translate(-1799.016 -1525.051)" fill="#5f74a3"/>
      <path id="Trazado_1005590" data-name="Trazado 1005590" d="M2663.137,1968.66l-7.467.2C2657.533,1966.073,2661.232,1965.8,2663.137,1968.66Z" transform="translate(-1816.422 -1481.971)" fill="#e0e1e5"/>
      <path id="Trazado_1005591" data-name="Trazado 1005591" d="M2646.677,2142.24c-.016.186.11.578-.119.609l-8.964,0c-.008-.2.007-.4,0-.606Z" transform="translate(-1799.155 -1649.698)" fill="#d7dbe2"/>
      <path id="Trazado_1005592" data-name="Trazado 1005592" d="M2720.143,2263.74c.411.188.089.624-.026.882-1.057,2.36-3.61,3.213-6.028,3.357-.013-.2.012-.4,0-.606.208-.067.6-.08,1.009-.2,1.437-.427,1.86-.288,3.027-1.413A4.626,4.626,0,0,0,2720.143,2263.74Z" transform="translate(-1872.217 -1765.748)" fill="#19142d"/>
      <path id="Trazado_1005593" data-name="Trazado 1005593" d="M2544.282,2300.5a5.485,5.485,0,0,0,4.571,1.079l0,.806c-1.688.058-3.309.149-4.545-1.207-.288-.316-.9-1.037-.6-1.415C2543.984,2299.922,2544.087,2300.337,2544.282,2300.5Z" transform="translate(-1709.406 -1800.158)" fill="#1e1835"/>
      <path id="Trazado_1005594" data-name="Trazado 1005594" d="M2666.869,2322.15c-.24.077-.116.556-.326.619-.427.127-1.374-.115-1.895-.013v-1.617C2665.964,2321.286,2666.771,2320.534,2666.869,2322.15Z" transform="translate(-1824.998 -1820.526)" fill="#f2ce81"/>
      <path id="Trazado_1005595" data-name="Trazado 1005595" d="M2809.216,2155.567c-.9-.132-1.153.149-1.615.807-.75,1.068-.8,2.47-1.413,3.633a4.623,4.623,0,0,1-2.018,2.018,10.885,10.885,0,0,0,1.853-2.285c.7-1.4.65-3.255,1.981-4.275.069-.182-.467-.009-.6-.3C2808.206,2155.126,2808.572,2155.051,2809.216,2155.567Z" transform="translate(-1958.262 -1662.016)" fill="#757592"/>
      <path id="Trazado_1005596" data-name="Trazado 1005596" d="M2722.527,2308.74c-1.167,1.125-1.591.986-3.027,1.413l-.806-.2A7.933,7.933,0,0,0,2722.527,2308.74Z" transform="translate(-1876.619 -1808.73)" fill="#746d8f"/>
      <path id="Trazado_1005597" data-name="Trazado 1005597" d="M2949.665,2231.828a15.135,15.135,0,0,0,.4,5.247h-10.091c-.213-1.8-.5-3.659-.807-5.449a23.549,23.549,0,0,0,3.337-.007c.265.008.522.209.6.209h4.844C2948.311,2231.828,2949.084,2231.309,2949.665,2231.828Z" transform="translate(-2087.207 -1735.048)" fill="#5e74a3"/>
      <circle id="Elipse_13796" data-name="Elipse 13796" cx="0.585" cy="0.585" r="0.585" transform="translate(892.85 441.9)" fill="#201b24"/>
      <path id="Trazado_1005598" data-name="Trazado 1005598" d="M3744.992,1021.373v1.01C3743.592,1022.554,3743.618,1021.194,3744.992,1021.373Z" transform="translate(-2855.895 -579.086)" fill="#0c0911"/>
    </g>
  </g>
</svg>
