<svg xmlns="http://www.w3.org/2000/svg" width="130" height="130" viewBox="0 0 130 130">
  <g id="Grupo_1177376" data-name="Grupo 1177376" transform="translate(-72.746 -7992)">
    <g id="Elipse_13628" data-name="Elipse 13628" transform="translate(72.746 7992)" fill="#fff7e2" stroke="#cff878" stroke-width="6">
      <circle cx="65" cy="65" r="65" stroke="none"/>
      <circle cx="65" cy="65" r="62" fill="none"/>
    </g>
    <g id="_x31_4077_-_Appreciations" transform="translate(-160.317 7498.203)">
      <g id="Grupo_1178216" data-name="Grupo 1178216" transform="translate(256 524.399)">
        <g id="Grupo_1178215" data-name="Grupo 1178215" transform="translate(0 0)">
          <g id="XMLID_49_">
            <g id="Grupo_1178204" data-name="Grupo 1178204" transform="translate(1.267 1.267)">
              <g id="Grupo_1178198" data-name="Grupo 1178198" transform="translate(0 37.957)">
                <path id="Trazado_997476" data-name="Trazado 997476" d="M280,1267.6h10.471v7.853H280Z" transform="translate(-280 -1267.6)" fill="#617881"/>
              </g>
              <g id="Grupo_1178199" data-name="Grupo 1178199" transform="translate(0 45.811)">
                <path id="Trazado_997477" data-name="Trazado 997477" d="M290.471,1428.18v6.544H280V1416.4h10.471Z" transform="translate(-280 -1416.4)" fill="#738b95"/>
              </g>
              <g id="Grupo_1178200" data-name="Grupo 1178200" transform="translate(10.471 18.324)">
                <path id="Trazado_997478" data-name="Trazado 997478" d="M517.666,917.851a8.78,8.78,0,0,0,3.927,11.78,3.927,3.927,0,1,0,0,7.853,3.926,3.926,0,0,1-3.927,3.927H484.944l-6.544-6.544V915.233h1.309a10.471,10.471,0,0,0,10.471-10.471V895.6a7.853,7.853,0,0,1,7.853,7.853V910h19.633a3.927,3.927,0,1,1,0,7.853Z" transform="translate(-478.4 -895.6)" fill="#f1d0a5"/>
              </g>
              <g id="Grupo_1178201" data-name="Grupo 1178201" transform="translate(64.016)">
                <path id="Trazado_997479" data-name="Trazado 997479" d="M1507.457,553.673l-3.629,3.538.857,5-4.486-2.359-4.486,2.359.857-5-3.629-3.538,5.015-.729,2.243-4.545,2.243,4.545Z" transform="translate(-1492.94 -548.4)" fill="#f9ef63"/>
              </g>
              <g id="Grupo_1178202" data-name="Grupo 1178202" transform="translate(44.502 7.166)">
                <path id="Trazado_997480" data-name="Trazado 997480" d="M1137.717,689.454l-3.629,3.538.857,5-4.486-2.359-4.486,2.359.857-5-3.629-3.538,5.015-.729,2.243-4.545,2.243,4.545Z" transform="translate(-1123.2 -684.18)" fill="#f9ef63"/>
              </g>
              <g id="Grupo_1178203" data-name="Grupo 1178203" transform="translate(24.749)">
                <path id="Trazado_997481" data-name="Trazado 997481" d="M763.457,553.673l-3.629,3.538.857,5-4.486-2.359-4.486,2.359.857-5-3.629-3.538,5.015-.729L756.2,548.4l2.243,4.545Z" transform="translate(-748.94 -548.4)" fill="#f9ef63"/>
              </g>
            </g>
            <g id="Grupo_1178214" data-name="Grupo 1178214">
              <g id="Grupo_1178205" data-name="Grupo 1178205" transform="translate(0 37.957)">
                <path id="Trazado_997482" data-name="Trazado 997482" d="M267.738,1272.311H257.267a1.267,1.267,0,0,1-1.267-1.267v-26.177a1.267,1.267,0,0,1,1.267-1.267h10.471a1.267,1.267,0,0,1,1.267,1.267v26.177A1.267,1.267,0,0,1,267.738,1272.311Zm-9.2-2.533h7.938v-23.644h-7.938Z" transform="translate(-256 -1243.6)" fill="#212121"/>
              </g>
              <g id="Grupo_1178206" data-name="Grupo 1178206" transform="translate(10.471 18.324)">
                <path id="Trazado_997483" data-name="Trazado 997483" d="M494.932,919.944H462.21a1.267,1.267,0,0,1-.9-.371l-6.544-6.544a1.267,1.267,0,0,1,1.791-1.791l6.173,6.173h32.2a2.66,2.66,0,0,0,0-5.32,1.267,1.267,0,1,1,0-2.533,2.66,2.66,0,0,0,0-5.32,1.267,1.267,0,0,1,0-2.533,2.66,2.66,0,0,0,0-5.32,1.267,1.267,0,1,1,0-2.533,2.66,2.66,0,0,0,0-5.32H475.3a1.267,1.267,0,0,1-1.267-1.267V880.72a6.591,6.591,0,0,0-5.32-6.466v7.774a11.738,11.738,0,0,1-11.738,11.738h-1.309a1.267,1.267,0,1,1,0-2.533h1.309a9.215,9.215,0,0,0,9.2-9.2v-9.162a1.267,1.267,0,0,1,1.267-1.267,9.119,9.119,0,0,1,9.12,9.12V886h18.366a5.193,5.193,0,0,1,3.673,8.865q-.134.134-.275.256a5.19,5.19,0,0,1,.275,7.6q-.134.134-.275.256a5.19,5.19,0,0,1,.275,7.6q-.134.134-.275.256a5.192,5.192,0,0,1-3.4,9.118Z" transform="translate(-454.399 -871.6)" fill="#212121"/>
              </g>
              <g id="Grupo_1178207" data-name="Grupo 1178207" transform="translate(39.266 40.575)">
                <path id="Trazado_997484" data-name="Trazado 997484" d="M1011.738,1295.733h-10.471a1.267,1.267,0,1,1,0-2.533h10.471a1.267,1.267,0,1,1,0,2.533Z" transform="translate(-1000 -1293.2)" fill="#212121"/>
              </g>
              <g id="Grupo_1178208" data-name="Grupo 1178208" transform="translate(39.266 48.428)">
                <path id="Trazado_997485" data-name="Trazado 997485" d="M1011.738,1444.533h-10.471a1.267,1.267,0,0,1,0-2.533h10.471a1.267,1.267,0,0,1,0,2.533Z" transform="translate(-1000 -1442)" fill="#212121"/>
              </g>
              <g id="Grupo_1178209" data-name="Grupo 1178209" transform="translate(39.266 56.282)">
                <path id="Trazado_997486" data-name="Trazado 997486" d="M1011.738,1593.333h-10.471a1.267,1.267,0,1,1,0-2.533h10.471a1.267,1.267,0,1,1,0,2.533Z" transform="translate(-1000 -1590.8)" fill="#212121"/>
              </g>
              <g id="Grupo_1178210" data-name="Grupo 1178210" transform="translate(0 45.811)">
                <path id="Trazado_997487" data-name="Trazado 997487" d="M267.738,1394.933H257.267a1.267,1.267,0,1,1,0-2.533h10.471a1.267,1.267,0,1,1,0,2.533Z" transform="translate(-256 -1392.4)" fill="#212121"/>
              </g>
              <g id="Grupo_1178211" data-name="Grupo 1178211" transform="translate(24.749 0)">
                <path id="Trazado_997488" data-name="Trazado 997488" d="M728.979,540.74a1.267,1.267,0,0,1-1.248-1.481l.744-4.339-3.152-3.073a1.267,1.267,0,0,1,.7-2.16l4.356-.633,1.948-3.948a1.267,1.267,0,0,1,2.272,0l1.948,3.948,4.356.633a1.267,1.267,0,0,1,.7,2.161l-3.153,3.073.744,4.339a1.267,1.267,0,0,1-1.838,1.335l-3.9-2.049-3.9,2.049A1.267,1.267,0,0,1,728.979,540.74Zm-.051-8.915,1.791,1.746a1.267,1.267,0,0,1,.364,1.121l-.423,2.466,2.214-1.164a1.267,1.267,0,0,1,1.179,0l2.214,1.164-.423-2.465a1.267,1.267,0,0,1,.364-1.121L738,531.825l-2.475-.36a1.267,1.267,0,0,1-.954-.693l-1.107-2.243-1.107,2.243a1.266,1.266,0,0,1-.954.693Z" transform="translate(-724.94 -524.4)" fill="#212121"/>
              </g>
              <g id="Grupo_1178212" data-name="Grupo 1178212" transform="translate(44.501 7.166)">
                <path id="Trazado_997489" data-name="Trazado 997489" d="M1103.235,676.52a1.267,1.267,0,0,1-1.249-1.481l.744-4.339-3.152-3.073a1.267,1.267,0,0,1,.7-2.16l4.356-.633,1.948-3.948a1.267,1.267,0,0,1,2.272,0l1.948,3.948,4.356.633a1.267,1.267,0,0,1,.7,2.16l-3.152,3.073.744,4.339a1.267,1.267,0,0,1-1.838,1.335l-3.9-2.049-3.9,2.049A1.265,1.265,0,0,1,1103.235,676.52Zm-.051-8.915,1.791,1.746a1.266,1.266,0,0,1,.364,1.121l-.423,2.466,2.214-1.164a1.266,1.266,0,0,1,1.179,0l2.214,1.164-.423-2.466a1.267,1.267,0,0,1,.364-1.121l1.791-1.746-2.476-.36a1.267,1.267,0,0,1-.954-.693l-1.107-2.243-1.107,2.243a1.266,1.266,0,0,1-.954.693Z" transform="translate(-1099.196 -660.18)" fill="#212121"/>
              </g>
              <g id="Grupo_1178213" data-name="Grupo 1178213" transform="translate(64.016)">
                <path id="Trazado_997490" data-name="Trazado 997490" d="M1481.953,540.739a1.265,1.265,0,0,1-.589-.146l-3.9-2.049-3.9,2.049a1.267,1.267,0,0,1-1.838-1.335l.744-4.339-3.152-3.073a1.267,1.267,0,0,1,.7-2.16l4.356-.633,1.948-3.948a1.267,1.267,0,0,1,2.272,0l1.948,3.948,4.356.633a1.267,1.267,0,0,1,.7,2.16l-3.152,3.073.744,4.339a1.267,1.267,0,0,1-1.249,1.481Zm-4.486-4.892a1.267,1.267,0,0,1,.589.145l2.214,1.164-.423-2.466a1.266,1.266,0,0,1,.364-1.121l1.791-1.746-2.476-.36a1.267,1.267,0,0,1-.954-.693l-1.107-2.243-1.107,2.243a1.267,1.267,0,0,1-.954.693l-2.476.36,1.791,1.746a1.267,1.267,0,0,1,.364,1.121l-.423,2.466,2.214-1.164A1.268,1.268,0,0,1,1477.467,535.847Z" transform="translate(-1468.942 -524.399)" fill="#212121"/>
              </g>
            </g>
          </g>
        </g>
      </g>
    </g>
  </g>
</svg>
