<svg xmlns="http://www.w3.org/2000/svg" xmlns:xlink="http://www.w3.org/1999/xlink" width="272.643" height="242.657" viewBox="0 0 272.643 242.657">
  <defs>
    <clipPath id="clip-path">
      <path id="Trazado_995266" data-name="Trazado 995266" d="M299.624,198.407c-.147,1.743-.344,3.479-.577,5.2a99.966,99.966,0,0,1-9.4,30.732c-.27.552-.546,1.1-.835,1.638l-.239.46c-1.381,2.651-2.89,5.241-4.51,7.744A97.9,97.9,0,0,1,251.7,275.342c-.153.086-.3.178-.454.264a113.026,113.026,0,0,1-10.837,5.529,143.881,143.881,0,0,1-15.747,5.9c-.693.215-1.393.43-2.086.632-.908.276-1.816.534-2.725.792-4.872,1.368-9.782,2.522-14.636,3.492l-.46.092q-2.062.405-4.142.767c-.945.166-1.89.325-2.841.466-.816.135-1.638.258-2.461.374q-2.255.331-4.529.6c-.061.006-.129.018-.19.018a.118.118,0,0,1-.049.006,194.767,194.767,0,0,1-35.881.914q-6.628-.442-13.206-1.35a137.867,137.867,0,0,1-18.95-3.983c-.331-.1-.663-.19-.994-.295a125.509,125.509,0,0,1-16.79-6.241A110.549,110.549,0,0,1,73,261.737,141.151,141.151,0,0,1,57.775,244.18a128.275,128.275,0,0,1-10.672-17.3,126.785,126.785,0,0,1-8.886-22.27q-1-3.387-1.78-6.72v-.006c-8.456-35.672-.049-66.465,2.074-74.541a99.405,99.405,0,0,1,19.146-38c.295-.356.589-.712.9-1.068a89.128,89.128,0,0,1,21.4-18.263c.006-.006.012-.006.018-.012,1.092-.663,2.2-1.307,3.32-1.921A86.4,86.4,0,0,1,91.784,60h.006a91.839,91.839,0,0,1,42.735-6.726c18,1.485,34.445,5.627,48.933,16.777,5.75,4.431,10.721,9.862,16.759,13.887a89.413,89.413,0,0,0,19.539,9.285c7.536,2.706,15.151,5.554,22.509,8.91h.006c12,5.462,23.307,12.261,32.456,21.944,15.427,16.329,23.761,37.176,25.08,59.672A103.139,103.139,0,0,1,299.624,198.407Z" transform="translate(-32.742 -52.97)"/>
    </clipPath>
    <clipPath id="clip-path-3">
      <path id="Trazado_995331" data-name="Trazado 995331" d="M206.228,346.892s-39.042,24.113-57.519,17.1c-5.081-1.933-10.818-8.65-16.384-14.43-.73,3.209-1.362,15.348-1.773,20.95a125.51,125.51,0,0,1-16.79-6.241,110.549,110.549,0,0,1-31.72-21.589,141.153,141.153,0,0,1-15.225-17.557,128.277,128.277,0,0,1-10.672-17.3c1.252-42.521,26.9-45.251,26.9-45.251,1.062-.055,2.136-.086,3.2-.086a59.888,59.888,0,0,1,22.055,3.989c10.923,4.247,21.018,12.052,28.989,24.233,2.559,3.909,4.983,7.665,7.241,11.193,1.172,1.835,2.3,3.608,3.375,5.3,4.3,6.8,7.775,12.433,10.07,16.188,1.97,3.222,3.068,5.057,3.068,5.057l1.829-.411,32.7-7.395.976,2.4,8.493,20.926Z" transform="translate(-56.145 -262.489)"/>
    </clipPath>
  </defs>
  <g id="_40478844_8850914" data-name="40478844_8850914" transform="translate(-32.742 -52.97)">
    <g id="OBJECTS" transform="translate(32.742 52.97)">
      <g id="Grupo_1177872" data-name="Grupo 1177872">
        <g id="Grupo_1177844" data-name="Grupo 1177844">
          <path id="Trazado_995263" data-name="Trazado 995263" d="M299.624,198.407c-.147,1.743-.344,3.479-.577,5.2a99.966,99.966,0,0,1-9.4,30.732c-.27.552-.546,1.1-.835,1.638l-.239.46c-1.381,2.651-2.89,5.241-4.51,7.744A97.9,97.9,0,0,1,251.7,275.342c-.153.086-.3.178-.454.264a113.026,113.026,0,0,1-10.837,5.529,143.881,143.881,0,0,1-15.747,5.9c-.693.215-1.393.43-2.086.632-.908.276-1.816.534-2.725.792-4.872,1.368-9.782,2.522-14.636,3.492l-.46.092q-2.062.405-4.142.767c-.945.166-1.89.325-2.841.466-.816.135-1.638.258-2.461.374q-2.255.331-4.529.6c-.061.006-.129.018-.19.018a.118.118,0,0,1-.049.006,194.767,194.767,0,0,1-35.881.914q-6.628-.442-13.206-1.35a137.867,137.867,0,0,1-18.95-3.983c-.331-.1-.663-.19-.994-.295a125.509,125.509,0,0,1-16.79-6.241A110.549,110.549,0,0,1,73,261.737,141.151,141.151,0,0,1,57.775,244.18a128.275,128.275,0,0,1-10.672-17.3,126.785,126.785,0,0,1-8.886-22.27q-1-3.387-1.78-6.72v-.006c-8.456-35.672-.049-66.465,2.074-74.541a99.405,99.405,0,0,1,19.146-38c.295-.356.589-.712.9-1.068a89.128,89.128,0,0,1,21.4-18.263c.006-.006.012-.006.018-.012,1.092-.663,2.2-1.307,3.32-1.921A86.4,86.4,0,0,1,91.784,60h.006a91.839,91.839,0,0,1,42.735-6.726c18,1.485,34.445,5.627,48.933,16.777,5.75,4.431,10.721,9.862,16.759,13.887a89.413,89.413,0,0,0,19.539,9.285c7.536,2.706,15.151,5.554,22.509,8.91h.006c12,5.462,23.307,12.261,32.456,21.944,15.427,16.329,23.761,37.176,25.08,59.672A103.139,103.139,0,0,1,299.624,198.407Z" transform="translate(-32.742 -52.97)" fill="#d8edfb"/>
        </g>
        <g id="Grupo_1177847" data-name="Grupo 1177847">
          <g id="Grupo_1177845" data-name="Grupo 1177845" clip-path="url(#clip-path)">
            <path id="Trazado_995264" data-name="Trazado 995264" d="M377.919,334.734c-1.805,3.3-3.78,6.52-5.9,9.634a125.437,125.437,0,0,1-42.32,38.767c-.2.107-.393,2.063-.594,2.169H150.035v-50.57H377.919Z" transform="translate(-78.057 -161.827)" fill="#f2d578"/>
            <path id="Trazado_995265" data-name="Trazado 995265" d="M329.106,414.142a150.889,150.889,0,0,1-14.171,6.879h-164.9v-6.879Z" transform="translate(-78.057 -192.505)" fill="#e6b964"/>
          </g>
          <g id="Grupo_1177846" data-name="Grupo 1177846" clip-path="url(#clip-path)">
            <line id="Línea_3271" data-name="Línea 3271" x1="18.464" transform="translate(240.835 172.907)" fill="none" stroke="#43434d" stroke-linecap="round" stroke-miterlimit="10" stroke-width="1.286"/>
            <line id="Línea_3272" data-name="Línea 3272" x1="62.444" transform="translate(153.489 221.637)" fill="none" stroke="#43434d" stroke-linecap="round" stroke-miterlimit="10" stroke-width="1.286"/>
            <line id="Línea_3273" data-name="Línea 3273" x1="62.444" transform="translate(138.632 228.143)" fill="none" stroke="#43434d" stroke-linecap="round" stroke-miterlimit="10" stroke-width="1.286"/>
          </g>
        </g>
        <path id="Trazado_995268" data-name="Trazado 995268" d="M141.208,83.331a10.932,10.932,0,0,0-15.435-11.282,13.653,13.653,0,0,0-25.9,6.037c0,.034,0,.066,0,.1a10.948,10.948,0,0,0,1.4,21.806l39.115.213a8.457,8.457,0,0,0,.818-16.874Z" transform="translate(-54.988 -57.395)" fill="#fff"/>
        <g id="Grupo_1177848" data-name="Grupo 1177848" transform="translate(1.567 3.059)">
          <path id="Trazado_995269" data-name="Trazado 995269" d="M361.287,169.529a3.56,3.56,0,1,0-3.56,3.56A3.56,3.56,0,0,0,361.287,169.529Z" transform="translate(-158.488 -99.685)" fill="none" stroke="#0f1109" stroke-linecap="round" stroke-miterlimit="10" stroke-width="1.034"/>
          <path id="Trazado_995270" data-name="Trazado 995270" d="M42.71,292.05a3.56,3.56,0,1,0-3.56,3.56A3.56,3.56,0,0,0,42.71,292.05Z" transform="translate(-35.409 -147.019)" fill="none" stroke="#0f1109" stroke-linecap="round" stroke-miterlimit="10" stroke-width="1.034"/>
          <path id="Trazado_995271" data-name="Trazado 995271" d="M204.112,73.158a3.56,3.56,0,1,0-3.56,3.56A3.56,3.56,0,0,0,204.112,73.158Z" transform="translate(-97.765 -62.453)" fill="none" stroke="#0f1109" stroke-linecap="round" stroke-miterlimit="10" stroke-width="1.034"/>
          <path id="Trazado_995272" data-name="Trazado 995272" d="M329.961,57.954c-.452,1.638-.819,2-2.458,2.458,1.638.452,2,.819,2.458,2.458.452-1.638.819-2,2.458-2.458C330.78,59.959,330.413,59.592,329.961,57.954Z" transform="translate(-148.187 -57.954)" fill="#efcf56"/>
          <path id="Trazado_995273" data-name="Trazado 995273" d="M327.5,80.166c-.885,3.2-1.6,3.922-4.807,4.807,3.2.885,3.922,1.6,4.807,4.807.885-3.2,1.6-3.922,4.807-4.807C329.1,84.088,328.387,83.371,327.5,80.166Z" transform="translate(-146.33 -66.535)" fill="#efcf56"/>
          <path id="Trazado_995274" data-name="Trazado 995274" d="M302.579,67.973c-.689,2.494-1.247,3.052-3.741,3.741,2.494.689,3.052,1.247,3.741,3.741.689-2.494,1.247-3.052,3.741-3.741C303.826,71.025,303.267,70.467,302.579,67.973Z" transform="translate(-137.112 -61.825)" fill="#efcf56"/>
          <path id="Trazado_995275" data-name="Trazado 995275" d="M39.036,116.633c-.689,2.494-1.247,3.052-3.741,3.741,2.494.689,3.052,1.247,3.741,3.741.689-2.494,1.247-3.052,3.741-3.741C40.283,119.685,39.724,119.127,39.036,116.633Z" transform="translate(-35.295 -80.624)" fill="#efcf56"/>
          <path id="Trazado_995276" data-name="Trazado 995276" d="M215.6,266.112c-.5,1.818-.909,2.224-2.726,2.726,1.818.5,2.225.909,2.726,2.727.5-1.818.909-2.225,2.727-2.727C216.513,268.336,216.106,267.93,215.6,266.112Z" transform="translate(-103.902 -138.374)" fill="#fff"/>
          <path id="Trazado_995277" data-name="Trazado 995277" d="M241.8,434.529c-.5,1.818-.909,2.225-2.726,2.726,1.818.5,2.225.909,2.726,2.727.5-1.818.909-2.225,2.726-2.727C242.706,436.754,242.3,436.347,241.8,434.529Z" transform="translate(-114.022 -203.44)" fill="#fff"/>
          <path id="Trazado_995278" data-name="Trazado 995278" d="M418.654,202.363c-.5,1.818-.909,2.225-2.726,2.726,1.818.5,2.225.909,2.726,2.726.5-1.818.909-2.225,2.726-2.726C419.563,204.588,419.156,204.181,418.654,202.363Z" transform="translate(-182.349 -113.745)" fill="#fff"/>
          <path id="Trazado_995279" data-name="Trazado 995279" d="M398.675,184.1c-.751,2.717-1.358,3.325-4.075,4.075,2.717.75,3.325,1.358,4.075,4.075.75-2.717,1.358-3.325,4.075-4.075C400.033,187.423,399.425,186.815,398.675,184.1Z" transform="translate(-174.109 -106.688)" fill="#fff"/>
          <path id="Trazado_995280" data-name="Trazado 995280" d="M58.7,255.336c-.751,2.717-1.359,3.325-4.075,4.075,2.717.75,3.325,1.359,4.075,4.075.75-2.717,1.358-3.325,4.075-4.075C60.054,258.661,59.446,258.053,58.7,255.336Z" transform="translate(-42.761 -134.211)" fill="#fff"/>
          <path id="Trazado_995281" data-name="Trazado 995281" d="M79.131,163.72c-.5,1.818-.909,2.225-2.726,2.727,1.818.5,2.225.909,2.726,2.726.5-1.818.909-2.225,2.726-2.726C80.04,165.945,79.633,165.538,79.131,163.72Z" transform="translate(-51.177 -98.816)" fill="#fff"/>
        </g>
        <g id="Grupo_1177849" data-name="Grupo 1177849" transform="translate(9.839 21.667)">
          <path id="Trazado_995282" data-name="Trazado 995282" d="M48.775,88.278c1.4,0,1.4,2.329,2.8,2.329s1.4-2.329,2.8-2.329,1.4,2.329,2.8,2.329,1.4-2.329,2.8-2.329,1.4,2.329,2.8,2.329,1.4-2.329,2.8-2.329,1.4,2.329,2.8,2.329,1.4-2.329,2.8-2.329,1.4,2.329,2.8,2.329,1.4-2.329,2.8-2.329,1.4,2.329,2.8,2.329,1.4-2.329,2.8-2.329,1.4,2.329,2.8,2.329,1.4-2.329,2.8-2.329,1.4,2.329,2.8,2.329,1.4-2.329,2.806-2.329,1.4,2.329,2.808,2.329,1.4-2.329,2.808-2.329" transform="translate(-48.775 -88.278)" fill="none" stroke="#43434d" stroke-linecap="round" stroke-miterlimit="10" stroke-width="1.286"/>
          <path id="Trazado_995283" data-name="Trazado 995283" d="M239.834,218.033c1.466,0,1.466,2.329,2.931,2.329s1.467-2.329,2.933-2.329,1.467,2.329,2.933,2.329,1.467-2.329,2.933-2.329,1.467,2.329,2.934,2.329,1.466-2.329,2.932-2.329,1.467,2.329,2.935,2.329,1.468-2.329,2.937-2.329,1.468,2.329,2.936,2.329" transform="translate(-122.589 -138.408)" fill="none" stroke="#43434d" stroke-linecap="round" stroke-miterlimit="10" stroke-width="1.286"/>
          <path id="Trazado_995284" data-name="Trazado 995284" d="M452.088,286.593c1.466,0,1.466,2.329,2.931,2.329s1.467-2.329,2.933-2.329,1.467,2.329,2.933,2.329,1.467-2.329,2.933-2.329,1.467,2.329,2.934,2.329" transform="translate(-204.591 -164.895)" fill="none" stroke="#43434d" stroke-linecap="round" stroke-miterlimit="10" stroke-width="1.286"/>
          <path id="Trazado_995285" data-name="Trazado 995285" d="M443.339,294.712c1.466,0,1.466,2.329,2.931,2.329s1.467-2.329,2.933-2.329,1.467,2.329,2.933,2.329,1.467-2.329,2.933-2.329,1.467,2.329,2.934,2.329" transform="translate(-201.211 -168.032)" fill="none" stroke="#43434d" stroke-linecap="round" stroke-miterlimit="10" stroke-width="1.286"/>
          <path id="Trazado_995286" data-name="Trazado 995286" d="M262.308,435.177c1.466,0,1.466,2.329,2.931,2.329s1.467-2.329,2.933-2.329,1.467,2.329,2.933,2.329,1.467-2.329,2.933-2.329,1.467,2.329,2.934,2.329" transform="translate(-131.271 -222.299)" fill="none" stroke="#43434d" stroke-linecap="round" stroke-miterlimit="10" stroke-width="1.286"/>
          <path id="Trazado_995287" data-name="Trazado 995287" d="M221.154,225.712c1.466,0,1.466,2.329,2.931,2.329s1.467-2.329,2.933-2.329,1.467,2.329,2.933,2.329,1.467-2.329,2.933-2.329,1.467,2.329,2.934,2.329,1.466-2.329,2.932-2.329,1.467,2.329,2.934,2.329,1.469-2.329,2.937-2.329,1.468,2.329,2.937,2.329" transform="translate(-115.372 -141.374)" fill="none" stroke="#43434d" stroke-linecap="round" stroke-miterlimit="10" stroke-width="1.286"/>
          <path id="Trazado_995288" data-name="Trazado 995288" d="M348.637,131.865c1.4,0,1.4,2.328,2.8,2.328s1.4-2.328,2.8-2.328,1.4,2.328,2.8,2.328,1.4-2.328,2.8-2.328,1.4,2.328,2.8,2.328,1.4-2.328,2.8-2.328,1.4,2.328,2.8,2.328,1.4-2.328,2.8-2.328,1.4,2.328,2.8,2.328,1.4-2.328,2.8-2.328,1.4,2.328,2.8,2.328,1.4-2.328,2.8-2.328,1.4,2.328,2.8,2.328,1.4-2.328,2.8-2.328,1.4,2.328,2.8,2.328,1.4-2.328,2.806-2.328,1.4,2.328,2.808,2.328,1.4-2.328,2.808-2.328" transform="translate(-164.624 -105.117)" fill="none" stroke="#43434d" stroke-linecap="round" stroke-miterlimit="10" stroke-width="1.286"/>
          <path id="Trazado_995289" data-name="Trazado 995289" d="M63.827,102.794c1.4,0,1.4,2.329,2.8,2.329s1.4-2.329,2.8-2.329,1.4,2.329,2.8,2.329,1.4-2.329,2.8-2.329,1.4,2.329,2.8,2.329,1.4-2.329,2.8-2.329,1.4,2.329,2.8,2.329,1.4-2.329,2.8-2.329,1.4,2.329,2.8,2.329,1.4-2.329,2.8-2.329,1.4,2.329,2.8,2.329,1.4-2.329,2.8-2.329,1.4,2.329,2.8,2.329,1.4-2.329,2.8-2.329,1.4,2.329,2.8,2.329,1.4-2.329,2.806-2.329,1.4,2.329,2.808,2.329,1.4-2.329,2.809-2.329" transform="translate(-54.59 -93.886)" fill="none" stroke="#43434d" stroke-linecap="round" stroke-miterlimit="10" stroke-width="1.286"/>
        </g>
        <g id="Grupo_1177855" data-name="Grupo 1177855" transform="translate(95.354 23.052)">
          <circle id="Elipse_13643" data-name="Elipse 13643" cx="23.059" cy="23.059" r="23.059" transform="matrix(0.972, -0.234, 0.234, 0.972, 8.916, 10.769)" fill="#fff"/>
          <circle id="Elipse_13644" data-name="Elipse 13644" cx="7.919" cy="7.919" r="7.919" transform="translate(0 54.122) rotate(-45)" fill="#fff"/>
          <g id="Grupo_1177854" data-name="Grupo 1177854" transform="translate(17.914 14.668)">
            <g id="Grupo_1177851" data-name="Grupo 1177851" transform="translate(9.599 1.925)">
              <path id="Trazado_995290" data-name="Trazado 995290" d="M252.006,129.6a9.667,9.667,0,1,0-17.291,3.175,6.272,6.272,0,0,1,1.018,5.129l-.26,1.034,7.93,1.994.249-.991a6.374,6.374,0,0,1,3.361-4.093A9.622,9.622,0,0,0,252.006,129.6Z" transform="translate(-232.962 -117.573)" fill="#efcf56"/>
              <path id="Trazado_995291" data-name="Trazado 995291" d="M240.262,134.9a2.886,2.886,0,0,0,1.931.4,4.411,4.411,0,0,0,1.853-.739A4.677,4.677,0,0,0,245.6,132.9a3.254,3.254,0,0,0,.344-2.216,1.544,1.544,0,0,0-.374-.76.823.823,0,0,0-.781-.242,1.1,1.1,0,0,0-.555.455,3.609,3.609,0,0,0-.505,3.105,3.894,3.894,0,0,0,2.088,2.374,4.234,4.234,0,0,0,3.175.114" transform="translate(-235.783 -122.242)" fill="none" stroke="#fff" stroke-miterlimit="10" stroke-width="1.264"/>
              <path id="Trazado_995292" data-name="Trazado 995292" d="M242.652,138.132l-.81,10.589,1.688.425,4.164-10.108" transform="translate(-236.393 -125.516)" fill="none" stroke="#43434d" stroke-linecap="round" stroke-miterlimit="10" stroke-width="1.177"/>
              <g id="Grupo_1177850" data-name="Grupo 1177850" transform="translate(0.685 20.372)">
                <path id="Trazado_995293" data-name="Trazado 995293" d="M243.95,154.724l-7.373-1.855a1.065,1.065,0,0,1-.773-1.292h0a1.065,1.065,0,0,1,1.292-.773l7.373,1.854a1.065,1.065,0,0,1,.773,1.292h0A1.065,1.065,0,0,1,243.95,154.724Z" transform="translate(-234.733 -150.771)" fill="#cff878"/>
                <path id="Trazado_995294" data-name="Trazado 995294" d="M243.1,158.089l-7.373-1.854a1.065,1.065,0,0,1-.773-1.292h0a1.065,1.065,0,0,1,1.292-.773l7.373,1.855a1.064,1.064,0,0,1,.773,1.292h0A1.065,1.065,0,0,1,243.1,158.089Z" transform="translate(-234.406 -152.072)" fill="#cff878"/>
                <path id="Trazado_995295" data-name="Trazado 995295" d="M242.257,161.454l-7.373-1.854a1.065,1.065,0,0,1-.773-1.292h0a1.065,1.065,0,0,1,1.292-.773l7.373,1.854a1.065,1.065,0,0,1,.773,1.292h0A1.065,1.065,0,0,1,242.257,161.454Z" transform="translate(-234.079 -153.372)" fill="#cff878"/>
              </g>
            </g>
            <g id="Grupo_1177852" data-name="Grupo 1177852" transform="translate(29.453 6.164)">
              <line id="Línea_3274" data-name="Línea 3274" y1="1.893" x2="5.906" transform="translate(1.694)" fill="none" stroke="#efcf56" stroke-linecap="round" stroke-miterlimit="10" stroke-width="1.943"/>
              <line id="Línea_3275" data-name="Línea 3275" x2="6.076" y2="0.684" transform="translate(2.448 8.791)" fill="none" stroke="#efcf56" stroke-linecap="round" stroke-miterlimit="10" stroke-width="1.943"/>
              <line id="Línea_3276" data-name="Línea 3276" x2="4.046" y2="4.916" transform="translate(0 14.136)" fill="none" stroke="#efcf56" stroke-linecap="round" stroke-miterlimit="10" stroke-width="1.943"/>
            </g>
            <g id="Grupo_1177853" data-name="Grupo 1177853">
              <line id="Línea_3277" data-name="Línea 3277" x1="5.187" y1="3.4" transform="translate(3.418)" fill="none" stroke="#efcf56" stroke-linecap="round" stroke-miterlimit="10" stroke-width="1.943"/>
              <line id="Línea_3278" data-name="Línea 3278" x1="6.038" y1="0.962" transform="translate(0 8.885)" fill="none" stroke="#efcf56" stroke-linecap="round" stroke-miterlimit="10" stroke-width="1.943"/>
              <line id="Línea_3279" data-name="Línea 3279" x1="5.211" y2="3.658" transform="translate(1.761 15.651)" fill="none" stroke="#efcf56" stroke-linecap="round" stroke-miterlimit="10" stroke-width="1.943"/>
            </g>
          </g>
        </g>
        <g id="Grupo_1177859" data-name="Grupo 1177859" transform="translate(114.717 96.312)">
          <g id="Grupo_1177856" data-name="Grupo 1177856" transform="translate(0 23.703)">
            <path id="Trazado_995296" data-name="Trazado 995296" d="M273.478,318.588h87.58a2.516,2.516,0,0,0,2.489-2.15l9.567-65.014a2.516,2.516,0,0,0-2.489-2.882h-87.58a2.516,2.516,0,0,0-2.489,2.15l-9.567,65.014A2.515,2.515,0,0,0,273.478,318.588Z" transform="translate(-239.493 -248.542)" fill="#424a5b"/>
            <path id="Trazado_995297" data-name="Trazado 995297" d="M219.681,384.446h92.666l30.587-22.913H250.268Z" transform="translate(-219.681 -292.195)" fill="#424a5b"/>
            <path id="Trazado_995298" data-name="Trazado 995298" d="M237.943,382.332l20.526-14.765h79.549l-20.525,14.765Z" transform="translate(-226.736 -294.526)" fill="#63697d"/>
            <path id="Trazado_995299" data-name="Trazado 995299" d="M362.32,316.769l8.863-60.228H288.439l-8.862,60.228Z" transform="translate(-242.821 -251.632)" fill="#d5d7fb"/>
          </g>
          <g id="Grupo_1177858" data-name="Grupo 1177858" transform="translate(42.646)">
            <path id="Trazado_995300" data-name="Trazado 995300" d="M301.536,214.786a5.7,5.7,0,0,1,5.64-4.869h61.292a4.179,4.179,0,0,1,4.135,4.788l-.012.08-4.933,33.51-.069-.137-7.451,50.6H289.176Z" transform="translate(-289.176 -209.917)" fill="#fff"/>
            <g id="Grupo_1177857" data-name="Grupo 1177857" transform="translate(9.404 9.134)">
              <line id="Línea_3280" data-name="Línea 3280" x1="28.385" transform="translate(22.82)" fill="none" stroke="#43434d" stroke-linecap="round" stroke-miterlimit="10" stroke-width="1.25"/>
              <line id="Línea_3281" data-name="Línea 3281" x1="25.056" transform="translate(7.084 10.857)" fill="none" stroke="#43434d" stroke-linecap="round" stroke-miterlimit="10" stroke-width="1.25"/>
              <line id="Línea_3282" data-name="Línea 3282" x1="23.164" transform="translate(36.032 10.857)" fill="none" stroke="#43434d" stroke-linecap="round" stroke-miterlimit="10" stroke-width="1.25"/>
              <line id="Línea_3283" data-name="Línea 3283" x1="12.405" transform="translate(6.418 16.285)" fill="none" stroke="#43434d" stroke-linecap="round" stroke-miterlimit="10" stroke-width="1.25"/>
              <line id="Línea_3284" data-name="Línea 3284" x1="38.885" transform="translate(25.642 16.285)" fill="none" stroke="#43434d" stroke-linecap="round" stroke-miterlimit="10" stroke-width="1.25"/>
              <line id="Línea_3285" data-name="Línea 3285" x1="41.68" transform="translate(5.751 21.714)" fill="none" stroke="#43434d" stroke-linecap="round" stroke-miterlimit="10" stroke-width="1.25"/>
              <line id="Línea_3286" data-name="Línea 3286" x1="11.283" transform="translate(52.577 21.714)" fill="none" stroke="#43434d" stroke-linecap="round" stroke-miterlimit="10" stroke-width="1.25"/>
              <line id="Línea_3287" data-name="Línea 3287" x1="45.646" transform="translate(17.547 27.142)" fill="none" stroke="#43434d" stroke-linecap="round" stroke-miterlimit="10" stroke-width="1.25"/>
              <line id="Línea_3288" data-name="Línea 3288" x1="26.389" transform="translate(4.419 32.571)" fill="none" stroke="#43434d" stroke-linecap="round" stroke-miterlimit="10" stroke-width="1.25"/>
              <line id="Línea_3289" data-name="Línea 3289" x1="20.582" transform="translate(34.599 32.571)" fill="none" stroke="#43434d" stroke-linecap="round" stroke-miterlimit="10" stroke-width="1.25"/>
              <line id="Línea_3290" data-name="Línea 3290" x1="5.985" transform="translate(3.753 37.999)" fill="none" stroke="#43434d" stroke-linecap="round" stroke-miterlimit="10" stroke-width="1.25"/>
              <line id="Línea_3291" data-name="Línea 3291" x1="49.241" transform="translate(12.621 37.999)" fill="none" stroke="#43434d" stroke-linecap="round" stroke-miterlimit="10" stroke-width="1.25"/>
              <line id="Línea_3292" data-name="Línea 3292" x1="14.527" transform="translate(3.086 43.427)" fill="none" stroke="#43434d" stroke-linecap="round" stroke-miterlimit="10" stroke-width="1.25"/>
              <line id="Línea_3293" data-name="Línea 3293" x1="20.312" transform="translate(21.185 43.427)" fill="none" stroke="#43434d" stroke-linecap="round" stroke-miterlimit="10" stroke-width="1.25"/>
              <line id="Línea_3294" data-name="Línea 3294" x1="16.11" transform="translate(45.084 43.427)" fill="none" stroke="#43434d" stroke-linecap="round" stroke-miterlimit="10" stroke-width="1.25"/>
              <line id="Línea_3295" data-name="Línea 3295" x1="45.24" transform="translate(15.288 48.856)" fill="none" stroke="#43434d" stroke-linecap="round" stroke-miterlimit="10" stroke-width="1.25"/>
              <line id="Línea_3296" data-name="Línea 3296" x1="23.017" transform="translate(1.754 54.284)" fill="none" stroke="#43434d" stroke-linecap="round" stroke-miterlimit="10" stroke-width="1.25"/>
              <line id="Línea_3297" data-name="Línea 3297" x1="26.371" transform="translate(28.809 54.284)" fill="none" stroke="#43434d" stroke-linecap="round" stroke-miterlimit="10" stroke-width="1.25"/>
              <line id="Línea_3298" data-name="Línea 3298" x1="10.5" transform="translate(1.087 59.713)" fill="none" stroke="#43434d" stroke-linecap="round" stroke-miterlimit="10" stroke-width="1.25"/>
              <line id="Línea_3299" data-name="Línea 3299" x1="27.979" transform="translate(14.016 59.713)" fill="none" stroke="#43434d" stroke-linecap="round" stroke-miterlimit="10" stroke-width="1.25"/>
              <line id="Línea_3300" data-name="Línea 3300" x1="13.265" transform="translate(45.931 59.713)" fill="none" stroke="#43434d" stroke-linecap="round" stroke-miterlimit="10" stroke-width="1.25"/>
              <line id="Línea_3301" data-name="Línea 3301" x1="47.432" transform="translate(0 65.141)" fill="none" stroke="#43434d" stroke-linecap="round" stroke-miterlimit="10" stroke-width="1.25"/>
            </g>
          </g>
        </g>
        <g id="Grupo_1177871" data-name="Grupo 1177871" transform="translate(14.362 65.182)">
          <g id="Grupo_1177870" data-name="Grupo 1177870">
            <g id="Grupo_1177862" data-name="Grupo 1177862" transform="translate(58.595 85.689)">
              <g id="Grupo_1177861" data-name="Grupo 1177861" transform="translate(24.838)">
                <g id="Grupo_1177860" data-name="Grupo 1177860">
                  <path id="Trazado_995301" data-name="Trazado 995301" d="M216.467,338.5a25.555,25.555,0,0,0,7.53-8.567c5.041-1.17,12.513-2.957,16.575-6.392a7.915,7.915,0,0,0,2.776-6.467c-.842,1.225,2.681,3.335,4.167,3.292s1.4-1.327,1.445-2.813c.121-4.22.187-6.416-1.986-8.511.76-2.3-1.791-4.652-3.67-6.186-1.453-1.753-.833-1.588-3.568-3.322-1.592-1.009-3.883-.878-6.028-.024-2.131-.131-9.509.914-11.458,1.786-4.772,2.132-7.132,5.5-10.027,8.728-6.673,7.449-11.923,11.645-20.117,17.378C197.893,333.443,208.137,337.722,216.467,338.5Z" transform="translate(-192.105 -298.824)" fill="#e8aa91"/>
                  <path id="Trazado_995302" data-name="Trazado 995302" d="M276.48,315.569a12.118,12.118,0,0,0-5.786.486" transform="translate(-222.467 -305.234)" fill="none" stroke="#43434d" stroke-linecap="round" stroke-miterlimit="10" stroke-width="1.286"/>
                  <path id="Trazado_995303" data-name="Trazado 995303" d="M270.883,305.228a9.131,9.131,0,0,0-7.392,1.3" transform="translate(-219.684 -301.195)" fill="none" stroke="#43434d" stroke-linecap="round" stroke-miterlimit="10" stroke-width="1.286"/>
                  <path id="Trazado_995304" data-name="Trazado 995304" d="M257.184,299.944a9.509,9.509,0,0,0-4.313,2.672" transform="translate(-215.581 -299.256)" fill="none" stroke="#43434d" stroke-linecap="round" stroke-miterlimit="10" stroke-width="1.286"/>
                </g>
                <path id="Trazado_995305" data-name="Trazado 995305" d="M276.789,319.914c.886,2.363.695,4.975.492,7.49a1.739,1.739,0,0,1-.287.987,1.436,1.436,0,0,1-.907.428,4.038,4.038,0,0,1-4.525-5.07,8.6,8.6,0,0,1-2.232-.519,12.307,12.307,0,0,1-4.31,4.863" transform="translate(-220.275 -306.972)" fill="none" stroke="#43434d" stroke-linecap="round" stroke-miterlimit="10" stroke-width="1.286"/>
                <path id="Trazado_995306" data-name="Trazado 995306" d="M266.252,330.785a6.968,6.968,0,0,1-2.555,5.2,15.649,15.649,0,0,1-5.253,2.782,68.844,68.844,0,0,1-7.512,2.3" transform="translate(-214.832 -311.172)" fill="none" stroke="#43434d" stroke-linecap="round" stroke-miterlimit="10" stroke-width="1.286"/>
              </g>
              <path id="Trazado_995307" data-name="Trazado 995307" d="M185.382,362.072l25.284-24.78-16.275-23.184s-35.105,18.436-42.762,36.7c11.483,3.8,22.9,7.824,34.21,12.2C185.543,362.4,185.382,362.072,185.382,362.072Z" transform="translate(-151.629 -304.729)" fill="#cff878"/>
            </g>
            <g id="Grupo_1177864" data-name="Grupo 1177864" transform="translate(6.302)">
              <path id="Trazado_995308" data-name="Trazado 995308" d="M177.506,197.021c-.639,1.15-1.585,2.329-2.9,2.436-1.543.125-2.756-1.283-3.49-2.646-2.107-3.907-2.607-8.505-2.322-12.934.162-2.509.756-4.869,3.045-6.237a3.139,3.139,0,0,1,4.409.829,17.407,17.407,0,0,1,1.255,18.553Z" transform="translate(-105.94 -166.098)" fill="#424a5b"/>
              <path id="Trazado_995309" data-name="Trazado 995309" d="M124.946,199.7c.975,6.01,2.042,12.251,5.543,17.233s10.2,8.278,15.819,5.924c3.711-1.556,6.144-5.146,7.941-8.747a53.5,53.5,0,0,0,4.451-34.567c-1.2-5.724-7.579-7.714-13.428-7.655s-11.321,3.647-14.521,8.543S124.009,193.926,124.946,199.7Z" transform="translate(-88.968 -164.093)" fill="#e8aa91"/>
              <path id="Trazado_995310" data-name="Trazado 995310" d="M91.445,215.349c1.04-1.231,1.951-2.52,2.718-3.536a55.463,55.463,0,0,0,7.984-15.435c1.846-5.433,4.491-12.354,4.512-18.092,4.771,2.633,9.979,4.726,15.423,4.956s11.169-1.629,14.681-5.8c4.075-4.834-6.074-11.463-9.3-13.44a32.364,32.364,0,0,0-20.636-4.6c-4.151.508-8.367,1.951-11.226,5-4.884,5.214-4.4,12.66-7.087,18.851a14.365,14.365,0,0,1-7.077,7.692c-4.72,2.039-10.137.454-15.022-1.146.466,5.571,1.271,11.2,3.484,16.33,2.239,5.2,8.608,13.3,14.863,13.376C87.339,219.547,89.6,217.54,91.445,215.349Z" transform="translate(-66.414 -159.188)" fill="#424a5b"/>
              <path id="Trazado_995311" data-name="Trazado 995311" d="M111.519,212.517c-4.237,12.247-8.879,31.935-16.35,42.525,5.555,4.8,18.825.962,25.851,3.1,3.33-11.969,3.686-26.876,9.784-37.7-1.711-.327-2.771-1.887-4.137-2.968C122.781,214.391,115.406,215.594,111.519,212.517Z" transform="translate(-77.523 -179.791)" fill="#e8aa91"/>
              <path id="Trazado_995312" data-name="Trazado 995312" d="M122.66,187.541a9.431,9.431,0,0,0-7.021-2.72,7.5,7.5,0,0,0-5.991,4.849,9.961,9.961,0,0,0,2.981,11.614c3.015,2.318,7.565,2.719,10.532.928C128.344,199.082,126.989,191.6,122.66,187.541Z" transform="translate(-82.826 -169.079)" fill="#e8aa91"/>
              <path id="Trazado_995313" data-name="Trazado 995313" d="M170.968,205.255a18.614,18.614,0,0,0-7.183.736" transform="translate(-104.032 -176.954)" fill="none" stroke="#43434d" stroke-linecap="round" stroke-miterlimit="10" stroke-width="1.286"/>
              <path id="Trazado_995314" data-name="Trazado 995314" d="M169.371,213.042a.845.845,0,1,1,.461,1.1A.845.845,0,0,1,169.371,213.042Z" transform="translate(-106.166 -179.791)" fill="#43434d"/>
              <g id="Grupo_1177863" data-name="Grupo 1177863" transform="translate(31.409 20.554)">
                <path id="Trazado_995315" data-name="Trazado 995315" d="M119.528,192.681l2.8,6.866" transform="translate(-118.343 -192.681)" fill="none" stroke="#43434d" stroke-linecap="round" stroke-miterlimit="10" stroke-width="1.286"/>
                <path id="Trazado_995316" data-name="Trazado 995316" d="M123.825,194.81a22.545,22.545,0,0,0-6.228,4.065" transform="translate(-117.597 -193.504)" fill="none" stroke="#43434d" stroke-linecap="round" stroke-miterlimit="10" stroke-width="1.286"/>
              </g>
              <path id="Trazado_995317" data-name="Trazado 995317" d="M175.56,222.941a3.64,3.64,0,1,0,2.6-6.8A20.815,20.815,0,0,0,175.56,222.941Z" transform="translate(-108.581 -181.191)" fill="#e8aa91"/>
              <path id="Trazado_995318" data-name="Trazado 995318" d="M138.379,211.436a4.951,4.951,0,1,1,2.7,6.458A4.951,4.951,0,0,1,138.379,211.436Z" transform="translate(-94.074 -178.186)" fill="#222221" opacity="0.3"/>
              <path id="Trazado_995319" data-name="Trazado 995319" d="M95.057,175.171a39.285,39.285,0,0,0-3.443,6.529c-.852,2.066-1.138,4.633-2.215,6.548a13.981,13.981,0,0,1-22.188,2.925" transform="translate(-66.722 -165.363)" fill="none" stroke="#424a5b" stroke-miterlimit="10" stroke-width="1.286"/>
              <path id="Trazado_995320" data-name="Trazado 995320" d="M137.3,187.737a36.118,36.118,0,0,0,9.406,4.325,18.274,18.274,0,0,0,10.247.009,13.173,13.173,0,0,0,5.143-3.049c1.285-1.245,3.143-3.239,3.049-5.156a2.684,2.684,0,0,0-1.413-2.206" transform="translate(-93.799 -167.87)" fill="none" stroke="#424a5b" stroke-miterlimit="10" stroke-width="1.286"/>
              <path id="Trazado_995321" data-name="Trazado 995321" d="M133.684,244.812a22.17,22.17,0,0,1-10.317-10.13" transform="translate(-88.417 -188.354)" fill="none" stroke="#43434d" stroke-linecap="round" stroke-miterlimit="10" stroke-width="1.286"/>
              <path id="Trazado_995322" data-name="Trazado 995322" d="M165.916,224.49a4.7,4.7,0,0,0,2.723,4.5" transform="translate(-104.852 -184.417)" fill="none" stroke="#43434d" stroke-linecap="round" stroke-miterlimit="10" stroke-width="1.286"/>
            </g>
            <g id="Grupo_1177865" data-name="Grupo 1177865" transform="translate(122.258 117.689)">
              <path id="Trazado_995323" data-name="Trazado 995323" d="M272.445,381.928a25.553,25.553,0,0,0,10.514-4.42c7.549,1.718,16.658,1.286,23.023-3.122-1.292.735-.836,2.963.52,3.573a4.037,4.037,0,0,0,4.107-.982,7.659,7.659,0,0,0,2.142-8.235c1.689-1.74.182-6.443-.838-8.643s-.376-2.937-2.369-4.319a7.569,7.569,0,0,0-5.44-1.767,37.377,37.377,0,0,0-10.216-3.033c-5.224-.165-8.816,1.831-12.832,3.475-9.255,3.788-15.81,5.271-25.685,6.852C257.941,369.269,265.29,377.591,272.445,381.928Z" transform="translate(-255.372 -350.969)" fill="#e8aa91"/>
              <path id="Trazado_995324" data-name="Trazado 995324" d="M344.126,378.177a12.115,12.115,0,0,0-5.417-2.088" transform="translate(-287.568 -360.674)" fill="none" stroke="#43434d" stroke-linecap="round" stroke-miterlimit="10" stroke-width="1.286"/>
              <path id="Trazado_995325" data-name="Trazado 995325" d="M339.52,385.661a7.422,7.422,0,0,0-1.44,2.3" transform="translate(-287.325 -364.372)" fill="none" stroke="#43434d" stroke-linecap="round" stroke-miterlimit="10" stroke-width="1.286"/>
              <path id="Trazado_995326" data-name="Trazado 995326" d="M343.113,365.4a16.712,16.712,0,0,0-6.982-.579" transform="translate(-286.572 -356.266)" fill="none" stroke="#43434d" stroke-linecap="round" stroke-miterlimit="10" stroke-width="1.286"/>
              <path id="Trazado_995327" data-name="Trazado 995327" d="M332.157,355.93a12.1,12.1,0,0,0-4.175.884" transform="translate(-283.424 -352.886)" fill="none" stroke="#43434d" stroke-linecap="round" stroke-miterlimit="10" stroke-width="1.286"/>
            </g>
            <g id="Grupo_1177869" data-name="Grupo 1177869" transform="translate(0 63.392)">
              <path id="Trazado_995328" data-name="Trazado 995328" d="M206.228,346.892s-39.042,24.113-57.519,17.1c-5.081-1.933-10.818-8.65-16.384-14.43-.73,3.209-1.362,15.348-1.773,20.95a125.51,125.51,0,0,1-16.79-6.241,110.549,110.549,0,0,1-31.72-21.589,141.153,141.153,0,0,1-15.225-17.557,128.277,128.277,0,0,1-10.672-17.3c1.252-42.521,26.9-45.251,26.9-45.251,1.062-.055,2.136-.086,3.2-.086a59.888,59.888,0,0,1,22.055,3.989c10.923,4.247,21.018,12.052,28.989,24.233,2.559,3.909,4.983,7.665,7.241,11.193,1.172,1.835,2.3,3.608,3.375,5.3,4.3,6.8,7.775,12.433,10.07,16.188,1.97,3.222,3.068,5.057,3.068,5.057l1.829-.411,32.7-7.395.976,2.4,8.493,20.926Z" transform="translate(-56.145 -262.489)" fill="#cff878"/>
              <g id="Grupo_1177868" data-name="Grupo 1177868">
                <g id="Grupo_1177867" data-name="Grupo 1177867" clip-path="url(#clip-path-3)">
                  <g id="Grupo_1177866" data-name="Grupo 1177866" transform="translate(-8.872 -5.041)">
                    <path id="Trazado_995329" data-name="Trazado 995329" d="M61.855,254.274a54.991,54.991,0,0,1,19.151,42.011c-.083,6.655-1.457,13.424-4.934,19.1s-9.239,10.141-15.823,11.11-13.829-2.015-17.048-7.841c-2.339-4.234-2.1-10.2,1.646-13.267a10.277,10.277,0,0,1,8.608-1.758,19.307,19.307,0,0,1,7.97,4.19c8.988,7.342,13.838,18.976,14.5,30.563,1.173,20.634-3.055,24.236-7.433,33.654" transform="translate(-41.688 -254.274)" fill="none" stroke="#fff" stroke-miterlimit="10" stroke-width="1.264"/>
                    <path id="Trazado_995330" data-name="Trazado 995330" d="M162.229,274.374c-7.689,5.444-14.462,12.846-16.874,21.952s.506,20,8.5,24.977c6.321,3.933,14.355,3.629,21.36,6.15,11.716,4.217,19.6,17.182,17.943,29.524a17.051,17.051,0,0,1-3.529,8.816,9.759,9.759,0,0,1-8.484,3.621c-5.2-.714-8.427-6.99-6.878-12s6.775-8.291,12.006-8.653,10.372,1.753,14.7,4.716a39.39,39.39,0,0,1,15.656,22.168" transform="translate(-81.421 -262.039)" fill="none" stroke="#fff" stroke-miterlimit="10" stroke-width="1.264"/>
                  </g>
                </g>
              </g>
              <path id="Trazado_995332" data-name="Trazado 995332" d="M181.219,399.591c-8.366-3.59-35.154-34.058-40.926-44.958" transform="translate(-88.655 -298.088)" fill="none" stroke="#43434d" stroke-linecap="round" stroke-miterlimit="10" stroke-width="1.286"/>
            </g>
          </g>
        </g>
        <path id="Trazado_995333" data-name="Trazado 995333" d="M200.175,326.72l16.514,26.547,25.274-5.713" transform="translate(-97.428 -158.73)" fill="none" stroke="#43434d" stroke-linecap="round" stroke-miterlimit="10" stroke-width="1.286"/>
        <line id="Línea_3302" data-name="Línea 3302" x2="15.679" y2="22.335" transform="translate(115.718 160.25)" fill="none" stroke="#43434d" stroke-linecap="round" stroke-miterlimit="10" stroke-width="1.286"/>
        <line id="Línea_3303" data-name="Línea 3303" x2="10.653" y2="26.246" transform="translate(153.791 186.731)" fill="none" stroke="#43434d" stroke-linecap="round" stroke-miterlimit="10" stroke-width="1.286"/>
      </g>
    </g>
  </g>
</svg>
