<svg xmlns="http://www.w3.org/2000/svg" width="130" height="130" viewBox="0 0 130 130">
  <g id="Grupo_1177377" data-name="Grupo 1177377" transform="translate(-72.746 -7992)">
    <g id="Elipse_13628" data-name="Elipse 13628" transform="translate(72.746 7992)" fill="#fff7e2" stroke="#cff878" stroke-width="6">
      <circle cx="65" cy="65" r="65" stroke="none"/>
      <circle cx="65" cy="65" r="62" fill="none"/>
    </g>
    <g id="Filled_outline" data-name="Filled outline" transform="translate(99.48 8018.728)">
      <circle id="Elipse_13672" data-name="Elipse 13672" cx="8.464" cy="8.464" r="8.464" transform="translate(53.994 56.409)" fill="#50b4f8"/>
      <circle id="Elipse_13673" data-name="Elipse 13673" cx="6.045" cy="6.045" r="6.045" transform="translate(6.905 3.209)" fill="#f9bb4b"/>
      <circle id="Elipse_13674" data-name="Elipse 13674" cx="22.973" cy="22.973" r="22.973" transform="translate(15.303 14.091)" fill="#9362f5"/>
      <path id="Trazado_997491" data-name="Trazado 997491" d="M53.464,47a8.444,8.444,0,0,0-8.25,10.333l4.622-.66,1.209-3.627,3.627-1.209L58.3,54.254l3.007-1.965A8.464,8.464,0,0,0,53.464,47Z" transform="translate(8.994 9.409)" fill="#c8d952"/>
      <path id="Trazado_997492" data-name="Trazado 997492" d="M56.369,56.209,53.951,55l-1.209,3.627-4.289,2.451A8.444,8.444,0,0,0,60.569,57Z" transform="translate(9.716 11.081)" fill="#c8d952"/>
      <path id="Trazado_997493" data-name="Trazado 997493" d="M13.01,33.975c8.451-2.176,13.213-3.385,22.96-3.385,4.836,0,3.627-3.627,8.464-6.045,4.484-2.242,8.077-1.268,10.6-3.144a23.081,23.081,0,0,0-5.623-5.785c-3.261,2.169-7.431,4.093-11.024,4.093-6.045,0-4.836,6.045-9.673,6.045-7.254,0-11.143,2.627-15.082,3.177a22.927,22.927,0,0,0-.624,5.044Z" transform="translate(2.305 2.847)" fill="#d0bafa"/>
      <path id="Trazado_997494" data-name="Trazado 997494" d="M35.823,34.4c-8.415,0-17.411,2.342-22.106,3.766A22.852,22.852,0,0,0,15.55,42.78c4.555-2.336,7.038.082,11.809.082,3.627,0,2.418-3.627,9.673-3.627,6.166,0,7.254,1.209,12.091-3.627,2.781-2.781,6.759-3.161,9.64-2.983.006-.216.033-.427.033-.644a22.955,22.955,0,0,0-.734-5.669,24.216,24.216,0,0,1-6.521.833c-8.464,0-3.627,7.254-15.718,7.254Z" transform="translate(2.453 5.083)" fill="#d0bafa"/>
      <path id="Trazado_997495" data-name="Trazado 997495" d="M5.728,9.916a7.247,7.247,0,0,0,11.29,5.341,10.5,10.5,0,0,0,3.157.652,2.875,2.875,0,0,0,1.134-.2,2.055,2.055,0,0,0,1.222-1.158c.793-1.935-.591-3.418-2.356-4.715.015-.19.029-.38.029-.573A7.244,7.244,0,0,0,7.662,4.3c-3.353-.664-4.981-.41-5.5.866-.7,1.721.785,3.135,3.57,4.746Zm13.758,2.463c.513.453.81.826.831,1.088a4.652,4.652,0,0,1-1.348-.17,7.133,7.133,0,0,0,.517-.918ZM12.95,14.091A4.823,4.823,0,0,1,8.691,11.5c.595.3,1.216.613,1.867.937l.642.322c.985.492,1.845.89,2.645,1.245a4.859,4.859,0,0,1-.895.091Zm0-9.673A4.817,4.817,0,0,1,16.512,12.5c-1.1-.427-2.485-1.039-4.232-1.91l-.644-.322c-1.088-.54-2.311-1.156-3.448-1.763A4.836,4.836,0,0,1,12.95,4.418ZM6.235,6.505a7.362,7.362,0,0,0-.256.742,8.535,8.535,0,0,1-1.211-.895A11.516,11.516,0,0,1,6.235,6.505Z" transform="translate(0 0)"/>
      <path id="Trazado_997496" data-name="Trazado 997496" d="M44,55.673A9.673,9.673,0,1,0,53.673,46,9.673,9.673,0,0,0,44,55.673Zm9.673,7.254a7.255,7.255,0,0,1-1.513-.161l2.112-1.209a1.209,1.209,0,0,0,.548-.667l.768-2.3,1.172.586a1.2,1.2,0,0,0,.316.105l2.58.49a7.254,7.254,0,0,1-5.983,3.161ZM60.806,54.4a6.941,6.941,0,0,1-.121,3.1l-2.994-.568L55.423,55.8a1.209,1.209,0,0,0-1.693.7l-1.063,3.188-3.244,1.855a7.287,7.287,0,0,1-2.418-3.007l3.206-.457a1.209,1.209,0,0,0,.977-.815l1.018-3.053L54.7,53.38l3.135,2.089a1.209,1.209,0,0,0,1.33.006Zm-7.134-5.986a7.254,7.254,0,0,1,6.287,3.653l-1.451.944-2.962-1.976a1.209,1.209,0,0,0-1.053-.141l-3.627,1.209a1.209,1.209,0,0,0-.765.765l-.967,2.918-2.691.384c-.011-.167-.024-.332-.024-.5a7.262,7.262,0,0,1,7.254-7.254Z" transform="translate(8.785 9.2)"/>
      <path id="Trazado_997497" data-name="Trazado 997497" d="M13.612,35.182c0,.625.047,1.238.094,1.851C7.112,44.224,2,53.672,5.343,58.812c1.477,2.28,4.279,3.429,8.269,3.429a34.37,34.37,0,0,0,8.546-1.282,68.423,68.423,0,0,0,8.19-2.781A24.133,24.133,0,0,0,61.877,37.125c8.274-8.939,11.253-17.494,8.367-21.946-2.949-4.541-11.292-3.077-20.007-.692A24.131,24.131,0,0,0,13.612,35.182ZM21.541,58.62c-7.3,1.916-12.463,1.507-14.169-1.123-2.025-3.124.867-10.332,6.771-17.3a24.247,24.247,0,0,0,12.975,16.65c-1.922.7-3.794,1.308-5.576,1.774ZM16.065,35.868c7.8-2,12.443-3.1,21.728-3.1a5.909,5.909,0,0,0,5.518-3.032A8.826,8.826,0,0,1,46.8,26.587a18.127,18.127,0,0,1,5.737-1.606,14.26,14.26,0,0,0,3.9-.967,21.58,21.58,0,0,1,2.105,4.611,24.021,24.021,0,0,1-5.031.51c-4.474,0-5.879,1.935-7.121,3.642-1.352,1.858-2.629,3.613-8.6,3.613a81.361,81.361,0,0,0-21.246,3.46,21.7,21.7,0,0,1-.482-3.983ZM30.309,55.591a21.842,21.842,0,0,1-11.038-9.044,9.031,9.031,0,0,1,5.339.088,20.955,20.955,0,0,0,4.719.637A5.008,5.008,0,0,0,33.114,45.6c1.039-.96,2.112-1.954,5.888-1.954,1.133,0,2.092.042,2.933.079,4.061.173,5.871.082,10.012-4.06a10.017,10.017,0,0,1,6.6-2.635A79.593,79.593,0,0,1,45.6,47.467a98.617,98.617,0,0,1-15.29,8.124Zm7.484,1.354a21.8,21.8,0,0,1-3.772-.349,102.789,102.789,0,0,0,12.894-7.1A82.778,82.778,0,0,0,58.988,40.05a21.789,21.789,0,0,1-21.2,16.894ZM50.238,37.954c-3.556,3.555-4.636,3.506-8.2,3.354-.872-.037-1.864-.081-3.038-.081-4.723,0-6.346,1.5-7.531,2.6a2.672,2.672,0,0,1-2.141,1.03,18.7,18.7,0,0,1-4.2-.576,11.137,11.137,0,0,0-7.025.121,21.436,21.436,0,0,1-.9-2.221,78.931,78.931,0,0,1,20.588-3.37c7.2,0,9.057-2.555,10.552-4.608,1.118-1.537,1.926-2.647,5.166-2.647a26.479,26.479,0,0,0,5.628-.586,21.82,21.82,0,0,1,.387,3.615,12.9,12.9,0,0,0-9.288,3.371Zm17.977-21.46c2.285,3.524-.484,10.061-6.33,16.919a24.137,24.137,0,0,0-9.033-17.118C59.085,14.708,66.278,13.509,68.215,16.494Zm-17.041,1.56a21.94,21.94,0,0,1,3.869,3.907,14.683,14.683,0,0,1-2.87.635,20.452,20.452,0,0,0-6.454,1.832,11.159,11.159,0,0,0-4.353,3.879c-1,1.358-1.5,2.04-3.573,2.04a74.941,74.941,0,0,0-21.672,3.012,21.7,21.7,0,0,1,.33-2.418,32.969,32.969,0,0,0,3.765-1.076,30.332,30.332,0,0,1,10.322-1.936c2.916,0,4.182-1.825,5.2-3.29,1.07-1.539,1.915-2.755,4.474-2.755,4.144,0,8.407-2.217,10.963-3.828ZM37.793,13.418a21.6,21.6,0,0,1,11.095,3.075c.018.028.025.064.046.089a18.6,18.6,0,0,1-8.722,2.881c-3.824,0-5.285,2.1-6.459,3.794-1.027,1.48-1.636,2.251-3.214,2.251a32.808,32.808,0,0,0-11.08,2.055c-.814.268-1.572.515-2.291.717A21.789,21.789,0,0,1,37.793,13.418Z" transform="translate(0.482 1.882)"/>
      <path id="Trazado_997498" data-name="Trazado 997498" d="M22,19h2.418v2.418H22Z" transform="translate(4.185 3.555)"/>
      <path id="Trazado_997499" data-name="Trazado 997499" d="M26,16h2.418v2.418H26Z" transform="translate(5.021 2.927)"/>
      <path id="Trazado_997500" data-name="Trazado 997500" d="M62.882,39.836a3.627,3.627,0,0,1-3.627-3.627,1.209,1.209,0,1,0-2.418,0,3.627,3.627,0,0,1-3.627,3.627,1.209,1.209,0,1,0,0,2.418,3.627,3.627,0,0,1,3.627,3.627,1.209,1.209,0,0,0,2.418,0,3.627,3.627,0,0,1,3.627-3.627,1.209,1.209,0,0,0,0-2.418Zm-4.836,2.456A6.031,6.031,0,0,0,56.8,41.045,6.031,6.031,0,0,0,58.045,39.8a6.031,6.031,0,0,0,1.247,1.247,6.031,6.031,0,0,0-1.247,1.247Z" transform="translate(10.457 6.9)"/>
      <path id="Trazado_997501" data-name="Trazado 997501" d="M12.882,20.836a3.627,3.627,0,0,1-3.627-3.627,1.209,1.209,0,1,0-2.418,0,3.627,3.627,0,0,1-3.627,3.627,1.209,1.209,0,1,0,0,2.418,3.627,3.627,0,0,1,3.627,3.627,1.209,1.209,0,0,0,2.418,0,3.627,3.627,0,0,1,3.627-3.627,1.209,1.209,0,1,0,0-2.418ZM8.045,23.292A6.031,6.031,0,0,0,6.8,22.045,6.031,6.031,0,0,0,8.045,20.8a6.031,6.031,0,0,0,1.247,1.247,6.031,6.031,0,0,0-1.247,1.247Z" transform="translate(0.003 2.927)"/>
      <path id="Trazado_997502" data-name="Trazado 997502" d="M24,43h2.418v2.418H24Z" transform="translate(4.603 8.572)"/>
      <path id="Trazado_997503" data-name="Trazado 997503" d="M29,41h2.418v2.418H29Z" transform="translate(5.648 8.154)"/>
      <path id="Trazado_997504" data-name="Trazado 997504" d="M31,3h2.418V5.418H31Z" transform="translate(6.067 0.209)"/>
      <path id="Trazado_997505" data-name="Trazado 997505" d="M31,7h2.418V9.418H31Z" transform="translate(6.067 1.046)"/>
      <path id="Trazado_997506" data-name="Trazado 997506" d="M29,5h2.418V7.418H29Z" transform="translate(5.648 0.627)"/>
      <path id="Trazado_997507" data-name="Trazado 997507" d="M33,5h2.418V7.418H33Z" transform="translate(6.485 0.627)"/>
      <path id="Trazado_997508" data-name="Trazado 997508" d="M29,53h2.418v2.418H29Z" transform="translate(5.648 10.663)"/>
      <path id="Trazado_997509" data-name="Trazado 997509" d="M29,57h2.418v2.418H29Z" transform="translate(5.648 11.5)"/>
      <path id="Trazado_997510" data-name="Trazado 997510" d="M27,55h2.418v2.418H27Z" transform="translate(5.23 11.081)"/>
      <path id="Trazado_997511" data-name="Trazado 997511" d="M31,55h2.418v2.418H31Z" transform="translate(6.067 11.081)"/>
      <path id="Trazado_997512" data-name="Trazado 997512" d="M22,6h2.418V8.418H22Z" transform="translate(4.185 0.837)"/>
      <path id="Trazado_997513" data-name="Trazado 997513" d="M41,9h2.418v2.418H41Z" transform="translate(8.157 1.464)"/>
      <path id="Trazado_997514" data-name="Trazado 997514" d="M19,55h2.418v2.418H19Z" transform="translate(3.558 11.081)"/>
      <path id="Trazado_997515" data-name="Trazado 997515" d="M37,58h2.418v2.418H37Z" transform="translate(7.321 11.709)"/>
    </g>
  </g>
</svg>
