<svg xmlns="http://www.w3.org/2000/svg" width="292" height="117" viewBox="0 0 292 117">
  <g id="Grupo_1178241" data-name="Grupo 1178241" transform="translate(-186.063 -3362)">
    <rect id="Rectángulo_455132" data-name="Rectángulo 455132" width="292" height="117" transform="translate(186.063 3362)" fill="#f8dfff"/>
    <g id="Grupo_1178240" data-name="Grupo 1178240" transform="translate(634.827 637.031)">
      <path id="Trazado_997516" data-name="Trazado 997516" d="M85.63,640.336c.584.309,1.135,1.173,1.831,1.488a6.509,6.509,0,0,0,2.8.488,14.627,14.627,0,0,0,5.418-1.433c-4.264,1.767-2.9,7.361-1.12,10.306-1.3-1.008-3.469-.716-4.866-.1-1.91.846-2.38,2.177-3.133,3.774-.619-1.857-.34-3.349-1.8-5.1-1.957-2.347-4.095-1.71-6.59-1.6.474-.021,1.48-.806,1.99-1,.677-.258,1.34-.506,2-.8a4.268,4.268,0,0,0,2.78-3.029,29.655,29.655,0,0,0,.527-3.07A1.078,1.078,0,0,1,85.63,640.336Z" transform="translate(-474.937 2142.133)" fill="none" stroke="#010101" stroke-linecap="round" stroke-linejoin="round" stroke-miterlimit="4.82" stroke-width="1"/>
      <path id="Trazado_997519" data-name="Trazado 997519" d="M122.089,1057.365c1.222.849,2.717-3.106,2.67-4.01,0,1.385-.41,3.845,1.755,3.963-.764.482-1.427.622-1.745,1.59a6.843,6.843,0,0,0-.339,2.062C124.341,1059.567,123.682,1057.78,122.089,1057.365Z" transform="translate(-514.526 1769.744)" fill="none" stroke="#010101" stroke-linecap="round" stroke-linejoin="round" stroke-miterlimit="4.82" stroke-width="1"/>
      <g id="Grupo_1178220" data-name="Grupo 1178220" transform="translate(-381.289 2811.637)">
        <line id="Línea_3359" data-name="Línea 3359" x2="0.274" y2="4.176" transform="translate(2.259 0)" fill="none" stroke="#010101" stroke-linecap="round" stroke-linejoin="round" stroke-miterlimit="4.82" stroke-width="1"/>
        <path id="Trazado_997520" data-name="Trazado 997520" d="M235.229,953.482c.205,0,4.245-.479,4.245-.479" transform="translate(-235.229 -951.428)" fill="none" stroke="#010101" stroke-linecap="round" stroke-linejoin="round" stroke-miterlimit="4.82" stroke-width="1"/>
        <line id="Línea_3360" data-name="Línea 3360" x2="2.601" y2="1.78" transform="translate(0.958 0.958)" fill="none" stroke="#010101" stroke-linecap="round" stroke-linejoin="round" stroke-miterlimit="4.82" stroke-width="1"/>
        <line id="Línea_3361" data-name="Línea 3361" y1="2.122" x2="2.259" transform="translate(1.301 0.753)" fill="none" stroke="#010101" stroke-linecap="round" stroke-linejoin="round" stroke-miterlimit="4.82" stroke-width="1"/>
      </g>
      <path id="Trazado_997521" data-name="Trazado 997521" d="M1020.04,182.256c.025,0,.051,0,.075,0h-.075Z" transform="translate(-1324.006 2555.017)" fill="#fda1a6"/>
      <path id="Trazado_997522" data-name="Trazado 997522" d="M1020.04,97.969h.075c-.025,0-.051,0-.075,0Z" transform="translate(-1324.006 2631)" fill="#fda1a6"/>
      <path id="Trazado_997542" data-name="Trazado 997542" d="M1843.963,119.6c.566-.342,1.59-.369,2.219-.8a6.511,6.511,0,0,0,1.859-2.147,14.628,14.628,0,0,0,1.562-5.382c-.682,4.565,4.814,6.28,8.258,6.268-1.533.594-2.4,2.605-2.589,4.121-.259,2.073.64,3.161,1.621,4.63-1.91-.425-3.046-1.434-5.292-1.085-3.02.469-3.575,2.629-4.763,4.826A11.961,11.961,0,0,0,1847,127.8c.128-.713.256-1.409.342-2.128a4.268,4.268,0,0,0-1.165-3.943,29.632,29.632,0,0,0-2.36-2.033A1.1,1.1,0,0,1,1843.963,119.6Z" transform="translate(-2066.623 2619.012)" fill="none" stroke="#010101" stroke-linecap="round" stroke-linejoin="round" stroke-miterlimit="4.82" stroke-width="1"/>
      <path id="Trazado_997544" data-name="Trazado 997544" d="M1782.7,992.457c.584.309,1.135,1.173,1.831,1.488a6.511,6.511,0,0,0,2.8.488,14.629,14.629,0,0,0,5.418-1.433c-4.264,1.767-2.9,7.361-1.12,10.306-1.3-1.008-3.469-.716-4.866-.1-1.91.846-2.38,2.177-3.133,3.774-.619-1.857-.339-3.349-1.8-5.1-1.957-2.347-4.095-1.71-6.59-1.6.474-.021,1.48-.806,1.99-1,.677-.258,1.34-.506,2-.8a4.268,4.268,0,0,0,2.78-3.029,29.588,29.588,0,0,0,.527-3.07A1.075,1.075,0,0,1,1782.7,992.457Z" transform="translate(-2004.806 1824.705)" fill="none" stroke="#010101" stroke-linecap="round" stroke-linejoin="round" stroke-miterlimit="4.82" stroke-width="1"/>
      <path id="Trazado_997546" data-name="Trazado 997546" d="M1201.13,275.191c1.195.83,2.656-3.036,2.61-3.92,0,1.354-.4,3.759,1.716,3.875-.747.471-1.4.608-1.706,1.555a6.686,6.686,0,0,0-.331,2.016C1203.331,277.344,1202.687,275.6,1201.13,275.191Z" transform="translate(-1487.254 2474.773)" fill="none" stroke="#010101" stroke-linecap="round" stroke-linejoin="round" stroke-miterlimit="4.82" stroke-width="1"/>
      <path id="Trazado_997548" data-name="Trazado 997548" d="M1888.07,499.337c1.222.849,2.717-3.106,2.67-4.009,0,1.385-.41,3.845,1.755,3.963-.764.482-1.427.622-1.745,1.59a6.835,6.835,0,0,0-.339,2.063C1890.322,501.54,1889.663,499.753,1888.07,499.337Z" transform="translate(-2106.512 2272.791)" fill="none" stroke="#010101" stroke-linecap="round" stroke-linejoin="round" stroke-miterlimit="4.82" stroke-width="1"/>
      <g id="Grupo_1178224" data-name="Grupo 1178224" transform="translate(-276.472 2807.131)">
        <line id="Línea_3371" data-name="Línea 3371" x2="0.274" y2="4.176" transform="translate(2.259 0)" fill="none" stroke="#010101" stroke-linecap="round" stroke-linejoin="round" stroke-miterlimit="4.82" stroke-width="1"/>
        <path id="Trazado_997549" data-name="Trazado 997549" d="M1299.09,907.745c.205,0,4.245-.479,4.245-.479" transform="translate(-1299.09 -905.691)" fill="none" stroke="#010101" stroke-linecap="round" stroke-linejoin="round" stroke-miterlimit="4.82" stroke-width="1"/>
        <line id="Línea_3372" data-name="Línea 3372" x2="2.602" y2="1.78" transform="translate(0.958 0.959)" fill="none" stroke="#010101" stroke-linecap="round" stroke-linejoin="round" stroke-miterlimit="4.82" stroke-width="1"/>
        <line id="Línea_3373" data-name="Línea 3373" y1="2.122" x2="2.259" transform="translate(1.301 0.753)" fill="none" stroke="#010101" stroke-linecap="round" stroke-linejoin="round" stroke-miterlimit="4.82" stroke-width="1"/>
      </g>
      <path id="Trazado_997553" data-name="Trazado 997553" d="M863.036,1056.16s-1.4-.9-4.965,1.49" transform="translate(-1177.995 1767.364)" fill="none" stroke="#010101" stroke-linecap="round" stroke-linejoin="round" stroke-miterlimit="4.82" stroke-width="1"/>
      <path id="Trazado_997554" data-name="Trazado 997554" d="M1032.162,861c-19.962,14.88.174,20.108,6.145,17.979,8.925-4.4-1.57-12.864-8.133-4.826-10.958,13.42,13.634,20.688,24.047,15.169" transform="translate(-1327.159 1943.149)" fill="none" stroke="#010101" stroke-linejoin="round" stroke-miterlimit="4.82" stroke-width="1"/>
      <circle id="Elipse_13685" data-name="Elipse 13685" cx="2.337" cy="2.337" r="2.337" transform="translate(-249.704 2736.03) rotate(-45)" fill="none" stroke="#010101" stroke-linecap="round" stroke-linejoin="round" stroke-miterlimit="4.82" stroke-width="1"/>
      <g id="Grupo_1178229" data-name="Grupo 1178229" transform="translate(-293.827 2737.851)">
        <path id="Trazado_997557" data-name="Trazado 997557" d="M1398.04,1084.335l12.5-1.263.126-4.8-6.061.505-.14,1.549S1397.661,1080.8,1398.04,1084.335Z" transform="translate(-1370.922 -990.57)" fill="#f0f8ff" stroke="#010101" stroke-miterlimit="10" stroke-width="1"/>
        <path id="Trazado_997558" data-name="Trazado 997558" d="M1865.536,748.564l-4.9-11.57-4.621,1.3,2.273,5.641,1.44-.43S1862.27,749.97,1865.536,748.564Z" transform="translate(-1783.789 -682.915)" fill="#f0f8ff" stroke="#010101" stroke-miterlimit="10" stroke-width="1"/>
        <path id="Trazado_997559" data-name="Trazado 997559" d="M1398.355,294.165c4.357-1.683,10.3-2.931,12.631-2,5.27,2.108,1.932,22.485,1.932,22.485l-29.161,7.729s.527-19.323,3.865-22.485a38.679,38.679,0,0,1,7.149-4.244" transform="translate(-1358.06 -281.628)" fill="#f0f8ff" stroke="#010101" stroke-linecap="round" stroke-linejoin="round" stroke-miterlimit="4.82" stroke-width="1"/>
        <path id="Trazado_997560" data-name="Trazado 997560" d="M1435.7,583.691l-2.017,45.54,10.189-.878,2.876-37.069,5.617,15.033a5.873,5.873,0,0,0,5.739,3.813c6.842-.275,14.476-4.988,20.315-7.073,0-2.92-2.811-7.964-2.811-7.964l-14.522,4.333s-1.785-15.036-3.077-20.447C1450.821,581.768,1435.7,583.691,1435.7,583.691Z" transform="translate(-1403.065 -540.469)" fill="#010101"/>
        <path id="Trazado_997561" data-name="Trazado 997561" d="M1453.807,394.18c-1.038-.557-1.756,1.729-.938,2.056.672.269,1.479-1.12,1.371-1.659C1454.161,394.185,1453.991,394.28,1453.807,394.18Z" transform="translate(-1420.043 -373.799)" fill="none" stroke="#010101" stroke-linecap="round" stroke-linejoin="round" stroke-miterlimit="4.82" stroke-width="1"/>
        <g id="Grupo_1178228" data-name="Grupo 1178228" transform="translate(0 24.472)">
          <g id="Grupo_1178227" data-name="Grupo 1178227" transform="translate(0 27.037)">
            <line id="Línea_3380" data-name="Línea 3380" x1="10.083" y2="3.277" transform="translate(4.451 7.847)" fill="none" stroke="#010101" stroke-linecap="round" stroke-linejoin="round" stroke-miterlimit="4.82" stroke-width="1"/>
            <line id="Línea_3381" data-name="Línea 3381" x1="5.467" y2="8.92" transform="translate(3.705)" fill="none" stroke="#010101" stroke-linecap="round" stroke-linejoin="round" stroke-miterlimit="4.82" stroke-width="1"/>
            <line id="Línea_3382" data-name="Línea 3382" x1="6.213" y2="3.507" transform="translate(8.443 4.388)" fill="none" stroke="#010101" stroke-linecap="round" stroke-linejoin="round" stroke-miterlimit="4.82" stroke-width="1"/>
            <path id="Trazado_997562" data-name="Trazado 997562" d="M1123.372,808.191l2.734-1.987a1.023,1.023,0,0,1,1.433.221h0a1.031,1.031,0,0,1-.237,1.435l-2.734,1.987a1.023,1.023,0,0,1-1.433-.221h0A1.031,1.031,0,0,1,1123.372,808.191Z" transform="translate(-1122.943 -796.635)" fill="#010101"/>
            <line id="Línea_3383" data-name="Línea 3383" x1="3.411" y2="4.068" transform="translate(7.299 1.635)" fill="none" stroke="#010101" stroke-linecap="round" stroke-linejoin="round" stroke-miterlimit="4.82" stroke-width="1"/>
          </g>
          <path id="Trazado_997563" data-name="Trazado 997563" d="M1268.931,439.031c1.507,2.261,1.362,5-.324,6.125a2.8,2.8,0,0,1-.385.215l.02.029-38.224,25.476c1.684-1.123,1.831-3.865.324-6.125s-4.095-3.182-5.779-2.06l38.224-25.476.02.029a2.8,2.8,0,0,1,.346-.273C1264.838,435.848,1267.424,436.771,1268.931,439.031Z" transform="translate(-1214.55 -436.493)" fill="#0c8ff2"/>
        </g>
        <path id="Trazado_997564" data-name="Trazado 997564" d="M1482.3,513.412c-.8.172-6.038.408-5.715,1.963.4.832,3.148-.536,2.988-.1-.065.2-1.183.586-1.365.632-2.5.864-3.627,1.636-3.512,2.015s1.5.363,4.012-.373c.129-.038.594-.1.659-.183-1.083.6-3.689,1.231-3.97,2.733.261,1.259,3.787-.989,4.53-1.272-.755.288-4.536,2.1-3.74,3.128.768.362,2.542-.775,3.19-1.1a11.166,11.166,0,0,1,1.193-.575c-.455.179-2.182,1.774-1.274,1.819a70.864,70.864,0,0,0,6.692-2.787Z" transform="translate(-1440.036 -481.362)" fill="#f0f8ff" stroke="#010101" stroke-miterlimit="10" stroke-width="1"/>
        <path id="Trazado_997565" data-name="Trazado 997565" d="M1549.189,305.409l4.157,8.256-10.54,4.45s-.586,6.558,3.865,8.081c4.567.176,16.337-5.5,17.215-7.261s-5.036-19.5-8.373-20.553S1549.189,305.409,1549.189,305.409Z" transform="translate(-1501.416 -287.433)" fill="#f0f8ff"/>
        <path id="Trazado_997566" data-name="Trazado 997566" d="M1663.5,374.574c-1.132.582-1.4,2.4-.18,1.876C1664.331,376.018,1665.621,373.487,1663.5,374.574Z" transform="translate(-1609.359 -355.96)" fill="none" stroke="#010101" stroke-linecap="round" stroke-linejoin="round" stroke-miterlimit="4.82" stroke-width="1"/>
        <path id="Trazado_997567" data-name="Trazado 997567" d="M1664.821,490.612c-.373.548-.9,2.206.216,2.02.6-.1,1.669-1.476,1.3-2.092C1665.81,489.662,1665.186,490.074,1664.821,490.612Z" transform="translate(-1611.021 -460.283)" fill="none" stroke="#010101" stroke-linecap="round" stroke-linejoin="round" stroke-miterlimit="4.82" stroke-width="1"/>
        <path id="Trazado_997568" data-name="Trazado 997568" d="M1590.625,499.716c-2.265.336-1.436,2.436-.107,2.056S1592.628,499.419,1590.625,499.716Z" transform="translate(-1543.271 -468.988)" fill="none" stroke="#010101" stroke-linecap="round" stroke-linejoin="round" stroke-miterlimit="4.82" stroke-width="1"/>
        <path id="Trazado_997569" data-name="Trazado 997569" d="M1549.189,302.526l4.157,8.256-10.54,4.45s-.586,6.558,3.865,8.081c4.567.176,16.337-5.5,17.215-7.261s-3.4-18.386-9.544-20.963" transform="translate(-1501.416 -284.549)" fill="none" stroke="#010101" stroke-linecap="round" stroke-linejoin="round" stroke-miterlimit="4.82" stroke-width="1"/>
        <path id="Trazado_997570" data-name="Trazado 997570" d="M1719.966,469.422s-1.991-4.275,2.811-6.734" transform="translate(-1660.775 -435.635)" fill="none" stroke="#010101" stroke-linecap="round" stroke-linejoin="round" stroke-miterlimit="4.82" stroke-width="1"/>
        <ellipse id="Elipse_13686" data-name="Elipse 13686" cx="1.568" cy="1.676" rx="1.568" ry="1.676" transform="translate(29.301 3.406)" fill="#010101"/>
        <ellipse id="Elipse_13687" data-name="Elipse 13687" cx="2.175" cy="2.325" rx="2.175" ry="2.325" transform="translate(39.791 4.596)" fill="#010101"/>
        <ellipse id="Elipse_13688" data-name="Elipse 13688" cx="2.175" cy="2.325" rx="2.175" ry="2.325" transform="translate(38.493 6.732)" fill="#010101"/>
        <circle id="Elipse_13689" data-name="Elipse 13689" cx="4.644" cy="4.644" r="4.644" transform="matrix(0.41, -0.912, 0.912, 0.41, 29.874, 9.466)" fill="#f0f8ff" stroke="#010101" stroke-miterlimit="10" stroke-width="1"/>
        <path id="Trazado_997571" data-name="Trazado 997571" d="M1483.252,253.921c.077.261,0,.514-.171.565s-.374-.12-.451-.381,0-.514.171-.565S1483.174,253.659,1483.252,253.921Z" transform="translate(-1447.164 -247.085)" fill="#010101"/>
        <path id="Trazado_997572" data-name="Trazado 997572" d="M1457.982,261.38c.077.261,0,.514-.171.565s-.374-.12-.451-.381,0-.514.171-.565S1457.9,261.119,1457.982,261.38Z" transform="translate(-1424.384 -253.81)" fill="#010101"/>
        <path id="Trazado_997573" data-name="Trazado 997573" d="M1469.09,282.293s1.8.146,2.28-.8" transform="translate(-1434.985 -272.293)" fill="none" stroke="#010101" stroke-linecap="round" stroke-linejoin="round" stroke-miterlimit="4.82" stroke-width="1"/>
        <path id="Trazado_997574" data-name="Trazado 997574" d="M1469.31,262.574s-.223,1.25-.1,1.318.77-.185.77-.185" transform="translate(-1435.062 -255.238)" fill="none" stroke="#010101" stroke-linecap="round" stroke-linejoin="round" stroke-miterlimit="4.82" stroke-width="1"/>
        <ellipse id="Elipse_13690" data-name="Elipse 13690" cx="2.19" cy="2.341" rx="2.19" ry="2.341" transform="translate(29.463 0.725)" fill="#010101"/>
        <ellipse id="Elipse_13691" data-name="Elipse 13691" cx="2.163" cy="2.109" rx="2.163" ry="2.109" transform="translate(32.761 0.162)" fill="#010101"/>
        <ellipse id="Elipse_13692" data-name="Elipse 13692" cx="2.163" cy="2.109" rx="2.163" ry="2.109" transform="translate(37.958 1.864)" fill="#010101"/>
        <ellipse id="Elipse_13693" data-name="Elipse 13693" cx="2.163" cy="2.109" rx="2.163" ry="2.109" transform="translate(39.149 4.892)" fill="#010101"/>
        <ellipse id="Elipse_13694" data-name="Elipse 13694" cx="1.212" cy="1.182" rx="1.212" ry="1.182" transform="translate(39.446 7.232)" fill="#010101"/>
        <ellipse id="Elipse_13695" data-name="Elipse 13695" cx="2.163" cy="2.109" rx="2.163" ry="2.109" transform="translate(35.682 0)" fill="#010101"/>
        <path id="Trazado_997575" data-name="Trazado 997575" d="M1512.885,248.343a1.2,1.2,0,0,1-1.189.892,1.122,1.122,0,0,1-1.109-1.135,1.879,1.879,0,0,1,1.46-1.541C1512.659,246.559,1513.345,247.235,1512.885,248.343Z" transform="translate(-1472.394 -240.801)" fill="#f0f8ff"/>
        <path id="Trazado_997576" data-name="Trazado 997576" d="M1521.57,255.466s.676-.433.676.243" transform="translate(-1482.295 -248.707)" fill="none" stroke="#010101" stroke-linecap="round" stroke-linejoin="round" stroke-miterlimit="4.82" stroke-width="1"/>
        <line id="Línea_3384" data-name="Línea 3384" x1="1.573" y1="3.497" transform="translate(42.161 47.593)" fill="none" stroke="#f0f8ff" stroke-linecap="round" stroke-linejoin="round" stroke-miterlimit="4.82" stroke-width="1"/>
        <path id="Trazado_997577" data-name="Trazado 997577" d="M1435.47,745.008l7.553-1.142,3.25-33.728" transform="translate(-1404.678 -658.705)" fill="none" stroke="#f0f8ff" stroke-linecap="round" stroke-linejoin="round" stroke-miterlimit="4.82" stroke-width="1"/>
        <path id="Trazado_997578" data-name="Trazado 997578" d="M1664.58,613.859l3.371,17.927a1.084,1.084,0,0,0,1.408.828l13.05-4.35s2.547,4.216,2.2,6.587" transform="translate(-1611.215 -571.912)" fill="none" stroke="#f0f8ff" stroke-linecap="round" stroke-linejoin="round" stroke-miterlimit="4.82" stroke-width="1"/>
        <circle id="Elipse_13696" data-name="Elipse 13696" cx="1.522" cy="1.522" r="1.522" transform="translate(28.976 31.503)" fill="none" stroke="#010101" stroke-linecap="round" stroke-linejoin="round" stroke-miterlimit="4.82" stroke-width="1"/>
        <circle id="Elipse_13697" data-name="Elipse 13697" cx="0.703" cy="0.703" r="0.703" transform="translate(30.967 25.647)" fill="none" stroke="#010101" stroke-linecap="round" stroke-linejoin="round" stroke-miterlimit="4.82" stroke-width="1"/>
        <ellipse id="Elipse_13698" data-name="Elipse 13698" cx="0.878" cy="0.82" rx="0.878" ry="0.82" transform="translate(40.805 23.422)" fill="none" stroke="#010101" stroke-linecap="round" stroke-linejoin="round" stroke-miterlimit="4.82" stroke-width="1"/>
        <path id="Trazado_997579" data-name="Trazado 997579" d="M1523.736,366.313c.246.527-.291,1.3-1.2,1.723s-1.844.341-2.091-.187.291-1.3,1.2-1.723S1523.49,365.786,1523.736,366.313Z" transform="translate(-1481.228 -348.344)" fill="none" stroke="#010101" stroke-linecap="round" stroke-linejoin="round" stroke-miterlimit="4.82" stroke-width="1"/>
        <ellipse id="Elipse_13699" data-name="Elipse 13699" cx="1.405" cy="1.025" rx="1.405" ry="1.025" transform="translate(47.129 34.489)" fill="none" stroke="#010101" stroke-linecap="round" stroke-linejoin="round" stroke-miterlimit="4.82" stroke-width="1"/>
        <ellipse id="Elipse_13700" data-name="Elipse 13700" cx="1.025" cy="1.113" rx="1.025" ry="1.113" transform="translate(49.529 12.238)" fill="none" stroke="#010101" stroke-linecap="round" stroke-linejoin="round" stroke-miterlimit="4.82" stroke-width="1"/>
        <path id="Trazado_997580" data-name="Trazado 997580" d="M1681.56,339.208a.624.624,0,1,1-.615-.732A.681.681,0,0,1,1681.56,339.208Z" transform="translate(-1625.413 -323.661)" fill="none" stroke="#010101" stroke-linecap="round" stroke-linejoin="round" stroke-miterlimit="4.82" stroke-width="1"/>
        <ellipse id="Elipse_13701" data-name="Elipse 13701" cx="0.644" cy="0.673" rx="0.644" ry="0.673" transform="translate(52.867 23.188)" fill="none" stroke="#010101" stroke-linecap="round" stroke-linejoin="round" stroke-miterlimit="4.82" stroke-width="1"/>
        <ellipse id="Elipse_13702" data-name="Elipse 13702" cx="1.083" cy="1.288" rx="1.083" ry="1.288" transform="translate(56.731 23.598)" fill="none" stroke="#010101" stroke-linecap="round" stroke-linejoin="round" stroke-miterlimit="4.82" stroke-width="1"/>
        <ellipse id="Elipse_13703" data-name="Elipse 13703" cx="1.083" cy="0.995" rx="1.083" ry="0.995" transform="translate(37.233 28.575)" fill="none" stroke="#010101" stroke-linecap="round" stroke-linejoin="round" stroke-miterlimit="4.82" stroke-width="1"/>
        <line id="Línea_3385" data-name="Línea 3385" x2="0.088" y2="5.797" transform="translate(34.744 27.931)" fill="none" stroke="#010101" stroke-linecap="round" stroke-linejoin="round" stroke-miterlimit="4.82" stroke-width="1"/>
        <line id="Línea_3386" data-name="Línea 3386" y1="8.169" x2="12.648" transform="translate(18.934 39.789)" fill="none" stroke="#010101" stroke-linecap="round" stroke-linejoin="round" stroke-miterlimit="4.82" stroke-width="1"/>
        <line id="Línea_3387" data-name="Línea 3387" y1="2.899" x2="4.743" transform="translate(32.109 41.633)" fill="none" stroke="#010101" stroke-linecap="round" stroke-linejoin="round" stroke-miterlimit="4.82" stroke-width="1"/>
        <path id="Trazado_997581" data-name="Trazado 997581" d="M1387.659,673.83a20.133,20.133,0,0,1-.006-2.254.824.824,0,0,1,.747-.762c.843-.055.228,1.325.481,2.011.442-.5-.128-3.274,1.229-2.691.141.4-.17,1.448.4,1.631.259-3.593,1.75-2.209,1.291.517-.538,1.334-2.472,3.124-3.811,2.175A.808.808,0,0,1,1387.659,673.83Z" transform="translate(-1361.545 -622.162)" fill="#f0f8ff" stroke="#010101" stroke-miterlimit="10" stroke-width="1"/>
        <path id="Trazado_997582" data-name="Trazado 997582" d="M1689.64,804.4c0-.078,1.424-1.424,1.424-1.424l.466,1.683" transform="translate(-1633.806 -742.397)" fill="none" stroke="#010101" stroke-linecap="round" stroke-linejoin="round" stroke-miterlimit="4.82" stroke-width="1"/>
        <path id="Trazado_997583" data-name="Trazado 997583" d="M1551.978,552.276l.35,2.448s-12.063,3.671-14.773,3.671" transform="translate(-1496.704 -516.397)" fill="none" stroke="#010101" stroke-linecap="round" stroke-linejoin="round" stroke-miterlimit="4.82" stroke-width="1"/>
        <line id="Línea_3388" data-name="Línea 3388" x2="0.934" y2="2.08" transform="translate(35.776 11.945)" fill="none" stroke="#010101" stroke-linecap="round" stroke-linejoin="round" stroke-miterlimit="4.82" stroke-width="1"/>
        <line id="Línea_3389" data-name="Línea 3389" x2="1.02" y2="2.095" transform="translate(39.275 10.442)" fill="none" stroke="#010101" stroke-linecap="round" stroke-linejoin="round" stroke-miterlimit="4.82" stroke-width="1"/>
        <path id="Trazado_997584" data-name="Trazado 997584" d="M1482.95,312.024s3.635,3.743,6.5-2.67" transform="translate(-1447.48 -297.409)" fill="none" stroke="#010101" stroke-linecap="round" stroke-linejoin="round" stroke-miterlimit="4.82" stroke-width="1"/>
      </g>
      <g id="Grupo_1178239" data-name="Grupo 1178239" transform="translate(-388.522 2729.176)">
        <path id="Trazado_997619" data-name="Trazado 997619" d="M435.942,403.732a37.528,37.528,0,0,1,16.792-3.469c.3.016,3.06,1.49,4.1,5.564,1.593,6.232,5.04,20.182,5.04,20.182a64.511,64.511,0,0,0-22.046,4.449c-1.187-5.8-2.642-14.826-3.511-19.13C435.421,406.886,436.269,402.758,435.942,403.732Z" transform="translate(-408.889 -370.652)" fill="#010101"/>
        <path id="Trazado_997620" data-name="Trazado 997620" d="M438.965,1118.777a45.8,45.8,0,0,0-.872,4.7,1.606,1.606,0,0,0,1.307,1.841c2.534.356,8.709.615,11.1.079.711-.159,1.074-.485,1.186-.948.172-.709-1.835-.893-2.516-.971-1.535-.177-2.208-.382-2.437-1.079-.209-.636.091-2.258.3-4.066Z" transform="translate(-410.859 -1018.007)" fill="#010101"/>
        <path id="Trazado_997621" data-name="Trazado 997621" d="M781.415,1069.523a45.814,45.814,0,0,0,.742,4.721,1.605,1.605,0,0,0,1.845,1.3c2.508-.507,8.417-2.32,10.494-3.621a1.352,1.352,0,0,0,.8-1.288c-.074-.726-2.027-.231-2.7-.078-1.506.344-2.209.375-2.657-.206-.409-.53-.666-2.16-1.067-3.935Z" transform="translate(-720.363 -971.206)" fill="#010101"/>
        <line id="Línea_3406" data-name="Línea 3406" x2="19.483" y2="42.367" transform="translate(51.888 52.89)" fill="none" stroke="#010101" stroke-linecap="round" stroke-linejoin="round" stroke-miterlimit="4.82" stroke-width="1"/>
        <path id="Trazado_997622" data-name="Trazado 997622" d="M444.848,676.276l-4.361,44.443c2.858-1.1,10.638-1.247,11.5-.563.988.787.816,2.294-2.8,2.284" transform="translate(-413.032 -619.505)" fill="none" stroke="#010101" stroke-linecap="round" stroke-linejoin="round" stroke-miterlimit="4.82" stroke-width="1"/>
        <path id="Trazado_997623" data-name="Trazado 997623" d="M562.614,753.13l3.261-40.447,1.161-.238c.025-.839,14.965,37.7,16.22,39.033,10.949-6.5,13.784-3.865,9.951-2.136" transform="translate(-523.126 -652.098)" fill="none" stroke="#010101" stroke-linecap="round" stroke-linejoin="round" stroke-miterlimit="4.82" stroke-width="1"/>
        <path id="Trazado_997624" data-name="Trazado 997624" d="M587.735,661.2l.524,3.925,1.219-.145" transform="translate(-545.772 -605.912)" fill="none" stroke="#010101" stroke-linecap="round" stroke-linejoin="round" stroke-miterlimit="4.82" stroke-width="1"/>
        <path id="Trazado_997625" data-name="Trazado 997625" d="M477.78,1082.943s5.259-1.239,8.7.487" transform="translate(-446.65 -985.717)" fill="none" stroke="#010101" stroke-linecap="round" stroke-linejoin="round" stroke-miterlimit="4.82" stroke-width="1"/>
        <line id="Línea_3407" data-name="Línea 3407" x2="8.721" y2="19.5" transform="translate(56.841 70.499)" fill="none" stroke="#010101" stroke-linecap="round" stroke-linejoin="round" stroke-miterlimit="4.82" stroke-width="1"/>
        <line id="Línea_3408" data-name="Línea 3408" y1="23.826" x2="1.922" transform="translate(38.099 68.429)" fill="none" stroke="#010101" stroke-linecap="round" stroke-linejoin="round" stroke-miterlimit="4.82" stroke-width="1"/>
        <path id="Trazado_997626" data-name="Trazado 997626" d="M481.83,692.373s5.061,1.533,4.585-3.345" transform="translate(-450.301 -631.001)" fill="none" stroke="#010101" stroke-linecap="round" stroke-linejoin="round" stroke-miterlimit="4.82" stroke-width="1"/>
        <path id="Trazado_997627" data-name="Trazado 997627" d="M652.142,661.2s.433,3.178,5.583,1.963" transform="translate(-603.833 -605.912)" fill="none" stroke="#010101" stroke-linecap="round" stroke-linejoin="round" stroke-miterlimit="4.82" stroke-width="1"/>
        <line id="Línea_3409" data-name="Línea 3409" x1="2.768" y2="23.123" transform="translate(31.529 65.451)" fill="none" stroke="#010101" stroke-linecap="round" stroke-linejoin="round" stroke-miterlimit="4.82" stroke-width="1"/>
        <line id="Línea_3410" data-name="Línea 3410" x2="7.23" y2="16.985" transform="translate(54.185 76.057)" fill="none" stroke="#010101" stroke-linecap="round" stroke-linejoin="round" stroke-miterlimit="4.82" stroke-width="1"/>
        <g id="Grupo_1178234" data-name="Grupo 1178234" transform="translate(28.436 18.391)">
          <g id="Grupo_1178233" data-name="Grupo 1178233" transform="translate(0 0)">
            <ellipse id="Elipse_13704" data-name="Elipse 13704" cx="4.174" cy="4.55" rx="4.174" ry="4.55" transform="translate(0.585 2.648) rotate(-11.356)" fill="none" stroke="#010101" stroke-linecap="round" stroke-linejoin="round" stroke-miterlimit="4.82" stroke-width="1"/>
            <path id="Trazado_997628" data-name="Trazado 997628" d="M491.635,349.19c.05.248-.042.475-.2.508s-.335-.142-.385-.389.042-.475.2-.508S491.585,348.943,491.635,349.19Z" transform="translate(-487.032 -342.683)" fill="#010101"/>
            <path id="Trazado_997629" data-name="Trazado 997629" d="M517.081,344.08c.05.248-.042.475-.2.508s-.335-.142-.385-.389.042-.475.2-.508S517.031,343.833,517.081,344.08Z" transform="translate(-509.971 -338.076)" fill="#010101"/>
            <path id="Trazado_997630" data-name="Trazado 997630" d="M491.7,367.425c.022.111,2.821.776,3.613-.726" transform="translate(-487.632 -358.821)" fill="none" stroke="#010101" stroke-linecap="round" stroke-linejoin="round" stroke-miterlimit="4.82" stroke-width="1"/>
            <path id="Trazado_997631" data-name="Trazado 997631" d="M506.527,353.054l.557.77s-.39.539-.837.322" transform="translate(-500.749 -346.52)" fill="none" stroke="#010101" stroke-linecap="round" stroke-linejoin="round" stroke-miterlimit="4.82" stroke-width="1"/>
            <path id="Trazado_997632" data-name="Trazado 997632" d="M451.809,353.331s-1.394-.641-1.371.333,1.233,1.939,1.871,1.293" transform="translate(-450.437 -346.583)" fill="none" stroke="#010101" stroke-linecap="round" stroke-linejoin="round" stroke-miterlimit="4.82" stroke-width="1"/>
            <path id="Trazado_997633" data-name="Trazado 997633" d="M547.994,333.167s1.039-1.129,1.394-.222-.389,2.264-1.226,1.915" transform="translate(-538.382 -328.074)" fill="none" stroke="#010101" stroke-linecap="round" stroke-linejoin="round" stroke-miterlimit="4.82" stroke-width="1"/>
            <path id="Trazado_997634" data-name="Trazado 997634" d="M456.455,301.605a1.475,1.475,0,1,1-1.764-1.525A1.676,1.676,0,0,1,456.455,301.605Z" transform="translate(-453.294 -298.746)" fill="#010101"/>
            <ellipse id="Elipse_13705" data-name="Elipse 13705" cx="1.429" cy="1.843" rx="1.429" ry="1.843" transform="translate(6.381 0.563) rotate(-11.356)" fill="#010101"/>
            <ellipse id="Elipse_13706" data-name="Elipse 13706" cx="1.429" cy="1.655" rx="1.429" ry="1.655" transform="translate(1.956 0.684) rotate(-11.356)" fill="#010101"/>
            <path id="Trazado_997635" data-name="Trazado 997635" d="M498.037,289.711a1.433,1.433,0,1,1-1.7-1.23A1.489,1.489,0,0,1,498.037,289.711Z" transform="translate(-490.791 -288.285)" fill="#010101"/>
            <path id="Trazado_997636" data-name="Trazado 997636" d="M456.553,327.335l.211,2.579.558.169s-.056-1.868.308-2.223C457.523,327.672,456.553,327.335,456.553,327.335Z" transform="translate(-455.95 -323.335)" fill="#010101"/>
            <path id="Trazado_997637" data-name="Trazado 997637" d="M537.566,309.611l.8,2.46-.45.372s-.67-1.745-1.142-1.931C536.8,310.3,537.566,309.611,537.566,309.611Z" transform="translate(-528.269 -307.357)" fill="#010101"/>
          </g>
          <line id="Línea_3411" data-name="Línea 3411" x2="0.596" y2="2.689" transform="translate(4.509 10.657)" fill="none" stroke="#010101" stroke-linecap="round" stroke-linejoin="round" stroke-miterlimit="4.82" stroke-width="1"/>
          <line id="Línea_3412" data-name="Línea 3412" x2="0.535" y2="1.797" transform="translate(8.142 9.959)" fill="none" stroke="#010101" stroke-linecap="round" stroke-linejoin="round" stroke-miterlimit="4.82" stroke-width="1"/>
        </g>
        <g id="Grupo_1178236" data-name="Grupo 1178236" transform="translate(0 0)">
          <path id="Trazado_997638" data-name="Trazado 997638" d="M225.21,109.823,167.7,120.436a4.971,4.971,0,1,1-1.8-9.777l57.372-10.588a7.287,7.287,0,0,0-.894,5.01A7.16,7.16,0,0,0,225.21,109.823Z" transform="translate(-161.826 -100.071)" fill="#0c8ff2"/>
          <g id="Grupo_1178235" data-name="Grupo 1178235" transform="translate(62.001 0.104)">
            <line id="Línea_3413" data-name="Línea 3413" x2="11.304" y2="1.043" transform="translate(0.337)" fill="none" stroke="#010101" stroke-linecap="round" stroke-linejoin="round" stroke-miterlimit="4.82" stroke-width="1"/>
            <line id="Línea_3414" data-name="Línea 3414" x1="9.284" y2="5.772" transform="translate(2.096 3.237)" fill="none" stroke="#010101" stroke-linecap="round" stroke-linejoin="round" stroke-miterlimit="4.82" stroke-width="1"/>
            <line id="Línea_3415" data-name="Línea 3415" x2="9.058" y2="0.371" transform="translate(0 1.983)" fill="none" stroke="#010101" stroke-linecap="round" stroke-linejoin="round" stroke-miterlimit="4.82" stroke-width="1"/>
            <path id="Trazado_997639" data-name="Trazado 997639" d="M906.541,106.717l-3.577.527a1.1,1.1,0,0,1-1.254-.932h0a1.1,1.1,0,0,1,.932-1.254l3.577-.527a1.1,1.1,0,0,1,1.254.932h0A1.1,1.1,0,0,1,906.541,106.717Z" transform="translate(-890.803 -104.184)" fill="#010101"/>
            <line id="Línea_3416" data-name="Línea 3416" y1="1.18" x2="3.68" transform="translate(2.336 4.115)" fill="none" stroke="#010101" stroke-linecap="round" stroke-linejoin="round" stroke-miterlimit="4.82" stroke-width="1"/>
          </g>
          <line id="Línea_3417" data-name="Línea 3417" y1="7.02" x2="35.324" transform="translate(17.007 3.463)" fill="none" stroke="#010101" stroke-linecap="round" stroke-linejoin="round" stroke-miterlimit="4.82" stroke-width="1"/>
          <line id="Línea_3418" data-name="Línea 3418" y1="2.927" x2="12.789" transform="translate(32.348 8.674)" fill="none" stroke="#010101" stroke-linecap="round" stroke-linejoin="round" stroke-miterlimit="4.82" stroke-width="1"/>
        </g>
        <g id="Grupo_1178237" data-name="Grupo 1178237" transform="translate(41.132 8.036)">
          <path id="Trazado_997640" data-name="Trazado 997640" d="M690.924,191.277c-1.134-.465-2.982-4.63-2.8-5.863.051-.356.663-.36.663-.36l.934,1.911c.282-1.14-.862-2.73-.5-3.749.136-.362.522.223.776.7.52.854.725,1.787.746,1.385.129-.652-.671-4.141.687-2.734.682.687,1.044,3.956.913,1.508-.05-.4-.439-2.317.1-2.434.651-.142,1.358,2.354,1.515,2.88.066.224.312.029.28-.063-1.872-5.3,1.52-.667,1.339,2.429C695.477,189.255,696.524,191.24,690.924,191.277Z" transform="translate(-677.387 -181.631)" fill="#f0f8ff" stroke="#010101" stroke-linecap="round" stroke-linejoin="round" stroke-miterlimit="4.82" stroke-width="1"/>
          <path id="Trazado_997641" data-name="Trazado 997641" d="M579.3,256.365c4.351-.473,9.766-.97,11.916-4.559.943-1.575.59-4.547.167-6.521a22.58,22.58,0,0,0-.381-2.439,15.663,15.663,0,0,0,3.887-.3,13.219,13.219,0,0,0,2.667-2.134c2.751,5.689,3.477,12.168,1.245,16.389-2.38,4.5-8.02,6.6-14.7,7.755C584.049,264.563,579.3,256.365,579.3,256.365Z" transform="translate(-579.302 -234.617)" fill="#010101"/>
        </g>
        <g id="Grupo_1178238" data-name="Grupo 1178238" transform="translate(6.505 16.389)">
          <path id="Trazado_997642" data-name="Trazado 997642" d="M233.9,275.2c.949-.775,1.5-5.3.972-6.426-.153-.325-.739-.151-.739-.151l-.336,2.1c-.6-1.008.028-2.863-.616-3.731-.236-.307-.434.366-.54.892-.248.969-.172,1.92-.309,1.542-.314-.586-.567-4.157-1.455-2.415-.452.856.155,4.088-.433,1.709-.068-.394-.256-2.344-.8-2.3-.665.054-.613,2.648-.609,3.2,0,.233-.29.118-.286.022.244-5.617-1.649-.2-.573,2.714C228.96,274.593,228.538,276.8,233.9,275.2Z" transform="translate(-227.848 -266.417)" fill="#f0f8ff" stroke="#010101" stroke-linecap="round" stroke-linejoin="round" stroke-miterlimit="4.82" stroke-width="1"/>
          <path id="Trazado_997643" data-name="Trazado 997643" d="M250.318,341.821c-4.3.816-8.724,2.129-11.827-.677-1.362-1.231-1.891-4.177-2.062-6.188a22.541,22.541,0,0,1-.347-2.444,15.661,15.661,0,0,1-3.807.842,13.219,13.219,0,0,1-3.174-1.263c-.972,6.244.224,12.653,3.59,16.04,3.59,3.612,11.55,3.7,17.649,3.132C251.941,351.114,250.318,341.821,250.318,341.821Z" transform="translate(-228.683 -325.62)" fill="#010101"/>
        </g>
        <path id="Trazado_997644" data-name="Trazado 997644" d="M475.931,493.7a.711.711,0,0,0-.35-.535l-4.454-2.584a.72.72,0,0,0-.974.244c-1.725,2.795-2.558,4.2-2.963,4.948-1-.573-3.219-1.975-5.215-3.28a.718.718,0,0,0-.973.175c-.488.666-2.337,3.2-3.55,4.948a.71.71,0,0,0-.108.568l0,.019a.713.713,0,0,0,1.28.244c.853-1.229,2.121-2.991,3.131-4.377,5.508,3.593,5.663,3.511,6.093,3.288a.749.749,0,0,0,.369-.462c.172-.395,1.482-2.589,2.79-4.718l3.856,2.239a.713.713,0,0,0,1.066-.7Z" transform="translate(-428.21 -452.015)" fill="#f0f8ff"/>
        <path id="Trazado_997645" data-name="Trazado 997645" d="M493.143,404.065a4,4,0,0,1-2.769,2.7,5.255,5.255,0,0,1-4.049-1.346A17.452,17.452,0,0,1,493.143,404.065Z" transform="translate(-454.354 -374.114)" fill="#f0f8ff"/>
        <path id="Trazado_997646" data-name="Trazado 997646" d="M803.314,107.069c21.88-9.052,17.858,18.178,1.448,11.63-1.2-1.5-.818-4.824.619-6.017,1.5-1.245,3.681-1.248,5.5-1.068,17.211,2.184,6.05,15.164-4.039,18.377-6.391,3.227-18.464,1.618-18.007,12.046.533,12.156,23.529,7.429,26.793-.245-.062-3.669-2.482-4.3-5.62-4.024-7.375,1.347-6.716,8-4.053,13.4,1.8,6.382-2.676,14.891-10.152,13.991" transform="translate(-727.047 -104.7)" fill="none" stroke="#010101" stroke-linejoin="round" stroke-miterlimit="4.82" stroke-width="1"/>
        <line id="Línea_3419" data-name="Línea 3419" x1="1.678" y2="0.196" transform="translate(37.112 29.951)" fill="none" stroke="#010101" stroke-linecap="round" stroke-linejoin="round" stroke-miterlimit="4.82" stroke-width="1"/>
        <line id="Línea_3420" data-name="Línea 3420" y1="0.432" x2="1.377" transform="translate(31.971 30.874)" fill="none" stroke="#010101" stroke-linecap="round" stroke-linejoin="round" stroke-miterlimit="4.82" stroke-width="1"/>
      </g>
    </g>
  </g>
</svg>
