<svg xmlns="http://www.w3.org/2000/svg" width="80" height="80" viewBox="0 0 80 80">
  <g id="Grupo_1178304" data-name="Grupo 1178304" transform="translate(-290 -4367)">
    <rect id="Rectángulo_455138" data-name="Rectángulo 455138" width="80" height="80" rx="10" transform="translate(290 4367)" fill="#e795ff"/>
    <g id="Grupo_1178303" data-name="Grupo 1178303" transform="translate(300.864 4378.259)">
      <path id="Trazado_998131" data-name="Trazado 998131" d="M124.582,214.989l-10.938-29.3a3.368,3.368,0,0,0-6.307-.01l-.223.591H108.8l9.473,26.335v4.741a3.368,3.368,0,0,0,6.311-2.356Z" transform="translate(-94.694 -162.896)" fill="#1ec97f"/>
      <path id="Trazado_998132" data-name="Trazado 998132" d="M33.2,231.628a1.684,1.684,0,0,0,.989-2.167L23.027,199.568a1.684,1.684,0,0,0-3.154,0L9.058,228.274a3.368,3.368,0,1,0,6.3,2.375l1.782-4.729H29.269l1.762,4.72a1.684,1.684,0,0,0,2.167.989ZM19.681,219.184l3.553-9.432,3.521,9.432Z" transform="translate(-7.454 -176.191)" fill="#66d98c"/>
      <path id="Trazado_998133" data-name="Trazado 998133" d="M241.666,7.506A15.6,15.6,0,0,0,230.557,34.07a9.01,9.01,0,0,1-4.5,3.993,8.986,8.986,0,0,0,8.579-1.015,15.606,15.606,0,1,0,7.026-29.542Z" transform="translate(-200.287 -6.663)" fill="#ccfbff"/>
      <path id="Trazado_998134" data-name="Trazado 998134" d="M365.061,37.506V61.98a12.237,12.237,0,0,0,0-24.474Z" transform="translate(-323.682 -33.295)" fill="#1ec97f"/>
      <path id="Trazado_998135" data-name="Trazado 998135" d="M277.167,49.743c0-6.758-3.971-12.237-8.869-12.237a12.237,12.237,0,1,0,0,24.474C273.2,61.98,277.167,56.5,277.167,49.743Z" transform="translate(-226.919 -33.295)" fill="#66d98c"/>
      <path id="Trazado_998136" data-name="Trazado 998136" d="M235.013,0a16.447,16.447,0,0,0-12.16,27.521,8.177,8.177,0,0,1-3.761,3.1.842.842,0,0,0,0,1.561,9.831,9.831,0,0,0,8.964-.825,16.27,16.27,0,0,0,6.957,1.54,16.489,16.489,0,0,0,10.307-3.631.842.842,0,0,0-1.056-1.312,14.771,14.771,0,0,1-15.9,1.681.842.842,0,0,0-.869.066,8.081,8.081,0,0,1-4.722,1.511,8.206,8.206,0,0,1-1.126-.077,9.885,9.885,0,0,0,2.991-3.321.842.842,0,0,0-.138-1A14.763,14.763,0,1,1,246.518,25.7a.842.842,0,1,0,1.312,1.056A16.446,16.446,0,0,0,235.013,0Z" transform="translate(-193.634)"/>
      <path id="Trazado_998137" data-name="Trazado 998137" d="M19.639,178.729a4.21,4.21,0,0,0-7.884-.012L6.83,191.792a.842.842,0,1,0,1.576.594l4.926-13.075a2.526,2.526,0,0,1,4.73.007L29,208.619a2.526,2.526,0,1,1-4.733,1.767l-1.762-4.72a.842.842,0,0,0-.789-.548H9.59a.842.842,0,0,0-.788.545l-1.782,4.729a2.523,2.523,0,0,1-3.254,1.473,2.526,2.526,0,0,1-1.473-3.254l4.926-13.075a.842.842,0,1,0-1.576-.594L.717,208.019a4.212,4.212,0,0,0,3.939,5.7,4.232,4.232,0,0,0,3.94-2.727l1.576-4.184H21.132l1.557,4.172a4.21,4.21,0,0,0,7.888-2.945Z" transform="translate(0 -156.233)"/>
      <path id="Trazado_998138" data-name="Trazado 998138" d="M98.742,302.547h7.074a.842.842,0,0,0,.789-1.136l-3.521-9.432a.842.842,0,0,0-1.577,0l-3.553,9.432a.842.842,0,0,0,.788,1.139Zm3.55-7.876,2.311,6.192H99.96Z" transform="translate(-86.515 -258.713)"/>
      <path id="Trazado_998139" data-name="Trazado 998139" d="M321.617,75.548a.842.842,0,0,0-1.577,0l-4.751,12.611a.842.842,0,1,0,1.576.594l.915-2.429h6.061l.906,2.426a.842.842,0,0,0,1.578-.589Zm-3.2,9.09,2.41-6.4,2.388,6.4Z" transform="translate(-279.449 -66.58)"/>
      <path id="Trazado_998140" data-name="Trazado 998140" d="M261.646,30a13.079,13.079,0,1,0,13.079,13.079A13.094,13.094,0,0,0,261.646,30Zm0,24.474a11.4,11.4,0,1,1,11.4-11.4A11.408,11.408,0,0,1,261.646,54.474Z" transform="translate(-220.267 -26.632)"/>
    </g>
  </g>
</svg>
