<svg xmlns="http://www.w3.org/2000/svg" width="80" height="80" viewBox="0 0 80 80">
  <g id="Grupo_1178305" data-name="Grupo 1178305" transform="translate(-554 -4441)">
    <rect id="Rectángulo_455139" data-name="Rectángulo 455139" width="80" height="80" rx="10" transform="translate(554 4441)" fill="#e795ff"/>
    <g id="Grupo_1178304" data-name="Grupo 1178304" transform="translate(565.375 4431.502)">
      <path id="Trazado_998141" data-name="Trazado 998141" d="M70.959,179.586l-6.721-18a1.677,1.677,0,0,0-3.141,0l-1.01,2.681,2.572,2.687,2.727,7.3-2.1,1.677,3.355,1.677,1.178,3.155a1.677,1.677,0,0,0,3.143-1.173Z" transform="translate(-53.368 -121.673)" fill="#ffd761"/>
      <path id="Trazado_998142" data-name="Trazado 998142" d="M18.677,199.86H13.2l2.752-7.3-1-2.684a.839.839,0,0,0-1.57,0L7.605,205.192a1.677,1.677,0,1,0,3.139,1.183l1.19-3.16h7.994Z" transform="translate(-6.659 -147.284)" fill="#ffec6e"/>
      <path id="Trazado_998143" data-name="Trazado 998143" d="M302.055,287.069v21.685a10.908,10.908,0,0,0,10.078-6.734l3.822-9.226a17.645,17.645,0,0,1,3.825-5.725Z" transform="translate(-268.28 -234.097)" fill="#d97c5b"/>
      <path id="Trazado_998144" data-name="Trazado 998144" d="M220.888,31a16.739,16.739,0,0,0-16.764,16.773V70.41a10.908,10.908,0,0,0,10.908,10.908c3.194,0,6.074-2.658,7.3-6.734l1.209-4.03a10.063,10.063,0,0,1,2.523-4.225l6.7-6.7A16.773,16.773,0,0,0,220.888,31Z" transform="translate(-181.299 -6.661)" fill="#ec8e6b"/>
      <path id="Trazado_998145" data-name="Trazado 998145" d="M377.441,146.971l-6.047,16.664,4.544-3.037a11.719,11.719,0,0,0,5.308-9.822Z" transform="translate(-329.866 -109.665)" fill="#c56a4b"/>
      <path id="Trazado_998146" data-name="Trazado 998146" d="M270.129,87.741a16.041,16.041,0,0,0-.45-3.805L261.742,76A11.742,11.742,0,0,0,250.09,86.3a3.342,3.342,0,0,0-.026.42c0,1.543.2,3.362.2,3.362l8.766,5.242v8.662l1.509.375c.1-.206.191-.408.283-.606a8.354,8.354,0,0,1,2.806-3.154,15.49,15.49,0,0,0,6.5-12.859Z" transform="translate(-222.103 -46.63)" fill="#d97c5b"/>
      <path id="Trazado_998147" data-name="Trazado 998147" d="M261.419,237.033l-9.273-3.413a4.789,4.789,0,0,1-2.62,8.754l0,3.355,5.379,6.341Z" transform="translate(-221.623 -186.625)" fill="#b05638"/>
      <path id="Trazado_998148" data-name="Trazado 998148" d="M252.92,171.882h5.51a4.976,4.976,0,0,1,3.6,1.517,5.007,5.007,0,0,1,1.046,5.44l-3.035,7.326-2.462,5.944a4.2,4.2,0,0,1-8.077-1.608v-2.967a5.816,5.816,0,0,0,5.49-10.2l-4-2.666a3.353,3.353,0,0,1-1.494-2.791v-2.339a11.8,11.8,0,0,1,.088-1.442,3.359,3.359,0,0,0,3.328,3.782Z" transform="translate(-221.605 -128.431)" fill="#c56a4b"/>
      <path id="Trazado_998149" data-name="Trazado 998149" d="M354.5,76l8.379,11.251a11.74,11.74,0,0,0,3.362.489A11.741,11.741,0,0,0,354.5,76Z" transform="translate(-314.864 -46.63)" fill="#b05638"/>
      <path id="Trazado_998150" data-name="Trazado 998150" d="M354.5,76a11.745,11.745,0,0,0,8.379,11.251C362.7,80.994,359.018,76,354.5,76Z" transform="translate(-314.864 -46.63)" fill="#c56a4b"/>
      <path id="Trazado_998151" data-name="Trazado 998151" d="M145.181,76a1.677,1.677,0,0,0-1.677,1.677v6.093a1.677,1.677,0,1,0,3.355,0V77.678A1.677,1.677,0,0,0,145.181,76Z" transform="translate(-127.458 -46.631)" fill="#636d7a"/>
      <circle id="Elipse_13709" data-name="Elipse 13709" cx="1.677" cy="1.677" r="1.677" transform="translate(16.046 42.173)" fill="#636d7a"/>
      <path id="Trazado_998152" data-name="Trazado 998152" d="M242.844,94.88a.839.839,0,0,0-.839.838l0,6.321a5.037,5.037,0,0,0,9.69,1.929l2.463-5.945a7.524,7.524,0,0,1,2.78-3.387l4.539-3.033A12.58,12.58,0,1,0,242,81.081v2.339a4.185,4.185,0,0,0,1.867,3.489l1.131.754a3.977,3.977,0,0,1,1.73,3.283A3.915,3.915,0,0,1,242.844,94.88Zm22.6-14.674a10.92,10.92,0,0,1-9.994-9.993A10.92,10.92,0,0,1,265.448,80.207Zm-11.675-10a12.6,12.6,0,0,0,11.68,11.68,10.885,10.885,0,0,1-4.9,8.317l-4.361,2.914,1-2.422a5.87,5.87,0,0,0-5.424-8.117h-5.51a2.477,2.477,0,0,1-1.879-.847,2.54,2.54,0,0,1-.618-1.979,10.921,10.921,0,0,1,10.013-9.547Zm-8.974,15.3a2.511,2.511,0,0,1-1.121-2.093v-.051a4.189,4.189,0,0,0,2.578.89h5.51a4.193,4.193,0,0,1,3.874,5.8l-3.035,7.326-2.463,5.945a3.359,3.359,0,0,1-6.463-1.287v-1.826A6.654,6.654,0,0,0,248.8,88.178l-2.868-1.912Zm3.608,5.432a5.593,5.593,0,0,0-.1-1.038,4.977,4.977,0,0,1-4.628,8.577v-1.99A5.606,5.606,0,0,0,248.407,90.945Z" transform="translate(-214.941 -39.969)"/>
      <path id="Trazado_998153" data-name="Trazado 998153" d="M214.612,23.5a17.642,17.642,0,0,0-11.164,3.991.839.839,0,0,0,1.064,1.3,15.934,15.934,0,0,1,21.367,23.591,18.4,18.4,0,0,0-4.007,6L218.051,67.6a10.069,10.069,0,0,1-19.372-3.853V51.175a.839.839,0,0,0-1.677,0V63.749a11.747,11.747,0,0,0,22.6,4.5l3.822-9.226a16.729,16.729,0,0,1,3.643-5.453A17.611,17.611,0,0,0,214.612,23.5Z" transform="translate(-174.973 0)"/>
      <path id="Trazado_998154" data-name="Trazado 998154" d="M197.84,97.714a.839.839,0,0,0,.839-.839V90.166A15.964,15.964,0,0,1,202.261,80.1a.839.839,0,1,0-1.3-1.061A17.646,17.646,0,0,0,197,90.166v6.709A.839.839,0,0,0,197.84,97.714Z" transform="translate(-174.973 -49.055)"/>
      <path id="Trazado_998155" data-name="Trazado 998155" d="M11.655,154.626a2.516,2.516,0,0,0-4.711-.007l-6.783,18A2.516,2.516,0,1,0,4.87,174.4l.986-2.617h6.832l.974,2.61a2.516,2.516,0,1,0,4.714-1.76Zm5.127,19.232a.838.838,0,0,1-1.549-.055l-1.178-3.155a.839.839,0,0,0-.786-.545H5.276a.839.839,0,0,0-.785.543l-1.19,3.16a.839.839,0,1,1-1.57-.591l6.783-18a.839.839,0,0,1,1.57,0l6.721,18a.833.833,0,0,1-.023.641Z" transform="translate(0 -115.011)"/>
      <path id="Trazado_998156" data-name="Trazado 998156" d="M55.361,211.255a.839.839,0,0,0-1.57,0l-2.752,7.3a.839.839,0,0,0,.785,1.134H57.3a.839.839,0,0,0,.786-1.132Zm-2.325,6.759,1.536-4.077,1.522,4.077Z" transform="translate(-45.284 -166.277)"/>
      <path id="Trazado_998157" data-name="Trazado 998157" d="M138.517,68.5A2.519,2.519,0,0,0,136,71.016v6.093a2.516,2.516,0,1,0,5.032,0V71.016A2.519,2.519,0,0,0,138.517,68.5Zm.839,8.609a.839.839,0,1,1-1.677,0V71.016a.839.839,0,1,1,1.677,0Z" transform="translate(-120.794 -39.968)"/>
      <path id="Trazado_998158" data-name="Trazado 998158" d="M138.517,182.991a2.516,2.516,0,1,0,2.516,2.516A2.519,2.519,0,0,0,138.517,182.991Zm0,3.355a.839.839,0,1,1,.839-.839A.84.84,0,0,1,138.517,186.346Z" transform="translate(-120.794 -141.657)"/>
    </g>
  </g>
</svg>
