<svg xmlns="http://www.w3.org/2000/svg" width="128" height="128" viewBox="0 0 128 128">
  <g id="Grupo_1178334" data-name="Grupo 1178334" transform="translate(-72.746 -7992)">
    <g id="Elipse_13628" data-name="Elipse 13628" transform="translate(72.746 7992)" fill="#fff7e2" stroke="#cff878" stroke-width="6">
      <circle cx="64" cy="64" r="64" stroke="none"/>
      <circle cx="64" cy="64" r="61" fill="none"/>
    </g>
    <g id="Grupo_1178339" data-name="Grupo 1178339" transform="translate(105.447 8023.109)">
      <path id="Trazado_998216" data-name="Trazado 998216" d="M388.244,272H384v28.646h10.61V272Zm0,0" transform="translate(-333.073 -235.927)" fill="#cf9e76"/>
      <path id="Trazado_998217" data-name="Trazado 998217" d="M368.128,122.61a20.513,20.513,0,0,1,2.567-7.9,5.366,5.366,0,0,1,1.973-1.984c.085-.042,2.069-.69,2.069-.69l.626-.032a5.375,5.375,0,0,1,5.369,5.369V133.22H368v-6.366Zm0,0" transform="translate(-319.195 -97.146)" fill="#fcd770"/>
      <path id="Trazado_998218" data-name="Trazado 998218" d="M320.35,112.833a2.077,2.077,0,0,1,.626,1.5v10.61a2.128,2.128,0,0,1-2.122,2.122H306.122A2.128,2.128,0,0,1,304,124.939a2.137,2.137,0,0,1,2.122-2.122h10.61v-8.488a2.093,2.093,0,0,1,.668-1.539,8.368,8.368,0,0,1,1.825-.552,2.046,2.046,0,0,1,1.125.594Zm0,0" transform="translate(-263.683 -97.353)" fill="#f0d0b4"/>
      <path id="Trazado_998219" data-name="Trazado 998219" d="M386.61,13.3v3.183a5.3,5.3,0,0,1-10.61,0V13.3a5.3,5.3,0,1,1,10.61,0Zm0,0" transform="translate(-326.134 -6.939)" fill="#f0d0b4"/>
      <path id="Trazado_998220" data-name="Trazado 998220" d="M216,8h16.976v8.488H226.61v3.183l-5.3-3.183H216Zm0,0" transform="translate(-187.354 -6.939)" fill="#e6e9ed"/>
      <path id="Trazado_998221" data-name="Trazado 998221" d="M176,136h12.732v8.488h-3.183l-3.183,2.122v-2.122H176Zm0,0" transform="translate(-152.659 -117.963)" fill="#e6e9ed"/>
      <path id="Trazado_998222" data-name="Trazado 998222" d="M188.159,328v21.22H168V328Zm0,0" transform="translate(-145.719 -284.5)" fill="#ccd1d9"/>
      <path id="Trazado_998223" data-name="Trazado 998223" d="M190.281,296v4.244H168V296Zm0,0" transform="translate(-145.719 -256.744)" fill="#969faa"/>
      <path id="Trazado_998224" data-name="Trazado 998224" d="M37.3,375.167h3.183l-1.464,4.1-1.57,4.393-1.835,5.156a1.844,1.844,0,0,1-1.719,1.21h-.074A1.825,1.825,0,0,1,32,388.2a1.7,1.7,0,0,1,.1-.572l4.149-12.456.032-.127a4.142,4.142,0,0,0,1.029.127Zm0,0" transform="translate(-27.756 -325.3)" fill="#d3a06c"/>
      <path id="Trazado_998225" data-name="Trazado 998225" d="M85.7,407.028v4.244H73.121l1.57-4.393.4.149Zm0,0" transform="translate(-63.424 -352.918)" fill="#cf9e76"/>
      <path id="Trazado_998226" data-name="Trazado 998226" d="M29.219,246.854V251.1H16.488a4.142,4.142,0,0,1-1.029-.127,4.245,4.245,0,0,1-3.215-4.116v-10.61H10.122A2.137,2.137,0,0,1,8,234.122,2.128,2.128,0,0,1,10.122,232h6.366l.329.064a19.617,19.617,0,0,0-.329,3.618v10.111a1.064,1.064,0,0,0,1.061,1.061Zm0,0" transform="translate(-6.939 -201.231)" fill="#969faa"/>
      <path id="Trazado_998227" data-name="Trazado 998227" d="M84.732,213.367v2.122H73.061A1.064,1.064,0,0,1,72,214.428V204.317a19.913,19.913,0,0,1,1.888-8.477,5.309,5.309,0,0,0,2.356.552,4.006,4.006,0,0,0,.626-.042l.011.085a3.424,3.424,0,0,0-1.072.583,2.077,2.077,0,0,0-.626,1.5V207a2.128,2.128,0,0,0,2.122,2.122h7.427Zm0,0" transform="translate(-62.451 -169.867)" fill="#ff826e"/>
      <path id="Trazado_998228" data-name="Trazado 998228" d="M96,202.122a2.077,2.077,0,0,1,.626-1.5,3.424,3.424,0,0,1,1.072-.583,1.84,1.84,0,0,1,.424-.042,2.128,2.128,0,0,1,2.122,2.122v6.366h10.61a2.137,2.137,0,0,1,2.122,2.122,2.128,2.128,0,0,1-2.122,2.122H98.122A2.128,2.128,0,0,1,96,210.61Zm0,0" transform="translate(-83.268 -173.475)" fill="#f0d0b4"/>
      <path id="Trazado_998229" data-name="Trazado 998229" d="M66.949,109.241A5.306,5.306,0,0,1,64,104.488v-3.183a5.3,5.3,0,1,1,10.61,0v3.183a5.3,5.3,0,0,1-4.679,5.262,4.006,4.006,0,0,1-.626.042,5.309,5.309,0,0,1-2.356-.552Zm0,0" transform="translate(-55.512 -83.268)" fill="#f0d0b4"/>
      <path id="Trazado_998230" data-name="Trazado 998230" d="M30.768,113.463a3.187,3.187,0,0,0-3.183-3.183H18.037v-5.3a3.158,3.158,0,0,0-.8-2.084,6.361,6.361,0,0,0,2.918-5.343V94.366a6.366,6.366,0,1,0-12.732,0v3.183a6.358,6.358,0,0,0,2.665,5.17,21.326,21.326,0,0,0-1.059,3.318H3.183a3.183,3.183,0,1,0,0,6.366H4.244v9.549a5.293,5.293,0,0,0,2.962,4.735L3.33,138.314a2.921,2.921,0,0,0,5.529,1.88l1.589-4.45H21.22v6.366H43.5V120.89h2.122v-6.366H30.573a3.139,3.139,0,0,0,.2-1.061ZM27.585,112.4a1.061,1.061,0,1,1,0,2.122H14.854a1.062,1.062,0,0,1-1.061-1.061v-8.488a1.061,1.061,0,0,1,2.122,0V112.4Zm-12.732,4.244H21.22v4.244H10.61V110.781a19.146,19.146,0,0,1,1.125-6.438,3.187,3.187,0,0,0-.064.633v8.488a3.187,3.187,0,0,0,3.183,3.183Zm-5.3-22.281a4.244,4.244,0,0,1,8.488,0v3.183a4.244,4.244,0,0,1-8.488,0ZM3.183,110.281a1.061,1.061,0,1,1,0-2.122H8.658a20.852,20.852,0,0,0-.17,2.623V120.89a2.124,2.124,0,0,0,2.122,2.122H21.22v2.122H9.549a3.187,3.187,0,0,1-3.183-3.183V110.281Zm10.3,16.976H21.22v2.122h-8.5ZM6.861,139.48a.8.8,0,0,1-.791.508.766.766,0,0,1-.765-.765.817.817,0,0,1,.038-.242l3.918-11.754c.1.006.189.03.288.03h1.677Zm4.345-5.858.757-2.122H21.22v2.122Zm30.172,6.366H23.342v-19.1H41.378Zm2.122-21.22H23.342v-2.122H43.5Zm0,0" transform="translate(0 -76.329)"/>
      <path id="Trazado_998231" data-name="Trazado 998231" d="M315.876,14.524a6.357,6.357,0,0,0,2.4-4.975V6.366a6.366,6.366,0,0,0-12.732,0V9.549a6.37,6.37,0,0,0,3.39,5.623,6.409,6.409,0,0,0-1.613,1.862,21.371,21.371,0,0,0-2.553,7.368h-5.589a3.183,3.183,0,1,0,0,6.366h5.3v6.366h2.122V65.781h12.732V20.225a6.435,6.435,0,0,0-3.465-5.7Zm-8.205-4.975V6.366a4.244,4.244,0,0,1,8.488,0V9.549a4.244,4.244,0,0,1-8.488,0Zm1.061,9.4V24.4h-1.812A19.209,19.209,0,0,1,308.732,18.948Zm-10.61,8.638a1.062,1.062,0,0,1,1.061-1.061h11.671V16.976a1.043,1.043,0,0,1,.245-.653,4.325,4.325,0,0,1,1.122-.347,1.05,1.05,0,0,1,.755,1v10.61a1.062,1.062,0,0,1-1.061,1.061H299.183A1.062,1.062,0,0,1,298.122,27.586Zm13.793,3.183a3.187,3.187,0,0,0,3.183-3.183V16.976a3.119,3.119,0,0,0-.048-.469,4.293,4.293,0,0,1,2.17,3.718V35.013H306.61V30.769Zm-3.183,6.366h2.122V63.659h-2.122Zm4.244,26.524V37.134h4.244V63.659Zm0,0" transform="translate(-256.744 0)"/>
      <path id="Trazado_998232" data-name="Trazado 998232" d="M304,32h2.122v2.122H304Zm0,0" transform="translate(-263.683 -27.756)"/>
      <path id="Trazado_998233" data-name="Trazado 998233" d="M272,32h2.122v2.122H272Zm0,0" transform="translate(-235.927 -27.756)"/>
      <path id="Trazado_998234" data-name="Trazado 998234" d="M240,32h2.122v2.122H240Zm0,0" transform="translate(-208.171 -27.756)"/>
      <path id="Trazado_998235" data-name="Trazado 998235" d="M220.732,14.607v-4H227.1V0H208V10.61h6.072ZM210.122,2.122h14.854V8.488H218.61v2.369l-3.95-2.369h-4.538Zm0,0" transform="translate(-180.415)"/>
      <path id="Trazado_998236" data-name="Trazado 998236" d="M200,160h2.122v2.122H200Zm0,0" transform="translate(-173.476 -138.78)"/>
      <path id="Trazado_998237" data-name="Trazado 998237" d="M232,160h2.122v2.122H232Zm0,0" transform="translate(-201.232 -138.78)"/>
      <path id="Trazado_998238" data-name="Trazado 998238" d="M174.366,141.653l4.566-3.043h3.922V128H168v10.61h6.366Zm-4.244-5.165v-6.366h10.61v6.366h-2.444l-1.8,1.2v-1.2Zm0,0" transform="translate(-145.719 -111.024)"/>
    </g>
  </g>
</svg>
