<svg xmlns="http://www.w3.org/2000/svg" width="128" height="128" viewBox="0 0 128 128">
  <g id="Grupo_1178319" data-name="Grupo 1178319" transform="translate(-72.746 -7992)">
    <g id="Elipse_13628" data-name="Elipse 13628" transform="translate(72.746 7992)" fill="#fff7e2" stroke="#cff878" stroke-width="6">
      <circle cx="64" cy="64" r="64" stroke="none"/>
      <circle cx="64" cy="64" r="61" fill="none"/>
    </g>
    <g id="Grupo_1178346" data-name="Grupo 1178346" transform="translate(99.139 8020.694)">
      <circle id="Elipse_13715" data-name="Elipse 13715" cx="23.811" cy="23.811" r="23.811" transform="translate(3.19 3.191)" fill="#ffb26c"/>
      <path id="Trazado_998255" data-name="Trazado 998255" d="M42,8.382A23.784,23.784,0,0,1,8.382,42,23.786,23.786,0,1,0,42,8.382Z" transform="translate(1.216 1.216)" fill="#ff8e31"/>
      <path id="Trazado_998256" data-name="Trazado 998256" d="M24.084,33.12l-5.546,4a2.381,2.381,0,0,1-3.678-2.606l1.786-6.05a2.381,2.381,0,0,0-1.012-2.688L11.11,22.921a2.381,2.381,0,0,1,1.272-4.4h6.267a2.381,2.381,0,0,0,2.233-1.558l2.361-6.408a2.381,2.381,0,0,1,4.469,0l2.361,6.408a2.381,2.381,0,0,0,2.233,1.558h6.267a2.381,2.381,0,0,1,1.272,4.394l-4.524,2.857a2.381,2.381,0,0,0-1.012,2.688l1.786,6.05a2.381,2.381,0,0,1-3.678,2.606l-5.546-4a2.381,2.381,0,0,0-2.788,0Z" transform="translate(1.523 1.334)" fill="#ff8e31"/>
      <path id="Trazado_998257" data-name="Trazado 998257" d="M28.6,20.524,25.1,11l-3.509,9.524H12l7.573,4.784-2.811,9.5L25.1,28.8l8.334,6.016-2.811-9.5,7.573-4.784Z" transform="translate(1.905 1.715)" fill="#ff5252"/>
      <path id="Trazado_998258" data-name="Trazado 998258" d="M65.431,52.966a10.869,10.869,0,0,1-3.116-6.483A10.863,10.863,0,0,0,59.2,40l-9.09-9.088a2.381,2.381,0,0,0-3.368,0l-2.525,2.526a2.381,2.381,0,0,0-3.367,0L38.322,35.96a2.381,2.381,0,0,0-3.367,0L32.43,38.485l-6.31-6.31a2.976,2.976,0,1,0-4.209,4.209L38.322,52.8,29.1,50.951A3.638,3.638,0,0,0,27.338,58L39.327,61.6a10.869,10.869,0,0,0,3.122.458h4.006a10.867,10.867,0,0,1,7.684,3.182l2.808,2.818L68.734,56.271Z" transform="translate(3.627 5.376)" fill="#ffddd2"/>
      <g id="Grupo_1178345" data-name="Grupo 1178345" transform="translate(28.371 37.145)">
        <path id="Trazado_998259" data-name="Trazado 998259" d="M38.088,41.863l-5.85-6.072-1.631,1.631L36.5,43.315Z" transform="translate(-22.921 -30.706)" fill="#ffcbbd"/>
        <path id="Trazado_998260" data-name="Trazado 998260" d="M35.556,35.3l5.893,5.893,1.511-1.419-5.8-6.081Z" transform="translate(-21.978 -31.106)" fill="#ffcbbd"/>
        <path id="Trazado_998261" data-name="Trazado 998261" d="M40.506,33.186,46.4,39.078l1.708-1.662-5.936-5.9Z" transform="translate(-21.035 -31.52)" fill="#ffcbbd"/>
        <path id="Trazado_998262" data-name="Trazado 998262" d="M55.921,59.521a10.867,10.867,0,0,0-7.684-3.182H44.231a10.866,10.866,0,0,1-3.12-.458L29.126,52.286a3.638,3.638,0,0,1-2.485-4.367c.017-.069.049-.13.07-.2a3.628,3.628,0,0,0,.033,6.945l11.989,3.594a10.869,10.869,0,0,0,3.122.458h4.006A10.867,10.867,0,0,1,53.546,61.9l2.808,2.818,2.381-2.381Z" transform="translate(-24.151 -28.432)" fill="#ffcbbd"/>
      </g>
      <path id="Trazado_998263" data-name="Trazado 998263" d="M7.191,27.124A1.191,1.191,0,0,1,6,25.933a20.113,20.113,0,0,1,11.384-18.2,1.192,1.192,0,1,1,1.043,2.143A17.749,17.749,0,0,0,8.381,25.933,1.191,1.191,0,0,1,7.191,27.124Z" transform="translate(0.762 1.069)" fill="#fff" opacity="0.4"/>
      <path id="Trazado_998264" data-name="Trazado 998264" d="M10.339,34.143a1.191,1.191,0,0,1-.986-.519,20.141,20.141,0,0,1-2.5-5.062,1.191,1.191,0,1,1,2.262-.743,17.787,17.787,0,0,0,2.211,4.463,1.191,1.191,0,0,1-.987,1.861Z" transform="translate(0.913 4.764)" fill="#fff" opacity="0.4"/>
      <path id="Trazado_998265" data-name="Trazado 998265" d="M44.253,32.1a3.572,3.572,0,0,0-4.054.686l-1.849,1.85a3.66,3.66,0,0,0-4.048.676l-1.683,1.683-5.477-5.477a4.268,4.268,0,0,0-5.893,0,4.167,4.167,0,0,0,0,5.893l13.644,13.64-5.374-1.074a4.829,4.829,0,0,0-2.335,9.36L39.167,62.93a12.057,12.057,0,0,0,3.465.508h4.006a9.613,9.613,0,0,1,6.842,2.834l2.826,2.818,1.683-1.683-2.818-2.818a11.977,11.977,0,0,0-8.526-3.531H42.635a9.634,9.634,0,0,1-2.78-.408L27.872,57.057a2.448,2.448,0,0,1,1.183-4.744l9.226,1.845a1.191,1.191,0,0,0,1.072-2.01L22.941,35.73a1.786,1.786,0,0,1,0-2.526,1.829,1.829,0,0,1,2.525,0L37.673,45.411l1.683-1.688-5.05-5.052,1.685-1.683a1.217,1.217,0,0,1,1.682,0l5.894,5.9,1.683-1.683L40.2,36.151l1.685-1.685a1.223,1.223,0,0,1,1.683,0l5.893,5.893,1.683-1.683-5.052-5.05,1.683-1.689a1.191,1.191,0,0,1,1.685,0l9.09,9.091A9.708,9.708,0,0,1,61.325,46.8a12.107,12.107,0,0,0,3.453,7.195l3.316,3.31,1.683-1.683-3.3-3.3A9.722,9.722,0,0,1,63.7,46.543a12.1,12.1,0,0,0-3.462-7.195l-9.092-9.091a3.572,3.572,0,0,0-5.052,0Z" transform="translate(3.435 5.185)"/>
      <path id="Trazado_998266" data-name="Trazado 998266" d="M16.265,35.973a1.191,1.191,0,0,0,1.385,0l7.637-5.518,7.637,5.512a1.191,1.191,0,0,0,1.838-1.3l-2.556-8.64,6.812-4.3a1.191,1.191,0,0,0-.636-2.2H29.626L26.4,10.779a1.191,1.191,0,0,0-2.233,0l-3.223,8.746H12.191a1.191,1.191,0,0,0-.636,2.2l6.812,4.3-2.556,8.64a1.191,1.191,0,0,0,.454,1.31Zm.04-14.068h5.477a1.19,1.19,0,0,0,1.117-.778l2.388-6.492,2.392,6.492a1.191,1.191,0,0,0,1.117.779h5.477l-4.094,2.586a1.191,1.191,0,0,0-.51,1.343l1.822,6.16-5.506-3.975a1.191,1.191,0,0,0-1.393,0L19.084,32l1.822-6.161A1.191,1.191,0,0,0,20.4,24.49Z" transform="translate(1.714 1.525)"/>
      <path id="Trazado_998267" data-name="Trazado 998267" d="M27,52V49.622a22.594,22.594,0,1,1,22.168-18.1L51.5,32A25,25,0,1,0,27,52Z" transform="translate(0 0)"/>
      <path id="Trazado_998268" data-name="Trazado 998268" d="M32,9h2.381v2.381H32Z" transform="translate(5.716 1.334)"/>
      <path id="Trazado_998269" data-name="Trazado 998269" d="M30,11h2.381v2.381H30Z" transform="translate(5.335 1.715)"/>
      <path id="Trazado_998270" data-name="Trazado 998270" d="M34,11h2.381v2.381H34Z" transform="translate(6.097 1.715)"/>
      <path id="Trazado_998271" data-name="Trazado 998271" d="M32,13h2.381v2.381H32Z" transform="translate(5.716 2.096)"/>
      <path id="Trazado_998272" data-name="Trazado 998272" d="M48,20h2.381v2.381H48Z" transform="translate(8.765 3.43)"/>
      <path id="Trazado_998273" data-name="Trazado 998273" d="M46,22h2.381v2.381H46Z" transform="translate(8.384 3.811)"/>
      <path id="Trazado_998274" data-name="Trazado 998274" d="M50,22h2.381v2.381H50Z" transform="translate(9.146 3.811)"/>
      <path id="Trazado_998275" data-name="Trazado 998275" d="M48,24h2.381v2.381H48Z" transform="translate(8.765 4.192)"/>
      <path id="Trazado_998276" data-name="Trazado 998276" d="M47,13h2.381v2.381H47Z" transform="translate(8.574 2.096)"/>
      <path id="Trazado_998277" data-name="Trazado 998277" d="M34,21h2.381v2.381H34Z" transform="translate(6.097 3.621)"/>
    </g>
  </g>
</svg>
