<svg xmlns="http://www.w3.org/2000/svg" width="128" height="128" viewBox="0 0 128 128">
  <g id="Grupo_1178321" data-name="Grupo 1178321" transform="translate(-72.746 -7992)">
    <g id="Elipse_13628" data-name="Elipse 13628" transform="translate(72.746 7992)" fill="#fff7e2" stroke="#cff878" stroke-width="6">
      <circle cx="64" cy="64" r="64" stroke="none"/>
      <circle cx="64" cy="64" r="61" fill="none"/>
    </g>
    <g id="_10-Talking" data-name="10-Talking" transform="translate(100.312 8019.49)">
      <path id="Trazado_998278" data-name="Trazado 998278" d="M42.091,39v2.312l-4.624,4.624L34,42.468,37.468,39Z" transform="translate(5.144 6.079)" fill="#cdd2e1"/>
      <path id="Trazado_998279" data-name="Trazado 998279" d="M35.091,42.468l-3.468,3.468L27,41.312v-1.6L31.624,39Z" transform="translate(4.053 6.079)" fill="#cdd2e1"/>
      <path id="Trazado_998280" data-name="Trazado 998280" d="M64.053,29V44.026a4.624,4.624,0,0,1-4.624,4.624H50.182V68.3H34V44.026l3.468,3.468,4.624-4.624V40.559H55.962A1.156,1.156,0,0,0,57.118,39.4V29Z" transform="translate(5.144 4.521)" fill="#4a98f7"/>
      <path id="Trazado_998281" data-name="Trazado 998281" d="M24.935,66.644H18V41.215l10.4-1.6v1.6l4.624,4.624,3.468-3.468V66.644Z" transform="translate(2.65 6.176)" fill="#65b1fc"/>
      <path id="Trazado_998282" data-name="Trazado 998282" d="M56.026,40.312V38a1.156,1.156,0,0,1-1.156,1.156H41v2.312H54.871A1.156,1.156,0,0,0,56.026,40.312Z" transform="translate(6.235 5.923)" fill="#4a7aff"/>
      <path id="Trazado_998283" data-name="Trazado 998283" d="M42.091,43.312V41l-4.624,4.624L34,42.156v2.312l3.468,3.468Z" transform="translate(5.144 6.391)" fill="#4a7aff"/>
      <path id="Trazado_998284" data-name="Trazado 998284" d="M59.779,29H54v2.312h6.935V29Z" transform="translate(8.262 4.521)" fill="#4a7aff"/>
      <path id="Trazado_998285" data-name="Trazado 998285" d="M33.026,45.839,28.4,41.215v-1.6L18,41.215v2.312l10.4-1.6v1.6l4.624,4.624,3.468-3.468V42.371Z" transform="translate(2.65 6.176)" fill="#4a98f7"/>
      <path id="Trazado_998286" data-name="Trazado 998286" d="M31,29h6.935A3.468,3.468,0,0,1,31,29Z" transform="translate(4.676 4.521)" fill="#ff475a"/>
      <circle id="Elipse_13716" data-name="Elipse 13716" cx="2" cy="2" r="2" transform="translate(18.832 12.988)" fill="#fff"/>
      <ellipse id="Elipse_13717" data-name="Elipse 13717" cx="2.5" cy="2" rx="2.5" ry="2" transform="translate(6.832 12.988)" fill="#fff"/>
      <path id="Trazado_998287" data-name="Trazado 998287" d="M38.988,3.312v6.935A11.559,11.559,0,0,0,27.429,21.806v5.779H26.273v1.156H17.026v5.779l-5.779-5.779H4.312A2.319,2.319,0,0,1,2,26.429V3.312A2.319,2.319,0,0,1,4.312,1H36.676a2.319,2.319,0,0,1,2.312,2.312ZM22.806,14.871a2.312,2.312,0,1,0-2.312,2.312,2.312,2.312,0,0,0,2.312-2.312Zm-11.559,0a2.312,2.312,0,1,0-2.312,2.312,2.312,2.312,0,0,0,2.312-2.312Z" transform="translate(0.156 0.156)" fill="#f2f6fc"/>
      <path id="Trazado_998288" data-name="Trazado 998288" d="M20.156,11A2.283,2.283,0,0,0,19,11.322,2.29,2.29,0,0,1,19,15.3a2.283,2.283,0,0,0,1.156.322,2.312,2.312,0,0,0,0-4.624Z" transform="translate(2.806 1.715)" fill="#cdd2e1"/>
      <path id="Trazado_998289" data-name="Trazado 998289" d="M9,15.3a2.283,2.283,0,0,0,1.156.322,2.312,2.312,0,0,0,0-4.624A2.283,2.283,0,0,0,9,11.322,2.29,2.29,0,0,1,9,15.3Z" transform="translate(1.247 1.715)" fill="#cdd2e1"/>
      <path id="Trazado_998290" data-name="Trazado 998290" d="M12.312,25H10l5.779,5.779V28.468Z" transform="translate(1.403 3.897)" fill="#cdd2e1"/>
      <path id="Trazado_998291" data-name="Trazado 998291" d="M4.312,26.429V3.312A2.319,2.319,0,0,1,6.624,1H4.312A2.319,2.319,0,0,0,2,3.312V26.429a2.319,2.319,0,0,0,2.312,2.312H6.624A2.319,2.319,0,0,1,4.312,26.429Z" transform="translate(0.156 0.156)" fill="#cdd2e1"/>
      <path id="Trazado_998292" data-name="Trazado 998292" d="M47.118,20.559v5.779H44.806V25.182c-13.871,0-13.871-4.624-13.871-4.624,0,4.624-4.624,4.624-4.624,4.624v1.156H24V20.559a11.559,11.559,0,0,1,23.118,0Z" transform="translate(3.585 1.403)" fill="#d99668"/>
      <path id="Trazado_998293" data-name="Trazado 998293" d="M43.731,12.386A11.559,11.559,0,0,0,24,20.559v3.468a11.559,11.559,0,1,1,23.118,0V20.559a11.523,11.523,0,0,0-3.387-8.172Z" transform="translate(3.585 1.403)" fill="#c27b48"/>
      <path id="Trazado_998294" data-name="Trazado 998294" d="M63.091,24v3.468l-2.312,2.312H59.624c0-4.624-4.624-4.624-4.624-4.624h4.624V24Z" transform="translate(8.418 3.741)" fill="#e09380"/>
      <path id="Trazado_998295" data-name="Trazado 998295" d="M54.312,22h5.779v3.468H55.468s4.624,0,4.624,4.624H54.312L52,27.779V24.312A2.264,2.264,0,0,1,54.312,22Z" transform="translate(7.95 3.429)" fill="#ffcdbe"/>
      <g id="Grupo_1178347" data-name="Grupo 1178347" transform="translate(26.429 17.338)">
        <path id="Trazado_998296" data-name="Trazado 998296" d="M57.468,19.624v3.468H54V15h3.468Z" transform="translate(-18.168 -15)" fill="#faa68e"/>
        <path id="Trazado_998297" data-name="Trazado 998297" d="M59.312,22.468H57V19h5.779v5.779H59.312Z" transform="translate(-17.7 -14.376)" fill="#faa68e"/>
        <path id="Trazado_998298" data-name="Trazado 998298" d="M26.468,24v4.624H25.312A2.319,2.319,0,0,1,23,26.312V24Z" transform="translate(-23 -13.597)" fill="#faa68e"/>
        <path id="Trazado_998299" data-name="Trazado 998299" d="M45.468,26.312a2.319,2.319,0,0,1-2.312,2.312H42V24h3.468Z" transform="translate(-20.038 -13.597)" fill="#faa68e"/>
        <path id="Trazado_998300" data-name="Trazado 998300" d="M37.935,35.42v4.138l-3.468,3.468L31,39.558V35.42a9.3,9.3,0,0,0,6.935,0Z" transform="translate(-21.753 -11.817)" fill="#faa68e"/>
      </g>
      <path id="Trazado_998301" data-name="Trazado 998301" d="M44.494,24.779V29.4A9.247,9.247,0,1,1,26,29.4V23.624s4.624,0,4.624-4.624c0,0,0,4.624,13.871,4.624Zm-5.779,5.779H31.779a3.468,3.468,0,1,0,6.935,0Z" transform="translate(3.897 2.962)" fill="#ffcdbe"/>
      <path id="Trazado_998302" data-name="Trazado 998302" d="M30.624,19c0,4.624-4.624,4.624-4.624,4.624v2.312s4.624,0,4.624-4.624c0,0,0,4.624,13.871,4.624V23.624C30.624,23.624,30.624,19,30.624,19Z" transform="translate(3.897 2.962)" fill="#ffbeaa"/>
      <path id="Trazado_998303" data-name="Trazado 998303" d="M39.247,29.156A1.156,1.156,0,0,0,38.091,28H31.156A1.156,1.156,0,0,0,30,29.156a4.624,4.624,0,0,0,9.247,0Zm-6.624,1.156h4a2.312,2.312,0,0,1-4,0Z" transform="translate(4.521 4.365)"/>
      <path id="Trazado_998304" data-name="Trazado 998304" d="M71.509,20.806H66.885V17.338a1.156,1.156,0,0,0-1.156-1.156H62.262a1.156,1.156,0,0,0-1.156,1.156v7.123a3.423,3.423,0,0,0-2.312,3.28v3.468a1.156,1.156,0,0,0,.339.817L61.106,34v9.924H43.768V41.654a10.324,10.324,0,0,0,5.693-8.134h.087a3.468,3.468,0,0,0,3.468-3.468V27.741a1.156,1.156,0,0,0-1.156-1.156V21.962A12.715,12.715,0,0,0,40.3,9.3V3.468A3.468,3.468,0,0,0,36.832,0H4.468A3.468,3.468,0,0,0,1,3.468V26.585a3.468,3.468,0,0,0,3.468,3.468h6.457l5.441,5.441a1.156,1.156,0,0,0,1.973-.817V30.053h6.935a3.468,3.468,0,0,0,3.468,3.468h.069a10.373,10.373,0,0,0,2.974,6.2,10.518,10.518,0,0,0,2.736,1.95v2.415l-14.045,2.16a1.156,1.156,0,0,0-.981,1.142V72.82a1.156,1.156,0,0,0,1.156,1.156H55.326a1.156,1.156,0,0,0,1.156-1.156V54.326h8.091a5.786,5.786,0,0,0,5.779-5.779V34l1.973-1.973a1.156,1.156,0,0,0,.339-.817V21.962a1.156,1.156,0,0,0-1.156-1.156Zm-1.156,2.312v3.468H69.2V25.429a1.156,1.156,0,0,0-1.156-1.156H66.885V23.118Zm-5.779-4.624v5.779H63.418V18.494Zm-3.468,9.261a1.061,1.061,0,0,1,1.156-1.17h4.624v1.156H63.4a1.156,1.156,0,0,0,.017,2.312,3.368,3.368,0,0,1,3.325,2.312h-4L61.106,30.73ZM46.079,46.235v.677L42.612,50.38l-1.833-1.833,2.312-2.312ZM36.832,42.5a10.015,10.015,0,0,0,4.624,0v2.1l-2.312,2.312L36.832,44.6ZM50.7,30.053a1.156,1.156,0,0,1-1.156,1.156V28.9H50.7ZM25.273,27.741H17.182A1.156,1.156,0,0,0,16.026,28.9v2.989L12.22,28.08a1.156,1.156,0,0,0-.817-.339H4.468a1.156,1.156,0,0,1-1.156-1.156V3.468A1.156,1.156,0,0,1,4.468,2.312H36.832a1.156,1.156,0,0,1,1.156,1.156V9.306A12.726,12.726,0,0,0,26.429,21.962v4.624a1.156,1.156,0,0,0-1.156,1.156Zm2.312,2.312V28.9h1.156v2.312A1.156,1.156,0,0,1,27.585,30.053Zm1.156-3.468V21.962a10.4,10.4,0,0,1,20.806,0v4.624a1.156,1.156,0,0,0-1.156-1.156c-10.065,0-12.593-2.551-12.715-3.468a1.156,1.156,0,0,0-2.312,0A3.3,3.3,0,0,1,29.9,25.429a1.156,1.156,0,0,0-1.156,1.156Zm2.312,5.779V27.626a5.576,5.576,0,0,0,3.995-2.818c1.72,1.387,5.191,2.787,12.188,2.924v4.633a8.091,8.091,0,1,1-16.182,0Zm4.22,13.946,2.237,2.237L35.676,50.38l-3.468-3.468v-.129ZM21.806,48.383,29.9,47.138v.253a1.156,1.156,0,0,0,.338.817l4.624,4.624a1.156,1.156,0,0,0,1.634,0l1.495-1.495V71.665H28.741V55.482H26.429V71.665H21.806Zm46.235.164a3.468,3.468,0,0,1-3.468,3.468H55.326A1.156,1.156,0,0,0,54.17,53.17V71.665H40.3V51.337l1.495,1.495a1.156,1.156,0,0,0,1.634,0l4.624-4.624a1.156,1.156,0,0,0,.339-.817V46.235H61.106a2.312,2.312,0,0,0,2.312-2.312V34.676h4.624Zm.991-16.5a5.326,5.326,0,0,0-.85-2.007A1.156,1.156,0,0,0,69.2,28.9h1.156V30.73Z"/>
      <path id="Trazado_998305" data-name="Trazado 998305" d="M8.468,10a3.468,3.468,0,1,0,3.468,3.468A3.468,3.468,0,0,0,8.468,10Zm0,4.624a1.156,1.156,0,1,1,1.156-1.156A1.156,1.156,0,0,1,8.468,14.624Z" transform="translate(0.624 1.559)"/>
      <path id="Trazado_998306" data-name="Trazado 998306" d="M18.468,10a3.468,3.468,0,1,0,3.468,3.468A3.468,3.468,0,0,0,18.468,10Zm0,4.624a1.156,1.156,0,1,1,1.156-1.156A1.156,1.156,0,0,1,18.468,14.624Z" transform="translate(2.182 1.559)"/>
    </g>
  </g>
</svg>
