<svg xmlns="http://www.w3.org/2000/svg" width="292" height="211" viewBox="0 0 292 211">
  <g id="Grupo_1178796" data-name="Grupo 1178796" transform="translate(-1122.063 -5800)">
    <rect id="Rectángulo_455100" data-name="Rectángulo 455100" width="292" height="211" rx="10" transform="translate(1122.063 5800)" fill="#e795ff"/>
    <g id="Grupo_1178795" data-name="Grupo 1178795" transform="translate(-5314.943 2174.367)">
      <path id="Trazado_997517" data-name="Trazado 997517" d="M3566.589,167.451c-.316.925-1.35,2.214-1.658,3.277a8.824,8.824,0,0,0-.237,3.7,11.157,11.157,0,0,0,2.6,5.431c-2.867-3.808-9.871,1.907-13.41,6.192a5.671,5.671,0,0,0-.554-5.89c-1.354-1.666-3.132-1.255-5.291-.989,2.3-2.1,4.26-2.853,6.3-5.87,2.745-4.056,1.628-6.146,1.135-9.047.094.551,1.244,1.18,1.564,1.648.426.622.838,1.232,1.311,1.806a3.427,3.427,0,0,0,4.284,1.11c1.364-.465,2.675-1.016,4.021-1.613A2.288,2.288,0,0,1,3566.589,167.451Z" transform="translate(3148.311 3490.871)" fill="none" stroke="#010101" stroke-linecap="round" stroke-linejoin="round" stroke-miterlimit="4.82" stroke-width="1"/>
      <path id="Trazado_997518" data-name="Trazado 997518" d="M3640.19,1033.286c1.972,1.371,4.385-5.012,4.31-6.471,0,2.235-.662,6.206,2.832,6.4-1.234.778-2.3,1-2.816,2.567a11.028,11.028,0,0,0-.547,3.329C3643.825,1036.84,3642.76,1033.956,3640.19,1033.286Z" transform="translate(3070.813 2765.477)" fill="none" stroke="#010101" stroke-linecap="round" stroke-linejoin="round" stroke-miterlimit="4.82" stroke-width="1"/>
      <ellipse id="Elipse_13675" data-name="Elipse 13675" cx="2.155" cy="4.849" rx="2.155" ry="4.849" transform="translate(6709.926 3747.577)" fill="none" stroke="#010101" stroke-linecap="round" stroke-linejoin="round" stroke-miterlimit="4.82" stroke-width="1"/>
      <g id="Grupo_1178223" data-name="Grupo 1178223" transform="translate(6448.006 3658.026)">
        <path id="Trazado_997523" data-name="Trazado 997523" d="M2114.2,637.444l-8.558,69.948,14.347-.6,10.936-60.118" transform="translate(-2086.664 -565.095)" fill="none" stroke="#010101" stroke-linecap="round" stroke-linejoin="round" stroke-miterlimit="4.82" stroke-width="1"/>
        <path id="Trazado_997524" data-name="Trazado 997524" d="M2115.683,1073.464l-.583,9.386,19.8-1.214s.771-3.923-3.152-4.2a28.028,28.028,0,0,0-6.094.094v-4.576Z" transform="translate(-2094.619 -931.348)" fill="#010101"/>
        <path id="Trazado_997525" data-name="Trazado 997525" d="M2423.09,1021.418l3.01,8.909,17.869-8.614s-.771-3.922-4.508-2.7a28.038,28.038,0,0,0-5.606,2.392l-1.731-4.236Z" transform="translate(-2353.634 -884.439)" fill="#010101"/>
        <path id="Trazado_997526" data-name="Trazado 997526" d="M2127.343,731.275l-8.266,51.089-11.247.405" transform="translate(-2088.506 -644.006)" fill="none" stroke="#010101" stroke-linecap="round" stroke-linejoin="round" stroke-miterlimit="4.82" stroke-width="1"/>
        <path id="Trazado_997527" data-name="Trazado 997527" d="M2359.41,702.912l10.84-4.743-18.7-56.373" transform="translate(-2293.469 -568.755)" fill="none" stroke="#010101" stroke-linecap="round" stroke-linejoin="round" stroke-miterlimit="4.82" stroke-width="1"/>
        <path id="Trazado_997528" data-name="Trazado 997528" d="M2245.03,610.133l1.761-.271c.59,1.476,24.526,59.682,24.526,59.682l13.309-5.744-19.683-65.938" transform="translate(-2203.888 -531.808)" fill="none" stroke="#010101" stroke-linecap="round" stroke-linejoin="round" stroke-miterlimit="4.82" stroke-width="1"/>
        <path id="Trazado_997529" data-name="Trazado 997529" d="M2285.29,271.951c.027.2.847,1.863,2.337,1.423" transform="translate(-2237.746 -257.722)" fill="none" stroke="#010101" stroke-linecap="round" stroke-linejoin="round" stroke-miterlimit="4.82" stroke-width="1"/>
        <path id="Trazado_997530" data-name="Trazado 997530" d="M2282.588,248.352c.061.451-.13.849-.427.889s-.586-.294-.647-.745.13-.849.427-.889S2282.528,247.9,2282.588,248.352Z" transform="translate(-2234.561 -237.247)" fill="#010101"/>
        <path id="Trazado_997531" data-name="Trazado 997531" d="M2302.81,253.443l1.517,2.04s-.668,1.21-1.445.768" transform="translate(-2252.48 -242.157)" fill="none" stroke="#010101" stroke-linecap="round" stroke-linejoin="round" stroke-miterlimit="4.82" stroke-width="1"/>
        <line id="Línea_3362" data-name="Línea 3362" x2="0.542" y2="9.441" transform="translate(37.483 20.236)" fill="none" stroke="#010101" stroke-linecap="round" stroke-linejoin="round" stroke-miterlimit="4.82" stroke-width="1"/>
        <line id="Línea_3363" data-name="Línea 3363" x2="0.469" y2="6.538" transform="translate(45.866 20.157)" fill="none" stroke="#010101" stroke-linecap="round" stroke-linejoin="round" stroke-miterlimit="4.82" stroke-width="1"/>
        <path id="Trazado_997532" data-name="Trazado 997532" d="M2209.667,211.2c.661,4.92-1.241,8.46-7.488,10.076-4.686,1.212-9.221-2.821-9.882-7.742a8.766,8.766,0,1,1,17.37-2.334Z" transform="translate(-2159.471 -200.058)" fill="none" stroke="#010101" stroke-linecap="round" stroke-linejoin="round" stroke-miterlimit="4.82" stroke-width="1"/>
        <path id="Trazado_997533" data-name="Trazado 997533" d="M2101.82,358.4s2.755-27.35,9.838-35.81,27.709-13.958,29.873-13.368,4.166,40.521,3.576,44.259S2101.82,358.4,2101.82,358.4Z" transform="translate(-2083.451 -289.027)" fill="#010101"/>
        <g id="Grupo_1178222" data-name="Grupo 1178222" transform="translate(0 31.551)">
          <path id="Trazado_997534" data-name="Trazado 997534" d="M2090,426.309l-92.1,37.041a8.438,8.438,0,1,1-6.3-15.658l91.88-36.954a12.371,12.371,0,0,0,.2,8.637A12.153,12.153,0,0,0,2090,426.309Z" transform="translate(-1986.306 -405.992)" fill="#0c8ff2"/>
          <g id="Grupo_1178221" data-name="Grupo 1178221" transform="translate(98.7)">
            <line id="Línea_3364" data-name="Línea 3364" y1="2.075" x2="19.158" transform="translate(0 2.542)" fill="none" stroke="#010101" stroke-linecap="round" stroke-linejoin="round" stroke-miterlimit="4.82" stroke-width="1"/>
            <line id="Línea_3365" data-name="Línea 3365" x1="13.499" y2="12.732" transform="translate(5.963 6.28)" fill="none" stroke="#010101" stroke-linecap="round" stroke-linejoin="round" stroke-miterlimit="4.82" stroke-width="1"/>
            <line id="Línea_3366" data-name="Línea 3366" y1="2.436" x2="15.196" transform="translate(0.107 5.593)" fill="none" stroke="#010101" stroke-linecap="round" stroke-linejoin="round" stroke-miterlimit="4.82" stroke-width="1"/>
            <path id="Trazado_997535" data-name="Trazado 997535" d="M2729.664,384.526l-5.773,2.082a1.875,1.875,0,0,1-2.4-1.128h0a1.875,1.875,0,0,1,1.128-2.4l5.773-2.082a1.875,1.875,0,0,1,2.4,1.128h0A1.876,1.876,0,0,1,2729.664,384.526Z" transform="translate(-2703.189 -380.886)" fill="#010101"/>
            <line id="Línea_3367" data-name="Línea 3367" y1="3.204" x2="5.725" transform="translate(5.111 9.549)" fill="none" stroke="#010101" stroke-linecap="round" stroke-linejoin="round" stroke-miterlimit="4.82" stroke-width="1"/>
          </g>
          <line id="Línea_3368" data-name="Línea 3368" y1="17.583" x2="43.208" transform="translate(38.03 25.979)" fill="none" stroke="#010101" stroke-linecap="round" stroke-linejoin="round" stroke-miterlimit="4.82" stroke-width="1"/>
          <line id="Línea_3369" data-name="Línea 3369" y1="11.845" x2="30.737" transform="translate(21.579 33.427)" fill="none" stroke="#010101" stroke-linecap="round" stroke-linejoin="round" stroke-miterlimit="4.82" stroke-width="1"/>
        </g>
        <path id="Trazado_997536" data-name="Trazado 997536" d="M2488.212,468.361c2.054.306,6.68.468,8.509-.289.705-.292,2.037-.446,2.219-1.369.189-.952-4.156-.2-4.18-.518a15.914,15.914,0,0,1,2.119-.336c.477-.138,4.639-1.033,3.843-2.222-.335-.5-2.01-.483-2.5-.4-.4.066-2.63.778-2.476.406.2-.484,4.863-.962,5.343-3.031.354-1.528-5.775.29-6,.2-.335-.139,2.357-.666,2.689-.8.4-.164,2.756-1.4,1.9-2.136-.623-.541-3.193.1-4.012.188-.484.05-2.164.235-3.094.281-.374.018,3.74-2.876,1.919-3.272-1.986-.433-5.714,2.893-6.328,2.931-1.072.066.183.507-.353.613A9.146,9.146,0,0,0,2488.212,468.361Z" transform="translate(-2407.022 -411.676)" fill="#f0f8ff" stroke="#010101" stroke-linecap="round" stroke-linejoin="round" stroke-miterlimit="4.82" stroke-width="1"/>
        <path id="Trazado_997537" data-name="Trazado 997537" d="M2294.45,323.813s.406,24.392,4.336,26.018c3.318,1.373,29-3.659,29-3.659s3.117-10.976-1.491-13.009c-4.472-.406-15.31,1.321-15.31,1.321s1.4-15.353.055-20.228c-.771-2.8-4.712-7.845-10.221-5.484S2294.45,323.813,2294.45,323.813Z" transform="translate(-2245.449 -288.174)" fill="#010101"/>
        <path id="Trazado_997538" data-name="Trazado 997538" d="M2300.995,419.378s-.745,10.434-.136,14.906c0,0,7.97-1.842,9.554.881,1.694,2.914,1.084,7.927,1.084,7.927" transform="translate(-2250.638 -381.706)" fill="none" stroke="#f0f8ff" stroke-linecap="round" stroke-linejoin="round" stroke-miterlimit="4.82" stroke-width="1"/>
        <line id="Línea_3370" data-name="Línea 3370" x1="2.53" y2="16.623" transform="translate(28.177 42.641)" fill="none" stroke="#f0f8ff" stroke-linecap="round" stroke-linejoin="round" stroke-miterlimit="4.82" stroke-width="1"/>
        <ellipse id="Elipse_13676" data-name="Elipse 13676" cx="5.556" cy="6.369" rx="5.556" ry="6.369" transform="translate(28.945 11.247)" fill="#010101"/>
        <ellipse id="Elipse_13677" data-name="Elipse 13677" cx="3.727" cy="3.794" rx="3.727" ry="3.794" transform="translate(30.436 6.505)" fill="#010101"/>
        <ellipse id="Elipse_13678" data-name="Elipse 13678" cx="3.727" cy="3.794" rx="3.727" ry="3.794" transform="translate(34.907 8.266)" fill="#010101"/>
        <ellipse id="Elipse_13679" data-name="Elipse 13679" cx="3.727" cy="4.404" rx="3.727" ry="4.404" transform="translate(35.857 14.364)" fill="#010101"/>
        <ellipse id="Elipse_13680" data-name="Elipse 13680" cx="3.727" cy="3.794" rx="3.727" ry="3.794" transform="translate(37.008 3.523)" fill="#010101"/>
        <ellipse id="Elipse_13681" data-name="Elipse 13681" cx="3.727" cy="3.862" rx="3.727" ry="3.862" transform="translate(43.175 0)" fill="#010101"/>
        <ellipse id="Elipse_13682" data-name="Elipse 13682" cx="3.32" cy="3.049" rx="3.32" ry="3.049" transform="translate(38.16 0.813)" fill="#010101"/>
        <ellipse id="Elipse_13683" data-name="Elipse 13683" cx="3.591" cy="3.388" rx="3.591" ry="3.388" transform="translate(33.823 2.575)" fill="#010101"/>
        <path id="Trazado_997539" data-name="Trazado 997539" d="M2239.739,259.7s-2.42-.883-2.492.87,1.979,3.2,3.2,2.111Z" transform="translate(-2197.341 -247.231)" fill="#f0f8ff"/>
        <path id="Trazado_997540" data-name="Trazado 997540" d="M2379.67,470.082c.746.2,2.984.575,2.984.575l-1.358,1.39" transform="translate(-2317.118 -424.347)" fill="none" stroke="#f0f8ff" stroke-linecap="round" stroke-linejoin="round" stroke-miterlimit="4.82" stroke-width="1"/>
        <path id="Trazado_997541" data-name="Trazado 997541" d="M2245.287,266.115s-1.524-.2-.644.847" transform="translate(-2203.333 -252.801)" fill="none" stroke="#010101" stroke-linecap="round" stroke-linejoin="round" stroke-miterlimit="4.82" stroke-width="1"/>
      </g>
      <path id="Trazado_997543" data-name="Trazado 997543" d="M2970.486,181.475c-.328,1.015-1.549,2.131-1.855,3.326a10.5,10.5,0,0,0,0,4.584c.6,3.1,2.127,5.6,3.788,8.214-4-6.287-12.511-2.565-16.7,1.091,1.24-2.346.171-5.715-1.2-7.763-1.877-2.8-4.124-3.177-6.873-3.93,2.779-1.5,5.229-1.473,7.6-4.273,3.186-3.765,1.578-6.986.7-10.921.166.748,1.694,2.128,2.145,2.885.6,1.005,1.178,1.989,1.833,2.957,1.4,2.067,2.974,3.425,5.59,3.575a47.771,47.771,0,0,0,5.027-.018A1.686,1.686,0,0,1,2970.486,181.475Z" transform="translate(3653.225 3484.526)" fill="none" stroke="#010101" stroke-linecap="round" stroke-linejoin="round" stroke-miterlimit="4.82" stroke-width="1"/>
      <path id="Trazado_997545" data-name="Trazado 997545" d="M2574.494,663.793c-.373.719-1.426,1.4-1.805,2.259a7.98,7.98,0,0,0-.571,3.434,17.927,17.927,0,0,0,1.81,6.626c-2.207-5.209-9.051-3.487-12.643-1.272,1.223-1.6.844-4.259.072-5.965-1.055-2.333-2.691-2.9-4.656-3.8,2.27-.777,4.1-.449,6.227-2.25,2.858-2.422,2.056-5.035,1.894-8.092.031.581,1,1.806,1.246,2.429.323.828.633,1.637,1,2.444a5.231,5.231,0,0,0,3.74,3.377,36.285,36.285,0,0,0,3.768.616A1.341,1.341,0,0,1,2574.494,663.793Z" transform="translate(3982.009 3078.393)" fill="none" stroke="#010101" stroke-linecap="round" stroke-linejoin="round" stroke-miterlimit="4.82" stroke-width="1"/>
      <path id="Trazado_997547" data-name="Trazado 997547" d="M2885.08,530.129c1.972,1.371,4.385-5.012,4.31-6.471,0,2.235-.662,6.206,2.833,6.4-1.234.778-2.3,1-2.817,2.567a11.035,11.035,0,0,0-.547,3.329C2888.715,533.684,2887.652,530.8,2885.08,530.129Z" transform="translate(3705.847 3188.623)" fill="none" stroke="#010101" stroke-linecap="round" stroke-linejoin="round" stroke-miterlimit="4.82" stroke-width="1"/>
      <g id="Grupo_1178225" data-name="Grupo 1178225" transform="translate(6534.289 3688.784)">
        <line id="Línea_3374" data-name="Línea 3374" x2="0.442" y2="6.74" transform="translate(3.646 0)" fill="none" stroke="#010101" stroke-linecap="round" stroke-linejoin="round" stroke-miterlimit="4.82" stroke-width="1"/>
        <path id="Trazado_997550" data-name="Trazado 997550" d="M2528.9,392.65c.332,0,6.851-.773,6.851-.773" transform="translate(-2528.9 -389.336)" fill="none" stroke="#010101" stroke-linecap="round" stroke-linejoin="round" stroke-miterlimit="4.82" stroke-width="1"/>
        <line id="Línea_3375" data-name="Línea 3375" x2="4.2" y2="2.873" transform="translate(1.547 1.547)" fill="none" stroke="#010101" stroke-linecap="round" stroke-linejoin="round" stroke-miterlimit="4.82" stroke-width="1"/>
        <line id="Línea_3376" data-name="Línea 3376" y1="3.425" x2="3.646" transform="translate(2.101 1.215)" fill="none" stroke="#010101" stroke-linecap="round" stroke-linejoin="round" stroke-miterlimit="4.82" stroke-width="1"/>
      </g>
      <g id="Grupo_1178226" data-name="Grupo 1178226" transform="translate(6670.184 3639.633)">
        <line id="Línea_3377" data-name="Línea 3377" x2="0.65" y2="9.916" transform="translate(5.364 0)" fill="none" stroke="#010101" stroke-linecap="round" stroke-linejoin="round" stroke-miterlimit="4.82" stroke-width="1"/>
        <path id="Trazado_997551" data-name="Trazado 997551" d="M3383.49,91.457c.488,0,10.079-1.138,10.079-1.138" transform="translate(-3383.49 -86.58)" fill="none" stroke="#010101" stroke-linecap="round" stroke-linejoin="round" stroke-miterlimit="4.82" stroke-width="1"/>
        <line id="Línea_3378" data-name="Línea 3378" x2="6.176" y2="4.227" transform="translate(2.276 2.276)" fill="none" stroke="#010101" stroke-linecap="round" stroke-linejoin="round" stroke-miterlimit="4.82" stroke-width="1"/>
        <line id="Línea_3379" data-name="Línea 3379" y1="5.039" x2="5.364" transform="translate(3.088 1.788)" fill="none" stroke="#010101" stroke-linecap="round" stroke-linejoin="round" stroke-miterlimit="4.82" stroke-width="1"/>
      </g>
      <path id="Trazado_997552" data-name="Trazado 997552" d="M3019.138,1015.545c-.885.158-1.688.406-1.847,1.429-.132.851.134.983.909,1,.794.013,2.609-1.054,1.746-1.976C3019.8,1015.995,3019.286,1015.519,3019.138,1015.545Z" transform="translate(3594.688 2774.955)" fill="none" stroke="#010101" stroke-linecap="round" stroke-linejoin="round" stroke-miterlimit="4.82" stroke-width="1"/>
      <path id="Trazado_997555" data-name="Trazado 997555" d="M2316.9,89.29c21.821,23.033,84.474,17.038,75.969,3.637-13.335-21.013-50.107,2.02-34.752,21.821,9.861,12.716,72.728-2.89,40,20.547" transform="translate(4183.677 3557.864)" fill="none" stroke="#010101" stroke-linejoin="round" stroke-miterlimit="4.82" stroke-width="1"/>
      <path id="Trazado_997556" data-name="Trazado 997556" d="M2416.12,872.22c34.793,4.259,79.691-39.449,56.254-49.147-12.391-5.127-27.9,17.854-12.651,28.63,16.458,9.831,44.333-10.807,32.719-28.385-2.212-4.576-15.086-12.811-2.446-15.071" transform="translate(4100.234 2949.288)" fill="none" stroke="#010101" stroke-linejoin="round" stroke-miterlimit="4.82" stroke-width="1"/>
      <ellipse id="Elipse_13684" data-name="Elipse 13684" cx="2.155" cy="2.189" rx="2.155" ry="2.189" transform="translate(6474.548 3650.527)" fill="none" stroke="#010101" stroke-linecap="round" stroke-linejoin="round" stroke-miterlimit="4.82" stroke-width="1"/>
      <g id="Grupo_1178232" data-name="Grupo 1178232" transform="translate(6590.986 3658.322)">
        <path id="Trazado_997585" data-name="Trazado 997585" d="M3223.658,215.625c1.7,5.833-5.891,8.185-7.782,2.411C3214.172,212.2,3221.767,209.851,3223.658,215.625Z" transform="translate(-3163.124 -207.852)" fill="#010101"/>
        <path id="Trazado_997586" data-name="Trazado 997586" d="M3105.662,1108.367l19.887-2.009.2-7.633-9.642.8-.223,2.464S3105.059,1102.743,3105.662,1108.367Z" transform="translate(-3070.623 -953.321)" fill="#f0f8ff" stroke="#010101" stroke-miterlimit="10" stroke-width="1"/>
        <path id="Trazado_997587" data-name="Trazado 997587" d="M3366.042,1108.367l19.887-2.009.2-7.633-9.642.8-.223,2.464S3365.439,1102.743,3366.042,1108.367Z" transform="translate(-3289.599 -953.321)" fill="#f0f8ff" stroke="#010101" stroke-miterlimit="10" stroke-width="1"/>
        <path id="Trazado_997588" data-name="Trazado 997588" d="M3248.043,222.32c2.018,9.631-12.8,12.807-14.418,3.232C3231.639,214.3,3244.925,211.769,3248.043,222.32Z" transform="translate(-3178.09 -210.644)" fill="#f0f8ff" stroke="#010101" stroke-miterlimit="10" stroke-width="1"/>
        <path id="Trazado_997589" data-name="Trazado 997589" d="M3275.415,261.613c.232.992-.793,1.222-1.008.226C3274.176,260.846,3275.2,260.617,3275.415,261.613Z" transform="translate(-3212.527 -248.784)" fill="#010101"/>
        <path id="Trazado_997590" data-name="Trazado 997590" d="M3250.082,267.293c.232.992-.794,1.222-1.007.226C3248.842,266.526,3249.868,266.3,3250.082,267.293Z" transform="translate(-3191.223 -253.561)" fill="#010101"/>
        <path id="Trazado_997591" data-name="Trazado 997591" d="M3260.8,286.8c-.868,1.1-3.025.516-1.943,1.64.408.3,1.34.117,1.832-.027C3261.519,288.175,3262.012,285.642,3260.8,286.8Z" transform="translate(-3199.231 -270.254)" fill="#f0f8ff" stroke="#010101" stroke-linecap="round" stroke-linejoin="round" stroke-miterlimit="4.82" stroke-width="1"/>
        <path id="Trazado_997592" data-name="Trazado 997592" d="M3260.7,270.089s-.569,2.212-.376,2.334,1.242-.212,1.242-.212" transform="translate(-3200.677 -256.453)" fill="none" stroke="#010101" stroke-linecap="round" stroke-linejoin="round" stroke-miterlimit="4.82" stroke-width="1"/>
        <path id="Trazado_997593" data-name="Trazado 997593" d="M3219.473,196.091c-.782,5.754-9.954,4.546-9.219-1.214C3211.036,189.124,3220.208,190.332,3219.473,196.091Z" transform="translate(-3158.569 -190.041)" fill="#010101"/>
        <path id="Trazado_997594" data-name="Trazado 997594" d="M3255.788,188.536c-.438,5.218-8.418,4.685-8.159-.544C3248.067,182.773,3256.047,183.306,3255.788,188.536Z" transform="translate(-3190.031 -184.335)" fill="#010101"/>
        <path id="Trazado_997595" data-name="Trazado 997595" d="M3298.277,217.846c2.341,5.557-3.8,8.25-6.3,2.764C3289.632,215.054,3295.775,212.361,3298.277,217.846Z" transform="translate(-3226.89 -209.993)" fill="#010101"/>
        <path id="Trazado_997596" data-name="Trazado 997596" d="M3317.435,259.532c-.215,3-4.034,2.748-3.848-.257C3313.8,256.273,3317.621,256.528,3317.435,259.532Z" transform="translate(-3245.5 -245.569)" fill="#010101"/>
        <path id="Trazado_997597" data-name="Trazado 997597" d="M3317.421,277.069a1.624,1.624,0,1,1-3.24-.216A1.624,1.624,0,1,1,3317.421,277.069Z" transform="translate(-3245.999 -260.848)" fill="#010101"/>
        <path id="Trazado_997598" data-name="Trazado 997598" d="M3284.051,193.868c-.642,5.013-6.936,4.306-6.451-.724C3278.242,188.132,3284.534,188.838,3284.051,193.868Z" transform="translate(-3215.218 -188.865)" fill="#010101"/>
        <path id="Trazado_997599" data-name="Trazado 997599" d="M3305.231,259.544a1.857,1.857,0,0,1-3.622-.63,2.99,2.99,0,0,1,2.48-2.291C3305.06,256.688,3306.078,257.834,3305.231,259.544Z" transform="translate(-3235.428 -245.126)" fill="#f0f8ff"/>
        <path id="Trazado_997600" data-name="Trazado 997600" d="M3312.79,265.441s1.119-.615,1.047.458" transform="translate(-3244.835 -252.396)" fill="none" stroke="#010101" stroke-linecap="round" stroke-linejoin="round" stroke-miterlimit="4.82" stroke-width="1"/>
        <path id="Trazado_997601" data-name="Trazado 997601" d="M3172.955,591.481,3157.32,669.47l13.1-1.237,18.538-65.258,10.136,65.752,13.348-.989-5.933-81.572Z" transform="translate(-3114.087 -522.268)" fill="#010101"/>
        <path id="Trazado_997602" data-name="Trazado 997602" d="M3138.038,340.083c-2.01.58-3.8,1.124-6.094,1.807a9.728,9.728,0,0,0-6.161,4.856l-.026-.025a13.078,13.078,0,0,0-.907,2.589l-14.165,44,16.252.124,4.923-17.015,1.128,9.42,35.037-3.27c-.909-9.393-1.232-17.144-1.444-23.453" transform="translate(-3074.868 -315.316)" fill="none" stroke="#010101" stroke-linecap="round" stroke-linejoin="round" stroke-miterlimit="4.82" stroke-width="1"/>
        <path id="Trazado_997603" data-name="Trazado 997603" d="M3344.213,313.119c-3.053-1.276-8.2-.609-17.015,1.727" transform="translate(-3256.952 -292.103)" fill="none" stroke="#010101" stroke-linecap="round" stroke-linejoin="round" stroke-miterlimit="4.82" stroke-width="1"/>
        <line id="Línea_3390" data-name="Línea 3390" y1="11.453" x2="3.378" transform="translate(53.615 61.097)" fill="none" stroke="#010101" stroke-linecap="round" stroke-linejoin="round" stroke-miterlimit="4.82" stroke-width="1"/>
        <g id="Grupo_1178231" data-name="Grupo 1178231" transform="translate(0 54.636)">
          <g id="Grupo_1178230" data-name="Grupo 1178230" transform="translate(0 24.263)">
            <line id="Línea_3391" data-name="Línea 3391" x1="20.059" y2="0.456" transform="translate(8.83 15.298)" fill="none" stroke="#010101" stroke-linecap="round" stroke-linejoin="round" stroke-miterlimit="4.82" stroke-width="1"/>
            <line id="Línea_3392" data-name="Línea 3392" x1="15.503" y2="11.823" transform="translate(8.934)" fill="none" stroke="#010101" stroke-linecap="round" stroke-linejoin="round" stroke-miterlimit="4.82" stroke-width="1"/>
            <line id="Línea_3393" data-name="Línea 3393" x1="13.323" y2="2.692" transform="translate(18.025 9.751)" fill="none" stroke="#010101" stroke-linecap="round" stroke-linejoin="round" stroke-miterlimit="4.82" stroke-width="1"/>
            <path id="Trazado_997604" data-name="Trazado 997604" d="M2886.848,761.179l6.15-1.9a1.881,1.881,0,0,1,2.406,1.048,1.825,1.825,0,0,1-1.352,2.211l-6.15,1.9A1.725,1.725,0,1,1,2886.848,761.179Z" transform="translate(-2885.449 -746.663)" fill="#010101"/>
            <line id="Línea_3394" data-name="Línea 3394" x1="8.703" y2="4.95" transform="translate(17.409 3.39)" fill="none" stroke="#010101" stroke-linecap="round" stroke-linejoin="round" stroke-miterlimit="4.82" stroke-width="1"/>
          </g>
          <path id="Trazado_997605" data-name="Trazado 997605" d="M3146.185,534.246c1.295,4.7-1.1,9.376-5.369,9.932l.016.057-84.494,22.882c8.833-2.439,4.381-18.258-4.4-15.89l84.494-22.882.016.057C3140.411,526.73,3144.878,529.556,3146.185,534.246Z" transform="translate(-3025.463 -527.917)" fill="#0c8ff2"/>
        </g>
        <path id="Trazado_997606" data-name="Trazado 997606" d="M3446.695,619.019c-.556,1.1-5.184,7.476-3.119,8.5,1.32.276,2.336-4.189,2.682-3.608.164.256-.442,1.92-.56,2.175-3.166,8.944.227,6.7,2.738-.051-2.868,8.358.63,10.565,2.181.657-.38,1.149-1.858,7.235.05,7.221,1.129-.578,1.5-3.691,1.731-4.751a17.1,17.1,0,0,1,.464-1.923c-.067,9.829,3.4-5.445,3.969-7.25Z" transform="translate(-3354.38 -549.897)" fill="#f0f8ff" stroke="#010101" stroke-miterlimit="10" stroke-width="1"/>
        <path id="Trazado_997607" data-name="Trazado 997607" d="M3459.923,468.447s-6.386,16.6-7.251,24.637c8.034-1.73,12.607,2.719,12.607,2.719,2.953-9.911,5.811-17.47,6.923-21.99C3475.666,459.739,3459.923,468.447,3459.923,468.447Z" transform="translate(-3362.473 -421.028)" fill="#f0f8ff" stroke="#f0f8ff" stroke-linecap="round" stroke-linejoin="round" stroke-miterlimit="4.82" stroke-width="1"/>
        <line id="Línea_3395" data-name="Línea 3395" y1="5.603" x2="19.693" transform="translate(62.019 34.071)" fill="none" stroke="#010101" stroke-linecap="round" stroke-linejoin="round" stroke-miterlimit="4.82" stroke-width="1"/>
        <line id="Línea_3396" data-name="Línea 3396" y1="5.109" x2="22" transform="translate(59.382 41.239)" fill="none" stroke="#010101" stroke-linecap="round" stroke-linejoin="round" stroke-miterlimit="4.82" stroke-width="1"/>
        <line id="Línea_3397" data-name="Línea 3397" y1="5.273" x2="19.281" transform="translate(70.506 45.194)" fill="none" stroke="#010101" stroke-linecap="round" stroke-linejoin="round" stroke-miterlimit="4.82" stroke-width="1"/>
        <line id="Línea_3398" data-name="Línea 3398" y1="5.026" x2="21.094" transform="translate(62.431 56.235)" fill="none" stroke="#010101" stroke-linecap="round" stroke-linejoin="round" stroke-miterlimit="4.82" stroke-width="1"/>
        <path id="Trazado_997608" data-name="Trazado 997608" d="M3226.75,485.125l1.318,1.4,2.307,19.2" transform="translate(-3172.477 -437.294)" fill="none" stroke="#010101" stroke-linecap="round" stroke-linejoin="round" stroke-miterlimit="4.82" stroke-width="1"/>
        <path id="Trazado_997609" data-name="Trazado 997609" d="M3542.4,408.437s-4.944,13.266,4.779,15.491" transform="translate(-3436.878 -372.801)" fill="none" stroke="#010101" stroke-linecap="round" stroke-linejoin="round" stroke-miterlimit="4.82" stroke-width="1"/>
        <line id="Línea_3399" data-name="Línea 3399" x2="7.332" y2="3.213" transform="translate(44.716 50.385)" fill="none" stroke="#010101" stroke-linecap="round" stroke-linejoin="round" stroke-miterlimit="4.82" stroke-width="1"/>
        <line id="Línea_3400" data-name="Línea 3400" x2="8.981" y2="4.037" transform="translate(47.104 59.531)" fill="none" stroke="#010101" stroke-linecap="round" stroke-linejoin="round" stroke-miterlimit="4.82" stroke-width="1"/>
        <line id="Línea_3401" data-name="Línea 3401" x2="7.498" y2="2.389" transform="translate(39.855 65.876)" fill="none" stroke="#010101" stroke-linecap="round" stroke-linejoin="round" stroke-miterlimit="4.82" stroke-width="1"/>
        <line id="Línea_3402" data-name="Línea 3402" y1="7.251" x2="3.707" transform="translate(89.457 33.494)" fill="none" stroke="#010101" stroke-linecap="round" stroke-linejoin="round" stroke-miterlimit="4.82" stroke-width="1"/>
        <path id="Trazado_997610" data-name="Trazado 997610" d="M3423.14,333.919l11.948,8.981s-6.386,16.6-7.251,24.637c8.034-1.73,12.607,2.719,12.607,2.719,12.408-41.653,18.309-26.3-15.544-53.759" transform="translate(-3337.637 -295.481)" fill="none" stroke="#010101" stroke-linecap="round" stroke-linejoin="round" stroke-miterlimit="4.82" stroke-width="1"/>
        <path id="Trazado_997611" data-name="Trazado 997611" d="M3513.17,532.7s-6.757-3.461-9.723-3.131" transform="translate(-3405.175 -474.653)" fill="none" stroke="#010101" stroke-linecap="round" stroke-linejoin="round" stroke-miterlimit="4.82" stroke-width="1"/>
        <path id="Trazado_997612" data-name="Trazado 997612" d="M3456.82,605.5s6.427-1.154,10.547.659" transform="translate(-3365.962 -538.221)" fill="none" stroke="#010101" stroke-linecap="round" stroke-linejoin="round" stroke-miterlimit="4.82" stroke-width="1"/>
        <line id="Línea_3403" data-name="Línea 3403" y1="9.064" x2="34.276" transform="translate(41.914 68.76)" fill="none" stroke="#010101" stroke-linecap="round" stroke-linejoin="round" stroke-miterlimit="4.82" stroke-width="1"/>
        <path id="Trazado_997613" data-name="Trazado 997613" d="M3280.64,644.762c.659,0,20.269-6.262,20.269-6.262" transform="translate(-3217.798 -566.28)" fill="none" stroke="#010101" stroke-linecap="round" stroke-linejoin="round" stroke-miterlimit="4.82" stroke-width="1"/>
        <path id="Trazado_997614" data-name="Trazado 997614" d="M3168.2,783.169l8.9-.988,14.831-56.113" transform="translate(-3123.237 -639.924)" fill="none" stroke="#f0f8ff" stroke-linecap="round" stroke-linejoin="round" stroke-miterlimit="4.82" stroke-width="1"/>
        <path id="Trazado_997615" data-name="Trazado 997615" d="M3423,690.316l7.91,61.8-10.875.247" transform="translate(-3335.022 -609.856)" fill="none" stroke="#f0f8ff" stroke-linecap="round" stroke-linejoin="round" stroke-miterlimit="4.82" stroke-width="1"/>
        <path id="Trazado_997616" data-name="Trazado 997616" d="M3382.72,859.754c10.052.478,7.768,8.06,1.319,9.888" transform="translate(-3303.645 -752.35)" fill="none" stroke="#f0f8ff" stroke-linecap="round" stroke-linejoin="round" stroke-miterlimit="4.82" stroke-width="1"/>
        <path id="Trazado_997617" data-name="Trazado 997617" d="M3197.786,845.764c7.056,4.165,6,10.667-2.637,11.535" transform="translate(-3145.901 -740.585)" fill="none" stroke="#f0f8ff" stroke-linecap="round" stroke-linejoin="round" stroke-miterlimit="4.82" stroke-width="1"/>
        <line id="Línea_3404" data-name="Línea 3404" x2="1.151" y2="4.046" transform="translate(62.019 20.72)" fill="none" stroke="#010101" stroke-linecap="round" stroke-linejoin="round" stroke-miterlimit="4.82" stroke-width="1"/>
        <line id="Línea_3405" data-name="Línea 3405" x2="1.767" y2="4.395" transform="translate(68.48 18.349)" fill="none" stroke="#010101" stroke-linecap="round" stroke-linejoin="round" stroke-miterlimit="4.82" stroke-width="1"/>
        <path id="Trazado_997618" data-name="Trazado 997618" d="M3270.61,326.616s8.357,4.743,11.731-3.221" transform="translate(-3209.363 -301.282)" fill="none" stroke="#010101" stroke-linecap="round" stroke-linejoin="round" stroke-miterlimit="4.82" stroke-width="1"/>
      </g>
    </g>
  </g>
</svg>
