<svg xmlns="http://www.w3.org/2000/svg" width="80" height="80" viewBox="0 0 80 80">
  <g id="Grupo_1178797" data-name="Grupo 1178797" transform="translate(-617.063 -6122)">
    <rect id="Rectángulo_455145" data-name="Rectángulo 455145" width="80" height="80" rx="10" transform="translate(617.063 6122)" fill="#e795ff"/>
    <g id="layer1" transform="translate(619.344 6131)">
      <g id="g912" transform="translate(13.72 0)">
        <path id="path922-9" d="M54.04,1.909a6.445,6.445,0,0,0-6.445,6.445V25.824H28.519V8.784a6.445,6.445,0,1,0-12.89,0v46.97a6.445,6.445,0,0,0,12.89,0V38.714H47.595V55.325a6.445,6.445,0,1,0,12.89,0V8.354A6.445,6.445,0,0,0,54.04,1.909Z" transform="translate(-14.555 -0.835)" fill="#e3482c"/>
        <path id="path1044-0" d="M31.118,82.371a2.148,2.148,0,0,0-2.148,2.148v6.007a4.582,4.582,0,0,1-.595,2.071,2.148,2.148,0,0,0,2.672,3.365,6.551,6.551,0,0,0,2.22-5.436V84.52a2.148,2.148,0,0,0-2.148-2.148Z" transform="translate(-19.776 -36.037)" fill="#c1331a"/>
        <path id="path1032-2" d="M76.777,5.917A4.517,4.517,0,0,0,75.172,8a7.587,7.587,0,0,0-.533,2.67v0l.008,7.105a1.074,1.074,0,0,0,2.148,0l-.008-7.105a5.98,5.98,0,0,1,.359-1.822,2.862,2.862,0,0,1,.81-1.137,1.074,1.074,0,0,0,.309-1.487c-.464-.522-.886-.7-1.488-.308Z" transform="translate(-40.372 -2.495)" fill="#fff"/>
        <path id="path1032" d="M20.416,6.3a1.074,1.074,0,0,0-.567.176,4.517,4.517,0,0,0-1.605,2.085,6.1,6.1,0,0,0-.533,2.372v0l.008,7.105a1.074,1.074,0,0,0,2.148,0l-.008-7.105a4.439,4.439,0,0,1,.359-1.524,2.862,2.862,0,0,1,.81-1.137A1.074,1.074,0,0,0,20.416,6.3Z" transform="translate(-15.466 -2.755)" fill="#fff"/>
        <path id="path1044" d="M87.918,82.371A2.148,2.148,0,0,0,85.77,84.52v6.007a4.582,4.582,0,0,1-.595,2.071,2.148,2.148,0,0,0,2.672,3.365,6.551,6.551,0,0,0,2.22-5.436V84.52a2.148,2.148,0,0,0-2.148-2.148Z" transform="translate(-44.626 -36.037)" fill="#c1331a"/>
        <path id="path1048" d="M53.2,0a7.535,7.535,0,0,0-7.519,7.519v16.4H28.758V7.95a7.519,7.519,0,0,0-15.038,0V54.919a7.519,7.519,0,0,0,15.038,0V38.953H45.685V54.489a7.519,7.519,0,1,0,15.038,0V7.519A7.535,7.535,0,0,0,53.2,0Zm0,2.148a5.355,5.355,0,0,1,5.371,5.371v46.97a5.371,5.371,0,1,1-10.741,0V37.879A1.074,1.074,0,0,0,46.759,36.8H27.684a1.074,1.074,0,0,0-1.074,1.074v17.04a5.371,5.371,0,0,1-10.741,0V7.949a5.371,5.371,0,0,1,10.741,0V24.99a1.074,1.074,0,0,0,1.074,1.074H46.759a1.074,1.074,0,0,0,1.074-1.074V7.519A5.354,5.354,0,0,1,53.2,2.148Z" transform="translate(-13.72 0)"/>
      </g>
    </g>
  </g>
</svg>
