<svg xmlns="http://www.w3.org/2000/svg" width="80" height="80" viewBox="0 0 80 80">
  <g id="Grupo_1178857" data-name="Grupo 1178857" transform="translate(-320.063 -6595)">
    <rect id="Rectángulo_455150" data-name="Rectángulo 455150" width="80" height="80" rx="10" transform="translate(320.063 6595)" fill="#e795ff"/>
    <g id="Grupo_1178856" data-name="Grupo 1178856" transform="translate(318.684 6607)">
      <g id="Grupo_1178854" data-name="Grupo 1178854" transform="translate(16.197 0.817)">
        <g id="Grupo_1178801" data-name="Grupo 1178801" transform="translate(12.187)">
          <g id="Grupo_1178800" data-name="Grupo 1178800">
            <g id="Grupo_1178799" data-name="Grupo 1178799">
              <g id="Grupo_1178798" data-name="Grupo 1178798">
                <path id="Trazado_998821" data-name="Trazado 998821" d="M161.3,22.365l.076-11.908a1.592,1.592,0,0,0-2.714-1.115l-2.849,2.835a1.592,1.592,0,0,1-2.251-.005l-4.4-4.2a1.592,1.592,0,0,0-2.251-.005L142.5,12.146a1.592,1.592,0,0,1-2.251-.005L137.41,9.292a1.591,1.591,0,0,0-2.719,1.1l.018,11.908Z" transform="translate(-134.691 -7.5)" fill="#f9d75a"/>
              </g>
            </g>
          </g>
        </g>
        <g id="Grupo_1178806" data-name="Grupo 1178806" transform="translate(35.511 1.376)">
          <g id="Grupo_1178805" data-name="Grupo 1178805">
            <g id="Grupo_1178804" data-name="Grupo 1178804">
              <g id="Grupo_1178803" data-name="Grupo 1178803">
                <g id="Grupo_1178802" data-name="Grupo 1178802">
                  <path id="Trazado_998822" data-name="Trazado 998822" d="M349.322,20.593l-.647.644a1.63,1.63,0,0,1,.073.471l-.076,11.9,3.288.008.076-11.908a1.591,1.591,0,0,0-2.714-1.115Z" transform="translate(-348.672 -20.127)" fill="#f8cb3c"/>
                </g>
              </g>
            </g>
          </g>
        </g>
        <g id="Grupo_1178810" data-name="Grupo 1178810" transform="translate(7.639 18.122)">
          <g id="Grupo_1178809" data-name="Grupo 1178809">
            <g id="Grupo_1178808" data-name="Grupo 1178808">
              <g id="Grupo_1178807" data-name="Grupo 1178807">
                <path id="Trazado_998823" data-name="Trazado 998823" d="M98.1,181.833l-2.507-.006a2.639,2.639,0,0,1-2.633-2.645l.005-2.216a3.22,3.22,0,0,1,3.227-3.212l1.927,0Z" transform="translate(-92.963 -173.754)" fill="#f8d48b"/>
              </g>
            </g>
          </g>
        </g>
        <g id="Grupo_1178814" data-name="Grupo 1178814" transform="translate(38.191 18.188)">
          <g id="Grupo_1178813" data-name="Grupo 1178813">
            <g id="Grupo_1178812" data-name="Grupo 1178812">
              <g id="Grupo_1178811" data-name="Grupo 1178811">
                <path id="Trazado_998824" data-name="Trazado 998824" d="M374.329,182.435l1.4.006a2.654,2.654,0,0,0,2.66-2.647l.005-2.183a3.238,3.238,0,0,0-3.23-3.245l-1.909,0Z" transform="translate(-373.253 -174.361)" fill="#f8d48b"/>
              </g>
            </g>
          </g>
        </g>
        <g id="Grupo_1178818" data-name="Grupo 1178818" transform="translate(0 34.848)">
          <g id="Grupo_1178817" data-name="Grupo 1178817">
            <g id="Grupo_1178816" data-name="Grupo 1178816">
              <g id="Grupo_1178815" data-name="Grupo 1178815">
                <path id="Trazado_998825" data-name="Trazado 998825" d="M72.44,346.528h-48.3a1.259,1.259,0,0,1-1.241-1.47l.472-2.772A18.123,18.123,0,0,1,41.236,327.2H55.343A18.124,18.124,0,0,1,73.21,342.286l.472,2.772A1.259,1.259,0,0,1,72.44,346.528Z" transform="translate(-22.879 -327.203)" fill="#4bb175"/>
              </g>
            </g>
          </g>
        </g>
        <g id="Grupo_1178822" data-name="Grupo 1178822" transform="translate(7.328 34.848)">
          <g id="Grupo_1178821" data-name="Grupo 1178821">
            <g id="Grupo_1178820" data-name="Grupo 1178820">
              <g id="Grupo_1178819" data-name="Grupo 1178819">
                <path id="Trazado_998826" data-name="Trazado 998826" d="M90.1,346.529h36.165V330.947A18.08,18.08,0,0,0,115.24,327.2H101.133A18.08,18.08,0,0,0,90.1,330.947Z" transform="translate(-90.104 -327.204)" fill="#ade080"/>
              </g>
            </g>
          </g>
        </g>
        <g id="Grupo_1178826" data-name="Grupo 1178826" transform="translate(12.643 13.099)">
          <g id="Grupo_1178825" data-name="Grupo 1178825">
            <g id="Grupo_1178824" data-name="Grupo 1178824">
              <g id="Grupo_1178823" data-name="Grupo 1178823">
                <path id="Trazado_998827" data-name="Trazado 998827" d="M138.9,127.677l-.039,16.03a18.148,18.148,0,0,0,7.109,14.449,9.37,9.37,0,0,0,11.363.028,18.148,18.148,0,0,0,7.179-14.414l.039-16.03Z" transform="translate(-138.866 -127.677)" fill="#f8d48b"/>
              </g>
            </g>
          </g>
        </g>
        <g id="Grupo_1178836" data-name="Grupo 1178836" transform="translate(7.456 16.685)">
          <g id="Grupo_1178830" data-name="Grupo 1178830">
            <g id="Grupo_1178829" data-name="Grupo 1178829">
              <g id="Grupo_1178828" data-name="Grupo 1178828">
                <g id="Grupo_1178827" data-name="Grupo 1178827">
                  <path id="Trazado_998828" data-name="Trazado 998828" d="M126.8,177.707a132.3,132.3,0,0,1-4.355-16.655l-2.8-.43,1.457,9.434a3.485,3.485,0,0,1-2.194,3.818,3.354,3.354,0,0,1-2.63-.126,2.7,2.7,0,0,1-1.189-1.034,1.216,1.216,0,0,1-.2-.569v-.025a1.718,1.718,0,0,0-1.714-1.719l-3.946-.01-3.946-.01a1.718,1.718,0,0,0-1.722,1.711v.025a1.215,1.215,0,0,1-.2.568,2.7,2.7,0,0,1-1.194,1.028,3.353,3.353,0,0,1-2.63.114A3.484,3.484,0,0,1,97.362,170l1.5-9.426-2.8.417a132.286,132.286,0,0,1-4.436,16.633c-1.118,3.145.774,5.843,2.227,7.332a3.427,3.427,0,0,1,.962,1.95,6.249,6.249,0,0,0,6.038,5.471h.166a3.126,3.126,0,0,1,2.91,1.892,5.536,5.536,0,0,0,10.491.026,3.126,3.126,0,0,1,2.919-1.878h.166a6.249,6.249,0,0,0,6.064-5.442,3.426,3.426,0,0,1,.971-1.946C126,183.546,127.907,180.858,126.8,177.707Z" transform="translate(-91.287 -160.572)" fill="#c47836"/>
                </g>
              </g>
            </g>
          </g>
          <g id="Grupo_1178835" data-name="Grupo 1178835" transform="translate(13.766 0.025)">
            <g id="Grupo_1178834" data-name="Grupo 1178834">
              <g id="Grupo_1178833" data-name="Grupo 1178833">
                <g id="Grupo_1178832" data-name="Grupo 1178832">
                  <g id="Grupo_1178831" data-name="Grupo 1178831">
                    <path id="Trazado_998829" data-name="Trazado 998829" d="M239.324,177.871a132.284,132.284,0,0,1-4.4-16.644l-2.8-.423.852,5.429c.732,2.941,1.7,6.427,2.838,9.665,1.111,3.148-.788,5.841-2.245,7.327a3.426,3.426,0,0,0-.967,1.948,6.249,6.249,0,0,1-6.051,5.456h-.166a3.126,3.126,0,0,0-2.915,1.885,5.086,5.086,0,0,1-5.9,3.683,5.411,5.411,0,0,0,9.4-1.71A3.126,3.126,0,0,1,229.9,192.6h.166a6.249,6.249,0,0,0,6.051-5.456,3.426,3.426,0,0,1,.967-1.948c1.456-1.486,3.356-4.179,2.245-7.327Z" transform="translate(-217.578 -160.804)" fill="#ac692e"/>
                  </g>
                </g>
              </g>
            </g>
          </g>
        </g>
        <g id="Grupo_1178840" data-name="Grupo 1178840" transform="translate(22.969 21.255)">
          <g id="Grupo_1178839" data-name="Grupo 1178839">
            <g id="Grupo_1178838" data-name="Grupo 1178838">
              <g id="Grupo_1178837" data-name="Grupo 1178837">
                <path id="Trazado_998830" data-name="Trazado 998830" d="M236.009,202.5a1.492,1.492,0,0,0-1.462,1.179l-.913,4.258a1.492,1.492,0,0,0,1.455,1.8l1.805,0a1.492,1.492,0,0,0,1.464-1.8l-.892-4.262A1.491,1.491,0,0,0,236.009,202.5Z" transform="translate(-233.601 -202.504)" fill="#f8d48b"/>
              </g>
            </g>
          </g>
        </g>
        <g id="Grupo_1178844" data-name="Grupo 1178844" transform="translate(10.439 12.031)">
          <g id="Grupo_1178843" data-name="Grupo 1178843">
            <g id="Grupo_1178842" data-name="Grupo 1178842">
              <g id="Grupo_1178841" data-name="Grupo 1178841">
                <path id="Trazado_998831" data-name="Trazado 998831" d="M148.683,123.394a.84.84,0,0,1-1.005.634l-3.174-.718a49.757,49.757,0,0,0-21.6-.053l-3.177.7a.84.84,0,0,1-1-.639,3.379,3.379,0,0,1,2.569-4.03l.7-.154a54,54,0,0,1,23.439.057l.7.158A3.38,3.38,0,0,1,148.683,123.394Z" transform="translate(-118.648 -117.879)" fill="#edebeb"/>
              </g>
            </g>
          </g>
        </g>
        <g id="Grupo_1178849" data-name="Grupo 1178849" transform="translate(35.352 12.96)">
          <g id="Grupo_1178848" data-name="Grupo 1178848">
            <g id="Grupo_1178847" data-name="Grupo 1178847">
              <g id="Grupo_1178846" data-name="Grupo 1178846">
                <g id="Grupo_1178845" data-name="Grupo 1178845">
                  <path id="Trazado_998832" data-name="Trazado 998832" d="M349.779,126.941l-.7-.158q-.933-.211-1.874-.387a4.223,4.223,0,0,1,1.833,4.47,1.111,1.111,0,0,1-.067.22l2.35.532a.84.84,0,0,0,1.005-.634A3.379,3.379,0,0,0,349.779,126.941Z" transform="translate(-347.207 -126.396)" fill="#dfdfdf"/>
                </g>
              </g>
            </g>
          </g>
        </g>
        <g id="Grupo_1178853" data-name="Grupo 1178853" transform="translate(23.337 3.839)">
          <g id="Grupo_1178852" data-name="Grupo 1178852">
            <g id="Grupo_1178851" data-name="Grupo 1178851">
              <g id="Grupo_1178850" data-name="Grupo 1178850">
                <path id="Trazado_998833" data-name="Trazado 998833" d="M240.636,46.948l-.848.848a.932.932,0,0,1-1.318,0l-.848-.848a2.2,2.2,0,0,1,0-3.1L238.47,43a.932.932,0,0,1,1.318,0l.848.848A2.195,2.195,0,0,1,240.636,46.948Z" transform="translate(-236.978 -42.722)" fill="#55c7fd"/>
              </g>
            </g>
          </g>
        </g>
      </g>
      <g id="Grupo_1178855" data-name="Grupo 1178855" transform="translate(15.38 0)">
        <path id="Trazado_998834" data-name="Trazado 998834" d="M67.805,53.383l-.472-2.772a18.951,18.951,0,0,0-1.518-4.859.818.818,0,1,0-1.481.693,17.32,17.32,0,0,1,1.387,4.44l.472,2.772a.442.442,0,0,1-.435.516H60.508v-13a17.336,17.336,0,0,1,1.961,2.177.818.818,0,0,0,1.3-.987,18.964,18.964,0,0,0-3.789-3.759,6.526,6.526,0,0,0-.041-4.24c-.761-2.174-1.442-4.467-2.026-6.627a3.482,3.482,0,0,0,2.422-3.3l.005-2.183A4.06,4.06,0,0,0,57.5,18.376a4.2,4.2,0,0,0-1.678-4.168L55.891,3.78V3.768a2.409,2.409,0,0,0-4.108-1.687L48.934,4.916a.769.769,0,0,1-.546.225h0a.769.769,0,0,1-.547-.228L47.824,4.9l-.969-.926a.818.818,0,1,0-1.13,1.182l.963.92a2.393,2.393,0,0,0,1.694.7h.006a2.394,2.394,0,0,0,1.7-.7l2.849-2.835a.774.774,0,0,1,1.32.537L54.194,13.5l-.59-.134a54.826,54.826,0,0,0-23.8-.058l-.59.131L29.2,3.715a.774.774,0,0,1,1.323-.53L33.36,6.034a2.412,2.412,0,0,0,3.4.016l4.413-4.176.015-.014a.769.769,0,0,1,.546-.225h0a.769.769,0,0,1,.547.228l.015.014.95.907A.818.818,0,0,0,44.375,1.6L43.432.7A2.4,2.4,0,0,0,41.738,0h-.006a2.393,2.393,0,0,0-1.691.693L35.628,4.869l-.015.014a.775.775,0,0,1-1.095,0L31.683,2.032A2.409,2.409,0,0,0,27.567,3.7v.012l.016,10.429a4.2,4.2,0,0,0-1.7,4.16,4.06,4.06,0,0,0-2.861,3.867l-.005,2.183a3.459,3.459,0,0,0,2.274,3.268c-.6,2.17-1.293,4.471-2.071,6.66a6.544,6.544,0,0,0-.026,4.353l-.188.143,0,0a18.82,18.82,0,0,0-7.123,11.834l-.472,2.772a2.077,2.077,0,0,0,2.047,2.425h48.3a2.077,2.077,0,0,0,2.047-2.425ZM25.634,42.455a2.625,2.625,0,0,1,.736,1.483A7.1,7.1,0,0,0,33.2,50.123l.158,0H33.4a2.309,2.309,0,0,1,2.144,1.393A7.044,7.044,0,0,0,37.5,54.173H24.342V40.889a12.012,12.012,0,0,0,1.292,1.565Zm33.239-1.6V54.173H45.589a7.043,7.043,0,0,0,1.949-2.626,2.3,2.3,0,0,1,2.16-1.383h.188a7.1,7.1,0,0,0,6.861-6.152,2.625,2.625,0,0,1,.743-1.479A11.931,11.931,0,0,0,58.872,40.851Zm-.164-18.6L58.7,24.436a1.841,1.841,0,0,1-1.2,1.719c-.661-2.571-1.164-4.839-1.478-6.328h.274a2.42,2.42,0,0,1,2.414,2.426ZM27.856,16.184a2.545,2.545,0,0,1,1.607-1.124l.7-.154a53.183,53.183,0,0,1,23.082.056l.7.158a2.562,2.562,0,0,1,1.933,3.064s0,.005-.006.008H55.8l-3.13-.709a50.58,50.58,0,0,0-21.953-.053l-3.177.7a.023.023,0,0,1-.027-.017,2.545,2.545,0,0,1,.341-1.931ZM44.547,26.511l-.2-.979a.818.818,0,1,0-1.6.335l.381,1.822a.674.674,0,0,1-.66.812h0l-1.805,0A.674.674,0,0,1,40,27.681l.39-1.82a.818.818,0,0,0-1.6-.343l-.21.978-.926,0h-.006a2.539,2.539,0,0,0-2.535,2.522.934.934,0,0,1-.089.183,1.9,1.9,0,0,1-.841.706,2.546,2.546,0,0,1-1.995.086,2.664,2.664,0,0,1-1.653-2.933l1.307-8.195a48.984,48.984,0,0,1,19.549.017l1.271,8.231A2.664,2.664,0,0,1,51,30.036a2.546,2.546,0,0,1-1.994-.1,1.9,1.9,0,0,1-.837-.71.933.933,0,0,1-.088-.183,2.539,2.539,0,0,0-2.529-2.535ZM24.654,24.354l.005-2.183a2.42,2.42,0,0,1,2.42-2.414h.008a.826.826,0,0,0,.129-.011c-.33,1.531-.838,3.766-1.5,6.281a1.829,1.829,0,0,1-1.066-1.673Zm.108,10.472A128.487,128.487,0,0,0,28.941,19.5l1.187-.263L28.921,26.8a4.3,4.3,0,0,0,2.7,4.723,4.169,4.169,0,0,0,3.266-.141,3.514,3.514,0,0,0,1.547-1.35,1.954,1.954,0,0,0,.317-.981v-.025a.9.9,0,0,1,.9-.9h0l.719,0a2.31,2.31,0,0,0,2.283,2l1.805,0h.006a2.31,2.31,0,0,0,2.287-1.99l.792,0a.9.9,0,0,1,.9.9v.026a1.955,1.955,0,0,0,.312.983,3.515,3.515,0,0,0,1.54,1.357,4.169,4.169,0,0,0,3.265.157,4.3,4.3,0,0,0,2.721-4.71l-1.175-7.6,1.184.268A129.492,129.492,0,0,0,58.4,34.908c.515,1.472.574,3.79-2.074,6.477a4.269,4.269,0,0,0-1.2,2.412,5.455,5.455,0,0,1-5.266,4.731h-.146A3.947,3.947,0,0,0,46.035,50.9a5.388,5.388,0,0,1-4.5,3.256,5.388,5.388,0,0,1-4.486-3.278,3.942,3.942,0,0,0-3.666-2.391h-.146a5.455,5.455,0,0,1-5.244-4.757A4.27,4.27,0,0,0,26.8,41.313c-2.634-2.7-2.564-5.018-2.042-6.487Zm-7.643,19.19a.436.436,0,0,1-.1-.359l.472-2.772a17.186,17.186,0,0,1,5.214-9.715v13H17.456A.436.436,0,0,1,17.119,54.016Z" transform="translate(-15.38 0)"/>
        <path id="Trazado_998835" data-name="Trazado 998835" d="M205.209,202.194h0a.818.818,0,0,0-.818.815l0,.76a.818.818,0,0,0,.815.82h0a.818.818,0,0,0,.818-.815l0-.76A.817.817,0,0,0,205.209,202.194Z" transform="translate(-183.786 -180.155)"/>
        <path id="Trazado_998836" data-name="Trazado 998836" d="M294.774,202.412h0a.818.818,0,0,0-.818.816l0,.76a.818.818,0,0,0,.816.819h0a.818.818,0,0,0,.818-.816l0-.76A.817.817,0,0,0,294.774,202.412Z" transform="translate(-263.588 -180.349)"/>
        <path id="Trazado_998837" data-name="Trazado 998837" d="M193.426,176.695a3.841,3.841,0,0,0-3.173.57.819.819,0,0,0,.5,1.469.807.807,0,0,0,.495-.169,2.182,2.182,0,0,1,1.761-.29.817.817,0,0,0,.421-1.58Z" transform="translate(-170.905 -157.321)"/>
        <path id="Trazado_998838" data-name="Trazado 998838" d="M286.963,178.484a2.181,2.181,0,0,1,1.759.3.817.817,0,0,0,1-1.295,3.843,3.843,0,0,0-3.171-.585.818.818,0,0,0,.413,1.582Z" transform="translate(-256.448 -157.51)"/>
        <path id="Trazado_998839" data-name="Trazado 998839" d="M223.779,298.663h.014a5.284,5.284,0,0,0,3.746-1.513.817.817,0,1,0-1.149-1.163,3.71,3.71,0,0,1-2.6,1.041h-.009a3.71,3.71,0,0,1-2.6-1.053.818.818,0,0,0-1.155,1.157A5.286,5.286,0,0,0,223.779,298.663Z" transform="translate(-197.506 -263.5)"/>
        <path id="Trazado_998840" data-name="Trazado 998840" d="M233.683,35.741a1.752,1.752,0,0,0-2.474,0l-.848.849a3.013,3.013,0,0,0,0,4.26l.849.849a1.752,1.752,0,0,0,2.474,0l.849-.848a3.016,3.016,0,0,0,0-4.26Zm-.308,3.953-.849.848a.115.115,0,0,1-.162,0l-.848-.848a1.378,1.378,0,0,1,0-1.948l.848-.848a.115.115,0,0,1,.162,0l.849.849A1.379,1.379,0,0,1,233.376,39.694Z" transform="translate(-206.141 -31.389)"/>
        <path id="Trazado_998841" data-name="Trazado 998841" d="M162.256,70.335a.818.818,0,0,0-.552,1.016l.369,1.249a.817.817,0,0,0,1.568-.464l-.369-1.249a.818.818,0,0,0-1.016-.552Z" transform="translate(-145.725 -62.638)"/>
        <path id="Trazado_998842" data-name="Trazado 998842" d="M334.172,73.187a.818.818,0,0,0,.784-.586l.369-1.249a.818.818,0,1,0-1.568-.464l-.369,1.249a.818.818,0,0,0,.784,1.049Z" transform="translate(-298.694 -62.639)"/>
      </g>
    </g>
  </g>
</svg>
