<svg xmlns="http://www.w3.org/2000/svg" width="61.899" height="61.899" viewBox="0 0 61.899 61.899">
  <g id="Grupo_1177512" data-name="Grupo 1177512" transform="translate(0 0)">
    <g id="Grupo_1072053" data-name="Grupo 1072053" transform="translate(0 0)">
      <ellipse id="Elipse_4742" data-name="Elipse 4742" cx="30.949" cy="30.949" rx="30.949" ry="30.949" transform="translate(0)" fill="#fcc510"/>
    </g>
    <g id="Grupo_1177510" data-name="Grupo 1177510" transform="translate(11.419 -27.394)">
      <g id="Grupo_1177499" data-name="Grupo 1177499" transform="translate(0 42.027)">
        <g id="Grupo_1177498" data-name="Grupo 1177498" transform="translate(0 0)">
          <path id="Trazado_993785" data-name="Trazado 993785" d="M8.811,67.937,8.06,69.6V46.791L8.7,48.635l1.811,1.827,2.186-2.1L6.363,42.027.016,48.374,2.2,50.463,4.03,48.651,4.8,46.661V69.749l-.751-1.7L2.2,66.224,0,68.3,6.363,74.66l6.3-6.3-2.154-2.137Z" transform="translate(0 -42.027)" fill="#12263f"/>
        </g>
      </g>
      <g id="Grupo_1177501" data-name="Grupo 1177501" transform="translate(16.218 66.502)">
        <g id="Grupo_1177500" data-name="Grupo 1177500">
          <rect id="Rectángulo_454790" data-name="Rectángulo 454790" width="14.685" height="3.263" fill="#12263f"/>
        </g>
      </g>
      <g id="Grupo_1177503" data-name="Grupo 1177503" transform="translate(16.218 50.185)">
        <g id="Grupo_1177502" data-name="Grupo 1177502">
          <rect id="Rectángulo_454791" data-name="Rectángulo 454791" width="13.053" height="3.263" fill="#12263f"/>
        </g>
      </g>
      <g id="Grupo_1177505" data-name="Grupo 1177505" transform="translate(16.218 43.659)">
        <g id="Grupo_1177504" data-name="Grupo 1177504" transform="translate(0 0)">
          <rect id="Rectángulo_454792" data-name="Rectángulo 454792" width="22.843" height="3.263" fill="#12263f"/>
        </g>
      </g>
      <g id="Grupo_1177507" data-name="Grupo 1177507" transform="translate(16.218 59.975)">
        <g id="Grupo_1177506" data-name="Grupo 1177506">
          <rect id="Rectángulo_454793" data-name="Rectángulo 454793" width="21.211" height="3.263" fill="#12263f"/>
        </g>
      </g>
      <g id="Grupo_1177509" data-name="Grupo 1177509" transform="translate(32.535 50.185)">
        <g id="Grupo_1177508" data-name="Grupo 1177508">
          <rect id="Rectángulo_454794" data-name="Rectángulo 454794" width="6.527" height="3.263" fill="#12263f"/>
        </g>
      </g>
    </g>
  </g>
</svg>
