<svg xmlns="http://www.w3.org/2000/svg" width="128" height="128" viewBox="0 0 128 128">
  <g id="Grupo_1177722" data-name="Grupo 1177722" transform="translate(-72.746 -7992)">
    <g id="Elipse_13628" data-name="Elipse 13628" transform="translate(72.746 7992)" fill="#fff7e2" stroke="#cff878" stroke-width="6">
      <circle cx="64" cy="64" r="64" stroke="none"/>
      <circle cx="64" cy="64" r="61" fill="none"/>
    </g>
    <g id="Grupo_1177787" data-name="Grupo 1177787" transform="translate(95.955 7989.623)">
      <g id="Grupo_1177786" data-name="Grupo 1177786" transform="translate(3.859 41.024)">
        <g id="Grupo_1177772" data-name="Grupo 1177772" transform="translate(3.995 1.096)">
          <g id="Grupo_1177770" data-name="Grupo 1177770">
            <path id="Trazado_994947" data-name="Trazado 994947" d="M17.288,46.467H31.369V60.548H17.288Z" transform="translate(-17.288 -46.467)" fill="#72c1e8"/>
          </g>
          <g id="Grupo_1177771" data-name="Grupo 1177771" transform="translate(1.636 1.636)">
            <path id="Trazado_994948" data-name="Trazado 994948" d="M32.853,62.775H27.6a.744.744,0,0,1,0-1.488h4.513V52.711a.744.744,0,0,1,1.488,0v9.321a.744.744,0,0,1-.744.744Zm-8.232,0H23.532a.744.744,0,1,1,0-1.488h1.089a.744.744,0,0,1,0,1.488Z" transform="translate(-22.788 -51.967)" fill="#c5e5ff"/>
          </g>
        </g>
        <g id="Grupo_1177775" data-name="Grupo 1177775" transform="translate(28.803 1.096)">
          <g id="Grupo_1177773" data-name="Grupo 1177773">
            <path id="Trazado_994949" data-name="Trazado 994949" d="M108.8,46.467l8.13,14.081H100.674Z" transform="translate(-100.674 -46.467)" fill="#fc5d3d"/>
          </g>
          <g id="Grupo_1177774" data-name="Grupo 1177774" transform="translate(3.379 4.016)">
            <path id="Trazado_994950" data-name="Trazado 994950" d="M120.789,68.395h-4.183a.744.744,0,0,1,0-1.488H119.5l-3.363-5.825a.744.744,0,1,1,1.288-.744l4.007,6.941A.744.744,0,0,1,120.789,68.395Zm-7.158,0h-.856a.744.744,0,0,1,0-1.488h.856a.744.744,0,1,1,0,1.488Z" transform="translate(-112.031 -59.966)" fill="#ffcbc3"/>
          </g>
        </g>
        <g id="Grupo_1177778" data-name="Grupo 1177778" transform="translate(55.242 0)">
          <g id="Grupo_1177776" data-name="Grupo 1177776">
            <circle id="Elipse_13634" data-name="Elipse 13634" cx="7.589" cy="7.589" r="7.589" fill="#13bf6d"/>
          </g>
          <g id="Grupo_1177777" data-name="Grupo 1177777" transform="translate(3.162 3.162)">
            <path id="Trazado_994951" data-name="Trazado 994951" d="M204.338,63.782A.744.744,0,0,1,204.4,62.3a4.465,4.465,0,0,0,3.349-7.615.744.744,0,0,1,1.052-1.052,5.952,5.952,0,0,1-4.464,10.153Zm-3.175-1.08a6.015,6.015,0,0,1-.778-.656.744.744,0,0,1,1.052-1.052,4.5,4.5,0,0,0,.584.492.744.744,0,1,1-.858,1.216Z" transform="translate(-200.167 -53.41)" fill="#76ffba"/>
          </g>
        </g>
        <g id="Grupo_1177779" data-name="Grupo 1177779" transform="translate(0.744 22.521)">
          <path id="Trazado_994952" data-name="Trazado 994952" d="M16.651,118.482c-5.684,0-10.292,1.246-10.292,2.782v22.621c0,3.664,20.584,3.664,20.584,0V121.264c0-1.536-4.608-2.782-10.292-2.782Z" transform="translate(-6.359 -118.482)" fill="#72c1e8"/>
        </g>
        <g id="Grupo_1177780" data-name="Grupo 1177780" transform="translate(2.463 29.755)">
          <path id="Trazado_994953" data-name="Trazado 994953" d="M20.984,161.593c-4.414,0-7.672-.888-8.609-1.765a.744.744,0,0,1-.236-.543V143.539a.744.744,0,0,1,1.488,0V158.9c.8.434,3.243,1.206,7.357,1.206a.744.744,0,0,1,0,1.488Zm2.23-.813a.744.744,0,0,1,.665-.815,13.543,13.543,0,0,0,4.326-1,.744.744,0,0,1,.645,1.341,15.682,15.682,0,0,1-4.821,1.139.744.744,0,0,1-.815-.665Z" transform="translate(-12.139 -142.795)" fill="#c5e5ff"/>
        </g>
        <g id="Grupo_1177781" data-name="Grupo 1177781" transform="translate(26.641 22.521)">
          <path id="Trazado_994954" data-name="Trazado 994954" d="M103.7,118.482c-5.684,0-10.292,1.246-10.292,2.782v22.621c0,3.664,20.584,3.664,20.584,0V121.264c0-1.536-4.608-2.782-10.292-2.782Z" transform="translate(-93.406 -118.482)" fill="#fc5d3d"/>
        </g>
        <g id="Grupo_1177782" data-name="Grupo 1177782" transform="translate(28.361 29.755)">
          <path id="Trazado_994955" data-name="Trazado 994955" d="M108.031,161.593c-4.414,0-7.672-.888-8.609-1.765a.744.744,0,0,1-.236-.543V143.539a.744.744,0,0,1,1.488,0V158.9c.8.434,3.243,1.206,7.357,1.206a.744.744,0,0,1,0,1.488Zm2.969-.144a.744.744,0,0,1-.074-1.484,13.543,13.543,0,0,0,4.326-1,.744.744,0,0,1,.645,1.341A16.808,16.808,0,0,1,111,161.449Z" transform="translate(-99.186 -142.795)" fill="#ffcbc3"/>
        </g>
        <g id="Grupo_1177783" data-name="Grupo 1177783" transform="translate(52.538 22.521)">
          <path id="Trazado_994956" data-name="Trazado 994956" d="M190.745,118.482c-5.684,0-10.292,1.246-10.292,2.782v22.621c0,3.664,20.584,3.664,20.584,0V121.264c0-1.536-4.609-2.782-10.292-2.782Z" transform="translate(-180.453 -118.482)" fill="#13bf6d"/>
        </g>
        <g id="Grupo_1177784" data-name="Grupo 1177784" transform="translate(54.257 29.755)">
          <path id="Trazado_994957" data-name="Trazado 994957" d="M195.077,161.593c-4.414,0-7.672-.888-8.609-1.765a.744.744,0,0,1-.236-.543V143.539a.744.744,0,0,1,1.488,0V158.9c.8.434,3.243,1.206,7.357,1.206a.744.744,0,0,1,0,1.488Zm2.969-.144a.744.744,0,0,1-.074-1.484,13.543,13.543,0,0,0,4.326-1,.744.744,0,0,1,.645,1.341,15.682,15.682,0,0,1-4.821,1.139C198.1,161.448,198.072,161.449,198.046,161.449Z" transform="translate(-186.232 -142.795)" fill="#76ffba"/>
        </g>
        <g id="Grupo_1177785" data-name="Grupo 1177785" transform="translate(0 0.353)">
          <circle id="Elipse_13635" data-name="Elipse 13635" cx="0.744" cy="0.744" r="0.744" transform="translate(3.252 5.849)"/>
          <path id="Trazado_994958" data-name="Trazado 994958" d="M15.633,65.4V59.539h6.3a.746.746,0,0,0,.744-.744V44.714a.742.742,0,0,0-.744-.744H7.855a.742.742,0,0,0-.744.744v2.874a.744.744,0,1,0,1.488,0v-2.13H21.192V58.051H8.6V53.538a.744.744,0,0,0-1.488,0v5.257a.743.743,0,0,0,.744.744h6.29V65.4c-2.873.055-10.286.661-10.286,3.517V91.541c0,2.422,5.721,3.525,11.036,3.525s11.036-1.1,11.036-3.525V68.919c0-3.211-9.1-3.405-10.3-3.517ZM14.145,66.89v1.768a.744.744,0,1,0,1.488,0V66.889c5.5.105,8.811,1.412,8.811,2.03,0,1.45-7.52,2.037-9.564,2.037-5.758,0-9.462-1.326-9.532-2.038C5.434,68.206,9.025,66.963,14.145,66.89Zm-8.8,3.934c2.334,1.269,6.8,1.621,9.548,1.621,3.052,0,7.3-.414,9.549-1.622v5.69c0,.159-.209.338-.334.431-1.354,1.009-5.255,1.57-9.215,1.577-6.158.011-9.548-1.245-9.548-2.008Zm0,7.665C7.661,79.73,12.227,80,14.859,80c3.808,0,7.64-.5,9.584-1.525v5.553c0,1.09-4.655,1.992-9.549,2.027-6,.043-9.548-1.228-9.548-2.027Zm9.548,15.091c-6.2,0-9.548-1.446-9.548-2.038V86.016c2.311,1.249,6.848,1.519,9.492,1.519,3.814,0,7.656-.5,9.6-1.537v5.543c0,.591-3.346,2.038-9.549,2.038Z" transform="translate(-3.859 -43.97)"/>
          <path id="Trazado_994959" data-name="Trazado 994959" d="M123.8,161.548a.744.744,0,1,0-.744-.756A.747.747,0,0,0,123.8,161.548Z" transform="translate(-87.597 -125.522)"/>
        </g>
      </g>
      <path id="Trazado_994960" data-name="Trazado 994960" d="M102.682,65.4V59.539h7.393a.744.744,0,0,0,.643-1.116L102.59,44.343a.747.747,0,0,0-1.291,0L93.171,58.424a.744.744,0,0,0,.643,1.116h7.381V65.4c-2.862.054-10.285.663-10.285,3.517V91.542c0,2.422,5.718,3.525,11.035,3.525s11.035-1.1,11.035-3.525V68.92c0-2.82-7.482-3.517-10.3-3.517ZM95.1,58.052l6.843-11.85,6.843,11.85Zm16.39,33.49c0,.592-3.344,2.038-9.547,2.038S92.4,92.134,92.4,91.542V86.018c3.758,2.032,15.235,2.026,19.094-.018Zm0-15.024c-.039,1.145-4.933,1.8-7.337,1.937a.743.743,0,0,0,.08,1.485c2.1-.116,5.406-.467,7.256-1.455V84.03c0,2.6-19.094,2.63-19.094,0v-5.54a17.021,17.021,0,0,0,5.784,1.345.742.742,0,1,0,.134-1.479c-1.4-.131-5.879-.771-5.917-1.836v-5.7c2.332,1.27,6.866,1.621,9.547,1.621,2.749,0,7.17-.345,9.547-1.621Zm-9.562-5.56c-5.516,0-9.532-1.294-9.532-2.038,0-.485,2.814-1.91,8.779-2.029h.018v1.767a.744.744,0,1,0,1.488,0V66.891c4.665.089,8.809,1.226,8.809,2.026C111.492,70.455,103.578,70.958,101.93,70.958Z" transform="translate(-61.153 -2.593)"/>
      <path id="Trazado_994961" data-name="Trazado 994961" d="M189.727,62.81v-5.9a8.344,8.344,0,1,0-1.488,0v5.9c-2.862.054-10.285.663-10.285,3.517V88.949c0,2.422,5.718,3.525,11.035,3.525s11.035-1.1,11.035-3.525V66.327C200.024,63.506,192.542,62.81,189.727,62.81Zm-7.582-14.2a6.844,6.844,0,1,1,6.846,6.846h-.012A6.871,6.871,0,0,1,182.145,48.613Zm16.391,40.336c0,.592-3.344,2.038-9.547,2.038s-9.547-1.446-9.547-2.038V83.425c3.758,2.032,15.235,2.026,19.094-.018Zm0-15.024c-.039,1.145-4.933,1.8-7.337,1.937a.743.743,0,0,0,.08,1.485c2.1-.116,5.406-.467,7.256-1.455v5.546c0,2.6-19.094,2.63-19.094,0V75.9a17.021,17.021,0,0,0,5.784,1.345.742.742,0,1,0,.134-1.479c-1.4-.131-5.879-.771-5.917-1.836v-5.7c2.332,1.27,6.866,1.621,9.547,1.621,2.749,0,7.17-.345,9.547-1.621Zm-9.562-5.56c-5.516,0-9.532-1.294-9.532-2.038,0-.485,2.814-1.91,8.779-2.029h.018v1.767a.744.744,0,0,0,1.488,0V64.3c4.665.089,8.809,1.226,8.809,2.026C198.537,67.862,190.623,68.365,188.975,68.365Z" transform="translate(-122.301)"/>
    </g>
  </g>
</svg>
