<svg xmlns="http://www.w3.org/2000/svg" width="80" height="80" viewBox="0 0 80 80">
  <g id="Grupo_1178859" data-name="Grupo 1178859" transform="translate(-320.063 -6734)">
    <rect id="Rectángulo_455151" data-name="Rectángulo 455151" width="80" height="80" rx="10" transform="translate(320.063 6734)" fill="#e795ff"/>
    <g id="layer1" transform="translate(329.603 6747.474)">
      <g id="g1012" transform="translate(7.537 0)">
        <path id="path900" d="M43.674,3.946,31.459,18.972,19.242,3.947a5.515,5.515,0,0,0-8.557,6.959l15.26,18.767V47.615a5.515,5.515,0,1,0,11.029,0V29.674L52.233,10.9a5.515,5.515,0,0,0-8.558-6.957Z" transform="translate(-8.535 -0.998)" fill="#d0ad9a"/>
        <path id="path957-8" d="M56.242,81.367A1.838,1.838,0,0,0,54.4,83.2v5.411A2.271,2.271,0,0,1,52.958,90.3a1.838,1.838,0,0,0,.294,3.664,5.286,5.286,0,0,0,4.827-5.353V83.2a1.838,1.838,0,0,0-1.838-1.838Z" transform="translate(-30.367 -42.479)" fill="#c09177"/>
        <path id="path1005" d="M13.388.025A6.427,6.427,0,0,0,8.974,10.488L24.028,29V46.618a6.434,6.434,0,0,0,12.868,0V29L51.948,10.486h0a6.447,6.447,0,0,0-.934-9.049L50.962,1.4a6.559,6.559,0,0,0-8.989.961l-.009.011-11.5,14.149L18.957,2.369A6.438,6.438,0,0,0,13.388.025ZM46.435,1.849a5.217,5.217,0,0,1,3.439,1.035,4.578,4.578,0,0,1,.648,6.441L35.263,28.1a.919.919,0,0,0-.206.58V46.618a4.6,4.6,0,1,1-9.191,0V28.676a.919.919,0,0,0-.205-.581L10.4,9.328a4.6,4.6,0,1,1,7.131-5.8L29.748,18.554a.919.919,0,0,0,1.426,0L43.383,3.537a4.5,4.5,0,0,1,3.052-1.688Z" transform="translate(-7.537 0)"/>
        <g id="Grupo_1178858" data-name="Grupo 1178858" transform="translate(1.96 2.003)">
          <path id="path1009" d="M16.452,4.211A4.54,4.54,0,0,0,12.7,5.8a4.714,4.714,0,0,0,.159,6.152.919.919,0,1,0,1.45-1.129c-1.349-1.734-1.006-2.933-.233-3.8a2.555,2.555,0,0,1,2.816-.78.919.919,0,0,0,.893-1.607,3.462,3.462,0,0,0-1.331-.418Z" transform="translate(-11.638 -4.192)" fill="#fff"/>
          <path id="path1013" d="M83.244,4.428A4.09,4.09,0,0,0,79.9,5.711L77.055,9.162a.919.919,0,1,0,1.419,1.169l2.777-3.37a2.62,2.62,0,0,1,1.823-.7.919.919,0,1,0,.17-1.83Z" transform="translate(-45.68 -4.307)" fill="#fff"/>
        </g>
      </g>
    </g>
  </g>
</svg>
