<svg xmlns="http://www.w3.org/2000/svg" width="80" height="80" viewBox="0 0 80 80">
  <g id="Grupo_1178865" data-name="Grupo 1178865" transform="translate(-320.063 -6873)">
    <rect id="Rectángulo_455153" data-name="Rectángulo 455153" width="80" height="80" rx="10" transform="translate(320.063 6873)" fill="#e795ff"/>
    <g id="Grupo_1178864" data-name="Grupo 1178864" transform="translate(287.062 6868.653)">
      <g id="Grupo_1178863" data-name="Grupo 1178863" transform="translate(48.962 16.962)">
        <path id="Trazado_998843" data-name="Trazado 998843" d="M149,48.769a4.81,4.81,0,0,0-2.088-7.06v-10.5A7.212,7.212,0,0,0,139.7,24h-6.731a7.212,7.212,0,0,0-7.212,7.212v10.5a4.81,4.81,0,0,0-2.088,7.06,6.732,6.732,0,1,0,7.857,10.713,6.731,6.731,0,0,0,9.616,0A6.731,6.731,0,1,0,149,48.769Z" transform="translate(-112.299 -24)" fill="#fb8656"/>
        <path id="Trazado_998844" data-name="Trazado 998844" d="M174.6,85.77h-2.4v-.962h-.562a2.4,2.4,0,0,1-2.061-1.167L167.386,80l-.084.139a9.616,9.616,0,0,1-8.246,4.669h-2.248v.962h-2.4a2.4,2.4,0,0,0-2.4,2.4V90.1a2.4,2.4,0,0,0,2.4,2.4h2.4v-.037a3.606,3.606,0,0,0,1.709,3.066l4.077,2.522a3.606,3.606,0,0,0,3.808-.009l4.1-2.56a3.606,3.606,0,0,0,1.695-3.057V92.5h2.4a2.4,2.4,0,0,0,2.4-2.4V88.174A2.4,2.4,0,0,0,174.6,85.77Z" transform="translate(-140.461 -73.269)" fill="#ffd4cf"/>
        <g id="Grupo_1178861" data-name="Grupo 1178861" transform="translate(0 24.04)">
          <path id="Trazado_998845" data-name="Trazado 998845" d="M170.925,257.616H144A9.616,9.616,0,0,1,153.616,248h7.693A9.616,9.616,0,0,1,170.925,257.616Z" transform="translate(-133.422 -245.115)" fill="#4dccff"/>
          <path id="Trazado_998846" data-name="Trazado 998846" d="M225.616,226.885l-4.808,6.731L216,226.885l.962-2.885h7.693Z" transform="translate(-196.768 -224)" fill="#ffd4cf"/>
          <path id="Trazado_998847" data-name="Trazado 998847" d="M228.041,225.714,227.47,224h-7.693l-.577,1.731,1.378.853a5.77,5.77,0,0,0,6.093-.014Z" transform="translate(-199.583 -224)" fill="#fbb8b0"/>
          <g id="Grupo_1178860" data-name="Grupo 1178860" transform="translate(0 5.77)">
            <path id="Trazado_998848" data-name="Trazado 998848" d="M91.232,297.963,72,295.078V272l19.232,2.885Z" transform="translate(-70.077 -272)" fill="#fdbf67"/>
            <path id="Trazado_998849" data-name="Trazado 998849" d="M57.2,360h.962a3.606,3.606,0,0,1,3.606,3.606v.481a3.606,3.606,0,0,1-3.606,3.606H57.2a1.2,1.2,0,0,1-1.2-1.2V361.2A1.2,1.2,0,0,1,57.2,360Z" transform="translate(-56 -349.422)" fill="#ffd4cf"/>
            <path id="Trazado_998850" data-name="Trazado 998850" d="M280,297.963l19.232-2.885V272L280,274.885Z" transform="translate(-253.075 -272)" fill="#fdbf67"/>
            <path id="Trazado_998851" data-name="Trazado 998851" d="M232,296h5.77v23.078H232Z" transform="translate(-210.845 -293.115)" fill="#fb8656"/>
            <path id="Trazado_998852" data-name="Trazado 998852" d="M1.2,0h.962A3.606,3.606,0,0,1,5.77,3.606v.481A3.606,3.606,0,0,1,2.164,7.693H1.2A1.2,1.2,0,0,1,0,6.491V1.2A1.2,1.2,0,0,1,1.2,0Z" transform="translate(48.08 18.27) rotate(180)" fill="#ffd4cf"/>
          </g>
        </g>
        <g id="Grupo_1178862" data-name="Grupo 1178862" transform="translate(5.77 34.618)">
          <path id="Trazado_998853" data-name="Trazado 998853" d="M104,312l11.539,1.923v6.731L104,318.731Z" transform="translate(-104 -312)" fill="#fffdfa"/>
          <path id="Trazado_998854" data-name="Trazado 998854" d="M323.539,312,312,313.923v6.731l11.539-1.923Z" transform="translate(-286.998 -312)" fill="#fffdfa"/>
        </g>
      </g>
      <path id="Trazado_998855" data-name="Trazado 998855" d="M216,144h1.923v1.923H216Z" transform="translate(-147.806 -112.614)"/>
      <path id="Trazado_998856" data-name="Trazado 998856" d="M280,144h1.923v1.923H280Z" transform="translate(-204.114 -112.614)"/>
      <path id="Trazado_998857" data-name="Trazado 998857" d="M64.819,70.8,84.04,73.684l.064.008h0l.026,0h5.893l.026,0h0l.064-.008L97.8,72.532l-.285-1.9-6.589.988V50.484l17.309-2.6v6.576h1.923V46.771a.962.962,0,0,0-1.1-.951l-4.758.714a7.647,7.647,0,0,0-3.267-5.16,5.783,5.783,0,0,0-.877-6.012,3.345,3.345,0,0,0,.391-1.573V31.866a3.37,3.37,0,0,0-1.923-3.041V24.174A8.183,8.183,0,0,0,90.444,16h-.481v1.923h.481a6.258,6.258,0,0,1,6.25,6.25V28.5h-.962a.962.962,0,0,0-.962-.962h-.562a1.449,1.449,0,0,1-1.237-.7L90.788,23.2a.962.962,0,0,0-1.649,0l-.084.139a8.7,8.7,0,0,1-7.421,4.2H79.386a.962.962,0,0,0-.962.962h-.962V24.174a6.258,6.258,0,0,1,6.25-6.25H88.04V16H83.713a8.183,8.183,0,0,0-8.174,8.174v4.652a3.37,3.37,0,0,0-1.923,3.041V33.79a3.345,3.345,0,0,0,.391,1.573,5.783,5.783,0,0,0-.877,6.012,7.647,7.647,0,0,0-3.267,5.16L65.1,45.82a.962.962,0,0,0-1.1.951v7.693h1.923V47.888l12.358,1.854.285-1.9-1.653-.248a8.722,8.722,0,0,1,4.94-2.634l2.669,3.737h-.257l-3.775-.566-.285,1.9,3.027.454V71.618l-17.309-2.6v-1.1H64V69.85a.962.962,0,0,0,.819.951ZM92.3,44.958a8.589,8.589,0,0,1,4.945,2.634l-7.357,1.1h-.257Zm-7.148,5.66H89V71.773H85.155Zm17.237-3.8-2.928.439a10.515,10.515,0,0,0-6.839-4.2l-.681-2.043,1.642-1.026a4.539,4.539,0,0,0,2.03-2.836h1.56a3.346,3.346,0,0,0,1.615-.414,3.853,3.853,0,0,1,.151,4.458.962.962,0,0,0,.365,1.388,5.746,5.746,0,0,1,3.084,4.232Zm-5.217-16.4a1.444,1.444,0,0,1,1.442,1.442V33.79a1.444,1.444,0,0,1-1.442,1.442H95.733V30.424Zm-15.541-.962a10.641,10.641,0,0,0,8.275-3.991l1.414,2.357a3.386,3.386,0,0,0,2.487,1.609v6.68a2.629,2.629,0,0,1-1.243,2.242l-4.1,2.56a2.628,2.628,0,0,1-2.793.006L81.6,38.405a2.628,2.628,0,0,1-1.253-2.249V29.462Zm-6.095,2.4a1.444,1.444,0,0,1,1.442-1.442h1.442v4.808H76.982a1.444,1.444,0,0,1-1.442-1.442Zm-.846,15.392-2.929-.439a5.746,5.746,0,0,1,3.085-4.232.962.962,0,0,0,.365-1.388,3.853,3.853,0,0,1,.151-4.458,3.346,3.346,0,0,0,1.615.414h1.551a4.536,4.536,0,0,0,2.056,2.886l1.617,1-.673,2.021a10.665,10.665,0,0,0-6.838,4.2Zm8.644-3.533.548-1.645.78.482a4.539,4.539,0,0,0,4.824-.011l.777-.485.553,1.659-3.548,4.968h-.385Z" transform="translate(-14.077)"/>
      <path id="Trazado_998858" data-name="Trazado 998858" d="M368.714,450.874a.962.962,0,0,0,.819-.951V448H367.61v1.1l-8.8,1.32.285,1.9Z" transform="translate(-273.453 -380.073)"/>
      <path id="Trazado_998859" data-name="Trazado 998859" d="M0,0H1.923V3.9H0Z" transform="translate(63.198 68.222) rotate(-80.557)"/>
      <path id="Trazado_998860" data-name="Trazado 998860" d="M0,0H1.923V5.849H0Z" transform="translate(55.509 66.938) rotate(-80.557)"/>
      <path id="Trazado_998861" data-name="Trazado 998861" d="M0,0H1.923V9.749H0Z" transform="translate(57.432 63.414) rotate(-80.557)"/>
      <path id="Trazado_998862" data-name="Trazado 998862" d="M315.539,314.818a4.573,4.573,0,0,0,4.568,4.568h.962a2.166,2.166,0,0,0,2.164-2.164v-5.289a2.166,2.166,0,0,0-2.164-2.164h-.962a4.544,4.544,0,0,0-2.644.845v-5.653a.962.962,0,0,0-1.12-.949L304.8,305.936a.962.962,0,0,0-.8.949v6.731a.962.962,0,0,0,1.12.948l10.692-1.782a4.547,4.547,0,0,0-.272,1.555Zm4.568-3.125h.962a.24.24,0,0,1,.24.24v5.289a.24.24,0,0,1-.24.24h-.962a2.647,2.647,0,0,1-2.644-2.644v-.481A2.647,2.647,0,0,1,320.107,311.693Zm-4.568-.815-9.616,1.6V307.7l9.616-1.6Z" transform="translate(-225.229 -253.382)"/>
      <path id="Trazado_998863" data-name="Trazado 998863" d="M234.885,190.4a2.649,2.649,0,0,0,2.885-2.4h-1.923c0,.169-.365.481-.962.481s-.962-.311-.962-.481H232A2.649,2.649,0,0,0,234.885,190.4Z" transform="translate(-161.883 -151.326)"/>
      <path id="Trazado_998864" data-name="Trazado 998864" d="M66.429,305.936l-11.539-1.923a.962.962,0,0,0-1.12.949v5.653a4.544,4.544,0,0,0-2.644-.845h-.962A2.166,2.166,0,0,0,48,311.933v5.289a2.166,2.166,0,0,0,2.164,2.164h.962a4.573,4.573,0,0,0,4.568-4.568v-.481a4.548,4.548,0,0,0-.272-1.555l10.692,1.782a.962.962,0,0,0,1.12-.948v-6.731a.962.962,0,0,0-.8-.948ZM53.77,314.818a2.647,2.647,0,0,1-2.644,2.644h-.962a.24.24,0,0,1-.24-.24v-5.289a.24.24,0,0,1,.24-.24h.962a2.647,2.647,0,0,1,2.644,2.644Zm11.539-2.337-9.616-1.6V306.1l9.616,1.6Z" transform="translate(0 -253.382)"/>
      <path id="Trazado_998865" data-name="Trazado 998865" d="M0,0H11.7V1.923H0Z" transform="translate(78.578 66.972) rotate(-9.443)"/>
      <path id="Trazado_998866" data-name="Trazado 998866" d="M0,0H9.749V1.923H0Z" transform="translate(78.58 63.127) rotate(-9.443)"/>
    </g>
  </g>
</svg>
