<svg xmlns="http://www.w3.org/2000/svg" width="80" height="80" viewBox="0 0 80 80">
  <g id="Grupo_1178883" data-name="Grupo 1178883" transform="translate(-320.063 -7013)">
    <rect id="Rectángulo_455152" data-name="Rectángulo 455152" width="80" height="80" rx="10" transform="translate(320.063 7013)" fill="#e795ff"/>
    <g id="Grupo_1178882" data-name="Grupo 1178882" transform="translate(332.524 7026.017)">
      <g id="Grupo_1178880" data-name="Grupo 1178880" transform="translate(0.853 0.801)">
        <g id="Grupo_1178879" data-name="Grupo 1178879" transform="translate(1.192)">
          <g id="Grupo_1178878" data-name="Grupo 1178878">
            <g id="Grupo_1178869" data-name="Grupo 1178869" transform="translate(33.854)">
              <circle id="Elipse_13770" data-name="Elipse 13770" cx="2.877" cy="2.877" r="2.877" transform="translate(12.554 13.467)" fill="#ffea00"/>
              <g id="Grupo_1178868" data-name="Grupo 1178868">
                <path id="Trazado_998867" data-name="Trazado 998867" d="M346.683,184.408H333.85V172.383c0-3.544,2.873-21.009,6.417-21.009a6.417,6.417,0,0,1,6.417,6.417Z" transform="translate(-333.85 -135.924)" fill="#d40a7d"/>
                <path id="Trazado_998868" data-name="Trazado 998868" d="M382.926,151.374a1.791,1.791,0,0,0-1.286.749,6.414,6.414,0,0,1,3.408,5.668v26.617h4.294V157.791A6.417,6.417,0,0,0,382.926,151.374Z" transform="translate(-376.509 -135.924)" fill="#c20972"/>
                <path id="Trazado_998869" data-name="Trazado 998869" d="M345.585,114.327a5.372,5.372,0,0,0-1.694-1.894,6.53,6.53,0,0,0-3.624-1.058,6.417,6.417,0,0,0-6.417,6.417v15.393c17.846,0,18.308-16.37,18.308-16.37C349.281,118.369,347.043,116.978,345.585,114.327Z" transform="translate(-333.85 -100.219)" fill="#ff6694"/>
                <g id="Grupo_1178867" data-name="Grupo 1178867" transform="translate(0.452)">
                  <path id="Trazado_998870" data-name="Trazado 998870" d="M360.549,38.054a4.422,4.422,0,0,1-8.844,0c0-.3,0-1.747,0-1.747.4-2.027,2.278-3,4.424-3,2.122,0,4,1,4.424,3C360.551,36.307,360.549,37.734,360.549,38.054Z" transform="translate(-350.239 -30.535)" fill="#f5dbba"/>
                  <path id="Trazado_998871" data-name="Trazado 998871" d="M342.91,61.225v3.848l2.009,3.3H342.91c-4.994,0-6.142-4.831-3.382-7.151" transform="translate(-338.063 -55.453)" fill="#f2f2f2"/>
                  <path id="Trazado_998872" data-name="Trazado 998872" d="M360.551,13.238V7.466L358.339,9.9l-2.212-2.436L353.916,9.9,351.7,7.466v5.772Z" transform="translate(-350.239 -7.466)" fill="#ffea00"/>
                  <g id="Grupo_1178866" data-name="Grupo 1178866" transform="translate(6.017)">
                    <path id="Trazado_998873" data-name="Trazado 998873" d="M396.192,9.9l-2.083-2.294v5.629H398.4V7.466Z" transform="translate(-394.109 -7.466)" fill="#f2de00"/>
                  </g>
                  <path id="Trazado_998874" data-name="Trazado 998874" d="M388.139,97.062s3.951,2.976,2.968,6.21-8.516,2.441-7.861-6.211Z" transform="translate(-378.359 -87.443)" fill="#f2f2f2"/>
                  <path id="Trazado_998875" data-name="Trazado 998875" d="M393.45,97.062h-4.295s3.951,2.976,2.968,6.211a2.25,2.25,0,0,1-.737,1.094c2.036,1.23,4.5.661,5.032-1.094C397.4,100.038,393.45,97.062,393.45,97.062Z" transform="translate(-383.67 -87.443)" fill="#e8e8e8"/>
                </g>
              </g>
              <path id="Trazado_998876" data-name="Trazado 998876" d="M352.158,162.039s.8,19.864-18.308,19.864v-3.493S348.443,179.253,352.158,162.039Z" transform="translate(-333.85 -145.444)" fill="#f2f2f2"/>
            </g>
            <g id="Grupo_1178873" data-name="Grupo 1178873" transform="translate(16.927)">
              <circle id="Elipse_13771" data-name="Elipse 13771" cx="2.877" cy="2.877" r="2.877" transform="translate(12.554 13.467)" fill="#ffea00"/>
              <g id="Grupo_1178872" data-name="Grupo 1178872">
                <path id="Trazado_998877" data-name="Trazado 998877" d="M182.6,151.374a6.417,6.417,0,0,1,6.417,6.417v26.617H176.187V172.383Z" transform="translate(-176.187 -135.924)" fill="#852dd6"/>
                <path id="Trazado_998878" data-name="Trazado 998878" d="M218.1,151.374a6.4,6.4,0,0,0-2.147.369,6.418,6.418,0,0,1,4.269,6.047v26.617h4.294V157.791A6.417,6.417,0,0,0,218.1,151.374Z" transform="translate(-211.683 -135.924)" fill="#6a24ab"/>
                <path id="Trazado_998879" data-name="Trazado 998879" d="M187.921,114.327a5.372,5.372,0,0,0-1.694-1.894,6.53,6.53,0,0,0-3.624-1.058,6.417,6.417,0,0,0-6.417,6.417v15.393c17.846,0,18.308-16.37,18.308-16.37C191.618,118.369,189.38,116.978,187.921,114.327Z" transform="translate(-176.187 -100.219)" fill="#b768ff"/>
                <g id="Grupo_1178871" data-name="Grupo 1178871" transform="translate(0.452)">
                  <path id="Trazado_998880" data-name="Trazado 998880" d="M202.885,38.054a4.422,4.422,0,1,1-8.844,0c0-.3,0-1.747,0-1.747.4-2.027,2.278-3,4.424-3,2.122,0,4,1,4.424,3C202.887,36.307,202.885,37.734,202.885,38.054Z" transform="translate(-192.575 -30.535)" fill="#c26636"/>
                  <path id="Trazado_998881" data-name="Trazado 998881" d="M185.246,61.225v3.848l1.758,3.3h-1.758c-4.994,0-6.142-4.831-3.382-7.151" transform="translate(-180.399 -55.453)" fill="#693c43"/>
                  <path id="Trazado_998882" data-name="Trazado 998882" d="M202.888,13.238V7.466L200.676,9.9l-2.212-2.436L196.253,9.9l-2.212-2.436v5.772Z" transform="translate(-192.576 -7.466)" fill="#ffea00"/>
                  <g id="Grupo_1178870" data-name="Grupo 1178870" transform="translate(6.017)">
                    <path id="Trazado_998883" data-name="Trazado 998883" d="M238.529,9.9l-2.083-2.294v5.629h4.294V7.466Z" transform="translate(-236.446 -7.466)" fill="#f2de00"/>
                  </g>
                  <path id="Trazado_998884" data-name="Trazado 998884" d="M230.476,97.062s3.951,2.976,2.968,6.21-8.516,2.441-7.861-6.211Z" transform="translate(-220.696 -87.443)" fill="#693c43"/>
                  <path id="Trazado_998885" data-name="Trazado 998885" d="M235.787,97.062h-4.295s3.951,2.976,2.968,6.211a2.25,2.25,0,0,1-.737,1.094c2.036,1.23,4.5.661,5.032-1.094C239.737,100.038,235.787,97.062,235.787,97.062Z" transform="translate(-226.007 -87.443)" fill="#5e363c"/>
                </g>
              </g>
              <path id="Trazado_998886" data-name="Trazado 998886" d="M194.5,162.039s.8,19.864-18.308,19.864v-3.493S190.78,179.253,194.5,162.039Z" transform="translate(-176.187 -145.444)" fill="#f2f2f2"/>
            </g>
            <g id="Grupo_1178877" data-name="Grupo 1178877">
              <circle id="Elipse_13772" data-name="Elipse 13772" cx="2.877" cy="2.877" r="2.877" transform="translate(12.554 13.467)" fill="#ffea00"/>
              <g id="Grupo_1178876" data-name="Grupo 1178876">
                <path id="Trazado_998887" data-name="Trazado 998887" d="M31.356,211.14v26.617H18.523V225.732Z" transform="translate(-18.523 -189.273)" fill="#2da59b"/>
                <path id="Trazado_998888" data-name="Trazado 998888" d="M60.435,151.374a6.4,6.4,0,0,0-2.147.369,6.418,6.418,0,0,1,4.269,6.047v26.617h4.295V157.791A6.417,6.417,0,0,0,60.435,151.374Z" transform="translate(-54.019 -135.924)" fill="#1d968c"/>
                <path id="Trazado_998889" data-name="Trazado 998889" d="M30.258,114.327a5.372,5.372,0,0,0-1.694-1.894,6.53,6.53,0,0,0-3.624-1.058,8.863,8.863,0,0,0-6.417,3.147v18.887c17.846,3.269,18.308-16.595,18.308-16.595-2.877,1.554-5.115.163-6.574-2.488Z" transform="translate(-18.523 -100.219)" fill="#6fdaa7"/>
                <g id="Grupo_1178875" data-name="Grupo 1178875" transform="translate(0.452)">
                  <path id="Trazado_998890" data-name="Trazado 998890" d="M45.222,38.054a4.422,4.422,0,1,1-8.844,0c0-.3,0-1.747,0-1.747.4-2.027,2.278-3,4.424-3,2.122,0,4,1,4.424,3C45.224,36.307,45.222,37.734,45.222,38.054Z" transform="translate(-34.912 -30.535)" fill="#f5dbba"/>
                  <path id="Trazado_998891" data-name="Trazado 998891" d="M27.583,61.225v3.848l1.83,3.3h-1.83c-4.994,0-6.142-4.831-3.382-7.151" transform="translate(-22.736 -55.453)" fill="#c26636"/>
                  <path id="Trazado_998892" data-name="Trazado 998892" d="M45.224,13.238V7.466L43.012,9.9,40.8,7.466,38.589,9.9,36.377,7.466v5.772Z" transform="translate(-34.912 -7.466)" fill="#ffea00"/>
                  <g id="Grupo_1178874" data-name="Grupo 1178874" transform="translate(6.017)">
                    <path id="Trazado_998893" data-name="Trazado 998893" d="M80.866,9.9,78.783,7.608v5.629h4.295V7.466Z" transform="translate(-78.783 -7.466)" fill="#f2de00"/>
                  </g>
                  <path id="Trazado_998894" data-name="Trazado 998894" d="M72.812,97.062s3.951,2.976,2.968,6.21-8.516,2.441-7.861-6.211Z" transform="translate(-63.032 -87.443)" fill="#c26636"/>
                  <path id="Trazado_998895" data-name="Trazado 998895" d="M78.123,97.062H73.828s3.951,2.976,2.968,6.211a2.25,2.25,0,0,1-.737,1.094c2.036,1.23,4.5.661,5.032-1.094C82.073,100.038,78.123,97.062,78.123,97.062Z" transform="translate(-68.343 -87.443)" fill="#ba5b29"/>
                </g>
              </g>
              <path id="Trazado_998896" data-name="Trazado 998896" d="M36.831,162.039s.8,19.864-18.308,19.864v-3.493S33.116,179.253,36.831,162.039Z" transform="translate(-18.523 -145.444)" fill="#f2f2f2"/>
            </g>
          </g>
        </g>
        <path id="Trazado_998897" data-name="Trazado 998897" d="M7.421,417.041v7.412H60.775v-7.412a20.854,20.854,0,0,1-9.459,1.095c-6.021-.69-7.806-3.365-13.479-3.306-5.912.062-8.483,3.183-13.579,3.657-4.749.441-5.915-1.808-9.228-2.691a10.1,10.1,0,0,0-7.609,1.245Z" transform="translate(-7.421 -371.093)" fill="#f5dbba"/>
      </g>
      <g id="Grupo_1178881" data-name="Grupo 1178881" transform="translate(0.063 0)">
        <path id="Trazado_998898" data-name="Trazado 998898" d="M373.376,212.066a12.6,12.6,0,0,0,8.532-7.161.806.806,0,0,0-1.45-.7,11.833,11.833,0,0,1-4.647,5.154,9.361,9.361,0,0,1-2.72,1.123C372.174,210.647,372.366,212.079,373.376,212.066Z" transform="translate(-332.514 -181.886)"/>
        <path id="Trazado_998899" data-name="Trazado 998899" d="M215.7,212.066a12.6,12.6,0,0,0,8.532-7.161.806.806,0,0,0-1.45-.7,11.833,11.833,0,0,1-4.648,5.154,9.361,9.361,0,0,1-2.72,1.123C214.5,210.647,214.693,212.079,215.7,212.066Z" transform="translate(-191.769 -181.886)"/>
        <path id="Trazado_998900" data-name="Trazado 998900" d="M58.031,212.066a12.6,12.6,0,0,0,8.532-7.161.806.806,0,0,0-1.45-.7,11.833,11.833,0,0,1-4.648,5.154,9.361,9.361,0,0,1-2.72,1.123C56.829,210.647,57.021,212.079,58.031,212.066Z" transform="translate(-51.025 -181.886)"/>
        <path id="Trazado_998901" data-name="Trazado 998901" d="M1.3,47.416a8.881,8.881,0,0,1,6.951-1.134c2.276.607,4.105,2.2,6.458,2.621,3.147.655,6.361-.5,9.217-1.715a17.761,17.761,0,0,1,7.348-1.846,15.956,15.956,0,0,1,6.748,1.49,24.178,24.178,0,0,0,6.631,1.81,21.51,21.51,0,0,0,9.859-1.151A.806.806,0,0,0,53.9,46a18.521,18.521,0,0,1-4.365,1.017V32.85a19.487,19.487,0,0,0,4.555-8.427,25.6,25.6,0,0,0,.92-7.059,3.768,3.768,0,0,0-3.681-3.9,3.668,3.668,0,0,0-1.59.359A9.642,9.642,0,0,0,47.116,10.2a5.248,5.248,0,0,0,.348-1.876c0-.32,0-1.746,0-1.746h0V.8a.817.817,0,0,0-1.4-.541L44.449,2.04,42.833.26a.813.813,0,0,0-1.192,0L40.025,2.04,38.41.26a.816.816,0,0,0-1.4.541V6.217a4.727,4.727,0,0,0-1.184,5.035,4.618,4.618,0,0,0,1.407,2,7.32,7.32,0,0,0-.745.866,3.715,3.715,0,0,0-3.675-.29A9.642,9.642,0,0,0,30.189,10.2a5.248,5.248,0,0,0,.348-1.876c0-.32,0-1.746,0-1.746h0V.8a.817.817,0,0,0-1.4-.541L27.522,2.04,25.906.26a.813.813,0,0,0-1.192,0L23.1,2.04,21.483.26a.816.816,0,0,0-1.4.541V6.217A4.727,4.727,0,0,0,18.9,11.252a4.62,4.62,0,0,0,1.407,2,7.321,7.321,0,0,0-.744.865,3.715,3.715,0,0,0-3.674-.289A9.642,9.642,0,0,0,13.264,10.2a5.248,5.248,0,0,0,.348-1.876c0-.32,0-1.746,0-1.746h0V.8a.817.817,0,0,0-1.4-.541L10.6,2.04,8.982.26a.813.813,0,0,0-1.192,0L6.174,2.04,4.558.26A.816.816,0,0,0,3.156.8V6.217a4.727,4.727,0,0,0-1.184,5.035,4.62,4.62,0,0,0,1.406,1.994A7.244,7.244,0,0,0,1.24,18.374v1.27a.806.806,0,0,0,1.61,0v-1.27a5.629,5.629,0,0,1,1.989-4.282,6.776,6.776,0,0,0,2.115.428,7.55,7.55,0,0,0,.933,2.041,5.723,5.723,0,0,0,3.7,2.542A4.079,4.079,0,0,0,15.378,18a4.727,4.727,0,0,0,3.83.7,21.59,21.59,0,0,1-3.879,7.973,16.5,16.5,0,0,1-5.8,4.6A17.644,17.644,0,0,1,2.85,32.957v-9.09a.806.806,0,0,0-1.61,0v21.74a8.085,8.085,0,0,0-.837.475.806.806,0,0,0,.9,1.335Zm14.38-.005V32.862a17.323,17.323,0,0,0,2.481-3.339V47.329A23.055,23.055,0,0,1,15.683,47.411Zm19.408-3.267a14.97,14.97,0,0,0-2.484-.374V32.862a17.321,17.321,0,0,0,2.484-3.343ZM31.413,31.782c-2.825,2.942-6.738,4.508-11.638,4.661V34.571a19.089,19.089,0,0,0,7.3-1.806,18.093,18.093,0,0,0,6.4-5.043,20.085,20.085,0,0,0,1.814-2.667A17.385,17.385,0,0,1,31.413,31.782ZM23.3,45.706A26.159,26.159,0,0,1,19.775,47V38.053A18.45,18.45,0,0,0,31,34.333v9.405a19.538,19.538,0,0,0-7.7,1.969Zm24.92-13.8a22.929,22.929,0,0,1-3.045,2.343.806.806,0,0,0,.8,1.4,15.5,15.5,0,0,0,1.947-1.324V47.151a19.845,19.845,0,0,1-3.085-.108,22.509,22.509,0,0,1-6.223-1.708c-.637-.252-1.264-.5-1.915-.721v-6.56a22.515,22.515,0,0,0,5.159-.723.806.806,0,0,0-.417-1.555,20.861,20.861,0,0,1-4.741.667V34.571A19.089,19.089,0,0,0,44,32.765a18.094,18.094,0,0,0,6.4-5.043,20.083,20.083,0,0,0,1.825-2.687A17.051,17.051,0,0,1,48.221,31.911ZM53.384,16.9a3.139,3.139,0,0,1-3.429-.367,4.44,4.44,0,0,0,.106-1.023,2.092,2.092,0,0,1,3.323,1.39Zm-5.057-.5a2.137,2.137,0,0,1-2.593,1.123c-1.817-.34-3.81-2.2-3.731-6.294h3.841A10.006,10.006,0,0,1,47.338,12.8a4.032,4.032,0,0,1,.988,3.6ZM45.854,8.32a3.633,3.633,0,0,1-.24,1.3H42.033l-.023-2.237h3.845c0,.382,0,.788,0,.942ZM38.619,2.886l.81.893a.813.813,0,0,0,1.192,0L42.237,2l1.616,1.78a.813.813,0,0,0,1.192,0l.81-.893V5.768H38.619V2.886Zm-.493,4.492H40.4L40.43,10.4a13.024,13.024,0,0,0,.045,2.475A3.564,3.564,0,0,1,37.338,10.7a3.133,3.133,0,0,1,.788-3.322Zm2.681,7.141a7.55,7.55,0,0,0,.933,2.041,5.723,5.723,0,0,0,3.7,2.542A4.079,4.079,0,0,0,49.23,18a4.726,4.726,0,0,0,3.83.7,21.59,21.59,0,0,1-3.879,7.973,16.5,16.5,0,0,1-5.8,4.6A17.649,17.649,0,0,1,36.7,32.957v-7a25.7,25.7,0,0,0,1.361-7.169,6.345,6.345,0,0,0-.462-3.454,5.68,5.68,0,0,1,1.089-1.238,6.769,6.769,0,0,0,2.115.428ZM36.457,16.9a3.139,3.139,0,0,1-3.429-.368,4.44,4.44,0,0,0,.106-1.023A2.092,2.092,0,0,1,36.457,16.9ZM31.4,16.4a2.137,2.137,0,0,1-2.593,1.123c-1.816-.34-3.81-2.2-3.731-6.294h3.841A10.006,10.006,0,0,1,30.411,12.8a4.032,4.032,0,0,1,.988,3.6ZM28.927,8.32a3.633,3.633,0,0,1-.24,1.3H25.106l-.023-2.237h3.845c0,.382,0,.788,0,.942ZM21.692,2.886l.81.893a.813.813,0,0,0,1.192,0L25.31,2l1.616,1.78a.813.813,0,0,0,1.192,0l.81-.893V5.768H21.692V2.886ZM21.2,7.378h2.273L23.5,10.4a13.024,13.024,0,0,0,.045,2.475A3.564,3.564,0,0,1,20.41,10.7,3.133,3.133,0,0,1,21.2,7.378Zm2.681,7.141a7.55,7.55,0,0,0,.933,2.041,5.723,5.723,0,0,0,3.7,2.542A4.079,4.079,0,0,0,32.3,18a4.727,4.727,0,0,0,3.83.7,21.59,21.59,0,0,1-3.879,7.973,16.5,16.5,0,0,1-5.8,4.6,17.648,17.648,0,0,1-6.678,1.679v-7a25.7,25.7,0,0,0,1.364-7.175,6.344,6.344,0,0,0-.463-3.458,5.677,5.677,0,0,1,1.088-1.236,6.773,6.773,0,0,0,2.115.428Zm-15.7-4.9L8.158,7.378H12c0,.382,0,.788,0,.942a3.633,3.633,0,0,1-.24,1.3ZM4.767,2.886l.81.893a.813.813,0,0,0,1.192,0L8.385,2,10,3.779a.813.813,0,0,0,1.192,0L12,2.886V5.768H4.767ZM3.486,10.7a3.133,3.133,0,0,1,.788-3.322H6.547L6.579,10.4a13.024,13.024,0,0,0,.045,2.475A3.564,3.564,0,0,1,3.486,10.7Zm8.4,6.82c-1.817-.34-3.81-2.2-3.731-6.294h3.841A10.006,10.006,0,0,1,13.486,12.8a4.032,4.032,0,0,1,.988,3.6,2.137,2.137,0,0,1-2.593,1.123Zm4.221-.988a4.44,4.44,0,0,0,.106-1.023,2.092,2.092,0,0,1,3.323,1.39,3.139,3.139,0,0,1-3.429-.367ZM10.15,32.765a18.094,18.094,0,0,0,6.4-5.043,20.078,20.078,0,0,0,1.8-2.651,17.362,17.362,0,0,1-3.876,6.719c-2.824,2.936-6.734,4.5-11.63,4.652V34.571a19.088,19.088,0,0,0,7.3-1.806Zm-7.3,5.288a18.45,18.45,0,0,0,11.223-3.72V47.094c-1.889-.593-3.474-1.854-5.4-2.368a10.238,10.238,0,0,0-5.819.222Z" transform="translate(-0.063 0)"/>
        <path id="Trazado_998902" data-name="Trazado 998902" d="M54.348,496.966H.994a.806.806,0,0,0,0,1.61H54.348a.806.806,0,0,0,0-1.61Z" transform="translate(-0.204 -443.61)"/>
        <path id="Trazado_998903" data-name="Trazado 998903" d="M40.183,449.474a.806.806,0,0,0,0-1.61A.806.806,0,0,0,40.183,449.474Z" transform="translate(-35.181 -399.78)"/>
        <path id="Trazado_998904" data-name="Trazado 998904" d="M242.022,463.158a.806.806,0,0,0,0-1.61A.806.806,0,0,0,242.022,463.158Z" transform="translate(-215.35 -411.995)"/>
        <path id="Trazado_998905" data-name="Trazado 998905" d="M293.337,440.921a.806.806,0,0,0,0-1.61A.806.806,0,0,0,293.337,440.921Z" transform="translate(-261.156 -392.145)"/>
        <path id="Trazado_998906" data-name="Trazado 998906" d="M462.677,470a.806.806,0,0,0,0-1.61A.806.806,0,0,0,462.677,470Z" transform="translate(-412.315 -418.102)"/>
      </g>
    </g>
  </g>
</svg>
