<svg xmlns="http://www.w3.org/2000/svg" width="292" height="177" viewBox="0 0 292 177">
  <g id="Grupo_1178793" data-name="Grupo 1178793" transform="translate(-1018.081 -2077)">
    <path id="Rectángulo_455100" data-name="Rectángulo 455100" d="M10,0H282a10,10,0,0,1,10,10V129a0,0,0,0,1,0,0H0a0,0,0,0,1,0,0V10A10,10,0,0,1,10,0Z" transform="translate(1018.081 2125)" fill="#a4c2ff"/>
    <rect id="Rectángulo_455426" data-name="Rectángulo 455426" width="292" height="28" transform="translate(1018.081 2226)" fill="#4d5464"/>
    <g id="_404803260_a4d4d99a-6610-470f-af38-ad5877fd7719" data-name="404803260_a4d4d99a-6610-470f-af38-ad5877fd7719" transform="translate(935.632 2051.009)">
      <circle id="Elipse_13727" data-name="Elipse 13727" cx="44.002" cy="44.002" r="44.002" transform="translate(222.534 125.414) rotate(-45)" fill="#fff4d6"/>
      <circle id="Elipse_13728" data-name="Elipse 13728" cx="30.669" cy="30.669" r="30.669" transform="translate(148.683 69.363) rotate(-45)" fill="#fff4d6"/>
      <g id="Grupo_1178669" data-name="Grupo 1178669" transform="translate(259.612 52.74)">
        <circle id="Elipse_13729" data-name="Elipse 13729" cx="19.826" cy="19.826" r="19.826" transform="translate(0 28.037) rotate(-45)" fill="#ffbe33"/>
        <g id="Grupo_1178662" data-name="Grupo 1178662" transform="translate(22.325 13.055)">
          <path id="Trazado_998647" data-name="Trazado 998647" d="M949.3,223.429a9.118,9.118,0,0,1-.219,1.129,6.6,6.6,0,0,1-2.173,3.739,7.365,7.365,0,0,1-3.244-2.557,9.654,9.654,0,0,1-.692-1.028c-1.413-2.461-1.58-5.353,2.088-6.079C948.664,217.967,949.64,220.669,949.3,223.429Z" transform="translate(-942.038 -218.531)" fill="#fff"/>
          <path id="Trazado_998648" data-name="Trazado 998648" d="M952.874,239.245a9.119,9.119,0,0,1-.219,1.129,6.6,6.6,0,0,1-2.173,3.739,7.365,7.365,0,0,1-3.244-2.557,9.655,9.655,0,0,1-.692-1.028,4.528,4.528,0,0,1,6.328-1.283Z" transform="translate(-945.614 -234.347)" fill="#1a1f40"/>
        </g>
        <g id="Grupo_1178663" data-name="Grupo 1178663" transform="translate(13.503 20.357)">
          <path id="Trazado_998649" data-name="Trazado 998649" d="M905.94,255.151a9.133,9.133,0,0,1,.869.754,6.6,6.6,0,0,1,2.151,3.751,7.364,7.364,0,0,1-3.837,1.531,9.645,9.645,0,0,1-1.236.085c-2.838-.006-5.426-1.308-4.22-4.847C900.893,252.97,903.721,253.475,905.94,255.151Z" transform="translate(-899.364 -253.853)" fill="#fff"/>
          <path id="Trazado_998650" data-name="Trazado 998650" d="M921.4,260.134a9.143,9.143,0,0,1,.869.754,6.6,6.6,0,0,1,2.151,3.751,7.364,7.364,0,0,1-3.837,1.531,9.656,9.656,0,0,1-1.236.085,4.529,4.529,0,0,1,2.053-6.122Z" transform="translate(-914.827 -258.836)" fill="#1a1f40"/>
        </g>
        <g id="Grupo_1178664" data-name="Grupo 1178664" transform="translate(15.4 31.01)">
          <path id="Trazado_998651" data-name="Trazado 998651" d="M911.673,306.11a9.1,9.1,0,0,1,1.088-.375,6.6,6.6,0,0,1,4.324.012,7.365,7.365,0,0,1-.592,4.088,9.638,9.638,0,0,1-.544,1.113c-1.424,2.454-3.846,4.045-6.308,1.232C907.26,309.39,909.112,307.194,911.673,306.11Z" transform="translate(-908.54 -305.381)" fill="#fff"/>
          <path id="Trazado_998652" data-name="Trazado 998652" d="M923.65,306.11a9.1,9.1,0,0,1,1.088-.375,6.6,6.6,0,0,1,4.324.012,7.365,7.365,0,0,1-.593,4.088,9.628,9.628,0,0,1-.544,1.113,4.529,4.529,0,0,1-4.275-4.839Z" transform="translate(-920.517 -305.381)" fill="#1a1f40"/>
        </g>
        <g id="Grupo_1178665" data-name="Grupo 1178665" transform="translate(26.429 33.252)">
          <path id="Trazado_998653" data-name="Trazado 998653" d="M961.952,321.092a9.131,9.131,0,0,1,.219-1.13,6.6,6.6,0,0,1,2.173-3.739,7.365,7.365,0,0,1,3.245,2.557,9.63,9.63,0,0,1,.692,1.028c1.413,2.461,1.58,5.353-2.088,6.079C962.586,326.554,961.61,323.853,961.952,321.092Z" transform="translate(-961.888 -316.224)" fill="#fff"/>
          <path id="Trazado_998654" data-name="Trazado 998654" d="M962.2,321.092a9.12,9.12,0,0,1,.219-1.13,6.6,6.6,0,0,1,2.173-3.739,7.365,7.365,0,0,1,3.245,2.557,9.639,9.639,0,0,1,.692,1.028,4.529,4.529,0,0,1-6.328,1.283Z" transform="translate(-962.133 -316.224)" fill="#1a1f40"/>
        </g>
        <g id="Grupo_1178666" data-name="Grupo 1178666" transform="translate(32.979 28.296)">
          <path id="Trazado_998655" data-name="Trazado 998655" d="M996.591,298.373a9.136,9.136,0,0,1-.869-.754,6.6,6.6,0,0,1-2.151-3.751,7.366,7.366,0,0,1,3.837-1.531,9.656,9.656,0,0,1,1.236-.085c2.838.006,5.426,1.308,4.221,4.847C1001.637,300.554,998.809,300.049,996.591,298.373Z" transform="translate(-993.571 -292.251)" fill="#fff"/>
          <path id="Trazado_998656" data-name="Trazado 998656" d="M996.591,298.373a9.136,9.136,0,0,1-.869-.754,6.6,6.6,0,0,1-2.151-3.751,7.366,7.366,0,0,1,3.837-1.531,9.656,9.656,0,0,1,1.236-.085,4.529,4.529,0,0,1-2.053,6.122Z" transform="translate(-993.571 -292.251)" fill="#1a1f40"/>
        </g>
        <g id="Grupo_1178667" data-name="Grupo 1178667" transform="translate(32.038 16.77)">
          <path id="Trazado_998657" data-name="Trazado 998657" d="M994.526,244.063a9.1,9.1,0,0,1-1.088.375,6.6,6.6,0,0,1-4.324-.012,7.366,7.366,0,0,1,.592-4.089,9.669,9.669,0,0,1,.544-1.113c1.424-2.454,3.846-4.045,6.308-1.232C998.937,240.784,997.087,242.98,994.526,244.063Z" transform="translate(-989.018 -236.499)" fill="#fff"/>
          <path id="Trazado_998658" data-name="Trazado 998658" d="M994.526,254.521a9.1,9.1,0,0,1-1.088.375,6.6,6.6,0,0,1-4.324-.012,7.366,7.366,0,0,1,.592-4.089,9.669,9.669,0,0,1,.544-1.113,4.529,4.529,0,0,1,4.275,4.839Z" transform="translate(-989.018 -246.957)" fill="#1a1f40"/>
        </g>
        <g id="Grupo_1178668" data-name="Grupo 1178668" transform="translate(24.286 24.283)">
          <path id="Trazado_998659" data-name="Trazado 998659" d="M955.979,280.281a3.753,3.753,0,1,1,2.981-4.392A3.757,3.757,0,0,1,955.979,280.281Zm-1.073-5.611a1.96,1.96,0,1,0,2.293,1.557A1.962,1.962,0,0,0,954.905,274.669Z" transform="translate(-951.52 -272.841)" fill="#fff"/>
        </g>
      </g>
      <g id="Grupo_1178676" data-name="Grupo 1178676" transform="translate(115.414 153.517)">
        <g id="Grupo_1178670" data-name="Grupo 1178670" transform="translate(0 18.233)">
          <rect id="Rectángulo_455415" data-name="Rectángulo 455415" width="93.961" height="18.434" transform="translate(94.027 18.488) rotate(180)" fill="#ffbe33"/>
          <rect id="Rectángulo_455416" data-name="Rectángulo 455416" width="37.845" height="12.874" transform="translate(37.845 15.782) rotate(180)" fill="#fff"/>
          <rect id="Rectángulo_455417" data-name="Rectángulo 455417" width="5.043" height="18.561" transform="translate(56.071 18.561) rotate(180)" fill="#fff"/>
          <rect id="Rectángulo_455418" data-name="Rectángulo 455418" width="5.043" height="18.561" transform="translate(67.352 18.561) rotate(180)" fill="#fff"/>
        </g>
        <g id="Grupo_1178671" data-name="Grupo 1178671" transform="translate(0)">
          <rect id="Rectángulo_455419" data-name="Rectángulo 455419" width="93.961" height="18.434" fill="#2ab873"/>
          <rect id="Rectángulo_455420" data-name="Rectángulo 455420" width="60.053" height="12.874" transform="translate(33.974 2.853)" fill="#fff"/>
        </g>
        <g id="Grupo_1178672" data-name="Grupo 1178672" transform="translate(0.354 25.552)">
          <path id="Trazado_998660" data-name="Trazado 998660" d="M169.85,766.662h-31.5a.1.1,0,1,1,0-.207h31.5a.1.1,0,1,1,0,.207Z" transform="translate(-138.251 -766.455)" fill="#d4d0ce"/>
        </g>
        <g id="Grupo_1178673" data-name="Grupo 1178673" transform="translate(0.354 30.234)">
          <path id="Trazado_998661" data-name="Trazado 998661" d="M169.85,789.309h-31.5a.1.1,0,1,1,0-.207h31.5a.1.1,0,1,1,0,.207Z" transform="translate(-138.251 -789.102)" fill="#d4d0ce"/>
        </g>
        <g id="Grupo_1178674" data-name="Grupo 1178674" transform="translate(42.959 6.716)">
          <path id="Trazado_998662" data-name="Trazado 998662" d="M395.34,675.546h-50.9a.1.1,0,1,1,0-.207h50.9a.1.1,0,1,1,0,.207Z" transform="translate(-344.338 -675.339)" fill="#d4d0ce"/>
        </g>
        <g id="Grupo_1178675" data-name="Grupo 1178675" transform="translate(42.959 11.257)">
          <path id="Trazado_998663" data-name="Trazado 998663" d="M395.34,697.515h-50.9a.1.1,0,1,1,0-.207h50.9a.1.1,0,1,1,0,.207Z" transform="translate(-344.338 -697.308)" fill="#d4d0ce"/>
        </g>
        <path id="Trazado_998664" data-name="Trazado 998664" d="M211.546,776.905l-3.56-1.753-3.236,1.753v-9.95h6.8Z" transform="translate(-190.649 -741.299)" fill="#ff7242"/>
      </g>
      <g id="Grupo_1178737" data-name="Grupo 1178737" transform="translate(163.721 52.782)">
        <g id="Grupo_1178687" data-name="Grupo 1178687" transform="translate(7.824)">
          <path id="Trazado_998665" data-name="Trazado 998665" d="M534.348,434.985v14.8h-98.3v-14.8l.793-1.628.186-.387.037-.075.6-1.233.413-.849,2.216-4.547h89.8l2.216,4.547.413.849.6,1.233.037.075.186.387Z" transform="translate(-430.264 -370.308)" fill="#4796ff"/>
          <path id="Trazado_998666" data-name="Trazado 998666" d="M457.661,455.374V444.893l2.573-5.95h84.215l2.573,5.95v10.481Z" transform="translate(-447.406 -380.363)" fill="#1a1f40"/>
          <g id="Grupo_1178677" data-name="Grupo 1178677" transform="translate(0 67.133)">
            <path id="Trazado_998667" data-name="Trazado 998667" d="M410.5,480.315h3.341v11H410.5a2.439,2.439,0,0,1-2.447-2.43v-6.138A2.438,2.438,0,0,1,410.5,480.315Z" transform="translate(-408.054 -480.315)" fill="#ffbe33"/>
            <path id="Trazado_998668" data-name="Trazado 998668" d="M914.868,480.315h-3.341v11h3.341a2.439,2.439,0,0,0,2.447-2.43v-6.138A2.439,2.439,0,0,0,914.868,480.315Z" transform="translate(-807.443 -480.315)" fill="#ffbe33"/>
          </g>
          <g id="Grupo_1178679" data-name="Grupo 1178679" transform="translate(98.341 55.95)">
            <g id="Grupo_1178678" data-name="Grupo 1178678" transform="translate(4.023 0)">
              <rect id="Rectángulo_455421" data-name="Rectángulo 455421" width="17.586" height="1.628" transform="translate(16.921 6.358) rotate(-164.188)" fill="#4796ff"/>
              <path id="Trazado_998669" data-name="Trazado 998669" d="M975.361,446.711A1.853,1.853,0,0,1,976.638,449h0a1.853,1.853,0,0,1-2.287,1.278l-2.557-.724a1.853,1.853,0,0,1-1.278-2.287l.5-1.783Z" transform="translate(-956.545 -441.5)" fill="#4796ff"/>
            </g>
            <path id="Trazado_998670" data-name="Trazado 998670" d="M883.747,426.267v4.471h3.138l1.334-2.782v-1.69Z" transform="translate(-883.747 -426.258)" fill="#4796ff"/>
          </g>
          <g id="Grupo_1178686" data-name="Grupo 1178686" transform="translate(21.579)">
            <path id="Trazado_998671" data-name="Trazado 998671" d="M579.353,170.171v60.7h-66.57V155.933h52.332Z" transform="translate(-512.711 -155.861)" fill="#fff"/>
            <g id="Grupo_1178680" data-name="Grupo 1178680" transform="translate(0 0)">
              <path id="Trazado_998672" data-name="Trazado 998672" d="M579.075,230.666h-66.57a.072.072,0,0,1-.072-.072V155.655a.072.072,0,0,1,.072-.072h52.332a.072.072,0,0,1,.051.021l14.238,14.238a.073.073,0,0,1,.021.051v60.7A.073.073,0,0,1,579.075,230.666Zm-66.5-.145H579v-60.6l-14.2-14.2h-52.23Z" transform="translate(-512.433 -155.583)" fill="#1a1f40"/>
            </g>
            <path id="Trazado_998673" data-name="Trazado 998673" d="M780.161,170.171H765.923V155.933Z" transform="translate(-713.518 -155.861)" fill="#fff"/>
            <g id="Grupo_1178681" data-name="Grupo 1178681" transform="translate(52.332)">
              <path id="Trazado_998674" data-name="Trazado 998674" d="M779.883,169.965H765.645a.072.072,0,0,1-.072-.072V155.655a.072.072,0,0,1,.123-.051l14.238,14.238a.072.072,0,0,1-.051.123Zm-14.165-.145h13.99l-13.99-13.991Z" transform="translate(-765.573 -155.583)" fill="#1a1f40"/>
            </g>
            <g id="Grupo_1178682" data-name="Grupo 1178682" transform="translate(9.775 12.523)">
              <path id="Trazado_998675" data-name="Trazado 998675" d="M588.942,216.367H559.819a.1.1,0,0,1,0-.207h29.122a.1.1,0,0,1,0,.207Z" transform="translate(-559.716 -216.16)" fill="#d4d0ce"/>
            </g>
            <g id="Grupo_1178683" data-name="Grupo 1178683" transform="translate(9.775 26.076)">
              <path id="Trazado_998676" data-name="Trazado 998676" d="M608.518,281.925h-48.7a.1.1,0,0,1,0-.207h48.7a.1.1,0,1,1,0,.207Z" transform="translate(-559.716 -281.718)" fill="#d4d0ce"/>
            </g>
            <g id="Grupo_1178684" data-name="Grupo 1178684" transform="translate(9.775 40.839)">
              <path id="Trazado_998677" data-name="Trazado 998677" d="M608.518,353.335h-48.7a.1.1,0,0,1,0-.207h48.7a.1.1,0,1,1,0,.207Z" transform="translate(-559.716 -353.128)" fill="#d4d0ce"/>
            </g>
            <g id="Grupo_1178685" data-name="Grupo 1178685" transform="translate(9.775 53.506)">
              <path id="Trazado_998678" data-name="Trazado 998678" d="M608.518,414.609h-48.7a.1.1,0,0,1,0-.207h48.7a.1.1,0,1,1,0,.207Z" transform="translate(-559.716 -414.402)" fill="#d4d0ce"/>
            </g>
          </g>
        </g>
        <g id="Grupo_1178733" data-name="Grupo 1178733" transform="translate(0 92.655)">
          <path id="Trazado_998679" data-name="Trazado 998679" d="M495.727,644.126v4.518H370.207V635.322a118.243,118.243,0,0,0,11.906-30.192l.209-.849.123-.51H483.5l.071.25.324,1.352a112.268,112.268,0,0,0,11.824,29.95q.011,4.4,0,8.8h0Z" transform="translate(-370.207 -603.771)" fill="#4796ff"/>
          <g id="Grupo_1178688" data-name="Grupo 1178688" transform="translate(1.772 1.779)">
            <path id="Trazado_998680" data-name="Trazado 998680" d="M500.756,642.763v12.706H378.78V642.763a123.6,123.6,0,0,0,11.856-30.389l98.341.236a117.558,117.558,0,0,0,11.779,30.153Z" transform="translate(-378.78 -612.374)" fill="#2466d4"/>
          </g>
          <g id="Grupo_1178732" data-name="Grupo 1178732" transform="translate(13.827 3.63)">
            <g id="Grupo_1178699" data-name="Grupo 1178699" transform="translate(4.571)">
              <g id="Grupo_1178689" data-name="Grupo 1178689" transform="translate(18.27)">
                <path id="Trazado_998681" data-name="Trazado 998681" d="M547.574,628.777v1.768a8.09,8.09,0,0,0,6.51.079v-1.846Z" transform="translate(-547.574 -627.237)" fill="#1a1f40"/>
                <ellipse id="Elipse_13730" data-name="Elipse 13730" cx="3.255" cy="1.54" rx="3.255" ry="1.54" fill="#ffbe33"/>
              </g>
              <g id="Grupo_1178690" data-name="Grupo 1178690">
                <path id="Trazado_998682" data-name="Trazado 998682" d="M459.2,628.777v1.768a8.09,8.09,0,0,0,6.51.079v-1.846Z" transform="translate(-459.198 -627.237)" fill="#1a1f40"/>
                <ellipse id="Elipse_13731" data-name="Elipse 13731" cx="3.255" cy="1.54" rx="3.255" ry="1.54" fill="#ffbe33"/>
              </g>
              <g id="Grupo_1178691" data-name="Grupo 1178691" transform="translate(9.135)">
                <path id="Trazado_998683" data-name="Trazado 998683" d="M503.386,628.777v1.768a8.09,8.09,0,0,0,6.51.079v-1.846Z" transform="translate(-503.386 -627.237)" fill="#1a1f40"/>
                <ellipse id="Elipse_13732" data-name="Elipse 13732" cx="3.255" cy="1.54" rx="3.255" ry="1.54" fill="#ffbe33"/>
              </g>
              <g id="Grupo_1178692" data-name="Grupo 1178692" transform="translate(36.54)">
                <path id="Trazado_998684" data-name="Trazado 998684" d="M635.95,628.777v1.768a8.09,8.09,0,0,0,6.51.079v-1.846Z" transform="translate(-635.95 -627.237)" fill="#1a1f40"/>
                <ellipse id="Elipse_13733" data-name="Elipse 13733" cx="3.255" cy="1.54" rx="3.255" ry="1.54" fill="#ffbe33"/>
              </g>
              <g id="Grupo_1178693" data-name="Grupo 1178693" transform="translate(27.405)">
                <path id="Trazado_998685" data-name="Trazado 998685" d="M591.762,628.777v1.768a8.09,8.09,0,0,0,6.51.079v-1.846Z" transform="translate(-591.762 -627.237)" fill="#1a1f40"/>
                <ellipse id="Elipse_13734" data-name="Elipse 13734" cx="3.255" cy="1.54" rx="3.255" ry="1.54" fill="#ffbe33"/>
              </g>
              <g id="Grupo_1178694" data-name="Grupo 1178694" transform="translate(54.811)">
                <path id="Trazado_998686" data-name="Trazado 998686" d="M724.326,628.777v1.768a8.09,8.09,0,0,0,6.51.079v-1.846Z" transform="translate(-724.326 -627.237)" fill="#1a1f40"/>
                <ellipse id="Elipse_13735" data-name="Elipse 13735" cx="3.255" cy="1.54" rx="3.255" ry="1.54" fill="#ffbe33"/>
              </g>
              <g id="Grupo_1178695" data-name="Grupo 1178695" transform="translate(45.675)">
                <path id="Trazado_998687" data-name="Trazado 998687" d="M680.138,628.777v1.768a8.09,8.09,0,0,0,6.51.079v-1.846Z" transform="translate(-680.138 -627.237)" fill="#1a1f40"/>
                <ellipse id="Elipse_13736" data-name="Elipse 13736" cx="3.255" cy="1.54" rx="3.255" ry="1.54" fill="#ffbe33"/>
              </g>
              <g id="Grupo_1178696" data-name="Grupo 1178696" transform="translate(63.946)">
                <path id="Trazado_998688" data-name="Trazado 998688" d="M768.514,628.777v1.768a8.09,8.09,0,0,0,6.51.079v-1.846Z" transform="translate(-768.514 -627.237)" fill="#1a1f40"/>
                <ellipse id="Elipse_13737" data-name="Elipse 13737" cx="3.255" cy="1.54" rx="3.255" ry="1.54" fill="#ffbe33"/>
              </g>
              <g id="Grupo_1178697" data-name="Grupo 1178697" transform="translate(73.081)">
                <path id="Trazado_998689" data-name="Trazado 998689" d="M812.7,628.777v1.768a8.09,8.09,0,0,0,6.51.079v-1.846Z" transform="translate(-812.702 -627.237)" fill="#1a1f40"/>
                <ellipse id="Elipse_13738" data-name="Elipse 13738" cx="3.255" cy="1.54" rx="3.255" ry="1.54" fill="#ffbe33"/>
              </g>
              <g id="Grupo_1178698" data-name="Grupo 1178698" transform="translate(82.216)">
                <path id="Trazado_998690" data-name="Trazado 998690" d="M856.89,628.777v1.768a8.09,8.09,0,0,0,6.51.079v-1.846Z" transform="translate(-856.89 -627.237)" fill="#1a1f40"/>
                <ellipse id="Elipse_13739" data-name="Elipse 13739" cx="3.255" cy="1.54" rx="3.255" ry="1.54" fill="#ffbe33"/>
              </g>
            </g>
            <g id="Grupo_1178711" data-name="Grupo 1178711" transform="translate(0 7.033)">
              <g id="Grupo_1178700" data-name="Grupo 1178700" transform="translate(27.411)">
                <path id="Trazado_998691" data-name="Trazado 998691" d="M569.683,662.795v1.768a8.09,8.09,0,0,0,6.51.079v-1.846h-6.51Z" transform="translate(-569.683 -661.255)" fill="#1a1f40"/>
                <ellipse id="Elipse_13740" data-name="Elipse 13740" cx="3.255" cy="1.54" rx="3.255" ry="1.54" fill="#ffbe33"/>
              </g>
              <g id="Grupo_1178701" data-name="Grupo 1178701" transform="translate(9.141)">
                <path id="Trazado_998692" data-name="Trazado 998692" d="M481.307,662.795v1.768a8.09,8.09,0,0,0,6.51.079v-1.846h-6.51Z" transform="translate(-481.307 -661.255)" fill="#1a1f40"/>
                <ellipse id="Elipse_13741" data-name="Elipse 13741" cx="3.255" cy="1.54" rx="3.255" ry="1.54" fill="#ffbe33"/>
              </g>
              <g id="Grupo_1178702" data-name="Grupo 1178702" transform="translate(18.276)">
                <path id="Trazado_998693" data-name="Trazado 998693" d="M525.495,662.795v1.768a8.09,8.09,0,0,0,6.51.079v-1.846h-6.51Z" transform="translate(-525.495 -661.255)" fill="#1a1f40"/>
                <ellipse id="Elipse_13742" data-name="Elipse 13742" cx="3.255" cy="1.54" rx="3.255" ry="1.54" fill="#ffbe33"/>
              </g>
              <g id="Grupo_1178703" data-name="Grupo 1178703" transform="translate(45.682)">
                <path id="Trazado_998694" data-name="Trazado 998694" d="M658.059,662.795v1.768a8.09,8.09,0,0,0,6.51.079v-1.846h-6.51Z" transform="translate(-658.059 -661.255)" fill="#1a1f40"/>
                <ellipse id="Elipse_13743" data-name="Elipse 13743" cx="3.255" cy="1.54" rx="3.255" ry="1.54" fill="#ffbe33"/>
              </g>
              <g id="Grupo_1178704" data-name="Grupo 1178704" transform="translate(36.547)">
                <path id="Trazado_998695" data-name="Trazado 998695" d="M613.871,662.795v1.768a8.09,8.09,0,0,0,6.51.079v-1.846h-6.51Z" transform="translate(-613.871 -661.255)" fill="#1a1f40"/>
                <ellipse id="Elipse_13744" data-name="Elipse 13744" cx="3.255" cy="1.54" rx="3.255" ry="1.54" fill="#ffbe33"/>
              </g>
              <g id="Grupo_1178705" data-name="Grupo 1178705" transform="translate(63.952)">
                <path id="Trazado_998696" data-name="Trazado 998696" d="M746.435,662.795v1.768a8.091,8.091,0,0,0,6.51.079v-1.846h-6.51Z" transform="translate(-746.435 -661.255)" fill="#1a1f40"/>
                <ellipse id="Elipse_13745" data-name="Elipse 13745" cx="3.255" cy="1.54" rx="3.255" ry="1.54" fill="#ffbe33"/>
              </g>
              <g id="Grupo_1178706" data-name="Grupo 1178706" transform="translate(54.817)">
                <path id="Trazado_998697" data-name="Trazado 998697" d="M702.247,662.795v1.768a8.09,8.09,0,0,0,6.51.079v-1.846h-6.51Z" transform="translate(-702.247 -661.255)" fill="#1a1f40"/>
                <ellipse id="Elipse_13746" data-name="Elipse 13746" cx="3.255" cy="1.54" rx="3.255" ry="1.54" fill="#ffbe33"/>
              </g>
              <g id="Grupo_1178707" data-name="Grupo 1178707" transform="translate(73.087)">
                <path id="Trazado_998698" data-name="Trazado 998698" d="M790.623,662.795v1.768a8.09,8.09,0,0,0,6.51.079v-1.846h-6.51Z" transform="translate(-790.623 -661.255)" fill="#1a1f40"/>
                <ellipse id="Elipse_13747" data-name="Elipse 13747" cx="3.255" cy="1.54" rx="3.255" ry="1.54" fill="#ffbe33"/>
              </g>
              <g id="Grupo_1178708" data-name="Grupo 1178708" transform="translate(82.222)">
                <path id="Trazado_998699" data-name="Trazado 998699" d="M834.811,662.795v1.768a8.09,8.09,0,0,0,6.51.079v-1.846h-6.51Z" transform="translate(-834.811 -661.255)" fill="#1a1f40"/>
                <ellipse id="Elipse_13748" data-name="Elipse 13748" cx="3.255" cy="1.54" rx="3.255" ry="1.54" fill="#ffbe33"/>
              </g>
              <g id="Grupo_1178709" data-name="Grupo 1178709" transform="translate(91.357)">
                <path id="Trazado_998700" data-name="Trazado 998700" d="M879,662.795v1.768a8.09,8.09,0,0,0,6.51.079v-1.846H879Z" transform="translate(-878.999 -661.255)" fill="#1a1f40"/>
                <ellipse id="Elipse_13749" data-name="Elipse 13749" cx="3.255" cy="1.54" rx="3.255" ry="1.54" fill="#ffbe33"/>
              </g>
              <g id="Grupo_1178710" data-name="Grupo 1178710">
                <path id="Trazado_998701" data-name="Trazado 998701" d="M437.089,662.795v1.768a8.09,8.09,0,0,0,6.51.079v-1.846h-6.51Z" transform="translate(-437.089 -661.255)" fill="#1a1f40"/>
                <ellipse id="Elipse_13750" data-name="Elipse 13750" cx="3.255" cy="1.54" rx="3.255" ry="1.54" fill="#ffbe33"/>
              </g>
            </g>
            <g id="Grupo_1178722" data-name="Grupo 1178722" transform="translate(4.571 14.065)">
              <g id="Grupo_1178712" data-name="Grupo 1178712" transform="translate(18.27)">
                <path id="Trazado_998702" data-name="Trazado 998702" d="M547.574,696.814v1.768a8.09,8.09,0,0,0,6.51.079v-1.846h-6.51Z" transform="translate(-547.574 -695.274)" fill="#1a1f40"/>
                <ellipse id="Elipse_13751" data-name="Elipse 13751" cx="3.255" cy="1.54" rx="3.255" ry="1.54" fill="#ffbe33"/>
              </g>
              <g id="Grupo_1178713" data-name="Grupo 1178713">
                <path id="Trazado_998703" data-name="Trazado 998703" d="M459.2,696.814v1.768a8.09,8.09,0,0,0,6.51.079v-1.846H459.2Z" transform="translate(-459.198 -695.274)" fill="#1a1f40"/>
                <ellipse id="Elipse_13752" data-name="Elipse 13752" cx="3.255" cy="1.54" rx="3.255" ry="1.54" fill="#ffbe33"/>
              </g>
              <g id="Grupo_1178714" data-name="Grupo 1178714" transform="translate(9.135)">
                <path id="Trazado_998704" data-name="Trazado 998704" d="M503.386,696.814v1.768a8.09,8.09,0,0,0,6.51.079v-1.846h-6.51Z" transform="translate(-503.386 -695.274)" fill="#1a1f40"/>
                <ellipse id="Elipse_13753" data-name="Elipse 13753" cx="3.255" cy="1.54" rx="3.255" ry="1.54" fill="#ffbe33"/>
              </g>
              <g id="Grupo_1178715" data-name="Grupo 1178715" transform="translate(36.54)">
                <path id="Trazado_998705" data-name="Trazado 998705" d="M635.95,696.814v1.768a8.09,8.09,0,0,0,6.51.079v-1.846h-6.51Z" transform="translate(-635.95 -695.274)" fill="#1a1f40"/>
                <ellipse id="Elipse_13754" data-name="Elipse 13754" cx="3.255" cy="1.54" rx="3.255" ry="1.54" fill="#ffbe33"/>
              </g>
              <g id="Grupo_1178716" data-name="Grupo 1178716" transform="translate(27.405)">
                <path id="Trazado_998706" data-name="Trazado 998706" d="M591.762,696.814v1.768a8.09,8.09,0,0,0,6.51.079v-1.846h-6.51Z" transform="translate(-591.762 -695.274)" fill="#1a1f40"/>
                <ellipse id="Elipse_13755" data-name="Elipse 13755" cx="3.255" cy="1.54" rx="3.255" ry="1.54" fill="#ffbe33"/>
              </g>
              <g id="Grupo_1178717" data-name="Grupo 1178717" transform="translate(54.811)">
                <path id="Trazado_998707" data-name="Trazado 998707" d="M724.326,696.814v1.768a8.09,8.09,0,0,0,6.51.079v-1.846h-6.51Z" transform="translate(-724.326 -695.274)" fill="#1a1f40"/>
                <ellipse id="Elipse_13756" data-name="Elipse 13756" cx="3.255" cy="1.54" rx="3.255" ry="1.54" fill="#ffbe33"/>
              </g>
              <g id="Grupo_1178718" data-name="Grupo 1178718" transform="translate(45.675)">
                <path id="Trazado_998708" data-name="Trazado 998708" d="M680.138,696.814v1.768a8.09,8.09,0,0,0,6.51.079v-1.846h-6.51Z" transform="translate(-680.138 -695.274)" fill="#1a1f40"/>
                <ellipse id="Elipse_13757" data-name="Elipse 13757" cx="3.255" cy="1.54" rx="3.255" ry="1.54" fill="#ffbe33"/>
              </g>
              <g id="Grupo_1178719" data-name="Grupo 1178719" transform="translate(63.946)">
                <path id="Trazado_998709" data-name="Trazado 998709" d="M768.514,696.814v1.768a8.09,8.09,0,0,0,6.51.079v-1.846h-6.51Z" transform="translate(-768.514 -695.274)" fill="#1a1f40"/>
                <ellipse id="Elipse_13758" data-name="Elipse 13758" cx="3.255" cy="1.54" rx="3.255" ry="1.54" fill="#ffbe33"/>
              </g>
              <g id="Grupo_1178720" data-name="Grupo 1178720" transform="translate(73.081)">
                <path id="Trazado_998710" data-name="Trazado 998710" d="M812.7,696.814v1.768a8.09,8.09,0,0,0,6.51.079v-1.846H812.7Z" transform="translate(-812.702 -695.274)" fill="#1a1f40"/>
                <ellipse id="Elipse_13759" data-name="Elipse 13759" cx="3.255" cy="1.54" rx="3.255" ry="1.54" fill="#ffbe33"/>
              </g>
              <g id="Grupo_1178721" data-name="Grupo 1178721" transform="translate(82.216)">
                <path id="Trazado_998711" data-name="Trazado 998711" d="M856.89,696.814v1.768a8.09,8.09,0,0,0,6.51.079v-1.846h-6.51Z" transform="translate(-856.89 -695.274)" fill="#1a1f40"/>
                <ellipse id="Elipse_13760" data-name="Elipse 13760" cx="3.255" cy="1.54" rx="3.255" ry="1.54" fill="#ffbe33"/>
              </g>
            </g>
            <g id="Grupo_1178731" data-name="Grupo 1178731" transform="translate(0 20.151)">
              <g id="Grupo_1178723" data-name="Grupo 1178723" transform="translate(9.141 0.951)">
                <path id="Trazado_998712" data-name="Trazado 998712" d="M481.307,730.85v1.768a8.09,8.09,0,0,0,6.51.079V730.85Z" transform="translate(-481.307 -729.31)" fill="#1a1f40"/>
                <ellipse id="Elipse_13761" data-name="Elipse 13761" cx="3.255" cy="1.54" rx="3.255" ry="1.54" fill="#ffbe33"/>
              </g>
              <g id="Grupo_1178724" data-name="Grupo 1178724" transform="translate(18.276 0.951)">
                <path id="Trazado_998713" data-name="Trazado 998713" d="M525.495,730.85v1.768a8.09,8.09,0,0,0,6.51.079V730.85Z" transform="translate(-525.495 -729.31)" fill="#1a1f40"/>
                <ellipse id="Elipse_13762" data-name="Elipse 13762" cx="3.255" cy="1.54" rx="3.255" ry="1.54" fill="#ffbe33"/>
              </g>
              <g id="Grupo_1178725" data-name="Grupo 1178725" transform="translate(63.952 0.951)">
                <path id="Trazado_998714" data-name="Trazado 998714" d="M746.435,730.85v1.768a8.091,8.091,0,0,0,6.51.079V730.85Z" transform="translate(-746.435 -729.31)" fill="#1a1f40"/>
                <ellipse id="Elipse_13763" data-name="Elipse 13763" cx="3.255" cy="1.54" rx="3.255" ry="1.54" fill="#ffbe33"/>
              </g>
              <g id="Grupo_1178726" data-name="Grupo 1178726" transform="translate(73.087 0.951)">
                <path id="Trazado_998715" data-name="Trazado 998715" d="M790.623,730.85v1.768a8.09,8.09,0,0,0,6.51.079V730.85Z" transform="translate(-790.623 -729.31)" fill="#1a1f40"/>
                <ellipse id="Elipse_13764" data-name="Elipse 13764" cx="3.255" cy="1.54" rx="3.255" ry="1.54" fill="#ffbe33"/>
              </g>
              <g id="Grupo_1178727" data-name="Grupo 1178727" transform="translate(82.222 0.951)">
                <path id="Trazado_998716" data-name="Trazado 998716" d="M834.811,730.85v1.768a8.09,8.09,0,0,0,6.51.079V730.85Z" transform="translate(-834.811 -729.31)" fill="#1a1f40"/>
                <ellipse id="Elipse_13765" data-name="Elipse 13765" cx="3.255" cy="1.54" rx="3.255" ry="1.54" fill="#ffbe33"/>
              </g>
              <g id="Grupo_1178728" data-name="Grupo 1178728" transform="translate(91.357 0.951)">
                <path id="Trazado_998717" data-name="Trazado 998717" d="M879,730.85v1.768a8.09,8.09,0,0,0,6.51.079V730.85Z" transform="translate(-878.999 -729.31)" fill="#1a1f40"/>
                <ellipse id="Elipse_13766" data-name="Elipse 13766" cx="3.255" cy="1.54" rx="3.255" ry="1.54" fill="#ffbe33"/>
              </g>
              <g id="Grupo_1178729" data-name="Grupo 1178729" transform="translate(0 0.951)">
                <path id="Trazado_998718" data-name="Trazado 998718" d="M437.089,730.85v1.768a8.09,8.09,0,0,0,6.51.079V730.85Z" transform="translate(-437.089 -729.31)" fill="#1a1f40"/>
                <ellipse id="Elipse_13767" data-name="Elipse 13767" cx="3.255" cy="1.54" rx="3.255" ry="1.54" fill="#ffbe33"/>
              </g>
              <g id="Grupo_1178730" data-name="Grupo 1178730" transform="translate(27.476)">
                <path id="Trazado_998719" data-name="Trazado 998719" d="M570,728.832v2.1a87.658,87.658,0,0,0,33.851.05q-.01-1.128-.02-2.256Z" transform="translate(-569.996 -726.676)" fill="#1a1f40"/>
                <ellipse id="Elipse_13768" data-name="Elipse 13768" cx="16.925" cy="2.156" rx="16.925" ry="2.156" fill="#ffbe33"/>
              </g>
            </g>
          </g>
        </g>
        <g id="Grupo_1178734" data-name="Grupo 1178734" transform="translate(14.592 60.326)">
          <path id="Trazado_998720" data-name="Trazado 998720" d="M537.126,453.677H440.789l.037-.075.6-1.233H536.49l.6,1.233Z" transform="translate(-440.789 -451.341)" fill="#4796ff"/>
          <path id="Trazado_998721" data-name="Trazado 998721" d="M810.451,447.392h-6.934a.375.375,0,0,0-.375.375v1.961h7.684v-1.961A.375.375,0,0,0,810.451,447.392Z" transform="translate(-728.232 -447.392)" fill="#4796ff"/>
          <path id="Trazado_998722" data-name="Trazado 998722" d="M514.573,447.392h-6.934a.375.375,0,0,0-.375.375v1.961h7.684v-1.961A.375.375,0,0,0,514.573,447.392Z" transform="translate(-493.521 -447.392)" fill="#4796ff"/>
        </g>
        <g id="Grupo_1178736" data-name="Grupo 1178736" transform="translate(12.234 64.797)">
          <g id="Grupo_1178735" data-name="Grupo 1178735">
            <path id="Trazado_998723" data-name="Trazado 998723" d="M530.441,496.874H429.385l1.59-18.348c.037-.677.439-6.456,4.2-8.71a5.965,5.965,0,0,1,2.305-.8h84.856a5.967,5.967,0,0,1,2.305.8c3.765,2.253,4.168,8.032,4.2,8.71Z" transform="translate(-429.385 -469.016)" fill="#4796ff"/>
            <path id="Trazado_998724" data-name="Trazado 998724" d="M585.4,500.07l-1.62,7.589H533.536l-1.62-7.589Z" transform="translate(-510.72 -493.65)" fill="#1a1f40"/>
            <path id="Trazado_998725" data-name="Trazado 998725" d="M665.146,469.721v2.3h-6.093v-2.3c0-.391.67-.706,1.5-.706h.775v1.594c0,.2.346.363.771.363s.771-.161.771-.363v-1.594h.775C664.475,469.015,665.146,469.33,665.146,469.721Z" transform="translate(-611.573 -469.015)" fill="#4796ff"/>
          </g>
        </g>
        <rect id="Rectángulo_455422" data-name="Rectángulo 455422" width="125.52" height="13.321" transform="translate(0 124.206)" fill="#4796ff"/>
      </g>
      <g id="Grupo_1178778" data-name="Grupo 1178778" transform="translate(124.343 58.629)">
        <path id="Trazado_998726" data-name="Trazado 998726" d="M275.473,204.793c-.672-1.106-1.921-1.751-2.644-2.825l-5.806-4.629c-3.34,1.294-.552,4.677-4,6.449-1.013.521-1.1,2.453-.387,3.217,1.218,1.577,3.272,2.1,5.193,2.627C271,210.692,277.746,209.313,275.473,204.793Z" transform="translate(-245.13 -194.554)" fill="#1a1f40"/>
        <path id="Trazado_998727" data-name="Trazado 998727" d="M330.314,264.21c-2.022-3.09-3.9-6.711-5.769-9.216-2.951-3.947-5.932.756-4.924,3.97,1.214,3.87,2.946,6.154,5.1,9.414C328.433,273.822,333.3,269.443,330.314,264.21Z" transform="translate(-290.542 -239.096)" fill="#ffc1a6"/>
        <path id="Trazado_998728" data-name="Trazado 998728" d="M316.764,264.416l7.54-5.228s-4.084-8.01-7.027-8.611-4.072,1.066-3.979,3.329C313.489,258.525,316.764,264.416,316.764,264.416Z" transform="translate(-285.682 -236.687)" fill="#4796ff"/>
        <path id="Trazado_998729" data-name="Trazado 998729" d="M341.423,277.36l-1.958-7.212.757,8.085Z" transform="translate(-306.443 -252.311)" fill="#1a1f40"/>
        <path id="Trazado_998730" data-name="Trazado 998730" d="M281.715,264.927c-1.382.862-8.908-.329-8.908-.329s-1.32-9.944-3.681-14.441c-.581-1.107,4.447-2.189,6.449-2.2l1.974-.09a27.381,27.381,0,0,1,4.98,1.144C285.1,250.249,281.715,264.927,281.715,264.927Z" transform="translate(-250.608 -234.64)" fill="#fff"/>
        <path id="Trazado_998731" data-name="Trazado 998731" d="M297.54,247.466s-.079,2.547-2.12,2.705-2.986-2.667-2.986-2.667A9.728,9.728,0,0,1,297.54,247.466Z" transform="translate(-269.135 -234.06)" fill="#ffc1a6"/>
        <path id="Trazado_998732" data-name="Trazado 998732" d="M293.468,356.832l-4.506-15.57c-2.726-9.419,7.335-13.075,10.061-3.656l4.506,15.57C305.893,361.345,295.832,365,293.468,356.832Z" transform="translate(-266.012 -301.463)" fill="#ffc1a6"/>
        <path id="Trazado_998733" data-name="Trazado 998733" d="M250.306,431.4c5.839-10.091,14.7-3.8,10.445,4.024L245.5,461.883,236.1,456.3Z" transform="translate(-224.451 -376.084)" fill="#ffac87"/>
        <g id="Grupo_1178738" data-name="Grupo 1178738" transform="translate(7.177 74.174)">
          <path id="Trazado_998734" data-name="Trazado 998734" d="M230.457,546.43l7.257.209s-3.045,2.9-3.167,3.472c-.545,2.552,4.068,5.594-1.149,11.967l-8.4-7.819.26-3.606-2.266,1.59L219.765,549l6.989-6.337Z" transform="translate(-218.665 -542.661)" fill="#1a1f40"/>
          <rect id="Rectángulo_455423" data-name="Rectángulo 455423" width="4.576" height="1.546" transform="matrix(0.705, 0.709, -0.709, 0.705, 1.096, 6.335)" fill="#ffc233"/>
          <path id="Trazado_998735" data-name="Trazado 998735" d="M248.087,607.576l-8.422-7.843,1.1-1.09,8.422,7.843Z" transform="translate(-234.451 -587.069)" fill="#ffc233"/>
        </g>
        <path id="Trazado_998736" data-name="Trazado 998736" d="M271.054,354.822c-.942-9.989-.985-15.806-.076-17.206.037-6.141,10.755-3.436,10.692,1.77l.061,14.676C281.763,361.763,271.086,362.523,271.054,354.822Z" transform="translate(-251.593 -303.031)" fill="#ffc1a6"/>
        <path id="Trazado_998737" data-name="Trazado 998737" d="M358.3,266.226s-6.4,3.8-9.517,6.221c-5.2,4.167-1.186,10.628,3.764,7.452,4.7-3.016,9.757-9.122,9.757-9.122Z" transform="translate(-311.904 -249.2)" fill="#ffc1a6"/>
        <path id="Trazado_998738" data-name="Trazado 998738" d="M272.521,419.941c.322-12.714,11.662-13.2,11.27,2.267l-.965,29.413-9.884-.207Z" transform="translate(-253.338 -363.644)" fill="#ffc1a6"/>
        <path id="Trazado_998739" data-name="Trazado 998739" d="M272.149,354.677l-9.635-23.745-11.794-.005c-3.23,6.394-7.78,26.746-7.78,26.746s7.076,1.938,10.7.2c4.778-2.288,6.923-.536,6.519.272s5.309.287,7.547-.373C271.476,356.662,272.149,354.677,272.149,354.677Z" transform="translate(-229.873 -300.524)" fill="#ff7242"/>
        <path id="Trazado_998740" data-name="Trazado 998740" d="M314.3,248.023c.522.19,1.8,21.689,1.993,21.878s4.943-.248,4.817-.917c-1.353-7.166-.772-18.3-2.112-19.98C318.381,248.232,314.3,248.023,314.3,248.023Z" transform="translate(-286.479 -234.76)" fill="#4796ff"/>
        <path id="Trazado_998741" data-name="Trazado 998741" d="M274.694,248.075c.425.413,1.173,21.911-.664,22.163-1.783.245-4.951-.237-4.951-.617s-.411-20.012.443-20.755C269.961,248.483,274.1,248.006,274.694,248.075Z" transform="translate(-250.529 -234.796)" fill="#4796ff"/>
        <g id="Grupo_1178751" data-name="Grupo 1178751" transform="translate(0)">
          <g id="Grupo_1178750" data-name="Grupo 1178750">
            <g id="Grupo_1178739" data-name="Grupo 1178739" transform="translate(0 38.845)">
              <path id="Trazado_998742" data-name="Trazado 998742" d="M191.76,380.432l-4.937,3.766a2.68,2.68,0,0,1-3.88-.625l-2.7-3.952a3.041,3.041,0,0,1,.661-4.088l4.937-3.766Z" transform="translate(-179.731 -371.767)" fill="#1a1f40"/>
            </g>
            <g id="Grupo_1178747" data-name="Grupo 1178747" transform="translate(2.905)">
              <g id="Grupo_1178740" data-name="Grupo 1178740" transform="translate(47.924)">
                <path id="Trazado_998743" data-name="Trazado 998743" d="M434.109,197.626l4.371-6.918,1.637-2.641,1.69-2.727a.936.936,0,0,0-.964-1.443l-3.188.821-3.323.851-7.372,1.779h0l-.344.083.081.11-1.1.807,7.065,9.611,1.1-.807Z" transform="translate(-425.597 -183.867)" fill="#ffc1a6"/>
              </g>
              <g id="Grupo_1178741" data-name="Grupo 1178741" transform="translate(56.658 0)">
                <path id="Trazado_998744" data-name="Trazado 998744" d="M467.844,185.568l3.323-.851,3.188-.821a.936.936,0,0,1,.964,1.443l-1.69,2.727-1.637,2.641A11.989,11.989,0,0,1,469.218,188,11.692,11.692,0,0,1,467.844,185.568Z" transform="translate(-467.844 -183.868)" fill="#1a1f40"/>
              </g>
              <g id="Grupo_1178742" data-name="Grupo 1178742" transform="translate(5.717 11.653)">
                <path id="Trazado_998745" data-name="Trazado 998745" d="M272.085,242.422l-4.609,3.385a.2.2,0,0,1-.072.028l-44.1,32.389-1.868-2.541,48.1-35.326a1.944,1.944,0,0,1,2.063.451C272.116,241.514,272.335,242.238,272.085,242.422Z" transform="translate(-221.438 -240.233)" fill="#f5a004"/>
              </g>
              <g id="Grupo_1178743" data-name="Grupo 1178743" transform="translate(3.836 9.094)">
                <path id="Trazado_998746" data-name="Trazado 998746" d="M262.314,230.539l-48.1,35.326-1.882-2.56,48.122-35.344a.247.247,0,0,1-.025.02,1.6,1.6,0,0,1,1.881,2.559Z" transform="translate(-212.336 -227.856)" fill="#ffbe33"/>
              </g>
              <path id="Trazado_998747" data-name="Trazado 998747" d="M287.533,344.752l-1.085,1.254,2.953,2.72s-3.131-.239-3.913-.86a14.6,14.6,0,0,1-2.028-2.632Z" transform="translate(-264.92 -311.492)" fill="#1a1f40"/>
              <g id="Grupo_1178744" data-name="Grupo 1178744" transform="translate(1.953 6.536)">
                <path id="Trazado_998748" data-name="Trazado 998748" d="M253.233,218.145,205.111,253.49l-1.883-2.561,48.139-35.357a.226.226,0,0,1-.039.036,1.944,1.944,0,0,1,2.063.451A1.971,1.971,0,0,1,253.233,218.145Z" transform="translate(-203.228 -215.484)" fill="#f5a004"/>
              </g>
              <g id="Grupo_1178745" data-name="Grupo 1178745" transform="translate(0.088 3.563)">
                <path id="Trazado_998749" data-name="Trazado 998749" d="M244.212,204.162l-48.139,35.357-1.865-2.537,44.1-32.389a.221.221,0,0,1,.045-.065l4.609-3.385c.25-.184.876.242,1.4.948A1.979,1.979,0,0,1,244.212,204.162Z" transform="translate(-194.208 -201.1)" fill="#ffbe33"/>
              </g>
              <g id="Grupo_1178746" data-name="Grupo 1178746" transform="translate(0 30.355)">
                <path id="Trazado_998750" data-name="Trazado 998750" d="M197.321,335.994a1.315,1.315,0,0,0-.445,1.584l-.9.659a1.336,1.336,0,0,0-2.09,1.535l-.022.016.15.2h0l7.2,9.792h0l.15.2.022-.016a1.336,1.336,0,0,0,2.09-1.535l.9-.658a1.336,1.336,0,0,0,2.09-1.535l.9-.659a1.336,1.336,0,0,0,2.09-1.535l.022-.016,4.267-3.134-7.5-10.2-4.267,3.134-.022.016a1.336,1.336,0,0,0-2.09,1.535l-.9.659A1.315,1.315,0,0,0,197.321,335.994Z" transform="translate(-193.782 -330.699)" fill="#2ab873"/>
              </g>
            </g>
            <g id="Grupo_1178748" data-name="Grupo 1178748" transform="translate(8.08 35.095)">
              <path id="Trazado_998751" data-name="Trazado 998751" d="M226.349,364.453l-7.532-10.211.84-.614,7.532,10.211Z" transform="translate(-218.817 -353.628)" fill="#1a1f40"/>
            </g>
            <g id="Grupo_1178749" data-name="Grupo 1178749" transform="translate(5.132 37.283)">
              <path id="Trazado_998752" data-name="Trazado 998752" d="M212.086,375.023l-7.532-10.211.856-.6,7.532,10.211Z" transform="translate(-204.554 -364.211)" fill="#1a1f40"/>
            </g>
          </g>
        </g>
        <path id="Trazado_998753" data-name="Trazado 998753" d="M377.851,295.552l-1.209,4.361,2.5-1.911Z" transform="translate(-335.934 -272.463)" fill="#1a1f40"/>
        <path id="Trazado_998754" data-name="Trazado 998754" d="M224.637,259.528c1.824-4.555-2.3-5.167-4.621-3.255a54.593,54.593,0,0,0-8.846,9.187c-3.642,5.3,2.358,9.065,5.945,4.571C219.309,267.335,223.435,262.53,224.637,259.528Z" transform="translate(-203.772 -240.496)" fill="#ffc1a6"/>
        <g id="Grupo_1178752" data-name="Grupo 1178752" transform="translate(18.998 79.22)">
          <path id="Trazado_998755" data-name="Trazado 998755" d="M277.347,571.948l5.142-4.881s.032,4.088.351,4.578c1.425,2.186,10.022,1.5,10.861,9.694H279.046l-2.372-2.728-.471,2.728h-4.576l.437-9.424Z" transform="translate(-271.626 -567.067)" fill="#1a1f40"/>
          <rect id="Rectángulo_455424" data-name="Rectángulo 455424" width="4.576" height="1.546" transform="translate(0 14.272)" fill="#ffc233"/>
          <rect id="Rectángulo_455425" data-name="Rectángulo 455425" width="14.688" height="1.546" transform="translate(7.386 14.272)" fill="#ffc233"/>
        </g>
        <path id="Trazado_998756" data-name="Trazado 998756" d="M235.533,263.965l-6.369-5.247s6.621-8.136,9.575-7.593,2.868,2.429,1.936,4.493A47.844,47.844,0,0,1,235.533,263.965Z" transform="translate(-218.945 -237.199)" fill="#4796ff"/>
        <path id="Trazado_998757" data-name="Trazado 998757" d="M216.93,305.949c2.686,1.8,8.094,6.563,8.094,6.563l-3.683,5.617a43.872,43.872,0,0,1-9.042-5.848C208.337,308.586,212.336,303,216.93,305.949Z" transform="translate(-204.283 -280.052)" fill="#ffc1a6"/>
        <path id="Trazado_998758" data-name="Trazado 998758" d="M269.079,289.543l2.018-2.973-2,7.2Z" transform="translate(-250.608 -265.338)" fill="#1a1f40"/>
        <g id="Grupo_1178753" data-name="Grupo 1178753" transform="translate(25.436 11.001)">
          <path id="Trazado_998759" data-name="Trazado 998759" d="M302.77,237.173a.457.457,0,0,0,.162.272.541.541,0,0,0,.822-.065.463.463,0,0,0,.12-.3A2.12,2.12,0,0,1,302.77,237.173Z" transform="translate(-302.77 -237.079)" fill="#fff"/>
        </g>
        <path id="Trazado_998760" data-name="Trazado 998760" d="M286.646,187.1c-.846-1.955-5.274-4.035-7-.2a3.831,3.831,0,0,0-1.14,6.822c1.6,1.3,6.2-3.132,6.2-3.132S287.9,190.007,286.646,187.1Z" transform="translate(-256.806 -184.569)" fill="#1a1f40"/>
        <g id="Grupo_1178766" data-name="Grupo 1178766" transform="translate(21.89 4.519)">
          <g id="Grupo_1178754" data-name="Grupo 1178754" transform="translate(0 3.054)">
            <path id="Trazado_998761" data-name="Trazado 998761" d="M287.184,221.036s-.721-.986-1.381-.287.568,2.822,1.458,1.613Z" transform="translate(-285.614 -220.499)" fill="#ffc1a6"/>
          </g>
          <path id="Trazado_998762" data-name="Trazado 998762" d="M296.593,207.255a3.07,3.07,0,0,0-2.64-1.525,2.838,2.838,0,0,0-2.38,2c-.207.922-.684,2.947.483,3.943.7.6,1.438.465,1.507,1.594a5.521,5.521,0,0,1-.4,1.521c1.044,1.979,3.372,1.176,2.244-.27a6.285,6.285,0,0,1-.565-1.249.685.685,0,0,1,.4-.871,3.532,3.532,0,0,0,1.75-1.157C298.014,210.029,297.019,208.112,296.593,207.255Z" transform="translate(-290.124 -205.726)" fill="#ffc1a6"/>
          <g id="Grupo_1178765" data-name="Grupo 1178765" transform="translate(1.984 1.855)">
            <g id="Grupo_1178755" data-name="Grupo 1178755" transform="translate(1.838 3.011)">
              <path id="Trazado_998763" data-name="Trazado 998763" d="M305.818,229.264a.948.948,0,0,1-.2.543.749.749,0,0,1-1.279.044.958.958,0,0,1-.24-.54A2.726,2.726,0,0,0,305.818,229.264Z" transform="translate(-304.1 -229.264)" fill="#1a1f40"/>
              <path id="Trazado_998764" data-name="Trazado 998764" d="M306.539,231.484a.749.749,0,0,1-1.279.044,1.482,1.482,0,0,1,.645-.149A1.506,1.506,0,0,1,306.539,231.484Z" transform="translate(-305.02 -230.941)" fill="#ff7242"/>
            </g>
            <g id="Grupo_1178756" data-name="Grupo 1178756" transform="translate(0.41 0.14)">
              <path id="Trazado_998765" data-name="Trazado 998765" d="M298.484,215.787a.073.073,0,0,1-.043-.014,1.474,1.474,0,0,0-.367-.217.7.7,0,0,0-.753.2.072.072,0,0,1-.109-.1.84.84,0,0,1,.91-.241,1.616,1.616,0,0,1,.4.236.072.072,0,0,1-.043.131Z" transform="translate(-297.195 -215.373)" fill="#1a1f40"/>
            </g>
            <g id="Grupo_1178757" data-name="Grupo 1178757" transform="translate(2.459 1.017)">
              <path id="Trazado_998766" data-name="Trazado 998766" d="M307.246,221.273a.072.072,0,0,1-.031-.137.839.839,0,0,0,.259-.167.234.234,0,0,0,.061-.234.391.391,0,0,0-.11-.127l-.043-.038a.9.9,0,0,1-.237-.9.072.072,0,1,1,.138.043.748.748,0,0,0,.2.755l.039.035a.513.513,0,0,1,.148.179.372.372,0,0,1-.088.388.954.954,0,0,1-.3.2A.073.073,0,0,1,307.246,221.273Z" transform="translate(-307.107 -219.615)" fill="#1a1f40"/>
            </g>
            <g id="Grupo_1178760" data-name="Grupo 1178760" transform="translate(0 0.765)">
              <path id="Trazado_998767" data-name="Trazado 998767" d="M296.7,219.495s.463.923,1.7-.011c0,0-.4-.805-1.049-.731A.74.74,0,0,0,296.7,219.495Z" transform="translate(-296.392 -218.675)" fill="#fff"/>
              <g id="Grupo_1178758" data-name="Grupo 1178758" transform="translate(0.236)">
                <path id="Trazado_998768" data-name="Trazado 998768" d="M296.423,219.288h0a.072.072,0,0,1-.072-.072.817.817,0,0,1,.711-.814c.688-.079,1.1.736,1.122.771a.072.072,0,0,1-.13.064c0-.008-.385-.758-.976-.692a.663.663,0,0,0-.582.67A.073.073,0,0,1,296.423,219.288Z" transform="translate(-296.351 -218.397)" fill="#1a1f40"/>
              </g>
              <path id="Trazado_998769" data-name="Trazado 998769" d="M300.039,220.019a.515.515,0,1,1-.565-.425A.5.5,0,0,1,300.039,220.019Z" transform="translate(-298.228 -219.343)" fill="#1a1f40"/>
              <path id="Trazado_998770" data-name="Trazado 998770" d="M298.821,220.482a.106.106,0,1,1,.118.094A.106.106,0,0,1,298.821,220.482Z" transform="translate(-298.074 -219.957)" fill="#fff"/>
              <g id="Grupo_1178759" data-name="Grupo 1178759" transform="translate(0 0.681)">
                <path id="Trazado_998771" data-name="Trazado 998771" d="M295.486,221.9a.435.435,0,0,1-.25-.086.072.072,0,1,1,.093-.11.286.286,0,0,0,.176.05.072.072,0,0,1,.027.142A.249.249,0,0,1,295.486,221.9Z" transform="translate(-295.21 -221.691)" fill="#1a1f40"/>
              </g>
            </g>
            <g id="Grupo_1178761" data-name="Grupo 1178761" transform="translate(3.213)">
              <path id="Trazado_998772" data-name="Trazado 998772" d="M310.823,215.175a.072.072,0,0,1-.048-.127,1.6,1.6,0,0,1,.38-.275.84.84,0,0,1,.929.152.072.072,0,1,1-.1.105.695.695,0,0,0-.769-.126,1.489,1.489,0,0,0-.344.251A.072.072,0,0,1,310.823,215.175Z" transform="translate(-310.751 -214.697)" fill="#1a1f40"/>
            </g>
            <g id="Grupo_1178764" data-name="Grupo 1178764" transform="translate(3.051 0.515)">
              <path id="Trazado_998773" data-name="Trazado 998773" d="M312,218.183s-.332.978-1.681.222c0,0,.287-.852.939-.868A.74.74,0,0,1,312,218.183Z" transform="translate(-310.247 -217.464)" fill="#fff"/>
              <ellipse id="Elipse_13769" data-name="Elipse 13769" cx="0.512" cy="0.501" rx="0.512" ry="0.501" transform="translate(0.679 0.169) rotate(-1.398)" fill="#1a1f40"/>
              <g id="Grupo_1178762" data-name="Grupo 1178762">
                <path id="Trazado_998774" data-name="Trazado 998774" d="M310.041,218.2a.07.07,0,0,1-.023,0,.072.072,0,0,1-.045-.092c.012-.037.311-.9,1.005-.917a.82.82,0,0,1,.816.709.072.072,0,0,1-.143.02.661.661,0,0,0-.669-.584c-.593.014-.869.811-.872.819A.072.072,0,0,1,310.041,218.2Z" transform="translate(-309.968 -217.186)" fill="#1a1f40"/>
              </g>
              <path id="Trazado_998775" data-name="Trazado 998775" d="M313.6,218.606a.109.109,0,1,0,.1.12A.109.109,0,0,0,313.6,218.606Z" transform="translate(-312.755 -218.312)" fill="#fff"/>
              <g id="Grupo_1178763" data-name="Grupo 1178763" transform="translate(1.681 0.559)">
                <path id="Trazado_998776" data-name="Trazado 998776" d="M318.179,220.124h-.013a.072.072,0,0,1-.069-.076.069.069,0,0,1,.076-.069.148.148,0,0,0,.118-.064.072.072,0,1,1,.108.1A.3.3,0,0,1,318.179,220.124Z" transform="translate(-318.098 -219.891)" fill="#1a1f40"/>
              </g>
            </g>
          </g>
          <path id="Trazado_998777" data-name="Trazado 998777" d="M302.77,237.88a3.768,3.768,0,0,0,1.159.612.918.918,0,0,1,.336-.554,1.519,1.519,0,0,1-.732.116A1.7,1.7,0,0,1,302.77,237.88Z" transform="translate(-299.223 -231.233)" fill="#1a1f40"/>
        </g>
        <path id="Trazado_998778" data-name="Trazado 998778" d="M291.99,201.7a3.909,3.909,0,0,0-1.336,4.77c.154-2.568,3.146-2.54,3.318-4.12Z" transform="translate(-267.458 -198.014)" fill="#1a1f40"/>
        <g id="Grupo_1178767" data-name="Grupo 1178767" transform="translate(21.912 9.467)">
          <path id="Trazado_998779" data-name="Trazado 998779" d="M286.941,232.853a.1.1,0,0,1-.083-.042l-1.115-1.5a.1.1,0,0,1,0-.122L286.8,229.7a.1.1,0,0,1,.079-.043.1.1,0,0,1,.083.036l1.083,1.255a.1.1,0,0,1,.011.12L287.03,232.8a.1.1,0,0,1-.084.051Zm-.988-1.609.978,1.319.909-1.534-.949-1.1Z" transform="translate(-285.722 -229.66)" fill="#ffc800"/>
        </g>
        <g id="Grupo_1178772" data-name="Grupo 1178772" transform="translate(41.723 18.158)">
          <g id="Grupo_1178768" data-name="Grupo 1178768">
            <path id="Trazado_998780" data-name="Trazado 998780" d="M388.121,272.16s2.3,2.135,2.214,3.39c-.093,1.362-4.936,4.757-5.779,4.526a4.554,4.554,0,0,1-2.752-2.558,68.483,68.483,0,0,0,2.715-3.254,6.469,6.469,0,0,1,3.6-2.1Z" transform="translate(-381.553 -271.7)" fill="#ffc1a6"/>
          </g>
          <g id="Grupo_1178769" data-name="Grupo 1178769" transform="translate(4.538 1.131)">
            <path id="Trazado_998781" data-name="Trazado 998781" d="M406.049,280.132a.072.072,0,0,1-.054-.025l-2.471-2.815a.072.072,0,0,1,.109-.1l2.471,2.815a.072.072,0,0,1-.054.12Z" transform="translate(-403.506 -277.172)" fill="#1a1f40"/>
          </g>
          <g id="Grupo_1178770" data-name="Grupo 1178770" transform="translate(2.893 2.491)">
            <path id="Trazado_998782" data-name="Trazado 998782" d="M398.084,286.892a.073.073,0,0,1-.056-.026l-2.463-3a.072.072,0,1,1,.112-.092l2.463,3a.072.072,0,0,1-.01.1A.071.071,0,0,1,398.084,286.892Z" transform="translate(-395.548 -283.751)" fill="#1a1f40"/>
          </g>
          <g id="Grupo_1178771" data-name="Grupo 1178771" transform="translate(1.564 4.136)">
            <path id="Trazado_998783" data-name="Trazado 998783" d="M391.469,294.512a.072.072,0,0,1-.055-.025l-2.279-2.66a.072.072,0,1,1,.11-.094l2.279,2.66a.072.072,0,0,1-.008.1A.071.071,0,0,1,391.469,294.512Z" transform="translate(-389.118 -291.708)" fill="#1a1f40"/>
          </g>
        </g>
        <g id="Grupo_1178777" data-name="Grupo 1178777" transform="translate(15.433 31.776)">
          <g id="Grupo_1178773" data-name="Grupo 1178773">
            <path id="Trazado_998784" data-name="Trazado 998784" d="M263.236,348.243a.815.815,0,0,0-.039-.9l.051.031a1.21,1.21,0,0,0,1.476-.238c.186-.3-.09-.714-.269-.992l.17.106a.885.885,0,1,0,.932-1.5l-.343-.213a.884.884,0,0,0,.775-1.58c-1.794-1-4.154-1.952-4.6-3.046l1.618-.025c1.437-.025,2.175-1.563.9-1.868a34.674,34.674,0,0,0-3.919-.438c-.51-.012-2.529.184-2.529.184l-3.077,4.559a13.4,13.4,0,0,0,7.393,6.1A1.177,1.177,0,0,0,263.236,348.243Z" transform="translate(-254.384 -337.572)" fill="#ffc1a6"/>
          </g>
          <g id="Grupo_1178774" data-name="Grupo 1178774" transform="translate(6.241 4.125)">
            <path id="Trazado_998785" data-name="Trazado 998785" d="M289.175,360.4a.072.072,0,0,1-.029-.006,16.27,16.27,0,0,1-4.549-2.746.072.072,0,0,1,.1-.107,16.135,16.135,0,0,0,4.509,2.72.072.072,0,0,1-.029.139Z" transform="translate(-284.574 -357.527)" fill="#1a1f40"/>
          </g>
          <g id="Grupo_1178775" data-name="Grupo 1178775" transform="translate(5.571 5.652)">
            <path id="Trazado_998786" data-name="Trazado 998786" d="M285.847,367.931a.072.072,0,0,1-.031-.007,16.272,16.272,0,0,1-4.461-2.887.072.072,0,0,1,.1-.1,16.132,16.132,0,0,0,4.421,2.86.072.072,0,0,1-.031.138Z" transform="translate(-281.334 -364.912)" fill="#1a1f40"/>
          </g>
          <g id="Grupo_1178776" data-name="Grupo 1178776" transform="translate(4.218 6.776)">
            <path id="Trazado_998787" data-name="Trazado 998787" d="M279.3,373.365a.073.073,0,0,1-.031-.007,16.274,16.274,0,0,1-4.461-2.887.072.072,0,1,1,.1-.1,16.138,16.138,0,0,0,4.421,2.86.072.072,0,0,1-.031.138Z" transform="translate(-274.788 -370.346)" fill="#1a1f40"/>
          </g>
        </g>
      </g>
      <g id="Grupo_1178785" data-name="Grupo 1178785" transform="translate(270.898 92.884)">
        <path id="Trazado_998788" data-name="Trazado 998788" d="M929.011,710.291H888.665c-.161-4.757.312-14.089,6.241-20.187a21.566,21.566,0,0,1,4.976-3.8h0q-.468-2.409-.934-4.819l6.278.029,13.57.068q-.462,2.363-.922,4.722h0a21.741,21.741,0,0,1,4.976,3.8C928.8,696.223,929.2,705.559,929.011,710.291Z" transform="translate(-888.641 -612.864)" fill="#b0e5ff"/>
        <path id="Trazado_998789" data-name="Trazado 998789" d="M934.931,760.341H898.67c.06-3.736.672-8.846,3.078-13.159h30.166C934.3,751.493,934.887,756.6,934.931,760.341Z" transform="translate(-896.597 -664.982)" fill="#1a1f40"/>
        <g id="Grupo_1178779" data-name="Grupo 1178779" transform="translate(9.829 65.55)">
          <path id="Trazado_998790" data-name="Trazado 998790" d="M936.186,672.206c0,1.249,4.661,2.263,10.408,2.263S957,673.455,957,672.206c-.061-.041-.128-.081-.2-.122-1.54-.835-5.772-1.28-10.2-1.28-4.709,0-8.945.374-10.254,1.28C936.284,672.125,936.233,672.165,936.186,672.206Z" transform="translate(-936.186 -669.943)" fill="#97b7e0"/>
          <path id="Trazado_998791" data-name="Trazado 998791" d="M936.265,668.778h1.17v.016c0,.228.337.443.935.634a30.028,30.028,0,0,0,7.277.8c.331.006.668.008,1.01.008.386,0,.768,0,1.142-.01a29.756,29.756,0,0,0,7.139-.794c.6-.193.939-.408.939-.636v-.016h1.17c-.29-1.194-4.831-2.141-10.39-2.141S936.555,667.584,936.265,668.778Z" transform="translate(-936.249 -666.637)" fill="#b0e5ff"/>
          <path id="Trazado_998792" data-name="Trazado 998792" d="M941.925,671.523v.016c0,.228.337.443.935.634a30.028,30.028,0,0,0,7.277.8c.331.006.668.008,1.01.008.386,0,.768,0,1.142-.01a29.76,29.76,0,0,0,7.139-.794c.6-.193.939-.408.939-.636v-.016c-.055-.742-3.7-1.351-8.348-1.418-.288-.006-.579-.008-.872-.008-.382,0-.758,0-1.125.012C945.493,670.194,941.978,670.794,941.925,671.523Z" transform="translate(-940.739 -669.382)" fill="#7cc7eb"/>
        </g>
        <g id="Grupo_1178783" data-name="Grupo 1178783" transform="translate(17.039)">
          <g id="Grupo_1178782" data-name="Grupo 1178782">
            <g id="Grupo_1178780" data-name="Grupo 1178780">
              <path id="Trazado_998793" data-name="Trazado 998793" d="M1019,350.957a94.31,94.31,0,0,0-7.959,7.612q-.735.434-1.495.928c-.366.238-.721.473-1.067.711s-.655.459-.965.684c-.054.039-.105.079-.161.118q1.06-.189,2.117-.376c-.513.612-1.036,1.263-1.563,1.952-1.007,1.315-2.028,2.766-3.02,4.362a52.871,52.871,0,0,0-3.134,5.8l0,0a9.258,9.258,0,0,1-2.5,3.475c-.118.1-.234.2-.351.292-.029.021-.06.045-.089.068a.654.654,0,0,1-.087.068l-.087.066a.416.416,0,0,1-.037.031l-.128.1-.006,0s0,0,0,0c-.529.385-.992.684-1.149.846a.424.424,0,0,0-.031.031.075.075,0,0,0-.021.029.115.115,0,0,0-.008.017.029.029,0,0,0,0,.023.089.089,0,0,0,.021.014,5.416,5.416,0,0,0,1.375-.457s0,0,.008,0c.829-.333,1.491-.655,1.941-.889a.012.012,0,0,1,.008,0q-1.088,2.962-2.144,6.051a10.784,10.784,0,0,0-1.836.79,9.771,9.771,0,0,0-3.655,3.475,6.227,6.227,0,0,1,2.553-2.121c.118-.048.277-.105.54-.217a13.018,13.018,0,0,0,2.094-1.143q-.5,1.541-.99,3.1c-.072.227-.143.451-.211.676q-1.271,4.034-2.446,8.015c-.151.506-.3,1.015-.449,1.519a12.7,12.7,0,0,0-1.724,1.216c-.232.2-.447.393-.641.583a3.32,3.32,0,0,0,.819-.01,3.252,3.252,0,0,0,.926-.277,10.713,10.713,0,0,1-2.061,4.3,12.6,12.6,0,0,1-4.164,3.382,5.221,5.221,0,0,0,3.074-.219c-.11.213-.221.426-.337.639a59.1,59.1,0,0,1-8.544,12.026c-1.8,1.974-3.457,3.56-4.716,4.7q-.353.319-.664.591c-.157-.287-.31-.575-.457-.858a38.139,38.139,0,0,1-4.432-15.158c-.062-.918-.091-1.836-.081-2.752,0-.014,0-.091,0-.105,0-.035,0-.07,0-.105a2.953,2.953,0,0,0,1.612,1.11,3.323,3.323,0,0,0,1.189.1,14.073,14.073,0,0,1-2.179-5.131,8.973,8.973,0,0,1-.029-2.111,7.455,7.455,0,0,1,.19-.959l2.1,1s0,0,0,0a12.41,12.41,0,0,1-1.524-3.386h0a45.128,45.128,0,0,1,2.557-6.971,53.812,53.812,0,0,1,3.754-6.8c.064-.1.128-.2.2-.3a35.345,35.345,0,0,1,1.329,4.312,15.287,15.287,0,0,0,.657-7.176v0a78.29,78.29,0,0,1,8.615-9.793.281.281,0,0,0,.037-.035c0,.248.006.529.008.831,0,.01,0,.023,0,.033.014,1.691.037,3.982.045,4.751v.008c0,.041,0,.077,0,.11s0,.058,0,.081a.561.561,0,0,1,0,.068l.174-1.168v-.008l.831-5.714a105.234,105.234,0,0,1,9.406-7.821q1.495-1.107,3.051-2.189s-.246,2.508-.19,3.027c0,0,.32-1.063.674-2.08a7.5,7.5,0,0,1,.784-1.815,0,0,0,0,1,0,0l.035-.025a.126.126,0,0,0,.048-.031l.546-.368v0C1012.584,351.017,1023.1,347.47,1019,350.957Z" transform="translate(-971.059 -349.561)" fill="#2ab873"/>
              <path id="Trazado_998794" data-name="Trazado 998794" d="M992.347,546.123c-.232.2-.447.392-.642.584a3.306,3.306,0,0,0,.818-.011,3.237,3.237,0,0,0,.927-.278,10.709,10.709,0,0,1-2.061,4.3,12.617,12.617,0,0,1-4.164,3.382,5.223,5.223,0,0,0,3.075-.218c-.11.212-.222.426-.337.638A27.6,27.6,0,0,1,985,557.127a29.524,29.524,0,0,1-6.892,1.834,16.868,16.868,0,0,1-4.445-2.857,14.932,14.932,0,0,1-2.589-3.036c0-.014,0-.091,0-.1,0-.035,0-.07,0-.1a2.966,2.966,0,0,0,1.614,1.11,3.33,3.33,0,0,0,1.188.1,14.084,14.084,0,0,1-2.179-5.133,8.925,8.925,0,0,1-.028-2.11,7.538,7.538,0,0,1,.19-.96l2.1,1s0,0,0,0a12.4,12.4,0,0,1-1.523-3.386h0a45.144,45.144,0,0,1,2.558-6.97q3.154,4.858,6.307,9.714,6.614-1.417,13.226-2.833-.224.761-.447,1.52A12.678,12.678,0,0,0,992.347,546.123Z" transform="translate(-971.068 -497.859)" fill="#2ab873"/>
              <path id="Trazado_998795" data-name="Trazado 998795" d="M1022.421,459.248a6.224,6.224,0,0,1,2.553-2.12c.117-.048.277-.106.539-.219a12.752,12.752,0,0,0,2.094-1.143q-.5,1.541-.99,3.1c-.071.227-.142.451-.21.676l-1.067.36-12.721,4.735a21.175,21.175,0,0,1-2.916-4.829,19.6,19.6,0,0,1-1.521-5.933c.064-.1.128-.2.195-.3a35.544,35.544,0,0,1,1.33,4.311,15.635,15.635,0,0,0,.82-5.073,15.2,15.2,0,0,0-.163-2.1v0a78.207,78.207,0,0,1,8.614-9.793c.016.264.032.532.045.8a.125.125,0,0,1,0,.033l.219,3.84v.01q.15,2.623.3,5.246l8.367-1.516s0,0,.006,0q1.071-.192,2.141-.387-1.087,2.962-2.143,6.051a10.671,10.671,0,0,0-1.837.79A9.741,9.741,0,0,0,1022.421,459.248Z" transform="translate(-1000.508 -422.028)" fill="#2ab873"/>
              <path id="Trazado_998796" data-name="Trazado 998796" d="M1112.295,390.686c-.513.611-1.036,1.264-1.563,1.952q-5.024,2.5-10.048,4.99,1.088-4,2.177-7.993,1.494-1.106,3.05-2.189s-.245,2.506-.188,3.026c0,0,.32-1.062.673-2.08.178.841.356,1.679.532,2.521l4.379-.652c-.333.228-.655.458-.965.685l-.161.116Z" transform="translate(-1073.886 -379.613)" fill="#2ab873"/>
            </g>
            <g id="Grupo_1178781" data-name="Grupo 1178781" transform="translate(3.448 73.117)">
              <path id="Trazado_998797" data-name="Trazado 998797" d="M989.926,703.51c-.008.058-.014.114-.023.172s-.019.13-.029.194c-.019.149-.039.3-.06.447-.12.856-.234,1.71-.339,2.568-.008.087-.021.172-.031.258-.029.263-.064.523-.1.786-.014.157-.033.31-.048.467-.039.4-.081.806-.132,1.211-.008.1-.019.2-.033.3q-.45,3.011-.775,6.041-.164,1.513-.3,3.031c-.1,1.011-.184,2.024-.26,3.037-.031-1.017-.054-2.03-.066-3.049s0-2.032.021-3.049q.053-3.048.227-6.1c.006-.07.014-.139.021-.209.052-.523.105-1.044.167-1.567.031-.26.06-.523.091-.784.124-1.007.258-2.014.4-3.018.023-.163.048-.329.07-.494.008-.064.016-.128.029-.194l.043-.312c.147.283.3.571.457.858Q989.573,703.828,989.926,703.51Z" transform="translate(-987.738 -703.243)" fill="#1a1f40"/>
            </g>
          </g>
          <path id="Trazado_998798" data-name="Trazado 998798" d="M987.456,737.7a1.839,1.839,0,0,1-1.237.234s-1.038,6.973-.093,11.973c0,0,.9-4.132,2.021-4.878Z" transform="translate(-982.696 -657.458)" fill="#1a1f40"/>
        </g>
        <g id="Grupo_1178784" data-name="Grupo 1178784" transform="translate(21.937 8.432)">
          <path id="Trazado_998799" data-name="Trazado 998799" d="M994.827,455.966a.072.072,0,0,1-.072-.072c-.1-9.564,3.333-22.675,9.19-35.072,6.314-13.363,14.454-24.179,22.922-30.457a.072.072,0,1,1,.086.116c-18.3,13.568-32.259,46.3-32.053,65.412a.072.072,0,0,1-.072.073Z" transform="translate(-994.752 -390.351)" fill="#1a1f40"/>
        </g>
        <path id="Trazado_998800" data-name="Trazado 998800" d="M936.186,677.117c0,1.25,4.661,2.263,10.408,2.263S957,678.366,957,677.117a.428.428,0,0,0-.016-.122h-1.17v.016c0,.228-.337.443-.939.636a29.74,29.74,0,0,1-7.139.794c-.374.006-.756.01-1.142.01-.341,0-.678,0-1.01-.008a30.028,30.028,0,0,1-7.277-.8c-.6-.191-.935-.406-.935-.634v-.016H936.2A.43.43,0,0,0,936.186,677.117Z" transform="translate(-926.357 -609.304)" fill="#b0e5ff"/>
        <path id="Trazado_998801" data-name="Trazado 998801" d="M936.186,677.585v.861c0,1.252,4.661,2.265,10.408,2.265S957,679.7,957,678.446v-.861c0,1.25-4.659,2.263-10.406,2.263S936.186,678.835,936.186,677.585Z" transform="translate(-926.357 -609.772)" fill="#7cc7eb"/>
      </g>
      <path id="Trazado_998802" data-name="Trazado 998802" d="M602.169,112.765l-5.425-1.826-1.734,2.275-3.706-1.247L601.456,99.2l4.1,1.38.367,16.306-3.748-1.261Zm.009-3.04-.01-5.928L598.6,108.52Z" transform="translate(-381.875 -58.075)" fill="#ff7242"/>
      <path id="Trazado_998803" data-name="Trazado 998803" d="M771.591,322.137l-2.317,9.8-2.387-.564,1.39-5.877-3.581,5.359-1.927-.455-.813-6.413-1.393,5.891-2.387-.564,2.317-9.8,2.82.667,1.146,7.435,4.327-6.141Z" transform="translate(-514.248 -232.841)" fill="#4796ff"/>
      <path id="Trazado_998804" data-name="Trazado 998804" d="M532.676,267.137l5.055-1.988.922,2.343-8.3,3.266-.856-2.176,2.177-9.206-5.021,1.975-.922-2.343,8.3-3.266.856,2.176Z" transform="translate(-329.856 -182.255)" fill="#2ab873"/>
      <path id="Trazado_998805" data-name="Trazado 998805" d="M647.613,386.074l-1.956-5.032-.725-.1-.626,4.687-3.024-.4,1.659-12.417,5.076.678a5.64,5.64,0,0,1,2.434.847,3.568,3.568,0,0,1,1.36,1.613,3.961,3.961,0,0,1,.247,2.058,3.729,3.729,0,0,1-.994,2.118,3.8,3.8,0,0,1-2.245,1.1l2.208,5.3Zm-2.4-7.269,1.875.251a1.732,1.732,0,0,0,1.3-.24,1.55,1.55,0,0,0,.569-1.094,1.5,1.5,0,0,0-.267-1.17,1.733,1.733,0,0,0-1.193-.573l-1.875-.251Z" transform="translate(-421.52 -275.121)" fill="#ffbe33"/>
      <g id="Grupo_1178786" data-name="Grupo 1178786" transform="translate(125.554 48.868)">
        <path id="Trazado_998806" data-name="Trazado 998806" d="M201.27,143.045a7.919,7.919,0,1,0-4.6,8.775l-.011.006,3.5.158-.362-2.612A7.9,7.9,0,0,0,201.27,143.045Z" transform="translate(-185.586 -136.649)" fill="#ff7242"/>
        <path id="Trazado_998807" data-name="Trazado 998807" d="M220.893,158.464l-5.828-3.812a.4.4,0,0,0-.613.331v7.623a.4.4,0,0,0,.613.331l5.828-3.812A.4.4,0,0,0,220.893,158.464Z" transform="translate(-208.485 -150.879)" fill="#fff"/>
      </g>
      <g id="Grupo_1178788" data-name="Grupo 1178788" transform="translate(255.791 40.656)">
        <path id="Trazado_998808" data-name="Trazado 998808" d="M865.428,130.851l-10.175-1.512,4.149-4.644Z" transform="translate(-847.048 -118.955)" fill="#1a1f40"/>
        <path id="Trazado_998809" data-name="Trazado 998809" d="M824.4,128.645l-8.581-7.141,12.732,3.047Z" transform="translate(-815.763 -116.424)" fill="#4796ff"/>
        <path id="Trazado_998810" data-name="Trazado 998810" d="M815.771,101.991l18.577-5.061-3.906,4.23Z" transform="translate(-815.728 -96.93)" fill="#4796ff"/>
        <path id="Trazado_998811" data-name="Trazado 998811" d="M815.815,117.945l12.757,3.1,5.571,3.716-3.649-7.743Z" transform="translate(-815.763 -112.865)" fill="#2466d4"/>
        <g id="Grupo_1178787" data-name="Grupo 1178787" transform="translate(0 4.152)">
          <path id="Trazado_998812" data-name="Trazado 998812" d="M815.616,117.993a.052.052,0,0,1,0-.1l14.643-.877a.052.052,0,0,1,.006.1l-14.644.877Z" transform="translate(-815.565 -117.013)" fill="#260a5e"/>
        </g>
      </g>
      <g id="Grupo_1178789" data-name="Grupo 1178789" transform="translate(278.061 52.425)">
        <path id="Trazado_998813" data-name="Trazado 998813" d="M963.72,246.191a23.3,23.3,0,0,1-2.408-.126.072.072,0,0,1-.064-.079.071.071,0,0,1,.079-.064c10.143,1.053,19.622-4.959,25.357-16.084,6.063-11.76,7.426-29.082-1.7-39.434-4.8-5.448-11.892-9.019-18.065-9.1q-.528-.007-1.034.021a27.431,27.431,0,0,1-.236,6.111,4.676,4.676,0,0,1-2.191,3.428,4.344,4.344,0,0,1-3.825.174,3.344,3.344,0,0,1-1.7-2.452A5.088,5.088,0,0,1,959,184.059a9.747,9.747,0,0,1,6.73-2.869,26.253,26.253,0,0,0-7.479-16.257c-7.915-8.2-20.956-12.153-34.886-10.573a.072.072,0,0,1-.016-.144,48.549,48.549,0,0,1,20.2,1.73,35.278,35.278,0,0,1,14.808,8.886,26.394,26.394,0,0,1,7.519,16.349q.513-.028,1.047-.021c6.212.079,13.344,3.67,18.171,9.147,4.127,4.683,6.4,11.166,6.569,18.746a44.137,44.137,0,0,1-4.852,20.85,33,33,0,0,1-10.439,12.283A22.147,22.147,0,0,1,963.72,246.191Zm2.024-64.857a9.607,9.607,0,0,0-6.635,2.823,4.943,4.943,0,0,0-1.032,4.4,3.2,3.2,0,0,0,1.612,2.349,4.205,4.205,0,0,0,3.7-.165,4.533,4.533,0,0,0,2.121-3.324A27.361,27.361,0,0,0,965.744,181.334Z" transform="translate(-923.287 -153.859)" fill="#1a1f40"/>
      </g>
      <path id="Trazado_998814" data-name="Trazado 998814" d="M1134.984,695.58a4.782,4.782,0,0,1-2.954-4.011l-.178-1.094-.178,1.094a4.783,4.783,0,0,1-2.954,4.011l-.806.241.806.241a4.782,4.782,0,0,1,2.954,4.011l.178,1.094.178-1.094a4.783,4.783,0,0,1,2.954-4.011l.806-.241Z" transform="translate(-807.551 -527.114)" fill="#ffbe33"/>
      <path id="Trazado_998815" data-name="Trazado 998815" d="M403.829,103.943a4.782,4.782,0,0,1-2.954-4.011l-.178-1.094-.178,1.094a4.782,4.782,0,0,1-2.954,4.011l-.806.241.806.241a4.782,4.782,0,0,1,2.954,4.011l.178,1.094.178-1.094a4.782,4.782,0,0,1,2.954-4.011l.806-.241Z" transform="translate(-227.55 -57.788)" fill="#ffbe33"/>
      <path id="Trazado_998816" data-name="Trazado 998816" d="M986.673,89.612a2.21,2.21,0,0,0,1.365-1.853l.082-.505.082.505a2.21,2.21,0,0,0,1.365,1.853l.372.111-.372.111a2.21,2.21,0,0,0-1.365,1.853l-.082.505-.082-.505a2.21,2.21,0,0,0-1.365-1.853l-.372-.111Z" transform="translate(-695.213 -48.598)" fill="#ff7242"/>
      <path id="Trazado_998817" data-name="Trazado 998817" d="M171.3,523.926a2.21,2.21,0,0,0,1.365-1.853l.082-.505.082.505a2.21,2.21,0,0,0,1.365,1.853l.372.111-.372.111A2.209,2.209,0,0,0,172.83,526l-.082.505-.082-.505a2.21,2.21,0,0,0-1.365-1.853l-.372-.111Z" transform="translate(-48.404 -393.125)" fill="#4796ff"/>
      <g id="Grupo_1178790" data-name="Grupo 1178790" transform="translate(109.909 190.238)">
        <path id="Trazado_998818" data-name="Trazado 998818" d="M337.774,820.628H109.981a.072.072,0,1,1,0-.145H337.774a.072.072,0,0,1,0,.145Z" transform="translate(-109.909 -820.483)" fill="#1a1f40"/>
      </g>
      <g id="Grupo_1178791" data-name="Grupo 1178791" transform="translate(281.706 200.898)">
        <path id="Trazado_998819" data-name="Trazado 998819" d="M976.763,872.191H940.992a.072.072,0,0,1,0-.145h35.772a.072.072,0,1,1,0,.145Z" transform="translate(-940.92 -872.046)" fill="#1a1f40"/>
      </g>
      <g id="Grupo_1178792" data-name="Grupo 1178792" transform="translate(160.354 200.898)">
        <path id="Trazado_998820" data-name="Trazado 998820" d="M368.007,872.191H353.994a.072.072,0,1,1,0-.145h14.012a.072.072,0,1,1,0,.145Z" transform="translate(-353.922 -872.046)" fill="#1a1f40"/>
      </g>
    </g>
  </g>
</svg>
