<svg xmlns="http://www.w3.org/2000/svg" width="61.899" height="61.899" viewBox="0 0 61.899 61.899">
  <g id="Grupo_1072169" data-name="Grupo 1072169" transform="translate(-0.001 0)">
    <g id="Grupo_1072053" data-name="Grupo 1072053" transform="translate(0.001 0)">
      <ellipse id="Elipse_4742" data-name="Elipse 4742" cx="30.949" cy="30.949" rx="30.949" ry="30.949" transform="translate(0)" fill="#fcc510"/>
    </g>
    <g id="Grupo_1177513" data-name="Grupo 1177513" transform="translate(15.057 15.056)">
      <path id="Trazado_993786" data-name="Trazado 993786" d="M30.651,0H1.135A1.135,1.135,0,0,0,0,1.135V30.651a1.135,1.135,0,0,0,1.135,1.135H30.651a1.135,1.135,0,0,0,1.135-1.135V1.135A1.135,1.135,0,0,0,30.651,0ZM14.758,28.38H3.406a1.135,1.135,0,1,1,0-2.271H14.758a1.135,1.135,0,1,1,0,2.271ZM28.38,22.7H3.406a1.135,1.135,0,1,1,0-2.27H28.38a1.135,1.135,0,1,1,0,2.27Zm0-5.676H3.406a1.135,1.135,0,1,1,0-2.271H28.38a1.135,1.135,0,0,1,0,2.271Zm0-5.676H3.406a1.135,1.135,0,0,1,0-2.271H28.38a1.135,1.135,0,0,1,0,2.271Zm0-5.676H3.406a1.135,1.135,0,1,1,0-2.27H28.38a1.135,1.135,0,1,1,0,2.27Z" fill="#12263f"/>
    </g>
  </g>
</svg>
