<svg xmlns="http://www.w3.org/2000/svg" width="128" height="128" viewBox="0 0 128 128">
  <g id="Grupo_1177749" data-name="Grupo 1177749" transform="translate(-72.746 -7992)">
    <g id="Elipse_13628" data-name="Elipse 13628" transform="translate(72.746 7992)" fill="#fff7e2" stroke="#cff878" stroke-width="6">
      <circle cx="64" cy="64" r="64" stroke="none"/>
      <circle cx="64" cy="64" r="61" fill="none"/>
    </g>
    <g id="Grupo_1177788" data-name="Grupo 1177788" transform="translate(104.476 8018.686)">
      <path id="Trazado_994962" data-name="Trazado 994962" d="M215.121,137.05v2.932a1.054,1.054,0,0,0,1.053,1.053h2.371a1.054,1.054,0,0,0,1.053-1.053V137.05A1.053,1.053,0,0,0,218.546,136h-2.371A1.053,1.053,0,0,0,215.121,137.05Zm0,0" transform="translate(-183.765 -116.173)" fill="#86919e"/>
      <path id="Trazado_994963" data-name="Trazado 994963" d="M29.058,102.67,17.56,83.6a2.744,2.744,0,0,0-3.77-.931l-5,3.022a2.753,2.753,0,0,0-.932,3.776l11.815,19.594Zm0,0" transform="translate(-6.377 -70.281)" fill="#84eaf5"/>
      <path id="Trazado_994964" data-name="Trazado 994964" d="M188.884,16.031A8.558,8.558,0,1,0,176.9,23.875v2.033a1.875,1.875,0,0,0,1.876,1.876h3.1a1.875,1.875,0,0,0,1.876-1.876V23.875a8.559,8.559,0,0,0,5.135-7.844Zm0,0" transform="translate(-146.731 -6.382)" fill="#feda5f"/>
      <path id="Trazado_994965" data-name="Trazado 994965" d="M341.36,102.136l5.336-8.848-.073-11.014-9.778,5.081-5.267,8.734Zm0,0" transform="translate(-283.247 -70.281)" fill="#fce49d"/>
      <path id="Trazado_994966" data-name="Trazado 994966" d="M312.91,121.458v0l-4.1-4.331-10.052,16.7,3.7,5.012,5.883,1.38,10.315-17.155Zm0,0" transform="translate(-255.208 -100.056)" fill="#f4c84e"/>
      <path id="Trazado_994967" data-name="Trazado 994967" d="M340.7,165.588l10.315-17.155-5.747-1.6-8.636,14.256Zm0,0" transform="translate(-287.562 -125.426)" fill="#feda5f"/>
      <path id="Trazado_994968" data-name="Trazado 994968" d="M414.332,82.273l-3.492,1.815,3.519,2.165Zm0,0" transform="translate(-350.956 -70.281)" fill="#86919e"/>
      <path id="Trazado_994969" data-name="Trazado 994969" d="M73.387,225.061h14.2a8.389,8.389,0,0,0,.581-16.758,8.389,8.389,0,0,0-12.259-9.173,8.392,8.392,0,0,0-15.5,0,8.389,8.389,0,0,0-12.254,9.2,8.39,8.39,0,0,0,.87,16.736Zm0,0" transform="translate(-34.707 -165.682)" fill="#f0a8d0"/>
      <path id="Trazado_994970" data-name="Trazado 994970" d="M300.057,232.454a8.389,8.389,0,0,0-11.381-9.6,8.387,8.387,0,0,1,4.989,9.6,8.389,8.389,0,0,1-.581,16.758h6.392a8.389,8.389,0,0,0,.581-16.758Zm0,0" transform="translate(-246.599 -189.834)" fill="#ea89bf"/>
      <path id="Trazado_994971" data-name="Trazado 994971" d="M178.916,293.324l7.936.1-4.384,11.328,7.25.19-15.451,19.181,5.375-14.177-6.7-.084Zm0,0" transform="translate(-147.737 -250.569)" fill="#feda5f"/>
      <path id="Trazado_994972" data-name="Trazado 994972" d="M296.839,110.55,299.163,112a1.09,1.09,0,0,0,1.155-1.848l-2.325-1.452A1.09,1.09,0,0,0,296.839,110.55Zm0,0" transform="translate(-253.144 -92.709)"/>
      <path id="Trazado_994973" data-name="Trazado 994973" d="M299.461,4.528a1.086,1.086,0,0,0,.577-.166l2.324-1.453a1.09,1.09,0,0,0-1.155-1.848l-2.324,1.453a1.1,1.1,0,0,0,.578,2.014Zm0,0" transform="translate(-254.897 -0.758)"/>
      <path id="Trazado_994974" data-name="Trazado 994974" d="M310.219,60.839a1.089,1.089,0,0,0,1.089,1.09h2.906a1.09,1.09,0,0,0,0-2.179h-2.906A1.089,1.089,0,0,0,310.219,60.839Zm0,0" transform="translate(-265.002 -51.041)"/>
      <path id="Trazado_994975" data-name="Trazado 994975" d="M136.713,108.7l-2.325,1.452a1.09,1.09,0,0,0,1.155,1.848l2.325-1.453A1.09,1.09,0,0,0,136.713,108.7Zm0,0" transform="translate(-114.374 -92.711)"/>
      <path id="Trazado_994976" data-name="Trazado 994976" d="M132.386,2.908l2.324,1.452a1.09,1.09,0,0,0,1.155-1.848L133.541,1.06a1.09,1.09,0,0,0-1.155,1.848Zm0,0" transform="translate(-112.662 -0.757)"/>
      <path id="Trazado_994977" data-name="Trazado 994977" d="M117.161,61.929h2.906a1.09,1.09,0,0,0,0-2.179h-2.906A1.09,1.09,0,0,0,117.161,61.929Zm0,0" transform="translate(-99.183 -51.041)"/>
      <path id="Trazado_994978" data-name="Trazado 994978" d="M169.423,18.176v1.351a2.96,2.96,0,0,0,1.184,2.365v2.97a1.09,1.09,0,0,0,1.09,1.089h4.478a1.089,1.089,0,0,0,1.089-1.089v-2.97a2.958,2.958,0,0,0,1.184-2.365V18.176a9.657,9.657,0,0,0,5.078-9.585,1.09,1.09,0,0,0-2.166.237,7.479,7.479,0,0,1-4.438,7.666,1.091,1.091,0,0,0-.653,1v2.034a.787.787,0,0,1-.786.786h-3.1a.788.788,0,0,1-.786-.786V17.493a1.088,1.088,0,0,0-.653-1,7.469,7.469,0,1,1,7.17-13.035,1.09,1.09,0,0,0,1.222-1.8,9.649,9.649,0,1,0-9.918,16.521Zm3.364,5.6V22.491h2.3v1.281Zm0,0" transform="translate(-140.341 0)"/>
      <path id="Trazado_994979" data-name="Trazado 994979" d="M59.041,96.314l.005-.007,5.336-8.849a1.108,1.108,0,0,0,.157-.57l-.073-11.013a1.1,1.1,0,0,0-1.592-.96L53.1,80c-.632.329-.955,1.274-1.293,1.834l-8.145,13.5a9.488,9.488,0,0,0-1.953.555,9.483,9.483,0,0,0-16.513,0,9.52,9.52,0,0,0-1.791-.528L12.116,76.647a3.834,3.834,0,0,0-5.268-1.3l-5,3.022A3.847,3.847,0,0,0,.55,83.64l11.728,19.449a9.49,9.49,0,0,0-.085,2.546,9.482,9.482,0,0,0,2.119,18.723h3.3a1.09,1.09,0,0,0,0-2.179h-3.3a7.3,7.3,0,0,1-.758-14.563,1.1,1.1,0,0,0,.951-1.324,7.3,7.3,0,0,1,7.118-8.92,7.487,7.487,0,0,1,5.989,3.106,1.09,1.09,0,0,0,1.727-1.328A11.6,11.6,0,0,0,27.1,96.942a7.3,7.3,0,0,1,13.092.814,1.1,1.1,0,0,0,1.536.534,7.3,7.3,0,0,1,10.844,6.383,7.184,7.184,0,0,1-.051.848,7.818,7.818,0,0,0-4.339,1.816,1.09,1.09,0,0,0,1.541,1.541,6.158,6.158,0,0,1,3.765-1.236c3.724,0,6.689,3.7,6.689,7.237a7.309,7.309,0,0,1-7.3,7.3H40.226l2.6-3.233a1.106,1.106,0,0,0-.82-1.772l-5.7-.15,3.826-9.887a1.1,1.1,0,0,0-1-1.483l-7.936-.1a1.083,1.083,0,0,0-1.039.72l-5.961,16.511a1.107,1.107,0,0,0,.976,1.571h5.159l-4.815,12.7a1.1,1.1,0,0,0,1.868,1.07L38.486,124.34a1.094,1.094,0,0,0,.194.018h14.2a9.479,9.479,0,0,0,1.831-18.78c.056-.585-.213-1.727.071-2.2Zm-45.86,4.053L2.417,82.514a1.665,1.665,0,0,1,.563-2.281l5-3.022a1.653,1.653,0,0,1,2.274.561l1.131,1.876L9.335,80.886a1.09,1.09,0,0,0,1.128,1.865l2.043-1.236,2.209,3.663-3.274,1.98a1.09,1.09,0,0,0,1.128,1.865l3.272-1.979,2.209,3.663L16,91.945a1.09,1.09,0,1,0,1.128,1.865l2.043-1.236,1.6,2.658a9.494,9.494,0,0,0-7.6,5.135Zm19.744,23.286a1.09,1.09,0,0,0-1-1.476l-5.167-.065,5.187-14.368,5.592.07-3.817,9.865a1.09,1.09,0,0,0,.988,1.483l5.049.132-9.775,12.135Zm13.331-28.41,3-4.975.006-.009,4.527-7.508,2.547,2.687L49.73,96.309a9.418,9.418,0,0,0-3.473-1.065ZM58.283,84.323l-2.9-3.06,4.422-2.3,2.512,1.513.033,4.979Zm4.018-6.4-.228-.137.226-.117ZM51.523,97.554,58.2,86.563l3.572,1-7.911,13.116a9.532,9.532,0,0,0-2.343-3.122Zm0,0" transform="translate(0 -63.89)"/>
    </g>
  </g>
</svg>
