<svg xmlns="http://www.w3.org/2000/svg" width="357.017" height="103" viewBox="0 0 357.017 103">
  <g id="Grupo_1178023" data-name="Grupo 1178023" transform="translate(-208.081 -2389)">
    <rect id="Rectángulo_455101" data-name="Rectángulo 455101" width="357.017" height="103" rx="10" transform="translate(208.081 2389)" fill="#a4c2ff"/>
    <path id="Feature_One" data-name="Feature One" d="M51.109,21.953H48.141V30H42.656V7.25h8.953a9.993,9.993,0,0,1,6.328,1.795,6.082,6.082,0,0,1,2.281,5.073,7.386,7.386,0,0,1-.961,3.933A6.821,6.821,0,0,1,56.25,20.58L61,29.765V30H55.125Zm-2.969-4.219h3.469a3.114,3.114,0,0,0,2.352-.822,3.179,3.179,0,0,0,.789-2.295,3.217,3.217,0,0,0-.8-2.31,3.084,3.084,0,0,0-2.344-.838H48.141ZM71.469,30.313a8.691,8.691,0,0,1-6.3-2.32,8.013,8.013,0,0,1-2.406-6.039v-.437a10.383,10.383,0,0,1,.961-4.578,7.031,7.031,0,0,1,2.8-3.07,8.467,8.467,0,0,1,4.375-1.086,7.318,7.318,0,0,1,5.625,2.211,8.688,8.688,0,0,1,2.063,6.164V23.2H68.125a3.8,3.8,0,0,0,1.234,2.234,3.673,3.673,0,0,0,2.469.813,4.732,4.732,0,0,0,3.906-1.75l2.406,2.844a6.726,6.726,0,0,1-2.789,2.164A9.425,9.425,0,0,1,71.469,30.313Zm-.594-13.469q-2.312,0-2.75,3.063h5.313V19.5a2.608,2.608,0,0,0-.641-1.961A2.549,2.549,0,0,0,70.875,16.844ZM86.266,30H80.984V13.094h5.281ZM80.672,8.734a2.35,2.35,0,0,1,.813-1.844,3.455,3.455,0,0,1,4.219,0,2.35,2.35,0,0,1,.813,1.844,2.35,2.35,0,0,1-.812,1.844,3.455,3.455,0,0,1-4.219,0A2.35,2.35,0,0,1,80.672,8.734Zm13.672,4.359.172,1.984a5.733,5.733,0,0,1,4.828-2.3,4.823,4.823,0,0,1,3.945,1.578,7.513,7.513,0,0,1,1.352,4.75V30H99.359V19.328a2.853,2.853,0,0,0-.516-1.883,2.385,2.385,0,0,0-1.875-.6,2.511,2.511,0,0,0-2.3,1.219V30H89.406V13.094ZM117.078,30a5.946,5.946,0,0,1-.5-1.516,4.9,4.9,0,0,1-4.062,1.828,6,6,0,0,1-4.062-1.445,4.6,4.6,0,0,1-1.672-3.633,4.728,4.728,0,0,1,2.031-4.156,10.348,10.348,0,0,1,5.906-1.406h1.625v-.9q0-2.339-2.016-2.339a1.648,1.648,0,0,0-1.875,1.853h-5.266a4.72,4.72,0,0,1,2.086-3.98,8.766,8.766,0,0,1,5.32-1.529,7.686,7.686,0,0,1,5.109,1.578,5.487,5.487,0,0,1,1.922,4.328v7.484a7.665,7.665,0,0,0,.719,3.563V30Zm-3.3-3.437a2.937,2.937,0,0,0,1.633-.422,2.644,2.644,0,0,0,.93-.953v-2.7h-1.531q-2.75,0-2.75,2.469a1.507,1.507,0,0,0,.484,1.164A1.753,1.753,0,0,0,113.781,26.563ZM52.789,50.688a8.662,8.662,0,0,0-1.422-.109A3.809,3.809,0,0,0,47.508,53V65H44.617V48.094H47.43l.047,1.953a4.5,4.5,0,0,1,4.031-2.266A2.953,2.953,0,0,1,52.789,48Zm9.375,14.625a7.387,7.387,0,0,1-5.594-2.258,8.38,8.38,0,0,1-2.156-6.039v-.531a10.145,10.145,0,0,1,.961-4.492A7.5,7.5,0,0,1,58.063,48.9,6.757,6.757,0,0,1,61.8,47.781a6.332,6.332,0,0,1,5.125,2.172,9.4,9.4,0,0,1,1.828,6.219v1.2H57.3a6.01,6.01,0,0,0,1.461,4.039,4.592,4.592,0,0,0,3.555,1.539,5.035,5.035,0,0,0,2.594-.625,6.517,6.517,0,0,0,1.859-1.656l1.766,1.375A7.1,7.1,0,0,1,62.164,65.313ZM61.8,50.156a3.856,3.856,0,0,0-2.937,1.273A6.19,6.19,0,0,0,57.4,55h8.469v-.219a5.506,5.506,0,0,0-1.187-3.414A3.63,3.63,0,0,0,61.8,50.156ZM75.242,65H72.352V48.094h2.891ZM72.117,43.609a1.725,1.725,0,0,1,.43-1.187,1.613,1.613,0,0,1,1.273-.484,1.638,1.638,0,0,1,1.281.484,1.707,1.707,0,0,1,.438,1.188,1.651,1.651,0,0,1-.437,1.172,1.668,1.668,0,0,1-1.281.469,1.642,1.642,0,0,1-1.273-.469A1.668,1.668,0,0,1,72.117,43.609ZM85.883,56.516H78.258V54.156h7.625Zm5.547-8.422.094,2.125a6.161,6.161,0,0,1,5.063-2.437q5.359,0,5.406,6.047V65H99.1V53.813a3.892,3.892,0,0,0-.836-2.7,3.35,3.35,0,0,0-2.555-.875,4.172,4.172,0,0,0-2.469.75,5.093,5.093,0,0,0-1.656,1.969V65H88.7V48.094ZM116.789,65a6.072,6.072,0,0,1-.406-1.781,6.45,6.45,0,0,1-4.812,2.094,5.968,5.968,0,0,1-4.1-1.414,4.575,4.575,0,0,1-1.6-3.586,4.779,4.779,0,0,1,2.008-4.1,9.466,9.466,0,0,1,5.648-1.461h2.813V53.422a3.246,3.246,0,0,0-.906-2.414,3.642,3.642,0,0,0-2.672-.9,4.215,4.215,0,0,0-2.594.781,2.3,2.3,0,0,0-1.047,1.891h-2.906a3.989,3.989,0,0,1,.9-2.445,6.132,6.132,0,0,1,2.438-1.867,8.2,8.2,0,0,1,3.383-.687,6.684,6.684,0,0,1,4.578,1.461,5.27,5.27,0,0,1,1.719,4.023v7.781a9.513,9.513,0,0,0,.594,3.7V65Zm-4.8-2.2a5.08,5.08,0,0,0,2.578-.7,4.253,4.253,0,0,0,1.766-1.828V56.8H114.07q-5.312,0-5.312,3.109a2.632,2.632,0,0,0,.906,2.125A3.483,3.483,0,0,0,111.992,62.8Z" transform="translate(304.081 2404)" fill="#4d5464"/>
    <path id="Trazado_995558" data-name="Trazado 995558" d="M.14,21.739a3.607,3.607,0,0,0,5.551,3.053l5.761,6.07a7.981,7.981,0,0,0-2.631,5.157,5.667,5.667,0,0,0,1.637,4.058,5.452,5.452,0,0,0-1.706,4.488c.309,1.538,1.6,2.716,3.846,3.507.2,1.333.836,3.758,2.9,4.574a3.7,3.7,0,0,0,1.379.26,5.63,5.63,0,0,0,2.4-.622,50.453,50.453,0,0,1-.117,6.07c-.182,2.112-1.013,2.322-2.064,2.589-.685.174-1.961.5-2.066,1.889a1.553,1.553,0,0,0,.485,1.263c.745.7,1.88.55,3.768.3a17.071,17.071,0,0,1,6.683.047c1.55.447,4.214,2.327,6.563,3.986,3.559,2.512,5.8,4.032,7.391,4.032a2.046,2.046,0,0,0,1.066-.283,2.332,2.332,0,0,0,.943-2.524c-.516-4.466-4.35-8.085-6.762-9.95V56.773c6.465,2.154,7.8,1.129,8.258.784a4.28,4.28,0,0,0,1.412-3.175A6.625,6.625,0,0,1,46.449,50.4a18.083,18.083,0,0,0,3.585-6.477,2.419,2.419,0,0,0-.719-2.525c-4.04-3.663-4.172-10.219-3.942-13.53A5.607,5.607,0,0,0,47,26.78a5.034,5.034,0,0,0,1.329-4.53c-.765-5.416-6.134-6.752-9.581-6.733L36.122,6.5a3.619,3.619,0,1,0-3.379.535c-.386.973-1.028,2.09-2,2.313a2.72,2.72,0,0,1-2.365-1.144,3.618,3.618,0,1,0-3.4,1.412,4.252,4.252,0,0,1-1.34,3.067c-.551.427-1.813-.162-3.317-1.511a3.585,3.585,0,0,0,.338-1.5,3.621,3.621,0,1,0-3.734,3.61c.269,1.748.077,3.026-.569,3.566-.963.813-2.377-.063-3.29-.82a3.575,3.575,0,0,0,.35-1.528,3.632,3.632,0,1,0-2.869,3.54,3.43,3.43,0,0,1-.329,2.92,3.521,3.521,0,0,1-2.848.672,3.616,3.616,0,0,0-7.232.111Zm45.8.848a2.715,2.715,0,0,1-.628,2.469,3.644,3.644,0,0,1-1.431.806c-.018.006-.033.014-.05.02a11.741,11.741,0,0,1-4.228.338,9.749,9.749,0,0,0-.639-2.619,1.207,1.207,0,1,0-2.218.953c.012.028,1.172,2.826-.106,4.649-.954,1.362-3.2,1.987-6.492,1.818a1.207,1.207,0,1,0-.126,2.411q.6.031,1.156.031c.06,0,.113-.006.172-.006a2.485,2.485,0,0,1-.286,2.119c-.5.584-2.033,1.427-6.78.5-.677-.129-1.414-.292-2.2-.491a1.207,1.207,0,1,0-.594,2.34q.607.154,1.176.281c-.272,1.933-.167,4.075,1.261,5.192a3.254,3.254,0,0,0,2.073.676,5.117,5.117,0,0,0,.688-.056v.879a3.621,3.621,0,1,0,2.414,0V43.257c.162-.072.318-.135.486-.218a1.207,1.207,0,0,0-1.069-2.164c-2.215,1.095-2.936.753-3.1.622-.366-.287-.579-1.264-.376-2.841a19.331,19.331,0,0,0,2.89.244c2.332,0,3.974-.586,4.973-1.765a4.6,4.6,0,0,0,.862-3.874,7,7,0,0,0,4.859-2.689,5.536,5.536,0,0,0,.844-1.939,15.735,15.735,0,0,0,3.447-.086c-.159,3.908.32,10.6,4.809,14.658A15.618,15.618,0,0,1,44.643,48.8a8.99,8.99,0,0,0-2.2,5.256c-.132.963-.213,1.375-.461,1.568-.445.225-2.689.048-6.823-1.4a1.811,1.811,0,0,0-2.409,1.709V60a1.788,1.788,0,0,0,.713,1.439c1.675,1.264,5.619,4.622,6.066,8.489l0,.04a34.1,34.1,0,0,1-5.614-3.514c-2.629-1.856-5.346-3.774-7.285-4.333a16.341,16.341,0,0,0-6.286-.293,5.532,5.532,0,0,0,1.213-3.275,54.683,54.683,0,0,0,.055-7.776,24.737,24.737,0,0,0,2-1.777,1.207,1.207,0,0,0-1.692-1.722c-3.477,3.416-5.032,3.318-5.54,3.12-1.01-.4-1.419-2.389-1.46-3.288A1.206,1.206,0,0,0,14.052,46c-1.742-.5-2.783-1.179-2.931-1.911-.209-1.027,1.154-2.519,1.845-3.079a1.207,1.207,0,0,0,.009-1.875,3.869,3.869,0,0,1-1.74-3.043c.047-1.849,1.943-3.643,2.683-4.189,12.867-9.713,22.917-13.5,24.191-13.954,1.036-.067,7.146-.238,7.834,4.635ZM27.9,47.086a1.207,1.207,0,1,1-1.207,1.207A1.207,1.207,0,0,1,27.9,47.086ZM32.73,3.634a1.207,1.207,0,1,1,1.207,1.207A1.207,1.207,0,0,1,32.73,3.634ZM24.28,6.048a1.207,1.207,0,1,1,1.207,1.207A1.207,1.207,0,0,1,24.28,6.048Zm-7.242,4.828a1.207,1.207,0,1,1,1.207-1.207,1.194,1.194,0,0,1-.324.808c-.006.006-.014.007-.02.013s-.017.031-.03.045A1.2,1.2,0,0,1,17.038,10.876ZM10.656,15.34s-.012.006-.017.012l-.007.01a1.086,1.086,0,1,1,.024-.022Zm1.364,7.225a4.839,4.839,0,0,0,1.069-3.621,5.2,5.2,0,0,0,2.393.651,3.694,3.694,0,0,0,2.428-.9c1.247-1.044,1.733-2.779,1.48-5.148a6.388,6.388,0,0,0,3.83,1.7,3.026,3.026,0,0,0,1.886-.644,6.153,6.153,0,0,0,2.2-4.085A4.743,4.743,0,0,0,30.394,11.8a3.941,3.941,0,0,0,.892-.1,4.936,4.936,0,0,0,3.1-2.535l2,6.852a103.136,103.136,0,0,0-23.05,13.318L8.322,24.057a5.078,5.078,0,0,0,3.7-1.491ZM3.761,20.532a1.207,1.207,0,1,1-1.207,1.207A1.207,1.207,0,0,1,3.761,20.532Zm0,0" transform="translate(227.941 2403.999)" fill="#12263f" opacity="0.2"/>
  </g>
</svg>
