<svg xmlns="http://www.w3.org/2000/svg" width="128" height="128" viewBox="0 0 128 128">
  <g id="Grupo_1177750" data-name="Grupo 1177750" transform="translate(-72.746 -7992)">
    <g id="Elipse_13628" data-name="Elipse 13628" transform="translate(72.746 7992)" fill="#fff7e2" stroke="#cff878" stroke-width="6">
      <circle cx="64" cy="64" r="64" stroke="none"/>
      <circle cx="64" cy="64" r="61" fill="none"/>
    </g>
    <g id="Grupo_1177792" data-name="Grupo 1177792" transform="translate(92.274 8011.438)">
      <g id="Grupo_1177791" data-name="Grupo 1177791" transform="translate(9.4 9.269)">
        <g id="Grupo_1177789" data-name="Grupo 1177789" transform="translate(0 0)">
          <path id="Trazado_994980" data-name="Trazado 994980" d="M53.042,20.912a25.3,25.3,0,0,1,7.407,3.071l4.813-2.138,5.673,5.673L68.8,32.329a25.294,25.294,0,0,1,3.071,7.409l4.911,1.89V49.65l-4.912,1.891A25.3,25.3,0,0,1,68.8,58.948l2.138,4.813-5.673,5.673L60.451,67.3a25.289,25.289,0,0,1-7.409,3.071l-1.89,4.911H43.129l-1.891-4.912A25.3,25.3,0,0,1,33.832,67.3l-4.813,2.138-5.673-5.673,2.137-4.812a25.3,25.3,0,0,1-3.071-7.409L17.5,49.65V41.628l4.911-1.89a25.294,25.294,0,0,1,3.071-7.408l-2.137-4.813,5.673-5.673,4.813,2.138a25.3,25.3,0,0,1,7.407-3.071L43.129,16h8.022Z" transform="translate(-17.501 -16)" fill="#ffe177" fill-rule="evenodd"/>
          <path id="Trazado_994981" data-name="Trazado 994981" d="M96.339,67.3l-4.813,2.138-.741-.741,4.513-2q.514.317,1.042.608Zm19.21-46.384a25.3,25.3,0,0,1,7.407,3.071l-1.368.608a33.366,33.366,0,0,0-8.448-3.678L111.249,16h2.41ZM122.958,67.3a25.29,25.29,0,0,1-7.409,3.071l-1.89,4.911h-2.41l1.89-4.911a33.354,33.354,0,0,0,8.45-3.679ZM90.785,22.586l.741-.741,4.813,2.138q-.528.291-1.042.608Zm35.316,0,1.669-.741,5.673,5.673-2.137,4.812a25.294,25.294,0,0,1,3.071,7.409l4.911,1.89V49.65l-4.912,1.891a25.3,25.3,0,0,1-3.071,7.407l2.138,4.813-5.673,5.673-1.669-.741,4.932-4.932-2.138-4.813a25.3,25.3,0,0,0,3.071-7.407l4.912-1.891V41.628l-4.911-1.89a25.294,25.294,0,0,0-3.071-7.409l2.137-4.812Z" transform="translate(-80.008 -16)" fill="#ffd064" fill-rule="evenodd"/>
          <circle id="Elipse_13636" data-name="Elipse 13636" cx="15.716" cy="15.716" r="15.716" transform="translate(10.733 17.946) rotate(-13.3)" fill="#eceff1"/>
          <path id="Trazado_994982" data-name="Trazado 994982" d="M127.9,110.68a15.716,15.716,0,0,0,0,31.433q.631,0,1.25-.049a15.717,15.717,0,0,1,0-31.334Q128.531,110.681,127.9,110.68Z" transform="translate(-98.26 -96.757)" fill="#d1d1d6" fill-rule="evenodd"/>
        </g>
        <g id="Grupo_1177790" data-name="Grupo 1177790" transform="translate(29.221 29.705)">
          <circle id="Elipse_13637" data-name="Elipse 13637" cx="18.441" cy="18.441" r="18.441" transform="translate(0 3.998)" fill="#fe646f"/>
          <path id="Trazado_994983" data-name="Trazado 994983" d="M337.35,245.192a18.441,18.441,0,1,1,0,36.882c-.246,0-.491-.006-.735-.016a18.44,18.44,0,0,0,0-36.85C336.859,245.2,337.1,245.192,337.35,245.192Z" transform="translate(-318.909 -241.193)" fill="#fd4755" fill-rule="evenodd"/>
          <circle id="Elipse_13638" data-name="Elipse 13638" cx="11.85" cy="11.85" r="11.85" transform="translate(6.591 10.589)" fill="#eceff1"/>
          <path id="Trazado_994984" data-name="Trazado 994984" d="M272.879,290.011c.247,0,.492.009.735.023a11.85,11.85,0,0,0,0,23.654c-.243.015-.488.023-.735.023a11.85,11.85,0,1,1,0-23.7Z" transform="translate(-254.438 -279.422)" fill="#d1d1d6" fill-rule="evenodd"/>
          <circle id="Elipse_13639" data-name="Elipse 13639" cx="5.26" cy="5.26" r="5.26" transform="translate(11.59 19.585) rotate(-22.514)" fill="#fe646f"/>
          <path id="Trazado_994985" data-name="Trazado 994985" d="M311.108,334.829a5.3,5.3,0,0,1,.735.051,5.26,5.26,0,0,0,0,10.416,5.26,5.26,0,1,1-.735-10.468Z" transform="translate(-292.666 -317.649)" fill="#fd4755" fill-rule="evenodd"/>
          <path id="Trazado_994986" data-name="Trazado 994986" d="M414.56,225.039l-6.591,6.591a.43.43,0,0,1-.4.119l-5.17-1.114a.433.433,0,0,1-.338-.338l-1.114-5.17a.43.43,0,0,1,.119-.4l6.591-6.591a.441.441,0,0,1,.743.219l.994,4.613a.433.433,0,0,0,.338.338l4.613.994a.441.441,0,0,1,.219.743Z" transform="translate(-373.768 -218.001)" fill="#e3a76f" fill-rule="evenodd"/>
          <path id="Trazado_994987" data-name="Trazado 994987" d="M420.64,261.351l-6.591,6.591a.43.43,0,0,1-.4.119l-5.17-1.114a.433.433,0,0,1-.338-.338l-.077-.356,5.143,1.108a.43.43,0,0,0,.4-.119l6.591-6.591a.471.471,0,0,0,.063-.077l.161.035a.441.441,0,0,1,.219.743Z" transform="translate(-379.847 -254.313)" fill="#c48958" fill-rule="evenodd"/>
        </g>
      </g>
      <path id="Trazado_994988" data-name="Trazado 994988" d="M77.406,46.119l-2.947-.635-5.353,5.353,2.945.635ZM43.1,8.109a1.177,1.177,0,0,1,.825.722L45.6,13.172a26.416,26.416,0,0,1,6.608,2.741l4.255-1.89a1.176,1.176,0,0,1,1.31.244l5.672,5.672a1.176,1.176,0,0,1,.244,1.309L61.8,25.5a26.41,26.41,0,0,1,2.741,6.612l4.341,1.67a1.178,1.178,0,0,1,.753,1.1v1.794a1.176,1.176,0,1,1-2.353,0v-.986l-4.156-1.6a1.172,1.172,0,0,1-.722-.825,24.065,24.065,0,0,0-2.93-7.065A1.178,1.178,0,0,1,59.4,25.1l1.81-4.073L56.678,16.5,52.6,18.311a1.177,1.177,0,0,1-1.095-.073,24.059,24.059,0,0,0-7.063-2.928,1.172,1.172,0,0,1-.825-.722l-1.6-4.158H35.614l-1.6,4.158a1.179,1.179,0,0,1-.825.722,24.064,24.064,0,0,0-7.062,2.928,1.177,1.177,0,0,1-1.095.073L20.956,16.5l-4.531,4.53,1.81,4.075a1.18,1.18,0,0,1-.073,1.095,24.039,24.039,0,0,0-2.928,7.063,1.181,1.181,0,0,1-.722.825l-4.158,1.6V42.1l4.156,1.6a1.178,1.178,0,0,1,.722.825,24.051,24.051,0,0,0,2.929,7.065,1.179,1.179,0,0,1,.073,1.095l-1.81,4.073,4.531,4.53,4.075-1.81a1.177,1.177,0,0,1,1.095.073,24.064,24.064,0,0,0,7.062,2.928,1.176,1.176,0,0,1,.825.722l1.652,4.288a1.177,1.177,0,0,1-.54,2.222h-.319a1.175,1.175,0,0,1-1.1-.754l-1.672-4.342a26.392,26.392,0,0,1-6.608-2.739l-4.256,1.889a1.173,1.173,0,0,1-1.308-.244l-5.674-5.672a1.176,1.176,0,0,1-.242-1.309l1.89-4.253A26.369,26.369,0,0,1,13.1,45.672L8.755,44A1.174,1.174,0,0,1,8,42.9V34.882a1.175,1.175,0,0,1,.752-1.1L13.1,32.113a26.371,26.371,0,0,1,2.741-6.61l-1.89-4.255a1.176,1.176,0,0,1,.242-1.309l5.674-5.672a1.174,1.174,0,0,1,1.308-.244l4.256,1.89a26.4,26.4,0,0,1,6.608-2.741l1.672-4.341a1.174,1.174,0,0,1,.825-.722H43.1ZM74.1,61.4a17.258,17.258,0,1,1-9.757-15.55,1.212,1.212,0,0,0,.025.249l1.09,5.057-.262.262a13.032,13.032,0,1,0,1.66,1.667l.266-.266,5.056,1.09a1.155,1.155,0,0,0,.228.026A17.3,17.3,0,0,1,74.1,61.4Zm-10.576-8.31a10.691,10.691,0,1,0,1.659,1.668l-3.027,3.026A6.447,6.447,0,1,1,60.5,56.111Zm-3.078,6.406-2.757,2.757a1.177,1.177,0,0,1-1.665-1.663l2.77-2.77a4.084,4.084,0,1,0,1.652,1.677Zm6.357-13.266,5.353-5.353.635,2.946-5.353,5.353Zm13.788.028-6.262,6.262a19.616,19.616,0,1,1-8.558-8.585l6.248-6.248a1.177,1.177,0,0,1,1.982.584l.769,3.573.366-.366a1.177,1.177,0,1,1,1.664,1.663l-.366.366,3.572.77a1.176,1.176,0,0,1,.584,1.982ZM38.033,44.887l8.5-10.509A1.176,1.176,0,1,0,44.7,32.9L37.024,42.39l-4.176-4.176a1.176,1.176,0,1,0-1.663,1.663l5.1,5.1a1.179,1.179,0,0,0,.832.344h.062A1.178,1.178,0,0,0,38.033,44.887Zm-2.607,8.147a14.541,14.541,0,1,1,17.93-14.356,1.175,1.175,0,0,0,1.175,1.159h.017a1.175,1.175,0,0,0,1.159-1.193A16.892,16.892,0,1,0,25.614,49.433a16.977,16.977,0,0,0,9.264,5.89,1.165,1.165,0,0,0,.274.032,1.176,1.176,0,0,0,.272-2.321Z" fill="#242222" fill-rule="evenodd"/>
    </g>
  </g>
</svg>
