<svg xmlns="http://www.w3.org/2000/svg" width="400" height="1309" viewBox="0 0 400 1309">
  <g id="Grupo_1192375" data-name="Grupo 1192375" transform="translate(-7253 10596)">
    <path id="Trazado_1005002" data-name="Trazado 1005002" d="M10,0H390a10,10,0,0,1,10,10V1299a10,10,0,0,1-10,10H10a10,10,0,0,1-10-10V10A10,10,0,0,1,10,0Z" transform="translate(7253 -10596)" fill="#f9fbff"/>
    <rect id="Rectángulo_455437" data-name="Rectángulo 455437" width="348" height="80" rx="10" transform="translate(7279 -10524)" fill="#5c3b66"/>
    <rect id="Rectángulo_455438" data-name="Rectángulo 455438" width="348" height="120" rx="10" transform="translate(7279 -10569)" fill="#e795ff"/>
    <text id="_1._Abstractos_Designan_ideas_conceptos_realidades_no_perceptibles_por_los_sentidos:_amor_serenidad_inteligencia_paz." data-name="1. Abstractos
Designan ideas, conceptos, realidades no perceptibles por los sentidos: amor, serenidad, inteligencia, paz." transform="translate(7297 -10554)" fill="#12263f" font-size="16" font-family="SegoeUI-Bold, Segoe UI" letter-spacing="0.003em" font-weight="700"><tspan x="0" y="17">1. Abstractos</tspan><tspan font-family="SegoeUI, Segoe UI" font-weight="400"><tspan x="0" y="41">Designan ideas, conceptos, realidades no </tspan><tspan x="0" y="65">perceptibles por los sentidos: amor, </tspan><tspan x="0" y="89">serenidad, inteligencia, paz.</tspan></tspan></text>
    <rect id="Rectángulo_455446" data-name="Rectángulo 455446" width="348" height="128" rx="10" transform="translate(7279 -10399)" fill="#4d5464"/>
    <rect id="Rectángulo_455447" data-name="Rectángulo 455447" width="348" height="148" rx="10" transform="translate(7279 -10424)" fill="#a4c2ff"/>
    <path id="Rectángulo_455443" data-name="Rectángulo 455443" d="M0,0H316a0,0,0,0,1,0,0V947a10,10,0,0,1-10,10H10A10,10,0,0,1,0,947V0A0,0,0,0,1,0,0Z" transform="translate(7295 -10278)" fill="#4d5464"/>
    <path id="Rectángulo_455444" data-name="Rectángulo 455444" d="M0,0H316a0,0,0,0,1,0,0V947a10,10,0,0,1-10,10H10A10,10,0,0,1,0,947V0A0,0,0,0,1,0,0Z" transform="translate(7295 -10284)" fill="#a4c2ff"/>
    <text id="_2._Concretos_Se_refieren_a_seres_y_objetos_que_podemos_percibir_por_los_sentidos:_ciudad_elefante_arboleda.Los_sustantivos_concretos_a_su_vez_se_dividen_en:" data-name="2. Concretos
Se refieren a seres y objetos que podemos percibir por los sentidos: ciudad, elefante, arboleda.Los sustantivos concretos, a su vez, se dividen en:" transform="translate(7295 -10409)" fill="#12263f" font-size="16" font-family="SegoeUI-Bold, Segoe UI" letter-spacing="0.003em" font-weight="700"><tspan x="0" y="17">2. Concretos</tspan><tspan font-family="SegoeUI, Segoe UI" font-weight="400"><tspan x="0" y="41">Se refieren a seres y objetos que podemos </tspan><tspan x="0" y="65">percibir por los sentidos: ciudad, elefante, </tspan><tspan x="0" y="89">arboleda.Los sustantivos concretos, a su vez, </tspan><tspan x="0" y="113">se dividen en:</tspan></tspan></text>
    <g id="Grupo_1192372" data-name="Grupo 1192372" transform="translate(7311.692 -10280)">
      <rect id="Rectángulo_455438-2" data-name="Rectángulo 455438" width="282" height="265" rx="10" transform="translate(0.308)" fill="#ecf2fe"/>
      <text id="Propios_Actúan_como_una_marca_o_etiqueta_que_colocamos_a_un_individuo_u_objeto_para_distinguirlo_de_los_de_su_grupo._Pueden_ser_nombres_de_persona_antropónimos_Pablo_Irene_Tomás_o_nombres_de_lugar_topónimos_Extremadura_Pirineos_Getafe_." data-name="Propios
Actúan como una marca o etiqueta que colocamos a un individuo u objeto para distinguirlo de los de su grupo. Pueden ser nombres de persona —antropónimos— (Pablo, Irene, Tomás), o nombres de lugar —topónimos— (Extremadura, Pirineos, Getafe)." transform="translate(17.308 15)" fill="#12263f" font-size="16" font-family="SegoeUI-Bold, Segoe UI" letter-spacing="0.003em" font-weight="700"><tspan x="0" y="17">Propios</tspan><tspan font-family="SegoeUI, Segoe UI" font-weight="400"><tspan x="0" y="41">Actúan como una marca o </tspan><tspan x="0" y="65">etiqueta que colocamos a un </tspan><tspan x="0" y="89">individuo u objeto para </tspan><tspan x="0" y="113">distinguirlo de los de su grupo. </tspan><tspan x="0" y="137">Pueden ser nombres de persona </tspan><tspan x="0" y="161">—antropónimos— (Pablo, Irene, </tspan><tspan x="0" y="185">Tomás), o nombres de lugar —</tspan><tspan x="0" y="209">topónimos— (Extremadura, </tspan><tspan x="0" y="233">Pirineos, Getafe).</tspan></tspan></text>
    </g>
    <rect id="Rectángulo_455445" data-name="Rectángulo 455445" width="282" height="643" rx="10" transform="translate(7312 -9995)" fill="#ecf2fe"/>
    <g id="Rectángulo_455448" data-name="Rectángulo 455448" transform="translate(7328 -9823)" fill="#f8dfff" stroke="#5c3b66" stroke-width="1">
      <rect width="250" height="449" rx="10" stroke="none"/>
      <rect x="0.5" y="0.5" width="249" height="448" rx="9.5" fill="none"/>
    </g>
    <text id="Comunes_Se_refieren_a_seres_u_objetos_como_partes_de_un_conjunto_con_los_que_comparten_características:_mueble_ciudad_alumno._Por_su_parte_los_nombres_comunes_pueden_ser:" data-name="Comunes
Se refieren a seres u objetos como partes de un conjunto con los que comparten características: mueble, ciudad, alumno. Por su parte, los nombres comunes pueden ser:" transform="translate(7323 -9980)" fill="#12263f" font-size="16" font-family="SegoeUI-Bold, Segoe UI" letter-spacing="0.003em" font-weight="700"><tspan x="0" y="17">Comunes</tspan><tspan font-family="SegoeUI, Segoe UI" font-weight="400"><tspan x="0" y="41">Se refieren a seres u objetos como </tspan><tspan x="0" y="65">partes de un conjunto con los que </tspan><tspan x="0" y="89">comparten características: mueble, </tspan><tspan x="0" y="113">ciudad, alumno. Por su parte, los </tspan><tspan x="0" y="137">nombres comunes pueden ser:</tspan></tspan></text>
    <text id="Contables_Que_se_pueden_contar:_reloj_un_reloj_dos_relojes_tres_relojes..._libro_ratón_lápiz._No_contables_Los_que_no_se_pueden_contar:_sencillez_una_sencillez_dos_sencilleces..._felicidad_tristeza_inteligencia._Individuales_Cuando_se_refier" data-name="Contables
Que se pueden contar: reloj (un reloj, dos relojes, tres relojes...), libro, ratón, lápiz.

No contables
Los que no se pueden contar: sencillez (una sencillez, dos sencilleces...), felicidad, tristeza, inteligencia.

Individuales
Cuando se refier" transform="translate(7343 -9819)" fill="#12263f" font-size="16" font-family="SegoeUI-Bold, Segoe UI" letter-spacing="0.003em" font-weight="700"><tspan x="0" y="17">Contables</tspan><tspan font-family="SegoeUI, Segoe UI" font-weight="400"><tspan x="0" y="41">Que se pueden contar: reloj </tspan><tspan x="0" y="65">(un reloj, dos relojes, tres </tspan><tspan x="0" y="89">relojes...), libro, ratón, lápiz.</tspan></tspan><tspan x="0" y="113"></tspan><tspan x="0" y="137">No contables</tspan><tspan font-family="SegoeUI, Segoe UI" font-weight="400"><tspan x="0" y="161">Los que no se pueden contar: </tspan><tspan x="0" y="185">sencillez (una sencillez, dos </tspan><tspan x="0" y="209">sencilleces...), felicidad, tristeza, </tspan><tspan x="0" y="233">inteligencia.</tspan></tspan><tspan x="0" y="257"></tspan><tspan x="0" y="281">Individuales</tspan><tspan font-family="SegoeUI, Segoe UI" font-weight="400"><tspan x="0" y="305">Cuando se refieren a una sola </tspan><tspan x="0" y="329">cosa en particular, aunque </tspan><tspan x="0" y="353">también pueden expresarse en </tspan><tspan x="0" y="377">plural. En singular designan </tspan><tspan x="0" y="401">uno (libro), y en plural, varios </tspan><tspan x="0" y="425">(libros). </tspan></tspan></text>
    <path id="Trazado_1004809" data-name="Trazado 1004809" d="M49.008,34.553A21.687,21.687,0,0,0,27.517,56.24a1.759,1.759,0,1,1-3.517,0,25.182,25.182,0,0,1,25.015-25.2l2.342,1.756Zm-1.091,6.68L57.3,34.2a1.759,1.759,0,0,0,0-2.814L47.917,24.35a1.759,1.759,0,1,0-2.11,2.814l7.5,5.628-7.5,5.628a1.759,1.759,0,0,0,2.11,2.814Z" transform="translate(7662 -10222.001) rotate(180)" fill="#5c3b66"/>
    <path id="Trazado_1004810" data-name="Trazado 1004810" d="M25.008,23.446A21.687,21.687,0,0,1,3.517,1.759,1.759,1.759,0,0,0,0,1.759a25.182,25.182,0,0,0,25.015,25.2l2.342-1.756Zm-1.091-6.68L33.3,23.8a1.759,1.759,0,0,1,0,2.814l-9.379,7.034a1.759,1.759,0,1,1-2.11-2.814l7.5-5.628-7.5-5.628a1.759,1.759,0,0,1,2.11-2.814Z" transform="translate(7267 -10284)" fill="#5c3b66"/>
  </g>
</svg>
