<svg xmlns="http://www.w3.org/2000/svg" width="357.017" height="103" viewBox="0 0 357.017 103">
  <g id="Grupo_1178022" data-name="Grupo 1178022" transform="translate(-621.525 -2389)">
    <rect id="Rectángulo_455102" data-name="Rectángulo 455102" width="357.017" height="103" rx="10" transform="translate(621.525 2389)" fill="#a4c2ff"/>
    <path id="Feature_One" data-name="Feature One" d="M53.422,25.75H45.906L44.594,30H38.734L47.078,7.25h5.156L60.641,30H54.75Zm-6.2-4.234h4.891l-2.453-7.891Zm23.016,8.8a8.691,8.691,0,0,1-6.3-2.32,8.013,8.013,0,0,1-2.406-6.039v-.437a10.383,10.383,0,0,1,.961-4.578,7.031,7.031,0,0,1,2.8-3.07,8.467,8.467,0,0,1,4.375-1.086A7.318,7.318,0,0,1,75.3,14.992a8.688,8.688,0,0,1,2.063,6.164V23.2H66.891a3.8,3.8,0,0,0,1.234,2.234,3.673,3.673,0,0,0,2.469.813A4.732,4.732,0,0,0,74.5,24.5l2.406,2.844a6.726,6.726,0,0,1-2.789,2.164A9.425,9.425,0,0,1,70.234,30.313Zm-.594-13.469q-2.312,0-2.75,3.063H72.2V19.5a2.608,2.608,0,0,0-.641-1.961A2.549,2.549,0,0,0,69.641,16.844ZM69.578,5.984h5.563L70.8,10.891l-4.3-.008ZM89.7,17.859l-1.734-.125q-2.484,0-3.187,1.563V30H79.516V13.094h4.938l.172,2.172a4.077,4.077,0,0,1,3.7-2.484,5.135,5.135,0,0,1,1.469.188Zm9.781,12.453a8.691,8.691,0,0,1-6.3-2.32,8.013,8.013,0,0,1-2.406-6.039v-.437a10.383,10.383,0,0,1,.961-4.578,7.031,7.031,0,0,1,2.8-3.07,8.467,8.467,0,0,1,4.375-1.086,7.318,7.318,0,0,1,5.625,2.211,8.688,8.688,0,0,1,2.063,6.164V23.2H96.141a3.8,3.8,0,0,0,1.234,2.234,3.673,3.673,0,0,0,2.469.813,4.732,4.732,0,0,0,3.906-1.75l2.406,2.844a6.726,6.726,0,0,1-2.789,2.164A9.425,9.425,0,0,1,99.484,30.313Zm-.594-13.469q-2.312,0-2.75,3.063h5.313V19.5a2.608,2.608,0,0,0-.641-1.961A2.549,2.549,0,0,0,98.891,16.844Zm9.172,4.547a9.978,9.978,0,0,1,.984-4.508,7.04,7.04,0,0,1,2.828-3.039,8.518,8.518,0,0,1,4.328-1.062,7.774,7.774,0,0,1,5.984,2.352,9.024,9.024,0,0,1,2.188,6.4v.188a8.755,8.755,0,0,1-2.2,6.273,7.794,7.794,0,0,1-5.945,2.32,7.883,7.883,0,0,1-5.8-2.164,8.464,8.464,0,0,1-2.359-5.867Zm5.266.328a6.291,6.291,0,0,0,.734,3.438,2.447,2.447,0,0,0,2.172,1.094q2.813,0,2.875-4.328v-.531q0-4.547-2.906-4.547-2.641,0-2.859,3.922ZM41.336,65a6.072,6.072,0,0,1-.406-1.781,6.45,6.45,0,0,1-4.812,2.094,5.968,5.968,0,0,1-4.1-1.414,4.575,4.575,0,0,1-1.6-3.586,4.779,4.779,0,0,1,2.008-4.1A9.466,9.466,0,0,1,38.07,54.75h2.813V53.422a3.246,3.246,0,0,0-.906-2.414,3.642,3.642,0,0,0-2.672-.9,4.215,4.215,0,0,0-2.594.781,2.3,2.3,0,0,0-1.047,1.891H30.758a3.989,3.989,0,0,1,.9-2.445,6.132,6.132,0,0,1,2.438-1.867,8.2,8.2,0,0,1,3.383-.687,6.684,6.684,0,0,1,4.578,1.461,5.27,5.27,0,0,1,1.719,4.023v7.781a9.513,9.513,0,0,0,.594,3.7V65Zm-4.8-2.2a5.08,5.08,0,0,0,2.578-.7,4.253,4.253,0,0,0,1.766-1.828V56.8H38.617q-5.313,0-5.312,3.109a2.631,2.631,0,0,0,.906,2.125A3.483,3.483,0,0,0,36.539,62.8ZM54.32,56.516H46.7V54.156H54.32Zm9.828,8.8a7.387,7.387,0,0,1-5.594-2.258A8.38,8.38,0,0,1,56.4,57.016v-.531a10.145,10.145,0,0,1,.961-4.492A7.5,7.5,0,0,1,60.047,48.9a6.757,6.757,0,0,1,3.742-1.117,6.332,6.332,0,0,1,5.125,2.172,9.4,9.4,0,0,1,1.828,6.219v1.2H59.289a6.01,6.01,0,0,0,1.461,4.039A4.592,4.592,0,0,0,64.3,62.953a5.035,5.035,0,0,0,2.594-.625,6.517,6.517,0,0,0,1.859-1.656l1.766,1.375A7.1,7.1,0,0,1,64.148,65.313Zm-.359-15.156a3.856,3.856,0,0,0-2.937,1.273A6.19,6.19,0,0,0,59.383,55h8.469v-.219a5.506,5.506,0,0,0-1.187-3.414A3.63,3.63,0,0,0,63.789,50.156ZM65.2,41h3.5l-4.187,4.594-2.328-.008ZM80.1,56.516H72.477V54.156H80.1Zm10.984-5.828a8.662,8.662,0,0,0-1.422-.109A3.809,3.809,0,0,0,85.8,53V65H82.914V48.094h2.813l.047,1.953A4.5,4.5,0,0,1,89.8,47.781,2.953,2.953,0,0,1,91.086,48Zm9.375,14.625a7.387,7.387,0,0,1-5.594-2.258,8.38,8.38,0,0,1-2.156-6.039v-.531a10.145,10.145,0,0,1,.961-4.492A7.5,7.5,0,0,1,96.359,48.9a6.757,6.757,0,0,1,3.742-1.117,6.332,6.332,0,0,1,5.125,2.172,9.4,9.4,0,0,1,1.828,6.219v1.2H95.6a6.01,6.01,0,0,0,1.461,4.039,4.592,4.592,0,0,0,3.555,1.539,5.035,5.035,0,0,0,2.594-.625,6.517,6.517,0,0,0,1.859-1.656l1.766,1.375A7.1,7.1,0,0,1,100.461,65.313ZM100.1,50.156a3.856,3.856,0,0,0-2.937,1.273A6.19,6.19,0,0,0,95.7,55h8.469v-.219a5.506,5.506,0,0,0-1.187-3.414A3.63,3.63,0,0,0,100.1,50.156Zm16.313,6.359h-7.625V54.156h7.625Zm2.047-.125a9.986,9.986,0,0,1,.977-4.469,7.285,7.285,0,0,1,2.719-3.062,7.4,7.4,0,0,1,3.977-1.078,7.13,7.13,0,0,1,5.586,2.391,9.2,9.2,0,0,1,2.133,6.359v.2a10.073,10.073,0,0,1-.945,4.43,7.178,7.178,0,0,1-2.7,3.055,7.486,7.486,0,0,1-4.039,1.094,7.112,7.112,0,0,1-5.57-2.391,9.151,9.151,0,0,1-2.133-6.328Zm2.906.344a7.233,7.233,0,0,0,1.3,4.516,4.421,4.421,0,0,0,6.992-.023,7.909,7.909,0,0,0,1.3-4.836,7.22,7.22,0,0,0-1.32-4.508,4.2,4.2,0,0,0-3.508-1.727,4.151,4.151,0,0,0-3.453,1.7A7.85,7.85,0,0,0,121.367,56.734Z" transform="translate(717.524 2404)" fill="#4d5464"/>
    <g id="Grupo_1178005" data-name="Grupo 1178005" transform="translate(636.001 2410.501)" opacity="0.2">
      <path id="Trazado_995559" data-name="Trazado 995559" d="M128.343,37.844l1.717-1.716a2.772,2.772,0,0,0-3.5-4.266l-.362-1.214,1.858-1.859a2.77,2.77,0,0,0-3.649-4.154l-2.2-7.392c.879-.847,1.722-1.671,2.515-2.465a29.291,29.291,0,0,0,5.237-6.818c1.842-3.565,1.071-5.471.1-6.442s-2.876-1.741-6.442.1A29.264,29.264,0,0,0,116.8,6.856c-.794.794-1.618,1.636-2.465,2.515l-7.392-2.2a2.77,2.77,0,0,0-4.153-3.649L100.93,5.378l-1.214-.362a2.772,2.772,0,0,0-4.266-3.5L93.734,3.235,84.987.629a.884.884,0,0,0-.878.222L81.857,3.1a.893.893,0,0,0,.1,1.339L104.03,20.6c-4.976,5.611-9.77,11.228-13.154,15.242l-6.492-2.5a.885.885,0,0,0-.943.2l-2.669,2.669a.885.885,0,0,0,0,1.251L94.116,50.8a.893.893,0,0,0,1.251,0l2.668-2.668a.884.884,0,0,0,.2-.943l-2.5-6.492c4.014-3.384,9.631-8.178,15.242-13.155l1.753,2.4a.885.885,0,0,0,1.428-1.045l-1.853-2.532c2.934-2.619,5.832-5.261,8.461-7.751L129.1,46.591l-1.149,1.149L116.5,32.092a.885.885,0,1,0-1.427,1.045l12.063,16.481a.893.893,0,0,0,1.339.1l2.252-2.252a.885.885,0,0,0,.222-.878ZM104.04,4.771a1,1,0,1,1,1.418,1.418l-.415.415-2.185-.651Zm-7.339-2a1,1,0,0,1,1.418,1.418l-.273.272-2.184-.65Zm-12.864.855,1.149-1.149,27.976,8.333c-2.49,2.629-5.132,5.527-7.751,8.461ZM84.286,35.2l5.386,2.071c-1.351,1.609-2.387,2.853-3,3.59l-4.025-4.025Zm3.644,6.918c3.083-3.72,19.382-23.273,30.12-34.011a27.883,27.883,0,0,1,6.379-4.916c1.444-.746,3.376-1.425,4.379-.421s.325,2.935-.421,4.379a27.9,27.9,0,0,1-4.916,6.379C112.733,24.265,93.18,40.564,89.46,43.648Zm8.448,5.175-1.637,1.637L90.717,44.9c.736-.611,1.981-1.647,3.59-3Zm31.013-13.833a1,1,0,0,1,1.418,1.418l-1.04,1.04-.651-2.184Zm-2-7.339a1,1,0,0,1,1.418,1.418l-1.182,1.182-.651-2.185Zm0,0" transform="translate(-71.079)" fill="#12263f" stroke="#12263f" stroke-width="0.5"/>
      <path id="Trazado_995560" data-name="Trazado 995560" d="M394.291,433.253l-7.548,7.548a.885.885,0,1,0,1.251,1.251l7.548-7.548a.885.885,0,1,0-1.251-1.251Zm0,0" transform="translate(-341.196 -381.812)" fill="#12263f" stroke="#12263f" stroke-width="0.5"/>
      <path id="Trazado_995561" data-name="Trazado 995561" d="M384.661,402.3a.884.884,0,0,0-1.251-1.251l-4.718,4.717a.885.885,0,1,0,1.251,1.251Zm0,0" transform="translate(-334.089 -353.38)" fill="#12263f" stroke="#12263f" stroke-width="0.5"/>
      <path id="Trazado_995562" data-name="Trazado 995562" d="M371.168,362.041a.885.885,0,1,0-1.251-1.251l-3.3,3.3a.885.885,0,0,0,1.251,1.251Zm0,0" transform="translate(-323.427 -317.84)" fill="#12263f" stroke="#12263f" stroke-width="0.5"/>
      <path id="Trazado_995563" data-name="Trazado 995563" d="M9.057,50.815a.885.885,0,0,0-1.251,0L.258,58.364a.884.884,0,0,0,0,1.251.894.894,0,0,0,1.251,0l7.548-7.548a.885.885,0,0,0,0-1.251Zm0,0" transform="translate(0 -44.191)" fill="#12263f" stroke="#12263f" stroke-width="0.5"/>
      <path id="Trazado_995564" data-name="Trazado 995564" d="M62.609,83.02a.884.884,0,0,0-1.251,0L56.64,87.738a.884.884,0,1,0,1.251,1.251l4.718-4.717A.884.884,0,0,0,62.609,83.02Zm0,0" transform="translate(-49.777 -72.621)" fill="#12263f" stroke="#12263f" stroke-width="0.5"/>
      <path id="Trazado_995565" data-name="Trazado 995565" d="M108.952,111.728a.894.894,0,0,0,1.251,0l3.3-3.3a.885.885,0,1,0-1.251-1.251l-3.3,3.3A.885.885,0,0,0,108.952,111.728Zm0,0" transform="translate(-95.956 -93.945)" fill="#12263f" stroke="#12263f" stroke-width="0.5"/>
    </g>
  </g>
</svg>
