<svg xmlns="http://www.w3.org/2000/svg" width="128" height="128" viewBox="0 0 128 128">
  <g id="Grupo_1178160" data-name="Grupo 1178160" transform="translate(-72.746 -7992)">
    <g id="Elipse_13628" data-name="Elipse 13628" transform="translate(72.746 7992)" fill="#fff7e2" stroke="#cff878" stroke-width="6">
      <circle cx="64" cy="64" r="64" stroke="none"/>
      <circle cx="64" cy="64" r="61" fill="none"/>
    </g>
    <g id="Grupo_1178185" data-name="Grupo 1178185" transform="translate(52.745 8020.281)">
      <g id="Grupo_1178183" data-name="Grupo 1178183" transform="translate(57.158 1.046)">
        <path id="Trazado_997436" data-name="Trazado 997436" d="M112.481,249.548l-11.788-3.467a3.355,3.355,0,0,1-2.409-3.219V231.951H82.626v10.911a3.356,3.356,0,0,1-2.409,3.219l-11.788,3.467a6.711,6.711,0,0,0-4.817,6.438l3.355,13.993H117.3V255.986a6.711,6.711,0,0,0-4.817-6.438Z" transform="translate(-63.612 -200.634)" fill="#615260"/>
        <path id="Trazado_997437" data-name="Trazado 997437" d="M66.969,255.986a3.374,3.374,0,0,1,2.408-3.218L81.166,249.3a6.748,6.748,0,0,0,4.817-6.438.213.213,0,0,1,.084-.177.281.281,0,0,1,.243-.048,17.864,17.864,0,0,0,11.976-1.329v-9.357H82.628v10.911a3.355,3.355,0,0,1-2.409,3.219l-11.788,3.467a6.711,6.711,0,0,0-4.817,6.438V269.55a4.487,4.487,0,0,0,.433.429h2.922V255.986Z" transform="translate(-63.614 -200.634)" fill="#4e3d4d"/>
        <path id="Trazado_997438" data-name="Trazado 997438" d="M231.952,272.033v6.711a1.118,1.118,0,0,0,1.118,1.118h4.474a1.118,1.118,0,0,0,1.118-1.118v-6.711Z" transform="translate(-208.464 -235.124)" fill="#dbd8db"/>
        <path id="Trazado_997439" data-name="Trazado 997439" d="M155.517,27.69V20.922A13.421,13.421,0,0,0,142.1,7.5h-6.711a13.421,13.421,0,0,0-13.421,13.421V27.69a2.8,2.8,0,0,0,.559,5.536h1.734a14.525,14.525,0,0,0,28.967,0h1.734a2.8,2.8,0,0,0,.559-5.536Z" transform="translate(-111.897 -7.501)" fill="#ffe09c"/>
        <path id="Trazado_997440" data-name="Trazado 997440" d="M129.792,39.7V16.33a13.412,13.412,0,0,0-7.829,12.19v6.767a2.8,2.8,0,0,0,.559,5.536h1.734a14.535,14.535,0,0,0,17.295,13.149A14.539,14.539,0,0,1,129.792,39.7Z" transform="translate(-111.897 -15.098)" fill="#ffd18d"/>
        <path id="Trazado_997441" data-name="Trazado 997441" d="M207.885,7.5h-6.711a13.369,13.369,0,0,0-4.991.969,8.936,8.936,0,0,0,16.692,0A13.368,13.368,0,0,0,207.885,7.5Z" transform="translate(-177.687 -7.5)" fill="#c9c5c9"/>
        <path id="Trazado_997442" data-name="Trazado 997442" d="M135.759,37.9V44.61h1.118a3.355,3.355,0,0,0,3.355-3.355v-1.9a3.305,3.305,0,0,1,.6-1.908,8.879,8.879,0,0,0,1.634-5.141,11.231,11.231,0,0,0-1.409-5.076,13.386,13.386,0,0,0-5.3,10.668Z" transform="translate(-125.693 -24.478)" fill="#b8b2b8"/>
        <path id="Trazado_997443" data-name="Trazado 997443" d="M334.856,37.9V44.61h-1.118a3.355,3.355,0,0,1-3.355-3.355v-1.9a3.305,3.305,0,0,0-.6-1.908,8.879,8.879,0,0,1-1.634-5.141,11.231,11.231,0,0,1,1.41-5.076,13.386,13.386,0,0,1,5.3,10.668Z" transform="translate(-291.236 -24.478)" fill="#c9c5c9"/>
      </g>
      <g id="Grupo_1178184" data-name="Grupo 1178184" transform="translate(56.112 0)">
        <path id="Trazado_997444" data-name="Trazado 997444" d="M192.388,113.272a1.046,1.046,0,0,0,1.046,1.046h3.355a1.046,1.046,0,0,0,0-2.093h-3.355A1.046,1.046,0,0,0,192.388,113.272Z" transform="translate(-173.374 -96.568)"/>
        <path id="Trazado_997445" data-name="Trazado 997445" d="M281.611,114.319h3.355a1.046,1.046,0,1,0,0-2.093h-3.355a1.046,1.046,0,1,0,0,2.093Z" transform="translate(-249.248 -96.568)"/>
        <path id="Trazado_997446" data-name="Trazado 997446" d="M106.323,48.956,94.535,45.489a2.322,2.322,0,0,1-1.657-2.215V38.457a15.6,15.6,0,0,0,6.56-10.64h.623a3.965,3.965,0,0,0,3.982-3.45,3.837,3.837,0,0,0-2.217-3.882V14.468A14.484,14.484,0,0,0,87.357,0H80.646A14.484,14.484,0,0,0,66.178,14.468v6.064a3.817,3.817,0,0,0,1.606,7.285h.782a15.6,15.6,0,0,0,6.56,10.64v4.817a2.322,2.322,0,0,1-1.657,2.215L61.68,48.956A7.8,7.8,0,0,0,56.112,56.4V70.391a1.046,1.046,0,0,0,2.093,0V56.4a5.7,5.7,0,0,1,4.066-5.434l5.764-1.7a18.94,18.94,0,0,0,31.932,0l5.765,1.7A5.7,5.7,0,0,1,109.8,56.4V70.391a1.046,1.046,0,1,0,2.093,0V56.4a7.8,7.8,0,0,0-5.568-7.442ZM99.732,14.468v5.664h-.073a2.311,2.311,0,0,1-2.308-2.309v-1.9a4.33,4.33,0,0,0-.795-2.511A7.879,7.879,0,0,1,95.872,5.5a12.341,12.341,0,0,1,3.86,8.971ZM87.357,2.093a12.333,12.333,0,0,1,3.57.526A7.867,7.867,0,0,1,84,6.711a7.933,7.933,0,0,1-1.976-.249A1.046,1.046,0,0,0,81.5,8.489,10.026,10.026,0,0,0,84,8.8,9.95,9.95,0,0,0,92.882,3.4a12.39,12.39,0,0,1,1.319.766,9.974,9.974,0,0,0,.646,10.457,2.248,2.248,0,0,1,.411,1.3v1.9a4.374,4.374,0,0,0,.656,2.309h-.8V20.06a1.046,1.046,0,0,0-1.046-1.046H86.238a1.046,1.046,0,0,0-1.046,1.046v.3a3.27,3.27,0,0,0-2.381,0v-.3a1.046,1.046,0,0,0-1.046-1.046H73.935a1.046,1.046,0,0,0-1.046,1.046v.072h-.8a4.374,4.374,0,0,0,.656-2.309v-1.9a2.249,2.249,0,0,1,.411-1.3A9.974,9.974,0,0,0,73.8,4.163,12.35,12.35,0,0,1,75.123,3.4a9.95,9.95,0,0,0,1.992,2.656,1.046,1.046,0,0,0,1.442-1.517,7.881,7.881,0,0,1-1.481-1.917,12.341,12.341,0,0,1,3.57-.525Zm2.8,21.251A1.046,1.046,0,0,0,91.2,22.3v-1.19h1.822v2.309a1.192,1.192,0,0,1-1.19,1.19H88.476a1.192,1.192,0,0,1-1.19-1.19V21.107h1.822V22.3a1.046,1.046,0,0,0,1.046,1.046ZM74.982,21.107H76.8V22.3a1.046,1.046,0,1,0,2.093,0v-1.19h1.822v2.309a1.192,1.192,0,0,1-1.19,1.19H76.172a1.192,1.192,0,0,1-1.19-1.19V21.107ZM72.131,5.5a7.879,7.879,0,0,1-.684,7.917,4.33,4.33,0,0,0-.794,2.511v1.9a2.312,2.312,0,0,1-2.308,2.309h-.073V14.468A12.342,12.342,0,0,1,72.131,5.5ZM70.508,25.652a1.046,1.046,0,0,0-2.093,0c0,.024,0,.048,0,.072h-.632a1.75,1.75,0,0,1-1.74-1.934,1.856,1.856,0,0,1,1.9-1.566h4.947v1.19A3.287,3.287,0,0,0,76.172,26.7h3.355a3.287,3.287,0,0,0,3.283-3.283,1.19,1.19,0,0,1,2.381,0A3.287,3.287,0,0,0,88.475,26.7h3.355a3.287,3.287,0,0,0,3.283-3.283v-1.19h5.107a1.75,1.75,0,0,1,1.739,1.934,1.856,1.856,0,0,1-1.9,1.566h-.473c0-.024,0-.048,0-.072a1.046,1.046,0,1,0-2.093,0,13.493,13.493,0,1,1-26.987,0ZM81.693,41.068a15.643,15.643,0,0,0,4.618,0v3.6a.072.072,0,0,1-.072.072H81.765a.072.072,0,0,1-.072-.072ZM84,55.923A16.829,16.829,0,0,1,70.138,48.65L74.059,47.5a4.426,4.426,0,0,0,3.16-4.223v-3.59A15.479,15.479,0,0,0,79.6,40.6v4.061a2.167,2.167,0,0,0,2.165,2.165h4.474A2.167,2.167,0,0,0,88.4,44.666V40.6a15.472,15.472,0,0,0,2.381-.921v3.59a4.426,4.426,0,0,0,3.16,4.223l3.92,1.153A16.935,16.935,0,0,1,84,55.923Z" transform="translate(-56.112 0)"/>
        <path id="Trazado_997447" data-name="Trazado 997447" d="M232.209,436.226H229.9v-2.309a1.046,1.046,0,1,0-2.093,0v2.309H225.5a1.046,1.046,0,0,0,0,2.093h2.309v4.546a1.046,1.046,0,1,0,2.093,0v-4.546h2.309a1.046,1.046,0,0,0,0-2.093Z" transform="translate(-200.964 -372.474)"/>
        <path id="Trazado_997448" data-name="Trazado 997448" d="M232.944,210.211a1.046,1.046,0,0,0-1.47-1.49,4.611,4.611,0,0,1-5.241,0,1.046,1.046,0,1,0-1.47,1.49,6.6,6.6,0,0,0,8.181,0Z" transform="translate(-200.964 -179.34)"/>
      </g>
    </g>
  </g>
</svg>
