<svg xmlns="http://www.w3.org/2000/svg" width="128" height="128" viewBox="0 0 128 128">
  <g id="Grupo_1177751" data-name="Grupo 1177751" transform="translate(-72.746 -7992)">
    <g id="Elipse_13628" data-name="Elipse 13628" transform="translate(72.746 7992)" fill="#fff7e2" stroke="#cff878" stroke-width="6">
      <circle cx="64" cy="64" r="64" stroke="none"/>
      <circle cx="64" cy="64" r="61" fill="none"/>
    </g>
    <g id="Grupo_1177793" data-name="Grupo 1177793" transform="translate(97.762 8023.174)">
      <path id="Trazado_994989" data-name="Trazado 994989" d="M211.98,31.4V15.52a.321.321,0,0,1,.321-.321h2.115a.641.641,0,0,0,.453-1.095L208.45,7.687a.641.641,0,0,0-.907,0l-6.418,6.418a.641.641,0,0,0,.453,1.095h2.115a.321.321,0,0,1,.321.321V39.363H217.45a4.488,4.488,0,0,1,4.488,4.488V52.8a4.488,4.488,0,0,1-4.488,4.488H208v7.966h11.648A10.258,10.258,0,0,0,229.9,54.995V41.655A10.258,10.258,0,0,0,219.645,31.4Z" transform="translate(-169.013 -6.538)" fill="#80d261"/>
      <path id="Trazado_994990" data-name="Trazado 994990" d="M137.832,14.105l-6.418-6.418a.641.641,0,0,0-.907,0l-6.418,6.418a.641.641,0,0,0,.453,1.095h2.115a.321.321,0,0,1,.321.321v3.423a4.488,4.488,0,0,1-4.488,4.488H95.414A10.258,10.258,0,0,0,85.156,33.689V54.995A10.258,10.258,0,0,0,95.414,65.252h11.648V57.287H97.61A4.488,4.488,0,0,1,93.122,52.8V35.885A4.488,4.488,0,0,1,97.61,31.4h27.075a10.258,10.258,0,0,0,10.258-10.258V15.52a.321.321,0,0,1,.321-.321h2.115A.641.641,0,0,0,137.832,14.105Z" transform="translate(-68.078 -6.538)" fill="#ffc344"/>
      <path id="Trazado_994991" data-name="Trazado 994991" d="M25.6,18.943V15.52a.321.321,0,0,1,.321-.321H28.04a.641.641,0,0,0,.453-1.095L22.075,7.687a.641.641,0,0,0-.907,0l-6.418,6.418A.641.641,0,0,0,15.2,15.2h2.115a.321.321,0,0,1,.321.321v5.619A10.258,10.258,0,0,0,27.9,31.4h9.152a4.488,4.488,0,0,1,4.488,4.488V61.27H49.5V33.689A10.258,10.258,0,0,0,39.245,23.431H30.093A4.488,4.488,0,0,1,25.6,18.943Z" transform="translate(-6.536 -6.538)" fill="#01c0fa"/>
      <path id="Trazado_994992" data-name="Trazado 994992" d="M218.038,240.36a5.113,5.113,0,0,1-5.087-4.6l-.468-4.681a5.583,5.583,0,1,1,11.111,0l-.468,4.681A5.113,5.113,0,0,1,218.038,240.36Z" transform="translate(-179.054 -196.095)" fill="#0067c5"/>
      <path id="Trazado_994993" data-name="Trazado 994993" d="M187.433,391.441v-9.829a5.329,5.329,0,0,0-5.329-5.329h-12.99a5.329,5.329,0,0,0-5.329,5.329v9.829a1.282,1.282,0,0,0,1.282,1.282h21.084A1.282,1.282,0,0,0,187.433,391.441Z" transform="translate(-136.624 -328.034)" fill="#0067c5"/>
      <path id="Trazado_994994" data-name="Trazado 994994" d="M182.1,376.283h-.173a5.3,5.3,0,0,1,.772,2.765v7.822a3.29,3.29,0,0,1-3.29,3.29H163.783v1.282a1.282,1.282,0,0,0,1.282,1.282H186.15a1.282,1.282,0,0,0,1.282-1.282v-9.829A5.329,5.329,0,0,0,182.1,376.283Z" transform="translate(-136.623 -328.034)" fill="#0055a3"/>
      <path id="Trazado_994995" data-name="Trazado 994995" d="M244.97,280.524v.905h-.256a.962.962,0,0,0,0,1.923h.533a1.649,1.649,0,0,0,1.647-1.647v-1.182a.962.962,0,1,0-1.923,0Z" transform="translate(-206.338 -243.715)"/>
      <path id="Trazado_994996" data-name="Trazado 994996" d="M70.434,6.888,64.016.47a1.6,1.6,0,0,0-2.267,0L55.331,6.888a1.6,1.6,0,0,0,1.134,2.736h1.473v2.782a3.53,3.53,0,0,1-3.526,3.526h-.935a.962.962,0,0,0,0,1.923h.935a5.456,5.456,0,0,0,5.45-5.45V8.983A1.284,1.284,0,0,0,58.579,7.7H57.238l5.644-5.644L68.527,7.7H67.186A1.284,1.284,0,0,0,65.9,8.983V14.6a9.307,9.307,0,0,1-9.3,9.3H43.448a11.267,11.267,0,0,0-4.463-6.043h10a.962.962,0,0,0,0-1.923H43.929V9.624H45.4a1.6,1.6,0,0,0,1.134-2.736L40.118.47a1.6,1.6,0,0,0-2.267,0L31.433,6.888a1.6,1.6,0,0,0,1.134,2.736H34.04v.9a.962.962,0,0,0,1.923,0V8.983A1.284,1.284,0,0,0,34.681,7.7H33.34l5.644-5.644L44.629,7.7H43.288a1.284,1.284,0,0,0-1.282,1.282v6.949H35.963V15.01a.962.962,0,1,0-1.923,0v.922H23.557a3.53,3.53,0,0,1-3.526-3.526V9.624H21.5a1.6,1.6,0,0,0,1.134-2.736L16.22.47a1.6,1.6,0,0,0-2.267,0L7.535,6.888A1.6,1.6,0,0,0,8.668,9.624h1.473V14.6A11.233,11.233,0,0,0,16.394,24.66a11.26,11.26,0,0,0-.278,2.491V48.457A11.222,11.222,0,0,0,26.2,59.619v3.788a2.247,2.247,0,0,0,2.244,2.244H49.527a2.247,2.247,0,0,0,2.244-2.244V59.62A11.222,11.222,0,0,0,61.852,48.457V35.118a11.217,11.217,0,0,0-4.95-9.3A11.233,11.233,0,0,0,67.827,14.6V9.624H69.3a1.6,1.6,0,0,0,1.134-2.736Zm-20.3,42.465a6.276,6.276,0,0,0-4.657-2.066h-1.55v-4.6a6.073,6.073,0,0,0,1.1-2.934l.468-4.68a6.518,6.518,0,0,0,0-1.29h2.94a3.53,3.53,0,0,1,3.526,3.526v8.948a3.52,3.52,0,0,1-1.827,3.091ZM35.963,47.287V44.43a6.119,6.119,0,0,0,6.042,0v2.857Zm7.62-12.4-.468,4.68a4.151,4.151,0,0,1-8.261,0l-.468-4.68a4.621,4.621,0,1,1,9.2,0ZM12.065,14.6V8.983A1.284,1.284,0,0,0,10.783,7.7H9.442l5.644-5.644L20.731,7.7H19.39a1.284,1.284,0,0,0-1.282,1.282v3.423a5.456,5.456,0,0,0,5.45,5.45h9.152a9.307,9.307,0,0,1,9.3,9.3v1.47a6.536,6.536,0,0,0-6.088.024,5.458,5.458,0,0,0-5.4-4.747H21.362a9.307,9.307,0,0,1-9.3-9.3ZM18.04,48.457V27.152a9.35,9.35,0,0,1,.17-1.781,11.189,11.189,0,0,0,3.151.45H25.38a5.426,5.426,0,0,0-1.3,3.526v9.2a.962.962,0,1,0,1.923,0v-9.2a3.53,3.53,0,0,1,3.526-3.526h.982a3.53,3.53,0,0,1,3.526,3.526v.791a6.558,6.558,0,0,0-1.568,4.939l.468,4.681a6.074,6.074,0,0,0,1.1,2.934v4.6h-1.55a6.276,6.276,0,0,0-4.657,2.066,3.52,3.52,0,0,1-1.827-3.091V43.04a.962.962,0,1,0-1.923,0v3.221a5.441,5.441,0,0,0,2.687,4.7,6.254,6.254,0,0,0-.571,2.617v4.105a9.346,9.346,0,0,1-8.158-9.227Zm31.808,14.95a.321.321,0,0,1-.321.321H47.041V55.96a.962.962,0,1,0-1.923,0v7.767H32.851V55.96a.962.962,0,1,0-1.923,0v7.767H28.442a.321.321,0,0,1-.321-.321V53.578a4.373,4.373,0,0,1,4.368-4.368h12.99a4.373,4.373,0,0,1,4.368,4.368v9.829Zm10.082-28.29V48.457a9.346,9.346,0,0,1-8.159,9.226V53.578a6.254,6.254,0,0,0-.571-2.617,5.441,5.441,0,0,0,2.687-4.7V37.313a5.456,5.456,0,0,0-5.45-5.45H45.006a6.537,6.537,0,0,0-1.077-1.726V27.152a11.281,11.281,0,0,0-.078-1.33h6.782a9.307,9.307,0,0,1,9.3,9.3Z" transform="translate(0 0)"/>
    </g>
  </g>
</svg>
