<svg xmlns="http://www.w3.org/2000/svg" width="128" height="128" viewBox="0 0 128 128">
  <g id="Grupo_1178162" data-name="Grupo 1178162" transform="translate(-72.746 -7992)">
    <g id="Elipse_13628" data-name="Elipse 13628" transform="translate(72.746 7992)" fill="#fff7e2" stroke="#cff878" stroke-width="6">
      <circle cx="64" cy="64" r="64" stroke="none"/>
      <circle cx="64" cy="64" r="61" fill="none"/>
    </g>
    <path id="Trazado_997460" data-name="Trazado 997460" d="M-15.021-2.8a2.92,2.92,0,0,0-1.646-2.618A18.7,18.7,0,0,0-21.95-7.131q-12.1-2.54-12.1-10.284a9.321,9.321,0,0,1,3.747-7.54,15.114,15.114,0,0,1,9.8-3.026q6.459,0,10.331,3.041a9.585,9.585,0,0,1,3.872,7.9h-9.061a4.384,4.384,0,0,0-1.254-3.214,5.307,5.307,0,0,0-3.919-1.27,5.423,5.423,0,0,0-3.543,1.035,3.266,3.266,0,0,0-1.254,2.634,2.792,2.792,0,0,0,1.427,2.43,14.675,14.675,0,0,0,4.813,1.6A39.309,39.309,0,0,1-13.391-12.3q7.18,2.634,7.18,9.124a8.849,8.849,0,0,1-3.982,7.509A17.177,17.177,0,0,1-20.476,7.2a17.941,17.941,0,0,1-7.572-1.521,12.7,12.7,0,0,1-5.189-4.17,9.689,9.689,0,0,1-1.881-5.722h8.591a4.73,4.73,0,0,0,1.787,3.7A7.089,7.089,0,0,0-20.288.77a6.561,6.561,0,0,0,3.935-.988A3.073,3.073,0,0,0-15.021-2.8ZM18.844-18.857a24.617,24.617,0,0,0-3.261-.251q-5.142,0-6.741,3.48v22.2H-.218V-27.353H8.341l.251,4.045q2.728-4.672,7.556-4.672a9.494,9.494,0,0,1,2.822.408ZM42.081,6.571a10.062,10.062,0,0,1-.909-3.041A10.964,10.964,0,0,1,32.612,7.2,12.045,12.045,0,0,1,24.35,4.313a9.277,9.277,0,0,1-3.276-7.274,9.587,9.587,0,0,1,4-8.277q4-2.884,11.554-2.916H40.8V-16.1a5.59,5.59,0,0,0-1.207-3.762,4.749,4.749,0,0,0-3.809-1.411,5.4,5.4,0,0,0-3.59,1.1,3.728,3.728,0,0,0-1.3,3.01H21.827a9.1,9.1,0,0,1,1.818-5.455,12.02,12.02,0,0,1,5.142-3.935,18.739,18.739,0,0,1,7.462-1.427q6.271,0,9.955,3.151t3.684,8.857v14.7a16.218,16.218,0,0,0,1.348,7.305v.533ZM34.587.269a7.8,7.8,0,0,0,3.7-.894,5.869,5.869,0,0,0,2.508-2.4V-8.855H37.409q-6.8,0-7.243,4.7l-.031.533a3.627,3.627,0,0,0,1.191,2.79A4.628,4.628,0,0,0,34.587.269Z" transform="translate(128.687 8066.392)" fill="#5c3b66" stroke="#000" stroke-width="3"/>
    <path id="Trazado_997461" data-name="Trazado 997461" d="M-15.021-2.8a2.92,2.92,0,0,0-1.646-2.618A18.7,18.7,0,0,0-21.95-7.131q-12.1-2.54-12.1-10.284a9.321,9.321,0,0,1,3.747-7.54,15.114,15.114,0,0,1,9.8-3.026q6.459,0,10.331,3.041a9.585,9.585,0,0,1,3.872,7.9h-9.061a4.384,4.384,0,0,0-1.254-3.214,5.307,5.307,0,0,0-3.919-1.27,5.423,5.423,0,0,0-3.543,1.035,3.266,3.266,0,0,0-1.254,2.634,2.792,2.792,0,0,0,1.427,2.43,14.675,14.675,0,0,0,4.813,1.6A39.309,39.309,0,0,1-13.391-12.3q7.18,2.634,7.18,9.124a8.849,8.849,0,0,1-3.982,7.509A17.177,17.177,0,0,1-20.476,7.2a17.941,17.941,0,0,1-7.572-1.521,12.7,12.7,0,0,1-5.189-4.17,9.689,9.689,0,0,1-1.881-5.722h8.591a4.73,4.73,0,0,0,1.787,3.7A7.089,7.089,0,0,0-20.288.77a6.561,6.561,0,0,0,3.935-.988A3.073,3.073,0,0,0-15.021-2.8ZM18.844-18.857a24.617,24.617,0,0,0-3.261-.251q-5.142,0-6.741,3.48v22.2H-.218V-27.353H8.341l.251,4.045q2.728-4.672,7.556-4.672a9.494,9.494,0,0,1,2.822.408ZM42.081,6.571a10.062,10.062,0,0,1-.909-3.041A10.964,10.964,0,0,1,32.612,7.2,12.045,12.045,0,0,1,24.35,4.313a9.277,9.277,0,0,1-3.276-7.274,9.587,9.587,0,0,1,4-8.277q4-2.884,11.554-2.916H40.8V-16.1a5.59,5.59,0,0,0-1.207-3.762,4.749,4.749,0,0,0-3.809-1.411,5.4,5.4,0,0,0-3.59,1.1,3.728,3.728,0,0,0-1.3,3.01H21.827a9.1,9.1,0,0,1,1.818-5.455,12.02,12.02,0,0,1,5.142-3.935,18.739,18.739,0,0,1,7.462-1.427q6.271,0,9.955,3.151t3.684,8.857v14.7a16.218,16.218,0,0,0,1.348,7.305v.533ZM34.587.269a7.8,7.8,0,0,0,3.7-.894,5.869,5.869,0,0,0,2.508-2.4V-8.855H37.409q-6.8,0-7.243,4.7l-.031.533a3.627,3.627,0,0,0,1.191,2.79A4.628,4.628,0,0,0,34.587.269Z" transform="translate(128.687 8066.392)" fill="#e795ff"/>
  </g>
</svg>
