<svg xmlns="http://www.w3.org/2000/svg" width="357.017" height="103" viewBox="0 0 357.017 103">
  <g id="Grupo_1178021" data-name="Grupo 1178021" transform="translate(-1037.572 -2389)">
    <rect id="Rectángulo_455103" data-name="Rectángulo 455103" width="357.017" height="103" rx="10" transform="translate(1037.572 2389)" fill="#a4c2ff"/>
    <path id="Feature_One" data-name="Feature One" d="M83.266,25.75H75.75L74.438,30H68.578L76.922,7.25h5.156L90.484,30H84.594Zm-6.2-4.234h4.891L79.5,13.625Zm20.8,2.219,2.672-10.641h5.547L100.563,30H95.188L89.672,13.094h5.563Zm17.766,6.578a8.691,8.691,0,0,1-6.3-2.32,8.013,8.013,0,0,1-2.406-6.039v-.437a10.383,10.383,0,0,1,.961-4.578,7.031,7.031,0,0,1,2.8-3.07,8.467,8.467,0,0,1,4.375-1.086,7.318,7.318,0,0,1,5.625,2.211,8.688,8.688,0,0,1,2.063,6.164V23.2H112.281a3.8,3.8,0,0,0,1.234,2.234,3.673,3.673,0,0,0,2.469.813,4.732,4.732,0,0,0,3.906-1.75l2.406,2.844a6.726,6.726,0,0,1-2.789,2.164A9.425,9.425,0,0,1,115.625,30.313Zm-.594-13.469q-2.312,0-2.75,3.063h5.313V19.5a2.608,2.608,0,0,0-.641-1.961A2.549,2.549,0,0,0,115.031,16.844Zm20.063,1.016-1.734-.125q-2.484,0-3.187,1.563V30h-5.266V13.094h4.938l.172,2.172a4.077,4.077,0,0,1,3.7-2.484,5.135,5.135,0,0,1,1.469.188ZM142.547,30h-5.281V13.094h5.281ZM136.953,8.734a2.35,2.35,0,0,1,.813-1.844,3.455,3.455,0,0,1,4.219,0,2.35,2.35,0,0,1,.813,1.844,2.35,2.35,0,0,1-.812,1.844,3.455,3.455,0,0,1-4.219,0A2.35,2.35,0,0,1,136.953,8.734Zm8.219,12.688a11.415,11.415,0,0,1,.844-4.531,6.793,6.793,0,0,1,2.422-3.039,6.384,6.384,0,0,1,3.672-1.07,5.076,5.076,0,0,1,4.125,1.781l.188-1.469H161.2V29.359a7.128,7.128,0,0,1-1.039,3.883,6.667,6.667,0,0,1-3.008,2.531,11.056,11.056,0,0,1-4.562.883,9.538,9.538,0,0,1-3.6-.7,6.5,6.5,0,0,1-2.664-1.828l2.2-3.094a4.828,4.828,0,0,0,3.875,1.734q3.5,0,3.5-3.594v-.531a4.945,4.945,0,0,1-3.828,1.672,6.11,6.11,0,0,1-5-2.367,9.808,9.808,0,0,1-1.906-6.336Zm5.281.328a6.014,6.014,0,0,0,.781,3.289,2.465,2.465,0,0,0,2.188,1.211,2.8,2.8,0,0,0,2.484-1.141V18a2.727,2.727,0,0,0-2.453-1.156,2.481,2.481,0,0,0-2.2,1.258A6.859,6.859,0,0,0,150.453,21.75Zm23.813,6.422a5.429,5.429,0,0,1-4.516,2.141,5.324,5.324,0,0,1-4.211-1.617,6.8,6.8,0,0,1-1.43-4.648V13.094h5.266V24.078a1.893,1.893,0,0,0,2.109,2.172,2.752,2.752,0,0,0,2.578-1.3V13.094h5.3V30h-4.937Zm-8.984-19.5a1.9,1.9,0,0,1,.68-1.469,2.62,2.62,0,0,1,3.359,0,1.927,1.927,0,0,1,0,2.938,2.62,2.62,0,0,1-3.359,0A1.9,1.9,0,0,1,165.281,8.672Zm8.109,0a1.9,1.9,0,0,1,.68-1.469,2.62,2.62,0,0,1,3.359,0,1.927,1.927,0,0,1,0,2.938,2.62,2.62,0,0,1-3.359,0A1.9,1.9,0,0,1,173.391,8.672Zm17.031,21.641a8.691,8.691,0,0,1-6.3-2.32,8.013,8.013,0,0,1-2.406-6.039v-.437a10.383,10.383,0,0,1,.961-4.578,7.031,7.031,0,0,1,2.8-3.07,8.467,8.467,0,0,1,4.375-1.086,7.318,7.318,0,0,1,5.625,2.211,8.688,8.688,0,0,1,2.063,6.164V23.2H187.078a3.8,3.8,0,0,0,1.234,2.234,3.673,3.673,0,0,0,2.469.813,4.732,4.732,0,0,0,3.906-1.75l2.406,2.844a6.726,6.726,0,0,1-2.789,2.164A9.425,9.425,0,0,1,190.422,30.313Zm-.594-13.469q-2.313,0-2.75,3.063h5.313V19.5a2.608,2.608,0,0,0-.641-1.961A2.549,2.549,0,0,0,189.828,16.844Zm-.062-10.859h5.563l-4.344,4.906-4.3-.008ZM205.219,30h-5.281V13.094h5.281ZM199.625,8.734a2.35,2.35,0,0,1,.813-1.844,3.455,3.455,0,0,1,4.219,0,2.35,2.35,0,0,1,.813,1.844,2.35,2.35,0,0,1-.812,1.844,3.455,3.455,0,0,1-4.219,0A2.35,2.35,0,0,1,199.625,8.734ZM217.313,25.25a1.216,1.216,0,0,0-.7-1.078,10.7,10.7,0,0,0-2.672-.844,12.184,12.184,0,0,1-3.25-1.148,5.444,5.444,0,0,1-1.953-1.727,4.123,4.123,0,0,1-.672-2.328,4.673,4.673,0,0,1,1.922-3.836,7.917,7.917,0,0,1,5.031-1.508,8.771,8.771,0,0,1,5.375,1.516,4.74,4.74,0,0,1,2.031,3.984h-5.281q0-2.031-2.141-2.031a2.122,2.122,0,0,0-1.391.461,1.427,1.427,0,0,0-.562,1.148A1.31,1.31,0,0,0,213.734,19a6.5,6.5,0,0,0,2.2.719,18.971,18.971,0,0,1,2.648.672q3.813,1.313,3.813,4.7a4.428,4.428,0,0,1-2.055,3.766,9.01,9.01,0,0,1-5.32,1.453,9.2,9.2,0,0,1-3.875-.781,6.48,6.48,0,0,1-2.656-2.125,4.812,4.812,0,0,1-.953-2.828h4.922a2.035,2.035,0,0,0,.781,1.711,3.214,3.214,0,0,0,1.922.539,2.528,2.528,0,0,0,1.617-.437A1.4,1.4,0,0,0,217.313,25.25ZM72.852,65a6.072,6.072,0,0,1-.406-1.781,6.45,6.45,0,0,1-4.812,2.094,5.968,5.968,0,0,1-4.1-1.414,4.575,4.575,0,0,1-1.6-3.586,4.779,4.779,0,0,1,2.008-4.1,9.466,9.466,0,0,1,5.648-1.461H72.4V53.422a3.246,3.246,0,0,0-.906-2.414,3.642,3.642,0,0,0-2.672-.9,4.215,4.215,0,0,0-2.594.781,2.3,2.3,0,0,0-1.047,1.891H62.273a3.989,3.989,0,0,1,.9-2.445,6.132,6.132,0,0,1,2.438-1.867,8.2,8.2,0,0,1,3.383-.687,6.684,6.684,0,0,1,4.578,1.461,5.27,5.27,0,0,1,1.719,4.023v7.781a9.513,9.513,0,0,0,.594,3.7V65Zm-4.8-2.2a5.08,5.08,0,0,0,2.578-.7A4.253,4.253,0,0,0,72.4,60.266V56.8H70.133q-5.312,0-5.312,3.109a2.632,2.632,0,0,0,.906,2.125A3.483,3.483,0,0,0,68.055,62.8Zm17.781-6.281H78.211V54.156h7.625Zm8.391,4.563,4.188-12.984h2.953L95.3,65H93.1L86.977,48.094H89.93Zm16.734,4.234a7.387,7.387,0,0,1-5.594-2.258,8.38,8.38,0,0,1-2.156-6.039v-.531a10.145,10.145,0,0,1,.961-4.492,7.5,7.5,0,0,1,2.688-3.094,6.757,6.757,0,0,1,3.742-1.117,6.332,6.332,0,0,1,5.125,2.172,9.4,9.4,0,0,1,1.828,6.219v1.2H106.1a6.01,6.01,0,0,0,1.461,4.039,4.592,4.592,0,0,0,3.555,1.539,5.035,5.035,0,0,0,2.594-.625,6.517,6.517,0,0,0,1.859-1.656l1.766,1.375A7.1,7.1,0,0,1,110.961,65.313ZM110.6,50.156a3.856,3.856,0,0,0-2.937,1.273A6.19,6.19,0,0,0,106.2,55h8.469v-.219a5.506,5.506,0,0,0-1.187-3.414A3.63,3.63,0,0,0,110.6,50.156Zm16.313,6.359h-7.625V54.156h7.625ZM137.9,50.688a8.662,8.662,0,0,0-1.422-.109A3.809,3.809,0,0,0,132.617,53V65h-2.891V48.094h2.813l.047,1.953a4.5,4.5,0,0,1,4.031-2.266A2.953,2.953,0,0,1,137.9,48ZM143.7,65H140.8V48.094H143.7ZM140.57,43.609a1.725,1.725,0,0,1,.43-1.187,1.613,1.613,0,0,1,1.273-.484,1.638,1.638,0,0,1,1.281.484,1.707,1.707,0,0,1,.438,1.188,1.651,1.651,0,0,1-.437,1.172,1.668,1.668,0,0,1-1.281.469A1.642,1.642,0,0,1,141,44.781,1.668,1.668,0,0,1,140.57,43.609Zm13.766,12.906h-7.625V54.156h7.625Zm2.125-.109a9.936,9.936,0,0,1,1.828-6.289,6.3,6.3,0,0,1,9.672-.148l.141-1.875h2.641v16.5a6.878,6.878,0,0,1-1.945,5.172,7.179,7.179,0,0,1-5.227,1.891,8.7,8.7,0,0,1-3.578-.781,6.159,6.159,0,0,1-2.672-2.141L158.82,67a5.653,5.653,0,0,0,4.547,2.3,4.429,4.429,0,0,0,3.289-1.187,4.539,4.539,0,0,0,1.18-3.344V63.313a5.941,5.941,0,0,1-4.734,2,5.775,5.775,0,0,1-4.8-2.391A10.447,10.447,0,0,1,156.461,56.406Zm2.906.328a7.58,7.58,0,0,0,1.172,4.492,3.808,3.808,0,0,0,3.281,1.633,4.234,4.234,0,0,0,4.016-2.484V52.656a4.284,4.284,0,0,0-3.984-2.422,3.842,3.842,0,0,0-3.3,1.641A8.256,8.256,0,0,0,159.367,56.734Zm26.172,6.594a6.14,6.14,0,0,1-4.953,1.984,5.256,5.256,0,0,1-4.117-1.57,6.8,6.8,0,0,1-1.43-4.648v-11h2.891V59.016q0,3.844,3.125,3.844,3.312,0,4.406-2.469v-12.3h2.891V65H185.6Zm-8.8-19.758a1.71,1.71,0,0,1,.43-1.185,1.623,1.623,0,0,1,1.273-.479,1.649,1.649,0,0,1,1.281.479,1.692,1.692,0,0,1,.438,1.185,1.567,1.567,0,0,1-1.719,1.648,1.638,1.638,0,0,1-1.273-.471A1.681,1.681,0,0,1,176.742,43.57Zm6.719.031a1.738,1.738,0,0,1,.43-1.193,1.609,1.609,0,0,1,1.273-.487,1.634,1.634,0,0,1,1.281.487,1.72,1.72,0,0,1,.438,1.193,1.567,1.567,0,0,1-1.719,1.648,1.638,1.638,0,0,1-1.273-.471A1.681,1.681,0,0,1,183.461,43.6Zm16.3,21.711a7.387,7.387,0,0,1-5.594-2.258,8.38,8.38,0,0,1-2.156-6.039v-.531a10.145,10.145,0,0,1,.961-4.492,7.5,7.5,0,0,1,2.688-3.094,6.757,6.757,0,0,1,3.742-1.117,6.332,6.332,0,0,1,5.125,2.172,9.4,9.4,0,0,1,1.828,6.219v1.2H194.9a6.01,6.01,0,0,0,1.461,4.039,4.592,4.592,0,0,0,3.555,1.539,5.035,5.035,0,0,0,2.594-.625,6.517,6.517,0,0,0,1.859-1.656l1.766,1.375A7.1,7.1,0,0,1,199.758,65.313ZM199.4,50.156a3.856,3.856,0,0,0-2.937,1.273A6.19,6.19,0,0,0,194.992,55h8.469v-.219a5.506,5.506,0,0,0-1.187-3.414A3.63,3.63,0,0,0,199.4,50.156ZM200.8,41h3.5l-4.187,4.594-2.328-.008Zm12.031,24h-2.891V48.094h2.891Zm-3.125-21.391a1.725,1.725,0,0,1,.43-1.187,1.613,1.613,0,0,1,1.273-.484,1.638,1.638,0,0,1,1.281.484,1.707,1.707,0,0,1,.438,1.188,1.651,1.651,0,0,1-.437,1.172,1.668,1.668,0,0,1-1.281.469,1.642,1.642,0,0,1-1.273-.469A1.668,1.668,0,0,1,209.711,43.609ZM227.3,60.516a2.128,2.128,0,0,0-.883-1.82,8.5,8.5,0,0,0-3.078-1.117,14.553,14.553,0,0,1-3.484-1.125,4.957,4.957,0,0,1-1.906-1.562,3.738,3.738,0,0,1-.617-2.156,4.386,4.386,0,0,1,1.758-3.516,6.865,6.865,0,0,1,4.492-1.437,7.064,7.064,0,0,1,4.664,1.484,4.715,4.715,0,0,1,1.789,3.8h-2.906a2.61,2.61,0,0,0-1.008-2.047,3.776,3.776,0,0,0-2.539-.859,3.952,3.952,0,0,0-2.469.688,2.164,2.164,0,0,0-.891,1.8,1.753,1.753,0,0,0,.828,1.578,10.189,10.189,0,0,0,2.992,1.016,15.591,15.591,0,0,1,3.508,1.156,5.117,5.117,0,0,1,1.992,1.617,3.976,3.976,0,0,1,.648,2.3,4.327,4.327,0,0,1-1.812,3.633,7.6,7.6,0,0,1-4.7,1.367,8.513,8.513,0,0,1-3.594-.719,5.845,5.845,0,0,1-2.445-2.008,4.839,4.839,0,0,1-.883-2.789h2.891a2.993,2.993,0,0,0,1.164,2.3,4.516,4.516,0,0,0,2.867.852,4.662,4.662,0,0,0,2.633-.664A2.04,2.04,0,0,0,227.3,60.516Z" transform="translate(1069.572 2404)" fill="#4d5464"/>
    <g id="Grupo_1178015" data-name="Grupo 1178015" transform="translate(1061.081 2416)" opacity="0.2">
      <g id="Grupo_1178008" data-name="Grupo 1178008" transform="translate(29.297 18.555)">
        <g id="Grupo_1178007" data-name="Grupo 1178007">
          <path id="Trazado_995573" data-name="Trazado 995573" d="M300.977,190a.977.977,0,1,0,.977.977A.977.977,0,0,0,300.977,190Z" transform="translate(-300 -190)" fill="#12263f"/>
        </g>
      </g>
      <g id="Grupo_1178010" data-name="Grupo 1178010">
        <g id="Grupo_1178009" data-name="Grupo 1178009">
          <path id="Trazado_995574" data-name="Trazado 995574" d="M48.856,43.332,35.82,30.3a19.356,19.356,0,0,0,3.242-10.766A19.531,19.531,0,1,0,19.531,39.063,19.357,19.357,0,0,0,30.3,35.821l3.6,3.6,0,0,9.43,9.43a3.906,3.906,0,1,0,5.524-5.524Zm-19.018-9.57h0a17.6,17.6,0,1,1,3.925-3.925A17.663,17.663,0,0,1,29.838,33.762Zm2.049.885a19.6,19.6,0,0,0,2.761-2.761l2.771,2.771a23.7,23.7,0,0,1-2.761,2.761ZM47.475,47.475a1.952,1.952,0,0,1-2.762,0L36.042,38.8A25.662,25.662,0,0,0,38.8,36.042l8.672,8.672a1.951,1.951,0,0,1,0,2.761Z" fill="#12263f"/>
        </g>
      </g>
      <g id="Grupo_1178012" data-name="Grupo 1178012" transform="translate(3.906 3.906)">
        <g id="Grupo_1178011" data-name="Grupo 1178011">
          <path id="Trazado_995575" data-name="Trazado 995575" d="M55.625,40A15.625,15.625,0,1,0,71.25,55.625,15.643,15.643,0,0,0,55.625,40Zm0,29.3A13.672,13.672,0,1,1,69.3,55.625,13.687,13.687,0,0,1,55.625,69.3Z" transform="translate(-40 -40)" fill="#12263f"/>
        </g>
      </g>
      <g id="Grupo_1178014" data-name="Grupo 1178014" transform="translate(18.555 7.813)">
        <g id="Grupo_1178013" data-name="Grupo 1178013">
          <path id="Trazado_995576" data-name="Trazado 995576" d="M201.92,87.527A11.737,11.737,0,0,0,190.977,80a.977.977,0,0,0,0,1.953,9.832,9.832,0,0,1,9.121,6.274.977.977,0,1,0,1.823-.7Z" transform="translate(-190 -80)" fill="#12263f"/>
        </g>
      </g>
    </g>
  </g>
</svg>
