<svg xmlns="http://www.w3.org/2000/svg" width="80" height="80" viewBox="0 0 80 80">
  <g id="Grupo_1177798" data-name="Grupo 1177798" transform="translate(-205.873 -1149)">
    <rect id="Rectángulo_454995" data-name="Rectángulo 454995" width="80" height="80" rx="10" transform="translate(205.873 1149)" fill="#a4c2ff"/>
    <g id="Grupo_1177809" data-name="Grupo 1177809" transform="translate(204.691 1161.214)">
      <g id="Grupo_1177806" data-name="Grupo 1177806" transform="translate(15.841 0.814)">
        <g id="Grupo_1177804" data-name="Grupo 1177804">
          <g id="Grupo_1177800" data-name="Grupo 1177800">
            <g id="Grupo_1177799" data-name="Grupo 1177799">
              <path id="Trazado_994997" data-name="Trazado 994997" d="M61.379,61.445H25.89a3.362,3.362,0,0,1-3.362-3.362V10.862A3.362,3.362,0,0,1,25.89,7.5H61.379a3.362,3.362,0,0,1,3.362,3.362V58.083A3.362,3.362,0,0,1,61.379,61.445Z" transform="translate(-22.528 -7.5)" fill="#eaf2ff"/>
              <path id="Trazado_994998" data-name="Trazado 994998" d="M331.446,7.5h-5.968a3.362,3.362,0,0,1,3.362,3.362V58.083a3.362,3.362,0,0,1-3.362,3.362h5.968a3.362,3.362,0,0,0,3.362-3.362V10.862A3.362,3.362,0,0,0,331.446,7.5Z" transform="translate(-292.596 -7.5)" fill="#c9e0fd"/>
              <path id="Trazado_994999" data-name="Trazado 994999" d="M61.379,7.5H25.89a3.362,3.362,0,0,0-3.362,3.362v5.8H64.741v-5.8A3.362,3.362,0,0,0,61.379,7.5Z" transform="translate(-22.528 -7.5)" fill="#ffd064"/>
              <path id="Trazado_995000" data-name="Trazado 995000" d="M334.813,16.659v-5.8A3.362,3.362,0,0,0,331.451,7.5h-5.968a3.362,3.362,0,0,1,3.361,3.362v5.8Z" transform="translate(-292.6 -7.5)" fill="#ffc250"/>
            </g>
          </g>
          <g id="Grupo_1177803" data-name="Grupo 1177803" transform="translate(21.106 24.368)">
            <path id="Trazado_995001" data-name="Trazado 995001" d="M223.715,259l-5.876,2.536a.611.611,0,0,1-.8-.8l2.536-5.876a2.743,2.743,0,0,1,.578-.852l21.393-21.393a2.049,2.049,0,0,1,2.9,0l1.518,1.518a2.049,2.049,0,0,1,0,2.9l-21.393,21.393A2.741,2.741,0,0,1,223.715,259Z" transform="translate(-216.984 -232.009)" fill="#e8a887"/>
            <g id="Grupo_1177801" data-name="Grupo 1177801" transform="translate(22.214 0)">
              <path id="Trazado_995002" data-name="Trazado 995002" d="M426.058,239.374l2.346-2.346a2.049,2.049,0,0,0,0-2.9l-1.518-1.518a2.049,2.049,0,0,0-2.9,0l-2.346,2.346Z" transform="translate(-421.641 -232.012)" fill="#9bc4f9"/>
            </g>
            <g id="Grupo_1177802" data-name="Grupo 1177802" transform="translate(3.16 5.263)">
              <path id="Trazado_995003" data-name="Trazado 995003" d="M0,0H23.662V6.246H0Z" transform="translate(0 16.729) rotate(-45)" fill="#e278b1"/>
            </g>
            <path id="Trazado_995004" data-name="Trazado 995004" d="M218.578,463.69l-1.543,3.574a.611.611,0,0,0,.8.8l3.574-1.543Z" transform="translate(-216.984 -438.543)" fill="#538ef6"/>
          </g>
        </g>
        <g id="Grupo_1177805" data-name="Grupo 1177805" transform="translate(41.004 27.315)">
          <path id="Trazado_995005" data-name="Trazado 995005" d="M407.039,263.569l-4.416-4.417-2.316,2.316,4.417,4.417Z" transform="translate(-400.307 -259.152)" fill="#dbe8f9"/>
        </g>
      </g>
      <g id="Grupo_1177808" data-name="Grupo 1177808" transform="translate(15.027 0)">
        <g id="Grupo_1177807" data-name="Grupo 1177807" transform="translate(0 0)">
          <path id="Trazado_995006" data-name="Trazado 995006" d="M92.743,155.526h-32.6a.811.811,0,1,0,0,1.622h32.6a.811.811,0,1,0,0-1.622Z" transform="translate(-54.524 -138.645)"/>
          <path id="Trazado_995007" data-name="Trazado 995007" d="M92.743,208.843h-32.6a.811.811,0,1,0,0,1.622h32.6a.811.811,0,0,0,0-1.622Z" transform="translate(-54.524 -186.175)"/>
          <path id="Trazado_995008" data-name="Trazado 995008" d="M93.554,262.97a.811.811,0,0,0-.811-.811h-32.6a.811.811,0,0,0,0,1.622h32.6A.811.811,0,0,0,93.554,262.97Z" transform="translate(-54.524 -233.704)"/>
          <path id="Trazado_995009" data-name="Trazado 995009" d="M83.5,316.287a.811.811,0,0,0-.811-.811H60.144a.811.811,0,1,0,0,1.622H82.685A.811.811,0,0,0,83.5,316.287Z" transform="translate(-54.524 -281.234)"/>
          <path id="Trazado_995010" data-name="Trazado 995010" d="M77.639,369.6a.811.811,0,0,0-.811-.811H60.144a.811.811,0,0,0,0,1.622H76.828A.811.811,0,0,0,77.639,369.6Z" transform="translate(-54.524 -328.764)"/>
          <path id="Trazado_995011" data-name="Trazado 995011" d="M60.144,422.11a.811.811,0,1,0,0,1.622H71.071a.811.811,0,1,0,0-1.622Z" transform="translate(-54.524 -376.294)"/>
          <path id="Trazado_995012" data-name="Trazado 995012" d="M41.684,53.918l2.316-1a3.535,3.535,0,0,0,1.1-.75l21.4-21.4a2.859,2.859,0,0,0,0-4.045l-1.518-1.518a2.864,2.864,0,0,0-4.045,0L39.54,46.6h0a3.537,3.537,0,0,0-.749,1.1l-2.536,5.876a1.434,1.434,0,0,0-.1.366H19.2A2.554,2.554,0,0,1,16.649,51.4V10.782h40.6v14.35a.811.811,0,1,0,1.622,0V4.173A4.178,4.178,0,0,0,54.693,0H19.2a4.178,4.178,0,0,0-4.173,4.173V51.4A4.178,4.178,0,0,0,19.2,55.573H54.693A4.178,4.178,0,0,0,58.866,51.4V42.232a.811.811,0,1,0-1.622,0V51.4a2.554,2.554,0,0,1-2.551,2.551H41.607l.075-.032ZM16.649,4.173A2.554,2.554,0,0,1,19.2,1.622H54.693a2.554,2.554,0,0,1,2.551,2.551V9.16h-40.6ZM62.082,26.356a1.24,1.24,0,0,1,1.752,0l1.518,1.518a1.24,1.24,0,0,1,0,1.752L63.58,31.4l-3.27-3.27Zm-2.919,2.919,3.27,3.27-1.169,1.169-3.27-3.27Zm-2.316,2.316,3.27,3.27L44.531,50.448l-3.27-3.27Zm-18.9,22.175.87-2.016L39.959,52.9ZM41.561,52.2,39.5,50.148l.733-1.7,3.022,3.022Z" transform="translate(-15.027 0)"/>
        </g>
      </g>
    </g>
  </g>
</svg>
