<svg xmlns="http://www.w3.org/2000/svg" width="128" height="128" viewBox="0 0 128 128">
  <g id="Grupo_1178164" data-name="Grupo 1178164" transform="translate(-72.746 -7992)">
    <g id="Elipse_13628" data-name="Elipse 13628" transform="translate(72.746 7992)" fill="#fff7e2" stroke="#cff878" stroke-width="6">
      <circle cx="64" cy="64" r="64" stroke="none"/>
      <circle cx="64" cy="64" r="61" fill="none"/>
    </g>
    <g id="Layer_x0020_1" transform="translate(99.338 8015.66)">
      <path id="Trazado_997451" data-name="Trazado 997451" d="M43.253,65.485H41.408a4.245,4.245,0,0,1-8.292,0c-.93,0-2.868.345-2.868-1.023s1.889-1.023,2.776-1.023V62.124H29.81a2.015,2.015,0,0,1-2.046-2.046V56.572a2.007,2.007,0,0,1,2.046-1.9h.432C29.987,35.791,20.9,43.1,20.9,29.247,20.9,14.394,38.772,7,49.113,17.484A16.652,16.652,0,0,1,53.92,29.247c0,13.849-9.091,6.544-9.346,25.425a2.04,2.04,0,0,1,2.186,1.9v3.507a2.015,2.015,0,0,1-2.046,2.046H41.5V63.44c.887,0,2.776-.337,2.776,1.023a1.017,1.017,0,0,1-1.023,1.023ZM25.631,77.263H5.407A1.017,1.017,0,0,1,4.384,76.24V68.554c0-1.368,1.885-1.023,3.1-1.023.078-1.909.172-2.43-.612-3.858L.146,52.422A1.093,1.093,0,0,1,0,51.9V32.169c0-2.7,1.8-4.822,4.092-4.822,2.221,0,4.092,2.207,4.092,4.822V44.561l1.354,1.993a3.734,3.734,0,0,1,6.507-.357L23.424,56.85c1.589,2.683.961,7.437.864,10.681.842,0,2.366-.236,2.366,1.023V76.24a1.026,1.026,0,0,1-1.023,1.023Zm-16.1-9.732h12.7c.086-3,.755-7.406-.6-9.717L14.364,47.366c-1.407-1.975-3.467-.229-3.415,1.436a4.3,4.3,0,0,0,.58,2.378l2.338,3.653a1.026,1.026,0,0,1-1.724,1.111L9.805,52.29a5.9,5.9,0,0,1-.913-3.053c-.177-.559-2.754-3.572-2.754-4.37V32.155c0-1.563-1.1-2.776-2.046-2.776-1.125,0-2.046,1.242-2.046,2.776V51.6L8.607,62.577c1.111,1.7,1,3.18.922,4.954Zm-3.1,7.686H24.608v-5.64H6.43Zm63.037,2.046H49.244a1.017,1.017,0,0,1-1.023-1.023V68.554c0-1.245,1.485-1.023,2.322-1.023-.1-3.248-.727-8.012.864-10.7L58.8,46.168a3.735,3.735,0,0,1,6.5.376l1.337-1.968V32.169c0-2.616,1.87-4.822,4.092-4.822,2.294,0,4.092,2.119,4.092,4.822V51.9a.953.953,0,0,1-.146.526c-.859,1.393-6.413,10.917-6.766,11.324-.795.917-.625,2.386-.568,3.785,1.283,0,3.155-.345,3.155,1.023V76.24a1.026,1.026,0,0,1-1.023,1.023ZM52.586,67.531H65.293c-.089-1.762-.186-3.252.916-4.939L72.77,51.618V32.169c0-1.534-.921-2.776-2.046-2.776-.95,0-2.046,1.213-2.046,2.776V44.882c0,.8-2.557,3.78-2.734,4.341a5.832,5.832,0,0,1-.919,3.053l-2.338,3.653a1.026,1.026,0,0,1-1.724-1.111L63.3,51.165c1.82-2.862-.976-6.425-2.835-3.814L53.189,57.828c-1.34,2.289-.7,6.716-.6,9.7Zm-2.32,7.686H68.445v-5.64H50.267ZM37.408,9.813A1.017,1.017,0,0,1,36.385,8.79V4.406a1.023,1.023,0,0,1,2.046,0V8.79a1.017,1.017,0,0,1-1.023,1.023Zm6.722.877a1.031,1.031,0,0,1-.994-1.257L44.159,5.2a1.021,1.021,0,0,1,1.987.468L45.123,9.9a1.028,1.028,0,0,1-.994.789Zm6.283,2.484a1.034,1.034,0,0,1-.891-1.52L51.567,8a1.021,1.021,0,0,1,1.783.994L51.3,12.647a1.031,1.031,0,0,1-.891.526Zm5.26,4.238a1.04,1.04,0,0,1-.716-1.753l3.069-3.069a1.024,1.024,0,0,1,1.447,1.447L56.4,17.1a1.03,1.03,0,0,1-.731.307Zm4.091,5.26a1.036,1.036,0,0,1-.5-1.929l3.8-2.046a1.024,1.024,0,0,1,.979,1.8,30.327,30.327,0,0,1-4.281,2.177Zm-44.714,0c-.566,0-3.58-1.788-4.281-2.163a1.024,1.024,0,0,1,.979-1.8l3.8,2.046a1.025,1.025,0,0,1-.5,1.914Zm4.092-5.26a.974.974,0,0,1-.716-.307l-3.069-3.069A1.024,1.024,0,0,1,16.8,12.589l3.069,3.069a1.041,1.041,0,0,1-.731,1.753Zm5.26-4.238a1.014,1.014,0,0,1-.891-.526L21.466,8.994A1.021,1.021,0,0,1,23.249,8l2.046,3.653a1.032,1.032,0,0,1-.891,1.52Zm6.283-2.484a1.028,1.028,0,0,1-.994-.789L28.67,5.663A1.021,1.021,0,0,1,30.657,5.2L31.68,9.433a1.025,1.025,0,0,1-.994,1.257Zm4.856,43.837L33.05,26.7l-3.635-5.032a1.026,1.026,0,0,1,1.666-1.2L34.062,24.6l3.112-4.15a1.035,1.035,0,0,1,1.651.014l2.966,4.106,2.966-4.106a1.027,1.027,0,0,1,1.666,1.2l-3.65,5.053-2.49,27.81h2.239c.313-19.441,9.352-12.8,9.352-25.279a14.467,14.467,0,1,0-28.932,0c0,12.5,9.05,5.846,9.337,25.279h3.263Zm2.057,0h.64l2.5-27.913-2.757-3.825-2.885,3.847L37.6,54.526Zm-3.552,5.553H44.714V56.718H29.81v3.361h4.238Zm5.406,4.4V62.125H35.07v2.484A2.193,2.193,0,1,0,39.454,64.476Z" transform="translate(0 0)" fill-rule="evenodd"/>
      <path id="Trazado_997452" data-name="Trazado 997452" d="M359.084,209.634c-1.34,2.289-.7,6.716-.6,9.7h12.706c-.089-1.762-.186-3.252.916-4.939l6.561-10.974V183.975c0-1.534-.921-2.776-2.046-2.776-.95,0-2.046,1.213-2.046,2.776v12.713c0,.8-2.557,3.78-2.734,4.341a5.832,5.832,0,0,1-.919,3.053l-2.338,3.653a1.026,1.026,0,0,1-1.724-1.111l2.338-3.653c1.82-2.862-.976-6.425-2.835-3.814l-7.277,10.477Z" transform="translate(-305.895 -151.806)" fill="#ff4500" fill-rule="evenodd"/>
      <path id="Trazado_997453" data-name="Trazado 997453" d="M243.3,167.738l2.5-27.913L243.04,136l-2.885,3.847,2.507,27.891Z" transform="translate(-205.063 -113.212)" fill="#ffd300" fill-rule="evenodd"/>
      <path id="Trazado_997454" data-name="Trazado 997454" d="M176.833,92.282l-2.49,27.81h2.239c.313-19.441,9.352-12.8,9.352-25.279a14.467,14.467,0,1,0-28.932,0c0,12.5,9.05,5.846,9.337,25.279H169.6l-2.492-27.83-3.635-5.032a1.026,1.026,0,0,1,1.666-1.2l2.981,4.135,3.112-4.15a1.035,1.035,0,0,1,1.651.014l2.966,4.106,2.966-4.106a1.027,1.027,0,0,1,1.666,1.2l-3.65,5.053Z" transform="translate(-134.059 -65.566)" fill="#ffd300" fill-rule="evenodd"/>
      <g id="Grupo_1178186" data-name="Grupo 1178186" transform="translate(2.046 29.378)">
        <path id="Trazado_997455" data-name="Trazado 997455" d="M218.906,368.2H204v3.361h14.9Z" transform="translate(-176.239 -340.859)" fill="#ff4500" fill-rule="evenodd"/>
        <path id="Trazado_997456" data-name="Trazado 997456" d="M244.386,405.2H240v2.484a2.193,2.193,0,1,0,4.384-.133Z" transform="translate(-206.978 -372.452)" fill="#ff4500" fill-rule="evenodd"/>
        <path id="Trazado_997457" data-name="Trazado 997457" d="M34.183,219.252c.086-3,.755-7.406-.6-9.717l-7.262-10.448c-1.407-1.975-3.467-.229-3.415,1.436a4.3,4.3,0,0,0,.58,2.378l2.338,3.653a1.026,1.026,0,0,1-1.724,1.111l-2.338-3.653a5.9,5.9,0,0,1-.913-3.053c-.177-.559-2.754-3.572-2.754-4.37V183.875c0-1.563-1.1-2.776-2.046-2.776-1.125,0-2.046,1.242-2.046,2.776v19.449L20.564,214.3c1.111,1.7,1,3.18.922,4.954h12.7Z" transform="translate(-14.003 -181.099)" fill="#ff4500" fill-rule="evenodd"/>
        <path id="Trazado_997458" data-name="Trazado 997458" d="M62.18,456.2H44v5.64H62.18Z" transform="translate(-39.618 -416)" fill="#ff4500" fill-rule="evenodd"/>
        <path id="Trazado_997459" data-name="Trazado 997459" d="M344,456.2v5.64h18.178V456.2Z" transform="translate(-295.781 -416)" fill="#ff4500" fill-rule="evenodd"/>
      </g>
    </g>
  </g>
</svg>
