<svg xmlns="http://www.w3.org/2000/svg" width="84" height="84" viewBox="0 0 84 84">
  <g id="Grupo_1177798" data-name="Grupo 1177798" transform="translate(-205.873 -1149)">
    <rect id="Rectángulo_454995" data-name="Rectángulo 454995" width="84" height="84" rx="10" transform="translate(205.873 1149)" fill="#a4c2ff"/>
    <g id="layer1" transform="translate(218.027 1174.723)">
      <g id="g1036" transform="translate(0 0)">
        <path id="path944" d="M232.135,128.309a3.6,3.6,0,0,0-1.183,1.732v0a3.412,3.412,0,0,0-.139,1v24.6a3.412,3.412,0,0,0,6.825,0V140.475l14.373,17.35a3.375,3.375,0,0,0,4.112.9,3.2,3.2,0,0,0,1.928-3.073V131.007a3.412,3.412,0,0,0-6.825,0v15.174l-14.35-17.322a3.667,3.667,0,0,0-4.74-.549Z" transform="translate(-230.138 -126.968)" fill="#b557a1"/>
        <path id="path1017" d="M233.715,131.289a3.081,3.081,0,0,0-.974,2.215v5.442a.568.568,0,0,0,1.136,0V133.5a1.777,1.777,0,0,1,.643-1.415.568.568,0,0,0,0-.8.589.589,0,0,0-.8,0Z" transform="translate(-231.501 -129.466)" fill="#fff"/>
        <path id="path1021" d="M303,131.289a3.081,3.081,0,0,0-.974,2.215v5.442a.568.568,0,1,0,1.136,0V133.5a1.777,1.777,0,0,1,.643-1.415.568.568,0,0,0,0-.8.589.589,0,0,0-.8,0Z" transform="translate(-280.452 -129.466)" fill="#fff"/>
        <path id="path1025" d="M287.535,205.7a1.136,1.136,0,0,0-.157,1.6l3.914,4.765.017.02a3.909,3.909,0,0,0,2.528,1.414,3.416,3.416,0,0,0,2.541-.817,1.136,1.136,0,1,0-1.47-1.732,1.077,1.077,0,0,1-.841.289,1.586,1.586,0,0,1-1.035-.634h0l-3.9-4.745a1.16,1.16,0,0,0-1.6-.157Z" transform="translate(-269.923 -181.978)" fill="#984386"/>
        <path id="path1029" d="M252.872,125.459a3.983,3.983,0,0,0-3.975,3.975v13.574l-13.323-16.082-.007-.008a3.97,3.97,0,0,0-2.915-1.366,4.207,4.207,0,0,0-2.493.676.568.568,0,0,0-.093.056l-.03.024a4.194,4.194,0,0,0-1.359,2v0a3.976,3.976,0,0,0-.162,1.166v24.559a3.975,3.975,0,0,0,7.95,0V140.463l13.345,16.109.029.032a4.02,4.02,0,0,0,4.755,1.013,3.833,3.833,0,0,0,2.252-3.582v-24.6a3.983,3.983,0,0,0-3.975-3.975Zm0,1.136a2.831,2.831,0,0,1,2.839,2.839v24.6a2.558,2.558,0,0,1-1.6,2.553,2.729,2.729,0,0,1-3.45-.769l-14.328-17.3a.568.568,0,0,0-1,.362v15.149a2.839,2.839,0,0,1-5.678,0V129.471s0,0,0-.006a2.837,2.837,0,0,1,.115-.832s0,0,0,0a3,3,0,0,1,.988-1.441,3.234,3.234,0,0,1,1.861-.5,2.782,2.782,0,0,1,2.09.971l14.321,17.287a.568.568,0,0,0,1.005-.362v-15.15a2.831,2.831,0,0,1,2.839-2.839Z" transform="translate(-228.515 -125.459)"/>
      </g>
    </g>
    <g id="layer1-2" data-name="layer1" transform="translate(249.389 1174.724)">
      <g id="g889" transform="translate(0 0)">
        <path id="path940-1-1" d="M22.709,1.936a3.407,3.407,0,0,0-3.128,2.1L9.389,28.642a3.407,3.407,0,0,0,6.3,2.608l1.573-3.8H28.2l1.573,3.8a3.407,3.407,0,0,0,6.3-2.608l-10.19-24.6a3.407,3.407,0,0,0-3.129-2.1h-.038Zm.019,12.31,2.647,6.392h-5.3Z" transform="translate(-8.562 -1.368)" fill="#f8c09d"/>
        <path id="path1038" d="M41.9,82.057a1.136,1.136,0,1,0,0,2.272H51l1.74,4.075a1.136,1.136,0,1,0,2.089-.891l-2.033-4.765a1.136,1.136,0,0,0-1.045-.69Z" transform="translate(-30.92 -57.993)" fill="#f4a16c"/>
        <path id="path1042" d="M21.341,0a3.978,3.978,0,0,0-3.649,2.453L7.5,27.056A3.975,3.975,0,0,0,14.844,30.1l1.428-3.446H26.454L27.882,30.1a3.975,3.975,0,0,0,7.345-3.042h0l-10.19-24.6A3.978,3.978,0,0,0,21.386,0h-.045Zm.007,1.136h.032a2.836,2.836,0,0,1,2.607,1.752l10.19,24.6a2.839,2.839,0,0,1-5.246,2.173l-1.573-3.8a.568.568,0,0,0-.525-.351H15.893a.568.568,0,0,0-.525.351l-1.573,3.8a2.839,2.839,0,0,1-5.246-2.173l10.193-24.6h0a2.837,2.837,0,0,1,2.607-1.752Zm0,11.174a.568.568,0,0,0-.507.351l-2.648,6.392a.568.568,0,0,0,.525.785h5.3a.568.568,0,0,0,.525-.785L21.888,12.66a.568.568,0,0,0-.542-.351Zm.017,2.052,1.8,4.34h-3.6Z" transform="translate(-7.198 0)"/>
        <path id="path1046" d="M40.467,4.7a.568.568,0,0,0-.068,0,2.212,2.212,0,0,0-1.459.834,6.086,6.086,0,0,0-.855,1.516l0,.006-3.152,7.608a.568.568,0,0,0,1.049.435l3.149-7.6a5.283,5.283,0,0,1,.684-1.237,1,1,0,0,1,.7-.43A.568.568,0,0,0,40.467,4.7Z" transform="translate(-26.767 -3.319)" fill="#fff"/>
      </g>
    </g>
  </g>
</svg>
