<svg xmlns="http://www.w3.org/2000/svg" xmlns:xlink="http://www.w3.org/1999/xlink" width="605.413" height="320" viewBox="0 0 605.413 320">
  <defs>
    <clipPath id="clip-path">
      <rect id="Rectángulo_455091" data-name="Rectángulo 455091" width="436" height="122.675" fill="none"/>
    </clipPath>
    <clipPath id="clip-path-2">
      <rect id="Rectángulo_455087" data-name="Rectángulo 455087" width="435.999" height="122.675" fill="none"/>
    </clipPath>
    <clipPath id="clip-path-3">
      <rect id="Rectángulo_455079" data-name="Rectángulo 455079" width="39.282" height="30.717" fill="none"/>
    </clipPath>
    <clipPath id="clip-path-4">
      <rect id="Rectángulo_455080" data-name="Rectángulo 455080" width="9.3" height="9.134" fill="none"/>
    </clipPath>
    <clipPath id="clip-path-5">
      <rect id="Rectángulo_455083" data-name="Rectángulo 455083" width="12.191" height="7.655" fill="none"/>
    </clipPath>
    <clipPath id="clip-path-7">
      <path id="Trazado_995518" data-name="Trazado 995518" d="M0,0C3.77,16.849,34.952,30,72.862,30s69.093-13.146,72.862-30Z" fill="none"/>
    </clipPath>
    <linearGradient id="linear-gradient" x1="0.001" y1="3.904" x2="0.002" y2="3.904" gradientUnits="objectBoundingBox">
      <stop offset="0" stop-color="#fe9c98"/>
      <stop offset="0.279" stop-color="#fe9591"/>
      <stop offset="0.657" stop-color="#fe8480"/>
      <stop offset="0.996" stop-color="#ff6f6b"/>
      <stop offset="1" stop-color="#ff6f6b"/>
    </linearGradient>
    <clipPath id="clip-path-8">
      <path id="Trazado_995519" data-name="Trazado 995519" d="M1632.481,0c3.77,16.849,34.953,30,72.862,30s69.093-13.146,72.862-30Z" transform="translate(-1632.481)" fill="none"/>
    </clipPath>
    <linearGradient id="linear-gradient-2" x1="-1.992" y1="4.09" x2="-1.991" y2="4.09" gradientUnits="objectBoundingBox">
      <stop offset="0" stop-color="#79f6ba"/>
      <stop offset="0.249" stop-color="#72f0b3"/>
      <stop offset="0.59" stop-color="#62dfa2"/>
      <stop offset="0.982" stop-color="#46c585"/>
      <stop offset="1" stop-color="#45c484"/>
    </linearGradient>
  </defs>
  <g id="Grupo_1177980" data-name="Grupo 1177980" transform="translate(-498 -2152.711)">
    <rect id="Rectángulo_455070" data-name="Rectángulo 455070" width="605.413" height="320" rx="10" transform="translate(498 2152.711)" fill="#fff"/>
    <g id="Grupo_1178000" data-name="Grupo 1178000" transform="translate(582 2310.567)">
      <g id="Grupo_1177999" data-name="Grupo 1177999" clip-path="url(#clip-path)">
        <g id="Grupo_1177992" data-name="Grupo 1177992">
          <g id="Grupo_1177991" data-name="Grupo 1177991" clip-path="url(#clip-path-2)">
            <path id="Trazado_995509" data-name="Trazado 995509" d="M383.179,244.456l145.705,19.293,145.705-19.293a5.732,5.732,0,0,0-.78-11.424H383.959a5.732,5.732,0,0,0-.78,11.424" transform="translate(-310.884 -191.596)" fill="#1f4766"/>
            <g id="Grupo_1177981" data-name="Grupo 1177981" transform="translate(198.358 41.436)" opacity="0.7">
              <g id="Grupo_1177980-2" data-name="Grupo 1177980">
                <g id="Grupo_1177979" data-name="Grupo 1177979" clip-path="url(#clip-path-3)">
                  <path id="Trazado_995510" data-name="Trazado 995510" d="M1147.676,233.032l7.159,28.116-19.641,2.6-19.641-2.6,7.159-28.116Z" transform="translate(-1115.552 -233.032)" fill="#193952"/>
                </g>
              </g>
            </g>
            <g id="Grupo_1177984" data-name="Grupo 1177984" transform="translate(212.791 52.776)" opacity="0.3">
              <g id="Grupo_1177983" data-name="Grupo 1177983">
                <g id="Grupo_1177982" data-name="Grupo 1177982" clip-path="url(#clip-path-4)">
                  <path id="Trazado_995511" data-name="Trazado 995511" d="M1196.725,301.373a4.65,4.65,0,1,0,4.649-4.567,4.609,4.609,0,0,0-4.649,4.567" transform="translate(-1196.724 -296.806)" fill="#1f4766"/>
                </g>
              </g>
            </g>
            <rect id="Rectángulo_455081" data-name="Rectángulo 455081" width="12.191" height="21.641" transform="translate(66.767 23.878)" fill="#1f4766"/>
            <g id="Grupo_1177987" data-name="Grupo 1177987" transform="translate(66.767 23.878)" opacity="0.7">
              <g id="Grupo_1177986" data-name="Grupo 1177986">
                <g id="Grupo_1177985" data-name="Grupo 1177985" clip-path="url(#clip-path-5)">
                  <rect id="Rectángulo_455082" data-name="Rectángulo 455082" width="12.191" height="7.655" transform="translate(0 0)" fill="#193952"/>
                </g>
              </g>
            </g>
            <rect id="Rectángulo_455084" data-name="Rectángulo 455084" width="12.191" height="21.641" transform="translate(357.042 23.878)" fill="#1f4766"/>
            <g id="Grupo_1177990" data-name="Grupo 1177990" transform="translate(357.041 23.878)" opacity="0.7">
              <g id="Grupo_1177989" data-name="Grupo 1177989">
                <g id="Grupo_1177988" data-name="Grupo 1177988" clip-path="url(#clip-path-5)">
                  <rect id="Rectángulo_455085" data-name="Rectángulo 455085" width="12.191" height="7.655" transform="translate(0.001 0)" fill="#193952"/>
                </g>
              </g>
            </g>
            <path id="Trazado_995512" data-name="Trazado 995512" d="M360.857,226.93a8.7,8.7,0,1,0,8.7-8.544,8.622,8.622,0,0,0-8.7,8.544" transform="translate(-296.692 -179.554)" fill="#246b96"/>
            <path id="Trazado_995513" data-name="Trazado 995513" d="M1993.339,226.93a8.7,8.7,0,1,0,8.7-8.544,8.622,8.622,0,0,0-8.7,8.544" transform="translate(-1638.9 -179.554)" fill="#246b96"/>
            <path id="Trazado_995514" data-name="Trazado 995514" d="M383.625,245.318a4.65,4.65,0,1,0,4.649-4.567,4.609,4.609,0,0,0-4.649,4.567" transform="translate(-315.412 -197.943)" fill="#f2f2f2"/>
            <path id="Trazado_995515" data-name="Trazado 995515" d="M394.792,254.338a2.664,2.664,0,1,0,2.664-2.617,2.641,2.641,0,0,0-2.664,2.617" transform="translate(-324.593 -206.962)" fill="#ccc"/>
            <path id="Trazado_995516" data-name="Trazado 995516" d="M2016.106,245.318a4.65,4.65,0,1,0,4.649-4.567,4.609,4.609,0,0,0-4.649,4.567" transform="translate(-1657.618 -197.943)" fill="#f2f2f2"/>
            <path id="Trazado_995517" data-name="Trazado 995517" d="M2027.273,254.338a2.664,2.664,0,1,0,2.664-2.617,2.641,2.641,0,0,0-2.664,2.617" transform="translate(-1666.8 -206.962)" fill="#ccc"/>
          </g>
        </g>
        <g id="Grupo_1177994" data-name="Grupo 1177994">
          <g id="Grupo_1177993" data-name="Grupo 1177993" clip-path="url(#clip-path-7)">
            <rect id="Rectángulo_455088" data-name="Rectángulo 455088" width="146.053" height="31.63" transform="translate(-0.337 0.004) rotate(-0.644)" fill="url(#linear-gradient)"/>
          </g>
        </g>
        <g id="Grupo_1177996" data-name="Grupo 1177996" transform="translate(290.274)">
          <g id="Grupo_1177995" data-name="Grupo 1177995" clip-path="url(#clip-path-8)">
            <rect id="Rectángulo_455089" data-name="Rectángulo 455089" width="145.725" height="29.995" fill="url(#linear-gradient-2)"/>
          </g>
        </g>
        <g id="Grupo_1177998" data-name="Grupo 1177998">
          <g id="Grupo_1177997" data-name="Grupo 1177997" clip-path="url(#clip-path-2)">
            <path id="Trazado_995520" data-name="Trazado 995520" d="M1213.817,82.512h2.833a.844.844,0,0,0,.915-.791l-1.417-35.467a.935.935,0,0,0-1.829,0L1212.9,81.721a.844.844,0,0,0,.915.791" transform="translate(-997.234 -37.421)" fill="#1f4766"/>
            <path id="Trazado_995521" data-name="Trazado 995521" d="M1130.5,285.366l-17.593-68.976a1.066,1.066,0,0,0-1.038-.8h-17.719a1.066,1.066,0,0,0-1.037.8l-16.7,67.406Z" transform="translate(-885.012 -177.259)" fill="#246b96"/>
            <path id="Trazado_995522" data-name="Trazado 995522" d="M1209.164,297.913a4.65,4.65,0,1,1-4.649-4.567,4.609,4.609,0,0,1,4.649,4.567" transform="translate(-986.515 -241.186)" fill="#f2f2f2"/>
            <path id="Trazado_995523" data-name="Trazado 995523" d="M1216.36,306.933a2.664,2.664,0,1,1-2.664-2.617,2.641,2.641,0,0,1,2.664,2.617" transform="translate(-995.696 -250.205)" fill="#ccc"/>
            <path id="Trazado_995524" data-name="Trazado 995524" d="M1181.2,78.257c0-4.934,2.917-9.035,6.72-9.782l.234-4.011c.018-.313.467-.562,1.014-.562s1,.249,1.014.562l.234,4.011c3.8.747,6.721,4.848,6.721,9.782,0,4.436-2.358,8.2-5.6,9.457l.215,3.7c.019.329-.441.6-1.014.6H1187.6c-.574,0-1.033-.272-1.014-.6l.216-3.7c-3.24-1.257-5.6-5.021-5.6-9.457m7.968,8.131c3.4,0,6.164-3.648,6.164-8.131s-2.765-8.131-6.164-8.131S1183,73.773,1183,78.257s2.765,8.131,6.164,8.131" transform="translate(-971.168 -52.539)" fill="#246b96"/>
            <path id="Trazado_995525" data-name="Trazado 995525" d="M899.5,597.9h-180.2V590.64a8.967,8.967,0,0,1,8.967-8.967H890.537a8.967,8.967,0,0,1,8.967,8.967Z" transform="translate(-591.406 -478.245)" fill="#1f4766"/>
            <path id="Trazado_995526" data-name="Trazado 995526" d="M886.023,673.878H702.811a1.734,1.734,0,0,1,0-3.468H886.023a1.734,1.734,0,0,1,0,3.468" transform="translate(-576.417 -551.203)" fill="#246b96"/>
          </g>
        </g>
      </g>
    </g>
    <path id="Trazado_1005603" data-name="Trazado 1005603" d="M23.917,17H17.2V5.8h6.461V7.852H19.721v2.492h3.664v2.047H19.721v2.563h4.2Zm4.36,0H25.753V5.8h2.523Zm12.017-5.773a2.142,2.142,0,0,0-1.039-.242,1.5,1.5,0,0,0-1.258.59,2.573,2.573,0,0,0-.453,1.605V17H35.076V9h2.469v1.484h.031a2.136,2.136,0,0,1,2.109-1.625,1.59,1.59,0,0,1,.609.094ZM43.952,17H41.483V9h2.469ZM45.225,5.211,42.78,7.734H41L43.03,5.211ZM49.882,17.2a4.3,4.3,0,0,1-3.145-1.121,4.064,4.064,0,0,1-1.145-3.043,4.065,4.065,0,0,1,1.188-3.105A4.487,4.487,0,0,1,49.992,8.8a4.249,4.249,0,0,1,3.125,1.121,3.985,3.985,0,0,1,1.133,2.965,4.23,4.23,0,0,1-1.168,3.148A4.348,4.348,0,0,1,49.882,17.2Zm.063-6.5a1.647,1.647,0,0,0-1.359.6A2.653,2.653,0,0,0,48.1,13q0,2.3,1.859,2.3,1.773,0,1.773-2.367Q51.734,10.7,49.945,10.7Zm9.877,6.094v-2a5.256,5.256,0,0,0,1.215.547,4.028,4.028,0,0,0,1.145.18,2.455,2.455,0,0,0,1.035-.18.581.581,0,0,0,.379-.547.506.506,0,0,0-.172-.391,1.6,1.6,0,0,0-.441-.273,5.009,5.009,0,0,0-.59-.211q-.32-.094-.617-.211a5.914,5.914,0,0,1-.84-.387,2.427,2.427,0,0,1-.609-.48,1.889,1.889,0,0,1-.375-.633,2.525,2.525,0,0,1-.129-.852,2.192,2.192,0,0,1,.293-1.156A2.393,2.393,0,0,1,60.9,9.4a3.57,3.57,0,0,1,1.117-.453A5.825,5.825,0,0,1,63.322,8.8a7.261,7.261,0,0,1,1.078.082,8.047,8.047,0,0,1,1.078.238v1.906a3.9,3.9,0,0,0-1-.41,4.235,4.235,0,0,0-1.051-.137,2.328,2.328,0,0,0-.457.043,1.505,1.505,0,0,0-.379.125.7.7,0,0,0-.258.211.486.486,0,0,0-.094.293.541.541,0,0,0,.141.375,1.221,1.221,0,0,0,.367.27,3.625,3.625,0,0,0,.5.2q.277.09.551.184a7.161,7.161,0,0,1,.891.375,2.848,2.848,0,0,1,.684.477,1.872,1.872,0,0,1,.438.641,2.563,2.563,0,0,1-.156,2.09,2.471,2.471,0,0,1-.82.82,3.72,3.72,0,0,1-1.18.461,6.54,6.54,0,0,1-1.387.145A7.149,7.149,0,0,1,59.822,16.789ZM74.612,13.7H69.393q.125,1.742,2.2,1.742a4.286,4.286,0,0,0,2.32-.625V16.6a6.1,6.1,0,0,1-2.883.594,4.058,4.058,0,0,1-3.008-1.074,4.058,4.058,0,0,1-1.07-3A4.281,4.281,0,0,1,68.1,9.969,3.852,3.852,0,0,1,70.948,8.8a3.5,3.5,0,0,1,2.707,1.039,4,4,0,0,1,.957,2.82Zm-2.289-1.516q0-1.719-1.391-1.719a1.328,1.328,0,0,0-1.027.492,2.234,2.234,0,0,0-.527,1.227ZM88.4,17H85.934V15.9H85.9a2.768,2.768,0,0,1-2.477,1.3,3.033,3.033,0,0,1-2.414-1.059A4.382,4.382,0,0,1,80.1,13.18,4.77,4.77,0,0,1,81.106,10a3.287,3.287,0,0,1,2.641-1.2A2.246,2.246,0,0,1,85.9,9.914h.031V5.156H88.4Zm-2.422-3.891v-.6a1.893,1.893,0,0,0-.453-1.3,1.6,1.6,0,0,0-2.461.129,2.993,2.993,0,0,0-.461,1.77,2.59,2.59,0,0,0,.445,1.625,1.581,1.581,0,0,0,2.457-.031A2.507,2.507,0,0,0,85.981,13.109Zm11.727.594H92.489q.125,1.742,2.2,1.742a4.286,4.286,0,0,0,2.32-.625V16.6a6.1,6.1,0,0,1-2.883.594,4.058,4.058,0,0,1-3.008-1.074,4.058,4.058,0,0,1-1.07-3A4.281,4.281,0,0,1,91.2,9.969,3.852,3.852,0,0,1,94.044,8.8a3.5,3.5,0,0,1,2.707,1.039,4,4,0,0,1,.957,2.82Zm-2.289-1.516q0-1.719-1.391-1.719A1.328,1.328,0,0,0,93,10.961a2.234,2.234,0,0,0-.527,1.227Zm3.274,4.6v-2a5.256,5.256,0,0,0,1.215.547,4.028,4.028,0,0,0,1.145.18,2.455,2.455,0,0,0,1.035-.18.581.581,0,0,0,.379-.547.506.506,0,0,0-.172-.391,1.6,1.6,0,0,0-.441-.273,5.009,5.009,0,0,0-.59-.211q-.32-.094-.617-.211a5.913,5.913,0,0,1-.84-.387,2.427,2.427,0,0,1-.609-.48,1.889,1.889,0,0,1-.375-.633,2.525,2.525,0,0,1-.129-.852,2.192,2.192,0,0,1,.293-1.156,2.393,2.393,0,0,1,.781-.793,3.57,3.57,0,0,1,1.117-.453,5.825,5.825,0,0,1,1.309-.145,7.261,7.261,0,0,1,1.078.082,8.047,8.047,0,0,1,1.078.238v1.906a3.9,3.9,0,0,0-1-.41,4.235,4.235,0,0,0-1.051-.137,2.328,2.328,0,0,0-.457.043,1.505,1.505,0,0,0-.379.125.7.7,0,0,0-.258.211.486.486,0,0,0-.094.293.541.541,0,0,0,.141.375,1.221,1.221,0,0,0,.367.27,3.625,3.625,0,0,0,.5.2q.277.09.551.184a7.161,7.161,0,0,1,.891.375,2.848,2.848,0,0,1,.684.477,1.872,1.872,0,0,1,.438.641,2.563,2.563,0,0,1-.156,2.09,2.471,2.471,0,0,1-.82.82,3.72,3.72,0,0,1-1.18.461,6.54,6.54,0,0,1-1.387.145A7.149,7.149,0,0,1,98.693,16.789Zm10.1-.719h-.031V17H106.3V5.156h2.469V10.2h.031a2.929,2.929,0,0,1,2.6-1.4,2.855,2.855,0,0,1,2.383,1.063,4.582,4.582,0,0,1,.836,2.906,4.962,4.962,0,0,1-.977,3.211A3.181,3.181,0,0,1,111.03,17.2,2.521,2.521,0,0,1,108.8,16.07Zm-.07-3.375v.82a1.872,1.872,0,0,0,.445,1.281,1.449,1.449,0,0,0,1.141.508,1.514,1.514,0,0,0,1.309-.652,3.15,3.15,0,0,0,.465-1.848,2.506,2.506,0,0,0-.426-1.551,1.437,1.437,0,0,0-1.215-.559,1.569,1.569,0,0,0-1.23.555A2.107,2.107,0,0,0,108.726,12.7Zm11.345,4.5a4.3,4.3,0,0,1-3.145-1.121,4.064,4.064,0,0,1-1.145-3.043,4.065,4.065,0,0,1,1.188-3.105A4.487,4.487,0,0,1,120.18,8.8,4.249,4.249,0,0,1,123.3,9.926a3.985,3.985,0,0,1,1.133,2.965,4.23,4.23,0,0,1-1.168,3.148A4.348,4.348,0,0,1,120.07,17.2Zm.063-6.5a1.647,1.647,0,0,0-1.359.6,2.653,2.653,0,0,0-.484,1.7q0,2.3,1.859,2.3,1.773,0,1.773-2.367Q121.922,10.7,120.133,10.7Zm11.165.531a2.142,2.142,0,0,0-1.039-.242,1.5,1.5,0,0,0-1.258.59,2.573,2.573,0,0,0-.453,1.605V17h-2.469V9h2.469v1.484h.031a2.136,2.136,0,0,1,2.109-1.625,1.59,1.59,0,0,1,.609.094ZM140.252,17h-2.469V15.9h-.031a2.768,2.768,0,0,1-2.477,1.3,3.033,3.033,0,0,1-2.414-1.059,4.382,4.382,0,0,1-.914-2.957A4.77,4.77,0,0,1,132.955,10,3.287,3.287,0,0,1,135.6,8.8a2.246,2.246,0,0,1,2.156,1.109h.031V5.156h2.469Zm-2.422-3.891v-.6a1.893,1.893,0,0,0-.453-1.3,1.6,1.6,0,0,0-2.461.129,2.993,2.993,0,0,0-.461,1.77,2.59,2.59,0,0,0,.445,1.625,1.581,1.581,0,0,0,2.457-.031A2.507,2.507,0,0,0,137.83,13.109Zm8.353,4.086a4.3,4.3,0,0,1-3.145-1.121,4.064,4.064,0,0,1-1.145-3.043,4.065,4.065,0,0,1,1.188-3.105A4.487,4.487,0,0,1,146.292,8.8a4.249,4.249,0,0,1,3.125,1.121,3.985,3.985,0,0,1,1.133,2.965,4.23,4.23,0,0,1-1.168,3.148A4.348,4.348,0,0,1,146.183,17.2Zm.063-6.5a1.647,1.647,0,0,0-1.359.6A2.653,2.653,0,0,0,144.4,13q0,2.3,1.859,2.3,1.773,0,1.773-2.367Q148.034,10.7,146.245,10.7Zm2.648-5.484-2.445,2.523h-1.781L146.7,5.211Zm5.626,9.82-1.148,3.953h-1.922l.8-3.953ZM12.893,27.734a1.442,1.442,0,0,1-1.023-.371,1.2,1.2,0,0,1-.4-.91,1.153,1.153,0,0,1,.4-.906,1.671,1.671,0,0,1,2.051,0,1.158,1.158,0,0,1,.395.906,1.191,1.191,0,0,1-.395.922A1.466,1.466,0,0,1,12.893,27.734ZM14.112,37H11.643V29h2.469Zm9.845,0H21.5V32.555q0-1.859-1.328-1.859a1.318,1.318,0,0,0-1.055.492,1.875,1.875,0,0,0-.414,1.25V37H16.23V29H18.7v1.266h.031A2.829,2.829,0,0,1,21.3,28.8q2.656,0,2.656,3.3Zm9.595,0H31.09V35.781h-.039A2.792,2.792,0,0,1,28.606,37.2q-2.781,0-2.781-3.367V29h2.461v4.609q0,1.7,1.344,1.7a1.329,1.329,0,0,0,1.063-.465,1.874,1.874,0,0,0,.4-1.262V29h2.461ZM43.4,37H40.935V32.555q0-1.859-1.328-1.859a1.318,1.318,0,0,0-1.055.492,1.875,1.875,0,0,0-.414,1.25V37H35.669V29h2.469v1.266h.031A2.829,2.829,0,0,1,40.74,28.8q2.656,0,2.656,3.3Zm9.821,0H50.748V35.9h-.031a2.768,2.768,0,0,1-2.477,1.3,3.033,3.033,0,0,1-2.414-1.059,4.382,4.382,0,0,1-.914-2.957A4.77,4.77,0,0,1,45.92,30a3.287,3.287,0,0,1,2.641-1.2,2.246,2.246,0,0,1,2.156,1.109h.031V25.156h2.469ZM50.8,33.109v-.6a1.893,1.893,0,0,0-.453-1.3,1.6,1.6,0,0,0-2.461.129,2.993,2.993,0,0,0-.461,1.77,2.59,2.59,0,0,0,.445,1.625,1.581,1.581,0,0,0,2.457-.031A2.507,2.507,0,0,0,50.8,33.109ZM61.992,37H59.656V35.852h-.031A2.607,2.607,0,0,1,57.242,37.2a2.492,2.492,0,0,1-1.832-.66,2.366,2.366,0,0,1-.668-1.762q0-2.328,2.758-2.687l2.172-.289q0-1.312-1.422-1.312a4.853,4.853,0,0,0-2.719.852V29.477a6.116,6.116,0,0,1,1.41-.469,7.413,7.413,0,0,1,1.629-.2q3.422,0,3.422,3.414Zm-2.32-3.25v-.539l-1.453.188q-1.2.156-1.2,1.086a.9.9,0,0,0,.293.691,1.126,1.126,0,0,0,.793.27,1.462,1.462,0,0,0,1.133-.48A1.735,1.735,0,0,0,59.671,33.75ZM71.711,37H69.25V32.555q0-1.859-1.328-1.859a1.318,1.318,0,0,0-1.055.492,1.875,1.875,0,0,0-.414,1.25V37H63.985V29h2.469v1.266h.031a2.829,2.829,0,0,1,2.57-1.461q2.656,0,2.656,3.3Zm9.821,0H79.064V35.9h-.031a2.768,2.768,0,0,1-2.477,1.3,3.033,3.033,0,0,1-2.414-1.059,4.382,4.382,0,0,1-.914-2.957A4.77,4.77,0,0,1,74.236,30a3.287,3.287,0,0,1,2.641-1.2,2.246,2.246,0,0,1,2.156,1.109h.031V25.156h2.469Zm-2.422-3.891v-.6a1.893,1.893,0,0,0-.453-1.3,1.6,1.6,0,0,0-2.461.129,2.993,2.993,0,0,0-.461,1.77,2.59,2.59,0,0,0,.445,1.625,1.581,1.581,0,0,0,2.457-.031A2.507,2.507,0,0,0,79.111,33.109ZM87.463,37.2a4.3,4.3,0,0,1-3.145-1.121,4.064,4.064,0,0,1-1.145-3.043,4.065,4.065,0,0,1,1.188-3.105A4.487,4.487,0,0,1,87.573,28.8,4.249,4.249,0,0,1,90.7,29.926a3.985,3.985,0,0,1,1.133,2.965,4.23,4.23,0,0,1-1.168,3.148A4.348,4.348,0,0,1,87.463,37.2Zm.063-6.5a1.647,1.647,0,0,0-1.359.6,2.653,2.653,0,0,0-.484,1.7q0,2.3,1.859,2.3,1.773,0,1.773-2.367Q89.315,30.7,87.526,30.7ZM100.395,37H97.926V25.156h2.469Zm8.774,0h-2.336V35.852H106.8a2.607,2.607,0,0,1-2.383,1.344,2.492,2.492,0,0,1-1.832-.66,2.366,2.366,0,0,1-.668-1.762q0-2.328,2.758-2.687l2.172-.289q0-1.312-1.422-1.312a4.853,4.853,0,0,0-2.719.852V29.477a6.116,6.116,0,0,1,1.41-.469,7.413,7.413,0,0,1,1.629-.2q3.422,0,3.422,3.414Zm-2.32-3.25v-.539L105.4,33.4q-1.2.156-1.2,1.086a.9.9,0,0,0,.293.691,1.126,1.126,0,0,0,.793.27,1.462,1.462,0,0,0,1.133-.48A1.735,1.735,0,0,0,106.849,33.75Zm3.79,3.039v-2a5.256,5.256,0,0,0,1.215.547,4.028,4.028,0,0,0,1.145.18,2.455,2.455,0,0,0,1.035-.18.581.581,0,0,0,.379-.547.506.506,0,0,0-.172-.391,1.6,1.6,0,0,0-.441-.273,5.009,5.009,0,0,0-.59-.211q-.32-.094-.617-.211a5.914,5.914,0,0,1-.84-.387,2.427,2.427,0,0,1-.609-.48,1.889,1.889,0,0,1-.375-.633,2.525,2.525,0,0,1-.129-.852,2.192,2.192,0,0,1,.293-1.156,2.393,2.393,0,0,1,.781-.793,3.57,3.57,0,0,1,1.117-.453,5.825,5.825,0,0,1,1.309-.145,7.261,7.261,0,0,1,1.078.082,8.047,8.047,0,0,1,1.078.238v1.906a3.9,3.9,0,0,0-1-.41,4.235,4.235,0,0,0-1.051-.137,2.328,2.328,0,0,0-.457.043,1.505,1.505,0,0,0-.379.125.7.7,0,0,0-.258.211.486.486,0,0,0-.094.293.541.541,0,0,0,.141.375,1.221,1.221,0,0,0,.367.27,3.625,3.625,0,0,0,.5.2q.277.09.551.184a7.161,7.161,0,0,1,.891.375,2.848,2.848,0,0,1,.684.477,1.872,1.872,0,0,1,.438.641,2.563,2.563,0,0,1-.156,2.09,2.471,2.471,0,0,1-.82.82,3.72,3.72,0,0,1-1.18.461,6.54,6.54,0,0,1-1.387.145A7.149,7.149,0,0,1,110.639,36.789Zm18.119-.078a4.881,4.881,0,0,1-2.414.484,4.083,4.083,0,0,1-2.984-1.117,3.859,3.859,0,0,1-1.141-2.883,4.251,4.251,0,0,1,1.223-3.215,4.518,4.518,0,0,1,3.27-1.176,4.2,4.2,0,0,1,2.047.375v2.094a2.814,2.814,0,0,0-1.727-.578,2.275,2.275,0,0,0-1.684.621,2.317,2.317,0,0,0-.621,1.715,2.28,2.28,0,0,0,.594,1.668,2.182,2.182,0,0,0,1.633.605,3.258,3.258,0,0,0,1.8-.578Zm8.313.289h-2.336V35.852H134.7a2.607,2.607,0,0,1-2.383,1.344,2.492,2.492,0,0,1-1.832-.66,2.366,2.366,0,0,1-.668-1.762q0-2.328,2.758-2.687l2.172-.289q0-1.312-1.422-1.312a4.853,4.853,0,0,0-2.719.852V29.477a6.116,6.116,0,0,1,1.41-.469,7.413,7.413,0,0,1,1.629-.2q3.422,0,3.422,3.414Zm-2.32-3.25v-.539L133.3,33.4q-1.2.156-1.2,1.086a.9.9,0,0,0,.293.691,1.126,1.126,0,0,0,.793.27,1.462,1.462,0,0,0,1.133-.48A1.735,1.735,0,0,0,134.751,33.75Zm3.79,3.039v-2a5.256,5.256,0,0,0,1.215.547,4.028,4.028,0,0,0,1.145.18,2.455,2.455,0,0,0,1.035-.18.581.581,0,0,0,.379-.547.506.506,0,0,0-.172-.391,1.6,1.6,0,0,0-.441-.273,5.009,5.009,0,0,0-.59-.211q-.32-.094-.617-.211a5.914,5.914,0,0,1-.84-.387,2.427,2.427,0,0,1-.609-.48,1.889,1.889,0,0,1-.375-.633,2.525,2.525,0,0,1-.129-.852,2.192,2.192,0,0,1,.293-1.156,2.393,2.393,0,0,1,.781-.793,3.57,3.57,0,0,1,1.117-.453,5.825,5.825,0,0,1,1.309-.145,7.261,7.261,0,0,1,1.078.082,8.047,8.047,0,0,1,1.078.238v1.906a3.9,3.9,0,0,0-1-.41,4.235,4.235,0,0,0-1.051-.137,2.328,2.328,0,0,0-.457.043,1.505,1.505,0,0,0-.379.125.7.7,0,0,0-.258.211.486.486,0,0,0-.094.293.541.541,0,0,0,.141.375,1.221,1.221,0,0,0,.367.27,3.625,3.625,0,0,0,.5.2q.277.09.551.184a7.161,7.161,0,0,1,.891.375,2.848,2.848,0,0,1,.684.477,1.871,1.871,0,0,1,.438.641,2.563,2.563,0,0,1-.156,2.09,2.471,2.471,0,0,1-.82.82,3.72,3.72,0,0,1-1.18.461,6.54,6.54,0,0,1-1.387.145A7.149,7.149,0,0,1,138.541,36.789ZM152.8,37h-2.336V35.852h-.031A2.607,2.607,0,0,1,148.05,37.2a2.492,2.492,0,0,1-1.832-.66,2.366,2.366,0,0,1-.668-1.762q0-2.328,2.758-2.687l2.172-.289q0-1.312-1.422-1.312a4.853,4.853,0,0,0-2.719.852V29.477a6.116,6.116,0,0,1,1.41-.469,7.413,7.413,0,0,1,1.629-.2q3.422,0,3.422,3.414Zm-2.32-3.25v-.539l-1.453.188q-1.2.156-1.2,1.086a.9.9,0,0,0,.293.691,1.126,1.126,0,0,0,.793.27,1.462,1.462,0,0,0,1.133-.48A1.735,1.735,0,0,0,150.479,33.75Zm3.79,3.039v-2a5.256,5.256,0,0,0,1.215.547,4.028,4.028,0,0,0,1.145.18,2.455,2.455,0,0,0,1.035-.18.581.581,0,0,0,.379-.547.506.506,0,0,0-.172-.391,1.6,1.6,0,0,0-.441-.273,5.009,5.009,0,0,0-.59-.211q-.32-.094-.617-.211a5.914,5.914,0,0,1-.84-.387,2.427,2.427,0,0,1-.609-.48,1.889,1.889,0,0,1-.375-.633,2.525,2.525,0,0,1-.129-.852,2.192,2.192,0,0,1,.293-1.156,2.393,2.393,0,0,1,.781-.793,3.57,3.57,0,0,1,1.117-.453,5.825,5.825,0,0,1,1.309-.145,7.261,7.261,0,0,1,1.078.082,8.047,8.047,0,0,1,1.078.238v1.906a3.9,3.9,0,0,0-1-.41,4.235,4.235,0,0,0-1.051-.137,2.328,2.328,0,0,0-.457.043,1.505,1.505,0,0,0-.379.125.7.7,0,0,0-.258.211.486.486,0,0,0-.094.293.541.541,0,0,0,.141.375,1.221,1.221,0,0,0,.367.27,3.625,3.625,0,0,0,.5.2q.277.09.551.184a7.161,7.161,0,0,1,.891.375,2.848,2.848,0,0,1,.684.477,1.871,1.871,0,0,1,.438.641,2.563,2.563,0,0,1-.156,2.09,2.471,2.471,0,0,1-.82.82,3.72,3.72,0,0,1-1.18.461,6.54,6.54,0,0,1-1.387.145A7.149,7.149,0,0,1,154.269,36.789ZM55.686,57H53.217V55.9h-.031a2.768,2.768,0,0,1-2.477,1.3A3.033,3.033,0,0,1,48.3,56.137a4.382,4.382,0,0,1-.914-2.957A4.77,4.77,0,0,1,48.389,50a3.287,3.287,0,0,1,2.641-1.2,2.246,2.246,0,0,1,2.156,1.109h.031V45.156h2.469Zm-2.422-3.891v-.6a1.893,1.893,0,0,0-.453-1.3,1.6,1.6,0,0,0-2.461.129,2.993,2.993,0,0,0-.461,1.77,2.59,2.59,0,0,0,.445,1.625,1.581,1.581,0,0,0,2.457-.031A2.507,2.507,0,0,0,53.264,53.109Zm11.727.594H59.773q.125,1.742,2.2,1.742a4.286,4.286,0,0,0,2.32-.625V56.6a6.1,6.1,0,0,1-2.883.594,3.724,3.724,0,0,1-4.078-4.07,4.281,4.281,0,0,1,1.156-3.156A3.852,3.852,0,0,1,61.328,48.8a3.5,3.5,0,0,1,2.707,1.039,4,4,0,0,1,.957,2.82ZM62.7,52.188q0-1.719-1.391-1.719a1.328,1.328,0,0,0-1.027.492,2.234,2.234,0,0,0-.527,1.227ZM68.969,57H66.5V45.156h2.469Zm9.072-.93H78.01V57H75.541V45.156H78.01V50.2h.031a2.929,2.929,0,0,1,2.6-1.4,2.855,2.855,0,0,1,2.383,1.063,4.582,4.582,0,0,1,.836,2.906,4.962,4.962,0,0,1-.977,3.211A3.181,3.181,0,0,1,80.276,57.2,2.521,2.521,0,0,1,78.041,56.07Zm-.07-3.375v.82a1.872,1.872,0,0,0,.445,1.281,1.449,1.449,0,0,0,1.141.508,1.514,1.514,0,0,0,1.309-.652A3.15,3.15,0,0,0,81.33,52.8a2.506,2.506,0,0,0-.426-1.551A1.437,1.437,0,0,0,79.69,50.7a1.569,1.569,0,0,0-1.23.555A2.107,2.107,0,0,0,77.971,52.7ZM92,57H89.667V55.852h-.031A2.607,2.607,0,0,1,87.253,57.2a2.492,2.492,0,0,1-1.832-.66,2.366,2.366,0,0,1-.668-1.762q0-2.328,2.758-2.687l2.172-.289q0-1.312-1.422-1.312a4.853,4.853,0,0,0-2.719.852V49.477a6.117,6.117,0,0,1,1.41-.469,7.413,7.413,0,0,1,1.629-.2Q92,48.8,92,52.219Zm-2.32-3.25v-.539L88.23,53.4q-1.2.156-1.2,1.086a.9.9,0,0,0,.293.691,1.126,1.126,0,0,0,.793.27,1.462,1.462,0,0,0,1.133-.48A1.735,1.735,0,0,0,89.683,53.75Zm9.532-2.523a2.142,2.142,0,0,0-1.039-.242,1.5,1.5,0,0,0-1.258.59,2.573,2.573,0,0,0-.453,1.605V57H94V49h2.469v1.484H96.5a2.136,2.136,0,0,1,2.109-1.625,1.59,1.59,0,0,1,.609.094Zm6.407,0a2.142,2.142,0,0,0-1.039-.242,1.5,1.5,0,0,0-1.258.59,2.573,2.573,0,0,0-.453,1.605V57H100.4V49h2.469v1.484h.031a2.136,2.136,0,0,1,2.109-1.625,1.59,1.59,0,0,1,.609.094Zm2.5-3.492a1.442,1.442,0,0,1-1.023-.371,1.2,1.2,0,0,1-.4-.91,1.153,1.153,0,0,1,.4-.906,1.671,1.671,0,0,1,2.051,0,1.158,1.158,0,0,1,.395.906,1.191,1.191,0,0,1-.395.922A1.466,1.466,0,0,1,108.123,47.734ZM109.342,57h-2.469V49h2.469Zm5.931.2a4.3,4.3,0,0,1-3.145-1.121,4.636,4.636,0,0,1,.043-6.148,4.487,4.487,0,0,1,3.211-1.121,4.249,4.249,0,0,1,3.125,1.121,3.985,3.985,0,0,1,1.133,2.965,4.23,4.23,0,0,1-1.168,3.148A4.348,4.348,0,0,1,115.273,57.2Zm.063-6.5a1.647,1.647,0,0,0-1.359.6,2.653,2.653,0,0,0-.484,1.7q0,2.3,1.859,2.3,1.773,0,1.773-2.367Q117.124,50.7,115.335,50.7Zm7.048,6.5a1.44,1.44,0,0,1-1.016-.375,1.206,1.206,0,0,1-.406-.922,1.161,1.161,0,0,1,.418-.922,1.543,1.543,0,0,1,1.043-.359,1.486,1.486,0,0,1,1.035.363,1.258,1.258,0,0,1-.008,1.852A1.549,1.549,0,0,1,122.383,57.2Z" transform="translate(567.954 2242.711)" fill="#12263f"/>
    <path id="Trazado_1005604" data-name="Trazado 1005604" d="M19.5,17H12.779V5.8H19.24V7.852H15.3v2.492h3.664v2.047H15.3v2.563h4.2Zm4.36,0H21.335V5.8h2.523Zm12.017-5.773a2.142,2.142,0,0,0-1.039-.242,1.5,1.5,0,0,0-1.258.59,2.573,2.573,0,0,0-.453,1.605V17H30.657V9h2.469v1.484h.031a2.136,2.136,0,0,1,2.109-1.625,1.59,1.59,0,0,1,.609.094Zm2.5-3.492a1.442,1.442,0,0,1-1.023-.371,1.2,1.2,0,0,1-.4-.91,1.153,1.153,0,0,1,.4-.906,1.671,1.671,0,0,1,2.051,0,1.158,1.158,0,0,1,.395.906,1.191,1.191,0,0,1-.395.922A1.466,1.466,0,0,1,38.377,7.734ZM39.6,17H37.127V9H39.6Zm5.931.2a4.3,4.3,0,0,1-3.145-1.121,4.064,4.064,0,0,1-1.145-3.043,4.065,4.065,0,0,1,1.188-3.105A4.487,4.487,0,0,1,45.636,8.8a4.249,4.249,0,0,1,3.125,1.121,3.985,3.985,0,0,1,1.133,2.965,4.23,4.23,0,0,1-1.168,3.148A4.348,4.348,0,0,1,45.526,17.2Zm.063-6.5a1.647,1.647,0,0,0-1.359.6,2.653,2.653,0,0,0-.484,1.7q0,2.3,1.859,2.3,1.773,0,1.773-2.367Q47.378,10.7,45.589,10.7Zm9.877,6.094v-2a5.256,5.256,0,0,0,1.215.547,4.028,4.028,0,0,0,1.145.18,2.455,2.455,0,0,0,1.035-.18.581.581,0,0,0,.379-.547.506.506,0,0,0-.172-.391,1.6,1.6,0,0,0-.441-.273,5.009,5.009,0,0,0-.59-.211q-.32-.094-.617-.211a5.914,5.914,0,0,1-.84-.387,2.427,2.427,0,0,1-.609-.48,1.889,1.889,0,0,1-.375-.633,2.525,2.525,0,0,1-.129-.852,2.192,2.192,0,0,1,.293-1.156A2.393,2.393,0,0,1,56.54,9.4a3.57,3.57,0,0,1,1.117-.453A5.825,5.825,0,0,1,58.966,8.8a7.261,7.261,0,0,1,1.078.082,8.047,8.047,0,0,1,1.078.238v1.906a3.9,3.9,0,0,0-1-.41,4.235,4.235,0,0,0-1.051-.137,2.328,2.328,0,0,0-.457.043,1.505,1.505,0,0,0-.379.125.7.7,0,0,0-.258.211.486.486,0,0,0-.094.293.541.541,0,0,0,.141.375,1.221,1.221,0,0,0,.367.27,3.625,3.625,0,0,0,.5.2q.277.09.551.184a7.161,7.161,0,0,1,.891.375,2.848,2.848,0,0,1,.684.477,1.871,1.871,0,0,1,.438.641,2.563,2.563,0,0,1-.156,2.09,2.471,2.471,0,0,1-.82.82,3.72,3.72,0,0,1-1.18.461,6.54,6.54,0,0,1-1.387.145A7.149,7.149,0,0,1,55.466,16.789ZM70.256,13.7H65.037q.125,1.742,2.2,1.742a4.286,4.286,0,0,0,2.32-.625V16.6a6.1,6.1,0,0,1-2.883.594,4.058,4.058,0,0,1-3.008-1.074,4.058,4.058,0,0,1-1.07-3,4.281,4.281,0,0,1,1.156-3.156A3.852,3.852,0,0,1,66.592,8.8,3.5,3.5,0,0,1,69.3,9.844a4,4,0,0,1,.957,2.82Zm-2.289-1.516q0-1.719-1.391-1.719a1.328,1.328,0,0,0-1.027.492,2.234,2.234,0,0,0-.527,1.227ZM84.047,17H81.578V15.9h-.031a2.768,2.768,0,0,1-2.477,1.3,3.033,3.033,0,0,1-2.414-1.059,4.382,4.382,0,0,1-.914-2.957A4.77,4.77,0,0,1,76.75,10,3.287,3.287,0,0,1,79.39,8.8a2.246,2.246,0,0,1,2.156,1.109h.031V5.156h2.469Zm-2.422-3.891v-.6a1.893,1.893,0,0,0-.453-1.3,1.6,1.6,0,0,0-2.461.129,2.993,2.993,0,0,0-.461,1.77,2.59,2.59,0,0,0,.445,1.625,1.581,1.581,0,0,0,2.457-.031A2.507,2.507,0,0,0,81.625,13.109Zm11.728.594H88.133q.125,1.742,2.2,1.742a4.286,4.286,0,0,0,2.32-.625V16.6a6.1,6.1,0,0,1-2.883.594,4.058,4.058,0,0,1-3.008-1.074,4.058,4.058,0,0,1-1.07-3,4.281,4.281,0,0,1,1.156-3.156A3.852,3.852,0,0,1,89.688,8.8,3.5,3.5,0,0,1,92.4,9.844a4,4,0,0,1,.957,2.82Zm-2.289-1.516q0-1.719-1.391-1.719a1.328,1.328,0,0,0-1.027.492,2.234,2.234,0,0,0-.527,1.227Zm3.274,4.6v-2a5.256,5.256,0,0,0,1.215.547,4.028,4.028,0,0,0,1.145.18,2.455,2.455,0,0,0,1.035-.18.581.581,0,0,0,.379-.547.506.506,0,0,0-.172-.391,1.6,1.6,0,0,0-.441-.273,5.009,5.009,0,0,0-.59-.211q-.32-.094-.617-.211a5.913,5.913,0,0,1-.84-.387,2.427,2.427,0,0,1-.609-.48,1.889,1.889,0,0,1-.375-.633,2.525,2.525,0,0,1-.129-.852,2.192,2.192,0,0,1,.293-1.156,2.393,2.393,0,0,1,.781-.793,3.57,3.57,0,0,1,1.117-.453A5.825,5.825,0,0,1,97.838,8.8a7.261,7.261,0,0,1,1.078.082,8.047,8.047,0,0,1,1.078.238v1.906a3.9,3.9,0,0,0-1-.41,4.235,4.235,0,0,0-1.051-.137,2.328,2.328,0,0,0-.457.043,1.505,1.505,0,0,0-.379.125.7.7,0,0,0-.258.211.486.486,0,0,0-.094.293.541.541,0,0,0,.141.375,1.221,1.221,0,0,0,.367.27,3.625,3.625,0,0,0,.5.2q.277.09.551.184a7.161,7.161,0,0,1,.891.375,2.848,2.848,0,0,1,.684.477,1.872,1.872,0,0,1,.437.641,2.563,2.563,0,0,1-.156,2.09,2.471,2.471,0,0,1-.82.82,3.72,3.72,0,0,1-1.18.461,6.54,6.54,0,0,1-1.387.145A7.149,7.149,0,0,1,94.338,16.789Zm10.1-.719h-.031V17H101.94V5.156h2.469V10.2h.031a2.929,2.929,0,0,1,2.6-1.4,2.855,2.855,0,0,1,2.383,1.063,4.582,4.582,0,0,1,.836,2.906,4.962,4.962,0,0,1-.977,3.211,3.181,3.181,0,0,1-2.609,1.211A2.521,2.521,0,0,1,104.44,16.07Zm-.07-3.375v.82a1.872,1.872,0,0,0,.445,1.281,1.449,1.449,0,0,0,1.141.508,1.514,1.514,0,0,0,1.309-.652,3.15,3.15,0,0,0,.465-1.848,2.506,2.506,0,0,0-.426-1.551,1.437,1.437,0,0,0-1.215-.559,1.569,1.569,0,0,0-1.23.555A2.107,2.107,0,0,0,104.37,12.7Zm11.345,4.5a4.3,4.3,0,0,1-3.145-1.121,4.064,4.064,0,0,1-1.145-3.043,4.065,4.065,0,0,1,1.188-3.105A4.487,4.487,0,0,1,115.824,8.8a4.249,4.249,0,0,1,3.125,1.121,3.985,3.985,0,0,1,1.133,2.965,4.23,4.23,0,0,1-1.168,3.148A4.348,4.348,0,0,1,115.714,17.2Zm.063-6.5a1.647,1.647,0,0,0-1.359.6,2.653,2.653,0,0,0-.484,1.7q0,2.3,1.859,2.3,1.773,0,1.773-2.367Q117.566,10.7,115.777,10.7Zm11.165.531a2.141,2.141,0,0,0-1.039-.242,1.5,1.5,0,0,0-1.258.59,2.573,2.573,0,0,0-.453,1.605V17h-2.469V9h2.469v1.484h.031a2.136,2.136,0,0,1,2.109-1.625,1.59,1.59,0,0,1,.609.094ZM135.9,17h-2.469V15.9H133.4a2.768,2.768,0,0,1-2.477,1.3,3.033,3.033,0,0,1-2.414-1.059,4.382,4.382,0,0,1-.914-2.957A4.77,4.77,0,0,1,128.6,10a3.287,3.287,0,0,1,2.641-1.2A2.246,2.246,0,0,1,133.4,9.914h.031V5.156H135.9Zm-2.422-3.891v-.6a1.893,1.893,0,0,0-.453-1.3,1.6,1.6,0,0,0-2.461.129,2.993,2.993,0,0,0-.461,1.77,2.59,2.59,0,0,0,.445,1.625A1.581,1.581,0,0,0,133,14.7,2.507,2.507,0,0,0,133.474,13.109Zm8.353,4.086a4.3,4.3,0,0,1-3.145-1.121,4.064,4.064,0,0,1-1.145-3.043,4.065,4.065,0,0,1,1.188-3.105A4.487,4.487,0,0,1,141.936,8.8a4.249,4.249,0,0,1,3.125,1.121,3.985,3.985,0,0,1,1.133,2.965,4.23,4.23,0,0,1-1.168,3.148A4.348,4.348,0,0,1,141.827,17.2Zm.063-6.5a1.647,1.647,0,0,0-1.359.6,2.653,2.653,0,0,0-.484,1.7q0,2.3,1.859,2.3,1.773,0,1.773-2.367Q143.678,10.7,141.889,10.7Zm2.648-5.484-2.445,2.523h-1.781l2.031-2.523ZM159.469,13.7H154.25q.125,1.742,2.2,1.742a4.286,4.286,0,0,0,2.32-.625V16.6a6.1,6.1,0,0,1-2.883.594,4.058,4.058,0,0,1-3.008-1.074,4.058,4.058,0,0,1-1.07-3,4.281,4.281,0,0,1,1.156-3.156A3.852,3.852,0,0,1,155.805,8.8a3.5,3.5,0,0,1,2.707,1.039,4,4,0,0,1,.957,2.82Zm-2.289-1.516q0-1.719-1.391-1.719a1.328,1.328,0,0,0-1.027.492,2.234,2.234,0,0,0-.527,1.227ZM13.213,27.734a1.442,1.442,0,0,1-1.023-.371,1.2,1.2,0,0,1-.4-.91,1.153,1.153,0,0,1,.4-.906,1.671,1.671,0,0,1,2.051,0,1.158,1.158,0,0,1,.395.906,1.191,1.191,0,0,1-.395.922A1.466,1.466,0,0,1,13.213,27.734ZM14.432,37H11.963V29h2.469Zm9.845,0H21.816V32.555q0-1.859-1.328-1.859a1.318,1.318,0,0,0-1.055.492,1.875,1.875,0,0,0-.414,1.25V37H16.55V29h2.469v1.266h.031A2.829,2.829,0,0,1,21.62,28.8q2.656,0,2.656,3.3Zm9.595,0H31.41V35.781h-.039A2.792,2.792,0,0,1,28.926,37.2q-2.781,0-2.781-3.367V29h2.461v4.609q0,1.7,1.344,1.7a1.329,1.329,0,0,0,1.063-.465,1.874,1.874,0,0,0,.4-1.262V29h2.461Zm9.845,0H41.255V32.555q0-1.859-1.328-1.859a1.318,1.318,0,0,0-1.055.492,1.875,1.875,0,0,0-.414,1.25V37H35.989V29h2.469v1.266h.031A2.829,2.829,0,0,1,41.06,28.8q2.656,0,2.656,3.3Zm9.821,0H51.068V35.9h-.031a2.768,2.768,0,0,1-2.477,1.3,3.033,3.033,0,0,1-2.414-1.059,4.382,4.382,0,0,1-.914-2.957A4.77,4.77,0,0,1,46.24,30a3.287,3.287,0,0,1,2.641-1.2,2.246,2.246,0,0,1,2.156,1.109h.031V25.156h2.469Zm-2.422-3.891v-.6a1.893,1.893,0,0,0-.453-1.3,1.6,1.6,0,0,0-2.461.129,2.993,2.993,0,0,0-.461,1.77,2.59,2.59,0,0,0,.445,1.625,1.581,1.581,0,0,0,2.457-.031A2.507,2.507,0,0,0,51.115,33.109ZM59.468,37.2a4.3,4.3,0,0,1-3.145-1.121,4.064,4.064,0,0,1-1.145-3.043,4.065,4.065,0,0,1,1.188-3.105A4.487,4.487,0,0,1,59.577,28.8,4.249,4.249,0,0,1,62.7,29.926a3.985,3.985,0,0,1,1.133,2.965,4.23,4.23,0,0,1-1.168,3.148A4.348,4.348,0,0,1,59.468,37.2Zm.063-6.5a1.647,1.647,0,0,0-1.359.6,2.653,2.653,0,0,0-.484,1.7q0,2.3,1.859,2.3,1.773,0,1.773-2.367Q61.319,30.7,59.53,30.7Zm2.648-5.484-2.445,2.523H57.952l2.031-2.523ZM72.391,37H69.923V25.156h2.469Zm8.774,0H78.83V35.852H78.8A2.607,2.607,0,0,1,76.416,37.2a2.492,2.492,0,0,1-1.832-.66,2.366,2.366,0,0,1-.668-1.762q0-2.328,2.758-2.687l2.172-.289q0-1.312-1.422-1.312a4.853,4.853,0,0,0-2.719.852V29.477a6.116,6.116,0,0,1,1.41-.469,7.413,7.413,0,0,1,1.629-.2q3.422,0,3.422,3.414Zm-2.32-3.25v-.539l-1.453.188q-1.2.156-1.2,1.086a.9.9,0,0,0,.293.691,1.126,1.126,0,0,0,.793.27,1.462,1.462,0,0,0,1.133-.48A1.735,1.735,0,0,0,78.846,33.75Zm3.79,3.039v-2a5.256,5.256,0,0,0,1.215.547,4.028,4.028,0,0,0,1.145.18,2.455,2.455,0,0,0,1.035-.18.581.581,0,0,0,.379-.547.506.506,0,0,0-.172-.391,1.6,1.6,0,0,0-.441-.273,5.009,5.009,0,0,0-.59-.211q-.32-.094-.617-.211a5.914,5.914,0,0,1-.84-.387,2.427,2.427,0,0,1-.609-.48,1.889,1.889,0,0,1-.375-.633,2.525,2.525,0,0,1-.129-.852,2.192,2.192,0,0,1,.293-1.156,2.393,2.393,0,0,1,.781-.793,3.57,3.57,0,0,1,1.117-.453,5.825,5.825,0,0,1,1.309-.145,7.261,7.261,0,0,1,1.078.082,8.047,8.047,0,0,1,1.078.238v1.906a3.9,3.9,0,0,0-1-.41,4.235,4.235,0,0,0-1.051-.137,2.328,2.328,0,0,0-.457.043,1.505,1.505,0,0,0-.379.125.7.7,0,0,0-.258.211.486.486,0,0,0-.094.293.541.541,0,0,0,.141.375,1.221,1.221,0,0,0,.367.27,3.625,3.625,0,0,0,.5.2q.277.09.551.184a7.161,7.161,0,0,1,.891.375,2.848,2.848,0,0,1,.684.477,1.872,1.872,0,0,1,.438.641,2.563,2.563,0,0,1-.156,2.09,2.471,2.471,0,0,1-.82.82,3.72,3.72,0,0,1-1.18.461,6.54,6.54,0,0,1-1.387.145A7.149,7.149,0,0,1,82.636,36.789Zm18.119-.078a4.881,4.881,0,0,1-2.414.484,4.083,4.083,0,0,1-2.984-1.117A3.859,3.859,0,0,1,94.216,33.2a4.251,4.251,0,0,1,1.223-3.215,4.518,4.518,0,0,1,3.27-1.176,4.2,4.2,0,0,1,2.047.375v2.094a2.814,2.814,0,0,0-1.727-.578,2.275,2.275,0,0,0-1.684.621,2.317,2.317,0,0,0-.621,1.715,2.28,2.28,0,0,0,.594,1.668,2.182,2.182,0,0,0,1.633.605,3.258,3.258,0,0,0,1.8-.578Zm8.313.289h-2.336V35.852H106.7a2.607,2.607,0,0,1-2.383,1.344,2.492,2.492,0,0,1-1.832-.66,2.366,2.366,0,0,1-.668-1.762q0-2.328,2.758-2.687l2.172-.289q0-1.312-1.422-1.312a4.853,4.853,0,0,0-2.719.852V29.477a6.116,6.116,0,0,1,1.41-.469,7.413,7.413,0,0,1,1.629-.2q3.422,0,3.422,3.414Zm-2.32-3.25v-.539l-1.453.188q-1.2.156-1.2,1.086a.9.9,0,0,0,.293.691,1.126,1.126,0,0,0,.793.27,1.462,1.462,0,0,0,1.133-.48A1.735,1.735,0,0,0,106.748,33.75Zm3.79,3.039v-2a5.256,5.256,0,0,0,1.215.547,4.028,4.028,0,0,0,1.145.18,2.455,2.455,0,0,0,1.035-.18.581.581,0,0,0,.379-.547.506.506,0,0,0-.172-.391,1.6,1.6,0,0,0-.441-.273,5.009,5.009,0,0,0-.59-.211q-.32-.094-.617-.211a5.914,5.914,0,0,1-.84-.387,2.427,2.427,0,0,1-.609-.48,1.889,1.889,0,0,1-.375-.633,2.525,2.525,0,0,1-.129-.852,2.192,2.192,0,0,1,.293-1.156,2.393,2.393,0,0,1,.781-.793,3.57,3.57,0,0,1,1.117-.453,5.825,5.825,0,0,1,1.309-.145,7.261,7.261,0,0,1,1.078.082,8.047,8.047,0,0,1,1.078.238v1.906a3.9,3.9,0,0,0-1-.41,4.235,4.235,0,0,0-1.051-.137,2.328,2.328,0,0,0-.457.043,1.505,1.505,0,0,0-.379.125.7.7,0,0,0-.258.211.486.486,0,0,0-.094.293.541.541,0,0,0,.141.375,1.221,1.221,0,0,0,.367.27,3.625,3.625,0,0,0,.5.2q.277.09.551.184a7.161,7.161,0,0,1,.891.375,2.848,2.848,0,0,1,.684.477,1.872,1.872,0,0,1,.438.641,2.563,2.563,0,0,1-.156,2.09,2.471,2.471,0,0,1-.82.82,3.72,3.72,0,0,1-1.18.461,6.54,6.54,0,0,1-1.387.145A7.149,7.149,0,0,1,110.538,36.789ZM124.8,37h-2.336V35.852h-.031a2.607,2.607,0,0,1-2.383,1.344,2.492,2.492,0,0,1-1.832-.66,2.366,2.366,0,0,1-.668-1.762q0-2.328,2.758-2.687l2.172-.289q0-1.312-1.422-1.312a4.853,4.853,0,0,0-2.719.852V29.477a6.116,6.116,0,0,1,1.41-.469,7.413,7.413,0,0,1,1.629-.2q3.422,0,3.422,3.414Zm-2.32-3.25v-.539l-1.453.188q-1.2.156-1.2,1.086a.9.9,0,0,0,.293.691,1.126,1.126,0,0,0,.793.27,1.462,1.462,0,0,0,1.133-.48A1.735,1.735,0,0,0,122.476,33.75Zm3.79,3.039v-2a5.256,5.256,0,0,0,1.215.547,4.028,4.028,0,0,0,1.145.18,2.455,2.455,0,0,0,1.035-.18.581.581,0,0,0,.379-.547.506.506,0,0,0-.172-.391,1.6,1.6,0,0,0-.441-.273,5.009,5.009,0,0,0-.59-.211q-.32-.094-.617-.211a5.914,5.914,0,0,1-.84-.387,2.427,2.427,0,0,1-.609-.48,1.889,1.889,0,0,1-.375-.633,2.525,2.525,0,0,1-.129-.852,2.192,2.192,0,0,1,.293-1.156,2.393,2.393,0,0,1,.781-.793,3.57,3.57,0,0,1,1.117-.453,5.825,5.825,0,0,1,1.309-.145,7.261,7.261,0,0,1,1.078.082,8.047,8.047,0,0,1,1.078.238v1.906a3.9,3.9,0,0,0-1-.41,4.235,4.235,0,0,0-1.051-.137,2.328,2.328,0,0,0-.457.043,1.505,1.505,0,0,0-.379.125.7.7,0,0,0-.258.211.486.486,0,0,0-.094.293.541.541,0,0,0,.141.375,1.221,1.221,0,0,0,.367.27,3.625,3.625,0,0,0,.5.2q.277.09.551.184a7.161,7.161,0,0,1,.891.375,2.848,2.848,0,0,1,.684.477,1.871,1.871,0,0,1,.438.641,2.563,2.563,0,0,1-.156,2.09,2.471,2.471,0,0,1-.82.82,3.72,3.72,0,0,1-1.18.461,6.54,6.54,0,0,1-1.387.145A7.149,7.149,0,0,1,126.266,36.789ZM146.151,37h-2.469V35.9h-.031a2.768,2.768,0,0,1-2.477,1.3,3.033,3.033,0,0,1-2.414-1.059,4.382,4.382,0,0,1-.914-2.957A4.77,4.77,0,0,1,138.854,30a3.287,3.287,0,0,1,2.641-1.2,2.246,2.246,0,0,1,2.156,1.109h.031V25.156h2.469Zm-2.422-3.891v-.6a1.893,1.893,0,0,0-.453-1.3,1.6,1.6,0,0,0-2.461.129,2.993,2.993,0,0,0-.461,1.77,2.59,2.59,0,0,0,.445,1.625,1.581,1.581,0,0,0,2.457-.031A2.507,2.507,0,0,0,143.729,33.109Zm11.727.594h-5.219q.125,1.742,2.2,1.742a4.286,4.286,0,0,0,2.32-.625V36.6a6.1,6.1,0,0,1-2.883.594,3.724,3.724,0,0,1-4.078-4.07,4.281,4.281,0,0,1,1.156-3.156,3.852,3.852,0,0,1,2.844-1.164,3.5,3.5,0,0,1,2.707,1.039,4,4,0,0,1,.957,2.82Zm-2.289-1.516q0-1.719-1.391-1.719a1.328,1.328,0,0,0-1.027.492,2.234,2.234,0,0,0-.527,1.227ZM159.434,37h-2.469V25.156h2.469ZM64.2,56.07h-.031V57H61.7V45.156h2.469V50.2H64.2a2.929,2.929,0,0,1,2.6-1.4,2.855,2.855,0,0,1,2.383,1.063,4.582,4.582,0,0,1,.836,2.906,4.962,4.962,0,0,1-.977,3.211A3.181,3.181,0,0,1,66.434,57.2,2.521,2.521,0,0,1,64.2,56.07Zm-.07-3.375v.82a1.872,1.872,0,0,0,.445,1.281,1.449,1.449,0,0,0,1.141.508,1.514,1.514,0,0,0,1.309-.652,3.15,3.15,0,0,0,.465-1.848,2.506,2.506,0,0,0-.426-1.551,1.437,1.437,0,0,0-1.215-.559,1.569,1.569,0,0,0-1.23.555A2.107,2.107,0,0,0,64.129,52.7ZM78.161,57H75.826V55.852h-.031A2.607,2.607,0,0,1,73.411,57.2a2.492,2.492,0,0,1-1.832-.66,2.366,2.366,0,0,1-.668-1.762q0-2.328,2.758-2.687l2.172-.289q0-1.312-1.422-1.312a4.853,4.853,0,0,0-2.719.852V49.477a6.117,6.117,0,0,1,1.41-.469,7.413,7.413,0,0,1,1.629-.2q3.422,0,3.422,3.414Zm-2.32-3.25v-.539l-1.453.188q-1.2.156-1.2,1.086a.9.9,0,0,0,.293.691,1.126,1.126,0,0,0,.793.27,1.462,1.462,0,0,0,1.133-.48A1.735,1.735,0,0,0,75.841,53.75Zm9.532-2.523a2.142,2.142,0,0,0-1.039-.242,1.5,1.5,0,0,0-1.258.59,2.573,2.573,0,0,0-.453,1.605V57H80.155V49h2.469v1.484h.031a2.136,2.136,0,0,1,2.109-1.625,1.59,1.59,0,0,1,.609.094Zm6.407,0a2.142,2.142,0,0,0-1.039-.242,1.5,1.5,0,0,0-1.258.59,2.573,2.573,0,0,0-.453,1.605V57H86.562V49h2.469v1.484h.031a2.136,2.136,0,0,1,2.109-1.625,1.59,1.59,0,0,1,.609.094Zm2.5-3.492a1.442,1.442,0,0,1-1.023-.371,1.2,1.2,0,0,1-.4-.91,1.153,1.153,0,0,1,.4-.906,1.671,1.671,0,0,1,2.051,0,1.158,1.158,0,0,1,.395.906,1.191,1.191,0,0,1-.395.922A1.466,1.466,0,0,1,94.281,47.734ZM95.5,57H93.031V49H95.5Zm5.931.2a4.3,4.3,0,0,1-3.145-1.121,4.636,4.636,0,0,1,.043-6.148A4.487,4.487,0,0,1,101.54,48.8a4.249,4.249,0,0,1,3.125,1.121,3.985,3.985,0,0,1,1.133,2.965,4.23,4.23,0,0,1-1.168,3.148A4.348,4.348,0,0,1,101.431,57.2Zm.063-6.5a1.647,1.647,0,0,0-1.359.6A2.653,2.653,0,0,0,99.65,53q0,2.3,1.859,2.3,1.773,0,1.773-2.367Q103.282,50.7,101.493,50.7Zm7.048,6.5a1.44,1.44,0,0,1-1.016-.375,1.206,1.206,0,0,1-.406-.922,1.161,1.161,0,0,1,.418-.922,1.543,1.543,0,0,1,1.043-.359,1.486,1.486,0,0,1,1.035.363,1.258,1.258,0,0,1-.008,1.852A1.549,1.549,0,0,1,108.541,57.2Z" transform="translate(861 2242.711)" fill="#12263f"/>
    <path id="Trazado_1005606" data-name="Trazado 1005606" d="M18.88,21.619a11.837,11.837,0,0,1-4.014.625,8.168,8.168,0,0,1-3.857-.854,5.85,5.85,0,0,1-2.476-2.432,7.516,7.516,0,0,1-.854-3.638,8.008,8.008,0,0,1,.957-3.945A6.619,6.619,0,0,1,11.341,8.7a8.346,8.346,0,0,1,4.023-.942A13.984,13.984,0,0,1,18.88,8.2v3.9a4.962,4.962,0,0,0-1.4-.547,6.979,6.979,0,0,0-1.641-.2,3.672,3.672,0,0,0-2.71.986,3.606,3.606,0,0,0-.991,2.676,3.543,3.543,0,0,0,.991,2.651,3.624,3.624,0,0,0,2.651.972,6.879,6.879,0,0,0,3.1-.781ZM31.8,16.824A5.207,5.207,0,0,1,30.271,20.8,5.972,5.972,0,0,1,26,22.244a6,6,0,0,1-4.243-1.411,5.051,5.051,0,0,1-1.519-3.892,5.214,5.214,0,0,1,.713-2.764,4.636,4.636,0,0,1,2.031-1.8,7.012,7.012,0,0,1,3.037-.625,6.792,6.792,0,0,1,3.081.654,4.763,4.763,0,0,1,2,1.816A4.946,4.946,0,0,1,31.8,16.824Zm-4.219.02q0-2.041-1.562-2.041t-1.562,2.139q0,2.256,1.582,2.256Q27.581,19.2,27.581,16.844Zm13.291-1.279a4,4,0,0,0-1.3-.283q-2.061,0-2.061,2.383V22h-4.16V12h4.16v1.758h.039a3.123,3.123,0,0,1,1.084-1.44,2.785,2.785,0,0,1,1.641-.493,1.409,1.409,0,0,1,.6.117Zm8.721,0a4,4,0,0,0-1.3-.283q-2.061,0-2.061,2.383V22h-4.16V12h4.16v1.758h.039a3.123,3.123,0,0,1,1.084-1.44A2.785,2.785,0,0,1,49,11.824a1.409,1.409,0,0,1,.6.117Zm4.785,2.617a1.405,1.405,0,0,0,.742,1.011,3.347,3.347,0,0,0,1.68.366A6.917,6.917,0,0,0,59.554,19v2.637a9.9,9.9,0,0,1-3.672.605,5.794,5.794,0,0,1-4.072-1.338,4.753,4.753,0,0,1-1.455-3.682,6.074,6.074,0,0,1,.64-2.842,4.6,4.6,0,0,1,1.895-1.929,5.6,5.6,0,0,1,2.769-.7,5.447,5.447,0,0,1,2.656.605,4.033,4.033,0,0,1,1.675,1.7,5.452,5.452,0,0,1,.571,2.559v1.563ZM56.878,16q0-1.729-1.24-1.729a1.049,1.049,0,0,0-.869.474A2.364,2.364,0,0,0,54.358,16Zm13.359,5.713a3.922,3.922,0,0,1-1.26.381A11.91,11.91,0,0,1,67,22.244a6.1,6.1,0,0,1-2.827-.64,4.667,4.667,0,0,1-1.929-1.792,4.975,4.975,0,0,1-.684-2.588,5.667,5.667,0,0,1,.728-2.944,4.743,4.743,0,0,1,2.075-1.875,7.119,7.119,0,0,1,3.125-.649,10.933,10.933,0,0,1,1.753.127,2.678,2.678,0,0,1,1,.293v3.242a2.889,2.889,0,0,0-.9-.43,3.609,3.609,0,0,0-1.084-.186,2.639,2.639,0,0,0-1.851.581,2.114,2.114,0,0,0-.63,1.636,2.075,2.075,0,0,0,.62,1.606,2.419,2.419,0,0,0,1.7.571,4.244,4.244,0,0,0,2.139-.557Zm8.7.146a4.053,4.053,0,0,1-.928.259,8.482,8.482,0,0,1-1.553.122,3.73,3.73,0,0,1-2.72-.957,3.632,3.632,0,0,1-.981-2.725V14.881H71.185V12h1.572V10.037l4.1-1.133V12h2.08v2.881h-2.08v3q0,1.318,1.045,1.318a2.835,2.835,0,0,0,1.035-.215ZM91.36,16.824A5.207,5.207,0,0,1,89.832,20.8a7.061,7.061,0,0,1-8.516.034A5.051,5.051,0,0,1,79.8,16.941a5.214,5.214,0,0,1,.713-2.764,4.636,4.636,0,0,1,2.031-1.8,7.012,7.012,0,0,1,3.037-.625,6.792,6.792,0,0,1,3.081.654,4.763,4.763,0,0,1,2,1.816A4.946,4.946,0,0,1,91.36,16.824Zm-4.219.02q0-2.041-1.562-2.041t-1.562,2.139q0,2.256,1.582,2.256Q87.142,19.2,87.142,16.844Z" transform="translate(906.698 2377.711)" fill="#12263f"/>
    <path id="Trazado_1005605" data-name="Trazado 1005605" d="M2.863,22V8H7.082V22Zm13.076,0V16.541a2.427,2.427,0,0,0-.278-1.333,1.017,1.017,0,0,0-.9-.405.978.978,0,0,0-.84.42,1.792,1.792,0,0,0-.3,1.074V22H9.455V12h4.16v1.563h.039a3.53,3.53,0,0,1,1.338-1.333,3.655,3.655,0,0,1,1.826-.474q3.281,0,3.281,4.141V22Zm14.277-.283a3.922,3.922,0,0,1-1.26.381,11.91,11.91,0,0,1-1.982.146,6.1,6.1,0,0,1-2.827-.64,4.667,4.667,0,0,1-1.929-1.792,4.975,4.975,0,0,1-.684-2.588,5.667,5.667,0,0,1,.728-2.944,4.743,4.743,0,0,1,2.075-1.875,7.119,7.119,0,0,1,3.125-.649,10.933,10.933,0,0,1,1.753.127,2.678,2.678,0,0,1,1,.293v3.242a2.889,2.889,0,0,0-.9-.43,3.609,3.609,0,0,0-1.084-.186,2.639,2.639,0,0,0-1.851.581,2.114,2.114,0,0,0-.63,1.636,2.075,2.075,0,0,0,.62,1.606,2.419,2.419,0,0,0,1.7.571,4.244,4.244,0,0,0,2.139-.557ZM43,16.824A5.207,5.207,0,0,1,41.472,20.8,5.972,5.972,0,0,1,37.2,22.244a6,6,0,0,1-4.243-1.411,5.051,5.051,0,0,1-1.519-3.892,5.214,5.214,0,0,1,.713-2.764,4.636,4.636,0,0,1,2.031-1.8,7.012,7.012,0,0,1,3.037-.625,6.792,6.792,0,0,1,3.081.654,4.763,4.763,0,0,1,2,1.816A4.946,4.946,0,0,1,43,16.824Zm-4.219.02q0-2.041-1.562-2.041t-1.562,2.139q0,2.256,1.582,2.256Q38.781,19.2,38.781,16.844Zm13.291-1.279a4,4,0,0,0-1.3-.283q-2.061,0-2.061,2.383V22h-4.16V12h4.16v1.758h.039a3.123,3.123,0,0,1,1.084-1.44,2.785,2.785,0,0,1,1.641-.493,1.409,1.409,0,0,1,.6.117Zm8.721,0a4,4,0,0,0-1.3-.283q-2.061,0-2.061,2.383V22h-4.16V12h4.16v1.758h.039a3.123,3.123,0,0,1,1.084-1.44,2.785,2.785,0,0,1,1.641-.493,1.409,1.409,0,0,1,.6.117Zm4.785,2.617a1.405,1.405,0,0,0,.742,1.011,3.347,3.347,0,0,0,1.68.366A6.917,6.917,0,0,0,70.754,19v2.637a9.9,9.9,0,0,1-3.672.605,5.794,5.794,0,0,1-4.072-1.338,4.753,4.753,0,0,1-1.455-3.682,6.074,6.074,0,0,1,.64-2.842,4.6,4.6,0,0,1,1.895-1.929,5.6,5.6,0,0,1,2.769-.7,5.447,5.447,0,0,1,2.656.605,4.033,4.033,0,0,1,1.675,1.7,5.452,5.452,0,0,1,.571,2.559v1.563ZM68.078,16q0-1.729-1.24-1.729a1.049,1.049,0,0,0-.869.474A2.364,2.364,0,0,0,65.559,16Zm13.359,5.713a3.922,3.922,0,0,1-1.26.381,11.91,11.91,0,0,1-1.982.146,6.1,6.1,0,0,1-2.827-.64,4.667,4.667,0,0,1-1.929-1.792,4.975,4.975,0,0,1-.684-2.588,5.667,5.667,0,0,1,.728-2.944,4.743,4.743,0,0,1,2.075-1.875,7.119,7.119,0,0,1,3.125-.649,10.933,10.933,0,0,1,1.753.127,2.678,2.678,0,0,1,1,.293v3.242a2.889,2.889,0,0,0-.9-.43,3.609,3.609,0,0,0-1.084-.186,2.639,2.639,0,0,0-1.851.581,2.114,2.114,0,0,0-.63,1.636,2.075,2.075,0,0,0,.62,1.606,2.419,2.419,0,0,0,1.7.571,4.244,4.244,0,0,0,2.139-.557Zm8.7.146a4.053,4.053,0,0,1-.928.259,8.482,8.482,0,0,1-1.553.122,3.73,3.73,0,0,1-2.72-.957,3.632,3.632,0,0,1-.981-2.725V14.881H82.385V12h1.572V10.037l4.1-1.133V12h2.08v2.881h-2.08v3q0,1.318,1.045,1.318a2.835,2.835,0,0,0,1.035-.215Zm12.422-5.039a5.207,5.207,0,0,1-1.528,3.975,7.061,7.061,0,0,1-8.516.034A5.051,5.051,0,0,1,91,16.941a5.214,5.214,0,0,1,.713-2.764,4.636,4.636,0,0,1,2.031-1.8,7.012,7.012,0,0,1,3.037-.625,6.792,6.792,0,0,1,3.081.654,4.763,4.763,0,0,1,2,1.816A4.946,4.946,0,0,1,102.561,16.824Zm-4.219.02q0-2.041-1.562-2.041t-1.562,2.139q0,2.256,1.582,2.256Q98.342,19.2,98.342,16.844Z" transform="translate(600.954 2377.711)" fill="#12263f"/>
    <g id="Grupo_1178004" data-name="Grupo 1178004" transform="translate(638.055 2201.051)">
      <path id="Trazado_995542" data-name="Trazado 995542" d="M32,51.787a4.493,4.493,0,0,0-2.948,1.053,3.547,3.547,0,0,1-2.385.872,4,4,0,0,1-2.7-1.094V47.443L25.375,48.8l2.043-1.967L15.974,35.815l-4.193,4.036V38.219H8.969v4.338L4.524,46.836l2.107,1.955,1.4-1.348v5.174a4,4,0,0,1-2.7,1.094,3.546,3.546,0,0,1-2.385-.872A4.493,4.493,0,0,0,0,51.787V64.461H32ZM9.906,39.122h.938v1.631l-.938.9Zm-.937,7.419,3.613-3.477-.663-.638-5.3,5.1-.757-.7,10.112-9.733L26.092,46.83l-.717.69L16,38.5,12.669,41.7l.663.638L16,39.773l7.031,6.768V52.1a4.4,4.4,0,0,0-1.7-.309,4.249,4.249,0,0,0-2.052.473V50.866h-.938v2a3.682,3.682,0,0,1-4.687,0V48.2h4.687v1.807h.938V47.3H12.719v4.964a4.249,4.249,0,0,0-2.052-.474,4.4,4.4,0,0,0-1.7.308ZM31.059,63.586H.963V57.3a4.114,4.114,0,0,1,1.423.759,4.493,4.493,0,0,0,2.948,1.053,4.493,4.493,0,0,0,2.948-1.053,3.547,3.547,0,0,1,2.385-.872,3.546,3.546,0,0,1,2.385.872,4.654,4.654,0,0,0,5.9,0,3.7,3.7,0,0,1,4.771,0,4.654,4.654,0,0,0,5.9,0,4.08,4.08,0,0,1,1.445-.765Zm0-7.22a4.762,4.762,0,0,0-2.007.968,3.7,3.7,0,0,1-4.771,0,4.654,4.654,0,0,0-5.9,0,3.7,3.7,0,0,1-4.771,0,4.493,4.493,0,0,0-2.948-1.053,4.493,4.493,0,0,0-2.948,1.053,3.547,3.547,0,0,1-2.385.872,3.546,3.546,0,0,1-2.385-.872,4.777,4.777,0,0,0-1.985-.963V52.8a4.114,4.114,0,0,1,1.423.759,4.493,4.493,0,0,0,2.948,1.053,4.493,4.493,0,0,0,2.948-1.053,3.547,3.547,0,0,1,2.385-.872,3.546,3.546,0,0,1,2.385.872,4.654,4.654,0,0,0,5.9,0,3.7,3.7,0,0,1,4.771,0,4.654,4.654,0,0,0,5.9,0,4.08,4.08,0,0,1,1.445-.765Z" transform="translate(0 -32.459)" fill="#12263f"/>
      <path id="Trazado_995545" data-name="Trazado 995545" d="M0,0H3.947V1.4H0Z" transform="translate(27.098 2.797) rotate(-45)" fill="#12263f"/>
      <path id="Trazado_995546" data-name="Trazado 995546" d="M0,0H3.947V1.4H0Z" transform="translate(22.312 6.895) rotate(-45)" fill="#12263f"/>
      <path id="Trazado_995547" data-name="Trazado 995547" d="M0,0H3.947V1.4H0Z" transform="translate(27.097 11.753) rotate(-45)" fill="#12263f"/>
      <path id="Trazado_995548" data-name="Trazado 995548" d="M0,0H3.947V1.4H0Z" transform="translate(23.074 2.796) rotate(-45)" fill="#12263f"/>
      <path id="Trazado_995549" data-name="Trazado 995549" d="M0,0H3.947V1.4H0Z" transform="translate(23.073 9.886) rotate(-45)" fill="#12263f"/>
      <path id="Trazado_995550" data-name="Trazado 995550" d="M0,0H3.947V1.4H0Z" transform="translate(18.528 2.796) rotate(-45)" fill="#12263f"/>
      <path id="Trazado_995551" data-name="Trazado 995551" d="M0,0H3.947V1.4H0Z" transform="translate(9.82 2.794) rotate(-45)" fill="#12263f"/>
      <path id="Trazado_995552" data-name="Trazado 995552" d="M0,0H3.947V1.4H0Z" transform="translate(5.392 2.794) rotate(-45)" fill="#12263f"/>
      <path id="Trazado_995553" data-name="Trazado 995553" d="M0,0H3.947V1.4H0Z" transform="translate(5.392 7.446) rotate(-45)" fill="#12263f"/>
      <path id="Trazado_995554" data-name="Trazado 995554" d="M0,0H3.947V1.4H0Z" transform="translate(1.325 2.793) rotate(-45)" fill="#12263f"/>
      <path id="Trazado_995555" data-name="Trazado 995555" d="M0,0H3.947V1.4H0Z" transform="translate(1.324 7.446) rotate(-45)" fill="#12263f"/>
      <path id="Trazado_995556" data-name="Trazado 995556" d="M0,0H3.947V1.4H0Z" transform="translate(1.324 11.751) rotate(-45)" fill="#12263f"/>
    </g>
    <path id="Trazado_995557" data-name="Trazado 995557" d="M11.464,74.988a5.713,5.713,0,0,0,.894.564l.029.015a5.7,5.7,0,0,0,6.032-.578,5.7,5.7,0,0,0,1.494.826l.017.006a5.7,5.7,0,0,0,5.445-.832,5.705,5.705,0,0,0,6.956,0,5.7,5.7,0,0,0,6.956,0,5.7,5.7,0,0,0,7.295-.284.51.51,0,0,0-.682-.758,4.682,4.682,0,0,1-6.272,0,.51.51,0,0,0-.681,0,4.7,4.7,0,0,1-1.427.881L35.7,73.392l2.327.505a.51.51,0,0,0,.6-.356l1.1-3.8.988.265a1.649,1.649,0,0,0,.426.057,1.6,1.6,0,0,0,1.369-2.4l-9.6-16.634A1.733,1.733,0,0,0,30.54,50.4L13.906,60a1.6,1.6,0,0,0,.384,2.925l1.185.318.884,3.314-1.044-.814a.51.51,0,0,0-.806.27l-2.226,8.309a4.747,4.747,0,0,1-.478-.376.51.51,0,0,0-.681,0,4.686,4.686,0,0,1-6.275,0,.51.51,0,0,0-.682.758,5.7,5.7,0,0,0,7.3.284Zm17.755.147-.012,0a4.684,4.684,0,0,1-3.493-1.19.51.51,0,0,0-.681,0A4.687,4.687,0,0,1,20.718,75l2.937-10.962,8.393,2.249-2.356,8.787a4.548,4.548,0,0,1-.473.061Zm-13.4-12.855-1.267-.34a.554.554,0,0,1-.423-.479.564.564,0,0,1,.286-.578l16.636-9.6a.713.713,0,0,1,.974.261l9.6,16.636a.557.557,0,0,1-.04.64.564.564,0,0,1-.609.206l-1.265-.34L31.222,53.975a.51.51,0,0,0-.7-.187L15.82,62.279Zm-.524,4.741,1.634,1.275a.51.51,0,0,0,.806-.533l-1.251-4.689,14.109-8.146,8.235,14.259L37.779,72.8l-4.019-.873a.51.51,0,0,0-.424.9l2.92,2.3a4.685,4.685,0,0,1-3.584-1.183.51.51,0,0,0-.681,0,4.711,4.711,0,0,1-1.143.759l2.318-8.646a.51.51,0,0,0-.36-.624l-9.378-2.513a.51.51,0,0,0-.624.361L19.761,74.634a4.717,4.717,0,0,1-1-.688.51.51,0,0,0-.681,0,4.681,4.681,0,0,1-4.871.871l2.088-7.8ZM46.621,78.442a.51.51,0,0,1-.038.72,5.7,5.7,0,0,1-7.295.284,5.7,5.7,0,0,1-6.956,0,5.705,5.705,0,0,1-6.956,0,5.7,5.7,0,0,1-6.956,0,5.7,5.7,0,0,1-6.954,0,5.7,5.7,0,0,1-7.3-.284.51.51,0,1,1,.682-.758,4.686,4.686,0,0,0,6.275,0,.51.51,0,0,1,.681,0,4.682,4.682,0,0,0,6.272,0,.51.51,0,0,1,.681,0,4.688,4.688,0,0,0,6.275,0,.51.51,0,0,1,.681,0,4.688,4.688,0,0,0,6.275,0,.51.51,0,0,1,.681,0,4.688,4.688,0,0,0,6.275,0,.51.51,0,0,1,.681,0,4.682,4.682,0,0,0,6.272,0,.51.51,0,0,1,.72.038Zm0,4.458a.51.51,0,0,1-.038.72,5.7,5.7,0,0,1-7.295.283,5.705,5.705,0,0,1-6.956,0,5.705,5.705,0,0,1-6.956,0,5.705,5.705,0,0,1-6.956,0,5.7,5.7,0,0,1-6.954,0,5.7,5.7,0,0,1-7.3-.284.51.51,0,0,1,.682-.758,4.686,4.686,0,0,0,6.275,0,.51.51,0,0,1,.681,0,4.682,4.682,0,0,0,6.272,0,.51.51,0,0,1,.681,0,4.689,4.689,0,0,0,6.275,0,.51.51,0,0,1,.681,0,4.689,4.689,0,0,0,6.275,0,.51.51,0,0,1,.681,0,4.688,4.688,0,0,0,6.275,0,.51.51,0,0,1,.681,0,4.682,4.682,0,0,0,6.272,0,.51.51,0,0,1,.72.038Z" transform="translate(921.323 2147.965)" fill="#12263f"/>
  </g>
</svg>
