<svg xmlns="http://www.w3.org/2000/svg" width="128" height="128" viewBox="0 0 128 128">
  <g id="Grupo_1178166" data-name="Grupo 1178166" transform="translate(-72.746 -7992)">
    <g id="Elipse_13628" data-name="Elipse 13628" transform="translate(72.746 7992)" fill="#fff7e2" stroke="#cff878" stroke-width="6">
      <circle cx="64" cy="64" r="64" stroke="none"/>
      <circle cx="64" cy="64" r="61" fill="none"/>
    </g>
    <g id="Grupo_1178188" data-name="Grupo 1178188" transform="translate(100.586 8019.87)">
      <path id="Trazado_997462" data-name="Trazado 997462" d="M118.031,155.337V125.568h-15.2V111.856h15.2V99.928h13.713v11.928h15.2v13.713h-15.2v29.769Z" transform="translate(-88.289 -85.825)" fill="#ba7052"/>
      <path id="Trazado_997463" data-name="Trazado 997463" d="M155.086,155.28v-6.368h15.2V144.38h-15.2V132.452h-4.532V144.38h-15.2v4.532h15.2v29.769h4.532Z" transform="translate(-116.221 -113.759)" fill="#e2d0c5"/>
      <g id="Grupo_1178187" data-name="Grupo 1178187" transform="translate(37.797 36.183)">
        <path id="Trazado_997464" data-name="Trazado 997464" d="M294.213,287.878a14,14,0,1,1,0-28,14.145,14.145,0,0,1,1.49.08,17.5,17.5,0,1,0,0,27.838A14.139,14.139,0,0,1,294.213,287.878Z" transform="translate(-267.595 -256.379)" fill="#efd873"/>
        <path id="Trazado_997465" data-name="Trazado 997465" d="M410.011,331.085l2.213,4.484,4.949.719-3.581,3.491.845,4.929-4.426-2.327-4.426,2.327.845-4.929-3.581-3.491,4.949-.719Z" transform="translate(-383.76 -320.542)" fill="#efd873"/>
      </g>
      <path id="Trazado_997466" data-name="Trazado 997466" d="M217.407,373.8H204.66V356.555a1.076,1.076,0,1,0-2.152,0v18.322a1.076,1.076,0,0,0,1.076,1.076h13.823a1.076,1.076,0,0,0,0-2.152Z" transform="translate(-173.897 -305.309)"/>
      <path id="Trazado_997467" data-name="Trazado 997467" d="M110.015,126.6a1.076,1.076,0,0,0,2.152,0v-7.86a1.076,1.076,0,0,0-1.076-1.076H96.968V105.992h14.123a1.076,1.076,0,0,0,1.076-1.076V94.065h11.672v10.852a1.076,1.076,0,0,0,1.076,1.076h14.123v5.218a1.076,1.076,0,1,0,2.152,0v-6.294a1.076,1.076,0,0,0-1.076-1.076H125.99V92.989a1.076,1.076,0,0,0-1.076-1.076H111.091a1.076,1.076,0,0,0-1.076,1.076v10.852H95.892a1.076,1.076,0,0,0-1.076,1.076V118.74a1.076,1.076,0,0,0,1.076,1.076h14.123V126.6Z" transform="translate(-81.404 -78.941)"/>
      <path id="Trazado_997468" data-name="Trazado 997468" d="M163.739,140.987a1.076,1.076,0,0,0,1.076-1.076v-2.078a1.076,1.076,0,0,0-1.076-1.076H149.616V125.9a1.076,1.076,0,0,0-1.076-1.076h-4.532a1.076,1.076,0,0,0-1.076,1.076v10.852H128.809a1.076,1.076,0,0,0-1.076,1.076v4.532a1.076,1.076,0,0,0,1.076,1.076h14.123v28.693a1.076,1.076,0,0,0,1.076,1.076h3.241a1.076,1.076,0,1,0,0-2.152h-2.165V142.365a1.076,1.076,0,0,0-1.076-1.076H129.885v-2.38h14.123a1.076,1.076,0,0,0,1.076-1.076V126.981h2.38v10.852a1.076,1.076,0,0,0,1.076,1.076h14.123v1A1.076,1.076,0,0,0,163.739,140.987Z" transform="translate(-109.675 -107.212)"/>
      <path id="Trazado_997469" data-name="Trazado 997469" d="M268.614,241.456a1.076,1.076,0,0,0-1.076,1.076V248.9a1.076,1.076,0,0,0,2.152,0v-5.292h7.194a1.076,1.076,0,0,0,0-2.152Z" transform="translate(-229.749 -207.379)"/>
      <path id="Trazado_997470" data-name="Trazado 997470" d="M289.043,280.181a13.125,13.125,0,0,1-1.377.074,12.848,12.848,0,0,1-9.061-3.709,1.076,1.076,0,1,0-1.509,1.534,14.972,14.972,0,0,0,8.351,4.165,16.424,16.424,0,1,1,0-29.824,15.079,15.079,0,0,0-10.713,22.667,1.076,1.076,0,0,0,1.844-1.108,12.926,12.926,0,0,1,11.085-19.569,13.129,13.129,0,0,1,1.376.074,1.076,1.076,0,0,0,.766-1.925,18.408,18.408,0,0,0-11.26-3.8,18.576,18.576,0,1,0,0,37.152,18.409,18.409,0,0,0,11.26-3.8,1.076,1.076,0,0,0-.766-1.925Z" transform="translate(-223.251 -213.648)"/>
      <path id="Trazado_997471" data-name="Trazado 997471" d="M411.648,329.41a1.076,1.076,0,0,0-.869-.732l-4.389-.638-1.963-3.977a1.076,1.076,0,0,0-1.93,0l-1.963,3.977-4.389.638a1.076,1.076,0,0,0-.6,1.835l3.176,3.1-.75,4.371a1.076,1.076,0,0,0,1.561,1.134l3.926-2.064,3.925,2.064a1.076,1.076,0,0,0,1.561-1.134l-.75-4.371,3.176-3.1A1.074,1.074,0,0,0,411.648,329.41Zm-5.355,3.053a1.075,1.075,0,0,0-.309.952l.477,2.78-2.5-1.313a1.076,1.076,0,0,0-1,0l-2.5,1.313.477-2.78a1.076,1.076,0,0,0-.309-.952l-2.02-1.969,2.792-.406a1.076,1.076,0,0,0,.81-.589l1.248-2.53,1.248,2.53a1.076,1.076,0,0,0,.81.589l2.792.406Z" transform="translate(-339.415 -277.812)"/>
      <path id="Trazado_997472" data-name="Trazado 997472" d="M11.144,23.376H25.619a1.076,1.076,0,0,0,.932-1.614l-3.774-6.537L26.55,8.688a1.076,1.076,0,0,0-.932-1.614H18.071L14.3.538a1.076,1.076,0,0,0-1.863,0L8.659,7.075H1.111A1.076,1.076,0,0,0,.18,8.688l3.774,6.537L.18,21.762a1.076,1.076,0,0,0,.932,1.614H8.659l1.926,3.336a1.076,1.076,0,0,0,1.863-1.076Zm12.612-2.152H9.9l-3.463-6,3.463-6h6.927l3.464,6-2.055,3.559A1.076,1.076,0,0,0,20.1,19.86l1.434-2.483Zm0-12-2.221,3.847L19.313,9.226Zm-10.39-6,2.221,3.847H11.144Zm-10.39,6H7.417L5.2,13.073Zm0,12L5.2,17.377l2.221,3.847Z"/>
    </g>
  </g>
</svg>
